<svg xmlns="http://www.w3.org/2000/svg" width="314.759" height="310.371" viewBox="0 0 314.759 310.371">
  <g id="Group_39162" data-name="Group 39162" transform="translate(-0.738 -0.553)">
    <path id="Path_109839" data-name="Path 109839" d="M54.34,1797.267s-27.553-20.331-27.01-43.032v-84.279l154.964-5.166,1.579,61.555Z" transform="translate(-24.366 -1525.377)" fill="#263238"/>
    <path id="Path_109840" data-name="Path 109840" d="M338.563,2316.425c-.115,0-.461-19.082-.765-42.613s-.461-42.612-.337-42.612.461,19.065.765,42.6S338.678,2316.417,338.563,2316.425Z" transform="translate(-308.588 -2044.527)" fill="#455a64"/>
    <path id="Path_109841" data-name="Path 109841" d="M443.606,2201.2a.934.934,0,0,1,0-.246l.148-.733c.123-.649.3-1.554.51-2.706.461-2.376,1.1-5.757,1.908-9.928,1.587-8.389,3.718-19.994,5.848-32.849s3.866-24.519,5.058-32.973c.592-4.2,1.069-7.616,1.406-10.019.164-1.16.3-2.064.387-2.722.049-.289.082-.518.115-.708a.976.976,0,0,1,.049-.239.826.826,0,0,1,0,.247,3.054,3.054,0,0,1-.066.715c-.074.65-.181,1.563-.312,2.731-.28,2.369-.707,5.8-1.267,10.034-1.127,8.463-2.813,20.143-4.935,33.006s-4.3,24.452-5.971,32.833c-.822,4.187-1.538,7.567-2.04,9.87l-.584,2.69c-.074.288-.123.51-.164.691A1.075,1.075,0,0,1,443.606,2201.2Z" transform="translate(-405.908 -1931.68)" fill="#455a64"/>
    <path id="Path_109842" data-name="Path 109842" d="M760.817,2097.26a.864.864,0,0,1,0-.238l.123-.708c.123-.65.3-1.554.51-2.7.452-2.377,1.1-5.758,1.9-9.936,1.6-8.39,3.718-20,5.856-32.842s3.857-24.526,5.058-32.981c.592-4.2,1.069-7.616,1.407-10.009.164-1.16.3-2.073.387-2.723.049-.288.082-.526.115-.708a.984.984,0,0,1,.049-.239.822.822,0,0,1,0,.247c0,.181-.041.42-.066.708-.082.657-.181,1.57-.312,2.73-.28,2.377-.707,5.807-1.267,10.034-1.127,8.471-2.813,20.151-4.935,33.015s-4.3,24.452-5.971,32.825c-.822,4.186-1.538,7.575-2.04,9.87-.255,1.143-.444,2.039-.592,2.681l-.156.7A1.126,1.126,0,0,0,760.817,2097.26Z" transform="translate(-696.652 -1836.449)" fill="#455a64"/>
    <path id="Path_109843" data-name="Path 109843" d="M1077.831,1992.679a.941.941,0,0,1,0-.247l.123-.7c.123-.65.3-1.554.51-2.706.452-2.377,1.1-5.757,1.9-9.927,1.6-8.39,3.718-19.994,5.856-32.842s3.857-24.526,5.058-32.981c.593-4.2,1.069-7.616,1.406-10.017.165-1.16.3-2.064.387-2.723.049-.288.082-.518.115-.7a1,1,0,0,1,.049-.247,1.368,1.368,0,0,1,0,.247,2.718,2.718,0,0,1-.074.716c-.074.65-.173,1.571-.3,2.73-.279,2.369-.707,5.8-1.274,10.034-1.119,8.464-2.805,20.143-4.935,33.006s-4.3,24.452-5.979,32.834c-.823,4.186-1.53,7.567-2.032,9.87q-.387,1.711-.592,2.689c-.066.288-.115.518-.164.691A.919.919,0,0,1,1077.831,1992.679Z" transform="translate(-987.215 -1740.585)" fill="#455a64"/>
    <path id="Path_109844" data-name="Path 109844" d="M1394.941,1888.58a.862.862,0,0,1,0-.238l.123-.708c.123-.65.288-1.554.51-2.7.453-2.377,1.1-5.758,1.9-9.936,1.6-8.39,3.718-19.987,5.848-32.842s3.866-24.526,5.066-32.981c.584-4.2,1.07-7.616,1.4-10.009.173-1.16.3-2.073.395-2.723.041-.288.083-.526.107-.708a1.317,1.317,0,0,1,.057-.239,1.346,1.346,0,0,1,0,.247c0,.181-.041.42-.073.708-.074.657-.173,1.57-.313,2.73-.271,2.377-.708,5.807-1.267,10.034-1.119,8.471-2.8,20.151-4.935,33.015s-4.31,24.452-5.98,32.825c-.823,4.186-1.529,7.575-2.032,9.911-.255,1.143-.452,2.04-.592,2.681l-.164.7A1.033,1.033,0,0,1,1394.941,1888.58Z" transform="translate(-1277.866 -1645.181)" fill="#455a64"/>
    <path id="Path_109845" data-name="Path 109845" d="M1712.061,1784.29a.95.95,0,0,1,0-.247l.124-.7c.123-.65.288-1.554.51-2.707.452-2.376,1.1-5.757,1.9-9.927,1.6-8.39,3.717-19.995,5.847-32.842s3.866-24.526,5.067-32.981c.583-4.2,1.06-7.616,1.4-10.018.164-1.151.3-2.064.395-2.722.042-.288.083-.518.108-.7a.847.847,0,0,1,.058-.239,1.418,1.418,0,0,1,0,.239c0,.188-.042.419-.074.715-.074.65-.181,1.571-.313,2.731-.271,2.369-.707,5.8-1.267,10.034-1.118,8.463-2.8,20.143-4.935,33.006s-4.294,24.453-5.938,32.834c-.823,4.186-1.53,7.566-2.04,9.869l-.584,2.69c-.066.288-.124.518-.164.691A1.368,1.368,0,0,1,1712.061,1784.29Z" transform="translate(-1568.526 -1549.592)" fill="#455a64"/>
    <path id="Path_109846" data-name="Path 109846" d="M53.279,903.59s-78.868-61.958,38.583-104.011c0,0,59.564-22.207,120.782-15.627L182.335,856.33Z" transform="translate(-24.407 -716.917)" fill="#455a64"/>
    <path id="Path_109847" data-name="Path 109847" d="M1898.443,216.443l-13.793,70.939,87.693-56.751S1946.427,216.92,1898.443,216.443Z" transform="translate(-1726.722 -197.877)" fill="#ff725e"/>
    <path id="Path_109848" data-name="Path 109848" d="M1884.65,574.609V443.234l87.693-56.751V510.53Z" transform="translate(-1726.722 -353.729)" fill="#ff725e"/>
    <path id="Path_109849" data-name="Path 109849" d="M1898.443,216.443l-13.793,70.939,87.693-56.751S1946.427,216.92,1898.443,216.443Z" transform="translate(-1726.722 -197.877)" opacity="0.3"/>
    <path id="Path_109850" data-name="Path 109850" d="M1983.82,2165.114V2120.7s143.4,14.188,144.5,16.548,0,49.653,0,49.653Z" transform="translate(-1817.618 -1943.247)" fill="#ff725e"/>
    <path id="Path_109851" data-name="Path 109851" d="M1983.82,1455.334l90.473-60.534s39.158,8.981,51.817,34.544,2.2,42.563,2.2,42.563Z" transform="translate(-1817.618 -1277.914)" fill="#ff725e"/>
    <path id="Path_109852" data-name="Path 109852" d="M1983.82,1455.334l90.473-60.534s39.158,8.981,51.817,34.544,2.2,42.563,2.2,42.563C2085.857,1465.665,2036.631,1460.277,1983.82,1455.334Z" transform="translate(-1817.618 -1277.914)" fill="#fff" opacity="0.2"/>
    <path id="Path_109853" data-name="Path 109853" d="M3719.723,2062.34s1.645,53.173,0,58.29-4.063,12.748-4.063,12.748v-49.654Z" transform="translate(-3404.956 -1889.756)" fill="#ff725e"/>
    <path id="Path_109854" data-name="Path 109854" d="M1983.82,2165.114V2120.7s143.4,14.188,144.5,16.548,0,49.653,0,49.653Z" transform="translate(-1817.618 -1943.247)" opacity="0.3"/>
    <path id="Path_109855" data-name="Path 109855" d="M2997.36,2283.332c.082.074-6.539,7.3-14.8,16.121s-14.96,15.915-15.084,15.833,6.53-7.3,14.8-16.12S2997.27,2283.25,2997.36,2283.332Z" transform="translate(-2719.194 -2092.309)" fill="#263238"/>
    <path id="Path_109856" data-name="Path 109856" d="M3357.508,2315.38a2.734,2.734,0,0,1-.238.362l-.765.995c-.666.864-1.645,2.089-2.887,3.594-2.467,3.019-5.93,7.132-9.87,11.573s-7.624,8.365-10.33,11.169c-1.348,1.4-2.467,2.517-3.232,3.29-.353.354-.657.642-.9.872a1.984,1.984,0,0,1-.328.288,2.844,2.844,0,0,1,.271-.345l.823-.929,3.133-3.381c2.641-2.845,6.276-6.809,10.223-11.243s7.444-8.512,9.961-11.473c1.233-1.448,2.245-2.632,2.986-3.512l.822-.938A1.931,1.931,0,0,1,3357.508,2315.38Z" transform="translate(-3050.522 -2121.683)" fill="#263238"/>
    <path id="Path_109857" data-name="Path 109857" d="M2639.622,2243.91a3.233,3.233,0,0,1-.271.37l-.823.987c-.732.823-1.818,2.081-3.167,3.578-2.7,3-6.48,7.1-10.758,11.515s-8.225,8.356-11.136,11.153c-1.456,1.4-2.64,2.525-3.471,3.29l-.962.872c-.223.2-.345.3-.354.28a1.844,1.844,0,0,1,.3-.345l.9-.93,3.372-3.38c2.846-2.854,6.77-6.81,11.047-11.236s8.093-8.479,10.84-11.432l3.29-3.479.9-.938A2.361,2.361,0,0,1,2639.622,2243.91Z" transform="translate(-2390.341 -2056.176)" fill="#263238"/>
    <path id="Path_109858" data-name="Path 109858" d="M2417.476,2189.1c.1.073-5.182,7.147-11.777,15.8s-12.025,15.627-12.124,15.544,5.181-7.139,11.787-15.8S2417.386,2189.03,2417.476,2189.1Z" transform="translate(-2193.182 -2005.942)" fill="#263238"/>
    <path id="Path_109859" data-name="Path 109859" d="M2206.348,2164.453c.09.074-4.532,5.931-10.314,13.085s-10.552,12.88-10.651,12.806,4.532-5.93,10.314-13.077S2206.291,2164.379,2206.348,2164.453Z" transform="translate(-2002.361 -1983.348)" fill="#263238"/>
    <path id="Path_109860" data-name="Path 109860" d="M2028.132,2144.55a3.915,3.915,0,0,1-.551.765l-1.645,2.007c-1.366,1.695-3.225,4.055-5.2,6.712s-3.677,5.132-4.935,6.934l-1.448,2.13a4.351,4.351,0,0,1-.576.756,3.985,3.985,0,0,1,.437-.822c.3-.535.757-1.283,1.333-2.2,1.16-1.842,2.837-4.351,4.811-7.024s3.882-5,5.313-6.646c.708-.823,1.3-1.48,1.719-1.925A3.8,3.8,0,0,1,2028.132,2144.55Z" transform="translate(-1845.078 -1965.107)" fill="#263238"/>
    <path id="Path_109861" data-name="Path 109861" d="M3173.438,2802.956s31.395-17.427,39.414-37.5l-.255-16.45-39.71,34.544-6.087-4.367,1.645,19.378Z" transform="translate(-2901.893 -2519.132)" fill="#455a64"/>
    <path id="Path_109862" data-name="Path 109862" d="M2545.775,2665.656s21.508-8.036,39.709-34.544L2482.6,2620.37Z" transform="translate(-2274.781 -2401.226)" fill="#263238"/>
    <path id="Path_109863" data-name="Path 109863" d="M3238.878,3163.12c.115,0,.3,4.375.42,9.762s.107,9.78,0,9.78-.3-4.367-.411-9.763S3238.763,3163.12,3238.878,3163.12Z" transform="translate(-2967.884 -2898.689)" fill="#263238"/>
    <path id="Path_109864" data-name="Path 109864" d="M456.9,2670.766v40.877s32.537,27.907,109.2,30.267,119.137-24.592,119.137-24.592l-3.29-38.78L571.8,2653Z" transform="translate(-418.104 -2431.133)" fill="#ff725e"/>
    <path id="Path_109865" data-name="Path 109865" d="M456.9,2670.766v40.877s32.537,27.907,109.2,30.267,119.137-24.592,119.137-24.592l-3.29-38.78L571.8,2653Z" transform="translate(-418.104 -2431.133)" opacity="0.3"/>
    <path id="Path_109866" data-name="Path 109866" d="M456.9,2364.295l119.128-45.665,105.894,53.461s-59.564,30.268-124.647,23.219C492.863,2388.27,456.9,2364.295,456.9,2364.295Z" transform="translate(-418.104 -2124.662)" fill="#ff725e"/>
    <path id="Path_109867" data-name="Path 109867" d="M1772.414,3241.19a2.86,2.86,0,0,1-.264.444l-.823,1.234c-.724,1.069-1.785,2.591-3.116,4.466-2.665,3.742-6.449,8.842-10.816,14.328s-8.5,10.313-11.514,13.744c-1.53,1.719-2.78,3.1-3.661,4.038l-1.011,1.069a3.028,3.028,0,0,1-.379.354,2.308,2.308,0,0,1,.313-.411l.954-1.126c.88-1.012,2.081-2.41,3.554-4.113,2.994-3.479,7.073-8.34,11.44-13.818s8.225-10.544,10.906-14.237l3.224-4.384.889-1.184A3,3,0,0,1,1772.414,3241.19Z" transform="translate(-1594.902 -2970.246)" fill="#263238"/>
    <path id="Path_109868" data-name="Path 109868" d="M2060.757,3211.216c.1.066-6.325,9.542-14.345,21.154s-14.632,20.974-14.7,20.891,6.325-9.533,14.344-21.154S2060.658,3211.15,2060.757,3211.216Z" transform="translate(-1861.516 -2942.772)" fill="#263238"/>
    <path id="Path_109869" data-name="Path 109869" d="M2318.166,3151.975c.1.066-6.793,10.207-15.4,22.651s-15.627,22.487-15.759,22.421,6.8-10.215,15.405-22.659S2318.067,3151.9,2318.166,3151.975Z" transform="translate(-2095.508 -2888.474)" fill="#263238"/>
    <path id="Path_109870" data-name="Path 109870" d="M2592.314,3043.74a2.6,2.6,0,0,1-.264.552c-.214.387-.485.9-.822,1.546-.732,1.341-1.818,3.29-3.175,5.626-2.723,4.729-6.58,11.2-11.021,18.242s-8.636,13.3-11.737,17.791c-1.546,2.246-2.821,4.047-3.717,5.288l-1.012,1.415a4.27,4.27,0,0,1-.386.476,2.568,2.568,0,0,1,.313-.526l.97-1.464,3.594-5.362c3.035-4.524,7.189-10.816,11.631-17.849s8.339-13.48,11.12-18.169l3.29-5.552c.371-.625.674-1.126.9-1.5A4.046,4.046,0,0,1,2592.314,3043.74Z" transform="translate(-2345.887 -2789.27)" fill="#263238"/>
    <path id="Path_109871" data-name="Path 109871" d="M2905.511,3004.808c.106.049-4.934,10.536-11.267,23.416s-11.515,23.284-11.655,23.235,4.934-10.536,11.267-23.424S2905.421,3004.75,2905.511,3004.808Z" transform="translate(-2641.393 -2753.586)" fill="#263238"/>
    <path id="Path_109872" data-name="Path 109872" d="M3084.367,3281.392c.107.049-1.6,3.685-3.8,8.109s-4.113,7.961-4.179,7.912,1.6-3.685,3.8-8.11A87.021,87.021,0,0,1,3084.367,3281.392Z" transform="translate(-2819.023 -3007.091)" fill="#263238"/>
    <path id="Path_109873" data-name="Path 109873" d="M1512.362,3258.434c.09.074-7.353,8.488-16.614,18.785s-16.853,18.588-16.935,18.506,7.345-8.488,16.614-18.785S1512.28,3258.351,1512.362,3258.434Z" transform="translate(-1354.746 -2986.05)" fill="#263238"/>
    <path id="Path_109874" data-name="Path 109874" d="M1287.238,3243.15c.09.083-7.337,8.06-16.573,17.823s-16.8,17.617-16.894,17.535,7.328-8.06,16.572-17.823S1287.155,3243.051,1287.238,3243.15Z" transform="translate(-1148.482 -2972.041)" fill="#263238"/>
    <path id="Path_109875" data-name="Path 109875" d="M1021.491,3192.687c.09.083-6.58,8.036-14.854,17.766s-15.084,17.6-15.175,17.5,6.58-8.027,14.854-17.766S1021.4,3192.629,1021.491,3192.687Z" transform="translate(-908.059 -2925.789)" fill="#263238"/>
    <path id="Path_109876" data-name="Path 109876" d="M789.268,3152.67a2.866,2.866,0,0,1-.255.354l-.822.945c-.708.823-1.752,2-3.051,3.438-2.6,2.887-6.259,6.81-10.388,11.054s-7.97,7.994-10.783,10.693c-1.406,1.34-2.558,2.41-3.364,3.141l-.929.823a1.767,1.767,0,0,1-.345.271,1.96,1.96,0,0,1,.288-.329l.872-.9,3.29-3.232c2.755-2.73,6.58-6.514,10.692-10.749s7.822-8.134,10.479-10.964l3.15-3.339.872-.9A1.7,1.7,0,0,1,789.268,3152.67Z" transform="translate(-695.296 -2889.112)" fill="#263238"/>
    <path id="Path_109877" data-name="Path 109877" d="M586.049,3076.647a2.473,2.473,0,0,1-.28.3l-.88.823-3.29,3c-2.747,2.533-6.506,6.079-10.544,10.1s-7.6,7.764-10.141,10.5l-3.019,3.249-.822.872a2.021,2.021,0,0,1-.312.288,1.427,1.427,0,0,1,.247-.345l.765-.929c.674-.823,1.645-1.942,2.912-3.339,2.467-2.788,6.02-6.58,10.067-10.6s7.879-7.534,10.676-10c1.4-1.243,2.55-2.23,3.348-2.9l.938-.765C585.925,3076.713,586.04,3076.63,586.049,3076.647Z" transform="translate(-509.629 -2819.429)" fill="#263238"/>
    <path id="Path_109878" data-name="Path 109878" d="M472.7,3003.216c.082.09-4.367,4.113-9.927,9.047s-10.141,8.825-10.215,8.735,4.367-4.112,9.927-9.047S472.626,3003.133,472.7,3003.216Z" transform="translate(-414.12 -2752.126)" fill="#263238"/>
    <path id="Path_109879" data-name="Path 109879" d="M1132.316,472.045a5.156,5.156,0,0,0,2.509,6.44c1.184.551,2.566.617,3.717,1.242a4.3,4.3,0,0,1,2.18,3.471c.074,1.3-.453,2.681.082,3.874.658,1.481,2.525,1.867,3.915,2.673a6.677,6.677,0,0,1,3.175,5.182,7.988,7.988,0,0,1-2,5.807,9.047,9.047,0,0,1-10.561,2.122,11.512,11.512,0,0,1-5.231-5.947,26.456,26.456,0,0,1-1.7-7.879,80.3,80.3,0,0,1-.066-14.41" transform="translate(-1033.246 -432.152)" fill="#263238"/>
    <path id="Path_109880" data-name="Path 109880" d="M875.611,288.8a8.1,8.1,0,0,0-7.616,3.216,13.407,13.407,0,0,0-2.566,8.537,24.551,24.551,0,0,0,2.1,8.825,6,6,0,0,0,1.974,2.854c1.571,1.02,3.635.3,5.2-.74a16.615,16.615,0,0,0,7.04-13.3,11.643,11.643,0,0,0-1.563-6.415,6.364,6.364,0,0,0-5.263-3.175" transform="translate(-792.529 -264.012)" fill="#263238"/>
    <path id="Path_109881" data-name="Path 109881" d="M398.472,1358.518l-41.272-2.41c-.255-.593-.436-.938-.436-.938l-11.194.255-3.644-.214-.14.3-37.538.823c-7.485,0-15.347,4.614-15.331,10.446-.074,5.552,2.632,11.572,9.335,11.416l51.15-.3h51.15c6.7.115,8.463-3.932,8.463-8.727C409.79,1360.277,404.189,1358.575,398.472,1358.518Z" transform="translate(-264.133 -1241.591)" fill="#263238"/>
    <path id="Path_109882" data-name="Path 109882" d="M457.3,1460.515h3.751l10.3-.074,34.339-.14-.14.157c-.073-1.127-.156-2.328-.23-3.537-.164-2.467-.32-4.935-.468-7.222l.123.132-31.64-3.43-9.385-1.052-2.525-.3-.65-.083h0l.658.057,2.533.247,9.384.962L505,1449.576h.124v.124c.148,2.32.3,4.746.469,7.222.073,1.209.156,2.41.23,3.529v.156h-.165l-34.338.049H457.546Z" transform="translate(-418.466 -1323.898)" fill="#455a64"/>
    <path id="Path_109883" data-name="Path 109883" d="M462.765,1417.929c0,.042-.543-.378-1.448-.921a15.546,15.546,0,0,0-3.759-1.645,15.825,15.825,0,0,0-4.063-.584,10.536,10.536,0,0,1-1.719,0,1.346,1.346,0,0,1,.452-.107,9.517,9.517,0,0,1,1.267-.123,13.67,13.67,0,0,1,7.929,2.262,8.444,8.444,0,0,1,1.012.765C462.634,1417.8,462.765,1417.913,462.765,1417.929Z" transform="translate(-413.405 -1296.01)" fill="#455a64"/>
    <path id="Path_109884" data-name="Path 109884" d="M1163.795,1426.117c0,.083-8.11,2.073-18.161,4.45s-18.209,4.236-18.235,4.162,8.119-2.073,18.17-4.45S1163.778,1426.043,1163.795,1426.117Z" transform="translate(-1032.655 -1306.616)" fill="#455a64"/>
    <path id="Path_109885" data-name="Path 109885" d="M1417.764,1416.877a15.66,15.66,0,0,0-3.192,1.538,15.914,15.914,0,0,0-2.582,2.41,2.847,2.847,0,0,1,.551-.9,8.536,8.536,0,0,1,1.876-1.744,8.238,8.238,0,0,1,2.3-1.11A2.762,2.762,0,0,1,1417.764,1416.877Z" transform="translate(-1293.5 -1298.149)" fill="#455a64"/>
    <path id="Path_109886" data-name="Path 109886" d="M1031.29,1514.76l7.707,1.053.017,8.381-7.082-.165Z" transform="translate(-944.565 -1387.865)" fill="#b78876"/>
    <path id="Path_109887" data-name="Path 109887" d="M1123.66,1527.38h3.454a3.826,3.826,0,0,1,1.917.51l1.834,1.053a29.055,29.055,0,0,0,3.192,1.514c2.114.674,5.658,1.57,6.406,2.146,2.131,1.645,1.489,3.578.321,3.784-1.028.181-17.116-.617-17.116-.617Z" transform="translate(-1029.228 -1399.432)" fill="#ff725e"/>
    <path id="Path_109888" data-name="Path 109888" d="M1187.654,1571.285a5.425,5.425,0,0,1-.378-2.179,5.532,5.532,0,0,1,.238-2.2,19.468,19.468,0,0,1,.05,2.188A20.358,20.358,0,0,1,1187.654,1571.285Z" transform="translate(-1087.514 -1435.664)" fill="#263238"/>
    <path id="Path_109889" data-name="Path 109889" d="M1210.095,1574.839a6.868,6.868,0,0,1-.131-2,7.077,7.077,0,0,1,.148-1.991,7,7,0,0,1,.14,2A7.292,7.292,0,0,1,1210.095,1574.839Z" transform="translate(-1108.31 -1439.275)" fill="#263238"/>
    <path id="Path_109890" data-name="Path 109890" d="M1231.111,1577.423a14.434,14.434,0,0,1-.33-4.113,7.842,7.842,0,0,1,.3,2.048A7.51,7.51,0,0,1,1231.111,1577.423Z" transform="translate(-1127.384 -1441.53)" fill="#263238"/>
    <path id="Path_109891" data-name="Path 109891" d="M1136.122,1554.8a2.176,2.176,0,0,1-.708-.223,6.441,6.441,0,0,1-2.229-1.529,1.778,1.778,0,0,1-.444-.625.823.823,0,0,1,.09-.823.62.62,0,0,1,.189-.163.633.633,0,0,1,.239-.076,1.133,1.133,0,0,1,.469.049,3.455,3.455,0,0,1,.74,6.136,2.242,2.242,0,0,1-.823.362.944.944,0,0,1-.452,0,.613.613,0,0,1-.182-.161.6.6,0,0,1-.106-.218.882.882,0,0,1,.1-.823,2.476,2.476,0,0,1,.444-.534,5.357,5.357,0,0,1,1.7-1.127,2.273,2.273,0,0,1,.715-.2s-.246.1-.666.3a5.68,5.68,0,0,0-1.6,1.16,2.307,2.307,0,0,0-.395.5.688.688,0,0,0-.082.583.461.461,0,0,0,.543.181,1.771,1.771,0,0,0,.691-.329,3.2,3.2,0,0,0-.675-5.659.544.544,0,0,0-.617.091.634.634,0,0,0-.066.616,3.41,3.41,0,0,0,.823,1.02A9.374,9.374,0,0,0,1136.122,1554.8Z" transform="translate(-1037.487 -1421.406)" fill="#263238"/>
    <path id="Path_109892" data-name="Path 109892" d="M1185.154,1537.01a1.889,1.889,0,0,0,.42-.526,1.972,1.972,0,0,0-.23-1.744,3.911,3.911,0,0,0-2.147-1.645c-.979-.345-2.147-.51-3.29-.88a23.156,23.156,0,0,1-5.757-2.591,17.653,17.653,0,0,1-1.563-1.094,3.131,3.131,0,0,1-.526-.461,4,4,0,0,1,.592.37c.37.246.913.608,1.645,1.011a25.6,25.6,0,0,0,5.708,2.467c1.16.354,2.311.527,3.331.905a4.028,4.028,0,0,1,2.238,1.76,2.06,2.06,0,0,1,.148,1.892,1.058,1.058,0,0,1-.354.395C1185.22,1537.01,1185.162,1537.01,1185.154,1537.01Z" transform="translate(-1073.589 -1400.064)" fill="#263238"/>
    <path id="Path_109893" data-name="Path 109893" d="M1118.839,851.358,1132,874.075a9.664,9.664,0,0,1-8.619,14.5l-20.068-.511-.552-7.295,17.667-3.43-11.968-20.562Z" transform="translate(-1010.071 -779.816)" fill="#b78876"/>
    <path id="Path_109894" data-name="Path 109894" d="M597.234,891.978l18.465,4.836.387-5.535-17.034-9.828,12.337-23.087-10.446-5.33-13,22.782a10.693,10.693,0,0,0,6.193,15.191Z" transform="translate(-537.066 -781.352)" fill="#b78876"/>
    <path id="Path_109895" data-name="Path 109895" d="M724.739,738.318l12.6-6.678a64.521,64.521,0,0,0-5.428-9,27.727,27.727,0,0,0-16.878-10.569l-14.508.214a18.966,18.966,0,0,0-5.165,1.2v-.058c-7.871,1.76-16.565,18.958-16.565,18.958L690.31,738.4l.255,1.8a12.333,12.333,0,0,0,3.01,6.423l-3.29,21.993,37.25.674-4.779-15.734Z" transform="translate(-621.481 -652.153)" fill="#ff725e"/>
    <path id="Path_109896" data-name="Path 109896" d="M900.781,371.58a7.09,7.09,0,0,0,6.934-7l.329-28.178a2.254,2.254,0,0,0-2.007-2.278l-11.91-3.01c-3.808-.4-6.341,4.293-6.58,8.118a68.039,68.039,0,0,0,.074,12.625c1.012,6.374,5.9,7.189,5.9,7.189v5.486a7.089,7.089,0,0,0,7.246,7.049Z" transform="translate(-812.583 -302.957)" fill="#b78876"/>
    <path id="Path_109897" data-name="Path 109897" d="M913.3,462.041a.822.822,0,1,0,.268-.529A.823.823,0,0,0,913.3,462.041Z" transform="translate(-836.422 -422.304)" fill="#263238"/>
    <path id="Path_109898" data-name="Path 109898" d="M903.7,451.616c.1.107.715-.354,1.6-.354s1.53.444,1.645.337-.058-.239-.337-.444a2.229,2.229,0,0,0-1.291-.4,2.188,2.188,0,0,0-1.275.411C903.74,451.378,903.649,451.567,903.7,451.616Z" transform="translate(-827.607 -412.636)" fill="#263238"/>
    <path id="Path_109899" data-name="Path 109899" d="M1017.2,463.913a.822.822,0,1,0,.268-.529A.822.822,0,0,0,1017.2,463.913Z" transform="translate(-931.65 -424.02)" fill="#263238"/>
    <path id="Path_109900" data-name="Path 109900" d="M1007.34,453.588c.107.107.724-.354,1.646-.354s1.521.444,1.645.337-.058-.238-.337-.444a2.254,2.254,0,0,0-1.3-.4,2.228,2.228,0,0,0-1.275.411C1007.4,453.35,1007.34,453.514,1007.34,453.588Z" transform="translate(-922.613 -414.444)" fill="#263238"/>
    <path id="Path_109901" data-name="Path 109901" d="M944.706,460.546a6.022,6.022,0,0,0-1.431-.255c-.222,0-.436-.066-.469-.222a1.119,1.119,0,0,1,.148-.666c.206-.543.428-1.11.666-1.711a29.349,29.349,0,0,0,1.489-4.474,29.344,29.344,0,0,0-1.85,4.343c-.222.6-.436,1.176-.633,1.727a1.258,1.258,0,0,0-.115.88.567.567,0,0,0,.37.329,1.646,1.646,0,0,0,.378.049A5.18,5.18,0,0,0,944.706,460.546Z" transform="translate(-863.162 -414.896)" fill="#263238"/>
    <path id="Path_109902" data-name="Path 109902" d="M961.9,641.111a16.261,16.261,0,0,0,8.538-2.278s-2.064,4.376-8.447,3.783Z" transform="translate(-880.963 -585.024)" fill="#aa6550"/>
    <path id="Path_109903" data-name="Path 109903" d="M972.68,560.134a1.571,1.571,0,0,1,1.423-.584,1.432,1.432,0,0,1,1,.535.9.9,0,0,1,.066,1.045,1.062,1.062,0,0,1-1.152.3,3.372,3.372,0,0,1-1.127-.674,1.037,1.037,0,0,1-.247-.255.28.28,0,0,1,0-.329" transform="translate(-890.766 -512.345)" fill="#aa6550"/>
    <path id="Path_109904" data-name="Path 109904" d="M969.434,548.539c-.14,0-.148.954-.963,1.645s-1.834.576-1.842.707.23.181.658.2a2.394,2.394,0,0,0,1.538-.535,2.088,2.088,0,0,0,.74-1.365C969.607,548.778,969.5,548.539,969.434,548.539Z" transform="translate(-885.298 -502.263)" fill="#263238"/>
    <path id="Path_109905" data-name="Path 109905" d="M1002.669,437.344c.09.238.97.123,2,.247s1.867.4,2.007.189-.082-.329-.419-.559a3.368,3.368,0,0,0-1.489-.518,3.442,3.442,0,0,0-1.562.181C1002.825,437.04,1002.635,437.229,1002.669,437.344Z" transform="translate(-918.328 -399.738)" fill="#263238"/>
    <path id="Path_109906" data-name="Path 109906" d="M905.043,431.918c.148.2.757,0,1.489,0s1.341.14,1.489-.074-.041-.3-.3-.485a2.155,2.155,0,0,0-2.4.074C905.059,431.613,904.969,431.819,905.043,431.918Z" transform="translate(-828.828 -394.558)" fill="#263238"/>
    <path id="Path_109907" data-name="Path 109907" d="M940.467,288.433a7.485,7.485,0,0,0,4.738,6.325c1.168.436,2.426.567,3.594.987a3.857,3.857,0,0,1,2.632,2.467,6.212,6.212,0,0,1-.419,3.117,3.269,3.269,0,0,0,.337,3.035c.715.79,1.743.888,2.171,1.719s-.066,1.834-.428,2.722a6.687,6.687,0,0,0-.378,4.17,4.614,4.614,0,0,0,2.657,3.134,1.332,1.332,0,0,0,1.472-.148c.264-.3.05-.823.223-1.16,2.779-6.012,4.046-8.225,4.054-14.393a13.666,13.666,0,0,0-2.369-8.225,6.422,6.422,0,0,0-2.977-2.632,29.613,29.613,0,0,0-7.806-2.344,15,15,0,0,0-4.055-.444,5.066,5.066,0,0,0-3.6,1.686" transform="translate(-861.177 -262.325)" fill="#263238"/>
    <path id="Path_109908" data-name="Path 109908" d="M881.192,319.544a3.471,3.471,0,0,0-1.916,2.41,10.129,10.129,0,0,1-1.094,2.994,18.373,18.373,0,0,1-1.933,1.9,5.576,5.576,0,0,0-1.217,5.47,8.957,8.957,0,0,1,6.029-13.258" transform="translate(-800.248 -291.931)" fill="#263238"/>
    <path id="Path_109909" data-name="Path 109909" d="M958.381,336.191a6.465,6.465,0,0,0-1.011-2.467,4.888,4.888,0,0,0-2.279-1.744,11.692,11.692,0,0,0-3.6-.395,8.083,8.083,0,0,1-1.941-.288,6.3,6.3,0,0,1-1.645-.823,6.422,6.422,0,0,1-2.048-2.286,5.754,5.754,0,0,1-.633-1.966,1.925,1.925,0,0,1,0-.757,9.047,9.047,0,0,0,.9,2.574,6.421,6.421,0,0,0,2.007,2.105,5.881,5.881,0,0,0,1.554.732,8.163,8.163,0,0,0,1.842.263,11.427,11.427,0,0,1,3.718.452,4.935,4.935,0,0,1,2.385,1.941,4.8,4.8,0,0,1,.757,1.925A1.911,1.911,0,0,1,958.381,336.191Z" transform="translate(-865.643 -297.803)" fill="#263238"/>
    <path id="Path_109910" data-name="Path 109910" d="M1179.629,455.887a3.125,3.125,0,0,0,5.625,1.76,4.574,4.574,0,0,0,.765-2.879,4.805,4.805,0,0,0-.576-2.344,3.388,3.388,0,0,0-6.284,1.308" transform="translate(-1080.097 -412.638)" fill="#263238"/>
    <path id="Path_109911" data-name="Path 109911" d="M1181.645,459.428a4.938,4.938,0,0,1,.584,2.854,4.842,4.842,0,0,1-.74,2.813c-.115,0,.28-1.267.312-2.829S1181.522,459.461,1181.645,459.428Z" transform="translate(-1082.212 -420.588)" fill="#ff725e"/>
    <path id="Path_109912" data-name="Path 109912" d="M970.564,313.1a1.281,1.281,0,0,1-.188.181,2.647,2.647,0,0,1-.683.329,3.841,3.841,0,0,1-2.714-.288,7.4,7.4,0,0,1-2.854-2.887,12.237,12.237,0,0,0-2.994-3.75c-1.39-.962-3.142-1.028-4.6-1.513a11.1,11.1,0,0,1-3.578-1.908,10.565,10.565,0,0,1-1.892-1.974,3.159,3.159,0,0,1-.5-.864,15.545,15.545,0,0,0,2.583,2.6,11.217,11.217,0,0,0,3.512,1.777c1.4.452,3.158.51,4.713,1.53s2.295,2.64,3.084,3.89a7.4,7.4,0,0,0,2.657,2.829,3.825,3.825,0,0,0,2.542.395A5.117,5.117,0,0,0,970.564,313.1Z" transform="translate(-870.572 -274.854)" fill="#455a64"/>
    <path id="Path_109913" data-name="Path 109913" d="M977.153,307.843a.642.642,0,0,1-.2.148,1.761,1.761,0,0,1-.658.189,3.012,3.012,0,0,1-2.295-.921,29.389,29.389,0,0,1-2.155-2.944,10.833,10.833,0,0,0-3.289-2.846,22.751,22.751,0,0,0-4.113-1.645,30.737,30.737,0,0,1-3.43-1.242,10.192,10.192,0,0,1-2.122-1.267,3.155,3.155,0,0,1-.642-.633,15.622,15.622,0,0,0,2.887,1.645c.946.395,2.113.757,3.422,1.151a21.145,21.145,0,0,1,4.178,1.645,10.986,10.986,0,0,1,3.373,2.986,35.877,35.877,0,0,0,2.048,2.969,2.93,2.93,0,0,0,2.172.946A4.132,4.132,0,0,0,977.153,307.843Z" transform="translate(-877.621 -271.421)" fill="#455a64"/>
    <path id="Path_109914" data-name="Path 109914" d="M1195.627,549.644a7.277,7.277,0,0,1,0-1.176,9.208,9.208,0,0,0-.436-3.117,4.19,4.19,0,0,0-1.217-1.727,16.07,16.07,0,0,0-2.105-1.365,6.3,6.3,0,0,1-2.122-1.933,6.074,6.074,0,0,1-1.02-2.92,5.926,5.926,0,0,1,.091-1.579c.107-.51.263-.987.386-1.456a3.3,3.3,0,0,0-.09-2.574,4.167,4.167,0,0,0-1.793-1.587c-.7-.354-1.4-.592-2.023-.864a5.027,5.027,0,0,1-2.575-1.949,2.668,2.668,0,0,1-.312-.822v-.313a3.781,3.781,0,0,0,.469,1.053,5.05,5.05,0,0,0,2.533,1.76c.625.247,1.341.469,2.073.822a4.469,4.469,0,0,1,1.949,1.711,2.854,2.854,0,0,1,.378,1.415,5.8,5.8,0,0,1-.23,1.464,7.585,7.585,0,0,0-.452,2.9,5.762,5.762,0,0,0,.938,2.722,6.069,6.069,0,0,0,1.983,1.826,15.208,15.208,0,0,1,2.138,1.439,4.4,4.4,0,0,1,1.258,1.883,8.473,8.473,0,0,1,.32,3.224A5.453,5.453,0,0,1,1195.627,549.644Z" transform="translate(-1083.076 -481.844)" fill="#455a64"/>
    <path id="Path_109915" data-name="Path 109915" d="M1196.787,484.945c-.065,0-.139-.354-.625-.642a6.164,6.164,0,0,0-2.1-.666,12.065,12.065,0,0,0-3.175.164,1.866,1.866,0,0,1,.879-.436,5.757,5.757,0,0,1,2.36-.148,4.763,4.763,0,0,1,2.213.823C1196.869,484.476,1196.844,484.969,1196.787,484.945Z" transform="translate(-1090.848 -442.337)" fill="#455a64"/>
    <path id="Path_109916" data-name="Path 109916" d="M1192.806,516.84c0,.049-.255.288-.822.5a4.476,4.476,0,0,1-2.271.255,4.427,4.427,0,0,1-2.106-.88c-.468-.362-.666-.674-.625-.707a8.692,8.692,0,0,0,2.789,1.168A8.367,8.367,0,0,0,1192.806,516.84Z" transform="translate(-1087.262 -472.448)" fill="#455a64"/>
    <path id="Path_109917" data-name="Path 109917" d="M887.175,1021.752c-.37-.658-1.966-32.39-1.365-32.39H910.2L908.74,1020.7Z" transform="translate(-811.101 -906.305)" fill="#263238"/>
    <path id="Path_109918" data-name="Path 109918" d="M769.978,1182.853l-2.171-24.51,45.385-.123-2.944,24.83Z" transform="translate(-703.066 -1061.074)" fill="#e0e0e0"/>
    <path id="Path_109919" data-name="Path 109919" d="M1011.26,1283.919a2.9,2.9,0,1,1-.859-2.037A2.9,2.9,0,0,1,1011.26,1283.919Z" transform="translate(-920.899 -1173.646)" fill="#fafafa"/>
    <path id="Path_109920" data-name="Path 109920" d="M882.862,718.62s1.439,14.574,2.212,22.429a1.795,1.795,0,0,1-.263,1.431,1.242,1.242,0,0,1-1.727-.149,3.05,3.05,0,0,1-.724-1.776c-.526-5.075-1.645-14.706-2.081-21.2C880.279,719.4,882.006,718.4,882.862,718.62Z" transform="translate(-806.154 -658.124)" fill="#263238"/>
    <path id="Path_109921" data-name="Path 109921" d="M1130.35,718.62s-1.439,14.574-2.212,22.429a1.788,1.788,0,0,0,.263,1.431,1.242,1.242,0,0,0,1.727-.149,3.055,3.055,0,0,0,.732-1.776c.518-5.075,1.645-14.706,2.073-21.2C1132.908,719.4,1131.173,718.4,1130.35,718.62Z" transform="translate(-1033.286 -658.124)" fill="#263238"/>
    <path id="Path_109922" data-name="Path 109922" d="M907.928,987.584a.75.75,0,0,1,.214.773,1.231,1.231,0,0,1-.51.764,1.384,1.384,0,0,1-1.119.157,1.645,1.645,0,0,1-.913-.642,1.776,1.776,0,0,1-.3-.823c-.049-.494.082-.823.132-.773s.049.3.164.715a1.531,1.531,0,0,0,1.028,1.119,1.075,1.075,0,0,0,.823-.083,1.052,1.052,0,0,0,.436-.518C908.043,987.888,907.862,987.658,907.928,987.584Z" transform="translate(-829.073 -904.174)" fill="#455a64"/>
    <path id="Path_109923" data-name="Path 109923" d="M917.24,985.947a.627.627,0,0,0,0,.337c.058.173.165.329.37.222s.173-.288,0-.428-.263-.123-.288-.181.148-.206.444-.074a.593.593,0,0,1,.337.444.608.608,0,0,1-.345.625.627.627,0,0,1-.707-.091.576.576,0,0,1-.156-.535C917.026,985.947,917.224,985.9,917.24,985.947Z" transform="translate(-839.702 -903.013)" fill="#455a64"/>
    <path id="Path_109924" data-name="Path 109924" d="M1127.972,987.331c.049,0,.189.337.131.929a2.061,2.061,0,0,1-.378.995,1.644,1.644,0,0,1-1.177.633,1.251,1.251,0,0,1-1.184-.658,1.828,1.828,0,0,1-.214-1.045c.057-.584.2-.9.246-.9a8.593,8.593,0,0,1,.058.9,1.724,1.724,0,0,0,.247.822.89.89,0,0,0,.823.436,1.352,1.352,0,0,0,.9-.452,2.1,2.1,0,0,0,.387-.823C1127.93,987.693,1127.906,987.34,1127.972,987.331Z" transform="translate(-1030.586 -904.406)" fill="#455a64"/>
    <path id="Path_109925" data-name="Path 109925" d="M1138.033,993.113a.42.42,0,0,0,0,.271c.057.132.074.2.205.156s.14-.132.066-.255-.181-.123-.205-.181.131-.189.378-.066a.479.479,0,0,1,.264.4.5.5,0,0,1-.354.5.517.517,0,0,1-.6-.164.509.509,0,0,1-.049-.477C1137.811,993.031,1138.024,993.039,1138.033,993.113Z" transform="translate(-1042.095 -909.629)" fill="#455a64"/>
    <path id="Path_109926" data-name="Path 109926" d="M952.744,1102.913a3.758,3.758,0,0,1-.617.329,15.066,15.066,0,0,1-1.769.65,20.749,20.749,0,0,1-12.337-.157,15.161,15.161,0,0,1-1.752-.691c-.4-.2-.617-.312-.6-.337s.929.313,2.467.74a23.451,23.451,0,0,0,12.132.148C951.8,1103.209,952.711,1102.847,952.744,1102.913Z" transform="translate(-856.921 -1010.191)" fill="#455a64"/>
    <path id="Path_109927" data-name="Path 109927" d="M817.451,951.8A29.51,29.51,0,0,0,816,955.251a29.916,29.916,0,0,0-.584,3.693,6.7,6.7,0,0,1,.173-3.808A6.778,6.778,0,0,1,817.451,951.8Z" transform="translate(-746.526 -871.882)" fill="#263238"/>
    <path id="Path_109928" data-name="Path 109928" d="M600.163,1043.747a1.922,1.922,0,0,1-.181.584,9.629,9.629,0,0,1-.822,1.464,10.549,10.549,0,0,1-4.162,3.578,12.417,12.417,0,0,1-2.887.938,8.65,8.65,0,0,0-2.254.822,4.225,4.225,0,0,0-1.554,1.53,1.337,1.337,0,0,1,.2-.584,3.54,3.54,0,0,1,1.193-1.2,8.129,8.129,0,0,1,2.319-.962,13.62,13.62,0,0,0,2.8-.946,11.319,11.319,0,0,0,4.112-3.364C599.752,1044.5,600.089,1043.7,600.163,1043.747Z" transform="translate(-538.54 -956.15)" fill="#263238"/>
    <path id="Path_109929" data-name="Path 109929" d="M649.761,1061.815a12.052,12.052,0,0,0,.822-1.177,3.709,3.709,0,0,0,.058-3.24l-.074-.148.329.049a4.342,4.342,0,0,0-1.316,2.911c-.049.823.132,1.366.058,1.382a2.324,2.324,0,0,1-.362-1.39,4.334,4.334,0,0,1,1.332-3.216l.206-.2.123.246.082.165a3.782,3.782,0,0,1-.173,3.585A2.119,2.119,0,0,1,649.761,1061.815Z" transform="translate(-594.421 -968.107)" fill="#263238"/>
    <path id="Path_109930" data-name="Path 109930" d="M686.779,1093.222a2.074,2.074,0,0,1,1.382-.411,3.777,3.777,0,0,1,3.109,1.505l.09.115.181.247-.3.082a4.34,4.34,0,0,1-3.339-.485c-.748-.461-1.036-.946-1-.97a12.443,12.443,0,0,0,1.143.708,4.375,4.375,0,0,0,3.076.329l-.115.329-.082-.107a3.725,3.725,0,0,0-2.764-1.448A13.418,13.418,0,0,0,686.779,1093.222Z" transform="translate(-628.799 -1001.118)" fill="#263238"/>
    <path id="Path_109931" data-name="Path 109931" d="M713.2,1054.1a2.452,2.452,0,0,1,1-1.028,3.777,3.777,0,0,1,3.446-.206l.14.066.271.124-.222.214a4.315,4.315,0,0,1-3.15,1.209,2.262,2.262,0,0,1-1.349-.361c0-.066.526.107,1.349.065a4.419,4.419,0,0,0,2.846-1.217l.058.345-.115-.05a3.738,3.738,0,0,0-3.125.082A12.7,12.7,0,0,0,713.2,1054.1Z" transform="translate(-653.013 -964.22)" fill="#263238"/>
    <path id="Path_109932" data-name="Path 109932" d="M622.9,1119.23a2,2,0,0,1,1.415-.279,3.78,3.78,0,0,1,2.953,1.776l.082.132.156.255-.313.058a4.371,4.371,0,0,1-3.29-.823c-.7-.535-.938-1.036-.9-1.061s.378.379,1.077.823a4.438,4.438,0,0,0,3.035.609l-.148.312-.066-.107a3.746,3.746,0,0,0-2.624-1.7A13.05,13.05,0,0,0,622.9,1119.23Z" transform="translate(-570.252 -1025.053)" fill="#263238"/>
    <path id="Path_109933" data-name="Path 109933" d="M.744,27.087a3.538,3.538,0,0,0,.066-.494q.049-.518.123-1.431a16.9,16.9,0,0,1,.345-2.3c.1-.444.14-.946.3-1.448s.3-1.053.461-1.645a27.43,27.43,0,0,1,3.825-7.69A26.4,26.4,0,0,1,30.443,1.236c.617.041,1.217.2,1.834.288a13.052,13.052,0,0,1,1.851.411,25.579,25.579,0,0,1,7.2,3.093A26.788,26.788,0,0,1,52.14,18.081a25.972,25.972,0,0,1,1.744,9.047A25.5,25.5,0,0,1,52.4,36.537l-.337.921-.049.115.049.115c2.1,4.573,4.112,9.047,6.136,13.406l.329-.387L46.473,46.341l-.148-.049-.115.115a26.424,26.424,0,0,1-32.784,3.808A27.282,27.282,0,0,1,6.575,44.08,29.438,29.438,0,0,1,2.767,37.5a30,30,0,0,1-1.538-5.544q-.164-1.168-.3-2.073c0-.592-.049-1.1-.066-1.522a6.8,6.8,0,0,0-.049-.938,1.875,1.875,0,0,0,0-.313,1.744,1.744,0,0,0,0,.313v2.492c0,.6.156,1.3.247,2.089a28.786,28.786,0,0,0,1.48,5.609,29.14,29.14,0,0,0,3.792,6.711,27.685,27.685,0,0,0,6.835,6.259A26.719,26.719,0,0,0,46.515,46.81l-.263.066,12.041,4.376.6.222-.271-.609L52.51,37.426v.23l.345-.938A26.32,26.32,0,0,0,54.378,27.1a26.739,26.739,0,0,0-1.793-9.278,27.182,27.182,0,0,0-11.038-13.3A25.876,25.876,0,0,0,34.2,1.4,12.418,12.418,0,0,0,32.319.99C31.693.9,31.077.743,30.452.7A25.3,25.3,0,0,0,26.767.57a25.719,25.719,0,0,0-12.855,3.7,26.936,26.936,0,0,0-8.3,7.657,27.282,27.282,0,0,0-3.775,7.805l-.444,1.645a13.4,13.4,0,0,0-.271,1.472,16.229,16.229,0,0,0-.3,2.319c0,.609-.058,1.086-.074,1.439A3.209,3.209,0,0,0,.744,27.087Z" transform="translate(0 0)" fill="#263238"/>
    <path id="Path_109934" data-name="Path 109934" d="M212.044,219.379l9.639-.189a9.64,9.64,0,1,1-10.051-9.45Z" transform="translate(-184.841 -191.733)" fill="#ff725e"/>
    <path id="Path_109935" data-name="Path 109935" d="M344.046,190.572l-.4-9.639a10.142,10.142,0,0,1,6.991,2.6,9.936,9.936,0,0,1,3.051,6.7Z" transform="translate(-314.293 -165.327)" fill="#ff725e"/>
  </g>
</svg>
