<svg xmlns="http://www.w3.org/2000/svg" xmlns:xlink="http://www.w3.org/1999/xlink" width="128" height="128" viewBox="0 0 128 128">
  <defs>
    <clipPath id="clip-path">
      <rect id="Rectangle_10741" data-name="Rectangle 10741" width="128" height="128" transform="translate(-16457 -2347)" fill="none"/>
    </clipPath>
  </defs>
  <g id="Mask_Group_832" data-name="Mask Group 832" transform="translate(16457 2347)" clip-path="url(#clip-path)">
    <g id="Group_39163" data-name="Group 39163" transform="translate(-16439.738 -2328.553)">
      <path id="Path_109839" data-name="Path 109839" d="M35.189,1703.363s-8.023-5.92-7.865-12.53v-24.54l45.121-1.5.46,17.923Z" transform="translate(-25.938 -1623.805)" fill="#263238"/>
      <path id="Path_109840" data-name="Path 109840" d="M337.751,2256.015c-.034,0-.134-5.556-.223-12.408s-.134-12.407-.1-12.407.134,5.551.223,12.405S337.785,2256.012,337.751,2256.015Z" transform="translate(-328.5 -2176.455)" fill="#455a64"/>
      <path id="Path_109841" data-name="Path 109841" d="M443.6,2135.194a.272.272,0,0,1,0-.072l.043-.213c.036-.189.086-.453.148-.788.134-.692.321-1.677.556-2.891.462-2.443,1.082-5.822,1.7-9.565s1.126-7.139,1.473-9.6c.172-1.224.311-2.218.41-2.917.048-.338.086-.6.113-.792.014-.084.024-.151.034-.206a.286.286,0,0,1,.014-.069.238.238,0,0,1,0,.072.89.89,0,0,1-.019.208c-.022.189-.053.455-.091.8-.081.69-.206,1.688-.369,2.922-.328,2.464-.819,5.865-1.437,9.61s-1.252,7.12-1.739,9.56c-.239,1.219-.448,2.2-.594,2.874l-.17.783c-.022.084-.036.148-.048.2A.315.315,0,0,1,443.6,2135.194Z" transform="translate(-432.1 -2056.326)" fill="#455a64"/>
      <path id="Path_109842" data-name="Path 109842" d="M760.811,2031.282a.248.248,0,0,1,0-.069l.036-.206c.036-.189.086-.453.148-.786.132-.692.321-1.677.553-2.893.465-2.443,1.082-5.822,1.705-9.563s1.123-7.141,1.473-9.6c.172-1.224.311-2.218.41-2.914.048-.338.086-.6.113-.793.014-.084.024-.153.034-.206a.285.285,0,0,1,.014-.07.241.241,0,0,1,0,.072c0,.053-.012.122-.019.206-.024.191-.053.457-.091.795-.081.692-.206,1.691-.369,2.922-.328,2.467-.819,5.867-1.437,9.613s-1.253,7.12-1.739,9.558c-.24,1.219-.448,2.206-.594,2.874-.074.333-.129.594-.172.781l-.046.2A.329.329,0,0,0,760.811,2031.282Z" transform="translate(-741.605 -1954.95)" fill="#455a64"/>
      <path id="Path_109843" data-name="Path 109843" d="M1077.825,1926.695a.273.273,0,0,1,0-.072l.036-.2c.036-.189.086-.453.148-.788.132-.692.321-1.676.553-2.891.464-2.443,1.083-5.822,1.705-9.562s1.123-7.141,1.473-9.6c.172-1.224.311-2.218.409-2.917.048-.338.086-.6.113-.793.014-.084.024-.151.034-.2a.288.288,0,0,1,.014-.072.417.417,0,0,1,0,.072.793.793,0,0,1-.022.208c-.022.189-.05.457-.089.795-.081.69-.206,1.688-.371,2.922-.326,2.464-.817,5.865-1.437,9.61s-1.252,7.12-1.741,9.56c-.24,1.219-.446,2.2-.592,2.874q-.113.5-.172.783c-.019.084-.034.151-.048.2A.269.269,0,0,1,1077.825,1926.695Z" transform="translate(-1050.917 -1852.901)" fill="#455a64"/>
      <path id="Path_109844" data-name="Path 109844" d="M1394.935,1822.6a.243.243,0,0,1,0-.069l.036-.206c.036-.189.084-.453.148-.785.132-.692.321-1.677.553-2.893.465-2.443,1.083-5.819,1.7-9.562s1.126-7.141,1.475-9.6c.17-1.224.312-2.218.407-2.914.05-.338.086-.6.115-.793.012-.084.024-.153.031-.206a.036.036,0,1,1,.017,0c0,.053-.012.122-.021.206-.022.191-.05.457-.091.795-.079.692-.206,1.691-.369,2.922-.326,2.467-.817,5.867-1.437,9.613s-1.255,7.12-1.741,9.558c-.24,1.219-.445,2.205-.592,2.886-.074.333-.132.594-.172.781l-.048.2A.305.305,0,0,1,1394.935,1822.6Z" transform="translate(-1360.323 -1751.34)" fill="#455a64"/>
      <path id="Path_109845" data-name="Path 109845" d="M1712.055,1718.312a.272.272,0,0,1,0-.072l.036-.2c.036-.189.084-.453.148-.788.132-.692.321-1.676.553-2.89.464-2.443,1.082-5.822,1.7-9.563s1.126-7.141,1.475-9.6c.17-1.224.309-2.218.407-2.917.048-.335.086-.6.115-.792.012-.084.024-.151.031-.2a.247.247,0,0,1,.017-.07.414.414,0,0,1,0,.07c0,.055-.012.122-.022.208-.022.189-.053.457-.091.8-.079.69-.206,1.688-.369,2.922-.326,2.464-.817,5.865-1.437,9.61s-1.25,7.12-1.729,9.56c-.24,1.219-.446,2.2-.594,2.874l-.17.783c-.019.084-.036.151-.048.2A.4.4,0,0,1,1712.055,1718.312Z" transform="translate(-1669.739 -1649.583)" fill="#455a64"/>
      <path id="Path_109846" data-name="Path 109846" d="M34.912,817.923s-22.964-18.04,11.234-30.285c0,0,17.343-6.466,35.168-4.55l-8.825,21.074Z" transform="translate(-25.982 -763.178)" fill="#455a64"/>
      <path id="Path_109847" data-name="Path 109847" d="M1888.666,216.443,1884.65,237.1l25.534-16.524S1902.637,216.582,1888.666,216.443Z" transform="translate(-1838.143 -210.645)" fill="#ff725e"/>
      <path id="Path_109848" data-name="Path 109848" d="M1884.65,441.26V403.007l25.534-16.524V422.6Z" transform="translate(-1838.143 -376.554)" fill="#ff725e"/>
      <path id="Path_109849" data-name="Path 109849" d="M1888.666,216.443,1884.65,237.1l25.534-16.524S1902.637,216.582,1888.666,216.443Z" transform="translate(-1838.143 -210.645)" opacity="0.3"/>
      <path id="Path_109850" data-name="Path 109850" d="M1983.82,2133.632V2120.7s41.754,4.131,42.074,4.819,0,14.458,0,14.458Z" transform="translate(-1934.904 -2068.639)" fill="#ff725e"/>
      <path id="Path_109851" data-name="Path 109851" d="M1983.82,1412.426l26.343-17.626s11.4,2.615,15.088,10.058.642,12.393.642,12.393Z" transform="translate(-1934.904 -1360.375)" fill="#ff725e"/>
      <path id="Path_109852" data-name="Path 109852" d="M1983.82,1412.426l26.343-17.626s11.4,2.615,15.088,10.058.642,12.393.642,12.393C2013.53,1415.434,1999.2,1413.865,1983.82,1412.426Z" transform="translate(-1934.904 -1360.375)" fill="#fff" opacity="0.2"/>
      <path id="Path_109853" data-name="Path 109853" d="M3716.843,2062.34s.479,15.482,0,16.972-1.183,3.712-1.183,3.712v-14.458Z" transform="translate(-3624.669 -2011.697)" fill="#ff725e"/>
      <path id="Path_109854" data-name="Path 109854" d="M1983.82,2133.632V2120.7s41.754,4.131,42.074,4.819,0,14.458,0,14.458Z" transform="translate(-1934.904 -2068.639)" opacity="0.3"/>
      <path id="Path_109855" data-name="Path 109855" d="M2976.173,2283.332c.024.022-1.9,2.124-4.311,4.694s-4.356,4.634-4.392,4.61,1.9-2.124,4.311-4.694S2976.147,2283.308,2976.173,2283.332Z" transform="translate(-2894.656 -2227.32)" fill="#263238"/>
      <path id="Path_109856" data-name="Path 109856" d="M3337.273,2315.38a.811.811,0,0,1-.069.105l-.223.29c-.194.251-.479.608-.841,1.047-.719.879-1.727,2.076-2.874,3.37s-2.22,2.436-3.008,3.252c-.393.407-.719.733-.941.958-.1.1-.191.187-.261.254a.59.59,0,0,1-.1.084.807.807,0,0,1,.079-.1l.24-.271.912-.984c.769-.828,1.827-1.983,2.977-3.274s2.167-2.479,2.9-3.341c.359-.421.654-.766.869-1.022l.239-.273A.569.569,0,0,1,3337.273,2315.38Z" transform="translate(-3247.364 -2258.59)" fill="#263238"/>
      <path id="Path_109857" data-name="Path 109857" d="M2617.689,2243.91a.949.949,0,0,1-.079.108l-.239.287c-.213.24-.529.606-.922,1.042-.785.874-1.887,2.067-3.132,3.353s-2.4,2.433-3.243,3.247c-.424.407-.769.735-1.01.958l-.28.254c-.065.058-.1.086-.1.082a.539.539,0,0,1,.086-.1l.263-.271.982-.984c.829-.831,1.971-1.983,3.217-3.271s2.356-2.469,3.156-3.329l.958-1.013.261-.273A.706.706,0,0,1,2617.689,2243.91Z" transform="translate(-2544.583 -2188.856)" fill="#263238"/>
      <path id="Path_109858" data-name="Path 109858" d="M2400.533,2189.1c.029.021-1.509,2.081-3.429,4.6s-3.5,4.55-3.53,4.526,1.509-2.079,3.432-4.6S2400.507,2189.082,2400.533,2189.1Z" transform="translate(-2334.702 -2135.38)" fill="#263238"/>
      <path id="Path_109859" data-name="Path 109859" d="M2191.487,2164.452c.026.022-1.32,1.727-3,3.81s-3.073,3.75-3.1,3.729,1.32-1.727,3-3.808S2191.47,2164.431,2191.487,2164.452Z" transform="translate(-2131.568 -2111.328)" fill="#263238"/>
      <path id="Path_109860" data-name="Path 109860" d="M2017.959,2144.55a1.128,1.128,0,0,1-.16.223l-.479.584c-.4.493-.939,1.181-1.514,1.954s-1.071,1.494-1.437,2.019l-.421.62a1.274,1.274,0,0,1-.168.22,1.167,1.167,0,0,1,.127-.24c.086-.156.22-.374.388-.642.338-.536.826-1.267,1.4-2.045s1.13-1.456,1.547-1.935c.206-.24.379-.431.5-.561A1.118,1.118,0,0,1,2017.959,2144.55Z" transform="translate(-1964.136 -2091.91)" fill="#263238"/>
      <path id="Path_109861" data-name="Path 109861" d="M3168.733,2764.718s9.141-5.074,11.476-10.918l-.074-4.79-11.562,10.058-1.772-1.271.479,5.642Z" transform="translate(-3089.144 -2681.685)" fill="#455a64"/>
      <path id="Path_109862" data-name="Path 109862" d="M2500.995,2633.556s6.262-2.34,11.562-10.058l-29.957-3.128Z" transform="translate(-2421.566 -2556.17)" fill="#263238"/>
      <path id="Path_109863" data-name="Path 109863" d="M3238.822,3163.12c.034,0,.089,1.274.122,2.843s.031,2.848,0,2.848-.088-1.272-.12-2.843S3238.789,3163.12,3238.822,3163.12Z" transform="translate(-3159.393 -3085.734)" fill="#263238"/>
      <path id="Path_109864" data-name="Path 109864" d="M456.9,2658.173v11.9s9.474,8.126,31.8,8.813,34.689-7.16,34.689-7.16l-.958-11.292L490.36,2653Z" transform="translate(-445.083 -2588.007)" fill="#ff725e"/>
      <path id="Path_109865" data-name="Path 109865" d="M456.9,2658.173v11.9s9.474,8.126,31.8,8.813,34.689-7.16,34.689-7.16l-.958-11.292L490.36,2653Z" transform="translate(-445.083 -2588.007)" opacity="0.3"/>
      <path id="Path_109866" data-name="Path 109866" d="M456.9,2331.926l34.687-13.3,30.833,15.566s-17.343,8.813-36.294,6.76C467.374,2338.907,456.9,2331.926,456.9,2331.926Z" transform="translate(-445.083 -2261.76)" fill="#ff725e"/>
      <path id="Path_109867" data-name="Path 109867" d="M1750.026,3241.19a.832.832,0,0,1-.077.129l-.24.359c-.211.311-.52.754-.907,1.3-.776,1.089-1.878,2.574-3.149,4.172s-2.474,3-3.353,4c-.446.5-.81.9-1.066,1.176l-.294.311a.9.9,0,0,1-.11.1.661.661,0,0,1,.091-.12l.278-.328c.256-.295.606-.7,1.035-1.2.872-1.013,2.06-2.428,3.331-4.023s2.4-3.07,3.176-4.145l.939-1.276.259-.345A.9.9,0,0,1,1750.026,3241.19Z" transform="translate(-1697.817 -3161.908)" fill="#263238"/>
      <path id="Path_109868" data-name="Path 109868" d="M2040.17,3211.216c.029.019-1.842,2.778-4.177,6.159s-4.26,6.107-4.28,6.083,1.842-2.775,4.177-6.159S2040.142,3211.2,2040.17,3211.216Z" transform="translate(-1981.634 -3132.661)" fill="#263238"/>
      <path id="Path_109869" data-name="Path 109869" d="M2296.08,3151.975c.029.019-1.978,2.972-4.483,6.6s-4.55,6.547-4.588,6.528,1.98-2.974,4.485-6.6S2296.052,3151.953,2296.08,3151.975Z" transform="translate(-2230.726 -3074.86)" fill="#263238"/>
      <path id="Path_109870" data-name="Path 109870" d="M2569.537,3043.74a.751.751,0,0,1-.077.16c-.062.113-.141.263-.239.45-.213.39-.529.958-.924,1.638-.793,1.377-1.916,3.262-3.209,5.312s-2.514,3.873-3.417,5.18c-.45.654-.822,1.178-1.082,1.54l-.295.412a1.223,1.223,0,0,1-.112.139.749.749,0,0,1,.091-.153l.282-.426,1.046-1.561c.884-1.317,2.093-3.149,3.386-5.2s2.428-3.925,3.238-5.29l.958-1.616c.108-.182.2-.328.263-.438A1.2,1.2,0,0,1,2569.537,3043.74Z" transform="translate(-2497.261 -2969.254)" fill="#263238"/>
      <path id="Path_109871" data-name="Path 109871" d="M2889.261,3004.808c.031.014-1.437,3.068-3.281,6.818s-3.353,6.78-3.394,6.765,1.437-3.068,3.281-6.821S2889.235,3004.791,2889.261,3004.808Z" transform="translate(-2811.834 -2931.268)" fill="#263238"/>
      <path id="Path_109872" data-name="Path 109872" d="M3078.711,3281.391c.031.014-.465,1.073-1.106,2.361s-1.2,2.318-1.217,2.3.465-1.073,1.106-2.361A25.317,25.317,0,0,1,3078.711,3281.391Z" transform="translate(-3000.927 -3201.131)" fill="#263238"/>
      <path id="Path_109873" data-name="Path 109873" d="M1488.581,3258.433c.026.022-2.141,2.471-4.838,5.47s-4.907,5.412-4.931,5.388,2.139-2.471,4.838-5.47S1488.557,3258.409,1488.581,3258.433Z" transform="translate(-1442.165 -3178.731)" fill="#263238"/>
      <path id="Path_109874" data-name="Path 109874" d="M1263.515,3243.149c.026.024-2.136,2.347-4.826,5.19s-4.893,5.13-4.919,5.106,2.134-2.347,4.825-5.189S1263.491,3243.12,1263.515,3243.149Z" transform="translate(-1222.59 -3163.818)" fill="#263238"/>
      <path id="Path_109875" data-name="Path 109875" d="M1000.2,3192.686c.026.024-1.916,2.34-4.325,5.173s-4.392,5.125-4.418,5.1,1.916-2.337,4.325-5.173S1000.178,3192.669,1000.2,3192.686Z" transform="translate(-966.654 -3114.582)" fill="#263238"/>
      <path id="Path_109876" data-name="Path 109876" d="M768.047,3152.67a.833.833,0,0,1-.074.1l-.239.275c-.206.24-.51.582-.888,1-.757.841-1.823,1.983-3.025,3.219s-2.321,2.328-3.14,3.113c-.41.39-.745.7-.979.915l-.271.239a.508.508,0,0,1-.1.079.576.576,0,0,1,.084-.1l.254-.261.958-.941c.8-.795,1.916-1.9,3.113-3.13s2.277-2.369,3.051-3.192l.917-.972.254-.261A.492.492,0,0,1,768.047,3152.67Z" transform="translate(-740.162 -3075.538)" fill="#263238"/>
      <path id="Path_109877" data-name="Path 109877" d="M565.288,3076.646a.723.723,0,0,1-.081.088l-.256.24-.958.874c-.8.738-1.894,1.77-3.07,2.941s-2.213,2.26-2.953,3.058l-.879.946-.24.254a.585.585,0,0,1-.091.084.412.412,0,0,1,.072-.1l.223-.271c.2-.24.479-.565.848-.972.718-.812,1.753-1.916,2.931-3.087s2.294-2.194,3.108-2.912c.407-.362.742-.649.975-.845l.273-.223C565.252,3076.665,565.286,3076.641,565.288,3076.646Z" transform="translate(-542.513 -3001.36)" fill="#263238"/>
      <path id="Path_109878" data-name="Path 109878" d="M458.422,3003.215c.024.026-1.272,1.2-2.891,2.634s-2.953,2.57-2.974,2.543,1.272-1.2,2.891-2.634S458.4,3003.191,458.422,3003.215Z" transform="translate(-440.842 -2929.713)" fill="#263238"/>
      <path id="Path_109879" data-name="Path 109879" d="M1129.288,472.045a1.5,1.5,0,0,0,.731,1.875c.345.16.747.18,1.082.362a1.252,1.252,0,0,1,.635,1.011c.021.378-.132.781.024,1.128.192.431.735.544,1.14.778a1.944,1.944,0,0,1,.924,1.509,2.326,2.326,0,0,1-.582,1.691,2.634,2.634,0,0,1-3.075.618,3.352,3.352,0,0,1-1.523-1.731,7.7,7.7,0,0,1-.5-2.294,23.383,23.383,0,0,1-.019-4.2" transform="translate(-1099.918 -460.038)" fill="#263238"/>
      <path id="Path_109880" data-name="Path 109880" d="M868.383,288.656a2.358,2.358,0,0,0-2.218.936,3.9,3.9,0,0,0-.747,2.486,7.149,7.149,0,0,0,.611,2.57,1.746,1.746,0,0,0,.575.831,1.418,1.418,0,0,0,1.514-.216,4.838,4.838,0,0,0,2.05-3.872,3.389,3.389,0,0,0-.455-1.868,1.853,1.853,0,0,0-1.533-.924" transform="translate(-843.669 -281.048)" fill="#263238"/>
      <path id="Path_109881" data-name="Path 109881" d="M320.816,1356.145l-12.017-.7c-.074-.172-.127-.273-.127-.273l-3.259.074-1.061-.062-.041.086-10.93.24c-2.179,0-4.469,1.344-4.464,3.042-.022,1.617.766,3.369,2.718,3.324l14.893-.089h14.893c1.952.033,2.464-1.145,2.464-2.541C324.111,1356.657,322.48,1356.162,320.816,1356.145Z" transform="translate(-281.177 -1321.708)" fill="#263238"/>
      <path id="Path_109882" data-name="Path 109882" d="M457.3,1449.5h1.092l3-.022,10-.041-.041.046c-.021-.328-.045-.678-.067-1.03-.048-.718-.093-1.437-.136-2.1l.036.038-9.213-1-2.732-.306-.735-.086-.189-.024h0l.192.017.738.072,2.732.28,9.218.972h.036v.036c.043.675.088,1.382.137,2.1.021.352.045.7.067,1.027v.045h-.048l-10,.014h-4.011Z" transform="translate(-445.469 -1409.326)" fill="#455a64"/>
      <path id="Path_109883" data-name="Path 109883" d="M454.977,1415.529c0,.012-.158-.11-.421-.268a4.524,4.524,0,0,0-1.094-.479,4.61,4.61,0,0,0-1.183-.17,3.068,3.068,0,0,1-.5,0,.39.39,0,0,1,.132-.031,2.768,2.768,0,0,1,.369-.036,3.981,3.981,0,0,1,2.309.659,2.455,2.455,0,0,1,.295.223C454.938,1415.491,454.977,1415.525,454.977,1415.529Z" transform="translate(-440.081 -1379.639)" fill="#455a64"/>
      <path id="Path_109884" data-name="Path 109884" d="M1138,1426.115c0,.024-2.361.6-5.288,1.3s-5.3,1.233-5.309,1.212,2.364-.6,5.291-1.3S1137.992,1426.094,1138,1426.115Z" transform="translate(-1099.289 -1390.929)" fill="#455a64"/>
      <path id="Path_109885" data-name="Path 109885" d="M1413.671,1416.877a4.557,4.557,0,0,0-.929.448,4.633,4.633,0,0,0-.752.7.829.829,0,0,1,.16-.263,2.486,2.486,0,0,1,.546-.508,2.4,2.4,0,0,1,.671-.323A.8.8,0,0,1,1413.671,1416.877Z" transform="translate(-1376.966 -1381.915)" fill="#455a64"/>
      <path id="Path_109886" data-name="Path 109886" d="M1031.29,1514.76l2.244.307,0,2.44-2.062-.048Z" transform="translate(-1005.515 -1477.42)" fill="#b78876"/>
      <path id="Path_109887" data-name="Path 109887" d="M1123.66,1527.38h1.006a1.114,1.114,0,0,1,.558.148l.534.307a8.449,8.449,0,0,0,.929.441,12.781,12.781,0,0,1,1.865.625c.62.479.434,1.042.094,1.1-.3.053-4.984-.18-4.984-.18Z" transform="translate(-1095.641 -1489.734)" fill="#ff725e"/>
      <path id="Path_109888" data-name="Path 109888" d="M1187.369,1568.184a1.577,1.577,0,0,1-.11-.635,1.611,1.611,0,0,1,.069-.639,5.658,5.658,0,0,1,.015.637A5.935,5.935,0,0,1,1187.369,1568.184Z" transform="translate(-1157.688 -1528.303)" fill="#263238"/>
      <path id="Path_109889" data-name="Path 109889" d="M1209.986,1572.011a2,2,0,0,1-.038-.582,2.064,2.064,0,0,1,.043-.58,2.034,2.034,0,0,1,.041.582A2.125,2.125,0,0,1,1209.986,1572.011Z" transform="translate(-1179.826 -1532.147)" fill="#263238"/>
      <path id="Path_109890" data-name="Path 109890" d="M1230.857,1574.508a4.2,4.2,0,0,1-.1-1.2,2.284,2.284,0,0,1,.089.6A2.188,2.188,0,0,1,1230.857,1574.508Z" transform="translate(-1200.131 -1534.548)" fill="#263238"/>
      <path id="Path_109891" data-name="Path 109891" d="M1133.676,1552.358a.633.633,0,0,1-.206-.065,1.875,1.875,0,0,1-.649-.445.518.518,0,0,1-.129-.182.24.24,0,0,1,.026-.24.179.179,0,0,1,.055-.047.184.184,0,0,1,.069-.022.329.329,0,0,1,.136.014,1.006,1.006,0,0,1,.215,1.787.649.649,0,0,1-.24.105.276.276,0,0,1-.132,0,.176.176,0,0,1-.053-.047.172.172,0,0,1-.031-.063.257.257,0,0,1,.029-.24.717.717,0,0,1,.129-.155,1.559,1.559,0,0,1,.5-.328.664.664,0,0,1,.208-.057s-.072.029-.194.088a1.656,1.656,0,0,0-.467.338.674.674,0,0,0-.115.146.2.2,0,0,0-.024.17.134.134,0,0,0,.07.054.132.132,0,0,0,.088,0,.515.515,0,0,0,.2-.1.932.932,0,0,0-.2-1.648.159.159,0,0,0-.18.026.184.184,0,0,0-.019.179.993.993,0,0,0,.24.3A2.732,2.732,0,0,0,1133.676,1552.358Z" transform="translate(-1104.433 -1513.126)" fill="#263238"/>
      <path id="Path_109892" data-name="Path 109892" d="M1175.873,1530.673a.548.548,0,0,0,.122-.153.574.574,0,0,0-.067-.508,1.139,1.139,0,0,0-.625-.479c-.285-.1-.625-.148-.958-.256a6.743,6.743,0,0,1-1.676-.754,5.157,5.157,0,0,1-.455-.318.911.911,0,0,1-.153-.134,1.159,1.159,0,0,1,.172.108c.108.072.266.177.479.294a7.454,7.454,0,0,0,1.662.718c.338.1.673.153.97.264a1.172,1.172,0,0,1,.651.512.6.6,0,0,1,.043.551.308.308,0,0,1-.1.115C1175.892,1530.673,1175.875,1530.673,1175.873,1530.673Z" transform="translate(-1142.865 -1490.407)" fill="#263238"/>
      <path id="Path_109893" data-name="Path 109893" d="M1107.442,851.358l3.832,6.615a2.814,2.814,0,0,1-2.51,4.222l-5.843-.149-.161-2.124,5.144-1-3.485-5.987Z" transform="translate(-1075.249 -830.135)" fill="#b78876"/>
      <path id="Path_109894" data-name="Path 109894" d="M589.764,864.373l5.376,1.408.113-1.612-4.96-2.862,3.592-6.722-3.041-1.552-3.786,6.634a3.113,3.113,0,0,0,1.8,4.423Z" transform="translate(-571.721 -831.771)" fill="#b78876"/>
      <path id="Path_109895" data-name="Path 109895" d="M692.172,719.715l3.669-1.944a18.779,18.779,0,0,0-1.581-2.62,8.073,8.073,0,0,0-4.914-3.077l-4.224.062a5.525,5.525,0,0,0-1.5.35v-.017c-2.292.513-4.823,5.52-4.823,5.52l3.353,1.751.074.525a3.591,3.591,0,0,0,.877,1.87l-.958,6.4,10.846.2-1.391-4.581Z" transform="translate(-661.584 -694.234)" fill="#ff725e"/>
      <path id="Path_109896" data-name="Path 109896" d="M891.22,342.879a2.064,2.064,0,0,0,2.019-2.038l.1-8.2a.656.656,0,0,0-.584-.663l-3.468-.877c-1.109-.117-1.846,1.25-1.916,2.364a19.812,19.812,0,0,0,.022,3.676,2.313,2.313,0,0,0,1.717,2.093v1.6a2.064,2.064,0,0,0,2.11,2.052Z" transform="translate(-865.016 -322.506)" fill="#b78876"/>
      <path id="Path_109897" data-name="Path 109897" d="M913.3,461.516a.24.24,0,1,0,.078-.154A.24.24,0,0,0,913.3,461.516Z" transform="translate(-890.394 -449.554)" fill="#263238"/>
      <path id="Path_109898" data-name="Path 109898" d="M903.69,451c.029.031.208-.1.465-.1s.445.129.479.1-.017-.069-.1-.129a.649.649,0,0,0-.376-.117.637.637,0,0,0-.371.12C903.7,450.935,903.675,450.99,903.69,451Z" transform="translate(-881.011 -439.262)" fill="#263238"/>
      <path id="Path_109899" data-name="Path 109899" d="M1017.2,463.388a.239.239,0,1,0,.078-.154A.24.24,0,0,0,1017.2,463.388Z" transform="translate(-991.767 -451.381)" fill="#263238"/>
      <path id="Path_109900" data-name="Path 109900" d="M1007.34,452.976c.031.031.211-.1.479-.1s.443.129.479.1-.017-.069-.1-.129a.656.656,0,0,0-.378-.117.648.648,0,0,0-.371.12C1007.357,452.907,1007.34,452.954,1007.34,452.976Z" transform="translate(-982.147 -441.186)" fill="#263238"/>
      <path id="Path_109901" data-name="Path 109901" d="M943.126,455.352a1.755,1.755,0,0,0-.417-.074c-.065,0-.127-.019-.137-.065a.326.326,0,0,1,.043-.194c.06-.158.125-.323.194-.5a8.547,8.547,0,0,0,.433-1.3,8.534,8.534,0,0,0-.539,1.264c-.065.175-.127.342-.184.5a.366.366,0,0,0-.034.256.165.165,0,0,0,.108.1.481.481,0,0,0,.11.014A1.507,1.507,0,0,0,943.126,455.352Z" transform="translate(-918.859 -441.668)" fill="#263238"/>
      <path id="Path_109902" data-name="Path 109902" d="M961.9,639.5a4.735,4.735,0,0,0,2.486-.663,2.352,2.352,0,0,1-2.46,1.1Z" transform="translate(-937.809 -622.773)" fill="#aa6550"/>
      <path id="Path_109903" data-name="Path 109903" d="M972.619,559.711a.458.458,0,0,1,.414-.17.417.417,0,0,1,.292.156.263.263,0,0,1,.019.3.309.309,0,0,1-.335.086.981.981,0,0,1-.328-.2.3.3,0,0,1-.072-.074.081.081,0,0,1,0-.1" transform="translate(-948.245 -545.405)" fill="#aa6550"/>
      <path id="Path_109904" data-name="Path 109904" d="M967.445,548.539c-.041,0-.043.278-.28.479s-.534.168-.536.206.067.053.192.057a.7.7,0,0,0,.448-.156.608.608,0,0,0,.215-.4C967.5,548.608,967.464,548.539,967.445,548.539Z" transform="translate(-942.424 -534.673)" fill="#263238"/>
      <path id="Path_109905" data-name="Path 109905" d="M1002.666,436.873c.026.069.283.036.582.072s.544.117.584.055-.024-.1-.122-.163a.981.981,0,0,0-.434-.151,1,1,0,0,0-.455.053C1002.711,436.785,1002.656,436.84,1002.666,436.873Z" transform="translate(-977.585 -425.532)" fill="#263238"/>
      <path id="Path_109906" data-name="Path 109906" d="M905.025,431.288c.043.057.22,0,.433,0s.39.041.433-.022-.012-.086-.089-.141a.627.627,0,0,0-.7.022C905.03,431.2,905,431.259,905.025,431.288Z" transform="translate(-882.31 -420.018)" fill="#263238"/>
      <path id="Path_109907" data-name="Path 109907" d="M940.356,287.246a2.179,2.179,0,0,0,1.379,1.842c.34.127.706.165,1.047.287a1.123,1.123,0,0,1,.766.718,1.809,1.809,0,0,1-.122.908.952.952,0,0,0,.1.884c.208.23.508.259.632.5s-.019.534-.125.793a1.947,1.947,0,0,0-.11,1.214,1.343,1.343,0,0,0,.773.912.388.388,0,0,0,.429-.043c.077-.089.015-.24.065-.338a8.15,8.15,0,0,0,1.18-4.191,3.98,3.98,0,0,0-.69-2.395,1.87,1.87,0,0,0-.867-.766,8.623,8.623,0,0,0-2.273-.682,4.366,4.366,0,0,0-1.181-.129,1.475,1.475,0,0,0-1.049.491" transform="translate(-916.746 -279.252)" fill="#263238"/>
      <path id="Path_109908" data-name="Path 109908" d="M875.978,319.2a1.01,1.01,0,0,0-.558.7,2.949,2.949,0,0,1-.319.872,5.346,5.346,0,0,1-.563.553,1.624,1.624,0,0,0-.354,1.593,2.608,2.608,0,0,1,1.755-3.86" transform="translate(-851.886 -310.768)" fill="#263238"/>
      <path id="Path_109909" data-name="Path 109909" d="M949.026,328.589a1.883,1.883,0,0,0-.294-.718,1.423,1.423,0,0,0-.663-.508,3.4,3.4,0,0,0-1.049-.115,2.352,2.352,0,0,1-.565-.084,1.834,1.834,0,0,1-.479-.239,1.871,1.871,0,0,1-.6-.666,1.676,1.676,0,0,1-.184-.572.56.56,0,0,1,0-.22,2.633,2.633,0,0,0,.263.75,1.87,1.87,0,0,0,.584.613,1.712,1.712,0,0,0,.453.213,2.378,2.378,0,0,0,.536.077,3.327,3.327,0,0,1,1.083.132,1.437,1.437,0,0,1,.694.565,1.4,1.4,0,0,1,.22.56A.554.554,0,0,1,949.026,328.589Z" transform="translate(-921.501 -317.02)" fill="#263238"/>
      <path id="Path_109910" data-name="Path 109910" d="M1179.3,452.249a.91.91,0,0,0,1.638.513,1.332,1.332,0,0,0,.223-.838,1.4,1.4,0,0,0-.168-.682.987.987,0,0,0-1.83.381" transform="translate(-1149.792 -439.264)" fill="#263238"/>
      <path id="Path_109911" data-name="Path 109911" d="M1181.52,459.428a1.438,1.438,0,0,1,.17.831,1.41,1.41,0,0,1-.216.819c-.033,0,.081-.369.091-.824S1181.484,459.438,1181.52,459.428Z" transform="translate(-1152.045 -447.727)" fill="#ff725e"/>
      <path id="Path_109912" data-name="Path 109912" d="M956.386,304.118a.372.372,0,0,1-.055.053.769.769,0,0,1-.2.1,1.118,1.118,0,0,1-.79-.084,2.155,2.155,0,0,1-.831-.841,3.564,3.564,0,0,0-.872-1.092,4.828,4.828,0,0,0-1.339-.441,3.232,3.232,0,0,1-1.042-.556,3.076,3.076,0,0,1-.551-.575.918.918,0,0,1-.146-.251,4.526,4.526,0,0,0,.752.757,3.266,3.266,0,0,0,1.023.517,4.865,4.865,0,0,1,1.372.445,3.256,3.256,0,0,1,.9,1.133,2.155,2.155,0,0,0,.773.824,1.114,1.114,0,0,0,.74.115A1.493,1.493,0,0,0,956.386,304.118Z" transform="translate(-926.748 -292.59)" fill="#455a64"/>
      <path id="Path_109913" data-name="Path 109913" d="M963.755,299.932a.187.187,0,0,1-.058.043.513.513,0,0,1-.192.055.877.877,0,0,1-.668-.268,8.551,8.551,0,0,1-.628-.857,3.156,3.156,0,0,0-.958-.829,6.625,6.625,0,0,0-1.2-.479,8.947,8.947,0,0,1-1-.362,2.968,2.968,0,0,1-.618-.369.918.918,0,0,1-.187-.184,4.543,4.543,0,0,0,.841.479c.275.115.615.22,1,.335a6.156,6.156,0,0,1,1.216.479,3.2,3.2,0,0,1,.982.869,10.406,10.406,0,0,0,.6.865.853.853,0,0,0,.632.275A1.2,1.2,0,0,0,963.755,299.932Z" transform="translate(-934.251 -288.935)" fill="#455a64"/>
      <path id="Path_109914" data-name="Path 109914" d="M1186.259,533.069a2.139,2.139,0,0,1,0-.342,2.683,2.683,0,0,0-.127-.908,1.222,1.222,0,0,0-.354-.5,4.668,4.668,0,0,0-.613-.4,1.834,1.834,0,0,1-.618-.563,1.768,1.768,0,0,1-.3-.85,1.729,1.729,0,0,1,.026-.46c.031-.148.077-.287.113-.424a.96.96,0,0,0-.026-.75,1.213,1.213,0,0,0-.522-.462c-.2-.1-.407-.172-.589-.251a1.463,1.463,0,0,1-.75-.568.776.776,0,0,1-.091-.239v-.091a1.1,1.1,0,0,0,.137.307,1.47,1.47,0,0,0,.738.513c.182.072.39.136.6.239a1.3,1.3,0,0,1,.568.5.83.83,0,0,1,.11.412,1.681,1.681,0,0,1-.067.426,2.211,2.211,0,0,0-.132.843,1.679,1.679,0,0,0,.273.793,1.768,1.768,0,0,0,.577.532,4.429,4.429,0,0,1,.623.419,1.281,1.281,0,0,1,.366.548,2.463,2.463,0,0,1,.093.939A1.579,1.579,0,0,1,1186.259,533.069Z" transform="translate(-1152.964 -512.936)" fill="#455a64"/>
      <path id="Path_109915" data-name="Path 109915" d="M1192.607,483.678c-.019,0-.041-.1-.182-.187a1.794,1.794,0,0,0-.61-.194,3.513,3.513,0,0,0-.924.048.543.543,0,0,1,.256-.127,1.677,1.677,0,0,1,.687-.043,1.387,1.387,0,0,1,.644.24C1192.631,483.541,1192.624,483.685,1192.607,483.678Z" transform="translate(-1161.238 -470.88)" fill="#455a64"/>
      <path id="Path_109916" data-name="Path 109916" d="M1188.674,516.251c0,.014-.074.084-.239.146a1.3,1.3,0,0,1-.661.074,1.29,1.29,0,0,1-.613-.256c-.136-.105-.194-.2-.182-.206a2.533,2.533,0,0,0,.812.34A2.435,2.435,0,0,0,1188.674,516.251Z" transform="translate(-1157.42 -502.933)" fill="#455a64"/>
      <path id="Path_109917" data-name="Path 109917" d="M886.113,998.793c-.108-.192-.572-9.431-.4-9.431h7.1l-.424,9.124Z" transform="translate(-863.439 -964.787)" fill="#263238"/>
      <path id="Path_109918" data-name="Path 109918" d="M768.439,1165.392l-.632-7.137,13.215-.036-.857,7.23Z" transform="translate(-748.433 -1129.542)" fill="#e0e0e0"/>
      <path id="Path_109919" data-name="Path 109919" d="M1007.156,1281.878a.845.845,0,1,1-.25-.593A.843.843,0,0,1,1007.156,1281.878Z" transform="translate(-980.322 -1249.379)" fill="#fafafa"/>
      <path id="Path_109920" data-name="Path 109920" d="M881.031,718.6s.419,4.244.644,6.531a.523.523,0,0,1-.077.417.362.362,0,0,1-.5-.043.888.888,0,0,1-.211-.517c-.153-1.478-.479-4.282-.606-6.171C880.279,718.825,880.782,718.533,881.031,718.6Z" transform="translate(-858.173 -700.591)" fill="#263238"/>
      <path id="Path_109921" data-name="Path 109921" d="M1128.747,718.6s-.419,4.244-.644,6.531a.52.52,0,0,0,.077.417.362.362,0,0,0,.5-.043.89.89,0,0,0,.213-.517c.151-1.478.479-4.282.6-6.171C1129.492,718.825,1128.986,718.533,1128.747,718.6Z" transform="translate(-1099.961 -700.591)" fill="#263238"/>
      <path id="Path_109922" data-name="Path 109922" d="M906.055,987.2a.218.218,0,0,1,.062.225.358.358,0,0,1-.148.223.4.4,0,0,1-.326.046.479.479,0,0,1-.266-.187.518.518,0,0,1-.089-.24c-.014-.144.024-.239.038-.225s.014.086.048.208a.446.446,0,0,0,.3.326.316.316,0,0,0,.122.012.311.311,0,0,0,.117-.036.307.307,0,0,0,.127-.151C906.088,987.284,906.036,987.217,906.055,987.2Z" transform="translate(-882.571 -962.517)" fill="#455a64"/>
      <path id="Path_109923" data-name="Path 109923" d="M916.986,985.822a.182.182,0,0,0,0,.1c.017.05.048.1.108.065s.05-.084,0-.124-.077-.036-.084-.053.043-.06.129-.022a.173.173,0,0,1,.1.129.177.177,0,0,1-.1.182.183.183,0,0,1-.206-.026.168.168,0,0,1-.046-.156C916.923,985.822,916.981,985.807,916.986,985.822Z" transform="translate(-893.885 -961.282)" fill="#455a64"/>
      <path id="Path_109924" data-name="Path 109924" d="M1125.966,987.3c.014,0,.055.1.038.271a.6.6,0,0,1-.11.29.479.479,0,0,1-.343.184.362.362,0,0,1-.2-.045.366.366,0,0,1-.144-.147.532.532,0,0,1-.062-.3c.017-.17.057-.263.072-.261a2.477,2.477,0,0,1,.017.261.5.5,0,0,0,.072.239.258.258,0,0,0,.1.1.261.261,0,0,0,.138.03.394.394,0,0,0,.261-.132.614.614,0,0,0,.113-.24C1125.954,987.407,1125.947,987.3,1125.966,987.3Z" transform="translate(-1097.087 -962.765)" fill="#455a64"/>
      <path id="Path_109925" data-name="Path 109925" d="M1137.8,993.025a.122.122,0,0,0,0,.079c.017.038.022.058.06.045s.041-.038.019-.074-.053-.036-.06-.053.038-.055.11-.019a.139.139,0,0,1,.077.117.147.147,0,0,1-.1.146.141.141,0,0,1-.2-.115.15.15,0,0,1,.01-.071C1137.731,993,1137.794,993,1137.8,993.025Z" transform="translate(-1109.339 -968.325)" fill="#455a64"/>
      <path id="Path_109926" data-name="Path 109926" d="M940.64,1102.766a1.1,1.1,0,0,1-.179.1,4.382,4.382,0,0,1-.515.189,6.042,6.042,0,0,1-3.592-.046,4.416,4.416,0,0,1-.51-.2c-.117-.057-.18-.091-.175-.1s.271.091.718.216a6.829,6.829,0,0,0,3.532.043C940.365,1102.852,940.63,1102.746,940.64,1102.766Z" transform="translate(-912.216 -1075.376)" fill="#455a64"/>
      <path id="Path_109927" data-name="Path 109927" d="M815.872,951.8a8.6,8.6,0,0,0-.422,1,8.714,8.714,0,0,0-.17,1.075,1.949,1.949,0,0,1,.05-1.109A1.973,1.973,0,0,1,815.872,951.8Z" transform="translate(-794.697 -928.142)" fill="#263238"/>
      <path id="Path_109928" data-name="Path 109928" d="M591.756,1043.745a.561.561,0,0,1-.053.17,2.8,2.8,0,0,1-.239.426,3.072,3.072,0,0,1-1.212,1.042,3.616,3.616,0,0,1-.841.273,2.524,2.524,0,0,0-.656.239,1.23,1.23,0,0,0-.453.446.389.389,0,0,1,.057-.17,1.031,1.031,0,0,1,.347-.35,2.367,2.367,0,0,1,.675-.28,3.959,3.959,0,0,0,.817-.276,3.3,3.3,0,0,0,1.2-.979C591.637,1043.965,591.735,1043.731,591.756,1043.745Z" transform="translate(-573.29 -1017.848)" fill="#263238"/>
      <path id="Path_109929" data-name="Path 109929" d="M649.414,1058.253a3.51,3.51,0,0,0,.239-.343,1.08,1.08,0,0,0,.017-.943l-.022-.043.1.014a1.264,1.264,0,0,0-.383.848c-.014.24.038.4.017.4a.677.677,0,0,1-.105-.4,1.262,1.262,0,0,1,.388-.936l.06-.057.036.072.024.048a1.1,1.1,0,0,1-.05,1.044A.617.617,0,0,1,649.414,1058.253Z" transform="translate(-632.777 -1030.576)" fill="#263238"/>
      <path id="Path_109930" data-name="Path 109930" d="M686.779,1092.927a.6.6,0,0,1,.4-.12,1.1,1.1,0,0,1,.905.438l.026.034.053.072-.089.024a1.265,1.265,0,0,1-.972-.141c-.218-.134-.3-.276-.29-.283a3.611,3.611,0,0,0,.333.206,1.273,1.273,0,0,0,.9.1l-.034.1-.024-.031a1.085,1.085,0,0,0-.8-.422A3.893,3.893,0,0,0,686.779,1092.927Z" transform="translate(-669.374 -1065.718)" fill="#263238"/>
      <path id="Path_109931" data-name="Path 109931" d="M713.2,1053a.714.714,0,0,1,.292-.3,1.1,1.1,0,0,1,1-.06l.041.019.079.036-.065.062a1.255,1.255,0,0,1-.917.352.657.657,0,0,1-.393-.105c0-.019.153.031.393.019a1.287,1.287,0,0,0,.829-.354l.017.1-.034-.015a1.088,1.088,0,0,0-.91.024A3.68,3.68,0,0,0,713.2,1053Z" transform="translate(-695.15 -1026.439)" fill="#263238"/>
      <path id="Path_109932" data-name="Path 109932" d="M622.9,1119.01a.583.583,0,0,1,.412-.081,1.1,1.1,0,0,1,.86.517l.024.038.046.074-.091.017a1.273,1.273,0,0,1-.958-.24c-.2-.156-.273-.3-.263-.309s.11.11.314.24a1.292,1.292,0,0,0,.884.177l-.043.091-.019-.031a1.091,1.091,0,0,0-.764-.5A3.833,3.833,0,0,0,622.9,1119.01Z" transform="translate(-607.048 -1091.197)" fill="#263238"/>
      <path id="Path_109933" data-name="Path 109933" d="M.74,8.279a1.03,1.03,0,0,0,.019-.144q.014-.151.036-.417a4.921,4.921,0,0,1,.1-.671c.029-.129.041-.275.086-.421s.086-.307.134-.479A7.987,7.987,0,0,1,2.229,3.908,7.686,7.686,0,0,1,9.387.752c.18.012.354.057.534.084a3.8,3.8,0,0,1,.539.12,7.448,7.448,0,0,1,2.1.9,7.8,7.8,0,0,1,3.147,3.8,7.562,7.562,0,0,1,.508,2.634,7.424,7.424,0,0,1-.433,2.74l-.1.268-.014.034.014.034c.611,1.332,1.2,2.634,1.787,3.9l.1-.113-3.508-1.272-.043-.014-.034.034a7.694,7.694,0,0,1-9.546,1.109,7.944,7.944,0,0,1-1.995-1.787,8.571,8.571,0,0,1-1.109-1.916A8.735,8.735,0,0,1,.881,9.7q-.048-.34-.086-.6c0-.172-.014-.321-.019-.443a1.981,1.981,0,0,0-.014-.273.546.546,0,0,0,0-.091.508.508,0,0,0,0,.091V9.1c0,.175.046.378.072.608a8.382,8.382,0,0,0,.431,1.633,8.485,8.485,0,0,0,1.1,1.954,8.061,8.061,0,0,0,1.99,1.822,7.78,7.78,0,0,0,9.709-1.1l-.077.019L17.5,15.315l.175.065-.079-.177-1.779-3.913v.067l.1-.273a7.664,7.664,0,0,0,.443-2.8,7.785,7.785,0,0,0-.522-2.7A7.915,7.915,0,0,0,12.62,1.71,7.534,7.534,0,0,0,10.482.8,3.616,3.616,0,0,0,9.934.68C9.751.654,9.572.608,9.39.6A7.367,7.367,0,0,0,8.317.558,7.489,7.489,0,0,0,4.574,1.636a7.843,7.843,0,0,0-2.416,2.23,7.944,7.944,0,0,0-1.1,2.273l-.129.479a3.9,3.9,0,0,0-.079.429,4.725,4.725,0,0,0-.086.675c0,.177-.017.316-.022.419A.934.934,0,0,0,.74,8.279Z" transform="translate(0 0)" fill="#263238"/>
      <path id="Path_109934" data-name="Path 109934" d="M205.212,212.547l2.807-.055a2.807,2.807,0,1,1-2.926-2.752Z" transform="translate(-196.768 -204.105)" fill="#ff725e"/>
      <path id="Path_109935" data-name="Path 109935" d="M343.76,183.737l-.117-2.807a2.953,2.953,0,0,1,2.036.757,2.893,2.893,0,0,1,.888,1.952Z" transform="translate(-334.574 -175.995)" fill="#ff725e"/>
    </g>
  </g>
</svg>
