<svg xmlns="http://www.w3.org/2000/svg" xmlns:xlink="http://www.w3.org/1999/xlink" width="128" height="128" viewBox="0 0 128 128">
  <defs>
    <clipPath id="clip-path">
      <rect id="Rectangle_10733" data-name="Rectangle 10733" width="128" height="128" transform="translate(7939 2444)" fill="none"/>
    </clipPath>
  </defs>
  <g id="Mask_Group_824" data-name="Mask Group 824" transform="translate(-7939 -2444)" clip-path="url(#clip-path)">
    <g id="Group_39123" data-name="Group 39123" transform="translate(8008.266 2473.403)">
      <path id="Path_110356" data-name="Path 110356" d="M54.067,47.981l-5.3-9.327a25.032,25.032,0,1,0-6,6.638Z" transform="translate(-2.334 -0.424)" fill="#fafafa"/>
      <path id="Path_110357" data-name="Path 110357" d="M52.714,47.9,41.39,45.3a.072.072,0,0,1-.055-.083v-.028l.1.1a25.641,25.641,0,0,1-5.139,3.1,25.029,25.029,0,0,1-6.854,1.958,22.645,22.645,0,0,1-3.955.2c-.686-.039-1.377-.055-2.075-.116L21.3,50.109A25.2,25.2,0,0,1,5.682,40.085a24.894,24.894,0,0,1-4.226-9.659,25.552,25.552,0,0,1,.293-11.119A24.673,24.673,0,0,1,7.109,9.029L8.127,7.922c.337-.376.736-.691,1.106-1.034a14.675,14.675,0,0,1,1.134-.99l1.2-.9a10.251,10.251,0,0,1,1.239-.824l1.267-.769L15.4,2.767a12.13,12.13,0,0,1,1.344-.6A25.414,25.414,0,0,1,27.964.4,24.661,24.661,0,0,1,38.248,3.436a25.348,25.348,0,0,1,11.866,14.6,26.953,26.953,0,0,1,1.106,8.132,24.833,24.833,0,0,1-3.751,12.4V38.5c3.358,6,4.979,8.945,5.244,9.4l-5.36-9.338a.066.066,0,0,1,0-.072,25.286,25.286,0,0,0,2.462-5.36A24.57,24.57,0,0,0,51,26.167a26.862,26.862,0,0,0-1.106-8.06A25.1,25.1,0,0,0,38.121,3.718,24.44,24.44,0,0,0,27.942.725,25.181,25.181,0,0,0,16.878,2.435a11.807,11.807,0,0,0-1.328.586l-1.311.642-1.25.758a10.724,10.724,0,0,0-1.228.813L10.55,6.1a13.258,13.258,0,0,0-1.106.974c-.365.321-.758.653-1.106,1.023L7.325,9.2a24.413,24.413,0,0,0-5.3,10.162,25.231,25.231,0,0,0-.3,10.992,24.722,24.722,0,0,0,4.166,9.559,25.037,25.037,0,0,0,15.451,9.957l2.091.321c.691.061,1.377.077,2.052.122a21.817,21.817,0,0,0,3.928-.188,25,25,0,0,0,6.81-1.914,25.687,25.687,0,0,0,5.128-3.054.072.072,0,0,1,.1,0,.083.083,0,0,1,0,.089l-.039-.116Z" transform="translate(-0.98 -0.339)" fill="#263238"/>
      <g id="_1.通用_2.Icon图标_Fill_Check-Circle-Fill" data-name="1.通用/2.Icon图标/Fill/Check-Circle-Fill" transform="translate(10.734 10.597)">
        <rect id="矩形" width="30" height="30" transform="translate(0 0)" fill="#15c3b1" opacity="0"/>
        <path id="形状" d="M13,26A13,13,0,1,1,26,13,13.015,13.015,0,0,1,13,26ZM7.573,11.845a.232.232,0,0,0-.189.368L11,17.227a.922.922,0,0,0,1.5,0l6.111-8.472a.234.234,0,0,0-.189-.369H17.065a.936.936,0,0,0-.752.386L11.751,15.1,9.686,12.231a.924.924,0,0,0-.752-.386Z" transform="translate(2 2)" fill="#15c3b1"/>
      </g>
    </g>
    <g id="Group_39124" data-name="Group 39124" transform="matrix(-0.208, 0.978, -0.978, -0.208, 8018.262, 2486.706)">
      <path id="Path_110358" data-name="Path 110358" d="M56.967,52.489l-5.85-10.3a27.632,27.632,0,1,0-6.62,7.328Z" transform="translate(0.14 0.009)" fill="#fafafa"/>
      <path id="Path_110359" data-name="Path 110359" d="M57.107,52.5l-12.5-2.864a.079.079,0,0,1-.061-.092v-.031l.11.11a28.3,28.3,0,0,1-5.673,3.42A27.629,27.629,0,0,1,31.417,55.2a25,25,0,0,1-4.366.22c-.757-.043-1.521-.061-2.29-.128l-2.333-.354A27.816,27.816,0,0,1,5.189,43.875,27.48,27.48,0,0,1,.524,33.213,28.206,28.206,0,0,1,.848,20.939,27.235,27.235,0,0,1,6.765,9.593L7.888,8.371c.373-.415.812-.763,1.221-1.142a16.2,16.2,0,0,1,1.252-1.093l1.325-.989a11.316,11.316,0,0,1,1.368-.91l1.4-.849,1.466-.708a13.39,13.39,0,0,1,1.484-.66A28.053,28.053,0,0,1,29.787.066,27.223,27.223,0,0,1,41.139,3.419a27.981,27.981,0,0,1,13.1,16.115,29.753,29.753,0,0,1,1.221,8.977A27.413,27.413,0,0,1,51.319,42.2v-.073c3.707,6.626,5.5,9.874,5.789,10.381L51.19,42.2a.073.073,0,0,1,0-.079,27.913,27.913,0,0,0,2.717-5.917,27.122,27.122,0,0,0,1.307-7.694,29.652,29.652,0,0,0-1.221-8.9A27.711,27.711,0,0,0,41,3.73,26.978,26.978,0,0,0,29.762.427,27.8,27.8,0,0,0,17.549,2.314a13.033,13.033,0,0,0-1.466.647l-1.447.708-1.38.837a11.838,11.838,0,0,0-1.356.9l-1.337.953A14.636,14.636,0,0,0,9.342,7.431c-.4.354-.837.721-1.221,1.13L7,9.782A26.948,26.948,0,0,0,1.153,21a27.852,27.852,0,0,0-.33,12.134,27.29,27.29,0,0,0,4.6,10.552A27.638,27.638,0,0,0,22.477,54.678l2.308.354c.763.067,1.521.086,2.266.134a24.083,24.083,0,0,0,4.336-.208A27.6,27.6,0,0,0,38.9,52.846a28.355,28.355,0,0,0,5.661-3.371.079.079,0,0,1,.11,0,.092.092,0,0,1,0,.1l-.043-.128Z" transform="translate(0)" fill="#263238"/>
    </g>
    <circle id="Ellipse_1914" data-name="Ellipse 1914" cx="3" cy="3" r="3" transform="translate(7971 2504)" fill="#1b2631"/>
    <circle id="Ellipse_1915" data-name="Ellipse 1915" cx="3" cy="3" r="3" transform="translate(7983 2504)" fill="#1b2631"/>
    <ellipse id="Ellipse_1916" data-name="Ellipse 1916" cx="3.5" cy="3" rx="3.5" ry="3" transform="translate(7993 2504)" fill="#1b2631"/>
    <path id="Path_110360" data-name="Path 110360" d="M9.23,159.736l2.9.951-2.95,1.251a2.48,2.48,0,0,0-1.41,1.591l-1.212,4.145-1.053-4a2.469,2.469,0,0,0-1.7-1.75l-3.3-.991,3.12-1.065a2.486,2.486,0,0,0,1.6-1.744L6.348,153.7l1.285,4.36a2.491,2.491,0,0,0,1.6,1.67Z" transform="translate(7946.191 2336.596)" fill="#f04864"/>
    <path id="Path_110361" data-name="Path 110361" d="M9.913,160.208l3.132,1.026-3.181,1.349a2.674,2.674,0,0,0-1.52,1.716l-1.307,4.47L5.9,164.452a2.663,2.663,0,0,0-1.832-1.887L.51,161.5l3.365-1.148A2.681,2.681,0,0,0,5.6,158.468l1.2-4.763,1.386,4.7a2.686,2.686,0,0,0,1.722,1.8Z" transform="translate(7951.414 2319.27)" fill="#1890ff"/>
    <path id="Path_110362" data-name="Path 110362" d="M10.6,160.685l3.362,1.1-3.415,1.449a2.871,2.871,0,0,0-1.632,1.842l-1.4,4.8L6.3,165.241a2.858,2.858,0,0,0-1.966-2.025L.51,162.068l3.611-1.232a2.878,2.878,0,0,0,1.855-2.019L7.267,153.7l1.488,5.047a2.884,2.884,0,0,0,1.848,1.934Z" transform="translate(8038.07 2380.659)" fill="#15c3b1"/>
  </g>
</svg>
