<svg xmlns="http://www.w3.org/2000/svg" xmlns:xlink="http://www.w3.org/1999/xlink" width="128" height="128" viewBox="0 0 128 128">
  <defs>
    <clipPath id="clip-path">
      <rect id="Rectangle_10732" data-name="Rectangle 10732" width="128" height="128" transform="translate(7606 3143)" fill="none"/>
    </clipPath>
  </defs>
  <g id="Mask_Group_823" data-name="Mask Group 823" transform="translate(-7606 -3143)" clip-path="url(#clip-path)">
    <path id="Path_110338" data-name="Path 110338" d="M0,3.581,5.346,14.839l2.849-.706L26.249,29.69l5.459-9.96s-10.792-5.043-12.7-8.977.441-4.766.441-4.766L14.486,0Z" transform="matrix(0.966, 0.259, -0.259, 0.966, 7649.128, 3217.662)" fill="#e86452"/>
    <path id="Path_110339" data-name="Path 110339" d="M0,3.581,5.346,14.839l2.849-.706L26.249,29.69l5.459-9.96s-10.792-5.043-12.7-8.977.441-4.766.441-4.766L14.486,0Z" transform="matrix(0.966, 0.259, -0.259, 0.966, 7649.128, 3217.662)" fill="#1b2631" opacity="0.5"/>
    <path id="Path_110340" data-name="Path 110340" d="M900.574,38.019s8.334-1.588,20.311-12.469S938.774-.081,940.2.033s7.742-2.6,18.911,23.525,6.3,31.972,3.921,31.859-18.243-5.043-28.278-4.173-23.047,5.7-23.047,5.7Z" transform="translate(6753.651 3164.367)" fill="#e86452" opacity="0.7"/>
    <path id="Path_110341" data-name="Path 110341" d="M754.781,277.987l2.673,5.446,1.2,2.446a7.01,7.01,0,0,0,9.052,3.366l17.94-5.686-9.67-23.954-18.016,8.951a7.022,7.022,0,0,0-3.177,9.43Z" transform="translate(6881.44 2937.966)" fill="#e86452"/>
    <path id="Path_110342" data-name="Path 110342" d="M1228.811,28.487c5.913,14.146,8.182,26.665,5.043,27.963s-10.426-9.115-16.39-23.261-8.182-26.665-5.043-27.963S1222.9,14.317,1228.811,28.487Z" transform="translate(6482.93 3159.905)" fill="#e86452"/>
    <path id="Path_110343" data-name="Path 110343" d="M735.03,415.082l4.854-1.374-2.824-5.749-3.669,2.143Z" transform="translate(6899.45 2808.585)" fill="#455a64"/>
    <path id="Path_110344" data-name="Path 110344" d="M13.9,0,.514,6.862,0,3.289Z" transform="translate(7649.084 3223.807) rotate(-3)" fill="#455a64"/>
    <path id="Path_110345" data-name="Path 110345" d="M759.066,407.959l2.824,5.749-1,.29-2.269-5.787Z" transform="translate(6877.443 2808.585)" fill="#455a64"/>
    <path id="Path_110346" data-name="Path 110346" d="M995.5,425.432l3.291-1.11Z" transform="translate(6670.864 2794.315)" opacity="0.2"/>
    <path id="Path_110347" data-name="Path 110347" d="M787.7,388.641a52.5,52.5,0,0,0,10.615-4.438,27.035,27.035,0,0,0-5.421,1.942A27.608,27.608,0,0,0,787.7,388.641Z" transform="translate(6852.084 2829.303)" fill="#455a64"/>
    <path id="Path_110348" data-name="Path 110348" d="M776.961,362.013a21.935,21.935,0,0,0,4.9-1.9,23.271,23.271,0,0,0,4.665-2.521,44.368,44.368,0,0,0-9.569,4.375Z" transform="translate(6861.452 2852.514)" fill="#455a64"/>
    <path id="Path_110349" data-name="Path 110349" d="M801.6,419.914c0,.088.592,0,1.513-.29l1.614-.479c.593-.2,1.261-.492,1.891-.769a20.812,20.812,0,0,0,4.652-2.433,24.394,24.394,0,0,0-4.892,1.866c-.668.277-1.261.58-1.866.807l-1.538.593A3.871,3.871,0,0,0,801.6,419.914Z" transform="translate(6839.968 2801.623)" fill="#455a64"/>
    <path id="Path_110350" data-name="Path 110350" d="M1250.41,154.276s7.326-4.261,10.994,5.572-3.958,11.233-3.958,11.233A64.834,64.834,0,0,1,1250.41,154.276Z" transform="translate(6448.557 3030.624)" fill="#455a64"/>
    <path id="Path_110351" data-name="Path 110351" d="M1228.811,28.487c5.913,14.146,8.182,26.665,5.043,27.963s-10.426-9.115-16.39-23.261-8.182-26.665-5.043-27.963S1222.9,14.317,1228.811,28.487Z" transform="translate(6482.93 3159.905)" fill="#1b2631" opacity="0.6"/>
    <path id="Path_110352" data-name="Path 110352" d="M1193.04,68.174a11.145,11.145,0,0,0,.228,1.866c.2,1.185.465,2.925.87,5.043l.908,3.442c.151.618.328,1.261.5,1.9l.265,1.009c.1.328.226.656.34,1,.48,1.362.984,2.774,1.513,4.249l.391,1.11c.125.378.315.731.479,1.11l1.009,2.231c.34.757.68,1.5,1.008,2.244.177.353.316.731.517,1.084l.568,1.034,2.181,3.933c.176.315.341.63.529.933l.581.857,1.1,1.652,1.98,2.95c1.337,1.7,2.445,3.051,3.215,3.984a11.8,11.8,0,0,0,1.26,1.412,9.882,9.882,0,0,0-1.059-1.551l-3.05-4.123c-.592-.908-1.261-1.9-1.9-2.963-.353-.529-.706-1.084-1.071-1.652l-.555-.857c-.189-.3-.34-.618-.517-.92l-2.131-3.933-.568-1.034c-.189-.34-.328-.719-.5-1.084-.328-.731-.669-1.475-1-2.219l-1.008-2.219c-.165-.366-.341-.719-.479-1.1l-.391-1.1c-.541-1.463-1.046-2.862-1.537-4.211-.114-.328-.252-.656-.353-1s-.189-.656-.277-.983q-.289-.983-.529-1.891c-.353-1.261-.667-2.358-.971-3.4-.441-2.08-.794-3.782-1.059-5.043A9.067,9.067,0,0,0,1193.04,68.174Z" transform="translate(6498.589 3104.913)" fill="#263238"/>
    <path id="Path_110353" data-name="Path 110353" d="M16.618,164.845l5.366,1.757-5.45,2.312a4.581,4.581,0,0,0-2.6,2.939l-2.238,7.657-1.946-7.4a4.561,4.561,0,0,0-3.138-3.232l-6.1-1.83,5.764-1.967a4.592,4.592,0,0,0,2.96-3.222l2.061-8.159,2.374,8.054a4.6,4.6,0,0,0,2.95,3.086Z" transform="translate(7618.991 3020.551)" fill="#e86452"/>
    <path id="Path_110354" data-name="Path 110354" d="M10.516,160.625l3.333,1.092-3.385,1.436a2.846,2.846,0,0,0-1.618,1.826l-1.391,4.756-1.209-4.594A2.833,2.833,0,0,0,4.3,163.133L.51,162l3.58-1.222a2.853,2.853,0,0,0,1.839-2l1.28-5.068,1.475,5a2.859,2.859,0,0,0,1.832,1.917Z" transform="translate(7612.321 3042.256)" fill="#1890ff"/>
    <path id="Path_110355" data-name="Path 110355" d="M11.086,161.019l3.523,1.154-3.578,1.518a3.008,3.008,0,0,0-1.71,1.93l-1.47,5.027-1.277-4.855a2.995,2.995,0,0,0-2.06-2.122l-4-1.2,3.784-1.291a3.015,3.015,0,0,0,1.944-2.115L7.59,153.7l1.559,5.288a3.021,3.021,0,0,0,1.937,2.026Z" transform="translate(7712.896 3071.126)" fill="#15c3b1"/>
  </g>
</svg>
