<svg xmlns="http://www.w3.org/2000/svg" xmlns:xlink="http://www.w3.org/1999/xlink" width="128" height="128" viewBox="0 0 128 128">
  <defs>
    <clipPath id="clip-path">
      <rect id="Rectangle_10738" data-name="Rectangle 10738" width="128" height="128" transform="translate(8474 2626)" fill="#fff" stroke="#707070" stroke-width="1"/>
    </clipPath>
  </defs>
  <g id="Mask_Group_829" data-name="Mask Group 829" transform="translate(-8474 -2626)" clip-path="url(#clip-path)">
    <g id="Group_39130" data-name="Group 39130" transform="translate(58 -506)">
      <g id="Group_39129" data-name="Group 39129" transform="matrix(1, -0.017, 0.017, 1, 8455.293, 3149.853)">
        <path id="Path_110375" data-name="Path 110375" d="M12.387,0C12.387.5,0,42.069,0,42.069l10.648-4.761L16.48,50.163,23.976.648Z" transform="translate(1.721 43.421)" fill="#1890ff"/>
        <path id="Path_110376" data-name="Path 110376" d="M0,3.655,2.524,51.329,11.8,38.253l11.98,8.572L11.8,0Z" transform="translate(23.173 41.526)" fill="#1890ff"/>
        <g id="Group_39126" data-name="Group 39126" transform="translate(13.304 42.089)" opacity="0.5">
          <path id="Path_110377" data-name="Path 110377" d="M0,4.484a4.575,4.575,0,0,0,4.082,3.2c1.091.045,2.292-.292,3.213.3S8.6,9.964,9.683,10.11c1.267.181,2.011-1.508,3.208-1.91,1.634-.533,3.348,1.438,4.957.829,1.036-.392,1.508-1.724,2.6-2.011a3.616,3.616,0,0,1,1.448.05,2.84,2.84,0,0,0,1.639-.312l-.588-2.3L21.944,0H.407Z" opacity="0.5"/>
        </g>
        <path id="Path_110378" data-name="Path 110378" d="M0,9.457a14.17,14.17,0,0,1,3.112.623,1.307,1.307,0,0,1,.1-.5q1.367-3.66,2.725-7.3L6,2.213a2.348,2.348,0,0,1-.9-.9A2.84,2.84,0,0,0,2.649,0c-.5,2.071-1.1,4.907-1.543,6.671A7.965,7.965,0,0,1,0,9.457Z" transform="translate(25.897 0.005)" fill="#107ce0"/>
        <path id="Path_110379" data-name="Path 110379" d="M11.287,3.227A14.371,14.371,0,0,1,9.668,0a1.176,1.176,0,0,1-.5.292L8.95.367a3,3,0,0,1-.422.226,13.2,13.2,0,0,1-1.4.447L5.41,1.518c-1.222.332-2.333.618-3.137.809a6.961,6.961,0,0,1-1.317.267,6.709,6.709,0,0,1,1.267-.442l1.1-.322L.805,2.388C.478,3.816-.532,5.344.358,6.445a1.5,1.5,0,0,0,.327.292c3.2-1.186,7.31-2.72,10-3.429A1.787,1.787,0,0,1,11.287,3.227Z" transform="translate(1.489 28.435)" fill="#107ce0"/>
        <path id="Path_110380" data-name="Path 110380" d="M.007,8.992v.759a14.362,14.362,0,0,1,3.519-.457V9.1l.166-2.644V5.91c.035-1.9.111-3.474.176-3.781C3.335,1.5,2.827.184,1.751.043A1.878,1.878,0,0,0,.022.405C.062,3.05-.024,6.393.007,8.992Z" transform="translate(21.014 0.103)" fill="#107ce0"/>
        <path id="Path_110381" data-name="Path 110381" d="M2.167.93q.332.131.664.241C1.89.8.925.4,0,0,.638.3,1.367.618,2.167.93Z" transform="translate(4.963 17.43)" fill="#ff725e"/>
        <path id="Path_110382" data-name="Path 110382" d="M10.03,6.792A14.285,14.285,0,0,1,10.6,3.529c-.282-.085-.573-.181-.87-.282a14.794,14.794,0,0,1-3.016-.835A28.379,28.379,0,0,1,3.524.9,10.411,10.411,0,0,1,2.393.256L1.79,0C1.4.638.784,1.161.357,1.8A2.308,2.308,0,0,0,0,3.011,43.08,43.08,0,0,1,9.974,6.727Z" transform="translate(0.333 16.188)" fill="#107ce0"/>
        <path id="Path_110383" data-name="Path 110383" d="M8.979,8.2a14.077,14.077,0,0,1,1.508-2.68l-.216-.141A25.49,25.49,0,0,1,5.746,1.548l-.035-.04C5.1,1.005,4.515.468,4,0A1.509,1.509,0,0,1,3.65.588c-.779.779-2.242.276-3.1.965A1.553,1.553,0,0,0,0,2.559,85.937,85.937,0,0,1,7.928,7.546C8.34,7.8,8.707,8.029,8.979,8.2Z" transform="translate(2.49 9.924)" fill="#107ce0"/>
        <path id="Path_110384" data-name="Path 110384" d="M4.65,8.039c.352.5.664.935.895,1.277A14.324,14.324,0,0,1,8.215,6.872c-.3-.382-.674-.88-1.086-1.433-.367-.422-.784-.925-1.222-1.473-.643-.809-1.2-1.558-1.579-2.117A4.321,4.321,0,0,1,3.761.915a3.154,3.154,0,0,1,.372.4C3.781.809,3.449.382,3.157,0a2.68,2.68,0,0,1-.965,1.141A6.938,6.938,0,0,1,0,1.644a54,54,0,0,1,4.022,5.49Z" transform="translate(8.186 5.138)" fill="#107ce0"/>
        <path id="Path_110385" data-name="Path 110385" d="M3.846,9.414a14.007,14.007,0,0,1,2.6-1.222c-.035-.106-.065-.216-.1-.342-.2-.679-.432-1.624-.638-2.685s-.342-2.011-.417-2.725a8.627,8.627,0,0,1-.07-1.091l-.03-.2a2.549,2.549,0,0,1-1-.117A2.549,2.549,0,0,1,3.323.545,3.242,3.242,0,0,0,0,.364C1.146,3.124,2.861,6.9,3.806,9.318,3.821,9.348,3.831,9.379,3.846,9.414Z" transform="translate(13.445 2.014)" fill="#107ce0"/>
        <path id="Path_110386" data-name="Path 110386" d="M.035.04,0,0,.03.05Z" transform="translate(13.57 14.559)" fill="#ff725e"/>
        <path id="Path_110387" data-name="Path 110387" d="M10.906,3.776A14.534,14.534,0,0,1,10.358.317h-.08C9.272.372,8.1.357,6.859.317H5.682c-1.2,0-2.277-.1-3.057-.171-.357-.035-.644-.07-.855-.1L1.007,0C.836.261.665.5.5.794A2.686,2.686,0,0,0,.2,3.308l.045.065q4.992.121,9.974.292A1.779,1.779,0,0,1,10.906,3.776Z" transform="translate(0 23.87)" fill="#107ce0"/>
        <path id="Path_110388" data-name="Path 110388" d="M9.748,2.715l.211-.136A14.483,14.483,0,0,1,7.446,0a1.207,1.207,0,0,1-.392.422.935.935,0,0,1-.282.387c-.643.5-1.548,1.061-2.559,1.724S2.287,3.76,1.614,4.168A6.038,6.038,0,0,1,.5,4.781,6.283,6.283,0,0,1,1.5,4.012c.372-.251.824-.563,1.332-.895C1.86,3.705.88,4.293,0,4.831c.166.744-.1,1.609.246,2.308a2.233,2.233,0,0,0,1.83,1.046L8.059,3.74A7.357,7.357,0,0,1,9.748,2.715Z" transform="translate(5.828 32.326)" fill="#107ce0"/>
        <path id="Path_110389" data-name="Path 110389" d="M0,0,.819.644A.5.5,0,0,1,.87.588L.6.412Z" transform="translate(42.895 37.353)" fill="#ff725e"/>
        <path id="Path_110390" data-name="Path 110390" d="M2.559,0A14.376,14.376,0,0,1,0,2.318a8.474,8.474,0,0,1,.739.865.8.8,0,0,1,.08.06A5.359,5.359,0,0,1,1.825,4.63L2.861,6.395l.03.06c.674,1.121,1.347,2.287,1.941,3.3a1.648,1.648,0,0,1,.3-.447C6.174,8.22,8.3,9.281,9.4,8.26a1.7,1.7,0,0,0,.282-.352C7.647,5.691,4.932,2.584,3.2.769A4.8,4.8,0,0,1,2.559,0Zm.8,2.383A17.815,17.815,0,0,1,4.605,4.178a18.91,18.91,0,0,1,1.242,1.8A6.217,6.217,0,0,1,4.389,4.329,6.437,6.437,0,0,1,3.358,2.383Z" transform="translate(32.87 33.055)" fill="#107ce0"/>
        <path id="Path_110391" data-name="Path 110391" d="M.035.035A.23.23,0,0,1,0,0,2.319,2.319,0,0,1,0,.246Z" transform="translate(24.977 2.287)" fill="#ff725e"/>
        <path id="Path_110392" data-name="Path 110392" d="M.689,0A14.235,14.235,0,0,1,0,3.016l.392.191,1.388.724A9.181,9.181,0,0,1,.432,3.1,42.514,42.514,0,0,1,4.68,5.229C5.686,5.776,6.641,6.294,7.36,6.7l.468.2a2.034,2.034,0,0,1,.1-.694c.392-1.131,1.84-1.724,2.338-2.72C7.229,2.373,3.328.99.689,0Z" transform="translate(38.149 25.343)" fill="#107ce0"/>
        <path id="Path_110393" data-name="Path 110393" d="M0,2.458c.277.216.628.5,1.006.774l.136.1c.83.558,1.956,1.342,3.192,2.222S6.681,7.245,7.481,7.838l.3.231c.5-.362,1.106-.588,1.629-.9C6.827,4.907,3.776,1.78,1.453,0A14.57,14.57,0,0,1,0,2.458Z" transform="translate(36.103 29.772)" fill="#107ce0"/>
        <path id="Path_110394" data-name="Path 110394" d="M8.738,1.609a2.545,2.545,0,0,0-.156-.286A14.223,14.223,0,0,1,5.962,0l-.07.09c-.186.226-.4.468-.628.724-.412.5-.975,1.151-1.624,1.85S2.3,4.047,1.815,4.5a4.17,4.17,0,0,1-.824.689,1.185,1.185,0,0,1,.161-.231C.739,5.374.352,5.776,0,6.154.553,7.3,0,8.984.945,9.914a1.628,1.628,0,0,0,.588.377c2.011-2.7,4.751-6.194,6.7-8.361A.835.835,0,0,1,8.738,1.609Z" transform="translate(10.996 35.735)" fill="#107ce0"/>
        <path id="Path_110395" data-name="Path 110395" d="M.508,2.031a1.192,1.192,0,0,1,.226.659,3.1,3.1,0,0,1,.1,1.538C.759,4.836.674,5.49.588,6.174c-.121.91-.241,1.76-.347,2.514-.08.96-.156,1.905-.241,2.76a6.739,6.739,0,0,0,1.739,1.181,2.965,2.965,0,0,0,2.68-.779c-.2-3.223-.367-7.239-.236-10.1l.151.352c-.045-.166-.06-.261-.045-.266a5.222,5.222,0,0,1,.478,1.141c.261.719.593,1.725.925,2.84q.136.468.256.905c.352,1.191.659,2.393.89,3.519A2.649,2.649,0,0,1,7.968,10a26.228,26.228,0,0,1,2.654.664A66.532,66.532,0,0,1,7.1,0,14.258,14.258,0,0,1,.508,2.031ZM2.333,7.5a5.064,5.064,0,0,1-.111-1.408,5.374,5.374,0,0,1,.025-1.413A5.238,5.238,0,0,1,2.333,7.5Z" transform="translate(24.957 35.926)" fill="#107ce0"/>
        <path id="Path_110396" data-name="Path 110396" d="M7.546.92A.264.264,0,0,1,7.6.87,14.114,14.114,0,0,1,3.142,0c.035.045.075.1.121.161a.872.872,0,0,0,.05.1c.292.081.382.5.347.819a3.8,3.8,0,0,1-.08.468,4.236,4.236,0,0,1-.3,1.3,19.214,19.214,0,0,1-.824,1.81A33.24,33.24,0,0,1,.689,7.782c-.3.463-.538.8-.689,1.005a2.179,2.179,0,0,1,.533.131c1.4.548,2.162,2.584,3.655,2.408l.136-.025C5.2,8.516,6.073,4.655,6.948,2.066A2.936,2.936,0,0,1,7.546.92Z" transform="translate(16.546 37.097)" fill="#107ce0"/>
        <path id="Path_110397" data-name="Path 110397" d="M3.1,9.185q.251-.226.5-.437a2.65,2.65,0,0,1,.664-.654c.4-.282.84-.558,1.312-.845C6.515,6.676,7.39,6.2,8.039,5.882c.442-.216.769-.362.94-.422l.895-.528c-.885-1.388.261-3.494-.779-4.771A1.571,1.571,0,0,0,8.939,0C6.319,1.941,2.941,4.143,0,5.882A14.31,14.31,0,0,1,3.1,9.185Zm.628-5.621A15.41,15.41,0,0,1,5.59,2.408,6.775,6.775,0,0,1,3.866,3.786,6.983,6.983,0,0,1,1.9,4.791,15.252,15.252,0,0,1,3.725,3.564Z" transform="translate(33.408 6.531)" fill="#107ce0"/>
        <path id="Path_110398" data-name="Path 110398" d="M0,.5A14.524,14.524,0,0,1,.186,2.805v.427H.422c.422,0,.84.04,1.262.07h.3c.865,0,2.056.081,3.373.176,1.232.1,2.348.206,3.187.307.211-.95,1.382-1.423,1.729-2.343A1.945,1.945,0,0,0,10.17,0C7.1.171,2.946.422.387.5Z" transform="translate(38.747 20.879)" fill="#107ce0"/>
        <path id="Path_110399" data-name="Path 110399" d="M5.475,1.131l-5.1,6.41A1.8,1.8,0,0,1,0,7.893,14.076,14.076,0,0,1,3.162,9.6l.07-.09A1.509,1.509,0,0,1,3.544,9c.226-.261.5-.568.794-.9C5.847,6.294,7.566,4.464,9,2.946a2.178,2.178,0,0,1-.784-.5C7.586,1.8,7.451.739,6.711.251A1.734,1.734,0,0,0,5.922,0a.233.233,0,0,1,0,.055,1.508,1.508,0,0,1-.448,1.076Z" transform="translate(29.784 2.458)" fill="#107ce0"/>
        <path id="Path_110400" data-name="Path 110400" d="M1.312,6.571l.417-.186a6.541,6.541,0,0,1,.98-.442c.623-.256,1.508-.588,2.453-.94S7,4.344,7.642,4.133A4.7,4.7,0,0,1,8.7,3.846a1.979,1.979,0,0,1-.362.2l1.3-.427c0-1.046.292-2.157-.241-3.047A2.165,2.165,0,0,0,8.888,0C6.148,1.106,2.4,2.845,0,3.348A14.181,14.181,0,0,1,1.312,6.571Z" transform="translate(37.103 13.303)" fill="#107ce0"/>
        <path id="Path_110401" data-name="Path 110401" d="M1.121.086,0,0C.372.025.744.055,1.121.086Z" transform="translate(46.128 24.8)" fill="#ff725e"/>
        <path id="Path_110402" data-name="Path 110402" d="M.06.287c.03.121.05.231.07.332L.211.593C.141.412.07.216,0,0A1.075,1.075,0,0,0,.06.287Z" transform="translate(19.925 9.532)" fill="#ff725e"/>
        <path id="Path_110403" data-name="Path 110403" d="M.04.121A.53.53,0,0,1,.07,0L0,.09Z" transform="translate(32.946 11.965)"/>
        <path id="Path_110404" data-name="Path 110404" d="M.231.809A1.308,1.308,0,0,1,.322.337,1.467,1.467,0,0,1,.5,0Q.236.211,0,.437C.06.558.151.684.231.809Z" transform="translate(36.515 15.278)" fill="#ff725e"/>
        <path id="Path_110405" data-name="Path 110405" d="M.468.266V.2L0,0Z" transform="translate(45.509 32.045)"/>
        <path id="Path_110406" data-name="Path 110406" d="M1.066.774C.669.478.317.216.06,0L0,.076C.171.186.553.432,1.066.774Z" transform="translate(36.063 32.231)"/>
        <path id="Path_110407" data-name="Path 110407" d="M1.8,3.177l.111.206.03-.08C1.347,2.3.674,1.121,0,0,.714,1.232,1.337,2.358,1.8,3.177Z" transform="translate(35.741 39.51)"/>
        <path id="Path_110408" data-name="Path 110408" d="M0,.01A1.413,1.413,0,0,1,.5.568a.1.1,0,0,0,.035.09A1.192,1.192,0,0,0,.312,0Z" transform="translate(25.173 37.957)" fill="#ff725e"/>
        <path id="Path_110409" data-name="Path 110409" d="M0,0A2.282,2.282,0,0,1,.266.97a2.2,2.2,0,0,1,0,.317A3.791,3.791,0,0,0,.347.82C.382.5.292.08,0,0Z" transform="translate(19.859 37.353)" fill="#ff725e"/>
        <path id="Path_110410" data-name="Path 110410" d="M.7,0H.649C.558.141.362.4.085.739.06.769.03.809,0,.839.231.583.442.337.628.116Z" transform="translate(16.27 35.735)"/>
        <path id="Path_110411" data-name="Path 110411" d="M.97,0A1.161,1.161,0,0,1,.417.121L0,.06c.3.1.588.2.87.282C.895.226.935.141.97,0Z" transform="translate(10.041 19.376)"/>
        <path id="Path_110412" data-name="Path 110412" d="M1.282,1.307A4.868,4.868,0,0,1,.5.543L0,0C.412.553.784,1.051,1.086,1.433Z" transform="translate(15.295 10.578)"/>
        <path id="Path_110413" data-name="Path 110413" d="M0,.387H.045V0A1.844,1.844,0,0,1,0,.387Z" transform="translate(20.991 9.482)"/>
        <path id="Path_110414" data-name="Path 110414" d="M0,2.841H.191C.166,2.272.161,1.227.191,0L.025,2.644A.658.658,0,0,0,0,2.841Z" transform="translate(24.56 6.556)"/>
        <path id="Path_110415" data-name="Path 110415" d="M.1,7.36a1.307,1.307,0,0,0-.1.5c.261.085.5.176.774.277a1.8,1.8,0,0,0,.377-.352l5.1-6.41A1.508,1.508,0,0,0,6.7.317a.233.233,0,0,0,0-.055c-.92-.075-1.976.382-2.9.1A6.835,6.835,0,0,1,3.157.131C2.9.92,2.463,2.142,1.956,3.489A40.955,40.955,0,0,1,.236,7.7,39.389,39.389,0,0,1,1.709,3.4c.5-1.362.98-2.569,1.3-3.338A.776.776,0,0,1,2.9,0L2.836.06Q1.458,3.725.1,7.36Zm2.654-2.1A12.86,12.86,0,0,1,4.228,3.5,8.2,8.2,0,0,1,2.956,5.42,8.414,8.414,0,0,1,1.393,7.109,12.855,12.855,0,0,1,2.75,5.259Z" transform="translate(29.009 2.217)" fill="#ff725e"/>
        <path id="Path_110416" data-name="Path 110416" d="M2.353,3.68c.85-.92,1.629-1.745,2.2-2.333a6.365,6.365,0,0,1,.97-.915,6.9,6.9,0,0,1-.835,1.041c-.538.618-1.3,1.463-2.142,2.383S.92,5.606.347,6.189A1,1,0,0,0,0,6.772l.287.221C3.228,5.254,6.606,3.052,9.225,1.111a2.156,2.156,0,0,0-.819-.5C7.561.317,6.521.327,5.686,0,4.248,1.508,2.519,3.348,1.021,5.158,1.408,4.716,1.865,4.213,2.353,3.68Z" transform="translate(33.117 5.404)" fill="#ff725e"/>
        <path id="Path_110417" data-name="Path 110417" d="M5.663.493a5.694,5.694,0,0,1-1.005.623c-.618.362-1.478.855-2.413,1.423S.389,3.58.122,4.223A1.322,1.322,0,0,0,0,4.846l.2.342c2.4-.5,6.148-2.242,8.888-3.348C8.252,1.171,7,.91,6.407,0l-.88.493C5.607.493,5.658.463,5.663.493ZM3.9,3.509a5.527,5.527,0,0,1-1.453.538A7.039,7.039,0,0,1,5.276,2.805,5.389,5.389,0,0,1,3.9,3.469Z" transform="translate(36.87 11.483)" fill="#ff725e"/>
        <path id="Path_110418" data-name="Path 110418" d="M6.41.719C5.786.97,4.9,1.3,3.952,1.659s-1.845.659-2.484.865A4.32,4.32,0,0,1,.417,2.81L0,3A14.5,14.5,0,0,1,.332,4.5H.709c2.559-.065,6.712-.317,9.783-.5A4.394,4.394,0,0,0,9.9,3,6.754,6.754,0,0,1,8.431.83,3.268,3.268,0,0,1,8.32,0l-1.3.427Z" transform="translate(38.405 16.892)" fill="#ff725e"/>
        <path id="Path_110419" data-name="Path 110419" d="M5.234.518,1.87.261A8.128,8.128,0,0,1,.478.1,5.48,5.48,0,0,1,1.584.07C1.161.04.744.015.322,0H.086A11.086,11.086,0,0,1,0,1.232C2.639,2.237,6.536,3.6,9.577,4.716a1.508,1.508,0,0,0,.171-.659c.035-1.2-1.413-2.122-1.337-3.283-.377-.03-.749-.06-1.121-.1Z" transform="translate(38.838 24.116)" fill="#ff725e"/>
        <path id="Path_110420" data-name="Path 110420" d="M2.348.9.96.191.568,0A13.847,13.847,0,0,1,0,1.4C2.323,3.177,5.374,6.3,7.958,8.567a2.2,2.2,0,0,0,.8-.749c.623-1.1-.226-2.428-.347-3.685-.779-.387-1.961-1.005-3.278-1.7C4.052,1.85,3.077,1.312,2.348.9Z" transform="translate(37.581 28.375)" fill="#ff725e"/>
        <path id="Path_110421" data-name="Path 110421" d="M4.877,3.187C3.64,2.307,2.524,1.493,1.729.9,1.161.473.754.161.578,0,.392.241.2.478,0,.7a4.806,4.806,0,0,0,.623.769C2.353,3.288,5.068,6.395,7.1,8.612c.473-.784.357-1.926.925-2.695a1.871,1.871,0,0,1,.256-.271L7.466,5C6.732,4.494,5.837,3.871,4.877,3.187Z" transform="translate(35.429 32.351)" fill="#ff725e"/>
        <path id="Path_110422" data-name="Path 110422" d="M3.4,4.208c-.362-.623-.7-1.222-1.005-1.775A5.847,5.847,0,0,0,1.5,1.066.955.955,0,0,0,.533.85c-.236.085-.3.241-.322.221s0-.176.276-.317A1.051,1.051,0,0,1,1.538.865,8.466,8.466,0,0,0,.8,0C.538.181.271.362,0,.528A64.566,64.566,0,0,0,3.519,11.2a1.508,1.508,0,0,0,1.166-.266c.895-.684.528-2.122.834-3.2l-.2-.322C4.8,6.6,4.122,5.465,3.4,4.208Z" transform="translate(32.086 35.373)" fill="#ff725e"/>
        <path id="Path_110423" data-name="Path 110423" d="M2.313,6.953a5.423,5.423,0,0,1,.216,1.222A6.378,6.378,0,0,1,2.137,7L1.3,4.143C.986,3.077.7,2.107.453,1.287.337.88.247.558.2.352L.046,0c-.131,2.866.04,6.882.236,10.105A12.933,12.933,0,0,1,2.7,8.486c-.231-1.121-.538-2.323-.89-3.519C2.022,5.731,2.192,6.415,2.313,6.953Z" transform="translate(29.094 37.65)" fill="#ff725e"/>
        <path id="Path_110424" data-name="Path 110424" d="M4.178,7.621A8.277,8.277,0,0,1,3.9,9.069,7.746,7.746,0,0,1,4,7.6c.1-.9.246-2.152.427-3.519L4.7,2.137A2.961,2.961,0,0,0,4.63.628,1.352,1.352,0,0,0,4.082,0h-.8a.263.263,0,0,0-.055.05,2.936,2.936,0,0,0-.6,1.151C1.75,3.791.875,7.652,0,10.437c1.036-.216,1.7-1.478,2.775-1.548a1.981,1.981,0,0,1,1.312.5c.085-.855.161-1.8.241-2.76C4.283,6.973,4.228,7.32,4.178,7.621Z" transform="translate(20.86 37.997)" fill="#ff725e"/>
        <path id="Path_110425" data-name="Path 110425" d="M6.244,4.288c.307-.623.608-1.227.835-1.775A4.021,4.021,0,0,0,7.41,1.005,2.477,2.477,0,0,0,7.2,0a.834.834,0,0,0-.5.322C4.751,2.489,2,5.982,0,8.682c1.106.417,2.624-.292,3.926-.151.121-.221.337-.593.623-1.091C5,6.641,5.621,5.535,6.244,4.288Z" transform="translate(12.53 37.348)" fill="#ff725e"/>
        <path id="Path_110426" data-name="Path 110426" d="M4.228,5.706c.352-.417,1.257-1.357,2.3-2.478C7.657,2.016,8.6.98,8.929.679,8.6.463,8.285.236,7.973,0A15.353,15.353,0,0,1,6.722,1.056,7.224,7.224,0,0,1,5.153,2.112,6.646,6.646,0,0,1,6.561.85c.422-.327.809-.608,1.1-.8a7.355,7.355,0,0,0-1.7,1.005L0,5.52c1.036.181,2.207.226,2.856,1.005a1.863,1.863,0,0,1,.246.387C3.429,6.52,3.816,6.143,4.228,5.706Z" transform="translate(7.919 34.991)" fill="#ff725e"/>
        <path id="Path_110427" data-name="Path 110427" d="M7.707,2.978c1.005-.654,1.946-1.222,2.579-1.644a.82.82,0,0,0,.292-.372.5.5,0,0,0,0-.352c-.065-.2-.2-.231-.191-.251s.166,0,.287.211A.628.628,0,0,1,10.718,1a.35.35,0,0,1-.03.086A1.208,1.208,0,0,0,11.08.665C10.919.449,10.759.228,10.6,0a1.784,1.784,0,0,0-.6.08C7.31.791,3.2,2.324,0,3.51c1.005.734,2.84.417,3.489,1.548a1.749,1.749,0,0,1,.156.437C4.525,4.958,5.5,4.37,6.48,3.782,6.862,3.526,7.254,3.259,7.707,2.978Z" transform="translate(2.173 31.661)" fill="#ff725e"/>
        <path id="Path_110428" data-name="Path 110428" d="M6.571,2.468,8.3,2.006c.533-.136,1.005-.241,1.393-.382A2.72,2.72,0,0,0,10.774.91a.824.824,0,0,1-.186.317,1.837,1.837,0,0,1-.407.342l.216-.075a1.176,1.176,0,0,0,.5-.292c-.09-.261-.176-.5-.251-.789A1.781,1.781,0,0,0,9.974.292Q4.987.116,0,0C.463.784,1.508,1.131,1.92,1.941A2.317,2.317,0,0,1,2.036,3.59L4.55,3.032C5.143,2.84,5.842,2.665,6.571,2.468Z" transform="translate(0.263 27.233)" fill="#ff725e"/>
        <path id="Path_110429" data-name="Path 110429" d="M1.068,4.6a6.784,6.784,0,0,1,1.267,0c.784.03,1.86.07,3.052.1s2.272.03,3.052.035a7.04,7.04,0,0,1,1.272.05,5.462,5.462,0,0,1-1.267.136c-.5.03-1.166.045-1.885.05a33.6,33.6,0,0,0,3.419,0h.08V3.76l-.07-.045A43.079,43.079,0,0,0,.012,0,1.192,1.192,0,0,0,.781,1.287L.711.834a1.882,1.882,0,0,1,.774,2.288A6.033,6.033,0,0,1,.7,4.63l.764.045A1.176,1.176,0,0,1,1.068,4.6Zm7.038-.709a5.705,5.705,0,0,1,1.654.427,5.766,5.766,0,0,1-1.7-.166,5.645,5.645,0,0,1-1.649-.427A5.718,5.718,0,0,1,8.106,3.891Z" transform="translate(0.316 19.21)" fill="#ff725e"/>
        <path id="Path_110430" data-name="Path 110430" d="M.478,3.891a8.042,8.042,0,0,1,1.337.578l1.041.5c.925.4,1.89.8,2.83,1.171a15.518,15.518,0,0,0,2.675.709,1.006,1.006,0,0,0,.543-.09.407.407,0,0,0,.07-.06c.1-.3.206-.588.327-.88C8.838,5.6,8.134,5.213,7.35,4.761A14.391,14.391,0,0,1,4.977,3.253,15.949,15.949,0,0,1,7.491,4.54l.814.5A85.947,85.947,0,0,0,.367,0c-.161.945.2,2.152-.09,3.132A2.775,2.775,0,0,1,0,3.725l.6.256C.523,3.936.473,3.9.478,3.891Z" transform="translate(2.108 12.478)" fill="#ff725e"/>
        <path id="Path_110431" data-name="Path 110431" d="M.99,3.725a6.075,6.075,0,0,1,.91.825c.548.5,1.312,1.237,2.187,1.981S5.792,7.913,6.4,8.366l.206.156c.176-.241.352-.478.543-.7l-.03-.05c-.266-.317-.6-.744-.95-1.232a8.7,8.7,0,0,1-1.2-1.981,4.771,4.771,0,0,1,.764.935A54.016,54.016,0,0,0,1.714,0,1.855,1.855,0,0,0,.623.588C.065,1.267.271,2.333,0,3.137c.5.463,1.1.975,1.714,1.508A4.873,4.873,0,0,1,.99,3.725Z" transform="translate(6.451 6.792)" fill="#ff725e"/>
        <path id="Path_110432" data-name="Path 110432" d="M2.956,6.566C4.213,8.154,5.264,9.421,5.239,9.5q.347-.236.709-.452a.229.229,0,0,0-.04-.1C4.962,6.541,3.248,2.76,2.1,0a5.3,5.3,0,0,0-.533.277C.729.779.452,1.87,0,2.76c.292.382.623.83.975,1.312S2.106,5.495,2.956,6.566Zm1.3-.729a9.619,9.619,0,0,1,.814,1.624A9.4,9.4,0,0,1,5.8,9.125,7.822,7.822,0,0,1,4.253,5.837Z" transform="translate(11.343 2.393)" fill="#ff725e"/>
        <path id="Path_110433" data-name="Path 110433" d="M.025,2.8A5.924,5.924,0,0,1,.266,3.921c.121.689.287,1.649.5,2.7.181.92.357,1.744.5,2.4.07.216.141.412.211.593.266-.091.538-.171.819-.246a12.6,12.6,0,0,1-.256-1.664,7.814,7.814,0,0,1-.171-1.7,4.565,4.565,0,0,1,.432,1.669c.045.332.065.644.075.91,0-2.6.055-5.942.05-8.587a16.923,16.923,0,0,0-1.4,2.086,1.388,1.388,0,0,1-.454.4A1.388,1.388,0,0,1,0,2.659l.03.2C.015,2.825.02,2.8.025,2.8Z" transform="translate(18.658 0.508)" fill="#ff725e"/>
        <path id="Path_110434" data-name="Path 110434" d="M.126,6.018C.1,7.481.055,8.748,0,9.4a6.007,6.007,0,0,1,1.005.055,7.963,7.963,0,0,0,1.106-2.78C2.554,4.907,3.162,2.071,3.655,0a2.171,2.171,0,0,0-.89.256c-.774.427-1.714,2.3-2.2,2.308a.639.639,0,0,1-.452-.241v.211C.126,3.147.126,4.474.126,6.018Z" transform="translate(24.887 0)" fill="#ff725e"/>
        <path id="Path_110435" data-name="Path 110435" d="M1.041,2.267c.638-.206,1.508-.5,2.483-.865S5.359.714,5.983.463L6.606.2C6.847.09,6.978.02,6.968,0A4.7,4.7,0,0,0,5.912.287c-.638.211-1.508.5-2.479.87S1.6,1.84.98,2.1A6.538,6.538,0,0,0,0,2.539,4.316,4.316,0,0,0,1.041,2.267Z" transform="translate(38.833 17.148)" fill="#263238"/>
        <path id="Path_110436" data-name="Path 110436" d="M1.4.015h-.3A5.474,5.474,0,0,0,0,.045,8.136,8.136,0,0,0,1.393.206L4.756.462,6.812.613,7.933.7V.508C7.094.407,5.977.3,4.746.2,3.459.1,2.287.035,1.4.015Z" transform="translate(39.315 24.182)" fill="#263238"/>
        <path id="Path_110437" data-name="Path 110437" d="M4.248,2.132A42.533,42.533,0,0,0,0,0,9.185,9.185,0,0,0,1.347.835c.729.412,1.7.95,2.78,1.508,1.317.7,2.514,1.317,3.278,1.7v-.2l-.468-.266C6.209,3.192,5.274,2.675,4.248,2.132Z" transform="translate(38.581 28.445)" fill="#263238"/>
        <path id="Path_110438" data-name="Path 110438" d="M37.811,33.06c-1.237-.88-2.363-1.664-3.192-2.222l-.136-.1c-.5-.342-.895-.588-1.086-.7l.06-.075a14.577,14.577,0,0,0,1.478-2.458,13.84,13.84,0,0,0,.573-1.413,14.235,14.235,0,0,0,.689-3.016c.045-.407.075-.814.085-1.232v-.427a13.893,13.893,0,0,0-1.85-7.033l-.2-.342a1.322,1.322,0,0,1,.121-.623c.266-.644,1.2-1.1,2.122-1.684s1.795-1.061,2.413-1.423A5.7,5.7,0,0,0,39.9,9.693a.375.375,0,0,0-.136.035,10.208,10.208,0,0,0-.94.422c-.649.322-1.508.794-2.463,1.367-.473.287-.915.563-1.312.845a2.649,2.649,0,0,0-.664.654,1.468,1.468,0,0,0-.181.337,1.308,1.308,0,0,0-.09.473c-.08-.126-.156-.251-.241-.372a14.309,14.309,0,0,0-3.1-3.318l-.287-.221a1,1,0,0,1,.347-.583C31.4,8.748,32.18,7.923,33.03,7s1.6-1.765,2.142-2.383a6.9,6.9,0,0,0,.835-1.041,6.37,6.37,0,0,0-.97.915c-.573.588-1.352,1.413-2.2,2.333-.5.533-.945,1.036-1.347,1.508-.3.332-.568.638-.794.9a1.508,1.508,0,0,0-.312.5.526.526,0,0,0-.03.121l-.04-.03a14.077,14.077,0,0,0-3.162-1.7c-.256-.1-.5-.191-.774-.277a14.173,14.173,0,0,0-3.112-.623c-.337-.03-.679-.045-1.005-.055.055-.649.1-1.915.126-3.378.03-1.543,0-2.871,0-3.484a2.311,2.311,0,0,0,0-.246L22.332,0c-.065.307-.141,1.88-.176,3.781V7.164h-.191a14.363,14.363,0,0,0-3.519.457H18.4a1.841,1.841,0,0,0,.04-.4V6.847a6.988,6.988,0,0,0-.075-.91,4.565,4.565,0,0,0-.432-1.669,7.813,7.813,0,0,0,.171,1.7,12.615,12.615,0,0,0,.256,1.664c-.282.075-.553.156-.819.246l-.08.025a1.515,1.515,0,0,0-.07-.332c-.03-.121-.04-.191-.06-.287-.141-.659-.317-1.483-.5-2.4-.2-1.051-.367-2.011-.5-2.7a5.92,5.92,0,0,0-.241-1.121v.055a8.61,8.61,0,0,0,.07,1.091c.075.7.211,1.669.417,2.725s.442,2.011.638,2.685c.035.126.065.236.1.342a14.005,14.005,0,0,0-2.6,1.222q-.362.216-.709.452c0-.08-1.005-1.347-2.282-2.936-.84-1.056-1.563-1.986-1.981-2.514-.216-.266-.352-.412-.372-.4a4.32,4.32,0,0,0,.568.935c.382.558.935,1.307,1.579,2.117.437.548.855,1.051,1.222,1.473l.5.543a4.869,4.869,0,0,0,.779.764l-.176.126a14.325,14.325,0,0,0-2.67,2.443c-.231-.342-.543-.789-.895-1.277l-.649-.895a4.773,4.773,0,0,0-.764-.935,8.7,8.7,0,0,0,1.2,1.981c.352.5.684.915.95,1.232l.035.04c-.191.226-.367.463-.543.7l-.206-.156c-.608-.452-1.433-1.091-2.313-1.835S6.34,9.587,5.792,9.064a6.075,6.075,0,0,0-.91-.824,4.873,4.873,0,0,0,.744.915l.035.04a25.487,25.487,0,0,0,4.525,3.836l.216.141a14.074,14.074,0,0,0-1.508,2.68c-.271-.176-.639-.4-1.066-.659l-.814-.5A15.953,15.953,0,0,0,4.5,13.4a14.391,14.391,0,0,0,2.373,1.508c.784.452,1.508.835,1.951,1.061-.121.292-.226.583-.327.88a.4.4,0,0,1-.07.06,1,1,0,0,1-.543.09,15.512,15.512,0,0,1-2.675-.709q-.332-.116-.664-.241c-.8-.312-1.508-.633-2.167-.93l-1.041-.5A8.046,8.046,0,0,0,0,14.041a.771.771,0,0,0,.126.1c.186.126.578.352,1.131.649a28.37,28.37,0,0,0,3.192,1.508,14.8,14.8,0,0,0,3.016.835l.417.06a1.162,1.162,0,0,0,.553-.121c-.035.116-.07.226-.1.342a14.281,14.281,0,0,0-.548,3.263v1.207a14.533,14.533,0,0,0,.548,3.459c.075.266.161.528.251.789a14.374,14.374,0,0,0,1.619,3.228c.156.226.317.447.478.664A14.479,14.479,0,0,0,13.2,32.6l-.211.136c-.287.191-.674.473-1.1.8a6.645,6.645,0,0,0-1.408,1.262,7.224,7.224,0,0,0,1.569-1.056A15.372,15.372,0,0,0,13.3,32.683c.312.236.628.463.955.679-.327.3-1.272,1.337-2.4,2.549-1.041,1.121-1.946,2.061-2.3,2.478-.116.136-.176.216-.161.231a4.168,4.168,0,0,0,.824-.689c.5-.457,1.131-1.1,1.825-1.84s1.212-1.347,1.624-1.85c.03-.03.06-.07.085-.1.276-.337.473-.6.563-.739h.05a14.214,14.214,0,0,0,2.619,1.322,2.548,2.548,0,0,1,.156.287,2.478,2.478,0,0,1,.206,1.005,4.021,4.021,0,0,1-.332,1.508c-.226.548-.528,1.151-.835,1.775-.623,1.252-1.242,2.358-1.694,3.152-.287.5-.5.87-.623,1.091h.09c.151-.206.392-.548.689-1.005a33.211,33.211,0,0,0,1.77-3.127c.312-.633.6-1.232.824-1.81a4.237,4.237,0,0,0,.3-1.3,2.219,2.219,0,0,0,0-.317,2.282,2.282,0,0,0-.266-.97.878.878,0,0,1-.05-.1c-.045-.065-.085-.116-.121-.161a14.112,14.112,0,0,0,4.459.87h.8a1.352,1.352,0,0,1,.508.734,2.961,2.961,0,0,1,.065,1.508l-.271,1.941c-.181,1.378-.332,2.624-.427,3.519a7.739,7.739,0,0,0-.1,1.473,8.277,8.277,0,0,0,.282-1.448c.05-.3.106-.649.161-1.005.106-.734.226-1.584.347-2.514.085-.684.171-1.337.246-1.946a3.1,3.1,0,0,0-.1-1.538.1.1,0,0,0-.035-.09,1.413,1.413,0,0,0-.5-.558h.292a14.258,14.258,0,0,0,6.581-2.061c.271-.166.538-.347.8-.528a14.38,14.38,0,0,0,2.559-2.318c.2-.226.392-.463.578-.7.176.161.583.473,1.151.9.794.593,1.91,1.408,3.147,2.287.96.684,1.855,1.307,2.589,1.815l.6.412.266.176.141-.1-.271-.226C40.159,34.754,39.048,33.945,37.811,33.06Zm-15.816.895a12.533,12.533,0,1,1,8.862-3.671A12.533,12.533,0,0,1,21.995,33.955Z" transform="translate(2.646 2.262)" fill="#263238"/>
        <path id="Path_110439" data-name="Path 110439" d="M2.489,3.595a18.916,18.916,0,0,0-1.242-1.8A17.857,17.857,0,0,0,0,0,6.434,6.434,0,0,0,1.031,1.946,6.214,6.214,0,0,0,2.489,3.595Z" transform="translate(36.229 35.438)" fill="#263238"/>
        <path id="Path_110440" data-name="Path 110440" d="M3.466,3.484l-.03-.06L2.4,1.659A5.359,5.359,0,0,0,1.394.272a.816.816,0,0,0-.081-.06A1.051,1.051,0,0,0,.278.081C.022.221-.008.4,0,.4A.675.675,0,0,1,.323.176a.955.955,0,0,1,.97.216,5.847,5.847,0,0,1,.89,1.367c.317.553.659,1.151,1.006,1.775.724,1.257,1.4,2.388,1.9,3.2l.2.322a.7.7,0,0,1,.07-.211l-.111-.206C4.8,5.842,4.179,4.716,3.466,3.484Z" transform="translate(32.275 36.026)" fill="#263238"/>
        <path id="Path_110441" data-name="Path 110441" d="M1.151,4.057l.835,2.861a6.38,6.38,0,0,0,.392,1.171,5.419,5.419,0,0,0-.216-1.222c-.121-.538-.292-1.222-.5-1.981q-.121-.437-.256-.9C1.071,2.866.739,1.86.478,1.141A5.225,5.225,0,0,0,0,0,1.125,1.125,0,0,0,.045.266C.091.432.186.769.3,1.2.548,2.021.835,2.991,1.151,4.057Z" transform="translate(29.246 37.736)" fill="#263238"/>
        <path id="Path_110442" data-name="Path 110442" d="M.06,0A5.37,5.37,0,0,0,.035,1.413,5.064,5.064,0,0,0,.145,2.82,5.239,5.239,0,0,0,.06,0Z" transform="translate(27.144 40.601)" fill="#263238"/>
        <path id="Path_110443" data-name="Path 110443" d="M6.531.215C6.41-.011,6.239-.006,6.244,0a.434.434,0,0,1,.191.251.5.5,0,0,1,0,.352.82.82,0,0,1-.292.372C5.51,1.4,4.565,1.984,3.564,2.623c-.432.281-.845.548-1.227.8-.5.332-.96.643-1.332.895A6.283,6.283,0,0,0,0,5.091a6.037,6.037,0,0,0,1.116-.613c.674-.407,1.594-1.006,2.6-1.634S5.631,1.612,6.274,1.12A.935.935,0,0,0,6.556.733a.353.353,0,0,0,.03-.085A.628.628,0,0,0,6.531.215Z" transform="translate(6.316 32.016)" fill="#263238"/>
        <path id="Path_110444" data-name="Path 110444" d="M8.391.317C8.547.136,8.587,0,8.577,0A2.719,2.719,0,0,1,7.491.714C7.114.855,6.631.96,6.1,1.1l-1.724.463c-.729.2-1.418.387-2.011.563l-1.1.322A6.712,6.712,0,0,0,0,2.886a6.954,6.954,0,0,0,1.317-.266c.8-.191,1.915-.5,3.137-.809l1.719-.478a13.2,13.2,0,0,0,1.4-.447A3.023,3.023,0,0,0,7.994.659,1.835,1.835,0,0,0,8.391.317Z" transform="translate(2.46 28.143)" fill="#263238"/>
        <path id="Path_110445" data-name="Path 110445" d="M8.642.211A7.046,7.046,0,0,0,7.37.16c-.779,0-1.86,0-3.052-.035S2.051.06,1.267.03A6.784,6.784,0,0,0,0,.03,1.174,1.174,0,0,0,.4.12c.211.03.5.065.855.1C2.036.3,3.117.367,4.313.392H5.49c.719,0,1.372,0,1.885-.05A5.462,5.462,0,0,0,8.642.211Z" transform="translate(1.369 23.785)" fill="#263238"/>
        <path id="Path_110446" data-name="Path 110446" d="M1.649.427a5.764,5.764,0,0,0,1.7.166A11,11,0,0,0,0,0,5.643,5.643,0,0,0,1.649.427Z" transform="translate(6.708 22.935)" fill="#263238"/>
        <path id="Path_110447" data-name="Path 110447" d="M1.543,3.288A9.4,9.4,0,0,0,.814,1.624,9.619,9.619,0,0,0,0,0,7.822,7.822,0,0,0,1.543,3.288Z" transform="translate(15.596 8.215)" fill="#263238"/>
        <path id="Path_110448" data-name="Path 110448" d="M0,7.642A40.934,40.934,0,0,0,1.719,3.429c.5-1.357.94-2.569,1.2-3.358L2.775,0c-.322.769-.794,1.976-1.3,3.338A39.409,39.409,0,0,0,0,7.642Z" transform="translate(29.231 2.272)" fill="#263238"/>
        <path id="Path_110449" data-name="Path 110449" d="M1.564,1.915A8.2,8.2,0,0,0,2.835,0,12.867,12.867,0,0,0,1.357,1.755,12.853,12.853,0,0,0,0,3.6,8.414,8.414,0,0,0,1.564,1.915Z" transform="translate(30.402 5.721)" fill="#263238"/>
        <path id="Path_110450" data-name="Path 110450" d="M1.966,1.377A6.776,6.776,0,0,0,3.69,0,15.408,15.408,0,0,0,1.825,1.156,15.24,15.24,0,0,0,0,2.373,6.984,6.984,0,0,0,1.966,1.377Z" transform="translate(35.309 8.939)" fill="#263238"/>
        <path id="Path_110451" data-name="Path 110451" d="M1.347.463A4.108,4.108,0,0,0,0,1.242,5.53,5.53,0,0,0,1.453.7,5.39,5.39,0,0,0,2.83,0,4.067,4.067,0,0,0,1.347.463Z" transform="translate(39.315 14.248)" fill="#263238"/>
        <path id="Path_110452" data-name="Path 110452" d="M12.533,25.066A12.533,12.533,0,1,0,0,12.533,12.533,12.533,0,0,0,12.533,25.066Z" transform="translate(12.107 11.151)" fill="#fafafa"/>
        <path id="Path_110453" data-name="Path 110453" d="M.006,0a1.3,1.3,0,0,1,.06.3c.03.231.07.5.121.875.1.8.236,1.89.407,3.228.342,2.72.835,6.475,1.433,10.618S3.234,22.9,3.7,25.61c.226,1.327.407,2.413.543,3.2.06.357.106.643.141.875a1.888,1.888,0,0,1,.035.306,1.192,1.192,0,0,1-.085-.3c-.05-.226-.111-.5-.191-.865-.161-.749-.372-1.84-.628-3.192-.5-2.695-1.136-6.435-1.74-10.558S.7,7.174.408,4.444C.262,3.082.152,1.976.086,1.212.056.85.031.558.016.327A1.29,1.29,0,0,1,.006,0Z" transform="translate(30.537 49.786)" fill="#263238"/>
        <path id="Path_110454" data-name="Path 110454" d="M.008,0c.07,0,.669,10.226,1.337,22.849S2.5,45.7,2.426,45.709,1.752,35.483,1.084,22.86-.068,0,.008,0Z" transform="translate(23.27 47.167)" fill="#263238"/>
        <path id="Path_110455" data-name="Path 110455" d="M6.259,0a1.072,1.072,0,0,1-.035.307c-.04.226-.1.5-.161.86-.156.779-.367,1.85-.628,3.152C4.872,7.008,4.107,10.663,3.258,14.7S1.589,22.382,1.005,25.062C.714,26.359.473,27.424.3,28.2c-.085.342-.151.623-.206.845a1.314,1.314,0,0,1-.091.3,1.259,1.259,0,0,1,.04-.306c.04-.221.09-.5.156-.86.156-.774.372-1.845.628-3.152C1.393,22.337,2.157,18.682,3,14.64S4.67,6.958,5.254,4.278c.3-1.3.538-2.363.714-3.137C6.048.8,6.118.518,6.174.3A2.236,2.236,0,0,1,6.259,0Z" transform="translate(13.017 49.379)" fill="#263238"/>
        <path id="Path_110456" data-name="Path 110456" d="M7.718.326,9.483,3.9a.609.609,0,0,0,.452.332l3.941.568A.6.6,0,0,1,14.208,5.8L11.358,8.576a.6.6,0,0,0-.171.533l.669,3.926a.6.6,0,0,1-.87.634L7.467,11.814a.618.618,0,0,0-.563,0L3.384,13.669a.6.6,0,0,1-.87-.634l.674-3.926a.6.6,0,0,0-.176-.533L.162,5.8A.6.6,0,0,1,.5,4.8l3.936-.568A.609.609,0,0,0,4.888,3.9L6.652.326a.6.6,0,0,1,1.066,0Z" transform="translate(17.893 16.319)" fill="#1890ff"/>
        <g id="Group_39128" data-name="Group 39128" transform="translate(0.262)">
          <path id="Path_110457" data-name="Path 110457" d="M4.178,7.621A8.271,8.271,0,0,1,3.9,9.069,7.746,7.746,0,0,1,4,7.6c.1-.9.246-2.152.427-3.519L4.7,2.137A2.961,2.961,0,0,0,4.63.628,1.352,1.352,0,0,0,4.082,0h-.8a.263.263,0,0,0-.055.05,2.936,2.936,0,0,0-.6,1.151C1.75,3.791.875,7.652,0,10.437c1.036-.216,1.7-1.478,2.775-1.548a1.98,1.98,0,0,1,1.312.5c.086-.855.161-1.8.241-2.76C4.283,6.973,4.228,7.32,4.178,7.621Z" transform="translate(20.598 37.997)" fill="#1890ff"/>
          <g id="Group_39127" data-name="Group 39127" transform="translate(0 0)">
            <path id="Path_110458" data-name="Path 110458" d="M.1,7.36a1.307,1.307,0,0,0-.1.5c.261.085.5.176.774.277a1.8,1.8,0,0,0,.377-.352l5.1-6.41A1.508,1.508,0,0,0,6.7.317a.233.233,0,0,0,0-.055c-.92-.075-1.976.382-2.9.1A6.835,6.835,0,0,1,3.157.131C2.9.92,2.463,2.142,1.956,3.489A40.955,40.955,0,0,1,.236,7.7,39.389,39.389,0,0,1,1.709,3.4c.5-1.362.98-2.569,1.3-3.338A.776.776,0,0,1,2.9,0L2.836.06Q1.458,3.725.1,7.36Zm2.654-2.1A12.86,12.86,0,0,1,4.228,3.5,8.2,8.2,0,0,1,2.956,5.42,8.414,8.414,0,0,1,1.393,7.109,12.855,12.855,0,0,1,2.75,5.259Z" transform="translate(28.746 2.217)" fill="#1890ff"/>
            <path id="Path_110459" data-name="Path 110459" d="M2.353,3.68c.85-.92,1.629-1.745,2.2-2.333a6.365,6.365,0,0,1,.97-.915,6.9,6.9,0,0,1-.835,1.041c-.538.618-1.3,1.463-2.142,2.383S.92,5.606.347,6.189A1,1,0,0,0,0,6.772l.287.221C3.228,5.254,6.606,3.052,9.225,1.111a2.156,2.156,0,0,0-.819-.5C7.561.317,6.521.327,5.686,0,4.248,1.508,2.519,3.348,1.021,5.158,1.408,4.716,1.865,4.213,2.353,3.68Z" transform="translate(32.853 5.404)" fill="#1890ff"/>
            <path id="Path_110460" data-name="Path 110460" d="M5.663.493a5.691,5.691,0,0,1-1.006.623c-.618.362-1.478.855-2.413,1.423S.389,3.58.122,4.223A1.323,1.323,0,0,0,0,4.846l.2.342c2.4-.5,6.148-2.242,8.888-3.348C8.252,1.171,7,.91,6.407,0l-.88.493C5.607.493,5.658.463,5.663.493ZM3.9,3.509a5.527,5.527,0,0,1-1.453.538A7.039,7.039,0,0,1,5.276,2.805,5.389,5.389,0,0,1,3.9,3.469Z" transform="translate(36.607 11.483)" fill="#1890ff"/>
            <path id="Path_110461" data-name="Path 110461" d="M6.41.719C5.786.97,4.9,1.3,3.952,1.659s-1.845.659-2.484.865A4.32,4.32,0,0,1,.417,2.81L0,3A14.5,14.5,0,0,1,.332,4.5H.709c2.559-.065,6.712-.317,9.783-.5A4.394,4.394,0,0,0,9.9,3,6.754,6.754,0,0,1,8.431.83,3.268,3.268,0,0,1,8.32,0l-1.3.427Z" transform="translate(38.143 16.892)" fill="#1890ff"/>
            <path id="Path_110462" data-name="Path 110462" d="M5.234.518,1.87.261A8.128,8.128,0,0,1,.478.1,5.48,5.48,0,0,1,1.584.07C1.161.04.744.015.322,0H.086A11.086,11.086,0,0,1,0,1.232C2.639,2.237,6.536,3.6,9.577,4.716a1.508,1.508,0,0,0,.171-.659c.035-1.2-1.413-2.122-1.337-3.283-.377-.03-.749-.06-1.121-.1Z" transform="translate(38.576 24.116)" fill="#1890ff"/>
            <path id="Path_110463" data-name="Path 110463" d="M2.348.9.96.191.568,0A13.847,13.847,0,0,1,0,1.4C2.323,3.177,5.374,6.3,7.958,8.567a2.2,2.2,0,0,0,.8-.749c.623-1.1-.226-2.428-.347-3.685-.779-.387-1.961-1.005-3.278-1.7C4.052,1.85,3.077,1.312,2.348.9Z" transform="translate(37.318 28.375)" fill="#1890ff"/>
            <path id="Path_110464" data-name="Path 110464" d="M4.877,3.187C3.64,2.307,2.524,1.493,1.729.9,1.161.473.754.161.578,0,.392.241.2.478,0,.7a4.8,4.8,0,0,0,.623.769C2.353,3.288,5.068,6.395,7.1,8.612c.473-.784.357-1.926.925-2.695a1.871,1.871,0,0,1,.256-.271L7.466,5C6.732,4.494,5.837,3.871,4.877,3.187Z" transform="translate(35.167 32.351)" fill="#1890ff"/>
            <path id="Path_110465" data-name="Path 110465" d="M3.4,4.208c-.362-.623-.7-1.222-1.005-1.775A5.847,5.847,0,0,0,1.5,1.066.955.955,0,0,0,.533.85c-.236.085-.3.241-.322.221s0-.176.276-.317A1.051,1.051,0,0,1,1.538.865,8.466,8.466,0,0,0,.8,0C.538.181.271.362,0,.528A64.566,64.566,0,0,0,3.519,11.2a1.508,1.508,0,0,0,1.166-.266c.895-.684.528-2.122.834-3.2l-.2-.322C4.8,6.6,4.122,5.465,3.4,4.208Z" transform="translate(31.823 35.373)" fill="#1890ff"/>
            <path id="Path_110466" data-name="Path 110466" d="M2.313,6.953a5.414,5.414,0,0,1,.216,1.222A6.388,6.388,0,0,1,2.137,7L1.3,4.143C.986,3.077.7,2.107.453,1.287.337.88.247.558.2.352L.046,0c-.131,2.866.04,6.882.236,10.105A12.934,12.934,0,0,1,2.7,8.486c-.231-1.121-.538-2.323-.89-3.519C2.022,5.731,2.193,6.415,2.313,6.953Z" transform="translate(28.832 37.65)" fill="#1890ff"/>
            <path id="Path_110467" data-name="Path 110467" d="M6.244,4.288c.307-.623.608-1.227.835-1.775A4.021,4.021,0,0,0,7.41,1.005,2.477,2.477,0,0,0,7.2,0a.834.834,0,0,0-.5.322C4.751,2.489,2,5.982,0,8.682c1.106.417,2.624-.292,3.926-.151.121-.221.337-.593.623-1.091C5,6.641,5.621,5.535,6.244,4.288Z" transform="translate(12.267 37.348)" fill="#1890ff"/>
            <path id="Path_110468" data-name="Path 110468" d="M4.228,5.706c.352-.417,1.257-1.357,2.3-2.478C7.657,2.016,8.6.98,8.929.679,8.6.463,8.285.236,7.973,0A15.353,15.353,0,0,1,6.722,1.056,7.224,7.224,0,0,1,5.153,2.112,6.646,6.646,0,0,1,6.561.85c.422-.327.809-.608,1.1-.8a7.355,7.355,0,0,0-1.7,1.005L0,5.52c1.036.181,2.207.226,2.856,1.005a1.863,1.863,0,0,1,.246.387C3.429,6.52,3.816,6.143,4.228,5.706Z" transform="translate(7.658 34.991)" fill="#1890ff"/>
            <path id="Path_110469" data-name="Path 110469" d="M7.707,2.978c1.005-.654,1.946-1.222,2.579-1.644a.82.82,0,0,0,.292-.372.5.5,0,0,0,0-.352c-.065-.2-.2-.231-.191-.251s.166,0,.287.211A.628.628,0,0,1,10.718,1a.35.35,0,0,1-.03.086A1.208,1.208,0,0,0,11.08.665C10.919.449,10.759.228,10.6,0a1.784,1.784,0,0,0-.6.08C7.31.791,3.2,2.324,0,3.51c1.005.734,2.84.417,3.489,1.548a1.749,1.749,0,0,1,.156.437C4.525,4.958,5.5,4.37,6.48,3.782,6.862,3.526,7.254,3.259,7.707,2.978Z" transform="translate(1.911 31.661)" fill="#1890ff"/>
            <path id="Path_110470" data-name="Path 110470" d="M6.571,2.468,8.3,2.006c.533-.136,1.005-.241,1.393-.382A2.72,2.72,0,0,0,10.774.91a.824.824,0,0,1-.186.317,1.837,1.837,0,0,1-.407.342l.216-.075a1.176,1.176,0,0,0,.5-.292c-.09-.261-.176-.5-.251-.789A1.781,1.781,0,0,0,9.974.292Q4.987.116,0,0C.463.784,1.508,1.131,1.92,1.941A2.317,2.317,0,0,1,2.036,3.59L4.55,3.032C5.143,2.84,5.842,2.665,6.571,2.468Z" transform="translate(0 27.233)" fill="#1890ff"/>
            <path id="Path_110471" data-name="Path 110471" d="M1.068,4.6a6.784,6.784,0,0,1,1.267,0c.784.03,1.86.07,3.052.1s2.272.03,3.052.035a7.04,7.04,0,0,1,1.272.05,5.462,5.462,0,0,1-1.267.136c-.5.03-1.166.045-1.885.05a33.6,33.6,0,0,0,3.419,0h.08V3.76l-.07-.045A43.079,43.079,0,0,0,.012,0,1.192,1.192,0,0,0,.781,1.287L.711.834a1.882,1.882,0,0,1,.774,2.288A6.033,6.033,0,0,1,.7,4.63l.764.045A1.176,1.176,0,0,1,1.068,4.6Zm7.038-.709a5.705,5.705,0,0,1,1.654.427,5.766,5.766,0,0,1-1.7-.166,5.645,5.645,0,0,1-1.649-.427A5.718,5.718,0,0,1,8.106,3.891Z" transform="translate(0.053 19.21)" fill="#1890ff"/>
            <path id="Path_110472" data-name="Path 110472" d="M.478,3.891a8.042,8.042,0,0,1,1.337.578l1.041.5c.925.4,1.89.8,2.83,1.171a15.519,15.519,0,0,0,2.675.709,1.006,1.006,0,0,0,.543-.09.411.411,0,0,0,.07-.06c.1-.3.206-.588.327-.88C8.838,5.6,8.134,5.213,7.35,4.761A14.393,14.393,0,0,1,4.977,3.253,15.952,15.952,0,0,1,7.491,4.54l.814.5A85.944,85.944,0,0,0,.367,0C.206.945.568,2.152.276,3.132A2.775,2.775,0,0,1,0,3.725l.6.256C.523,3.936.473,3.9.478,3.891Z" transform="translate(1.845 12.478)" fill="#1890ff"/>
            <path id="Path_110473" data-name="Path 110473" d="M.99,3.725a6.075,6.075,0,0,1,.91.825c.548.5,1.312,1.237,2.187,1.981S5.792,7.913,6.4,8.366l.206.156c.176-.241.352-.478.543-.7l-.03-.05c-.266-.317-.6-.744-.95-1.232a8.7,8.7,0,0,1-1.2-1.981,4.771,4.771,0,0,1,.764.935A54.016,54.016,0,0,0,1.714,0,1.855,1.855,0,0,0,.623.588C.065,1.267.271,2.333,0,3.137c.5.463,1.1.975,1.714,1.508A4.873,4.873,0,0,1,.99,3.725Z" transform="translate(6.188 6.792)" fill="#1890ff"/>
            <path id="Path_110474" data-name="Path 110474" d="M2.956,6.566C4.213,8.154,5.264,9.421,5.239,9.5q.347-.236.709-.452a.229.229,0,0,0-.04-.1C4.962,6.541,3.248,2.76,2.1,0a5.3,5.3,0,0,0-.533.277C.729.779.452,1.87,0,2.76c.292.382.623.83.975,1.312S2.106,5.495,2.956,6.566Zm1.3-.729a9.619,9.619,0,0,1,.814,1.624A9.4,9.4,0,0,1,5.8,9.125,7.822,7.822,0,0,1,4.253,5.837Z" transform="translate(11.081 2.393)" fill="#1890ff"/>
            <path id="Path_110475" data-name="Path 110475" d="M.025,2.8A5.924,5.924,0,0,1,.266,3.921c.121.689.287,1.649.5,2.7.181.92.357,1.744.5,2.4.07.216.141.412.211.593.266-.091.538-.171.819-.246a12.6,12.6,0,0,1-.256-1.664,7.814,7.814,0,0,1-.171-1.7,4.565,4.565,0,0,1,.432,1.669c.045.332.065.644.075.91,0-2.6.055-5.942.05-8.587a16.923,16.923,0,0,0-1.4,2.086,1.388,1.388,0,0,1-.454.4A1.388,1.388,0,0,1,0,2.659l.03.2C.015,2.825.02,2.8.025,2.8Z" transform="translate(18.395 0.508)" fill="#1890ff"/>
            <path id="Path_110476" data-name="Path 110476" d="M.126,6.018C.1,7.481.055,8.748,0,9.4a6.007,6.007,0,0,1,1.005.055,7.963,7.963,0,0,0,1.106-2.78C2.554,4.907,3.162,2.071,3.655,0a2.171,2.171,0,0,0-.89.256c-.774.427-1.714,2.3-2.2,2.308a.639.639,0,0,1-.452-.241v.211C.126,3.147.126,4.474.126,6.018Z" transform="translate(24.625 0)" fill="#1890ff"/>
          </g>
        </g>
      </g>
      <path id="Path_110477" data-name="Path 110477" d="M20.13,167.273l6.536,2.14-6.638,2.816a5.58,5.58,0,0,0-3.172,3.58l-2.726,9.326-2.37-9.007a5.555,5.555,0,0,0-3.822-3.937L.51,169.962l7.02-2.4a5.593,5.593,0,0,0,3.606-3.924l2.51-9.938,2.892,9.81a5.605,5.605,0,0,0,3.593,3.758Z" transform="translate(8427.513 3019.361)" fill="#e86452"/>
      <path id="Path_110478" data-name="Path 110478" d="M16.735,164.925l5.4,1.77-5.489,2.328a4.614,4.614,0,0,0-2.623,2.96L11.772,179.7l-1.96-7.449a4.594,4.594,0,0,0-3.161-3.255L.51,167.149l5.805-1.981A4.625,4.625,0,0,0,9.3,161.923l2.076-8.218,2.392,8.112a4.635,4.635,0,0,0,2.971,3.108Z" transform="translate(8518.666 3019.361)" fill="#15c3b1"/>
      <path id="Path_110479" data-name="Path 110479" d="M15.149,163.829l4.877,1.6-4.953,2.1a4.163,4.163,0,0,0-2.367,2.671l-2.034,6.958L8.9,170.436A4.145,4.145,0,0,0,6.052,167.5L.51,165.835l5.238-1.787a4.173,4.173,0,0,0,2.69-2.928l1.873-7.415,2.158,7.32a4.182,4.182,0,0,0,2.681,2.8Z" transform="translate(8418.936 3043.636)" fill="#e86452"/>
    </g>
  </g>
</svg>
