<svg xmlns="http://www.w3.org/2000/svg" xmlns:xlink="http://www.w3.org/1999/xlink" width="24" height="24" viewBox="0 0 24 24">
  <defs>
    <clipPath id="clip-path">
      <rect id="Rectangle_10740" data-name="Rectangle 10740" width="24" height="24" transform="translate(183 92)" fill="#15c3b1" stroke="#707070" stroke-width="1"/>
    </clipPath>
  </defs>
  <g id="Mask_Group_831" data-name="Mask Group 831" transform="translate(-183 -92)" clip-path="url(#clip-path)">
    <g id="ribbon" transform="translate(183 92)">
      <g id="Group_39157" data-name="Group 39157">
        <g id="Group_39156" data-name="Group 39156">
          <path id="Path_110481" data-name="Path 110481" d="M12,0a8.25,8.25,0,1,0,8.25,8.25A8.259,8.259,0,0,0,12,0Zm4.336,7.083L14.911,8.868l.156,2.333a.746.746,0,0,1-.315.661.756.756,0,0,1-.435.138.735.735,0,0,1-.292-.06L12,11.08l-2.024.86a.75.75,0,0,1-1.042-.74L9.09,8.868,7.665,7.083a.75.75,0,0,1,.4-1.194l2.127-.556,1.167-1.965a.778.778,0,0,1,1.289,0L13.81,5.333l2.128.556a.751.751,0,0,1,.4,1.194Z" fill="#15c3b1"/>
        </g>
      </g>
      <g id="Group_39159" data-name="Group 39159">
        <g id="Group_39158" data-name="Group 39158">
          <path id="Path_110482" data-name="Path 110482" d="M3.562,13.115.1,19.125a.75.75,0,0,0,.845,1.1l4.4-1.183,1.172,4.4a.752.752,0,0,0,.625.55c.033,0,.068,0,.1,0a.75.75,0,0,0,.649-.375l3.274-5.667A9.753,9.753,0,0,1,3.562,13.115Z" fill="#15c3b1"/>
        </g>
      </g>
      <g id="Group_39161" data-name="Group 39161">
        <g id="Group_39160" data-name="Group 39160">
          <path id="Path_110483" data-name="Path 110483" d="M23.9,19.125l-3.463-6.01a9.751,9.751,0,0,1-7.607,4.844l3.274,5.667a.75.75,0,0,0,.649.375.709.709,0,0,0,.1-.006.754.754,0,0,0,.627-.55l1.171-4.4,4.4,1.183a.751.751,0,0,0,.846-1.1Z" fill="#15c3b1"/>
        </g>
      </g>
    </g>
  </g>
</svg>
