<svg xmlns="http://www.w3.org/2000/svg" width="23.999" height="24.001" viewBox="0 0 23.999 24.001">
  <g id="Group_39155" data-name="Group 39155" transform="translate(23.999 24.001) rotate(180)">
    <path id="Subtraction_70" data-name="Subtraction 70" d="M-7997-3233a11.922,11.922,0,0,1-8.485-3.515A11.924,11.924,0,0,1-8009-3245a11.921,11.921,0,0,1,3.515-8.485A11.922,11.922,0,0,1-7997-3257a11.922,11.922,0,0,1,8.485,3.515A11.921,11.921,0,0,1-7985-3245a11.924,11.924,0,0,1-3.515,8.487A11.922,11.922,0,0,1-7997-3233Zm-.508-13.326v5.624a.471.471,0,0,0,.47.47h.625a.471.471,0,0,0,.47-.47v-5.624l2.248,2.358a.463.463,0,0,0,.339.146.464.464,0,0,0,.332-.138l.435-.434a.47.47,0,0,0,0-.663l-3.805-3.8a.462.462,0,0,0-.332-.139.462.462,0,0,0-.332.139l-3.8,3.8a.46.46,0,0,0-.139.327.47.47,0,0,0,.139.336l.435.434a.458.458,0,0,0,.331.139.467.467,0,0,0,.34-.147l2.246-2.356Z" transform="translate(8009 3257)" fill="#e86452"/>
  </g>
</svg>
