<svg xmlns="http://www.w3.org/2000/svg" width="797.973" height="748.389" viewBox="0 0 797.973 748.389">
  <g id="Group_38509" data-name="Group 38509" transform="translate(23395.234 14930.957)">
    <path id="Polygon_473" data-name="Polygon 473" d="M109.574,0a4,4,0,0,1,3.465,2l34.987,60.644a4,4,0,0,1,0,4l-34.987,60.644a4,4,0,0,1-3.465,2H39.6a4,4,0,0,1-3.465-2L1.153,66.643a4,4,0,0,1,0-4L36.14,2A4,4,0,0,1,39.6,0Z" transform="matrix(0.485, 0.875, -0.875, 0.485, -22672.496, -14717.305)" fill="#d0f3ef"/>
    <path id="Polygon_478" data-name="Polygon 478" d="M109.574,0a4,4,0,0,1,3.465,2l34.987,60.644a4,4,0,0,1,0,4l-34.987,60.644a4,4,0,0,1-3.465,2H39.6a4,4,0,0,1-3.465-2L1.153,66.643a4,4,0,0,1,0-4L36.14,2A4,4,0,0,1,39.6,0Z" transform="matrix(0.485, 0.875, -0.875, 0.485, -22669.584, -14858.213)" fill="#d0f3ef"/>
    <path id="Polygon_466" data-name="Polygon 466" d="M109.574,0a4,4,0,0,1,3.465,2l34.987,60.644a4,4,0,0,1,0,4l-34.987,60.644a4,4,0,0,1-3.465,2H39.6a4,4,0,0,1-3.465-2L1.153,66.643a4,4,0,0,1,0-4L36.14,2A4,4,0,0,1,39.6,0Z" transform="matrix(0.485, 0.875, -0.875, 0.485, -22790.926, -14930.957)" fill="#d0f3ef"/>
    <g id="Polygon_467" data-name="Polygon 467" transform="matrix(0.485, 0.875, -0.875, 0.485, -22916.049, -14582.301)" fill="none">
      <path d="M109.574,0a4,4,0,0,1,3.465,2l34.987,60.644a4,4,0,0,1,0,4l-34.987,60.644a4,4,0,0,1-3.465,2H39.6a4,4,0,0,1-3.465-2L1.153,66.643a4,4,0,0,1,0-4L36.14,2A4,4,0,0,1,39.6,0Z" stroke="none"/>
      <path d="M 39.60491943359375 4 L 4.617935180664062 64.64406585693359 L 39.60489654541016 125.2881317138672 L 109.5736999511719 125.2881317138672 L 144.5606842041016 64.64406585693359 L 109.5736999511719 4 L 39.60491943359375 4 M 39.60491943359375 0 L 109.5736999511719 0 C 111.0032196044922 0 112.3240661621094 0.7628631591796875 113.0384368896484 2.001106262207031 L 148.0254211425781 62.64517211914062 C 148.7390899658203 63.88221740722656 148.7390899658203 65.40591430664062 148.0254211425781 66.64295959472656 L 113.0384368896484 127.2870254516602 C 112.3240661621094 128.5252380371094 111.0032196044922 129.2881317138672 109.5736999511719 129.2881317138672 L 39.60489654541016 129.2881317138672 C 38.17537689208984 129.2881317138672 36.85453033447266 128.5252380371094 36.14015960693359 127.2870254516602 L 1.1531982421875 66.64295959472656 C 0.4395294189453125 65.40591430664062 0.4395294189453125 63.88219451904297 1.1531982421875 62.64517211914062 L 36.14018249511719 2.001106262207031 C 36.85453033447266 0.7628631591796875 38.17539978027344 0 39.60491943359375 0 Z" stroke="none" fill="#d0f3ef"/>
    </g>
    <path id="Polygon_468" data-name="Polygon 468" d="M109.574,0a4,4,0,0,1,3.465,2l34.987,60.644a4,4,0,0,1,0,4l-34.987,60.644a4,4,0,0,1-3.465,2H39.6a4,4,0,0,1-3.465-2L1.153,66.643a4,4,0,0,1,0-4L36.14,2A4,4,0,0,1,39.6,0Z" transform="matrix(0.485, 0.875, -0.875, 0.485, -23282.156, -14378.793)" fill="#d0f3ef"/>
    <path id="Polygon_469" data-name="Polygon 469" d="M109.574,0a4,4,0,0,1,3.465,2l34.987,60.644a4,4,0,0,1,0,4l-34.987,60.644a4,4,0,0,1-3.465,2H39.6a4,4,0,0,1-3.465-2L1.153,66.643a4,4,0,0,1,0-4L36.14,2A4,4,0,0,1,39.6,0Z" transform="matrix(0.485, 0.875, -0.875, 0.485, -23040.174, -14375.723)" fill="#d0f3ef"/>
    <path id="Polygon_470" data-name="Polygon 470" d="M109.574,0a4,4,0,0,1,3.465,2l34.987,60.644a4,4,0,0,1,0,4l-34.987,60.644a4,4,0,0,1-3.465,2H39.6a4,4,0,0,1-3.465-2L1.153,66.643a4,4,0,0,1,0-4L36.14,2A4,4,0,0,1,39.6,0Z" transform="matrix(0.485, 0.875, -0.875, 0.485, -22794.271, -14649.803)" fill="#d0f3ef"/>
    <path id="Polygon_471" data-name="Polygon 471" d="M109.574,0a4,4,0,0,1,3.465,2l34.987,60.644a4,4,0,0,1,0,4l-34.987,60.644a4,4,0,0,1-3.465,2H39.6a4,4,0,0,1-3.465-2L1.153,66.643a4,4,0,0,1,0-4L36.14,2A4,4,0,0,1,39.6,0Z" transform="matrix(0.485, 0.875, -0.875, 0.485, -23160.379, -14446.293)" fill="#d0f3ef"/>
    <path id="Polygon_472" data-name="Polygon 472" d="M109.574,0a4,4,0,0,1,3.465,2l34.987,60.644a4,4,0,0,1,0,4l-34.987,60.644a4,4,0,0,1-3.465,2H39.6a4,4,0,0,1-3.465-2L1.153,66.643a4,4,0,0,1,0-4L36.14,2A4,4,0,0,1,39.6,0Z" transform="matrix(0.485, 0.875, -0.875, 0.485, -22918.91, -14442.367)" fill="#d0f3ef"/>
    <path id="Polygon_474" data-name="Polygon 474" d="M109.574,0a4,4,0,0,1,3.465,2l34.987,60.644a4,4,0,0,1,0,4l-34.987,60.644a4,4,0,0,1-3.465,2H39.6a4,4,0,0,1-3.465-2L1.153,66.643a4,4,0,0,1,0-4L36.14,2A4,4,0,0,1,39.6,0Z" transform="matrix(0.485, 0.875, -0.875, 0.485, -23038.604, -14513.797)" fill="#d0f3ef"/>
    <path id="Polygon_475" data-name="Polygon 475" d="M109.574,0a4,4,0,0,1,3.465,2l34.987,60.644a4,4,0,0,1,0,4l-34.987,60.644a4,4,0,0,1-3.465,2H39.6a4,4,0,0,1-3.465-2L1.153,66.643a4,4,0,0,1,0-4L36.14,2A4,4,0,0,1,39.6,0Z" transform="matrix(0.485, 0.875, -0.875, 0.485, -22913.137, -14723.209)" fill="#d0f3ef"/>
    <g id="Polygon_476" data-name="Polygon 476" transform="matrix(0.485, 0.875, -0.875, 0.485, -22791.361, -14790.711)" fill="none">
      <path d="M109.574,0a4,4,0,0,1,3.465,2l34.987,60.644a4,4,0,0,1,0,4l-34.987,60.644a4,4,0,0,1-3.465,2H39.6a4,4,0,0,1-3.465-2L1.153,66.643a4,4,0,0,1,0-4L36.14,2A4,4,0,0,1,39.6,0Z" stroke="none"/>
      <path d="M 39.60491943359375 4 L 4.617935180664062 64.64406585693359 L 39.60489654541016 125.2881317138672 L 109.5736999511719 125.2881317138672 L 144.5606842041016 64.64406585693359 L 109.5736999511719 4 L 39.60491943359375 4 M 39.60491943359375 0 L 109.5736999511719 0 C 111.0032196044922 0 112.3240661621094 0.7628631591796875 113.0384368896484 2.001106262207031 L 148.0254211425781 62.64517211914062 C 148.7390899658203 63.88221740722656 148.7390899658203 65.40591430664062 148.0254211425781 66.64295959472656 L 113.0384368896484 127.2870254516602 C 112.3240661621094 128.5252380371094 111.0032196044922 129.2881317138672 109.5736999511719 129.2881317138672 L 39.60489654541016 129.2881317138672 C 38.17537689208984 129.2881317138672 36.85453033447266 128.5252380371094 36.14015960693359 127.2870254516602 L 1.1531982421875 66.64295959472656 C 0.4395294189453125 65.40591430664062 0.4395294189453125 63.88219451904297 1.1531982421875 62.64517211914062 L 36.14018249511719 2.001106262207031 C 36.85453033447266 0.7628631591796875 38.17539978027344 0 39.60491943359375 0 Z" stroke="none" fill="#d0f3ee"/>
    </g>
    <g id="Polygon_477" data-name="Polygon 477" transform="matrix(0.485, 0.875, -0.875, 0.485, -23157.469, -14587.203)" fill="none">
      <path d="M109.574,0a4,4,0,0,1,3.465,2l34.987,60.644a4,4,0,0,1,0,4l-34.987,60.644a4,4,0,0,1-3.465,2H39.6a4,4,0,0,1-3.465-2L1.153,66.643a4,4,0,0,1,0-4L36.14,2A4,4,0,0,1,39.6,0Z" stroke="none"/>
      <path d="M 39.60491943359375 4 L 4.617935180664062 64.64406585693359 L 39.60489654541016 125.2881317138672 L 109.5736999511719 125.2881317138672 L 144.5606842041016 64.64406585693359 L 109.5736999511719 4 L 39.60491943359375 4 M 39.60491943359375 0 L 109.5736999511719 0 C 111.0032196044922 0 112.3240661621094 0.7628631591796875 113.0384368896484 2.001106262207031 L 148.0254211425781 62.64517211914062 C 148.7390899658203 63.88221740722656 148.7390899658203 65.40591430664062 148.0254211425781 66.64295959472656 L 113.0384368896484 127.2870254516602 C 112.3240661621094 128.5252380371094 111.0032196044922 129.2881317138672 109.5736999511719 129.2881317138672 L 39.60489654541016 129.2881317138672 C 38.17537689208984 129.2881317138672 36.85453033447266 128.5252380371094 36.14015960693359 127.2870254516602 L 1.1531982421875 66.64295959472656 C 0.4395294189453125 65.40591430664062 0.4395294189453125 63.88219451904297 1.1531982421875 62.64517211914062 L 36.14018249511719 2.001106262207031 C 36.85453033447266 0.7628631591796875 38.17539978027344 0 39.60491943359375 0 Z" stroke="none" fill="#d0f3ef"/>
    </g>
    <path id="Polygon_479" data-name="Polygon 479" d="M109.574,0a4,4,0,0,1,3.465,2l34.987,60.644a4,4,0,0,1,0,4l-34.987,60.644a4,4,0,0,1-3.465,2H39.6a4,4,0,0,1-3.465-2L1.153,66.643a4,4,0,0,1,0-4L36.14,2A4,4,0,0,1,39.6,0Z" transform="matrix(0.485, 0.875, -0.875, 0.485, -23035.691, -14654.703)" fill="#d0f3ef"/>
    <g id="Powerful-pana_1_" data-name="Powerful-pana (1)" transform="translate(-23373 -14779.734)">
      <g id="freepik--Plants--inject-445">
        <path id="Path_102328" data-name="Path 102328" d="M423.223,517.5a4.073,4.073,0,0,1,.236-.57c.181-.4.445-.931.764-1.625a41.437,41.437,0,0,0,2.237-6.487,57.55,57.55,0,0,0-.195-25.088,133.35,133.35,0,0,0-4.654-16.836c-1.973-5.987-4.251-12.336-6.126-19.184a73.9,73.9,0,0,1-3.015-22.06c.278-7.793,2.584-15.586,5.126-23.337s5.154-15.35,5.946-22.976a34.991,34.991,0,0,0-4.168-21.226c-3.362-6.2-7.585-11.5-10.752-16.989a58.857,58.857,0,0,1-6.46-16.322,60.732,60.732,0,0,1-.417-25.282,47.227,47.227,0,0,1,2.64-8.932,3.476,3.476,0,0,1-.153.6c-.139.417-.306.986-.542,1.709-.458,1.514-1.056,3.751-1.639,6.682a61.677,61.677,0,0,0,.667,25.1,58.679,58.679,0,0,0,6.488,16.114c3.153,5.418,7.4,10.7,10.822,16.961a35.645,35.645,0,0,1,4.348,21.657c-.792,7.765-3.431,15.406-5.96,23.157s-4.82,15.447-5.112,23.115a74.152,74.152,0,0,0,2.959,21.837c1.834,6.821,4.168,13.169,6.043,19.156a133.686,133.686,0,0,1,4.57,16.948c2.125,10.571,1.528,19.448,0,25.282a38.072,38.072,0,0,1-2.4,6.473c-.347.681-.625,1.208-.833,1.6a2.9,2.9,0,0,1-.417.528Z" transform="translate(-90.166 -69.434)" fill="#263238"/>
        <path id="Path_102329" data-name="Path 102329" d="M409.941,340.054s-6.432-20.559,5.1-32.589a.709.709,0,0,1,1.222.361C416.873,311.215,417.665,321.551,409.941,340.054Z" transform="translate(-87.233 -62.953)" fill="#f9786c"/>
        <path id="Path_102330" data-name="Path 102330" d="M413.339,312.33a19.555,19.555,0,0,1-.431,3.792c-.431,2.612-.931,5.682-1.473,9.071l-1.389,9.057a19.356,19.356,0,0,1-.681,3.751,16.81,16.81,0,0,1,.125-3.82c.208-2.348.625-5.557,1.209-9.127s1.195-6.737,1.695-9.029A16.8,16.8,0,0,1,413.339,312.33Z" transform="translate(-86.784 -60.97)" fill="#263238"/>
        <path id="Path_102331" data-name="Path 102331" d="M414.87,373.165s3.931-21.184,19.754-26.394a.708.708,0,0,1,.917.875C434.5,350.911,430.332,360.413,414.87,373.165Z" transform="translate(-84.619 -47.582)" fill="#f9786c"/>
        <path id="Path_102332" data-name="Path 102332" d="M430.378,350.68a20.232,20.232,0,0,1-2.167,3.14l-5.557,7.335-5.557,7.335a21.191,21.191,0,0,1-2.348,3,15.064,15.064,0,0,1,1.875-3.32c1.292-1.986,3.167-4.64,5.348-7.5s4.168-5.4,5.723-7.2A15.669,15.669,0,0,1,430.378,350.68Z" transform="translate(-84.665 -46.046)" fill="#263238"/>
        <path id="Path_102333" data-name="Path 102333" d="M411.835,412.726s-2.389-21.393,11.224-31.006a.708.708,0,0,1,1.139.569C424.157,385.736,422.935,396.057,411.835,412.726Z" transform="translate(-85.862 -34.024)" fill="#f9786c"/>
        <path id="Path_102334" data-name="Path 102334" d="M420.529,386.33a19.926,19.926,0,0,1-1.153,3.64c-.9,2.487-1.987,5.4-3.167,8.627s-2.237,6.14-3.14,8.627a18.972,18.972,0,0,1-1.389,3.542,16.506,16.506,0,0,1,.847-3.723c.653-2.264,1.681-5.362,2.931-8.724s2.459-6.39,3.39-8.557a17.754,17.754,0,0,1,1.681-3.431Z" transform="translate(-85.861 -32.174)" fill="#263238"/>
        <path id="Path_102335" data-name="Path 102335" d="M420.386,451.053s-1.625-21.476,12.336-30.561a.722.722,0,0,1,1.111.625C433.667,424.52,432.083,434.758,420.386,451.053Z" transform="translate(-82.495 -18.923)" fill="#f9786c"/>
        <path id="Path_102336" data-name="Path 102336" d="M429.984,425a20.543,20.543,0,0,1-1.278,3.6c-1.014,2.445-2.181,5.32-3.487,8.5s-2.445,6.057-3.445,8.5a18.594,18.594,0,0,1-1.514,3.5,16.558,16.558,0,0,1,.986-3.7c.736-2.236,1.862-5.293,3.237-8.613s2.681-6.293,3.7-8.418A16.669,16.669,0,0,1,429.984,425Z" transform="translate(-82.521 -17.126)" fill="#263238"/>
        <path id="Path_102337" data-name="Path 102337" d="M408.238,325.525s-19.1-9.974-19.448-26.63a.722.722,0,0,1,1.125-.611C392.721,300.243,400.584,306.994,408.238,325.525Z" transform="translate(-94.77 -66.483)" fill="#f9786c"/>
        <path id="Path_102338" data-name="Path 102338" d="M391.63,302.81a19.445,19.445,0,0,1,2.376,2.987c1.556,2.139,3.376,4.654,5.376,7.446s3.848,5.279,5.4,7.418a21.512,21.512,0,0,1,2.181,3.126,15.546,15.546,0,0,1-2.626-2.778c-1.514-1.806-3.515-4.376-5.557-7.307s-3.918-5.557-5.2-7.585a17.17,17.17,0,0,1-1.959-3.306Z" transform="translate(-93.662 -64.674)" fill="#263238"/>
        <path id="Path_102339" data-name="Path 102339" d="M423.437,356.976s-19.657-8.793-21.046-25.407a.708.708,0,0,1,1.07-.681C406.42,332.68,414.671,338.945,423.437,356.976Z" transform="translate(-89.477 -53.787)" fill="#f9786c"/>
        <path id="Path_102340" data-name="Path 102340" d="M405.49,335.29a18.828,18.828,0,0,1,2.556,2.778l5.821,7.1,5.848,7.085a21.488,21.488,0,0,1,2.362,3,15.558,15.558,0,0,1-2.778-2.625c-1.625-1.709-3.765-4.167-6.043-6.946s-4.279-5.237-5.668-7.21A16.587,16.587,0,0,1,405.49,335.29Z" transform="translate(-88.27 -52.035)" fill="#263238"/>
        <path id="Path_102341" data-name="Path 102341" d="M411.882,394.226s-13.5-16.781-7.168-32.2a.709.709,0,0,1,1.264-.111C407.8,364.846,412.285,374.181,411.882,394.226Z" transform="translate(-89.229 -41.805)" fill="#f9786c"/>
        <path id="Path_102342" data-name="Path 102342" d="M405.2,366.82a18.452,18.452,0,0,1,.986,3.7c.57,2.584,1.222,5.557,1.959,8.974l1.973,8.96a21.729,21.729,0,0,1,.736,3.737,16.14,16.14,0,0,1-1.292-3.6c-.667-2.264-1.389-5.418-2.209-8.932s-1.389-6.71-1.723-9.043a17.212,17.212,0,0,1-.431-3.792Z" transform="translate(-88.382 -39.765)" fill="#263238"/>
        <path id="Path_102343" data-name="Path 102343" d="M424.776,434.218s-19.448-9.127-20.615-25.755a.708.708,0,0,1,1.083-.653C408.2,409.644,416.344,416.048,424.776,434.218Z" transform="translate(-88.789 -23.856)" fill="#f9786c"/>
        <path id="Path_102344" data-name="Path 102344" d="M407.21,412.24a19.174,19.174,0,0,1,2.514,2.889l5.71,7.2,5.709,7.168a20.663,20.663,0,0,1,2.32,3.042,16.005,16.005,0,0,1-2.778-2.667c-1.584-1.736-3.7-4.167-5.918-7.043s-4.168-5.432-5.557-7.362a17.223,17.223,0,0,1-2-3.223Z" transform="translate(-87.6 -22.091)" fill="#263238"/>
        <path id="Path_102345" data-name="Path 102345" d="M457.426,365.84a2.5,2.5,0,0,1,0,.472V367.7c0,1.292-.139,3.042-.236,5.223l-1.014,18.642h0c-1.389,7.793-5.362,16.42-10.683,24.81-3.917,6.182-8.016,11.794-11.544,17.017a117.522,117.522,0,0,0-8.655,14.308,60.609,60.609,0,0,0-4.056,10.5c-.347,1.278-.6,2.292-.75,2.973a5.558,5.558,0,0,1-.278,1.042,5.061,5.061,0,0,1,.125-1.07c.1-.708.306-1.723.6-3.028a54.751,54.751,0,0,1,3.848-10.669,114.313,114.313,0,0,1,8.544-14.475c3.515-5.265,7.6-10.877,11.488-17.031,5.293-8.335,9.238-16.85,10.683-24.518h0c.542-7.64.986-14.044,1.306-18.628.181-2.167.32-3.917.431-5.209a11.4,11.4,0,0,1,.139-1.389C457.412,365.812,457.426,365.84,457.426,365.84Z" transform="translate(-82.542 -40.146)" fill="#263238"/>
        <path id="Path_102346" data-name="Path 102346" d="M439.841,410.4s8.266-19.892-2.125-32.923a.709.709,0,0,0-1.25.236C435.548,381.091,433.84,391.274,439.841,410.4Z" transform="translate(-76.584 -35.728)" fill="#f9786c"/>
        <path id="Path_102347" data-name="Path 102347" d="M437.566,382.39a17.257,17.257,0,0,1,.653,3.765c.292,2.334.625,5.557.875,9.154s.389,6.848.389,9.2a16.862,16.862,0,0,1-.236,3.82,20.083,20.083,0,0,1-.333-3.792c-.181-2.639-.389-5.737-.625-9.168s-.445-6.515-.639-9.154a19.345,19.345,0,0,1-.083-3.82Z" transform="translate(-75.809 -33.705)" fill="#263238"/>
        <g id="Group_23446" data-name="Group 23446" transform="translate(358.934 341.468)" opacity="0.3">
          <path id="Path_102348" data-name="Path 102348" d="M439.841,410.4s8.266-19.892-2.125-32.923a.709.709,0,0,0-1.25.236C435.548,381.091,433.84,391.274,439.841,410.4Z" transform="translate(-435.518 -377.196)"/>
        </g>
        <path id="Path_102349" data-name="Path 102349" d="M422.01,444.81s6.626-20.5-4.793-32.645a.708.708,0,0,0-1.222.347C415.342,415.9,414.481,426.224,422.01,444.81Z" transform="translate(-84.341 -22.21)" fill="#f9786c"/>
        <path id="Path_102350" data-name="Path 102350" d="M417.62,417a18.641,18.641,0,0,1,.959,3.7c.472,2.306,1.07,5.557,1.611,9.057s.931,6.793,1.125,9.14a15.477,15.477,0,0,1,.069,3.82,22.059,22.059,0,0,1-.639-3.765c-.389-2.612-.847-5.682-1.389-9.071s-.986-6.46-1.389-9.085A18.445,18.445,0,0,1,417.62,417Z" transform="translate(-83.55 -20.237)" fill="#263238"/>
        <g id="Group_23447" data-name="Group 23447" transform="translate(331.242 389.722)" opacity="0.3">
          <path id="Path_102351" data-name="Path 102351" d="M422.01,444.81s6.626-20.5-4.793-32.645a.708.708,0,0,0-1.222.347C415.342,415.9,414.481,426.224,422.01,444.81Z" transform="translate(-415.585 -411.932)"/>
        </g>
        <path id="Path_102352" data-name="Path 102352" d="M446.21,391.882s17.642-12.349,15.864-28.922a.708.708,0,0,0-1.181-.458C458.324,364.807,451.475,372.517,446.21,391.882Z" transform="translate(-72.423 -41.517)" fill="#f9786c"/>
        <g id="Group_23448" data-name="Group 23448" transform="translate(373.786 320.801)" opacity="0.3">
          <path id="Path_102353" data-name="Path 102353" d="M446.21,391.882s17.642-12.349,15.864-28.922a.708.708,0,0,0-1.181-.458C458.324,364.807,451.475,372.517,446.21,391.882Z" transform="translate(-446.21 -362.318)"/>
        </g>
        <path id="Path_102354" data-name="Path 102354" d="M458.833,367.24a17.365,17.365,0,0,1-1.473,3.514c-1,2.139-2.459,5.043-4.167,8.21s-3.348,5.973-4.612,7.96a15.807,15.807,0,0,1-2.25,3.1,20.533,20.533,0,0,1,1.75-3.39c1.278-2.32,2.778-5.043,4.4-8.057l4.376-8.071a18.4,18.4,0,0,1,1.973-3.265Z" transform="translate(-72.375 -39.601)" fill="#263238"/>
        <path id="Path_102355" data-name="Path 102355" d="M425.33,426.587s21.282-3.32,26.978-18.976a.708.708,0,0,0-.847-.945C448.14,407.57,438.527,411.46,425.33,426.587Z" transform="translate(-80.547 -24.269)" fill="#f9786c"/>
        <g id="Group_23449" data-name="Group 23449" transform="translate(344.779 382.371)" opacity="0.3">
          <path id="Path_102356" data-name="Path 102356" d="M425.33,426.587s21.282-3.32,26.978-18.976a.708.708,0,0,0-.847-.945C448.14,407.57,438.527,411.46,425.33,426.587Z" transform="translate(-425.329 -406.64)"/>
        </g>
        <path id="Path_102357" data-name="Path 102357" d="M446.684,410.3a17.741,17.741,0,0,1-2.876,2.514c-1.834,1.473-4.431,3.431-7.349,5.557s-5.64,3.876-7.654,5.112a16.4,16.4,0,0,1-3.376,1.792,21.131,21.131,0,0,1,3.056-2.264l7.5-5.306,7.488-5.32a18.057,18.057,0,0,1,3.209-2.084Z" transform="translate(-80.51 -22.845)" fill="#263238"/>
        <path id="Path_102358" data-name="Path 102358" d="M412.46,449.16l-6.21,41.771h38.688l-5.015-41.771Z" transform="translate(-87.974 -7.723)" fill="#455a64"/>
        <path id="Path_102359" data-name="Path 102359" d="M440.341,458.607a151.463,151.463,0,0,1-15.6.4,151.5,151.5,0,0,1-15.6-.4,151.483,151.483,0,0,1,15.6-.4A151.515,151.515,0,0,1,440.341,458.607Z" transform="translate(-86.85 -4.225)" fill="#263238"/>
        <path id="Path_102360" data-name="Path 102360" d="M441.159,460.983c0,.222-7.21.4-16.1.4s-16.059-.222-16.059-.4,7.21-.4,16.114-.4S441.159,460.761,441.159,460.983Z" transform="translate(-86.904 -3.28)" fill="#263238"/>
        <g id="Group_24179" data-name="Group 24179" transform="translate(-37 28.389)">
          <path id="Path_102361" data-name="Path 102361" d="M80.647,424.34a14.989,14.989,0,0,1,9.87,6.317,26.41,26.41,0,0,1,4.23,11.182c1.283,7.671-.79,16.385-3.638,23.632-7.826-3.68-12-12.789-13.818-17.555-2.82-7.516-3.525-22.871,3.3-23.576" transform="translate(34.36 -46.946)" fill="#f9786c"/>
          <path id="Path_102362" data-name="Path 102362" d="M95.267,467.359a12.761,12.761,0,0,1-.3-12.831,16.92,16.92,0,0,1,10.42-7.981,7.134,7.134,0,0,1,6.007.423,5.457,5.457,0,0,1,1.988,5.175,11.14,11.14,0,0,1-2.468,5.2c-4.075,5.274-9,9.617-15.651,10.011" transform="translate(41.793 -38.034)" fill="#f9786c"/>
          <path id="Path_102363" data-name="Path 102363" d="M93.538,489.268a5.527,5.527,0,0,1-.254-1.607c-.113-1.043-.24-2.566-.353-4.442a54.992,54.992,0,0,1,.9-14.664,27.666,27.666,0,0,1,6.655-13.071,18.557,18.557,0,0,1,3.469-2.82,5.02,5.02,0,0,1,1.41-.733,35.447,35.447,0,0,0-4.47,3.99,28.878,28.878,0,0,0-6.275,12.846A63.453,63.453,0,0,0,93.5,483.219a50.25,50.25,0,0,1,.042,6.049Z" transform="translate(41.546 -35.633)" fill="#263238"/>
          <path id="Path_102364" data-name="Path 102364" d="M80.37,432.6a15.088,15.088,0,0,1,.987,2.51c.578,1.636,1.41,4,2.355,6.951,1.918,5.894,4.442,14.1,7.05,23.2s4.7,17.414,6.12,23.449c.719,3.018,1.269,5.457,1.636,7.163a16.526,16.526,0,0,1,.465,2.651,16.7,16.7,0,0,1-.8-2.566c-.479-1.833-1.128-4.23-1.889-7.05-1.593-5.993-3.807-14.27-6.359-23.364s-4.992-17.315-6.768-23.252l-2.087-7.05a16.413,16.413,0,0,1-.7-2.637Z" transform="translate(36.456 -43.559)" fill="#263238"/>
          <path id="Path_102365" data-name="Path 102365" d="M95.64,471.37a29.893,29.893,0,0,0-21.376-17.033c-2.369-.451-5.288-.395-6.613,1.636s-.183,4.738,1.241,6.684a25.536,25.536,0,0,0,26.791,9.363" transform="translate(31 -34.74)" fill="#f9786c"/>
          <path id="Path_102366" data-name="Path 102366" d="M74,459.114a4.453,4.453,0,0,1,1.551.155,13.058,13.058,0,0,1,1.8.381,18.34,18.34,0,0,1,2.327.705,30.587,30.587,0,0,1,5.767,2.679,33.362,33.362,0,0,1,11.111,10.759,32.431,32.431,0,0,1,2.82,5.64,23.419,23.419,0,0,1,.776,2.312,12.476,12.476,0,0,1,.437,1.791,5.288,5.288,0,0,1,.212,1.551c-.169,0-.592-2.157-2-5.415a35.027,35.027,0,0,0-2.961-5.457,39.1,39.1,0,0,0-4.865-5.838,38.645,38.645,0,0,0-5.993-4.667,32.968,32.968,0,0,0-5.556-2.82C76.2,459.635,74,459.269,74,459.114Z" transform="translate(33.843 -32.693)" fill="#263238"/>
        </g>
      </g>
    </g>
  </g>
</svg>
