<svg id="_1.通用_2.Icon图标_Line_Close-Circle" data-name="1.通用/2.Icon图标/Line/Close-Circle" xmlns="http://www.w3.org/2000/svg" width="16" height="16" viewBox="0 0 16 16">
  <rect id="矩形" width="16" height="16" fill="#1b2631" opacity="0"/>
  <path id="Check-Circle" d="M0,7a7,7,0,1,1,7,7A7.008,7.008,0,0,1,0,7ZM1.187,7A5.813,5.813,0,1,0,7,1.187,5.819,5.819,0,0,0,1.187,7Zm3.1,2.534a.138.138,0,0,1,.03-.082l2.033-2.42L4.32,4.611a.134.134,0,0,1-.03-.081A.125.125,0,0,1,4.415,4.4l1.033,0L7,6.26,8.553,4.408,9.584,4.4a.125.125,0,0,1,.125.125.127.127,0,0,1-.028.082L7.648,7.031l2.03,2.421a.128.128,0,0,1,.03.081.124.124,0,0,1-.124.125l-1.031,0L7,7.8,5.449,9.654,4.415,9.66A.126.126,0,0,1,4.29,9.535Z" transform="translate(1 1)" fill="rgba(0,0,0,0.65)"/>
</svg>
