<svg id="_1.通用_2.Icon图标_Line_User" data-name="1.通用/2.Icon图标/Line/User" xmlns="http://www.w3.org/2000/svg" width="16" height="16" viewBox="0 0 16 16">
  <g id="Icon_User" data-name="Icon/User">
    <rect id="矩形" width="16" height="16" fill="#1b2631" opacity="0"/>
    <path id="形状" d="M11.625,12.437h-.938a.124.124,0,0,1-.125-.122,4.689,4.689,0,0,0-9.374,0,.124.124,0,0,1-.125.122H.125a.124.124,0,0,1-.09-.038A.123.123,0,0,1,0,12.309a5.794,5.794,0,0,1,.461-2.157,5.873,5.873,0,0,1,1.26-1.868A5.8,5.8,0,0,1,3.587,7.025L3.6,7.02l.006,0a3.876,3.876,0,1,1,4.538,0l.009,0,.009,0a5.877,5.877,0,0,1,3.587,5.286.126.126,0,0,1-.036.091A.124.124,0,0,1,11.625,12.437ZM5.875,1.187a2.689,2.689,0,1,0,1.9.788A2.67,2.67,0,0,0,5.875,1.187Z" transform="translate(2.125 1.781)" fill="rgba(0,0,0,0.65)"/>
  </g>
</svg>
