<svg id="_1.通用_2.Icon图标_Fill_Sound-On" data-name="1.通用/2.Icon图标/Fill/Sound-On" xmlns="http://www.w3.org/2000/svg" width="16" height="16" viewBox="0 0 16 16">
  <rect id="矩形" width="16" height="16" opacity="0"/>
  <path id="Shape" d="M6.595-12.122a.646.646,0,0,0-.448.153c-.035.033-3.558,3.337-3.708,3.484h-1.2A1.244,1.244,0,0,0,0-7.274V-4.85A1.245,1.245,0,0,0,1.244-3.638h1.2c.138.137,3.1,2.916,3.7,3.472l.013.012A.585.585,0,0,0,6.579,0c.034,0,.069,0,.105-.005a.67.67,0,0,0,.587-.557c0-.074,0-10.969,0-11a.671.671,0,0,0-.588-.558C6.655-12.12,6.625-12.122,6.595-12.122Zm5.038,1.345a.7.7,0,0,0-.5.207.7.7,0,0,0-.208.5.7.7,0,0,0,.208.5,4.966,4.966,0,0,1,0,7.013.7.7,0,0,0-.208.5.7.7,0,0,0,.208.5.7.7,0,0,0,.5.207.7.7,0,0,0,.5-.207A6.334,6.334,0,0,0,14-6.062a6.334,6.334,0,0,0-1.868-4.508A.7.7,0,0,0,11.633-10.777ZM9.212-9.441a.7.7,0,0,0-.5.207.7.7,0,0,0-.208.5.7.7,0,0,0,.208.5,3.075,3.075,0,0,1,0,4.342.7.7,0,0,0-.208.5.7.7,0,0,0,.208.5.7.7,0,0,0,.5.207.7.7,0,0,0,.5-.207,4.493,4.493,0,0,0,0-6.345A.7.7,0,0,0,9.212-9.441Z" transform="translate(1 14.122)" fill="rgba(0,0,0,0.65)"/>
</svg>
