<svg id="_1.通用_2.Icon图标_Line_Reload" data-name="1.通用/2.Icon图标/Line/Reload" xmlns="http://www.w3.org/2000/svg" width="16" height="16" viewBox="0 0 16 16">
  <rect id="矩形" width="16" height="16" fill="#1b2631" opacity="0"/>
  <path id="路径" d="M12.611,1.833l-.881.689a6.561,6.561,0,1,0,1,6.289.125.125,0,0,0-.077-.161l-.886-.3a.125.125,0,0,0-.158.075c-.028.078-.059.156-.092.233a5.375,5.375,0,1,1-.717-5.4l-.941.734A.125.125,0,0,0,9.9,4.2l2.744.672a.125.125,0,0,0,.155-.12l.012-2.827a.126.126,0,0,0-.2-.1Z" transform="translate(1.594 1.438)" fill="rgba(0,0,0,0.65)"/>
</svg>
