<svg id="_1.通用_2.Icon图标_Fill_Warning-Circle-Fill" data-name="1.通用/2.Icon图标/Fill/Warning-Circle-Fill" xmlns="http://www.w3.org/2000/svg" width="16" height="16" viewBox="0 0 16 16">
  <rect id="矩形" width="16" height="16" fill="#1b2631" opacity="0"/>
  <path id="形状" d="M7,14a7,7,0,1,1,7-7A7.008,7.008,0,0,1,7,14ZM7,9a.75.75,0,1,0,.75.75A.751.751,0,0,0,7,9ZM6.625,3.5a.125.125,0,0,0-.125.125v4.25A.125.125,0,0,0,6.625,8h.75A.125.125,0,0,0,7.5,7.875V3.625A.125.125,0,0,0,7.375,3.5Z" transform="translate(1 1)" fill="rgba(0,0,0,0.65)"/>
</svg>
