<svg id="_1.通用_2.Icon图标_Line_double_right" data-name="1.通用/2.Icon图标/Line/double right" xmlns="http://www.w3.org/2000/svg" width="16" height="16" viewBox="0 0 16 16">
  <g id="double_right" data-name="double right">
    <rect id="矩形" width="16" height="16" fill="#1b2631" opacity="0"/>
    <path id="形状" d="M6.083,11H4.875a.124.124,0,0,1-.1-.2L8.924,5.5,4.777.2A.123.123,0,0,1,4.763.071.124.124,0,0,1,4.875,0H6.083a.249.249,0,0,1,.2.1l3.989,5.1a.5.5,0,0,1,0,.617L6.28,10.9A.253.253,0,0,1,6.083,11Zm-4.75,0H.125a.122.122,0,0,1-.112-.07A.124.124,0,0,1,.027,10.8L4.173,5.5.027.2a.125.125,0,0,1,.1-.2H1.333a.249.249,0,0,1,.2.1l3.989,5.1a.5.5,0,0,1,0,.617L1.53,10.9A.253.253,0,0,1,1.333,11Z" transform="translate(2.812 2.5)" fill="rgba(0,0,0,0.65)"/>
  </g>
</svg>
