<svg id="_1.通用_2.Icon图标_Line_Search" data-name="1.通用/2.Icon图标/Line/Search" xmlns="http://www.w3.org/2000/svg" width="16" height="16" viewBox="0 0 16 16">
  <rect id="矩形" width="16" height="16" opacity="0"/>
  <path id="形状" d="M11.691,12.5a.126.126,0,0,1-.09-.038L7.542,8.406A4.686,4.686,0,0,1,1.373,8,4.687,4.687,0,1,1,8,1.373a4.687,4.687,0,0,1,.4,6.17L12.462,11.6a.125.125,0,0,1,.038.09.128.128,0,0,1-.038.091l-.681.68A.126.126,0,0,1,11.691,12.5Zm-7-11.313A3.5,3.5,0,1,0,7.162,2.212,3.483,3.483,0,0,0,4.687,1.187Z" transform="translate(1.75 1.75)" fill="rgba(0,0,0,0.65)"/>
</svg>
