<svg id="_1.通用_2.Icon图标_Line_Container" data-name="1.通用/2.Icon图标/Line/Container" xmlns="http://www.w3.org/2000/svg" width="16" height="16" viewBox="0 0 16 16">
  <rect id="矩形" width="16" height="16" fill="#1b2631" opacity="0"/>
  <path id="形状" d="M10.5,14H.5a.5.5,0,0,1-.5-.5V.5A.5.5,0,0,1,.5,0h10a.5.5,0,0,1,.5.5v13A.5.5,0,0,1,10.5,14ZM1.125,9.734v3.141h8.75V9.734H8.346a3.017,3.017,0,0,1-5.691,0Zm0-8.609V8.75H3.443l.081.386a2.017,2.017,0,0,0,3.952,0l.081-.386H9.875V1.125ZM8.5,6.828h-6A.125.125,0,0,1,2.375,6.7v-.75A.125.125,0,0,1,2.5,5.828h6a.125.125,0,0,1,.125.125V6.7A.125.125,0,0,1,8.5,6.828Zm0-2.5h-6A.125.125,0,0,1,2.375,4.2v-.75A.125.125,0,0,1,2.5,3.328h6a.125.125,0,0,1,.125.125V4.2A.125.125,0,0,1,8.5,4.328Z" transform="translate(2.5 1)" fill="rgba(0,0,0,0.65)"/>
</svg>
