<svg id="_1.通用_2.Icon图标_Fill_Star_Unselected" data-name="1.通用/2.Icon图标/Fill/Star Unselected" xmlns="http://www.w3.org/2000/svg" width="16" height="16" viewBox="0 0 16 16">
  <rect id="矩形" width="16" height="16" opacity="0"/>
  <path id="路径" d="M12.806,4.45,8.839,3.873,7.065.278a.5.5,0,0,0-.9,0l-1.773,3.6L.428,4.45A.5.5,0,0,0,.151,5.3l2.87,2.8-.678,3.952a.5.5,0,0,0,.725.527l3.548-1.866,3.548,1.866a.5.5,0,0,0,.725-.527L10.212,8.1l2.87-2.8a.5.5,0,0,0-.277-.853Z" transform="translate(1.383 1.067)" fill="rgba(0,0,0,0.04)"/>
</svg>
