<svg id="_1.通用_2.Icon图标_Line_Info-Circle" data-name="1.通用/2.Icon图标/Line/Info-Circle" xmlns="http://www.w3.org/2000/svg" width="16" height="16" viewBox="0 0 16 16">
  <rect id="矩形" width="16" height="16" fill="#1b2631" opacity="0"/>
  <path id="形状结合" d="M0,7a7,7,0,1,1,7,7A7.008,7.008,0,0,1,0,7ZM1.187,7A5.813,5.813,0,1,0,7,1.187,5.819,5.819,0,0,0,1.187,7Zm5.438,3.5a.126.126,0,0,1-.125-.125V6.125A.125.125,0,0,1,6.625,6h.75a.125.125,0,0,1,.125.125v4.25a.125.125,0,0,1-.125.125ZM6.25,4.25A.75.75,0,1,1,7,5,.751.751,0,0,1,6.25,4.25Z" transform="translate(1 1)" fill="rgba(0,0,0,0.65)"/>
</svg>
