<svg id="_1.通用_2.Icon图标_Fill_Sound-Off" data-name="1.通用/2.Icon图标/Fill/Sound-Off" xmlns="http://www.w3.org/2000/svg" width="16" height="16" viewBox="0 0 16 16">
  <rect id="矩形" width="16" height="16" opacity="0"/>
  <path id="Shape" d="M5.446-10.01a.535.535,0,0,0-.37.126l-.013.012c-.489.459-2.935,2.754-3.049,2.865H1.027A1.028,1.028,0,0,0,0-6.006v2A1.028,1.028,0,0,0,1.027-3h.988c.123.122,3.033,2.85,3.062,2.877A.48.48,0,0,0,5.432,0c.028,0,.057,0,.088,0A.552.552,0,0,0,6-.464c0-.059,0-9.055,0-9.081a.562.562,0,0,0-.485-.461C5.5-10.008,5.471-10.01,5.446-10.01ZM13.242-8a.753.753,0,0,0-.536.222l-1.7,1.7-1.7-1.7A.753.753,0,0,0,8.775-8a.753.753,0,0,0-.536.222.751.751,0,0,0-.222.535A.753.753,0,0,0,8.24-6.7L9.937-5l-1.7,1.7a.759.759,0,0,0,0,1.073.754.754,0,0,0,.536.221.754.754,0,0,0,.536-.221l1.7-1.7,1.7,1.7a.754.754,0,0,0,.536.221.754.754,0,0,0,.536-.221A.754.754,0,0,0,14-2.772a.754.754,0,0,0-.222-.536L12.081-5l1.7-1.7A.753.753,0,0,0,14-7.238a.753.753,0,0,0-.222-.536A.753.753,0,0,0,13.242-8Z" transform="translate(1 13.01)" fill="rgba(0,0,0,0.65)"/>
</svg>
