<svg id="_1.通用_2.Icon图标_Line_Check-Circle" data-name="1.通用/2.Icon图标/Line/Check-Circle" xmlns="http://www.w3.org/2000/svg" width="16" height="16" viewBox="0 0 16 16">
  <rect id="矩形" width="16" height="16" fill="#1b2631" opacity="0"/>
  <path id="形状结合" d="M0,7a7,7,0,1,1,7,7A7.008,7.008,0,0,1,0,7ZM1.187,7A5.813,5.813,0,1,0,7,1.187,5.819,5.819,0,0,0,1.187,7ZM5.924,9.276l-1.948-2.7a.125.125,0,0,1,.1-.2h.733a.5.5,0,0,1,.405.208L6.328,8.13,8.784,4.723a.5.5,0,0,1,.4-.208h.733a.125.125,0,0,1,.1.2L6.731,9.276a.5.5,0,0,1-.807,0Z" transform="translate(1 1)" fill="rgba(0,0,0,0.65)"/>
</svg>
