<svg id="_1.通用_2.Icon图标_Line_Upload" data-name="1.通用/2.Icon图标/Line/Upload" xmlns="http://www.w3.org/2000/svg" width="16" height="16" viewBox="0 0 16 16">
  <rect id="矩形" width="16" height="16" fill="#1b2631" opacity="0"/>
  <path id="形状" d="M11.188,11H.5a.5.5,0,0,1-.5-.5V7.407a.125.125,0,0,1,.125-.124h.938a.124.124,0,0,1,.124.124V9.814H10.5V7.407a.125.125,0,0,1,.125-.124h.937a.125.125,0,0,1,.125.124V10.5A.5.5,0,0,1,11.188,11ZM6.311,7.876H5.373a.125.125,0,0,1-.124-.125V2.465H4.094a.123.123,0,0,1-.113-.07A.126.126,0,0,1,4,2.262L5.746.048a.124.124,0,0,1,.2,0l1.75,2.216a.123.123,0,0,1,.014.131.125.125,0,0,1-.113.071H6.436V7.751A.125.125,0,0,1,6.311,7.876Z" transform="translate(2.156 2.499)" fill="rgba(0,0,0,0.65)"/>
</svg>
