<svg id="_1.通用_2.Icon图标_Line_Calendar" data-name="1.通用/2.Icon图标/Line/Calendar" xmlns="http://www.w3.org/2000/svg" width="16" height="16" viewBox="0 0 16 16">
  <g id="Icon_Calendar" data-name="Icon/Calendar">
    <rect id="矩形" width="16" height="16" fill="#1b2631" opacity="0"/>
    <path id="形状" d="M12,12.5H.5A.5.5,0,0,1,0,12V1.625a.5.5,0,0,1,.5-.5H3.125v-1A.125.125,0,0,1,3.25,0h.875A.125.125,0,0,1,4.25.125v1h4v-1A.125.125,0,0,1,8.375,0H9.25a.125.125,0,0,1,.125.125v1H12a.5.5,0,0,1,.5.5V12A.5.5,0,0,1,12,12.5ZM1.125,5.438v5.937h10.25V5.438Zm0-3.188V4.375h10.25V2.25h-2V3a.125.125,0,0,1-.125.125H8.375A.125.125,0,0,1,8.25,3V2.25h-4V3a.125.125,0,0,1-.125.125H3.25A.125.125,0,0,1,3.125,3V2.25Z" transform="translate(1.75 1.75)" fill="rgba(0,0,0,0.65)"/>
  </g>
</svg>
