<svg id="_1.通用_2.Icon图标_Line_Setting" data-name="1.通用/2.Icon图标/Line/Setting" xmlns="http://www.w3.org/2000/svg" width="16" height="16" viewBox="0 0 16 16">
  <rect id="矩形" width="16" height="16" fill="#1b2631" opacity="0"/>
  <path id="形状" d="M6.627,14a7.012,7.012,0,0,1-1.243-.112l-.041-.007a.5.5,0,0,1-.4-.4l-.247-1.335a5.434,5.434,0,0,1-1.546-.9l-1.28.455a.5.5,0,0,1-.549-.149l-.028-.033A6.966,6.966,0,0,1,.043,9.366L.03,9.326a.5.5,0,0,1,.145-.55l1.036-.885a5.56,5.56,0,0,1,0-1.784L.175,5.223a.505.505,0,0,1-.145-.55l.014-.041A6.98,6.98,0,0,1,1.289,2.478l.028-.033A.5.5,0,0,1,1.866,2.3l1.28.454a5.5,5.5,0,0,1,1.546-.9L4.939.519a.5.5,0,0,1,.4-.4L5.384.11a7.07,7.07,0,0,1,2.485,0l.042.008a.5.5,0,0,1,.4.4l.245,1.328a5.506,5.506,0,0,1,1.558.9L11.388,2.3a.5.5,0,0,1,.548.148l.028.033a6.919,6.919,0,0,1,1.246,2.155l.014.041a.5.5,0,0,1-.146.55L12.055,6.1a5.563,5.563,0,0,1,0,1.806l1.023.875a.5.5,0,0,1,.146.547l-.014.04a6.96,6.96,0,0,1-1.246,2.155l-.028.033a.5.5,0,0,1-.382.177.5.5,0,0,1-.167-.028l-1.271-.452a5.468,5.468,0,0,1-1.558.9l-.245,1.328a.5.5,0,0,1-.4.4l-.042.007A6.961,6.961,0,0,1,6.627,14ZM3.37,9.977h0l.49.4A4.381,4.381,0,0,0,5.09,11.1l.59.227.28,1.518a5.854,5.854,0,0,0,1.328,0l.28-1.516.595-.223A4.391,4.391,0,0,0,9.4,10.387l.491-.4,1.45.514a5.862,5.862,0,0,0,.666-1.15l-1.167-1,.1-.626a4.4,4.4,0,0,0,0-1.441l-.1-.624,1.167-1a5.951,5.951,0,0,0-.665-1.15L9.9,4.024l-.491-.4a4.39,4.39,0,0,0-1.238-.715l-.6-.223L7.291,1.166a5.854,5.854,0,0,0-1.328,0l-.28,1.519-.592.223a4.358,4.358,0,0,0-1.229.714l-.49.405-1.46-.519a5.813,5.813,0,0,0-.665,1.15L2.425,5.666l-.1.625A4.354,4.354,0,0,0,2.265,7a4.547,4.547,0,0,0,.058.711l.1.625L1.246,9.347A5.867,5.867,0,0,0,1.911,10.5L3.37,9.978ZM6.628,9.6a2.75,2.75,0,1,1,2.75-2.749A2.753,2.753,0,0,1,6.628,9.6Zm0-4.5a1.751,1.751,0,1,0,1.238.513A1.739,1.739,0,0,0,6.628,5.1Z" transform="translate(1.372 0.998)" fill="rgba(0,0,0,0.65)"/>
</svg>
