<svg id="_1.通用_2.Icon图标_Line_Attachment" data-name="1.通用/2.Icon图标/Line/Attachment" xmlns="http://www.w3.org/2000/svg" width="16" height="16" viewBox="0 0 16 16">
  <g id="attachment">
    <rect id="矩形" width="16" height="16" fill="#1b2631" opacity="0"/>
    <path id="路径" d="M9.458,1.1a3.78,3.78,0,0,0-5.339,0L.041,5.179a.143.143,0,0,0,0,.2l.577.577a.141.141,0,0,0,.2,0L4.894,1.88A2.679,2.679,0,1,1,8.683,5.668L4.527,9.823l-.673.673A1.614,1.614,0,0,1,1.57,8.215L5.694,4.093a.551.551,0,0,1,.389-.161h0a.548.548,0,0,1,.386.936L3.1,8.235a.143.143,0,0,0,0,.2l.577.577a.141.141,0,0,0,.2,0L7.244,5.643a1.645,1.645,0,0,0,0-2.325,1.649,1.649,0,0,0-2.328,0l-.4.4L.794,7.44a2.71,2.71,0,0,0,3.833,3.831L9.458,6.443a3.778,3.778,0,0,0,0-5.339Z" transform="translate(3 2)" fill="rgba(0,0,0,0.65)"/>
  </g>
</svg>
