<svg id="_1.通用_2.Icon图标_Line_Plus" data-name="1.通用/2.Icon图标/Line/Plus" xmlns="http://www.w3.org/2000/svg" width="16" height="16" viewBox="0 0 16 16">
  <rect id="矩形" width="16" height="16" fill="#1b2631" opacity="0"/>
  <path id="形状" d="M4.906,11.25a.111.111,0,0,1-.125-.125V6.219H.125A.111.111,0,0,1,0,6.094V5.156a.111.111,0,0,1,.125-.125H4.781V.125A.111.111,0,0,1,4.906,0h.938a.11.11,0,0,1,.125.125V5.031h4.657a.11.11,0,0,1,.124.125v.938a.11.11,0,0,1-.124.125H5.969v4.906a.11.11,0,0,1-.125.125Z" transform="translate(2.625 2.375)" fill="rgba(0,0,0,0.65)"/>
</svg>
