<svg id="_1.通用_2.Icon图标_Fill_Sort" data-name="1.通用/2.Icon图标/Fill/Sort" xmlns="http://www.w3.org/2000/svg" width="16" height="16" viewBox="0 0 16 16">
  <rect id="矩形" width="16" height="16" fill="none"/>
  <path id="Combined_Shape" data-name="Combined Shape" d="M3.671,11.786.057,7.6a.236.236,0,0,1,.2-.384H7.49a.237.237,0,0,1,.2.384L4.079,11.786a.276.276,0,0,1-.408,0ZM.26,4.657a.236.236,0,0,1-.2-.384L3.671.09a.276.276,0,0,1,.408,0L7.694,4.272a.237.237,0,0,1-.2.384Z" transform="translate(4 2)" fill="rgba(0,0,0,0.65)"/>
</svg>
