<svg id="_3.数据录入_1.Checkbox多选框_亮色_Icon-选中失效" data-name="3.数据录入/1.Checkbox多选框/亮色/Icon-选中失效" xmlns="http://www.w3.org/2000/svg" width="16" height="16" viewBox="0 0 16 16">
  <rect id="矩形" width="16" height="16" fill="#1b2631" opacity="0"/>
  <g id="Rectangle_271" data-name="Rectangle 271" fill="rgba(0,0,0,0.04)" stroke="rgba(0,0,0,0.15)" stroke-miterlimit="10" stroke-width="1">
    <rect width="16" height="16" rx="2" stroke="none"/>
    <rect x="0.5" y="0.5" width="15" height="15" rx="1.5" fill="none"/>
  </g>
  <path id="Path" d="M7.77.254,3.558,6.094a.636.636,0,0,1-1.034,0L.03,2.638a.161.161,0,0,1,.13-.254H1.1a.637.637,0,0,1,.518.266L3.04,4.626,6.184.266A.64.64,0,0,1,6.7,0H7.64A.161.161,0,0,1,7.77.254Z" transform="translate(4 5)" fill="rgba(0,0,0,0.25)"/>
</svg>
