<svg id="_1.通用_2.Icon图标_Fill_Check-Circle-Fill" data-name="1.通用/2.Icon图标/Fill/Check-Circle-Fill" xmlns="http://www.w3.org/2000/svg" width="16" height="16" viewBox="0 0 16 16">
  <rect id="矩形" width="16" height="16" opacity="0"/>
  <path id="形状" d="M7,14a7,7,0,1,1,7-7A7.008,7.008,0,0,1,7,14ZM4.078,6.378a.125.125,0,0,0-.1.2l1.948,2.7a.5.5,0,0,0,.808,0l3.29-4.562a.126.126,0,0,0-.1-.2H9.189a.5.5,0,0,0-.4.208L6.328,8.13,5.216,6.586a.5.5,0,0,0-.405-.208Z" transform="translate(1 1)" fill="rgba(0,0,0,0.65)"/>
</svg>
