<svg id="_1.通用_2.Icon图标_Line_Close" data-name="1.通用/2.Icon图标/Line/Close" xmlns="http://www.w3.org/2000/svg" width="16" height="16" viewBox="0 0 16 16">
  <rect id="矩形" width="16" height="16" opacity="0"/>
  <path id="路径" d="M5.763,5.094,9.864.2a.124.124,0,0,0-.1-.2H8.522A.255.255,0,0,0,8.33.089L4.947,4.122,1.564.089A.25.25,0,0,0,1.372,0H.125a.124.124,0,0,0-.1.2l4.1,4.889L.03,9.983a.124.124,0,0,0,.1.2H1.372a.255.255,0,0,0,.192-.089L4.947,6.066,8.33,10.1a.25.25,0,0,0,.192.089H9.769a.124.124,0,0,0,.1-.2Z" transform="translate(3.047 2.906)" fill="rgba(0,0,0,0.65)"/>
</svg>
