<svg id="_1.通用_2.Icon图标_Line_AntDesign" data-name="1.通用/2.Icon图标/Line/AntDesign" xmlns="http://www.w3.org/2000/svg" width="16" height="16" viewBox="0 0 16 16">
  <g id="ant-design" transform="translate(2 2)">
    <rect id="矩形" width="11.988" height="11.988" fill="#1b2631" opacity="0"/>
    <path id="形状" d="M5.992,11.975a.719.719,0,0,1-.512-.212L.212,6.5a.721.721,0,0,1,0-1.022L5.482.212A.73.73,0,0,1,6.505.206L7.781,1.48l.933.934a.649.649,0,0,1-.919.918L6.12,1.658A.173.173,0,0,0,6,1.6a.17.17,0,0,0-.107.038l-.009.008-.009.008-4.207,4.2a.173.173,0,0,0,0,.247l4.207,4.2A.176.176,0,0,0,6,10.365a.174.174,0,0,0,.123-.052L7.794,8.638a.649.649,0,1,1,.919.917L6.5,11.763A.721.721,0,0,1,5.992,11.975ZM9.684,8.339a.648.648,0,0,1-.459-1.108l1.094-1.093a.174.174,0,0,0,0-.247L9.208,4.782a.642.642,0,0,1-.191-.459.651.651,0,0,1,.191-.459.65.65,0,0,1,.919,0L11.771,5.5a.721.721,0,0,1,0,1.022L10.143,8.15A.647.647,0,0,1,9.684,8.339Zm-3.664-.9a1.422,1.422,0,1,1,.711-.19A1.426,1.426,0,0,1,6.02,7.436Z" transform="translate(0.013 0.011)" fill="rgba(0,0,0,0.65)"/>
  </g>
</svg>
