<svg id="_1.通用_2.Icon图标_Fill_Close-Circle-Fill" data-name="1.通用/2.Icon图标/Fill/Close-Circle-Fill" xmlns="http://www.w3.org/2000/svg" width="16" height="16" viewBox="0 0 16 16">
  <rect id="矩形" width="16" height="16" fill="#1b2631" opacity="0"/>
  <path id="形状" d="M7,14a7,7,0,1,1,7-7A7.008,7.008,0,0,1,7,14ZM7,7.8H7l1.552,1.85,1.031.005a.125.125,0,0,0,.125-.125.133.133,0,0,0-.03-.082L7.648,7.031l2.03-2.42a.128.128,0,0,0,.03-.081A.125.125,0,0,0,9.583,4.4l-1.031,0L7,6.26,5.449,4.408,4.415,4.4a.125.125,0,0,0-.125.125.137.137,0,0,0,.03.082L6.353,7.03,4.32,9.452a.133.133,0,0,0-.03.081.125.125,0,0,0,.125.125l1.033,0L7,7.8Z" transform="translate(1 1)" fill="rgba(0,0,0,0.65)"/>
</svg>
