<svg id="_1.通用_2.Icon图标_Line_Question-Circle-Line" data-name="1.通用/2.Icon图标/Line/Question-Circle-Line" xmlns="http://www.w3.org/2000/svg" width="16" height="16" viewBox="0 0 16 16">
  <g id="question-circle">
    <rect id="矩形" width="16" height="16" fill="#1b2631" opacity="0"/>
    <path id="形状结合" d="M0,7a7,7,0,1,1,7,7A7.008,7.008,0,0,1,0,7ZM1.187,7A5.813,5.813,0,1,0,7,1.187,5.819,5.819,0,0,0,1.187,7Zm5.188,3.437A.625.625,0,1,1,7,11.063.625.625,0,0,1,6.375,10.437Zm.248-1.625A.126.126,0,0,1,6.5,8.688V8.352a1.791,1.791,0,0,1,.311-1.014A1.742,1.742,0,0,1,7.623,6.7,1.266,1.266,0,0,0,8.5,5.563,1.394,1.394,0,0,0,7,4.313a1.394,1.394,0,0,0-1.5,1.25v.118a.125.125,0,0,1-.125.125h-.75A.125.125,0,0,1,4.5,5.681V5.563a2.132,2.132,0,0,1,.756-1.615,2.71,2.71,0,0,1,3.487,0A2.122,2.122,0,0,1,9.5,5.563a2.256,2.256,0,0,1-1.517,2.07.755.755,0,0,0-.482.7v.355a.126.126,0,0,1-.125.125Z" transform="translate(1 1)" fill="rgba(0,0,0,0.65)"/>
  </g>
</svg>
