<svg id="_1.通用_2.Icon图标_Line_Eye-Close" data-name="1.通用/2.Icon图标/Line/Eye-Close" xmlns="http://www.w3.org/2000/svg" width="16" height="16" viewBox="0 0 16 16">
  <g id="eye-close">
    <rect id="矩形" width="16" height="16" fill="#1b2631" opacity="0"/>
    <path id="形状" d="M1.31,12.048a.124.124,0,0,1-.089-.036l-.662-.662a.124.124,0,0,1-.036-.089.122.122,0,0,1,.036-.087L2.132,9.6A9.543,9.543,0,0,1,.09,6.694a.94.94,0,0,1,0-.8A8.751,8.751,0,0,1,2.88,2.371,6.72,6.72,0,0,1,6.812,1.2a6.959,6.959,0,0,1,3.059.663L11.7.036a.127.127,0,0,1,.176,0L12.535.7c.048.048,0,.17,0,.175L1.4,12.011A.122.122,0,0,1,1.31,12.048Zm5.5-9.727c-2.521,0-4.376,1.3-5.669,3.97A8.306,8.306,0,0,0,2.926,8.8L4.263,7.467A2.753,2.753,0,0,1,7.928,3.8l1.09-1.091A6.036,6.036,0,0,0,6.812,2.321ZM6.75,4.54A1.752,1.752,0,0,0,5.045,6.686l2.1-2.1A1.747,1.747,0,0,0,6.75,4.54Zm.062,6.844a7,7,0,0,1-3.061-.662l.855-.855a6.016,6.016,0,0,0,2.206.392c2.522,0,4.377-1.3,5.669-3.97A8.323,8.323,0,0,0,10.7,3.774l.792-.794a9.516,9.516,0,0,1,2.042,2.906.94.94,0,0,1,0,.8,8.759,8.759,0,0,1-2.79,3.517A6.719,6.719,0,0,1,6.812,11.383ZM6.75,9.038a2.72,2.72,0,0,1-1.093-.225l.8-.8a1.673,1.673,0,0,0,.294.025A1.756,1.756,0,0,0,8.5,6.288a1.847,1.847,0,0,0-.025-.294l.8-.8A2.719,2.719,0,0,1,9.5,6.288,2.753,2.753,0,0,1,6.75,9.038Z" transform="translate(1.188 1.711)" fill="rgba(0,0,0,0.65)"/>
  </g>
</svg>
