<svg id="_1.通用_2.Icon图标_Line_Save" data-name="1.通用/2.Icon图标/Line/Save" xmlns="http://www.w3.org/2000/svg" width="16" height="16" viewBox="0 0 16 16">
  <g id="save">
    <rect id="矩形" width="16" height="16" fill="#1b2631" opacity="0"/>
    <path id="形状" d="M12,12.5H.5A.5.5,0,0,1,0,12V.5A.5.5,0,0,1,.5,0H9.25V.042a.992.992,0,0,1,.417.25l2.541,2.541a.988.988,0,0,1,.293.706V12A.5.5,0,0,1,12,12.5ZM1.125,1.125v10.25h10.25V3.591L9.25,1.465V3.25a.5.5,0,0,1-.5.5h-5a.5.5,0,0,1-.5-.5V1.125Zm3.125,0V2.75h4V1.125Zm2,8.531A2.25,2.25,0,1,1,8.5,7.406,2.253,2.253,0,0,1,6.25,9.656Zm0-3.5A1.25,1.25,0,1,0,7.5,7.406,1.251,1.251,0,0,0,6.25,6.156Z" transform="translate(1.75 1.75)" fill="rgba(0,0,0,0.65)"/>
  </g>
</svg>
