<svg id="Icon_Data_Empty" data-name="Icon/Data/Empty" xmlns="http://www.w3.org/2000/svg" xmlns:xlink="http://www.w3.org/1999/xlink" width="64" height="64" viewBox="0 0 64 64">
  <defs>
    <clipPath id="clip-path">
      <rect id="Rectangle_10130" data-name="Rectangle 10130" width="48" height="48" transform="translate(8584 -22389)" fill="#babdc0" stroke="#707070" stroke-width="1"/>
    </clipPath>
  </defs>
  <rect id="Rectangle_10129" data-name="Rectangle 10129" width="64" height="64" fill="none"/>
  <g id="Mask_Group_742" data-name="Mask Group 742" transform="translate(-8576 22397)" clip-path="url(#clip-path)">
    <g id="personal" transform="translate(8584 -22389)">
      <path id="Path_108693" data-name="Path 108693" d="M47.612,18.107l-6.868-4.972a.937.937,0,1,0-1.1,1.518l5.25,3.8-3.77.991a3.454,3.454,0,0,0-5.473-.507L27.4,14.765a3.453,3.453,0,0,0-2.448-3.993V4.017L32.807,9.7a.938.938,0,1,0,1.1-1.519L24.528,1.4a.937.937,0,0,0-.55-.178.924.924,0,0,0-.549.178L.388,18.046A.935.935,0,0,0,.047,19.1l8.844,27a.97.97,0,0,0,.89.683H38.289a.935.935,0,0,0,.891-.648l8.774-26.977a.934.934,0,0,0-.341-1.049ZM38.195,19.7a1.581,1.581,0,1,1-1.583,1.581A1.584,1.584,0,0,1,38.195,19.7ZM26.548,16.436,34.8,20.611a3.457,3.457,0,0,0-.062.514L24.951,23.7V17.42A3.463,3.463,0,0,0,26.548,16.436Zm-4.609,13.2,2.077-3.058,7.075,10.349-8.372-4.29a3.444,3.444,0,0,0-.78-3Zm-1.571-1.025a3.457,3.457,0,0,0-2.688.269l-5.832-6.2,10.645,2.8Zm.554,3.3a1.583,1.583,0,1,1-1.583-1.581A1.584,1.584,0,0,1,20.921,31.912ZM12.3,20.394l9.057-4.076a3.464,3.464,0,0,0,1.715,1.106V23.7L12.341,20.876a3.475,3.475,0,0,0-.037-.482Zm11.7-7.879A1.581,1.581,0,1,1,22.423,14.1,1.584,1.584,0,0,1,24.006,12.515Zm-.931-8.549v6.8a3.455,3.455,0,0,0-2.489,3.842l-9.055,4.076a3.455,3.455,0,0,0-5.642.494l-2.836-.746ZM10.467,20.905a1.583,1.583,0,1,1-1.583-1.581A1.584,1.584,0,0,1,10.467,20.905ZM2.38,20.2l3.049.8a3.455,3.455,0,0,0,5.052,2.972l5.859,6.225a3.444,3.444,0,0,0,.311,3.89l-6.559,9.657Zm9.212,24.675,6.59-9.7a3.451,3.451,0,0,0,3.658-.874l8.494,4.353A3.456,3.456,0,0,0,34.965,42.6L36.543,44.9Zm20.539-5.5a1.583,1.583,0,1,1,1.583,1.581A1.584,1.584,0,0,1,32.131,39.374ZM38,43.707l-1.533-2.242a3.45,3.45,0,0,0-.973-5.055l.7-2.867a.937.937,0,0,0-.69-1.132.947.947,0,0,0-.222-.027.935.935,0,0,0-.909.715s-.684,2.819-.684,2.819a3.452,3.452,0,0,0-.918.133L25.537,25.483,35.17,22.95A3.482,3.482,0,0,0,36.5,24.291l-.148.611a.938.938,0,0,0,1.822.442l.149-.613a3.461,3.461,0,0,0,3.326-3.453c0-.011,0-.021,0-.032L45.643,20.2Z" fill="#babdc0"/>
      <circle id="Ellipse_1636" data-name="Ellipse 1636" cx="0.938" cy="0.938" r="0.938" transform="translate(35.813 10.5)" fill="#babdc0"/>
      <circle id="Ellipse_1637" data-name="Ellipse 1637" cx="0.938" cy="0.938" r="0.938" transform="translate(35.334 28.285)" fill="#babdc0"/>
    </g>
  </g>
</svg>
