<svg id="Icon_Thumbsdown_Selected" data-name="Icon/Thumbsdown/Selected" xmlns="http://www.w3.org/2000/svg" width="24" height="24" viewBox="0 0 24 24">
  <path id="Path_108940" data-name="Path 108940" d="M0,0H24V24H0Z" fill="none"/>
  <g id="like_1_" data-name="like (1)" transform="translate(-28 -1.582)">
    <g id="Group_37909" data-name="Group 37909" transform="translate(31 4.583)">
      <g id="Group_37908" data-name="Group 37908">
        <path id="Path_108939" data-name="Path 108939" d="M31.468,99.5A2.033,2.033,0,0,0,31,100.8a1.9,1.9,0,0,0,1.832,1.961h3.555a13.5,13.5,0,0,0-.5,3.312v.653a2.536,2.536,0,0,0,2.442,2.614h.611a.62.62,0,0,0,.592-.495l.333-1.424c.466-1.995,1.946-4.2,3.477-4.6a1.841,1.841,0,0,0,1.7,1.243h3.663a.633.633,0,0,0,.611-.654V91.654A.633.633,0,0,0,48.707,91H45.043a1.829,1.829,0,0,0-1.653,1.118l-2.1-.749A6.3,6.3,0,0,0,39.168,91H34.053a1.9,1.9,0,0,0-1.832,1.961,2.073,2.073,0,0,0,.129.722A1.948,1.948,0,0,0,31,95.575a2.033,2.033,0,0,0,.468,1.307,2.061,2.061,0,0,0,0,2.614Zm12.965-6.536a.634.634,0,0,1,.611-.654H48.1v10.457H45.043a.634.634,0,0,1-.611-.654Zm-10.38,5.882H32.832a.655.655,0,0,1,0-1.307h1.221a.655.655,0,0,0,0-1.307H32.832a.655.655,0,0,1,0-1.307h1.221a.655.655,0,0,0,0-1.307.655.655,0,0,1,0-1.307h5.115a5.156,5.156,0,0,1,1.738.3l2.306.823v8.087a4.9,4.9,0,0,0-2.742,1.907,9.787,9.787,0,0,0-1.792,3.681l-.217.929h-.134a1.268,1.268,0,0,1-1.221-1.307v-.653a10.989,10.989,0,0,1,.585-3.312h1.247a.655.655,0,0,0,0-1.307H32.832a.655.655,0,0,1,0-1.307h1.221a.655.655,0,0,0,0-1.307Z" transform="translate(-31 -91)" fill="#1890ff"/>
      </g>
    </g>
    <g id="Group_37911" data-name="Group 37911" transform="translate(46.069 7.19)">
      <g id="Group_37910" data-name="Group 37910">
        <circle id="Ellipse_1695" data-name="Ellipse 1695" cx="0.435" cy="0.435" r="0.435" fill="#1890ff"/>
      </g>
    </g>
  </g>
</svg>
