<svg id="Icon_GoogleCalendar" data-name="Icon/GoogleCalendar" xmlns="http://www.w3.org/2000/svg" width="24" height="24" viewBox="0 0 24 24">
  <rect id="Rectangle_10123" data-name="Rectangle 10123" width="24" height="24" fill="none"/>
  <g id="google-calendar_1_" data-name="google-calendar (1)" transform="translate(3.69 4)">
    <path id="Path_101718" data-name="Path 101718" d="M13.027,127.643h2.459l.835-4.005A1.409,1.409,0,0,0,14.927,122H1.723a1.408,1.408,0,0,0-1.391,1.657l.831,3.986H3.623a.47.47,0,1,1,0,.94H1.163l-.835,4.005a1.409,1.409,0,0,0,1.395,1.638h13.2a1.408,1.408,0,0,0,1.391-1.657l-.831-3.986H13.027a.47.47,0,1,1,0-.94Zm-4.7,1.881a1.881,1.881,0,0,1-3.654.627.47.47,0,0,1,.886-.313.941.941,0,1,0,.887-1.254H5.86a.47.47,0,1,1,0-.94h.585a.94.94,0,1,0-.887-1.254.47.47,0,1,1-.886-.313,1.881,1.881,0,1,1,3.016,2.038A1.877,1.877,0,0,1,8.325,129.524Zm3.292,1.411a.47.47,0,1,1-.94,0V126.17l-.68.453a.47.47,0,1,1-.522-.783l1.411-.94a.47.47,0,0,1,.731.391Z" transform="translate(0 -118.175)" fill="#1b2631"/>
    <path id="Path_101719" data-name="Path 101719" d="M32.691,1.411V2.821H46.8V1.411A1.412,1.412,0,0,0,45.387,0H34.1A1.412,1.412,0,0,0,32.691,1.411ZM44.447.94a.47.47,0,1,1-.47.47A.47.47,0,0,1,44.447.94Zm-9.4,0a.47.47,0,1,1-.47.47A.47.47,0,0,1,35.042.94Z" transform="translate(-31.366)" fill="#1b2631"/>
  </g>
</svg>
