<svg id="Icon_Workshop_Empty" data-name="Icon/Workshop/Empty" xmlns="http://www.w3.org/2000/svg" xmlns:xlink="http://www.w3.org/1999/xlink" width="64" height="64" viewBox="0 0 64 64">
  <defs>
    <clipPath id="clip-path">
      <rect id="Rectangle_10106" data-name="Rectangle 10106" width="64" height="64" transform="translate(8615 -23237)" fill="#babdc0" stroke="#707070" stroke-width="1"/>
    </clipPath>
  </defs>
  <g id="Mask_Group_732" data-name="Mask Group 732" transform="translate(-8615 23237)" clip-path="url(#clip-path)">
    <g id="event_1_" data-name="event (1)" transform="translate(8616 -23236.008)">
      <g id="Group_37523" data-name="Group 37523" transform="translate(7.152 7)">
        <g id="Group_37522" data-name="Group 37522">
          <path id="Path_108285" data-name="Path 108285" d="M43.809,5.267q-.149-.006-.3,0H39.767V2.048A2.274,2.274,0,0,0,37.251,0H33.8a2.015,2.015,0,0,0-2.223,2.048V5.265H17.536V2.048A2.015,2.015,0,0,0,15.313,0H11.861A2.274,2.274,0,0,0,9.346,2.048V5.265H5.6A4.329,4.329,0,0,0,1.153,9.472q0,.149,0,.3V43.584c0,2.574,1.872,4.973,4.446,4.973h37.91c2.574,0,4.446-2.4,4.446-4.973V9.77A4.329,4.329,0,0,0,43.809,5.267ZM33.8,2.34h3.627V8.775H33.8Zm-21.938,0H15.2V8.775H11.861V2.34ZM45.617,43.584c0,1.287-.819,2.633-2.106,2.633H5.6c-1.287,0-2.106-1.346-2.106-2.633V18.721H45.617Zm0-33.814V16.38H3.5V9.77A1.989,1.989,0,0,1,5.6,7.605H9.346V8.892a2.408,2.408,0,0,0,2.516,2.223h3.452a2.165,2.165,0,0,0,2.223-2.1q0-.059,0-.119V7.605H31.577V8.892a2.165,2.165,0,0,0,2.1,2.223q.059,0,.119,0h3.452a2.408,2.408,0,0,0,2.516-2.223V7.605h3.744A1.989,1.989,0,0,1,45.617,9.77Z" transform="translate(-1.152)" fill="#babdc0"/>
          <path id="Path_108286" data-name="Path 108286" d="M21.974,41.608l-1.053,5.85a1.17,1.17,0,0,0,1.7,1.228l5.265-2.75,5.265,2.75.527.117a1.111,1.111,0,0,0,.7-.234,1.17,1.17,0,0,0,.468-1.112l-1.053-5.85,4.271-4.1a1.287,1.287,0,0,0,.292-1.228,1.229,1.229,0,0,0-.936-.761l-5.85-.878-2.633-5.324a1.17,1.17,0,0,0-2.106,0L24.2,34.646l-5.85.878a1.229,1.229,0,0,0-.936.761,1.287,1.287,0,0,0,.292,1.228Zm3.218-4.739a1.053,1.053,0,0,0,.819-.644l1.872-3.744,1.872,3.744a1.053,1.053,0,0,0,.819.644l4.154.585-2.984,2.867a1.229,1.229,0,0,0-.351,1.053l.7,4.154-3.686-1.989-.527-.117-.527.117L23.67,45.527l.7-4.154a1.228,1.228,0,0,0-.351-1.053l-2.984-2.867Z" transform="translate(-5.063 -6.916)" fill="#babdc0"/>
        </g>
      </g>
    </g>
  </g>
</svg>
