<svg id="Icon_AppleCalendar" data-name="Icon/AppleCalendar" xmlns="http://www.w3.org/2000/svg" width="24" height="24" viewBox="0 0 24 24">
  <rect id="Rectangle_10122" data-name="Rectangle 10122" width="24" height="24" fill="none"/>
  <g id="apple" transform="translate(5 4)">
    <path id="Path_101713" data-name="Path 101713" d="M50.58,130.858c-2.495-.014-4.558-5.107-4.558-7.7,0-4.236,3.178-5.164,4.4-5.164a5.066,5.066,0,0,1,1.661.409,3.713,3.713,0,0,0,.949.272,2.952,2.952,0,0,0,.68-.221,5.454,5.454,0,0,1,2.051-.5h0a4.2,4.2,0,0,1,3.518,1.777l.257.386-.369.279a3.107,3.107,0,0,0-1.49,2.562,2.892,2.892,0,0,0,1.614,2.674c.231.139.47.282.47.6,0,.2-1.634,4.6-4.008,4.6a3.223,3.223,0,0,1-1.353-.328,2.744,2.744,0,0,0-1.2-.29,3.1,3.1,0,0,0-.954.258,4.672,4.672,0,0,1-1.654.386Z" transform="translate(-46.022 -114.096)" fill="#1b2631"/>
    <path id="Path_101714" data-name="Path 101714" d="M258.3,0c.062,2.229-1.532,3.775-3.124,3.678A3.551,3.551,0,0,1,258.3,0Z" transform="translate(-248.308)" fill="#1b2631"/>
  </g>
</svg>
