<svg id="Icon_Reflection_Empty" data-name="Icon/Reflection/Empty" xmlns="http://www.w3.org/2000/svg" xmlns:xlink="http://www.w3.org/1999/xlink" width="64" height="64" viewBox="0 0 64 64">
  <defs>
    <clipPath id="clip-path">
      <rect id="Rectangle_10108" data-name="Rectangle 10108" width="64" height="64" transform="translate(0 -23153)" fill="#babdc0" stroke="#707070" stroke-width="1"/>
    </clipPath>
  </defs>
  <g id="Group_734" data-name="Group 734" transform="translate(0 23153)" clip-path="url(#clip-path)">
    <g id="notebook_1_" data-name="notebook (1)" transform="translate(1 -23152.852)">
      <g id="Group_37633" data-name="Group 37633" transform="translate(9 7.852)">
        <path id="Path_108297" data-name="Path 108297" d="M38.777,52.638H35a.935.935,0,1,0,0,1.869h3.78a.935.935,0,1,0,0-1.869Z" transform="translate(-10.654 -13.278)" fill="#babdc0"/>
        <path id="Path_108298" data-name="Path 108298" d="M30.474,53.215a.934.934,0,1,0-.361,1.146.942.942,0,0,0,.361-1.146Z" transform="translate(-9.296 -13.278)" fill="#babdc0"/>
        <path id="Path_108299" data-name="Path 108299" d="M44.48,14.373l.449-.449a4.445,4.445,0,0,0-6.287-6.287l-1.23,1.23V5.423a3.582,3.582,0,0,0-3.546-3.546H30.289V.935a.935.935,0,0,0-1.869,0v.943H24.157V.935a.935.935,0,0,0-1.869,0v.943H18.026V.935a.935.935,0,0,0-1.869,0v.943H11.894V.935a.935.935,0,0,0-1.869,0v.943H6.3A3.55,3.55,0,0,0,2.759,5.423V44.31A3.55,3.55,0,0,0,6.3,47.856H33.867a3.55,3.55,0,0,0,3.546-3.546V21.441L43.158,15.7l.676.676a2.689,2.689,0,0,1,0,3.8l-5.05,5.05a.935.935,0,0,0,1.322,1.322l5.05-5.05a4.561,4.561,0,0,0,0-6.442ZM29.869,26.34,26.226,22.7,38.194,10.73l3.643,3.643ZM22.9,32.357a75.978,75.978,0,0,1-6.781,4.094,50.56,50.56,0,0,1,8.795-12.426l3.631,3.631a50.521,50.521,0,0,1-5.645,4.7ZM41.786,8.2a2.559,2.559,0,0,1,1.822.755,2.6,2.6,0,0,1,0,3.643l-.449.449L39.515,9.408l.449-.449A2.559,2.559,0,0,1,41.786,8.2ZM4.629,5.423A1.678,1.678,0,0,1,6.3,3.747h3.72V4.814a.935.935,0,0,0,1.869,0V3.747h4.262V4.814a.935.935,0,0,0,1.869,0V3.747h4.262V4.814a.935.935,0,0,0,1.869,0V3.747H28.42V4.814a.935.935,0,0,0,1.869,0V3.747h3.578a1.694,1.694,0,0,1,1.676,1.676v4.664H4.629ZM35.543,44.31a1.678,1.678,0,0,1-1.676,1.676H6.3A1.678,1.678,0,0,1,4.629,44.31V11.957H34.323l-5.954,5.954H9.43a.935.935,0,1,0,0,1.869H26.5l-2.255,2.255h0q-1.462,1.462-2.8,3.024H9.43a.935.935,0,1,0,0,1.869H19.921a52.075,52.075,0,0,0-3.611,5.28H9.43a.935.935,0,1,0,0,1.869h5.815q-1,1.846-1.86,3.78l-1.506,1.5H9.43a.935.935,0,1,0,0,1.869h9.51a.935.935,0,1,0,0-1.869H14.528l.178-.177a52.376,52.376,0,0,0,9-5.1H30.88a.935.935,0,1,0,0-1.869H26.188a52.665,52.665,0,0,0,4.343-3.887l5.012-5.012Z" transform="translate(-2.759)" fill="#babdc0"/>
      </g>
    </g>
  </g>
</svg>
