<svg id="Icon_CircleArrow_Right" data-name="Icon/CircleArrow/Right" xmlns="http://www.w3.org/2000/svg" width="26" height="26" viewBox="0 0 26 26">
  <g id="Path_101228" data-name="Path 101228" transform="translate(0 0)" fill="#fff">
    <path d="M 13 25.5 C 9.661129951477051 25.5 6.52209997177124 24.19976997375488 4.16117000579834 21.83883094787598 C 1.800230026245117 19.4778995513916 0.5 16.33886909484863 0.5 13 C 0.5 9.661129951477051 1.800230026245117 6.52209997177124 4.16117000579834 4.16117000579834 C 6.52209997177124 1.800230026245117 9.661129951477051 0.5 13 0.5 C 16.33886909484863 0.5 19.4778995513916 1.800230026245117 21.83883094787598 4.16117000579834 C 24.19976997375488 6.52209997177124 25.5 9.661129951477051 25.5 13 C 25.5 16.33886909484863 24.19976997375488 19.4778995513916 21.83883094787598 21.83883094787598 C 19.4778995513916 24.19976997375488 16.33886909484863 25.5 13 25.5 Z" stroke="none"/>
    <path d="M 13 1 C 9.794679641723633 1 6.781219482421875 2.248220443725586 4.514720916748047 4.514720916748047 C 2.248220443725586 6.781219482421875 1 9.794679641723633 1 13 C 1 16.20532035827637 2.248220443725586 19.21878051757812 4.514720916748047 21.48527908325195 C 6.781219482421875 23.75177955627441 9.794679641723633 25 13 25 C 16.20532035827637 25 19.21878051757812 23.75177955627441 21.48527908325195 21.48527908325195 C 23.75177955627441 19.21878051757812 25 16.20532035827637 25 13 C 25 9.794679641723633 23.75177955627441 6.781219482421875 21.48527908325195 4.514720916748047 C 19.21878051757812 2.248220443725586 16.20532035827637 1 13 1 M 13 0 C 20.1796989440918 0 26 5.82029914855957 26 13 C 26 20.1796989440918 20.1796989440918 26 13 26 C 5.82029914855957 26 0 20.1796989440918 0 13 C 0 5.82029914855957 5.82029914855957 0 13 0 Z" stroke="none" fill="#e0e0e0"/>
  </g>
  <g id="up" transform="translate(5 21) rotate(-90)">
    <rect id="矩形" width="16" height="16" opacity="0"/>
  </g>
  <path id="路径" d="M11.75,0H10.578a.452.452,0,0,0-.2.1L5.938,6.222,1.5.1A.251.251,0,0,0,1.3,0H.125a.125.125,0,0,0-.1.2l5.509,7.6a.5.5,0,0,0,.808,0L11.85.2A.124.124,0,0,0,11.75,0Z" transform="translate(9 18.875) rotate(-90)"/>
</svg>
