<svg id="Icon_Action_Empty" data-name="Icon/Action/Empty" xmlns="http://www.w3.org/2000/svg" xmlns:xlink="http://www.w3.org/1999/xlink" width="64" height="64" viewBox="0 0 64 64">
  <defs>
    <clipPath id="clip-path">
      <rect id="Rectangle_10113" data-name="Rectangle 10113" width="64" height="64" transform="translate(9600 -23155)" fill="#babdc0" stroke="#707070" stroke-width="1"/>
    </clipPath>
  </defs>
  <g id="Mask_Group_737" data-name="Mask Group 737" transform="translate(-9600 23155)" clip-path="url(#clip-path)">
    <g id="flag_2_" data-name="flag (2)" transform="translate(9605 -23147)">
      <g id="Group_37524" data-name="Group 37524" transform="translate(12 0)">
        <path id="Path_108313" data-name="Path 108313" d="M41.568,35.216a3.014,3.014,0,0,0-.887-2.2,3.262,3.262,0,0,0-1.106-.733,3.28,3.28,0,0,0,.4-1.5,2.942,2.942,0,0,0-.872-2.156,3.173,3.173,0,0,0-1.352-.805V2.772a2.772,2.772,0,0,0-5.385-.924H12.924a.924.924,0,0,0-.743,1.474l5.065,6.842-5.065,6.842a.924.924,0,0,0,.743,1.474H32.2v5.991c-.1-.059-.193-.118-.3-.177l-.04-.022c-.071-.037-.148-.078-.231-.122a4.913,4.913,0,0,0-4.176-.613,11.14,11.14,0,0,0-4.323,2.846,4.465,4.465,0,0,1-3.167,1.647.924.924,0,0,0-.906-.74H12.924a.924.924,0,0,0-.924.924V45.594a.924.924,0,0,0,.924.924h6.143a.924.924,0,0,0,.9-.724,20.309,20.309,0,0,1,2.932.662,16.335,16.335,0,0,0,4.327.787H33.4l1.546.065.125,0a3.077,3.077,0,0,0,2.12-.853,2.863,2.863,0,0,0,.9-2.079,3.191,3.191,0,0,0-.3-1.349,3.157,3.157,0,0,0,1.2-.718,2.937,2.937,0,0,0,.923-2.133,3.25,3.25,0,0,0-.6-1.893,3.269,3.269,0,0,0,2.251-3.068Zm-3.442-4.477a1.306,1.306,0,0,1-1.237,1.322h-.005l-2.856.07a9.157,9.157,0,0,1,.1-2.545l2.715-.045a1.31,1.31,0,0,1,.95.387,1.11,1.11,0,0,1,.336.81ZM34.976,1.848a.925.925,0,0,1,.924.924V27.708l-1.489.024A2.943,2.943,0,0,0,34.24,26.6a2.865,2.865,0,0,0-.187-.4V2.772A.925.925,0,0,1,34.976,1.848ZM14.758,16.632l4.381-5.918a.924.924,0,0,0,0-1.1L14.758,3.7H32.2V16.632Zm8.636,28.042a20.657,20.657,0,0,0-3.4-.737V41.062a.924.924,0,0,0-1.848,0v3.608H13.848V29.138h4.295v3.607a.924.924,0,0,0,1.848,0V29.883A6.2,6.2,0,0,0,24.436,27.7a9.294,9.294,0,0,1,3.678-2.434,3.2,3.2,0,0,1,2.649.512l.24.127a3.285,3.285,0,0,1,1.5,1.335,2.653,2.653,0,0,1-.078,1.353c-.032.16-.064.325-.094.5a10.986,10.986,0,0,0-.074,3.791c.022.159.041.3.052.418a.891.891,0,0,1-.433.134,1.526,1.526,0,0,1-1.137-.385,2.5,2.5,0,0,1-.9-2.03,8.939,8.939,0,0,0-.151-1.1.924.924,0,0,0-1.807.389,7.238,7.238,0,0,1,.117.877,5.547,5.547,0,0,0,.316,1.59,5.339,5.339,0,0,1-4.534,3.2.924.924,0,0,0,0,1.848A6.985,6.985,0,0,0,27.3,36.7a3.117,3.117,0,0,0,.629.9l.025.023a2.933,2.933,0,0,0-.879,2.09,3.194,3.194,0,0,0,1.718,2.861,2.829,2.829,0,0,0-.41,1.47,3.19,3.19,0,0,0,.3,1.347H27.227a14.755,14.755,0,0,1-3.834-.72Zm12.522.448a1.217,1.217,0,0,1-.889.338l-3.677-.154a1.217,1.217,0,0,1-1.121-1.259,1.031,1.031,0,0,1,.33-.745,1.22,1.22,0,0,1,.84-.339h.048l3.678.154h0a1.217,1.217,0,0,1,1.121,1.259A1.031,1.031,0,0,1,35.915,45.123Zm1.8-4.146a1.3,1.3,0,0,1-.949.36l-1.56-.065h0l-3.678-.154-1.406-.059a1.3,1.3,0,0,1-1.2-1.342,1.106,1.106,0,0,1,.354-.8,1.3,1.3,0,0,1,.912-.36h.059l6.627.278a1.3,1.3,0,0,1,1.2,1.342A1.106,1.106,0,0,1,37.715,40.977Zm.687-4.4c-1.157.022-2.646.044-4.087.065s-2.911.043-4.064.064h-.022a1.4,1.4,0,0,1-.994-.409,1.19,1.19,0,0,1-.361-.87c0-.007,0-.014,0-.021v-.036a6.282,6.282,0,0,0,.675-.912,3.324,3.324,0,0,0,2.2.825,3.011,3.011,0,0,0,1.287-.276,1.967,1.967,0,0,0,1.011-1.031l2.881-.07,1.419-.015h.015a1.421,1.421,0,0,1,1.007.42,1.181,1.181,0,0,1,.354.86A1.391,1.391,0,0,1,38.4,36.58Z" transform="translate(-12 0)" fill="#babdc0"/>
        <path id="Path_108314" data-name="Path 108314" d="M21.234,48.673a.924.924,0,1,0,.924.924h0A.924.924,0,0,0,21.234,48.673Z" transform="translate(-14.167 -12.693)" fill="#babdc0"/>
      </g>
    </g>
  </g>
</svg>
