<svg id="Icon_Action" data-name="Icon/Action" xmlns="http://www.w3.org/2000/svg" xmlns:xlink="http://www.w3.org/1999/xlink" width="64" height="64" viewBox="0 0 64 64">
  <defs>
    <clipPath id="clip-path">
      <rect id="Rectangle_9897" data-name="Rectangle 9897" width="48" height="48" transform="translate(-3871 -19170)" fill="none"/>
    </clipPath>
  </defs>
  <g id="Group_24931" data-name="Group 24931" transform="translate(3871 19170)" opacity="0.7">
    <rect id="Rectangle_9897-2" data-name="Rectangle 9897" width="64" height="64" transform="translate(-3871 -19170)" fill="none"/>
  </g>
  <g id="Group_37526" data-name="Group 37526" transform="translate(3879 19178)">
    <g id="Mask_Group_738" data-name="Mask Group 738" clip-path="url(#clip-path)">
      <g id="flag_2_" data-name="flag (2)" transform="translate(-3871 -19170)">
        <g id="Group_37527" data-name="Group 37527">
          <path id="Path_108316" data-name="Path 108316" d="M39,35.73a3.058,3.058,0,0,0-.9-2.233,3.31,3.31,0,0,0-1.122-.744,3.328,3.328,0,0,0,.4-1.522,2.985,2.985,0,0,0-.885-2.187,3.219,3.219,0,0,0-1.372-.817V2.812a2.812,2.812,0,0,0-5.464-.937H9.938a.938.938,0,0,0-.754,1.5l5.138,6.942L9.184,17.255a.938.938,0,0,0,.754,1.5H29.5v6.079c-.1-.06-.2-.119-.3-.18l-.041-.022c-.072-.037-.15-.079-.234-.124a4.985,4.985,0,0,0-4.236-.622A11.3,11.3,0,0,0,20.3,26.769a4.53,4.53,0,0,1-3.214,1.671.938.938,0,0,0-.919-.751H9.937A.938.938,0,0,0,9,28.626V46.259a.938.938,0,0,0,.937.937H16.17a.937.937,0,0,0,.915-.735,20.605,20.605,0,0,1,2.975.672,16.574,16.574,0,0,0,4.39.8h6.266L32.283,48c.042,0,.085,0,.127,0a3.122,3.122,0,0,0,2.151-.865,2.9,2.9,0,0,0,.912-2.11,3.238,3.238,0,0,0-.3-1.368,3.2,3.2,0,0,0,1.214-.728,2.98,2.98,0,0,0,.936-2.164,3.3,3.3,0,0,0-.609-1.921A3.317,3.317,0,0,0,39,35.73Zm-3.493-4.542a1.326,1.326,0,0,1-1.255,1.342h-.006l-2.9.071a9.291,9.291,0,0,1,.1-2.582l2.755-.045a1.329,1.329,0,0,1,.964.393,1.126,1.126,0,0,1,.341.822ZM32.312,1.875a.939.939,0,0,1,.937.937v25.3l-1.511.025a2.986,2.986,0,0,0-.174-1.148,2.907,2.907,0,0,0-.19-.409V2.812A.938.938,0,0,1,32.312,1.875Zm-20.514,15,4.444-6a.937.937,0,0,0,0-1.115l-4.444-6H29.5V16.875ZM20.56,45.326a20.959,20.959,0,0,0-3.452-.748V41.661a.937.937,0,0,0-1.875,0v3.661H10.875V29.564h4.357v3.66a.937.937,0,1,0,1.875,0v-2.9A6.291,6.291,0,0,0,21.618,28.1a9.43,9.43,0,0,1,3.731-2.469,3.249,3.249,0,0,1,2.688.52l.244.129a3.333,3.333,0,0,1,1.524,1.355,2.692,2.692,0,0,1-.08,1.372c-.032.162-.065.33-.1.5a11.146,11.146,0,0,0-.075,3.846c.022.162.042.3.052.424a.9.9,0,0,1-.439.136,1.549,1.549,0,0,1-1.154-.391,2.537,2.537,0,0,1-.915-2.059,9.07,9.07,0,0,0-.153-1.112.938.938,0,0,0-1.833.395,7.344,7.344,0,0,1,.119.889,5.628,5.628,0,0,0,.32,1.613,5.417,5.417,0,0,1-4.6,3.248.937.937,0,1,0,0,1.875,7.087,7.087,0,0,0,3.568-1.145,3.162,3.162,0,0,0,.638.917l.025.024a2.976,2.976,0,0,0-.892,2.12,3.24,3.24,0,0,0,1.743,2.9,2.87,2.87,0,0,0-.416,1.491,3.236,3.236,0,0,0,.3,1.366H24.449a14.971,14.971,0,0,1-3.89-.73Zm12.7.455a1.235,1.235,0,0,1-.9.343l-3.731-.156a1.235,1.235,0,0,1-1.138-1.277,1.046,1.046,0,0,1,.335-.756,1.237,1.237,0,0,1,.852-.344h.048l3.732.156h0A1.234,1.234,0,0,1,33.6,45.025,1.047,1.047,0,0,1,33.264,45.781Zm1.826-4.206a1.319,1.319,0,0,1-.963.366l-1.583-.066h0l-3.732-.156-1.427-.06A1.317,1.317,0,0,1,26.166,40.3a1.122,1.122,0,0,1,.359-.811,1.316,1.316,0,0,1,.925-.365h.06l6.724.282a1.317,1.317,0,0,1,1.215,1.362A1.122,1.122,0,0,1,35.09,41.575Zm.7-4.461c-1.174.022-2.685.044-4.146.066s-2.953.044-4.123.065H27.5a1.419,1.419,0,0,1-1.008-.415,1.208,1.208,0,0,1-.366-.882c0-.007,0-.014,0-.022v-.036a6.374,6.374,0,0,0,.685-.925,3.373,3.373,0,0,0,2.228.837,3.055,3.055,0,0,0,1.306-.28,2,2,0,0,0,1.025-1.046l2.923-.072,1.44-.015h.015a1.442,1.442,0,0,1,1.021.426,1.2,1.2,0,0,1,.359.872,1.412,1.412,0,0,1-1.337,1.427Z" fill="#1b2631"/>
          <path id="Path_108317" data-name="Path 108317" d="M16.17,36.5a.938.938,0,1,0,.937.938h0A.937.937,0,0,0,16.17,36.5Z" fill="#1b2631"/>
        </g>
      </g>
    </g>
  </g>
</svg>
