<svg id="Icon_Reflection" data-name="Icon/Reflection" xmlns="http://www.w3.org/2000/svg" xmlns:xlink="http://www.w3.org/1999/xlink" width="64" height="64" viewBox="0 0 64 64">
  <defs>
    <clipPath id="clip-path">
      <rect id="Rectangle_10114" data-name="Rectangle 10114" width="48" height="48" transform="translate(8 8)" fill="none"/>
    </clipPath>
  </defs>
  <rect id="Rectangle_9898" data-name="Rectangle 9898" width="64" height="64" fill="none"/>
  <g id="Mask_Group_739" data-name="Mask Group 739" clip-path="url(#clip-path)">
    <g id="notebook_1_" data-name="notebook (1)" transform="translate(8 8)">
      <path id="Path_108318" data-name="Path 108318" d="M30.275,39.478H26.484a.937.937,0,1,0,0,1.875h3.792a.937.937,0,1,0,0-1.875Z"/>
      <path id="Path_108319" data-name="Path 108319" d="M23.31,40.057a.937.937,0,1,0-.362,1.149.945.945,0,0,0,.362-1.149Z"/>
      <path id="Path_108320" data-name="Path 108320" d="M43.916,14.416l.45-.45a4.459,4.459,0,0,0-6.306-6.306L36.827,8.894V5.44a3.592,3.592,0,0,0-3.556-3.556H29.682V.937a.937.937,0,1,0-1.875,0v.946H23.532V.937a.937.937,0,1,0-1.875,0v.946H17.382V.937a.937.937,0,0,0-1.875,0v.946H11.232V.937a.937.937,0,1,0-1.875,0v.946H5.626A3.56,3.56,0,0,0,2.069,5.44v39A3.56,3.56,0,0,0,5.626,48H33.271a3.56,3.56,0,0,0,3.556-3.556V21.506l5.764-5.764.678.678a2.7,2.7,0,0,1,0,3.81L38.2,25.3a.938.938,0,0,0,1.326,1.326l5.065-5.065a4.574,4.574,0,0,0,0-6.462Zm-14.655,12-3.654-3.654,12-12,3.654,3.654Zm-6.994,6.035a76.206,76.206,0,0,1-6.8,4.106A50.713,50.713,0,0,1,24.288,24.1l3.642,3.642a50.672,50.672,0,0,1-5.662,4.715ZM41.213,8.23a2.567,2.567,0,0,1,1.827.757,2.608,2.608,0,0,1,0,3.654l-.45.45L38.936,9.436l.45-.45A2.567,2.567,0,0,1,41.213,8.23ZM3.944,5.44A1.683,1.683,0,0,1,5.626,3.758H9.357v1.07a.937.937,0,0,0,1.875,0V3.759h4.275v1.07a.937.937,0,0,0,1.875,0V3.759h4.275v1.07a.937.937,0,0,0,1.875,0V3.759h4.275v1.07a.937.937,0,0,0,1.875,0V3.759h3.588A1.7,1.7,0,0,1,34.952,5.44v4.678H3.944Zm31.007,39a1.683,1.683,0,0,1-1.681,1.681H5.626a1.683,1.683,0,0,1-1.681-1.681V11.993H33.728l-5.972,5.972h-19a.937.937,0,0,0,0,1.875h17.12L23.618,22.1h0q-1.466,1.466-2.805,3.033H8.76a.937.937,0,0,0,0,1.875H19.283a52.231,52.231,0,0,0-3.622,5.3H8.76a.937.937,0,0,0,0,1.875h5.832q-1,1.851-1.865,3.791l-1.51,1.5H8.76a.937.937,0,0,0,0,1.875H18.3a.937.937,0,1,0,0-1.875H13.873l.178-.178a52.534,52.534,0,0,0,9.024-5.118h7.2a.937.937,0,1,0,0-1.875H25.568a52.825,52.825,0,0,0,4.356-3.9l5.027-5.027Z"/>
    </g>
  </g>
</svg>
