<svg id="Icon_Outlook" data-name="Icon/Outlook" xmlns="http://www.w3.org/2000/svg" width="24" height="24" viewBox="0 0 24 24">
  <rect id="Rectangle_10121" data-name="Rectangle 10121" width="24" height="24" fill="none"/>
  <g id="outlook_1_" data-name="outlook (1)" transform="translate(4 4)">
    <path id="Path_101715" data-name="Path 101715" d="M263.857,112.011h-7.333a.524.524,0,0,0,0,1.048h5.807l-3.218,2.5-2.308-1.468-.562.884,2.619,1.666a.524.524,0,0,0,.6-.028l3.869-3.01v6.786h-6.81a.524.524,0,0,0,0,1.048h7.333a.524.524,0,0,0,.524-.524v-8.381A.524.524,0,0,0,263.857,112.011Z" transform="translate(-247.619 -108.867)" fill="#1b2631"/>
    <path id="Subtraction_69" data-name="Subtraction 69" d="M-8177.1,21489.717a.353.353,0,0,1-.092-.014l-8.386-1.572a.517.517,0,0,1-.426-.514v-11.52a.52.52,0,0,1,.426-.516l8.386-1.57a.594.594,0,0,1,.1-.012.512.512,0,0,1,.324.119.523.523,0,0,1,.194.4v14.664a.516.516,0,0,1-.194.4A.508.508,0,0,1-8177.1,21489.717Zm-4.19-10.475a2.917,2.917,0,0,0-2.616,3.139,2.92,2.92,0,0,0,2.616,3.145,2.922,2.922,0,0,0,2.621-3.145A2.919,2.919,0,0,0-8181.288,21479.242Zm0,5.236c-.865,0-1.569-.941-1.569-2.1s.7-2.092,1.569-2.092,1.575.939,1.575,2.092S-8180.419,21484.479-8181.288,21484.479Z" transform="translate(8186 -21474)" fill="#1b2631"/>
  </g>
</svg>
