<svg id="Icon_CompletedProgram_Empty" data-name="Icon/CompletedProgram/Empty" xmlns="http://www.w3.org/2000/svg" xmlns:xlink="http://www.w3.org/1999/xlink" width="64" height="64" viewBox="0 0 64 64">
  <defs>
    <clipPath id="clip-path">
      <rect id="Rectangle_10127" data-name="Rectangle 10127" width="48" height="48" transform="translate(10180 -23419)" fill="#babdc0" stroke="#707070" stroke-width="1"/>
    </clipPath>
  </defs>
  <rect id="Rectangle_10128" data-name="Rectangle 10128" width="64" height="64" fill="none"/>
  <g id="Mask_Group_741" data-name="Mask Group 741" transform="translate(-10172 23427)" clip-path="url(#clip-path)">
    <g id="check" transform="translate(10180 -23419)">
      <g id="Group_37626" data-name="Group 37626">
        <g id="Group_37625" data-name="Group 37625">
          <path id="Path_108689" data-name="Path 108689" d="M46.283,14.85A25.061,25.061,0,0,0,33.375,1.943a23.053,23.053,0,0,0-18.525,0A25.061,25.061,0,0,0,1.943,14.85a23.053,23.053,0,0,0,0,18.525A25.061,25.061,0,0,0,14.85,46.283a23.053,23.053,0,0,0,18.525,0A25.061,25.061,0,0,0,46.283,33.375a23.053,23.053,0,0,0,0-18.525ZM24.113,46.342A22.527,22.527,0,0,1,1.884,24.113,22.527,22.527,0,0,1,24.113,1.884,22.527,22.527,0,0,1,46.342,24.113,22.527,22.527,0,0,1,24.113,46.342Z" fill="#babdc0"/>
        </g>
      </g>
      <g id="Group_37628" data-name="Group 37628" transform="translate(4.05 4.05)">
        <g id="Group_37627" data-name="Group 37627">
          <path id="Path_108690" data-name="Path 108690" d="M43.9,17.7A20.607,20.607,0,0,0,33.18,6.979a19.477,19.477,0,0,0-7.742-1.6A19.909,19.909,0,0,0,14.517,8.952a.942.942,0,1,0,1.043,1.569,18.041,18.041,0,0,1,9.878-3.263A18.422,18.422,0,0,1,43.616,25.438,18.422,18.422,0,0,1,25.438,43.616,18.422,18.422,0,0,1,7.259,25.438a18.048,18.048,0,0,1,3.262-9.878.942.942,0,1,0-1.569-1.042A19.915,19.915,0,0,0,5.375,25.438a19.478,19.478,0,0,0,1.6,7.742A20.607,20.607,0,0,0,17.7,43.9a19.491,19.491,0,0,0,15.484,0A20.607,20.607,0,0,0,43.9,33.18a19.491,19.491,0,0,0,0-15.484Z" transform="translate(-5.375 -5.375)" fill="#babdc0"/>
        </g>
      </g>
      <g id="Group_37630" data-name="Group 37630" transform="translate(9.89 9.89)">
        <g id="Group_37629" data-name="Group 37629">
          <path id="Path_108691" data-name="Path 108691" d="M14.067,13.125a.942.942,0,1,0,.942.942A.942.942,0,0,0,14.067,13.125Z" transform="translate(-13.125 -13.125)" fill="#babdc0"/>
        </g>
      </g>
      <g id="Group_37632" data-name="Group 37632" transform="translate(11.868 15.636)">
        <g id="Group_37631" data-name="Group 37631">
          <path id="Path_108692" data-name="Path 108692" d="M39.136,21.854a3.766,3.766,0,0,0-5.328,0l-8.639,8.639-2.988-2.988a3.767,3.767,0,1,0-5.328,5.328l5.651,5.651a3.766,3.766,0,0,0,5.328,0l11.3-11.3a3.766,3.766,0,0,0,0-5.328Zm-1.332,4-11.3,11.3a1.882,1.882,0,0,1-2.664,0L18.186,31.5a1.883,1.883,0,1,1,2.664-2.663l4.32,4.32,9.971-9.971A1.883,1.883,0,1,1,37.8,25.849Z" transform="translate(-15.75 -20.75)" fill="#babdc0"/>
        </g>
      </g>
    </g>
  </g>
</svg>
