<svg id="Icon_ThumbsUp" data-name="Icon/ThumbsUp" xmlns="http://www.w3.org/2000/svg" width="24" height="24" viewBox="0 0 24 24">
  <rect id="Rectangle_10186" data-name="Rectangle 10186" width="24" height="24" fill="none"/>
  <g id="like_1_" data-name="like (1)" transform="translate(-28 -2.004)">
    <g id="Group_37909" data-name="Group 37909" transform="translate(31 4.583)">
      <g id="Group_37908" data-name="Group 37908">
        <path id="Path_108939" data-name="Path 108939" d="M49.333,101a2.05,2.05,0,0,0,.48-1.327,1.941,1.941,0,0,0-1.881-1.991H44.281a13.556,13.556,0,0,0,.516-3.363v-.663A2.588,2.588,0,0,0,42.288,91h-.627a.635.635,0,0,0-.608.5l-.342,1.446c-.479,2.025-2,4.26-3.571,4.666a1.889,1.889,0,0,0-1.75-1.262H31.627a.646.646,0,0,0-.627.664v11.944a.646.646,0,0,0,.627.664H35.39a1.879,1.879,0,0,0,1.7-1.135l2.155.76a6.54,6.54,0,0,0,2.182.375h5.254a1.941,1.941,0,0,0,1.881-1.991,2.083,2.083,0,0,0-.132-.733,1.98,1.98,0,0,0,1.386-1.921,2.05,2.05,0,0,0-.48-1.327,2.074,2.074,0,0,0,0-2.654Zm-13.316,6.636a.647.647,0,0,1-.627.664H32.254V97.68H35.39a.647.647,0,0,1,.627.664Zm10.661-5.972h1.254a.665.665,0,0,1,0,1.327H46.678a.665.665,0,0,0,0,1.327h1.254a.665.665,0,0,1,0,1.327H46.678a.665.665,0,0,0,0,1.327.665.665,0,0,1,0,1.327H41.424a5.351,5.351,0,0,1-1.785-.307l-2.368-.835V98.944a5.032,5.032,0,0,0,2.816-1.936,9.89,9.89,0,0,0,1.841-3.738l.223-.944h.138a1.294,1.294,0,0,1,1.254,1.327v.663a11.042,11.042,0,0,1-.6,3.363H41.661a.665.665,0,0,0,0,1.327h6.271a.665.665,0,0,1,0,1.327H46.678a.665.665,0,0,0,0,1.327Z" transform="translate(-31 -91)"/>
      </g>
    </g>
    <g id="Group_37911" data-name="Group 37911" transform="translate(34.232 19.694)">
      <g id="Group_37910" data-name="Group 37910" transform="translate(0 0)">
        <circle id="Ellipse_1695" data-name="Ellipse 1695" cx="0.439" cy="0.439" r="0.439" transform="translate(0 0)"/>
      </g>
    </g>
  </g>
</svg>
