<svg width="1440" height="950" viewBox="0 0 1440 950" fill="none" xmlns="http://www.w3.org/2000/svg">
<mask id="mask0" mask-type="alpha" maskUnits="userSpaceOnUse" x="0" y="0" width="1440" height="950">
<rect width="1440" height="950" fill="#C4C4C4"/>
</mask>
<g mask="url(#mask0)">
<g opacity="0.4">
<path d="M-84.0333 788.407L-84.0337 788.407C-84.4502 787.954 -84.7402 787.399 -84.8744 786.799C-85.0086 786.198 -84.9823 785.573 -84.7983 784.986C-84.7983 784.986 -84.7982 784.985 -84.7981 784.985L-55.935 693.051L-55.9349 693.05C-55.7507 692.463 -55.4153 691.935 -54.9623 691.518C-54.5093 691.102 -53.9547 690.812 -53.3542 690.678L-53.3535 690.678L40.6823 669.647C40.6825 669.647 40.6827 669.647 40.6829 669.647C41.2833 669.513 41.9084 669.539 42.4955 669.723C43.0827 669.907 43.6111 670.243 44.0274 670.696L44.0277 670.697L109.201 741.6L109.201 741.601C109.618 742.054 109.908 742.608 110.042 743.209C110.176 743.809 110.15 744.435 109.966 745.022C109.966 745.022 109.966 745.022 109.966 745.022L81.0969 836.953L81.0967 836.953C80.9125 837.54 80.5771 838.069 80.1241 838.485C79.6711 838.901 79.1165 839.191 78.516 839.325L78.5154 839.326L-15.5194 860.356C-15.5196 860.356 -15.5198 860.356 -15.52 860.356C-16.1198 860.49 -16.7441 860.464 -17.3306 860.28C-17.9169 860.096 -18.4446 859.762 -18.8609 859.31L-84.0333 788.407Z" stroke="#6AD4C8" stroke-width="4"/>
<path d="M101.118 857.593C100.464 856.882 100.009 856.011 99.7977 855.067C99.587 854.124 99.6283 853.142 99.9175 852.22L128.781 760.284C129.07 759.362 129.597 758.533 130.308 757.879C131.02 757.225 131.891 756.769 132.834 756.559L226.87 735.528C227.814 735.317 228.796 735.358 229.718 735.648C230.64 735.937 231.47 736.464 232.124 737.176L297.297 808.08C297.952 808.791 298.407 809.662 298.618 810.606C298.829 811.549 298.787 812.531 298.498 813.453L269.629 905.385C269.34 906.307 268.813 907.136 268.102 907.79C267.39 908.444 266.519 908.899 265.576 909.11L171.541 930.14C170.598 930.351 169.617 930.31 168.696 930.021C167.775 929.733 166.945 929.207 166.291 928.497L101.118 857.593Z" fill="#6AD5C8"/>
<path d="M-48.0087 985.194C-48.663 984.483 -49.1184 983.611 -49.3292 982.668C-49.54 981.725 -49.4987 980.743 -49.2094 979.82L-20.3461 887.885C-20.057 886.963 -19.5302 886.133 -18.8187 885.479C-18.1072 884.825 -17.2361 884.37 -16.293 884.16L77.7434 863.128C78.6868 862.918 79.669 862.959 80.5912 863.248C81.5135 863.538 82.3433 864.065 82.9973 864.777L148.17 935.68C148.825 936.392 149.28 937.263 149.491 938.206C149.702 939.15 149.66 940.132 149.371 941.054L120.502 1032.99C120.213 1033.91 119.686 1034.74 118.975 1035.39C118.263 1036.04 117.392 1036.5 116.449 1036.71L22.4135 1057.74C21.4713 1057.95 20.4904 1057.91 19.569 1057.62C18.6477 1057.33 17.8184 1056.81 17.1644 1056.1L-48.0087 985.194Z" fill="#15C3B1"/>
<path d="M246.767 724.587L246.767 724.586C246.351 724.133 246.061 723.578 245.926 722.978C245.792 722.377 245.818 721.752 246.002 721.165C246.003 721.165 246.003 721.165 246.003 721.165L274.866 629.23L274.866 629.229C275.05 628.642 275.385 628.114 275.838 627.698C276.291 627.281 276.846 626.991 277.447 626.857L277.447 626.857L371.483 605.826C371.483 605.826 371.483 605.826 371.484 605.826C372.084 605.692 372.709 605.718 373.296 605.903C373.883 606.087 374.412 606.422 374.828 606.876L374.829 606.876L440.002 677.78L440.002 677.78C440.419 678.233 440.708 678.788 440.843 679.388C440.977 679.989 440.951 680.614 440.767 681.201C440.767 681.201 440.767 681.201 440.766 681.202L411.898 773.132L411.897 773.133C411.713 773.72 411.378 774.248 410.925 774.664C410.472 775.081 409.917 775.371 409.317 775.505L409.316 775.505L315.281 796.535C315.281 796.535 315.281 796.535 315.281 796.535C314.681 796.669 314.057 796.643 313.47 796.459C312.884 796.276 312.356 795.941 311.94 795.49L246.767 724.587Z" stroke="#6AD4C8" stroke-width="4"/>
<path d="M140.623 1054.03C139.969 1053.32 139.513 1052.45 139.303 1051.51C139.092 1050.56 139.133 1049.58 139.422 1048.66L168.286 956.725C168.575 955.803 169.102 954.973 169.813 954.319C170.525 953.665 171.396 953.21 172.339 953L266.375 931.968C267.319 931.758 268.301 931.799 269.223 932.088C270.145 932.378 270.975 932.905 271.629 933.617L336.802 1004.52C337.456 1005.23 337.912 1006.1 338.123 1007.05C338.333 1007.99 338.292 1008.97 338.003 1009.89L309.134 1101.83C308.845 1102.75 308.318 1103.58 307.606 1104.23C306.895 1104.88 306.024 1105.34 305.081 1105.55L211.045 1126.58C210.103 1126.79 209.122 1126.75 208.201 1126.46C207.28 1126.17 206.45 1125.65 205.796 1124.94L140.623 1054.03Z" fill="#D0F3EF"/>
<path d="M63.1504 661.839C62.4962 661.128 62.0407 660.256 61.83 659.313C61.6192 658.37 61.6605 657.388 61.9497 656.465L90.813 564.53C91.1022 563.608 91.629 562.778 92.3405 562.124C93.052 561.47 93.923 561.015 94.8662 560.805L188.903 539.773C189.846 539.563 190.828 539.604 191.75 539.893C192.673 540.183 193.502 540.71 194.156 541.422L259.33 612.325C259.984 613.037 260.439 613.908 260.65 614.851C260.861 615.795 260.819 616.777 260.53 617.699L231.661 709.63C231.372 710.552 230.845 711.382 230.134 712.036C229.422 712.69 228.551 713.145 227.608 713.356L133.573 734.386C132.631 734.597 131.65 734.556 130.728 734.267C129.807 733.979 128.978 733.453 128.324 732.743L63.1504 661.839Z" fill="#D0F3EF"/>
<path d="M-161.645 405.857C-162.3 405.146 -162.755 404.274 -162.966 403.331C-163.177 402.388 -163.135 401.406 -162.846 400.483L-133.983 308.548C-133.694 307.626 -133.167 306.796 -132.455 306.142C-131.744 305.488 -130.873 305.033 -129.93 304.823L-35.8933 283.791C-34.9499 283.581 -33.9678 283.622 -33.0455 283.911C-32.1232 284.201 -31.2934 284.728 -30.6394 285.44L34.5337 356.343C35.1879 357.055 35.6433 357.926 35.8541 358.869C36.0649 359.813 36.0236 360.795 35.7344 361.717L6.86538 453.648C6.57621 454.57 6.04941 455.4 5.33793 456.054C4.62646 456.708 3.75537 457.163 2.81223 457.374L-91.2232 478.404C-92.1654 478.615 -93.1464 478.573 -94.0677 478.285C-94.989 477.997 -95.8183 477.471 -96.4724 476.761L-161.645 405.857Z" fill="#6AD5C8"/>
<path d="M-15.9962 272.85L-15.9965 272.85C-16.4131 272.397 -16.7031 271.842 -16.8373 271.242C-16.9714 270.641 -16.9452 270.016 -16.7612 269.429C-16.7612 269.429 -16.7611 269.428 -16.761 269.428L12.1021 177.494L12.1023 177.493C12.2864 176.906 12.6218 176.378 13.0748 175.961C13.5278 175.545 14.0824 175.255 14.6829 175.121L14.6836 175.121L108.719 154.09C108.72 154.09 108.72 154.09 108.72 154.09C109.32 153.956 109.946 153.982 110.533 154.166C111.12 154.35 111.648 154.686 112.065 155.139L112.065 155.14L177.238 226.043L177.238 226.044C177.655 226.497 177.945 227.051 178.079 227.652C178.213 228.252 178.187 228.878 178.003 229.465C178.003 229.465 178.003 229.465 178.003 229.465L149.134 321.396L149.134 321.396C148.95 321.983 148.614 322.512 148.161 322.928C147.708 323.344 147.154 323.634 146.553 323.768L146.552 323.769L52.5177 344.799C52.5175 344.799 52.5173 344.799 52.5171 344.799C51.9174 344.933 51.293 344.907 50.7066 344.723C50.1203 344.539 49.5925 344.205 49.1762 343.753L-15.9962 272.85Z" stroke="#6AD4C8" stroke-width="4"/>
<path d="M-122.141 602.298C-122.795 601.586 -123.25 600.715 -123.461 599.772C-123.672 598.828 -123.631 597.846 -123.341 596.924L-94.478 504.989C-94.1888 504.067 -93.662 503.237 -92.9505 502.583C-92.2391 501.929 -91.368 501.474 -90.4248 501.263L3.6116 480.232C4.55494 480.021 5.53712 480.063 6.45939 480.352C7.38165 480.641 8.21148 481.168 8.86544 481.88L74.0385 552.784C74.6928 553.495 75.1482 554.367 75.359 555.31C75.5698 556.253 75.5285 557.235 75.2392 558.158L46.3703 650.089C46.0811 651.011 45.5543 651.841 44.8428 652.495C44.1313 653.149 43.2603 653.604 42.3171 653.814L-51.7183 674.845C-52.6605 675.055 -53.6415 675.014 -54.5628 674.726C-55.4841 674.437 -56.3134 673.912 -56.9675 673.201L-122.141 602.298Z" fill="#D0F3EF"/>
<path d="M-199.613 210.103C-200.268 209.391 -200.723 208.52 -200.934 207.577C-201.144 206.633 -201.103 205.651 -200.814 204.729L-171.951 112.794C-171.661 111.872 -171.135 111.042 -170.423 110.388C-169.712 109.734 -168.841 109.279 -167.897 109.068L-73.8611 88.037C-72.9177 87.8263 -71.9355 87.8677 -71.0133 88.1571C-70.091 88.4464 -69.2612 88.9735 -68.6072 89.6852L-3.43412 160.589C-2.77984 161.301 -2.32443 162.172 -2.11366 163.115C-1.90289 164.058 -1.94418 165.041 -2.23342 165.963L-31.1024 257.894C-31.3916 258.816 -31.9184 259.646 -32.6298 260.3C-33.3413 260.954 -34.2124 261.409 -35.1555 261.619L-129.191 282.65C-130.133 282.86 -131.114 282.819 -132.035 282.531C-132.957 282.242 -133.786 281.717 -134.44 281.007L-199.613 210.103Z" fill="#D0F3EF"/>
</g>
<g opacity="0.6">
<path d="M1228.29 758.248L1228.29 758.248C1227.74 757.977 1227.27 757.565 1226.92 757.054C1226.58 756.544 1226.38 755.952 1226.34 755.338C1226.34 755.338 1226.34 755.337 1226.34 755.337L1219.86 659.196L1219.86 659.196C1219.81 658.582 1219.94 657.968 1220.21 657.415C1220.48 656.863 1220.89 656.392 1221.4 656.049L1221.4 656.048L1301.39 602.316C1301.39 602.316 1301.39 602.316 1301.39 602.316C1301.9 601.973 1302.49 601.77 1303.1 601.729C1303.72 601.687 1304.33 601.808 1304.88 602.079L1304.89 602.08L1391.35 644.489L1391.35 644.489C1391.9 644.76 1392.38 645.171 1392.72 645.682C1393.06 646.193 1393.26 646.785 1393.31 647.399C1393.31 647.399 1393.31 647.399 1393.31 647.399L1399.78 743.538L1399.78 743.539C1399.82 744.153 1399.7 744.767 1399.43 745.319C1399.16 745.872 1398.75 746.343 1398.23 746.686L1398.23 746.687L1318.25 800.418C1318.25 800.418 1318.25 800.418 1318.25 800.418C1317.74 800.76 1317.15 800.963 1316.53 801.004C1315.92 801.046 1315.31 800.926 1314.75 800.656L1228.29 758.248Z" stroke="#6AD4C8" stroke-width="4"/>
<path d="M1425.93 755.503C1425.06 755.078 1424.32 754.431 1423.78 753.629C1423.24 752.826 1422.92 751.896 1422.86 750.932L1416.38 654.79C1416.31 653.826 1416.5 652.862 1416.93 651.994C1417.35 651.127 1418 650.386 1418.8 649.848L1498.79 596.115C1499.59 595.576 1500.52 595.258 1501.49 595.193C1502.45 595.128 1503.41 595.318 1504.28 595.744L1590.75 638.152C1591.62 638.578 1592.36 639.224 1592.9 640.027C1593.43 640.829 1593.75 641.759 1593.82 642.724L1600.29 738.864C1600.36 739.828 1600.17 740.792 1599.74 741.66C1599.31 742.527 1598.67 743.268 1597.87 743.806L1517.88 797.538C1517.08 798.076 1516.15 798.394 1515.19 798.459C1514.22 798.525 1513.26 798.336 1512.39 797.912L1425.93 755.503Z" fill="#6AD5C8"/>
<path d="M1333.29 928.534C1332.42 928.109 1331.68 927.462 1331.14 926.66C1330.61 925.857 1330.29 924.927 1330.22 923.963L1323.74 827.821C1323.68 826.857 1323.87 825.893 1324.29 825.025C1324.72 824.157 1325.37 823.417 1326.17 822.878L1406.16 769.146C1406.96 768.607 1407.89 768.289 1408.85 768.224C1409.82 768.159 1410.78 768.349 1411.65 768.774L1498.11 811.183C1498.98 811.609 1499.72 812.255 1500.26 813.058C1500.8 813.86 1501.12 814.79 1501.18 815.755L1507.66 911.894C1507.72 912.858 1507.53 913.823 1507.11 914.69C1506.68 915.558 1506.03 916.298 1505.23 916.837L1425.25 970.569C1424.44 971.107 1423.52 971.424 1422.55 971.49C1421.59 971.556 1420.63 971.367 1419.76 970.943L1333.29 928.534Z" fill="#15C3B1"/>
<path d="M1319.49 586.885C1318.62 586.459 1317.88 585.813 1317.34 585.011C1316.8 584.208 1316.48 583.278 1316.42 582.314L1309.94 486.172C1309.87 485.208 1310.06 484.243 1310.49 483.376C1310.91 482.508 1311.56 481.768 1312.36 481.229L1392.35 427.497C1393.15 426.958 1394.08 426.64 1395.05 426.575C1396.01 426.51 1396.98 426.699 1397.84 427.125L1484.31 469.534C1485.18 469.96 1485.92 470.606 1486.46 471.408C1487 472.211 1487.31 473.141 1487.38 474.105L1493.85 570.245C1493.92 571.209 1493.73 572.174 1493.3 573.041C1492.88 573.909 1492.23 574.649 1491.43 575.188L1411.44 628.919C1410.64 629.457 1409.71 629.775 1408.75 629.841C1407.78 629.907 1406.82 629.718 1405.95 629.294L1319.49 586.885Z" fill="#D0F3EF"/>
<path d="M937.29 944.535C936.422 944.109 935.681 943.463 935.143 942.66C934.604 941.858 934.286 940.928 934.22 939.963L927.742 843.822C927.676 842.858 927.866 841.893 928.292 841.026C928.717 840.158 929.364 839.418 930.166 838.879L1010.15 785.146C1010.96 784.608 1011.89 784.29 1012.85 784.225C1013.81 784.159 1014.78 784.349 1015.65 784.775L1102.11 827.184C1102.98 827.609 1103.72 828.256 1104.26 829.058C1104.8 829.861 1105.12 830.791 1105.18 831.755L1111.65 927.895C1111.72 928.859 1111.53 929.824 1111.1 930.691C1110.68 931.559 1110.03 932.299 1109.23 932.838L1029.24 986.569C1028.44 987.107 1027.51 987.425 1026.55 987.491C1025.59 987.557 1024.62 987.368 1023.76 986.944L937.29 944.535Z" fill="#15C3B1"/>
<path d="M1117.36 594.698L1117.35 594.698C1116.8 594.427 1116.33 594.016 1115.99 593.505C1115.64 592.994 1115.44 592.402 1115.4 591.788C1115.4 591.788 1115.4 591.788 1115.4 591.787L1108.92 495.647L1108.92 495.646C1108.88 495.032 1109 494.418 1109.27 493.866C1109.54 493.313 1109.95 492.842 1110.47 492.499L1110.47 492.498L1190.45 438.766C1190.45 438.766 1190.45 438.766 1190.45 438.766C1190.96 438.423 1191.56 438.221 1192.17 438.179C1192.78 438.138 1193.4 438.259 1193.95 438.53L1193.95 438.53L1280.42 480.939L1280.42 480.939C1280.97 481.21 1281.44 481.621 1281.78 482.132C1282.13 482.643 1282.33 483.235 1282.37 483.849C1282.37 483.849 1282.37 483.849 1282.37 483.85L1288.84 579.988L1288.84 579.989C1288.89 580.603 1288.76 581.217 1288.49 581.77C1288.22 582.322 1287.81 582.793 1287.3 583.136L1287.3 583.137L1207.31 636.868C1207.31 636.868 1207.31 636.868 1207.31 636.868C1206.8 637.211 1206.21 637.413 1205.6 637.455C1204.99 637.496 1204.37 637.376 1203.82 637.107L1117.36 594.698Z" stroke="#6AD4C8" stroke-width="4"/>
<path d="M1138.04 940.204C1137.18 939.779 1136.44 939.132 1135.9 938.33C1135.36 937.527 1135.04 936.597 1134.97 935.633L1128.5 839.491C1128.43 838.527 1128.62 837.563 1129.05 836.695C1129.47 835.827 1130.12 835.087 1130.92 834.548L1210.91 780.816C1211.71 780.277 1212.64 779.959 1213.6 779.894C1214.57 779.829 1215.53 780.019 1216.4 780.444L1302.87 822.853C1303.73 823.279 1304.48 823.925 1305.01 824.728C1305.55 825.53 1305.87 826.46 1305.94 827.425L1312.41 923.564C1312.47 924.528 1312.28 925.493 1311.86 926.36C1311.43 927.228 1310.79 927.968 1309.98 928.507L1230 982.238C1229.2 982.777 1228.27 983.094 1227.3 983.16C1226.34 983.226 1225.38 983.037 1224.51 982.613L1138.04 940.204Z" fill="#D0F3EF"/>
<path d="M1298.94 240.393C1298.07 239.968 1297.33 239.321 1296.79 238.519C1296.25 237.716 1295.94 236.786 1295.87 235.822L1289.39 139.68C1289.33 138.716 1289.52 137.752 1289.94 136.884C1290.37 136.017 1291.01 135.276 1291.82 134.738L1371.8 81.0049C1372.61 80.4662 1373.54 80.1482 1374.5 80.083C1375.47 80.0178 1376.43 80.2077 1377.3 80.6335L1463.76 123.042C1464.63 123.468 1465.37 124.114 1465.91 124.917C1466.45 125.719 1466.77 126.649 1466.83 127.614L1473.3 223.753C1473.37 224.718 1473.18 225.682 1472.76 226.55C1472.33 227.417 1471.68 228.158 1470.88 228.696L1390.89 282.428C1390.09 282.966 1389.16 283.284 1388.2 283.349C1387.24 283.415 1386.27 283.226 1385.41 282.802L1298.94 240.393Z" fill="#6AD5C8"/>
<path d="M1206.31 413.424C1205.44 412.999 1204.7 412.352 1204.16 411.55C1203.62 410.747 1203.3 409.817 1203.24 408.853L1196.76 312.711C1196.69 311.747 1196.88 310.783 1197.31 309.915C1197.73 309.047 1198.38 308.307 1199.18 307.768L1279.17 254.036C1279.97 253.497 1280.9 253.179 1281.87 253.114C1282.83 253.049 1283.8 253.239 1284.66 253.664L1371.13 296.073C1372 296.499 1372.74 297.145 1373.28 297.948C1373.82 298.75 1374.13 299.68 1374.2 300.645L1380.67 396.784C1380.74 397.749 1380.55 398.713 1380.12 399.581C1379.7 400.448 1379.05 401.188 1378.25 401.727L1298.26 455.459C1297.46 455.997 1296.53 456.314 1295.57 456.38C1294.6 456.446 1293.64 456.257 1292.77 455.833L1206.31 413.424Z" fill="#15C3B1"/>
<path d="M1386.37 63.5876L1386.37 63.5874C1385.82 63.3165 1385.35 62.9049 1385 62.3939C1384.66 61.8832 1384.46 61.2911 1384.42 60.6773C1384.42 60.6771 1384.42 60.6769 1384.42 60.6767L1377.94 -35.4642L1377.94 -35.4648C1377.9 -36.0787 1378.02 -36.6927 1378.29 -37.2451C1378.56 -37.7976 1378.97 -38.2689 1379.48 -38.6119L1379.48 -38.6123L1459.47 -92.3446C1459.47 -92.3447 1459.47 -92.3448 1459.47 -92.3449C1459.98 -92.6877 1460.57 -92.89 1461.19 -92.9315C1461.8 -92.973 1462.41 -92.8522 1462.97 -92.581L1462.97 -92.5808L1549.43 -50.172L1549.43 -50.1718C1549.99 -49.9009 1550.46 -49.4893 1550.8 -48.9784C1551.14 -48.4676 1551.35 -47.8757 1551.39 -47.2619C1551.39 -47.2617 1551.39 -47.2614 1551.39 -47.2612L1557.86 48.8778L1557.86 48.8786C1557.9 49.4924 1557.78 50.1065 1557.51 50.6589C1557.24 51.2113 1556.83 51.6827 1556.32 52.0256L1556.32 52.026L1476.33 105.757C1476.33 105.757 1476.33 105.757 1476.33 105.757C1475.82 106.1 1475.23 106.302 1474.61 106.344C1474 106.386 1473.39 106.266 1472.84 105.996L1386.37 63.5876Z" stroke="#6AD4C8" stroke-width="4"/>
<path d="M1407.06 409.093C1406.19 408.668 1405.45 408.021 1404.91 407.219C1404.37 406.416 1404.06 405.486 1403.99 404.522L1397.51 308.38C1397.45 307.416 1397.64 306.452 1398.06 305.584C1398.49 304.717 1399.13 303.976 1399.94 303.438L1479.92 249.705C1480.73 249.166 1481.66 248.848 1482.62 248.783C1483.59 248.718 1484.55 248.908 1485.42 249.334L1571.88 291.742C1572.75 292.168 1573.49 292.814 1574.03 293.617C1574.57 294.419 1574.89 295.349 1574.95 296.314L1581.43 392.454C1581.49 393.418 1581.3 394.382 1580.88 395.25C1580.45 396.117 1579.8 396.858 1579 397.396L1499.01 451.128C1498.21 451.666 1497.28 451.984 1496.32 452.049C1495.36 452.115 1494.39 451.926 1493.53 451.502L1407.06 409.093Z" fill="#D0F3EF"/>
</g>
</g>
</svg>
