<svg xmlns="http://www.w3.org/2000/svg" xmlns:xlink="http://www.w3.org/1999/xlink" width="1440" height="420" viewBox="0 0 1440 420">
  <defs>
    <clipPath id="clip-path">
      <path id="Path_101259" data-name="Path 101259" d="M0,0H1440V420H0Z" transform="translate(1751 485)" fill="#eaf5ff"/>
    </clipPath>
    <clipPath id="clip-path-2">
      <rect id="Rectangle_10237" data-name="Rectangle 10237" width="1440" height="420" transform="translate(0 72)" fill="#fff" stroke="#707070" stroke-width="1"/>
    </clipPath>
  </defs>
  <g id="Group_38088" data-name="Group 38088" transform="translate(0 -72)">
    <g id="Program_Banner_Default_L" data-name="Program Banner Default L" transform="translate(0 72)">
      <g id="Program_BG_Color_Banner" data-name="Program BG Color Banner">
        <g id="Group_19913" data-name="Group 19913" transform="translate(2 -118)">
          <g id="Group_20316" data-name="Group 20316" transform="translate(-2 118)">
            <path id="Path_101259-2" data-name="Path 101259" d="M0,0H1440V420H0Z" fill="#fff"/>
          </g>
        </g>
      </g>
      <g id="Program_BG_Shape" data-name="Program BG Shape">
        <g id="Group_616" data-name="Group 616" transform="translate(-1751 -485)" clip-path="url(#clip-path)">
          <path id="Polygon_253" data-name="Polygon 253" d="M109.574,0a4,4,0,0,1,3.465,2l34.987,60.644a4,4,0,0,1,0,4l-34.987,60.644a4,4,0,0,1-3.465,2H39.6a4,4,0,0,1-3.465-2L1.153,66.643a4,4,0,0,1,0-4L36.14,2A4,4,0,0,1,39.6,0Z" transform="translate(1650.547 505.131) rotate(30)" fill="#d0f3ef"/>
          <path id="Polygon_257" data-name="Polygon 257" d="M109.574,0a4,4,0,0,1,3.465,2l34.987,60.644a4,4,0,0,1,0,4l-34.987,60.644a4,4,0,0,1-3.465,2H39.6a4,4,0,0,1-3.465-2L1.153,66.643a4,4,0,0,1,0-4L36.14,2A4,4,0,0,1,39.6,0Z" transform="translate(1441.547 868.131) rotate(30)" fill="#d0f3ef"/>
          <path id="Polygon_252" data-name="Polygon 252" d="M109.574,0a4,4,0,0,1,3.465,2l34.987,60.644a4,4,0,0,1,0,4l-34.987,60.644a4,4,0,0,1-3.465,2H39.6a4,4,0,0,1-3.465-2L1.153,66.643a4,4,0,0,1,0-4L36.14,2A4,4,0,0,1,39.6,0Z" transform="translate(1720.164 384.551) rotate(30)" fill="#d0f3ef"/>
          <path id="Polygon_258" data-name="Polygon 258" d="M109.574,0a4,4,0,0,1,3.465,2l34.987,60.644a4,4,0,0,1,0,4l-34.987,60.644a4,4,0,0,1-3.465,2H39.6a4,4,0,0,1-3.465-2L1.153,66.643a4,4,0,0,1,0-4L36.14,2A4,4,0,0,1,39.6,0Z" transform="translate(1511.164 747.551) rotate(30)" fill="#d0f3ef"/>
          <path id="Polygon_251" data-name="Polygon 251" d="M109.574,0a4,4,0,0,1,3.465,2l34.987,60.644a4,4,0,0,1,0,4l-34.987,60.644a4,4,0,0,1-3.465,2H39.6a4,4,0,0,1-3.465-2L1.153,66.643a4,4,0,0,1,0-4L36.14,2A4,4,0,0,1,39.6,0Z" transform="translate(1789.78 263.971) rotate(30)" fill="#d0f3ef"/>
          <path id="Polygon_267" data-name="Polygon 267" d="M109.574,0a4,4,0,0,1,3.465,2l34.987,60.644a4,4,0,0,1,0,4l-34.987,60.644a4,4,0,0,1-3.465,2H39.6a4,4,0,0,1-3.465-2L1.153,66.643a4,4,0,0,1,0-4L36.14,2A4,4,0,0,1,39.6,0Z" transform="translate(3037.78 292.971) rotate(30)" fill="#d0f3ef"/>
          <path id="Polygon_259" data-name="Polygon 259" d="M109.574,0a4,4,0,0,1,3.465,2l34.987,60.644a4,4,0,0,1,0,4l-34.987,60.644a4,4,0,0,1-3.465,2H39.6a4,4,0,0,1-3.465-2L1.153,66.643a4,4,0,0,1,0-4L36.14,2A4,4,0,0,1,39.6,0Z" transform="translate(1580.78 626.971) rotate(30)" fill="#d0f3ef"/>
          <path id="Polygon_253-2" data-name="Polygon 253" d="M109.574,0a4,4,0,0,1,3.465,2l34.987,60.644a4,4,0,0,1,0,4l-34.987,60.644a4,4,0,0,1-3.465,2H39.6a4,4,0,0,1-3.465-2L1.153,66.643a4,4,0,0,1,0-4L36.14,2A4,4,0,0,1,39.6,0Z" transform="translate(1862.1 627.271) rotate(30)" fill="#d0f3ef"/>
          <path id="Polygon_281" data-name="Polygon 281" d="M109.574,0a4,4,0,0,1,3.465,2l34.987,60.644a4,4,0,0,1,0,4l-34.987,60.644a4,4,0,0,1-3.465,2H39.6a4,4,0,0,1-3.465-2L1.153,66.643a4,4,0,0,1,0-4L36.14,2A4,4,0,0,1,39.6,0Z" transform="translate(1932.1 749.271) rotate(30)" fill="#d0f3ef"/>
          <g id="Polygon_269" data-name="Polygon 269" transform="translate(3110.1 656.271) rotate(30)" fill="none">
            <path d="M109.574,0a4,4,0,0,1,3.465,2l34.987,60.644a4,4,0,0,1,0,4l-34.987,60.644a4,4,0,0,1-3.465,2H39.6a4,4,0,0,1-3.465-2L1.153,66.643a4,4,0,0,1,0-4L36.14,2A4,4,0,0,1,39.6,0Z" stroke="none"/>
            <path d="M 39.60491943359375 4 L 4.617935180664062 64.64406585693359 L 39.60489654541016 125.2881317138672 L 109.5736999511719 125.2881317138672 L 144.5606842041016 64.64406585693359 L 109.5736999511719 4 L 39.60491943359375 4 M 39.60491943359375 0 L 109.5736999511719 0 C 111.0032196044922 0 112.3240661621094 0.7628631591796875 113.0384368896484 2.001106262207031 L 148.0254211425781 62.64517211914062 C 148.7390899658203 63.88221740722656 148.7390899658203 65.40591430664062 148.0254211425781 66.64295959472656 L 113.0384368896484 127.2870254516602 C 112.3240661621094 128.5252380371094 111.0032196044922 129.2881317138672 109.5736999511719 129.2881317138672 L 39.60489654541016 129.2881317138672 C 38.17537689208984 129.2881317138672 36.85453033447266 128.5252380371094 36.14015960693359 127.2870254516602 L 1.1531982421875 66.64295959472656 C 0.4395294189453125 65.40591430664062 0.4395294189453125 63.88219451904297 1.1531982421875 62.64517211914062 L 36.14018249511719 2.001106262207031 C 36.85453033447266 0.7628631591796875 38.17539978027344 0 39.60491943359375 0 Z" stroke="none" fill="#d0f3ef"/>
          </g>
          <path id="Polygon_260" data-name="Polygon 260" d="M109.574,0a4,4,0,0,1,3.465,2l34.987,60.644a4,4,0,0,1,0,4l-34.987,60.644a4,4,0,0,1-3.465,2H39.6a4,4,0,0,1-3.465-2L1.153,66.643a4,4,0,0,1,0-4L36.14,2A4,4,0,0,1,39.6,0Z" transform="translate(1653.1 990.271) rotate(30)" fill="#d0f3ef"/>
          <path id="Polygon_270" data-name="Polygon 270" d="M109.574,0a4,4,0,0,1,3.465,2l34.987,60.644a4,4,0,0,1,0,4l-34.987,60.644a4,4,0,0,1-3.465,2H39.6a4,4,0,0,1-3.465-2L1.153,66.643a4,4,0,0,1,0-4L36.14,2A4,4,0,0,1,39.6,0Z" transform="translate(2901.1 1019.271) rotate(30)" fill="#d0f3ef"/>
          <path id="Polygon_284" data-name="Polygon 284" d="M109.574,0a4,4,0,0,1,3.465,2l34.987,60.644a4,4,0,0,1,0,4l-34.987,60.644a4,4,0,0,1-3.465,2H39.6a4,4,0,0,1-3.465-2L1.153,66.643a4,4,0,0,1,0-4L36.14,2A4,4,0,0,1,39.6,0Z" transform="translate(3110.1 897.271) rotate(30)" fill="#d0f3ef"/>
          <g id="Polygon_252-2" data-name="Polygon 252" transform="translate(1931.716 506.691) rotate(30)" fill="none">
            <path d="M109.574,0a4,4,0,0,1,3.465,2l34.987,60.644a4,4,0,0,1,0,4l-34.987,60.644a4,4,0,0,1-3.465,2H39.6a4,4,0,0,1-3.465-2L1.153,66.643a4,4,0,0,1,0-4L36.14,2A4,4,0,0,1,39.6,0Z" stroke="none"/>
            <path d="M 39.60491943359375 4 L 4.617935180664062 64.64406585693359 L 39.60489654541016 125.2881317138672 L 109.5736999511719 125.2881317138672 L 144.5606842041016 64.64406585693359 L 109.5736999511719 4 L 39.60491943359375 4 M 39.60491943359375 0 L 109.5736999511719 0 C 111.0032196044922 0 112.3240661621094 0.7628631591796875 113.0384368896484 2.001106262207031 L 148.0254211425781 62.64517211914062 C 148.7390899658203 63.88221740722656 148.7390899658203 65.40591430664062 148.0254211425781 66.64295959472656 L 113.0384368896484 127.2870254516602 C 112.3240661621094 128.5252380371094 111.0032196044922 129.2881317138672 109.5736999511719 129.2881317138672 L 39.60489654541016 129.2881317138672 C 38.17537689208984 129.2881317138672 36.85453033447266 128.5252380371094 36.14015960693359 127.2870254516602 L 1.1531982421875 66.64295959472656 C 0.4395294189453125 65.40591430664062 0.4395294189453125 63.88219451904297 1.1531982421875 62.64517211914062 L 36.14018249511719 2.001106262207031 C 36.85453033447266 0.7628631591796875 38.17539978027344 0 39.60491943359375 0 Z" stroke="none" fill="#d1f4ef"/>
          </g>
          <path id="Polygon_271" data-name="Polygon 271" d="M109.574,0a4,4,0,0,1,3.465,2l34.987,60.644a4,4,0,0,1,0,4l-34.987,60.644a4,4,0,0,1-3.465,2H39.6a4,4,0,0,1-3.465-2L1.153,66.643a4,4,0,0,1,0-4L36.14,2A4,4,0,0,1,39.6,0Z" transform="translate(3179.716 535.691) rotate(30)" fill="#d0f3ef"/>
          <path id="Polygon_261" data-name="Polygon 261" d="M109.574,0a4,4,0,0,1,3.465,2l34.987,60.644a4,4,0,0,1,0,4l-34.987,60.644a4,4,0,0,1-3.465,2H39.6a4,4,0,0,1-3.465-2L1.153,66.643a4,4,0,0,1,0-4L36.14,2A4,4,0,0,1,39.6,0Z" transform="translate(1722.716 869.691) rotate(30)" fill="#d0f3ef"/>
          <path id="Polygon_272" data-name="Polygon 272" d="M109.574,0a4,4,0,0,1,3.465,2l34.987,60.644a4,4,0,0,1,0,4l-34.987,60.644a4,4,0,0,1-3.465,2H39.6a4,4,0,0,1-3.465-2L1.153,66.643a4,4,0,0,1,0-4L36.14,2A4,4,0,0,1,39.6,0Z" transform="translate(2970.716 898.691) rotate(30)" fill="#d0f3ef"/>
          <path id="Polygon_283" data-name="Polygon 283" d="M109.574,0a4,4,0,0,1,3.465,2l34.987,60.644a4,4,0,0,1,0,4l-34.987,60.644a4,4,0,0,1-3.465,2H39.6a4,4,0,0,1-3.465-2L1.153,66.643a4,4,0,0,1,0-4L36.14,2A4,4,0,0,1,39.6,0Z" transform="translate(3179.716 777.691) rotate(30)" fill="#d0f3ef"/>
          <path id="Polygon_273" data-name="Polygon 273" d="M109.574,0a4,4,0,0,1,3.465,2l34.987,60.644a4,4,0,0,1,0,4l-34.987,60.644a4,4,0,0,1-3.465,2H39.6a4,4,0,0,1-3.465-2L1.153,66.643a4,4,0,0,1,0-4L36.14,2A4,4,0,0,1,39.6,0Z" transform="translate(3249.333 415.111) rotate(30)" fill="#d0f3ef"/>
          <path id="Polygon_262" data-name="Polygon 262" d="M109.574,0a4,4,0,0,1,3.465,2l34.987,60.644a4,4,0,0,1,0,4l-34.987,60.644a4,4,0,0,1-3.465,2H39.6a4,4,0,0,1-3.465-2L1.153,66.643a4,4,0,0,1,0-4L36.14,2A4,4,0,0,1,39.6,0Z" transform="translate(1792.333 749.111) rotate(30)" fill="#d0f3ef"/>
          <path id="Polygon_282" data-name="Polygon 282" d="M109.574,0a4,4,0,0,1,3.465,2l34.987,60.644a4,4,0,0,1,0,4l-34.987,60.644a4,4,0,0,1-3.465,2H39.6a4,4,0,0,1-3.465-2L1.153,66.643a4,4,0,0,1,0-4L36.14,2A4,4,0,0,1,39.6,0Z" transform="translate(1861.333 870.111) rotate(30)" fill="#d0f3ef"/>
          <path id="Polygon_274" data-name="Polygon 274" d="M109.574,0a4,4,0,0,1,3.465,2l34.987,60.644a4,4,0,0,1,0,4l-34.987,60.644a4,4,0,0,1-3.465,2H39.6a4,4,0,0,1-3.465-2L1.153,66.643a4,4,0,0,1,0-4L36.14,2A4,4,0,0,1,39.6,0Z" transform="translate(3040.333 778.111) rotate(30)" fill="#d0f3ef"/>
          <path id="Polygon_253-3" data-name="Polygon 253" d="M109.574,0a4,4,0,0,1,3.465,2l34.987,60.644a4,4,0,0,1,0,4l-34.987,60.644a4,4,0,0,1-3.465,2H39.6a4,4,0,0,1-3.465-2L1.153,66.643a4,4,0,0,1,0-4L36.14,2A4,4,0,0,1,39.6,0Z" transform="translate(1792.022 504.99) rotate(30)" fill="#d0f3ef"/>
          <path id="Polygon_275" data-name="Polygon 275" d="M109.574,0a4,4,0,0,1,3.465,2l34.987,60.644a4,4,0,0,1,0,4l-34.987,60.644a4,4,0,0,1-3.465,2H39.6a4,4,0,0,1-3.465-2L1.153,66.643a4,4,0,0,1,0-4L36.14,2A4,4,0,0,1,39.6,0Z" transform="translate(3040.022 533.99) rotate(30)" fill="#d0f3ef"/>
          <path id="Polygon_254" data-name="Polygon 254" d="M109.574,0a4,4,0,0,1,3.465,2l34.987,60.644a4,4,0,0,1,0,4l-34.987,60.644a4,4,0,0,1-3.465,2H39.6a4,4,0,0,1-3.465-2L1.153,66.643a4,4,0,0,1,0-4L36.14,2A4,4,0,0,1,39.6,0Z" transform="translate(1583.022 867.99) rotate(30)" fill="#d0f3ef"/>
          <path id="Polygon_252-3" data-name="Polygon 252" d="M109.574,0a4,4,0,0,1,3.465,2l34.987,60.644a4,4,0,0,1,0,4l-34.987,60.644a4,4,0,0,1-3.465,2H39.6a4,4,0,0,1-3.465-2L1.153,66.643a4,4,0,0,1,0-4L36.14,2A4,4,0,0,1,39.6,0Z" transform="translate(1861.639 384.41) rotate(30)" fill="#d0f3ef"/>
          <g id="Polygon_277" data-name="Polygon 277" transform="translate(3109.639 413.41) rotate(30)" fill="none">
            <path d="M109.574,0a4,4,0,0,1,3.465,2l34.987,60.644a4,4,0,0,1,0,4l-34.987,60.644a4,4,0,0,1-3.465,2H39.6a4,4,0,0,1-3.465-2L1.153,66.643a4,4,0,0,1,0-4L36.14,2A4,4,0,0,1,39.6,0Z" stroke="none"/>
            <path d="M 39.60491943359375 4 L 4.617935180664062 64.64406585693359 L 39.60489654541016 125.2881317138672 L 109.5736999511719 125.2881317138672 L 144.5606842041016 64.64406585693359 L 109.5736999511719 4 L 39.60491943359375 4 M 39.60491943359375 0 L 109.5736999511719 0 C 111.0032196044922 0 112.3240661621094 0.7628631591796875 113.0384368896484 2.001106262207031 L 148.0254211425781 62.64517211914062 C 148.7390899658203 63.88221740722656 148.7390899658203 65.40591430664062 148.0254211425781 66.64295959472656 L 113.0384368896484 127.2870254516602 C 112.3240661621094 128.5252380371094 111.0032196044922 129.2881317138672 109.5736999511719 129.2881317138672 L 39.60489654541016 129.2881317138672 C 38.17537689208984 129.2881317138672 36.85453033447266 128.5252380371094 36.14015960693359 127.2870254516602 L 1.1531982421875 66.64295959472656 C 0.4395294189453125 65.40591430664062 0.4395294189453125 63.88219451904297 1.1531982421875 62.64517211914062 L 36.14018249511719 2.001106262207031 C 36.85453033447266 0.7628631591796875 38.17539978027344 0 39.60491943359375 0 Z" stroke="none" fill="#d0f3ee"/>
          </g>
          <path id="Polygon_255" data-name="Polygon 255" d="M109.574,0a4,4,0,0,1,3.465,2l34.987,60.644a4,4,0,0,1,0,4l-34.987,60.644a4,4,0,0,1-3.465,2H39.6a4,4,0,0,1-3.465-2L1.153,66.643a4,4,0,0,1,0-4L36.14,2A4,4,0,0,1,39.6,0Z" transform="translate(1652.639 747.41) rotate(30)" fill="#d0f3ef"/>
          <g id="Polygon_278" data-name="Polygon 278" transform="translate(2900.639 776.41) rotate(30)" fill="none">
            <path d="M109.574,0a4,4,0,0,1,3.465,2l34.987,60.644a4,4,0,0,1,0,4l-34.987,60.644a4,4,0,0,1-3.465,2H39.6a4,4,0,0,1-3.465-2L1.153,66.643a4,4,0,0,1,0-4L36.14,2A4,4,0,0,1,39.6,0Z" stroke="none"/>
            <path d="M 39.60491943359375 4 L 4.617935180664062 64.64406585693359 L 39.60489654541016 125.2881317138672 L 109.5736999511719 125.2881317138672 L 144.5606842041016 64.64406585693359 L 109.5736999511719 4 L 39.60491943359375 4 M 39.60491943359375 0 L 109.5736999511719 0 C 111.0032196044922 0 112.3240661621094 0.7628631591796875 113.0384368896484 2.001106262207031 L 148.0254211425781 62.64517211914062 C 148.7390899658203 63.88221740722656 148.7390899658203 65.40591430664062 148.0254211425781 66.64295959472656 L 113.0384368896484 127.2870254516602 C 112.3240661621094 128.5252380371094 111.0032196044922 129.2881317138672 109.5736999511719 129.2881317138672 L 39.60489654541016 129.2881317138672 C 38.17537689208984 129.2881317138672 36.85453033447266 128.5252380371094 36.14015960693359 127.2870254516602 L 1.1531982421875 66.64295959472656 C 0.4395294189453125 65.40591430664062 0.4395294189453125 63.88219451904297 1.1531982421875 62.64517211914062 L 36.14018249511719 2.001106262207031 C 36.85453033447266 0.7628631591796875 38.17539978027344 0 39.60491943359375 0 Z" stroke="none" fill="#d0f3ef"/>
          </g>
          <path id="Polygon_251-2" data-name="Polygon 251" d="M109.574,0a4,4,0,0,1,3.465,2l34.987,60.644a4,4,0,0,1,0,4l-34.987,60.644a4,4,0,0,1-3.465,2H39.6a4,4,0,0,1-3.465-2L1.153,66.643a4,4,0,0,1,0-4L36.14,2A4,4,0,0,1,39.6,0Z" transform="translate(1931.256 263.83) rotate(30)" fill="#d0f3ef"/>
          <path id="Polygon_279" data-name="Polygon 279" d="M109.574,0a4,4,0,0,1,3.465,2l34.987,60.644a4,4,0,0,1,0,4l-34.987,60.644a4,4,0,0,1-3.465,2H39.6a4,4,0,0,1-3.465-2L1.153,66.643a4,4,0,0,1,0-4L36.14,2A4,4,0,0,1,39.6,0Z" transform="translate(3179.256 292.83) rotate(30)" fill="#d0f3ef"/>
          <g id="Polygon_256" data-name="Polygon 256" transform="translate(1722.256 626.83) rotate(30)" fill="none">
            <path d="M109.574,0a4,4,0,0,1,3.465,2l34.987,60.644a4,4,0,0,1,0,4l-34.987,60.644a4,4,0,0,1-3.465,2H39.6a4,4,0,0,1-3.465-2L1.153,66.643a4,4,0,0,1,0-4L36.14,2A4,4,0,0,1,39.6,0Z" stroke="none"/>
            <path d="M 39.60491943359375 4 L 4.617935180664062 64.64406585693359 L 39.60489654541016 125.2881317138672 L 109.5736999511719 125.2881317138672 L 144.5606842041016 64.64406585693359 L 109.5736999511719 4 L 39.60491943359375 4 M 39.60491943359375 0 L 109.5736999511719 0 C 111.0032196044922 0 112.3240661621094 0.7628631591796875 113.0384368896484 2.001106262207031 L 148.0254211425781 62.64517211914062 C 148.7390899658203 63.88221740722656 148.7390899658203 65.40591430664062 148.0254211425781 66.64295959472656 L 113.0384368896484 127.2870254516602 C 112.3240661621094 128.5252380371094 111.0032196044922 129.2881317138672 109.5736999511719 129.2881317138672 L 39.60489654541016 129.2881317138672 C 38.17537689208984 129.2881317138672 36.85453033447266 128.5252380371094 36.14015960693359 127.2870254516602 L 1.1531982421875 66.64295959472656 C 0.4395294189453125 65.40591430664062 0.4395294189453125 63.88219451904297 1.1531982421875 62.64517211914062 L 36.14018249511719 2.001106262207031 C 36.85453033447266 0.7628631591796875 38.17539978027344 0 39.60491943359375 0 Z" stroke="none" fill="#d0f3ef"/>
          </g>
          <path id="Polygon_280" data-name="Polygon 280" d="M109.574,0a4,4,0,0,1,3.465,2l34.987,60.644a4,4,0,0,1,0,4l-34.987,60.644a4,4,0,0,1-3.465,2H39.6a4,4,0,0,1-3.465-2L1.153,66.643a4,4,0,0,1,0-4L36.14,2A4,4,0,0,1,39.6,0Z" transform="translate(2970.256 655.83) rotate(30)" fill="#d0f3ef"/>
        </g>
      </g>
    </g>
    <g id="Mask_Group_741" data-name="Mask Group 741" clip-path="url(#clip-path-2)">
      <g id="Group_37627" data-name="Group 37627" transform="translate(-15.99 46)">
        <g id="Character--inject-688" transform="translate(331.989 142.224)">
          <path id="Path_44457" data-name="Path 44457" d="M244,366.25c2.195,5.149,11.368,124.924,10.4,123.109l23.145-1.534,1.505-124.375Z" transform="translate(-163.374 -31.644)" fill="#ffbe9d"/>
          <path id="Path_44458" data-name="Path 44458" d="M275.5,453.309l-.07-2.139-24.664.45.155,7.035h1.52c6.782.2,34.513.6,39-.6C296.468,456.812,275.5,453.309,275.5,453.309Z" transform="translate(-160.619 4.054)" fill="#ff725e"/>
          <g id="Group_2369" data-name="Group 2369" transform="translate(90.179 456.788)" opacity="0.3">
            <path id="Path_44459" data-name="Path 44459" d="M259.809,457.935a7.035,7.035,0,0,0-3.236-4.221,9.708,9.708,0,0,0-5.783-1.407l.141,5.628Z" transform="translate(-250.79 -452.282)"/>
          </g>
          <g id="Group_2370" data-name="Group 2370" transform="translate(90.306 459.375)" opacity="0.3">
            <path id="Path_44460" data-name="Path 44460" d="M285.716,454.12s7.358,1.6,6.472,2.617-28.927,1.407-41.308.76v-.45l32.7-.3S284.281,454.19,285.716,454.12Z" transform="translate(-250.88 -454.12)"/>
          </g>
          <path id="Path_44461" data-name="Path 44461" d="M250.62,456.373h1.646l4.46.1h14.745c5.754,0,10.96-.267,14.731-.436l4.46-.225,1.21-.07h-1.224l-4.46.141c-3.771.127-8.976.267-14.731.352s-10.96.113-14.731.1H250.62Z" transform="translate(-160.68 5.914)" fill="#263238"/>
          <path id="Path_44462" data-name="Path 44462" d="M274.148,457.126a7.816,7.816,0,0,1,.788-1.759,8.856,8.856,0,0,1,1.491-1.407,3.335,3.335,0,0,0-1.745,1.294,2.35,2.35,0,0,0-.535,1.871Z" transform="translate(-151.116 5.19)" fill="#263238"/>
          <path id="Path_44463" data-name="Path 44463" d="M268.944,454.639a2.758,2.758,0,0,0,.76-.774c.352-.464.563-.886.492-.914s-.408.31-.746.788S268.873,454.611,268.944,454.639Z" transform="translate(-153.228 4.778)" fill="#263238"/>
          <path id="Path_44464" data-name="Path 44464" d="M267.512,453.891a4.2,4.2,0,0,0,.858-.478c.422-.309.7-.619.647-.661a2.176,2.176,0,0,0-.858.478C267.737,453.539,267.456,453.849,267.512,453.891Z" transform="translate(-153.809 4.696)" fill="#263238"/>
          <path id="Path_44465" data-name="Path 44465" d="M266.58,452.273a3.574,3.574,0,0,0,1.294.112,3.712,3.712,0,0,0,1.28-.126,3.247,3.247,0,0,0-1.294-.113A3.346,3.346,0,0,0,266.58,452.273Z" transform="translate(-154.185 4.443)" fill="#263238"/>
          <path id="Path_44466" data-name="Path 44466" d="M266.25,451.28a2.813,2.813,0,0,0,1.407.324,3,3,0,0,0,1.407-.183,8.193,8.193,0,0,0-1.407,0A11.256,11.256,0,0,0,266.25,451.28Z" transform="translate(-154.319 4.099)" fill="#263238"/>
          <path id="Path_44467" data-name="Path 44467" d="M269.5,453.426a5.708,5.708,0,0,0,1.576,0,11.246,11.246,0,0,0,1.674-.324,6.024,6.024,0,0,0,.957-.338.773.773,0,0,0,.38-.408.492.492,0,0,0-.253-.521,3.292,3.292,0,0,0-3.56.76,1.971,1.971,0,0,0-.492.858.746.746,0,0,0,0,.352,3.449,3.449,0,0,1,.7-1.112,3.166,3.166,0,0,1,3.208-.661c.253.141.155.394-.113.535a5.493,5.493,0,0,1-.886.324,13.258,13.258,0,0,1-1.6.366C270.1,453.37,269.5,453.384,269.5,453.426Z" transform="translate(-152.997 4.232)" fill="#263238"/>
          <path id="Path_44468" data-name="Path 44468" d="M270.4,453.656a1.069,1.069,0,0,0,.169-.9,2.026,2.026,0,0,0-.464-.943,1.618,1.618,0,0,0-1.323-.633.521.521,0,0,0-.478.6,1.407,1.407,0,0,0,.281.577,4.33,4.33,0,0,0,.774.76,2.252,2.252,0,0,0,.914.507,9.874,9.874,0,0,1-.774-.619,5.429,5.429,0,0,1-.675-.774c-.225-.267-.38-.746,0-.816a1.492,1.492,0,0,1,1.055.535,1.984,1.984,0,0,1,.464.83,4.5,4.5,0,0,1,.056.872Z" transform="translate(-153.487 4.058)" fill="#263238"/>
          <path id="Path_44469" data-name="Path 44469" d="M250.88,452.345h1.815a9.145,9.145,0,0,1,4,1.28,6.8,6.8,0,0,1,2.547,2.814,11.259,11.259,0,0,1,.492,1.407s0-.141,0-.408a5.851,5.851,0,0,0-.3-1.083,6.43,6.43,0,0,0-2.561-2.955,8.737,8.737,0,0,0-4.221-1.252,9.053,9.053,0,0,0-1.407,0A1.775,1.775,0,0,0,250.88,452.345Z" transform="translate(-160.574 4.441)" fill="#263238"/>
          <path id="Path_44470" data-name="Path 44470" d="M259.36,454.9a16.68,16.68,0,0,0,3.6.239,16.123,16.123,0,0,0,3.574-.3c0-.07-1.6,0-3.588,0A35.258,35.258,0,0,0,259.36,454.9Z" transform="translate(-157.123 5.535)" fill="#263238"/>
          <path id="Path_44471" data-name="Path 44471" d="M255.94,454.922s.141.281.31.577.267.563.352.563.127-.324-.084-.661S256.024,454.88,255.94,454.922Z" transform="translate(-158.515 5.579)" fill="#263238"/>
          <path id="Path_44472" data-name="Path 44472" d="M254.62,453.633a1.437,1.437,0,0,0,.366.464c.253.211.521.338.577.281s-.113-.253-.366-.464S254.676,453.59,254.62,453.633Z" transform="translate(-159.052 5.053)" fill="#263238"/>
          <path id="Path_44473" data-name="Path 44473" d="M252.76,453.1c0,.07.352,0,.718.155s.619.253.689.211-.155-.324-.6-.436S252.732,453.011,252.76,453.1Z" transform="translate(-159.81 4.788)" fill="#263238"/>
          <path id="Path_44474" data-name="Path 44474" d="M251.44,452.814a.706.706,0,0,0,.324.225.771.771,0,0,0,.422,0c.028,0-.113-.169-.324-.225S251.468,452.743,251.44,452.814Z" transform="translate(-160.346 4.704)" fill="#263238"/>
          <path id="Path_44475" data-name="Path 44475" d="M212.24,365.85c.647,2.265,12.775,123.39,12.775,123.39l23.145-1.519,1.505-121.871Z" transform="translate(-176.299 -30.668)" fill="#ffbe9d"/>
          <path id="Path_44476" data-name="Path 44476" d="M245.424,453.933l-.084-2.153-24.65.464.141,7.035h1.534c6.782.2,34.5.605,39-.591C266.374,457.436,245.424,453.933,245.424,453.933Z" transform="translate(-172.86 4.303)" fill="#ff725e"/>
          <g id="Group_2371" data-name="Group 2371" transform="translate(47.844 457.647)" opacity="0.3">
            <path id="Path_44477" data-name="Path 44477" d="M229.733,458.545a7.035,7.035,0,0,0-3.25-4.221,9.694,9.694,0,0,0-5.783-1.407l.141,5.628Z" transform="translate(-220.7 -452.892)"/>
          </g>
          <g id="Group_2372" data-name="Group 2372" transform="translate(47.97 460.247)" opacity="0.3">
            <path id="Path_44478" data-name="Path 44478" d="M255.626,454.74s7.358,1.6,6.472,2.6-28.913,1.407-41.308.76v-.45l32.7-.3S254.205,454.81,255.626,454.74Z" transform="translate(-220.79 -454.74)"/>
          </g>
          <path id="Path_44479" data-name="Path 44479" d="M220.54,457h1.632l4.46.084h14.745c5.754,0,10.96-.267,14.731-.422l4.46-.225,1.21-.084h.422a1.651,1.651,0,0,0-.422,0h-1.224l-4.46.141c-3.757.127-8.962.267-14.717.366s-10.96.1-14.731.1h-5.628Z" transform="translate(-172.921 6.158)" fill="#263238"/>
          <path id="Path_44480" data-name="Path 44480" d="M244.074,457.736a6.752,6.752,0,0,1,.788-1.759,9.855,9.855,0,0,1,1.407-1.407,3.306,3.306,0,0,0-1.745,1.308A2.223,2.223,0,0,0,244.074,457.736Z" transform="translate(-163.363 5.438)" fill="#263238"/>
          <path id="Path_44481" data-name="Path 44481" d="M238.854,455.263a2.926,2.926,0,0,0,.76-.788c.352-.464.563-.872.492-.915s-.408.324-.746.788S238.783,455.221,238.854,455.263Z" transform="translate(-165.473 5.026)" fill="#263238"/>
          <path id="Path_44482" data-name="Path 44482" d="M237.422,454.515a2.011,2.011,0,0,0,.858-.492c.422-.309.7-.619.647-.661a2.074,2.074,0,0,0-.844.478C237.675,454.149,237.366,454.459,237.422,454.515Z" transform="translate(-166.054 4.944)" fill="#263238"/>
          <path id="Path_44483" data-name="Path 44483" d="M236.5,452.881a3.2,3.2,0,0,0,1.28.113,3.349,3.349,0,0,0,1.28-.127,3.532,3.532,0,0,0-1.28-.113A3.646,3.646,0,0,0,236.5,452.881Z" transform="translate(-166.426 4.693)" fill="#263238"/>
          <path id="Path_44484" data-name="Path 44484" d="M236.17,451.9a4.155,4.155,0,0,0,2.814.127,10.135,10.135,0,0,0-1.407,0,9.674,9.674,0,0,0-1.407-.127Z" transform="translate(-166.561 4.351)" fill="#263238"/>
          <path id="Path_44485" data-name="Path 44485" d="M239.41,454.038a5.3,5.3,0,0,0,1.576,0,11.011,11.011,0,0,0,1.674-.338,5.619,5.619,0,0,0,.957-.338.717.717,0,0,0,.38-.408.464.464,0,0,0-.253-.506,3.278,3.278,0,0,0-3.56.746,2.068,2.068,0,0,0-.492.872v.352a3.1,3.1,0,0,1,.689-1.112,2.813,2.813,0,0,1,1.323-.746,2.983,2.983,0,0,1,1.885.07c.253.155.169.394-.113.535a5.865,5.865,0,0,1-.872.324,13.694,13.694,0,0,1-1.618.38C240.015,453.982,239.41,454,239.41,454.038Z" transform="translate(-165.242 4.479)" fill="#263238"/>
          <path id="Path_44486" data-name="Path 44486" d="M240.308,454.266a1.069,1.069,0,0,0,.169-.9,1.8,1.8,0,0,0-.464-.929,1.632,1.632,0,0,0-1.323-.647.535.535,0,0,0-.478.6,1.321,1.321,0,0,0,.3.577,3.978,3.978,0,0,0,.76.774,2.49,2.49,0,0,0,.915.507,7.594,7.594,0,0,1-.76-.633,4.623,4.623,0,0,1-.689-.76c-.225-.267-.38-.76,0-.83a1.547,1.547,0,0,1,1.055.535,2.082,2.082,0,0,1,.464.83A2.812,2.812,0,0,1,240.308,454.266Z" transform="translate(-165.732 4.307)" fill="#263238"/>
          <path id="Path_44487" data-name="Path 44487" d="M220.79,452.957a12.348,12.348,0,0,1,1.815,0,9.048,9.048,0,0,1,4,1.266,6.641,6.641,0,0,1,2.547,2.814c.394.858.45,1.407.507,1.407a1.282,1.282,0,0,0,0-.408,4.012,4.012,0,0,0-.3-1.069A6.373,6.373,0,0,0,226.8,454a8.667,8.667,0,0,0-4.221-1.238,7.467,7.467,0,0,0-1.407,0,1.817,1.817,0,0,0-.38.2Z" transform="translate(-172.82 4.688)" fill="#263238"/>
          <path id="Path_44488" data-name="Path 44488" d="M229.28,455.519a16.961,16.961,0,0,0,3.588.225,16.329,16.329,0,0,0,3.588-.3c0-.07-1.618,0-3.588,0A32.792,32.792,0,0,0,229.28,455.519Z" transform="translate(-169.365 5.783)" fill="#263238"/>
          <path id="Path_44489" data-name="Path 44489" d="M225.864,455.543c-.07,0,.127.267.31.577s.267.563.352.549.113-.324-.084-.661S225.906,455.487,225.864,455.543Z" transform="translate(-170.761 5.83)" fill="#263238"/>
          <path id="Path_44490" data-name="Path 44490" d="M224.53,454.242a1.3,1.3,0,0,0,.366.464c.253.2.521.338.577.3s-.1-.267-.366-.464S224.586,454.2,224.53,454.242Z" transform="translate(-171.298 5.302)" fill="#263238"/>
          <path id="Path_44491" data-name="Path 44491" d="M222.67,453.7c0,.07.352.07.717.169s.619.239.689.2-.155-.324-.605-.436S222.656,453.647,222.67,453.7Z" transform="translate(-172.055 5.038)" fill="#263238"/>
          <path id="Path_44492" data-name="Path 44492" d="M221.35,453.422a.691.691,0,0,0,.324.225.974.974,0,0,0,.422,0c.028,0-.113-.169-.324-.225S221.378,453.366,221.35,453.422Z" transform="translate(-172.592 4.954)" fill="#263238"/>
          <path id="Path_44493" data-name="Path 44493" d="M321.123,221.637h0c4.671-3.025,7.584-5.529,10.749-7.344,3.9-2.237,5.346-3.433,4.882-4.122-.633-.943-.352-.6-8.006,2.434,0,0,10.89-4.446,7.78-5.332-1.407-.394-10.468,3.208-10.468,3.208,7.555-2.223,10.06-4.221,9.666-5.389-.577-1.632-11.579,2.814-11.579,2.814s8.442-3.236,9.764-4.221-.661-1.407-2.378-1.407c-1.942.127-13.057,2.462-16.307,2.969a1.942,1.942,0,0,1-2.448-1.646c.155-4.77-2.279-8.554-3.419-9.272s-2.5.6-1.942,1.984a17.368,17.368,0,0,1,.76,4.77,11.255,11.255,0,0,1-.422,3.827c-.408,1.407-.816,2.645-1.2,3.644L285.02,242.32l9.342,23.088Z" transform="translate(-146.681 -100.552)" fill="#ffbe9d"/>
          <path id="Path_44494" data-name="Path 44494" d="M312.85,209.936a21.867,21.867,0,0,0,5.332-1.885,21.544,21.544,0,0,0,5.051-2.561,22.259,22.259,0,0,0-5.332,1.871,21.709,21.709,0,0,0-5.051,2.575Z" transform="translate(-135.355 -95.928)" fill="#eb996e"/>
          <path id="Path_44495" data-name="Path 44495" d="M311.8,207.812a24.129,24.129,0,0,0,5.8-1.674,24.593,24.593,0,0,0,5.543-2.378,48.678,48.678,0,0,0-11.34,4.052Z" transform="translate(-135.782 -96.632)" fill="#eb996e"/>
          <path id="Path_44496" data-name="Path 44496" d="M310.72,205.63a21.988,21.988,0,0,0,5.515-1.505,21.736,21.736,0,0,0,5.262-2.195,21.567,21.567,0,0,0-5.515,1.491A22.078,22.078,0,0,0,310.72,205.63Z" transform="translate(-136.222 -97.376)" fill="#eb996e"/>
          <path id="Path_44497" data-name="Path 44497" d="M287.662,189.962v51.481l.267,37.031-57.446,18.867.577-28.139s-11.875-37.13-11.875-37.749S218.06,191,218.06,191l21.231-5.163,26.732-.31Z" transform="translate(-173.931 -104.051)" fill="#ff725e"/>
          <path id="Path_44498" data-name="Path 44498" d="M230.824,189.41s-7.5,3.306-10.524,5.769c-2.026,1.646-19.7,33.275-31.164,54.154a19.7,19.7,0,0,0,8.611,27.2l32.993,16.11,9.961-27.661-18.881-10.2,14.267-24.833-5.262-40.535" transform="translate(-186.695 -102.472)" fill="#ff725e"/>
          <path id="Path_44499" data-name="Path 44499" d="M221.553,267.334l-12.283-.915v-10.3l17.953-4.53Z" transform="translate(-177.508 -77.167)" fill="#ff725e"/>
          <path id="Path_44500" data-name="Path 44500" d="M209.34,242.627a27.212,27.212,0,0,0,6.05.113,9.089,9.089,0,0,0,5.4-2.476c1.942-2.026,2.42-4.995,2.814-7.766l2.026-14.337c-4.854.3-8.92,4.066-11.017,8.442s-2.561,9.328-3,14.154" transform="translate(-177.479 -90.771)" fill="#ff725e"/>
          <path id="Path_44501" data-name="Path 44501" d="M269.76,188.68l23.173,52.634,14.9-20.429s15.167,7.443,13.338,29.1l-18.023,24.5a16.715,16.715,0,0,1-24.889-4.8L262.05,241.314Z" transform="translate(-156.028 -102.769)" fill="#ff725e"/>
          <path id="Path_44502" data-name="Path 44502" d="M226,188.578c-.239,0,33.387,37.425,33.387,37.425l6.908-39.521S245.473,181.586,226,188.578Z" transform="translate(-170.7 -104.341)" fill="#ffbe9d"/>
          <path id="Path_44503" data-name="Path 44503" d="M284.772,252.122a3.575,3.575,0,0,1-.675-.577c-.464-.464-1.069-1.055-1.829-1.773-1.576-1.562-3.813-3.841-6.556-6.7-5.487-5.7-12.9-13.746-20.936-22.751l-20.514-23.13-6.219-7.035-1.674-1.956a4,4,0,0,1-.549-.7,5.63,5.63,0,0,1,.661.605l1.773,1.829c1.534,1.6,3.714,3.939,6.388,6.852,5.361,5.825,12.663,13.985,20.682,22.99s15.378,17.095,20.753,22.891l6.4,6.838,1.731,1.871A5.283,5.283,0,0,1,284.772,252.122Z" transform="translate(-170.773 -103.249)" fill="#263238"/>
          <path id="Path_44504" data-name="Path 44504" d="M229.882,254.588a10.683,10.683,0,0,1-.6-1.773l-1.407-4.9c-1.21-4.136-2.969-9.849-4.91-16.082s-3.6-12-4.629-16.194c-.507-2.1-.9-3.8-1.126-4.981a9.844,9.844,0,0,1-.3-1.843,8.325,8.325,0,0,1,.577,1.787c.352,1.294.8,2.941,1.407,4.91,1.154,4.136,2.814,9.849,4.812,16.11s3.644,11.987,4.727,16.152c.535,2.082.957,3.785,1.21,4.953a8.762,8.762,0,0,1,.239,1.857Z" transform="translate(-174.399 -94.572)" fill="#263238"/>
          <path id="Path_44505" data-name="Path 44505" d="M200.716,234.676a1.37,1.37,0,0,1-.07-.774,2.941,2.941,0,0,1,1.2-1.8,4.362,4.362,0,0,1,3.081-.844,9.455,9.455,0,0,1,3.6,1.337c4.516,2.814,8.442,4.305,8.442,4.5a28.14,28.14,0,0,1-8.793-3.855,9.651,9.651,0,0,0-3.335-1.308,3.9,3.9,0,0,0-2.7.591,2.926,2.926,0,0,0-1.21,1.407C200.772,234.395,200.772,234.676,200.716,234.676Z" transform="translate(-181.026 -85.452)" fill="#263238"/>
          <path id="Path_44506" data-name="Path 44506" d="M224.411,240.66c.1.1-1.28,1.407-3.25,3.785a52.775,52.775,0,0,0-10.82,21.2c-.746,2.983-1,4.882-1.126,4.868a4.529,4.529,0,0,1,0-1.407,29.611,29.611,0,0,1,.563-3.63,46.021,46.021,0,0,1,10.862-21.428,32.07,32.07,0,0,1,2.589-2.6,4.853,4.853,0,0,1,1.182-.788Z" transform="translate(-177.552 -81.615)" fill="#263238"/>
          <path id="Path_44507" data-name="Path 44507" d="M266.17,198a12.127,12.127,0,0,1,.619,2.026c.352,1.308.844,3.222,1.407,5.628a86.29,86.29,0,0,1,2.533,18.924,98.564,98.564,0,0,1-2.11,18.966c-.464,2.392-.886,4.319-1.2,5.628a10.356,10.356,0,0,1-.563,2.04,12.945,12.945,0,0,1,.281-2.1l.971-5.7A112.329,112.329,0,0,0,270,224.549a97.727,97.727,0,0,0-2.307-18.811c-.464-2.279-.858-4.221-1.168-5.628A10.746,10.746,0,0,1,266.17,198Z" transform="translate(-154.352 -98.976)" fill="#263238"/>
          <path id="Path_44508" data-name="Path 44508" d="M283.684,242.474a40.677,40.677,0,0,1,.141-7.668,39.042,39.042,0,0,1,.886-7.626,41.475,41.475,0,0,1-.155,7.668,40.9,40.9,0,0,1-.872,7.626Z" transform="translate(-147.272 -87.101)" fill="#263238"/>
          <path id="Path_44509" data-name="Path 44509" d="M290.382,242.618a60.006,60.006,0,0,1-3.757-8.54,60.114,60.114,0,0,1-3.1-8.808,57.289,57.289,0,0,1,3.771,8.54A57.089,57.089,0,0,1,290.382,242.618Z" transform="translate(-147.287 -87.878)" fill="#263238"/>
          <path id="Path_44510" data-name="Path 44510" d="M300.668,250.581c-.127,0,.1-1.928,0-5.009a31.881,31.881,0,0,0-2.575-11.607,37.242,37.242,0,0,0-6.641-9.919c-2.1-2.251-3.546-3.517-3.461-3.616a4.572,4.572,0,0,1,1.1.788,35.273,35.273,0,0,1,9.68,12.452,29.658,29.658,0,0,1,2.42,11.9,27.576,27.576,0,0,1-.253,3.672A4.222,4.222,0,0,1,300.668,250.581Z" transform="translate(-145.473 -89.848)" fill="#263238"/>
          <path id="Path_44511" data-name="Path 44511" d="M244.081,197.456s-.549-.281-1.562-.718a11.045,11.045,0,0,0-4.53-.788,10.355,10.355,0,0,0-6.261,2.293c-2.012,1.6-3.349,4.221-5.346,6.6a9.469,9.469,0,0,1-3.63,2.814,8.723,8.723,0,0,1-4.221.506,13,13,0,0,1-6.486-2.814,27.039,27.039,0,0,1-3.489-3.222,8.694,8.694,0,0,1-1.126-1.322,7.13,7.13,0,0,1,1.323,1.126,38.772,38.772,0,0,0,3.588,3,13.015,13.015,0,0,0,6.261,2.561,8.315,8.315,0,0,0,3.9-.507,8.976,8.976,0,0,0,3.349-2.561c1.913-2.265,3.292-4.952,5.473-6.655A10.693,10.693,0,0,1,238,195.5a10.2,10.2,0,0,1,4.643,1.041,7.43,7.43,0,0,1,1.111.675Q244.11,197.442,244.081,197.456Z" transform="translate(-178.257 -99.993)" fill="#fafafa"/>
          <path id="Path_44512" data-name="Path 44512" d="M226.991,237.64a1.735,1.735,0,0,1-.38.169,4.614,4.614,0,0,1-1.2.225,6.951,6.951,0,0,1-4.221-1.309,11.762,11.762,0,0,1-4.221-5.065c-1.069-2.251-1.745-4.882-2.814-7.457a16.546,16.546,0,0,0-4.376-6.359,17.531,17.531,0,0,0-5.431-3.278,24.919,24.919,0,0,0-5.783-1.224,5.373,5.373,0,0,1,1.618-.084,14.813,14.813,0,0,1,4.333.816,17.094,17.094,0,0,1,5.712,3.264,16.884,16.884,0,0,1,4.615,6.585c1.055,2.659,1.7,5.276,2.7,7.457a11.72,11.72,0,0,0,3.869,4.924,7.035,7.035,0,0,0,3.939,1.407C226.428,237.767,226.977,237.57,226.991,237.64Z" transform="translate(-181.862 -92.777)" fill="#fafafa"/>
          <path id="Path_44513" data-name="Path 44513" d="M194.4,257.827a7.807,7.807,0,0,0,1.407-.3,5.7,5.7,0,0,0,2.73-2.744,21.851,21.851,0,0,0,1.716-5.712,29.378,29.378,0,0,1,2.11-7.19,10.256,10.256,0,0,1,2.406-3.137,11.255,11.255,0,0,1,3.152-1.914,15.588,15.588,0,0,1,6.064-1.013,24.325,24.325,0,0,1,4.094.464,5.976,5.976,0,0,1,1.407.394c0,.141-2.139-.338-5.557-.338a15.336,15.336,0,0,0-5.8,1.126,9.849,9.849,0,0,0-5.163,4.756,29.964,29.964,0,0,0-2.111,7.035,20.962,20.962,0,0,1-1.927,5.825,5.783,5.783,0,0,1-3.081,2.814,2.968,2.968,0,0,1-1.14.113A.985.985,0,0,1,194.4,257.827Z" transform="translate(-183.559 -83.587)" fill="#fafafa"/>
          <path id="Path_44514" data-name="Path 44514" d="M226.765,251.755a47.348,47.348,0,0,0-8.287,1.14,46.542,46.542,0,0,0-7.668,3.32,16.208,16.208,0,0,1,7.471-4.024,16.391,16.391,0,0,1,8.484-.436Z" transform="translate(-176.881 -77.247)" fill="#fafafa"/>
          <path id="Path_44515" data-name="Path 44515" d="M259.593,213.1a12.025,12.025,0,0,1-1.66.661,20.191,20.191,0,0,0-4.108,2.49c-1.618,1.238-3.377,2.926-5.346,4.8a29.882,29.882,0,0,1-7.035,5.4,14.505,14.505,0,0,1-8.822,1.28,27.012,27.012,0,0,1-6.936-2.209c-1.885-.872-3.334-1.7-4.319-2.279a8.049,8.049,0,0,1-1.505-.985c.07-.127,2.279,1.154,6.036,2.814a27.62,27.62,0,0,0,6.824,1.956,14.069,14.069,0,0,0,8.442-1.28,30.954,30.954,0,0,0,6.964-5.234,60.744,60.744,0,0,1,5.487-4.727,17.632,17.632,0,0,1,4.319-2.336A6.4,6.4,0,0,1,259.593,213.1Z" transform="translate(-173.198 -92.831)" fill="#fafafa"/>
          <path id="Path_44516" data-name="Path 44516" d="M275.981,217.2c0,.225-5.121,0-11.256.985s-11.045,2.547-11.115,2.321a12.886,12.886,0,0,1,3.109-1.238,51.634,51.634,0,0,1,7.893-1.815,53.466,53.466,0,0,1,8.076-.549A12.465,12.465,0,0,1,275.981,217.2Z" transform="translate(-159.463 -91.288)" fill="#fafafa"/>
          <path id="Path_44517" data-name="Path 44517" d="M272.881,205.442a13.93,13.93,0,0,1-3.1-.732l-7.344-2.139-7.33-2.167a14.166,14.166,0,0,1-3.011-1.055,13.28,13.28,0,0,1,3.138.549c1.913.45,4.53,1.126,7.415,1.97s5.445,1.688,7.288,2.35a13.454,13.454,0,0,1,2.941,1.224Z" transform="translate(-160.078 -98.426)" fill="#fafafa"/>
          <path id="Path_44518" data-name="Path 44518" d="M276.71,205.77c.084.211-2,1.069-4.221,2.659s-3.771,3.208-3.939,3.067a13.085,13.085,0,0,1,8.174-5.726Z" transform="translate(-153.383 -95.814)" fill="#fafafa"/>
          <path id="Path_44519" data-name="Path 44519" d="M289.494,224a3.123,3.123,0,0,1-.211,1.111,13.4,13.4,0,0,1-1.182,2.814,21.287,21.287,0,0,1-7.035,7.26,42.393,42.393,0,0,1-9.075,4.319,22.008,22.008,0,0,1-3.982,1.182,25.6,25.6,0,0,1,3.785-1.674,50.836,50.836,0,0,0,8.864-4.446,22.92,22.92,0,0,0,6.922-6.894C288.974,225.408,289.368,223.9,289.494,224Z" transform="translate(-153.603 -88.396)" fill="#fafafa"/>
          <path id="Path_44520" data-name="Path 44520" d="M286.578,261.711a26.564,26.564,0,0,1-.689-4.6c-.324-2.814-.647-6.8-.844-11.171s-.225-8.343-.155-11.256a26.367,26.367,0,0,1,.281-4.643,33.929,33.929,0,0,1,.225,4.643c.084,2.814.183,6.81.38,11.171s.436,8.315.619,11.171a33.548,33.548,0,0,1,.183,4.685Z" transform="translate(-146.748 -85.937)" fill="#fafafa"/>
          <path id="Path_44521" data-name="Path 44521" d="M309.706,225.027a48.468,48.468,0,0,0-10.3-4.221,49.241,49.241,0,0,0-11.087-1.041,10.835,10.835,0,0,1,3.292-.478,28.9,28.9,0,0,1,7.977.8,28.546,28.546,0,0,1,7.429,3A10.4,10.4,0,0,1,309.706,225.027Z" transform="translate(-145.338 -90.322)" fill="#fafafa"/>
          <path id="Path_44522" data-name="Path 44522" d="M311.02,213.026c0,.07-.464-.324-1.238-.76a6.078,6.078,0,0,0-3.363-.774h-.549l.2-.521a11.364,11.364,0,0,0,.408-1.28,14.548,14.548,0,0,0-.225-6.331,3.667,3.667,0,0,1,.872,1.759,9.314,9.314,0,0,1,0,4.741,9.844,9.844,0,0,1-.45,1.407l-.352-.492a5.755,5.755,0,0,1,3.658,1.111C310.794,212.463,311.076,212.984,311.02,213.026Z" transform="translate(-138.196 -96.794)" fill="#eb996e"/>
          <path id="Path_44523" data-name="Path 44523" d="M236.938,243.79l-.211,2.1s-25.846,31.249-27.928,52.719c-1.717,17.728,2.983,152.289,2.983,152.289l84.868-9.5-3.8-195.567Z" transform="translate(-177.853 -80.341)" fill="#263238"/>
          <path id="Path_44524" data-name="Path 44524" d="M258.232,264.78a2.322,2.322,0,0,1,0,.45v1.308c0,1.2-.084,2.814-.155,4.995-.127,4.347-.436,10.637-.8,18.4-.8,15.477-2.11,36.975-3.8,60.64s-3.391,45.023-4.685,60.57c-.675,7.71-1.224,13.971-1.6,18.29-.2,2.124-.366,3.8-.478,4.981l-.141,1.294a1.742,1.742,0,0,1-.084.436,1.675,1.675,0,0,1,0-.436l.07-1.308c.084-1.182.2-2.814.352-4.995.324-4.376.788-10.637,1.407-18.361,1.154-15.477,2.729-36.947,4.474-60.584s3.081-45.093,4.01-60.612c.436-7.724.788-13.985,1.041-18.389.127-2.125.225-3.8.3-4.995a12.909,12.909,0,0,1,.1-1.294A1.408,1.408,0,0,1,258.232,264.78Z" transform="translate(-162.369 -71.799)" fill="#455a64"/>
          <path id="Path_44525" data-name="Path 44525" d="M246.692,291.9a3.405,3.405,0,0,0-1.083,1.716,2.448,2.448,0,0,0,.408,2,2.279,2.279,0,0,0,3.855-1.126,2.448,2.448,0,0,0-.732-1.9,3.461,3.461,0,0,0-1.829-.872,1.025,1.025,0,0,1,.605-.155,2.547,2.547,0,0,1,1.576.647,2.775,2.775,0,1,1-4.01,3.813,2.814,2.814,0,0,1-.38-2.533,2.49,2.49,0,0,1,1-1.407C246.425,291.87,246.678,291.855,246.692,291.9Z" transform="translate(-162.985 -60.901)" fill="#455a64"/>
          <path id="Path_44526" data-name="Path 44526" d="M244.882,314.1a3.4,3.4,0,0,0-1.083,1.717,2.448,2.448,0,0,0,.408,2,2.1,2.1,0,0,0,2.265.6,2.139,2.139,0,0,0,1.59-1.731,2.448,2.448,0,0,0-.732-1.9,3.461,3.461,0,0,0-1.829-.872,1.025,1.025,0,0,1,.6-.155,2.6,2.6,0,0,1,1.576.647,2.885,2.885,0,0,1,1.055,2.336,2.73,2.73,0,0,1-2.068,2.364,2.7,2.7,0,0,1-3-.886,2.814,2.814,0,0,1-.38-2.533,2.491,2.491,0,0,1,1-1.407A1.323,1.323,0,0,1,244.882,314.1Z" transform="translate(-163.722 -51.866)" fill="#455a64"/>
          <path id="Path_44527" data-name="Path 44527" d="M242.676,335.544c.084.113-.8.464-1.069,1.731a2.5,2.5,0,0,0,.394,2,2.139,2.139,0,0,0,2.279.591,2.11,2.11,0,0,0,1.59-1.716,2.462,2.462,0,0,0-.732-1.913,3.348,3.348,0,0,0-1.843-.858,1.025,1.025,0,0,1,.6-.155,2.66,2.66,0,0,1,1.59.633,2.8,2.8,0,1,1-4.39,1.28,2.547,2.547,0,0,1,.985-1.407C242.423,335.53,242.662,335.515,242.676,335.544Z" transform="translate(-164.611 -43.133)" fill="#455a64"/>
          <path id="Path_44528" data-name="Path 44528" d="M240.919,360.094c.07.113-.816.464-1.083,1.731a2.448,2.448,0,0,0,.408,2,2.125,2.125,0,0,0,2.265.591,2.068,2.068,0,0,0,1.59-1.717,2.42,2.42,0,0,0-.732-1.913,3.363,3.363,0,0,0-1.829-.858,1.025,1.025,0,0,1,.6-.155,2.6,2.6,0,0,1,1.576.633,2.941,2.941,0,0,1,1.055,2.35,2.9,2.9,0,0,1-5.065,1.477,2.955,2.955,0,0,1-.38-2.547,2.631,2.631,0,0,1,1-1.407A1.322,1.322,0,0,1,240.919,360.094Z" transform="translate(-165.33 -33.142)" fill="#455a64"/>
          <path id="Path_44529" data-name="Path 44529" d="M269.659,172.714c.155.183,0,.689-.7,1.308a6.473,6.473,0,0,1-3.6,1.505,7.668,7.668,0,0,1-5.783-1.787,8.442,8.442,0,0,1-3.039-6.866,15.771,15.771,0,0,1,2.167-6.514,43.818,43.818,0,0,1,2.673-4.418c1.688-2.42,3.039-3.7,3.461-3.433s-.127,2.012-1.182,4.657c-.563,1.407-1.21,2.941-1.9,4.629a17.124,17.124,0,0,0-1.562,5.248,5.628,5.628,0,0,0,1.646,4.221,5.768,5.768,0,0,0,3.475,1.7C267.746,173.221,269.336,172.278,269.659,172.714Z" transform="translate(-158.277 -117.503)" fill="#263238"/>
          <path id="Path_44530" data-name="Path 44530" d="M237.636,146.685a9.047,9.047,0,0,0,5.628-9.581,11.256,11.256,0,0,0-7.4-8.751,14.914,14.914,0,0,0-11.678,1.041,15.237,15.237,0,0,0-7.415,8.02,11.9,11.9,0,0,0,1.083,10.707,12.381,12.381,0,0,0,12.761,4.573,17.46,17.46,0,0,0,10.946-8.681" transform="translate(-174.78 -127.618)" fill="#263238"/>
          <path id="Path_44531" data-name="Path 44531" d="M221.88,129.05a4.558,4.558,0,0,1,2.941.155,10.482,10.482,0,0,1,5.628,4.4,20.712,20.712,0,0,1,2.533,6.627,9.848,9.848,0,0,1,.324,2.884,13.708,13.708,0,0,1-.915-2.814,24.3,24.3,0,0,0-2.645-6.345,10.932,10.932,0,0,0-5.121-4.319A17.681,17.681,0,0,0,221.88,129.05Z" transform="translate(-172.376 -127.106)" fill="#455a64"/>
          <path id="Path_44532" data-name="Path 44532" d="M230.39,127.78a5.079,5.079,0,0,1,1.21,1.956,14.688,14.688,0,0,1,1.182,5.431,14.857,14.857,0,0,1-.858,5.487,4.967,4.967,0,0,1-1.1,2.026,25.58,25.58,0,0,0,1.224-7.5A25.959,25.959,0,0,0,230.39,127.78Z" transform="translate(-168.913 -127.553)" fill="#455a64"/>
          <path id="Path_44533" data-name="Path 44533" d="M216.12,135.77c.127,0,.38,1.1,1.308,2.659a11.4,11.4,0,0,0,12,5.459c1.787-.324,2.814-.858,2.814-.746a5.979,5.979,0,0,1-2.814,1.252,11.059,11.059,0,0,1-12.564-5.726,5.952,5.952,0,0,1-.746-2.9Z" transform="translate(-174.72 -124.301)" fill="#455a64"/>
          <path id="Path_44534" data-name="Path 44534" d="M231.79,129.294a1.731,1.731,0,0,1,.478-.324,3.067,3.067,0,0,1,1.52-.31,4.08,4.08,0,0,1,2.209.732,4.587,4.587,0,0,1,1.688,2.293,7.035,7.035,0,0,1-.141,5.065,3.165,3.165,0,0,1-.971,1.224,1.238,1.238,0,0,1-.507.267,3.686,3.686,0,0,0,1.28-1.576,7.035,7.035,0,0,0,0-4.882,4.615,4.615,0,0,0-1.576-2.167,4.024,4.024,0,0,0-2.054-.76,4.22,4.22,0,0,0-1.927.436Z" transform="translate(-168.343 -127.196)" fill="#263238"/>
          <path id="Path_44535" data-name="Path 44535" d="M236.764,187.25c-4.221-5.445-8.709-12.4-10.665-18.98a28.815,28.815,0,0,1,.858-20.134c3.377-7.3,10.566-12.437,18.29-14.449a27.365,27.365,0,0,1,19.8,1.928,19.7,19.7,0,0,1,10.51,16.335" transform="translate(-171.235 -125.567)" fill="#263238"/>
          <path id="Path_44536" data-name="Path 44536" d="M249.82,135.843c1.7-.169,9.455,1.674,13.718,4.671a17.066,17.066,0,0,1,7.189,15.547c-.394,3.306-3.8,7.809-5.163,10.369a102.088,102.088,0,0,1-7.387,11.79" transform="translate(-161.006 -124.275)" fill="#263238"/>
          <path id="Path_44537" data-name="Path 44537" d="M233,158.071a19.022,19.022,0,0,1,19.993-18.614,19.416,19.416,0,0,1,17.995,19.472,199.037,199.037,0,0,1-.619,21.1c-1.534,9.638-7.738,12.578-10.186,13.366a12.664,12.664,0,0,1-2.631.267h0l-.07.07.535,11.4c-.1,7.415-5.093,13.3-12.494,13.3s-12.311-6.4-12.367-13.844Z" transform="translate(-167.851 -122.811)" fill="#ffbe9d"/>
          <path id="Path_44538" data-name="Path 44538" d="M257.735,156.724a1.562,1.562,0,0,1-1.491,1.576,1.491,1.491,0,0,1-1.6-1.407,1.548,1.548,0,0,1,1.491-1.562,1.491,1.491,0,0,1,1.6,1.393Z" transform="translate(-159.044 -116.342)" fill="#263238"/>
          <path id="Path_44539" data-name="Path 44539" d="M259.961,155.392c-.2.2-1.407-.675-3.039-.661s-2.9.83-3.067.633.1-.464.633-.844a4.221,4.221,0,0,1,2.462-.76,4.052,4.052,0,0,1,2.42.774C259.876,154.928,260.059,155.294,259.961,155.392Z" transform="translate(-159.384 -116.98)" fill="#263238"/>
          <path id="Path_44540" data-name="Path 44540" d="M246.335,156.724a1.562,1.562,0,0,1-1.491,1.576,1.491,1.491,0,0,1-1.6-1.407,1.548,1.548,0,0,1,1.505-1.562,1.477,1.477,0,0,1,1.59,1.393Z" transform="translate(-163.683 -116.342)" fill="#263238"/>
          <path id="Path_44541" data-name="Path 44541" d="M248.292,155.612c-.183.2-1.407-.675-3.025-.661s-2.9.83-3.081.633.1-.45.647-.844a4.221,4.221,0,0,1,2.448-.76,4.108,4.108,0,0,1,2.42.774C248.222,155.148,248.391,155.514,248.292,155.612Z" transform="translate(-164.135 -116.89)" fill="#263238"/>
          <path id="Path_44542" data-name="Path 44542" d="M251.036,167.949a11.412,11.412,0,0,1,2.715-.492c.422,0,.83-.127.9-.422a2.237,2.237,0,0,0-.281-1.252l-1.266-3.25a57.033,57.033,0,0,1-2.814-8.442,56.276,56.276,0,0,1,3.5,8.245c.422,1.14.83,2.223,1.21,3.264a2.477,2.477,0,0,1,.225,1.674,1.111,1.111,0,0,1-.7.633,2.815,2.815,0,0,1-.718.1A10.984,10.984,0,0,1,251.036,167.949Z" transform="translate(-160.814 -116.845)" fill="#263238"/>
          <path id="Path_44543" data-name="Path 44543" d="M254.64,179.249s-6.444.535-14.52-4.319c0,0,2.547,8.526,14.66,7.387Z" transform="translate(-164.953 -108.364)" fill="#eb996e"/>
          <path id="Path_44544" data-name="Path 44544" d="M251.76,167.127a3.025,3.025,0,0,0-2.7-1.111,2.814,2.814,0,0,0-1.9,1.013,1.744,1.744,0,0,0-.127,1.984,2.026,2.026,0,0,0,2.195.563,6.36,6.36,0,0,0,2.124-1.28,1.773,1.773,0,0,0,.478-.492.549.549,0,0,0,0-.619" transform="translate(-162.242 -112)" fill="#eb996e"/>
          <path id="Path_44545" data-name="Path 44545" d="M247.408,164.76c.267,0,.267,1.8,1.829,3.081s3.475,1.1,3.489,1.407-.422.352-1.238.366a4.53,4.53,0,0,1-2.926-1.013,3.911,3.911,0,0,1-1.407-2.589C247.084,165.2,247.281,164.746,247.408,164.76Z" transform="translate(-162.096 -112.503)" fill="#263238"/>
          <path id="Path_44546" data-name="Path 44546" d="M249.255,153.421c-.169.45-1.829.239-3.8.478s-3.532.774-3.8.366c-.113-.2.155-.633.8-1.069a6.627,6.627,0,0,1,5.783-.633C248.959,152.845,249.325,153.21,249.255,153.421Z" transform="translate(-164.338 -117.626)" fill="#263238"/>
          <path id="Path_44547" data-name="Path 44547" d="M259.4,152.983c-.281.38-1.407,0-2.814,0s-2.547.253-2.814-.141,0-.577.577-.929a3.869,3.869,0,0,1,2.293-.633,3.925,3.925,0,0,1,2.251.774C259.37,152.407,259.539,152.8,259.4,152.983Z" transform="translate(-159.44 -117.99)" fill="#263238"/>
          <path id="Path_44548" data-name="Path 44548" d="M232.247,165.743c6.711,1.66,13.366-1.491,18.811-5.9a26.029,26.029,0,0,0,9.244-18.825c0-1.477.2-4.741-1.224-5.051-2.983-.661-3.363-.549-5.248,0-5.628,1.562-16.011,2.575-19.585,7.541s-4.305,13.057-4.305,19.374" transform="translate(-169.096 -124.404)" fill="#263238"/>
          <path id="Path_44549" data-name="Path 44549" d="M262.707,157.717a11.9,11.9,0,0,0,1.21-.281,6.515,6.515,0,0,0,2.814-1.773,7.034,7.034,0,0,0,1.97-4.418,9.849,9.849,0,0,0-1.407-5.8,14.477,14.477,0,0,0-4.221-4.348,25.522,25.522,0,0,0-4.376-2.392c-1.294-.577-2.378-.985-3.123-1.28l-.858-.338a1.308,1.308,0,0,1-.3-.141.888.888,0,0,1,.31.084l.886.281c.746.267,1.843.647,3.166,1.2a25.183,25.183,0,0,1,4.446,2.364,14.534,14.534,0,0,1,4.305,4.418,9.99,9.99,0,0,1,1.407,5.98,7.288,7.288,0,0,1-2.082,4.544,6.528,6.528,0,0,1-2.912,1.731A3.912,3.912,0,0,1,262.707,157.717Z" transform="translate(-159.134 -123.821)" fill="#263238"/>
          <path id="Path_44550" data-name="Path 44550" d="M225.37,152.3a12.7,12.7,0,0,0,1.407.985,9.975,9.975,0,0,0,4.333,1.407,14.069,14.069,0,0,0,6.669-1.126,45.5,45.5,0,0,0,7.4-4.08,43.617,43.617,0,0,0,6.711-5.135,21.71,21.71,0,0,0,6.528-11.256,5.7,5.7,0,0,1-.183,1.731,16.713,16.713,0,0,1-1.632,4.446,22.823,22.823,0,0,1-4.221,5.628,41.61,41.61,0,0,1-6.782,5.276,44.878,44.878,0,0,1-7.541,4.094,14.309,14.309,0,0,1-7.035,1.013,9.751,9.751,0,0,1-4.446-1.66,7.5,7.5,0,0,1-.971-.858A3.22,3.22,0,0,1,225.37,152.3Z" transform="translate(-170.956 -125.392)" fill="#455a64"/>
          <path id="Path_44551" data-name="Path 44551" d="M239.98,135.36a59.982,59.982,0,0,0-7.6,5.29,59.918,59.918,0,0,0-6.162,6.908,8.3,8.3,0,0,1,1.294-2.448,26.493,26.493,0,0,1,9.849-8.765A7.752,7.752,0,0,1,239.98,135.36Z" transform="translate(-170.61 -124.468)" fill="#455a64"/>
          <path id="Path_44552" data-name="Path 44552" d="M236.593,157.759a4.53,4.53,0,0,0-4.924.661,4.671,4.671,0,0,0,.844,7.344,3.982,3.982,0,0,0,3.011.957" transform="translate(-168.967 -115.533)" fill="#ffbe9d"/>
          <path id="Path_44553" data-name="Path 44553" d="M234.535,163.084c0,.084-.366.38-1.112.281a2.139,2.139,0,0,1-1.168-.563,2.223,2.223,0,0,1-.7-1.407,2.279,2.279,0,0,1,.45-1.562,2.139,2.139,0,0,1,1.055-.746c.718-.225,1.168,0,1.14.084s-.422.1-.943.394a1.843,1.843,0,0,0-.971,1.773,1.815,1.815,0,0,0,1.252,1.576C234.1,163.056,234.507,162.985,234.535,163.084Z" transform="translate(-168.443 -114.851)" fill="#eb996e"/>
          <path id="Path_44554" data-name="Path 44554" d="M238.562,187.981c0,.211-1.1.661-3.25.507a13.113,13.113,0,0,1-8.062-4.094,12.663,12.663,0,0,1-3.138-5.726,13.563,13.563,0,0,1,.394-7.527,14.182,14.182,0,0,1,4.854-6.838,18.7,18.7,0,0,1,8.16-3.123,38.126,38.126,0,0,0,7.457-1.787,23.651,23.651,0,0,0,13.183-12.663,28.319,28.319,0,0,0,2.068-7.879c.225-1.956.281-3.081.549-3.109s.675,1.041.886,3.123a22.144,22.144,0,0,1-1.083,8.779,24.2,24.2,0,0,1-7.457,10.988,25.213,25.213,0,0,1-6.824,4.122,37.692,37.692,0,0,1-8.09,2.04,16.081,16.081,0,0,0-6.711,2.42,11.073,11.073,0,0,0-3.813,5.079,10.875,10.875,0,0,0-.605,5.768,10.721,10.721,0,0,0,2.125,4.671,13.282,13.282,0,0,0,6.388,4.376C237.408,187.643,238.548,187.7,238.562,187.981Z" transform="translate(-171.612 -124.313)" fill="#455a64"/>
          <path id="Path_44555" data-name="Path 44555" d="M224.24,158.776c0-.521,2.814-.858,7.133-1.407s10.327-1.407,16-4.221a23.484,23.484,0,0,0,6.95-5.361,19.43,19.43,0,0,0,3.6-6.177c1.407-3.911.957-6.683,1.52-6.782.225,0,.661.577.971,1.857a13.324,13.324,0,0,1,0,5.628,18.952,18.952,0,0,1-3.475,7.626,23.482,23.482,0,0,1-7.893,6.486,32.108,32.108,0,0,1-9.553,3.081,42.913,42.913,0,0,1-8.006.521C226.969,159.846,224.24,159.269,224.24,158.776Z" transform="translate(-171.416 -124.683)" fill="#455a64"/>
          <path id="Path_44556" data-name="Path 44556" d="M235.351,228.661l-3.9,48.442a3.686,3.686,0,0,0,3.785,4l36.271-.985a3.686,3.686,0,0,0,3.574-3.32l4.981-47.443a3.7,3.7,0,0,0-3.672-4.08H239.023A3.686,3.686,0,0,0,235.351,228.661Z" transform="translate(-168.485 -87.878)" fill="#455a64"/>
          <path id="Path_44557" data-name="Path 44557" d="M253.092,231.331a2.167,2.167,0,1,1-.635-1.546A2.181,2.181,0,0,1,253.092,231.331Z" transform="translate(-161.449 -86.299)" fill="#fafafa"/>
          <path id="Path_44558" data-name="Path 44558" d="M239.3,240.77s-4.967,1.407-5.839,2.392a23.094,23.094,0,0,1-4.137,2.518l-3.728,1-5.22,15.744,31.643,1.013s8.723-6.191,7.626-6.866-4.46-.113-5.923,1.407c-2.307,2.378-6.064-.957-6.064-.957s15.7-3.208,17.01-4.812,2.814-1.829,1.97-3.433-7.4-.647-9.61-.647a60.5,60.5,0,0,0-7.19.915s9.849-3.461,10.552-3.869c1.97-1.069-.084-3.236-2.744-2.6-2.378.563-11.256,3.728-12.831,3.5s-5.628-.689-5.628-.689Z" transform="translate(-172.986 -81.57)" fill="#ffbe9d"/>
        </g>
        <g id="Character--inject-1046" transform="translate(878.869 142.224)">
          <path id="Path_19610" data-name="Path 19610" d="M109.059,452.831V437.414L137.9,437l.366,22.568-1.784.127c-7.963.541-40.532,2.182-45.883.637C84.628,458.66,109.059,452.831,109.059,452.831Z" transform="translate(35.736 52.208)" fill="#ff725e"/>
          <g id="Group_1231" data-name="Group 1231" transform="translate(163.54 503.335)" opacity="0.4">
            <path id="Path_19611" data-name="Path 19611" d="M89.68,454.263a10.049,10.049,0,0,1,3.552-6.2,9.78,9.78,0,0,1,6.737-2.182l.143,8.154Z" transform="translate(-89.68 -445.87)"/>
          </g>
          <g id="Group_1232" data-name="Group 1232" transform="translate(125.315 508.32)" opacity="0.4">
            <path id="Path_19612" data-name="Path 19612" d="M97.242,449s-8.584,2.58-7.485,4,34.066.971,48.591-.478v-.653l-38.462.828S98.915,449,97.242,449Z" transform="translate(-89.66 -449)"/>
          </g>
          <path id="Path_19613" data-name="Path 19613" d="M138.421,450.79h-.51l-1.417.1-5.256.3c-4.427.207-10.559.43-17.328.51s-12.9,0-17.344,0l-5.24-.159h22.536c6.769,0,12.884-.255,17.328-.414l5.256-.175h1.417a2.5,2.5,0,0,1,.557-.159Z" transform="translate(35.996 60.38)" fill="#263238"/>
          <path id="Path_19614" data-name="Path 19614" d="M116.662,453.271a12.182,12.182,0,0,0-1.019-2.5,11.959,11.959,0,0,0-1.816-1.991,4.666,4.666,0,0,1,2.835,4.491Z" transform="translate(18.847 59.189)" fill="#263238"/>
          <path id="Path_19615" data-name="Path 19615" d="M110.067,449.694a5.848,5.848,0,0,1-.924-1.083c-.43-.653-.7-1.242-.621-1.29s.494.43.924,1.1S110.163,449.646,110.067,449.694Z" transform="translate(33.899 58.323)" fill="#263238"/>
          <path id="Path_19616" data-name="Path 19616" d="M108.874,448.6a4.093,4.093,0,0,1-1.019-.669c-.494-.446-.86-.86-.8-.924s.526.223,1.019.669S108.969,448.6,108.874,448.6Z" transform="translate(37.418 58.131)" fill="#263238"/>
          <path id="Path_19617" data-name="Path 19617" d="M109.256,446.36a3.407,3.407,0,0,1-1.513.207,3.518,3.518,0,0,1-1.593-.143,3.474,3.474,0,0,1,1.593-.207C108.571,446.2,109.256,446.249,109.256,446.36Z" transform="translate(38.485 57.659)" fill="#263238"/>
          <path id="Path_19618" data-name="Path 19618" d="M109.258,445.08a2.771,2.771,0,0,1-1.672.51,2.834,2.834,0,0,1-1.736-.207,9.829,9.829,0,0,1,1.7-.127A9.953,9.953,0,0,1,109.258,445.08Z" transform="translate(38.96 56.996)" fill="#263238"/>
          <path id="Path_19619" data-name="Path 19619" d="M114.616,448.188a6.009,6.009,0,0,1-1.863,0,11,11,0,0,1-1.975-.414,5.944,5.944,0,0,1-1.131-.446,1.083,1.083,0,0,1-.478-.573.732.732,0,0,1,.271-.748,3.408,3.408,0,0,1,4.22.94,3.186,3.186,0,0,1,.621,1.226,1.242,1.242,0,0,1,0,.51,5.241,5.241,0,0,0-.876-1.593,3.186,3.186,0,0,0-1.593-1,2.819,2.819,0,0,0-2.214.175c-.287.223-.175.573.159.764a6.072,6.072,0,0,0,1.051.43,12.6,12.6,0,0,0,1.911.462C113.9,448.141,114.616,448.125,114.616,448.188Z" transform="translate(28.347 57.328)" fill="#263238"/>
          <path id="Path_19620" data-name="Path 19620" d="M108.182,448.645a1.847,1.847,0,0,1-.239-1.29,3.185,3.185,0,0,1,.494-1.354,1.879,1.879,0,0,1,1.593-.972.749.749,0,0,1,.589.86,2.135,2.135,0,0,1-.3.828,5.671,5.671,0,0,1-.86,1.131,2.772,2.772,0,0,1-1.051.765s.35-.335.86-.924a6.642,6.642,0,0,0,.764-1.131c.255-.4.414-1.1,0-1.179s-.94.43-1.21.8a3.058,3.058,0,0,0-.51,1.226A5.909,5.909,0,0,0,108.182,448.645Z" transform="translate(34.303 56.967)" fill="#263238"/>
          <path id="Path_19621" data-name="Path 19621" d="M100.008,445.882s-.828,0-2.134.1a9.126,9.126,0,0,0-7.485,6.132c-.43,1.242-.462,2.086-.526,2.07a1.864,1.864,0,0,1,0-.589A7.851,7.851,0,0,1,90.15,452a8.935,8.935,0,0,1,2.883-4.252,8.84,8.84,0,0,1,4.778-1.959,7.1,7.1,0,0,1,1.593,0,1.7,1.7,0,0,1,.605.1Z" transform="translate(73.708 57.389)" fill="#263238"/>
          <path id="Path_19622" data-name="Path 19622" d="M91.653,438.31a50.363,50.363,0,0,1,.319,5.925,53.013,53.013,0,0,1,0,5.94,48.8,48.8,0,0,1-.334-5.925A50.615,50.615,0,0,1,91.653,438.31Z" transform="translate(78.926 52.984)" fill="#263238"/>
          <path id="Path_19623" data-name="Path 19623" d="M106.981,449.42a17.159,17.159,0,0,1-4.2.462,15.742,15.742,0,0,1-4.236-.287c0-.1,1.9,0,4.22,0S106.965,449.308,106.981,449.42Z" transform="translate(52.88 59.553)" fill="#263238"/>
          <path id="Path_19624" data-name="Path 19624" d="M95.823,449.354s-.159.414-.334.844-.3.828-.4.812-.143-.446,0-.956S95.823,449.29,95.823,449.354Z" transform="translate(69.675 59.523)" fill="#263238"/>
          <path id="Path_19625" data-name="Path 19625" d="M94.76,447.675a2.26,2.26,0,0,1-.414.685c-.287.318-.589.494-.669.43s.127-.366.414-.685S94.681,447.611,94.76,447.675Z" transform="translate(72.872 58.527)" fill="#263238"/>
          <path id="Path_19626" data-name="Path 19626" d="M93.4,446.933c0,.112-.4.112-.828.255s-.717.4-.8.335.159-.478.685-.653S93.43,446.853,93.4,446.933Z" transform="translate(77.26 58.01)" fill="#263238"/>
          <path id="Path_19627" data-name="Path 19627" d="M91.264,446.542c0,.08-.127.239-.366.334s-.462.1-.494,0,.127-.239.366-.35S91.232,446.447,91.264,446.542Z" transform="translate(81.561 57.812)" fill="#263238"/>
          <path id="Path_19628" data-name="Path 19628" d="M34.744,440.79,37.5,452.353s18.92,24.558,24.749,23.364c3.822-.8-.876-7.2-8.075-25.848l-1.513-7.708Z" transform="translate(197.852 54.454)" fill="#ff725e"/>
          <path id="Path_19629" data-name="Path 19629" d="M60.984,468.85a2.326,2.326,0,0,1-1,.971,3.519,3.519,0,0,1-3.631-.51,104.37,104.37,0,0,1-9.4-8.919c-3.5-3.679-6.37-7.215-8.52-9.811L36.012,447.4l-.653-.86a2.926,2.926,0,0,0-.239-.287s0,.128.191.334.382.573.605.876c.526.764,1.322,1.863,2.325,3.185a123.273,123.273,0,0,0,8.457,9.906,93.268,93.268,0,0,0,9.556,8.887,4.446,4.446,0,0,0,2.134.78,3.186,3.186,0,0,0,1.688-.366,2.264,2.264,0,0,0,.8-.733,1.066,1.066,0,0,0,.111-.271Z" transform="translate(199.88 57.69)" fill="#263238"/>
          <path id="Path_19630" data-name="Path 19630" d="M44.954,455.555a3.06,3.06,0,0,0-1.593-.159,7.965,7.965,0,0,0-3.552,1.226,6.529,6.529,0,0,0-2.6,2.739,3.344,3.344,0,0,0-.414,1.513,8.6,8.6,0,0,1,.621-1.4,7.118,7.118,0,0,1,2.564-2.564,8.9,8.9,0,0,1,3.408-1.274C44.365,455.491,44.938,455.618,44.954,455.555Z" transform="translate(213.235 63.085)" fill="#263238"/>
          <path id="Path_19631" data-name="Path 19631" d="M53.876,456.182a2.4,2.4,0,0,0,.223-.542,10.05,10.05,0,0,0,.366-1.593,8.568,8.568,0,0,0-.876-5.256,8.138,8.138,0,0,0-3.822-3.711,6.489,6.489,0,0,0-1.593-.494,2.2,2.2,0,0,0-.605,0,12.032,12.032,0,0,1,2.07.733,8.313,8.313,0,0,1,3.615,3.663,8.792,8.792,0,0,1,.94,5.065A11.283,11.283,0,0,0,53.876,456.182Z" transform="translate(186.476 56.692)" fill="#263238"/>
          <path id="Path_19632" data-name="Path 19632" d="M51.053,442s.35,1.593.7,3.695a12.932,12.932,0,0,0,.972,3.631c.08,0-.3-1.593-.637-3.695A12.742,12.742,0,0,0,51.053,442Z" transform="translate(182.753 55.171)" fill="#263238"/>
          <path id="Path_19633" data-name="Path 19633" d="M45.079,447.574a4.333,4.333,0,0,0-2.421,0,4.427,4.427,0,0,0-2.2,1.035c0,.08,1-.414,2.277-.7S45.079,447.67,45.079,447.574Z" transform="translate(207.281 58.372)" fill="#263238"/>
          <path id="Path_19634" data-name="Path 19634" d="M44.048,448.818a2.994,2.994,0,0,0-2.054,0,2.882,2.882,0,0,0-1.784.987c0,.08.812-.414,1.863-.653S44.032,448.929,44.048,448.818Z" transform="translate(208.71 59.104)" fill="#263238"/>
          <path id="Path_19635" data-name="Path 19635" d="M43.172,450.454a2.532,2.532,0,0,0-2.1-.271,2.6,2.6,0,0,0-1.8,1.163,9.072,9.072,0,0,1,1.863-.828,10.675,10.675,0,0,1,2.039-.064Z" transform="translate(211.083 59.952)" fill="#263238"/>
          <path id="Path_19636" data-name="Path 19636" d="M48.118,448.775s-.876-.239-2.23-.764a16.13,16.13,0,0,1-2.277-1.1,13.726,13.726,0,0,1-1.258-.8c-.382-.287-.812-.7-.8-1.147s.573-.7,1-.589a2.882,2.882,0,0,1,1.179.78c.685.653,1.29,1.274,1.768,1.816a19.747,19.747,0,0,0,1.593,1.784,2.2,2.2,0,0,0-.319-.557c-.223-.335-.573-.812-1.035-1.386a25.172,25.172,0,0,0-1.752-1.879,2.787,2.787,0,0,0-1.306-.876,1.083,1.083,0,0,0-1.417.876,1.863,1.863,0,0,0,.94,1.449,14.361,14.361,0,0,0,1.29.812,15.055,15.055,0,0,0,2.357,1.035,12.744,12.744,0,0,0,1.593.462,2.308,2.308,0,0,0,.669.08Z" transform="translate(202.952 56.359)" fill="#263238"/>
          <path id="Path_19637" data-name="Path 19637" d="M39.822,449.147a16.944,16.944,0,0,0,.35-2.118,9.093,9.093,0,0,1,.637-2.182,4.925,4.925,0,0,1,.717-1.115c.287-.335.717-.605,1.083-.4s.4.717.334,1.147a4.78,4.78,0,0,1-.366,1.274,6.959,6.959,0,0,1-1.226,1.9,17.665,17.665,0,0,1-1.593,1.5,1.784,1.784,0,0,0,.51-.3,8.719,8.719,0,0,0,1.194-1.019,6.927,6.927,0,0,0,1.338-1.943,5.161,5.161,0,0,0,.414-1.354,1.449,1.449,0,0,0-.51-1.5,1.258,1.258,0,0,0-1.5.478,4.89,4.89,0,0,0-.749,1.211A8.441,8.441,0,0,0,39.869,447c-.08.669-.111,1.195-.127,1.593A2.023,2.023,0,0,0,39.822,449.147Z" transform="translate(210.245 55.733)" fill="#263238"/>
          <g id="Group_1233" data-name="Group 1233" transform="translate(234.013 501.248)" opacity="0.4">
            <path id="Path_19638" data-name="Path 19638" d="M36.106,450.118l-1.338-5.558s4.635.86,5.845,4.332a14.715,14.715,0,0,1,.908,5.924l10.065,10.862s2.532-4.953,7.1-3.759c0,0,3.6,7.963,3.488,9.906s-2.421,1.736-3.185,1.37a40.185,40.185,0,0,1-9.014-7.119,210.605,210.605,0,0,1-13.872-15.958Z" transform="translate(-34.768 -444.56)"/>
          </g>
          <path id="Path_19639" data-name="Path 19639" d="M125.029,174.36c0-8.106,2.246-16.229,2.118-21.2s-3.281-10.225-8.186-11.148c-1.72-.319-3.5,0-5.208-.51a14.334,14.334,0,0,1-5.272-3.185c-4.236-3.408-8.791-6.673-14.063-7.963s-11.467-.271-15,3.854c-2.548,2.978-3.392,7.024-3.966,10.894a10.607,10.607,0,0,0,.3,5.988,5.717,5.717,0,0,0,6.721,3.01" transform="translate(69.949 -129.831)" fill="#263238"/>
          <path id="Path_19640" data-name="Path 19640" d="M118.824,219.628l-30.562-1.4c-.175-3.185,1.481-23.3,1.481-23.3s-11.562-1.8-11.706-13.362,1.863-38.08,1.863-38.08h0a40.118,40.118,0,0,1,40.341,5.081l1.72,1.306Z" transform="translate(70.564 -123.673)" fill="#b78876"/>
          <path id="Path_19641" data-name="Path 19641" d="M88.826,176.054a26.9,26.9,0,0,0,15.066-4.284S100.4,180.1,88.81,179.048Z" transform="translate(71.465 -104.976)" fill="#aa6550"/>
          <path id="Path_19642" data-name="Path 19642" d="M74.532,153.938c.207-.1,7.963-2.357,7.692,5.542s-8.138,6.02-8.138,5.8S74.532,153.938,74.532,153.938Z" transform="translate(116.576 -115.764)" fill="#b78876"/>
          <path id="Path_19643" data-name="Path 19643" d="M75.408,161.424a3.744,3.744,0,0,0,.366.207,1.465,1.465,0,0,0,1.035,0,3.424,3.424,0,0,0,1.593-3.01,4.523,4.523,0,0,0-.319-1.991,1.593,1.593,0,0,0-1-1.083.7.7,0,0,0-.828.35c-.111.223,0,.382-.111.4s-.159-.143-.1-.462a.94.94,0,0,1,.334-.494,1.019,1.019,0,0,1,.764-.175,1.927,1.927,0,0,1,1.4,1.274,4.778,4.778,0,0,1,.4,2.214,3.552,3.552,0,0,1-2.1,3.345,1.433,1.433,0,0,1-1.258-.255A.4.4,0,0,1,75.408,161.424Z" transform="translate(117.754 -114.825)" fill="#aa6550"/>
          <path id="Path_19644" data-name="Path 19644" d="M100.772,154.169a1.649,1.649,0,1,0,1.688-1.417A1.593,1.593,0,0,0,100.772,154.169Z" transform="translate(52.256 -116.249)" fill="#263238"/>
          <path id="Path_19645" data-name="Path 19645" d="M99.067,153.126c.207.207,1.465-.717,3.185-.717s3.074.892,3.185.685-.112-.494-.685-.908a4.507,4.507,0,0,0-2.612-.8,4.3,4.3,0,0,0-2.564.828C99.162,152.632,98.971,153.031,99.067,153.126Z" transform="translate(53.595 -117.054)" fill="#263238"/>
          <path id="Path_19646" data-name="Path 19646" d="M89.84,154.459a1.593,1.593,0,1,0,.539-1.105A1.593,1.593,0,0,0,89.84,154.459Z" transform="translate(80.58 -116.125)" fill="#263238"/>
          <path id="Path_19647" data-name="Path 19647" d="M88.108,153.32c.207.223,1.449-.7,3.185-.7s3.074.892,3.185.685-.111-.494-.685-.908a4.428,4.428,0,0,0-2.612-.8,4.189,4.189,0,0,0-2.564.828C88.188,152.843,88.012,153.225,88.108,153.32Z" transform="translate(82.009 -116.93)" fill="#263238"/>
          <path id="Path_19648" data-name="Path 19648" d="M100.164,166.506a12.215,12.215,0,0,0-2.883-.525c-.446,0-.876-.127-.956-.446a2.246,2.246,0,0,1,.3-1.338c.43-1.1.876-2.246,1.338-3.456a57.332,57.332,0,0,0,3.01-9.03,61.543,61.543,0,0,0-3.759,8.7l-1.29,3.472a2.66,2.66,0,0,0-.223,1.784,1.1,1.1,0,0,0,.749.653,2.848,2.848,0,0,0,.764.191A11.687,11.687,0,0,0,100.164,166.506Z" transform="translate(63.503 -116.864)" fill="#263238"/>
          <path id="Path_19649" data-name="Path 19649" d="M98.244,161.72c-.287,0-.287,1.911-1.927,3.281s-3.711,1.163-3.727,1.433.462.366,1.322.4a4.905,4.905,0,0,0,3.185-1.083,4.284,4.284,0,0,0,1.593-2.755C98.595,162.166,98.387,161.72,98.244,161.72Z" transform="translate(70.647 -110.932)" fill="#263238"/>
          <path id="Path_19650" data-name="Path 19650" d="M87.279,148.817c.175.478,1.943.255,4.029.494s3.775.828,4.045.4-.159-.669-.844-1.131a7.055,7.055,0,0,0-6.148-.685C87.6,148.2,87.2,148.578,87.279,148.817Z" transform="translate(82.377 -119.37)" fill="#263238"/>
          <path id="Path_19651" data-name="Path 19651" d="M98.851,149.913c.319.4,1.593,0,3.01,0s2.707.271,2.994-.159,0-.605-.605-.987a4.364,4.364,0,0,0-4.778.159C98.883,149.308,98.723,149.722,98.851,149.913Z" transform="translate(54.464 -118.985)" fill="#263238"/>
          <path id="Path_19652" data-name="Path 19652" d="M124.021,151.013c-.159,3.376.589,7.119,0,10.432-.1.494-1.386,1.832-1.5,2.325-.685,2.93-1.9,4.173-3.631,1.163a27.331,27.331,0,0,1-1.37-5.7l-2.1-10.671a18.315,18.315,0,0,1-8.775,2.086,9.014,9.014,0,0,1-7.517-4.428,9.317,9.317,0,0,1-14.445,1.9,3.9,3.9,0,0,1-5.144,1.1,4.619,4.619,0,0,1-1.879-5.1c.8-2.819,3.806-4.348,6.625-5.176,10.989-3.185,23.141-.7,33.015,5.1a16.708,16.708,0,0,1,3.982,3.01c1.131,1.226,2.692,2.676,2.739,4.348" transform="translate(69.141 -125.261)" fill="#263238"/>
          <path id="Path_19653" data-name="Path 19653" d="M83.769,155.562a13.839,13.839,0,0,1,.637-1.911,8.234,8.234,0,0,1,3.488-4.029,7.963,7.963,0,1,1-1.4,12.582,8.25,8.25,0,0,1-2.516-4.619c-.223-1.258-.111-1.991-.207-2.007a1.784,1.784,0,0,0-.111.526,6.642,6.642,0,0,0,0,1.593,8.314,8.314,0,0,0,2.453,5.049,8.568,8.568,0,0,0,12.263-.334,8.744,8.744,0,0,0,2.246-4.905,8.648,8.648,0,0,0-1.131-5.272,8.536,8.536,0,0,0-11.881-3.01,8.2,8.2,0,0,0-3.488,4.316,7.07,7.07,0,0,0-.334,1.5A2.183,2.183,0,0,0,83.769,155.562Z" transform="translate(82.972 -119.091)" fill="#ebebeb"/>
          <path id="Path_19654" data-name="Path 19654" d="M96.944,155.59c.1,0,.159-.717.637-1.911a8.234,8.234,0,0,1,3.488-4,7.963,7.963,0,1,1-1.4,12.582,8.25,8.25,0,0,1-2.516-4.666c-.223-1.258-.111-1.991-.207-2.007a1.783,1.783,0,0,0-.111.526,5.987,5.987,0,0,0,0,1.593,8.2,8.2,0,0,0,2.437,5.049,8.568,8.568,0,0,0,12.263-.335,8.743,8.743,0,0,0,2.246-4.905,8.648,8.648,0,0,0-1.131-5.272,8.536,8.536,0,0,0-11.913-3.074,8.2,8.2,0,0,0-3.488,4.4,7.074,7.074,0,0,0-.334,1.5A2.184,2.184,0,0,0,96.944,155.59Z" transform="translate(48.838 -119.12)" fill="#ebebeb"/>
          <path id="Path_19655" data-name="Path 19655" d="M94.21,152.85c0,.223,1.115.414,2.5.414s2.5-.191,2.5-.414-1.115-.43-2.5-.43S94.21,152.611,94.21,152.85Z" transform="translate(67.546 -116.444)" fill="#ebebeb"/>
          <path id="Path_19656" data-name="Path 19656" d="M78.43,152.4a12.613,12.613,0,0,0,4.348,1.37,14.685,14.685,0,0,0,4.523.621,11.147,11.147,0,0,0-4.332-1.417A12.883,12.883,0,0,0,78.43,152.4Z" transform="translate(104.587 -116.468)" fill="#ebebeb"/>
          <path id="Path_19657" data-name="Path 19657" d="M76.227,134.774a17.519,17.519,0,0,1,2.118-1.736,12.216,12.216,0,0,1,7.1-1.688,36.009,36.009,0,0,1,21.739,10.559,38.859,38.859,0,0,1,2.692,3.01l.207.255.287-.143a8.664,8.664,0,0,1,10.5,2.755,12.407,12.407,0,0,1,1.593,9.237,32.4,32.4,0,0,1-1.879,6.259,16.369,16.369,0,0,0-.828,2.262,13.365,13.365,0,0,0,1.1-2.134,29.64,29.64,0,0,0,2.15-6.291,14.733,14.733,0,0,0,.239-4.65,11.149,11.149,0,0,0-1.816-5.112,9.412,9.412,0,0,0-11.451-3.074l.494.127a37.2,37.2,0,0,0-2.707-3.074,35.5,35.5,0,0,0-22.3-10.559,11.865,11.865,0,0,0-7.294,2.007,7.851,7.851,0,0,0-1.593,1.386,1.848,1.848,0,0,0-.35.605Z" transform="translate(72.072 -129.281)" fill="#455a64"/>
          <path id="Path_19658" data-name="Path 19658" d="M84.468,145.261a11.96,11.96,0,0,1,1.911-4.539,11,11,0,0,1,4.093-3.3,13.426,13.426,0,0,1,6.37-1.147,26.739,26.739,0,0,1,11.308,3.775,42.646,42.646,0,0,0,4.427,2.421,8.5,8.5,0,0,0-1.051-.876c-.7-.51-1.752-1.226-3.09-2.054a25.035,25.035,0,0,0-11.562-4.093,13.839,13.839,0,0,0-6.721,1.274,11.323,11.323,0,0,0-4.236,3.663,8.759,8.759,0,0,0-1.417,3.488A3.329,3.329,0,0,0,84.468,145.261Z" transform="translate(69.787 -126.517)" fill="#455a64"/>
          <path id="Path_19659" data-name="Path 19659" d="M91.267,181.708h0l-4.778.526h-.382a29.288,29.288,0,0,0-25.482,31.025l1.593,24.176s-4.778,69.375-4.571,78.947h87.912V265.273l-.494-29.655,11.865-32.076c-2.453-8.25-11.276-17.184-23.539-19.526-3.886-.748-7.676-2.15-12.247-2.357h0a24.1,24.1,0,0,1-29.432.35Z" transform="translate(68.068 -99.115)" fill="#e0e0e0"/>
          <path id="Path_19660" data-name="Path 19660" d="M165.223,416.428c-10.559-6.944-24.972-3.026-36.535,2.246s-23.889,11.833-36.359,9.381c-8.25-1.593-15.1-6.912-22.424-10.91S53.342,410.424,45.92,414.2L66.051,260.86l69.677,1.035Z" transform="translate(78.441 -52.179)" fill="#ff725e"/>
          <g id="Group_1234" data-name="Group 1234" transform="translate(124.361 208.682)" opacity="0.4">
            <path id="Path_19661" data-name="Path 19661" d="M165.223,416.428c-10.559-6.944-24.972-3.026-36.535,2.246s-23.889,11.833-36.359,9.381c-8.25-1.593-15.1-6.912-22.424-10.91S53.342,410.424,45.92,414.2L66.051,260.86l69.677,1.035Z" transform="translate(-45.92 -260.86)"/>
          </g>
          <path id="Path_19662" data-name="Path 19662" d="M35.12,261.5,48.88,552.665l37.793.908-2.962-252.48,56.554,252.942,30.355-1.37L121.965,262.089Z" transform="translate(90.245 -51.799)" fill="#263238"/>
          <path id="Path_19663" data-name="Path 19663" d="M89.172,264a29.05,29.05,0,0,0,.334,4.778c.319,2.946.8,7.008,1.386,11.483a48.715,48.715,0,0,0,1.051,6.37,8.934,8.934,0,0,0,2.819,4.443,7.181,7.181,0,0,0,3.185,1.593,2.532,2.532,0,0,0,1.322,0,8.536,8.536,0,0,1-4.157-2.023,8.681,8.681,0,0,1-2.437-4.3,56.416,56.416,0,0,1-.971-6.227c-.589-4.491-1.147-8.537-1.593-11.467a28.061,28.061,0,0,0-.94-4.65Z" transform="translate(75.514 -50.318)" fill="#455a64"/>
          <path id="Path_19664" data-name="Path 19664" d="M92.617,265.323c-.111,0,.239.541,0,1.306a1.592,1.592,0,0,1-.78.94,1.258,1.258,0,0,1-1.338-.318,1.242,1.242,0,0,1-.382-1.306,1.593,1.593,0,0,1,.892-.844,1.749,1.749,0,0,1,1.306,0c.064,0-.4-.669-1.449-.478a2.007,2.007,0,0,0-1.417,1.1,1.943,1.943,0,0,0,.51,2.166,1.911,1.911,0,0,0,2.2.4,1.991,1.991,0,0,0,1.019-1.481C93.3,265.674,92.648,265.244,92.617,265.323Z" transform="translate(81.371 -49.969)" fill="#455a64"/>
          <path id="Path_19665" data-name="Path 19665" d="M74.7,271.2a6.2,6.2,0,0,0,.749-4.093,6.371,6.371,0,0,0-1.306-3.966c-.223.1.366,1.816.51,4.013S74.474,271.135,74.7,271.2Z" transform="translate(123.275 -50.827)" fill="#455a64"/>
          <path id="Path_19666" data-name="Path 19666" d="M77.757,270.983a7.23,7.23,0,0,0,.8-4.22,7.1,7.1,0,0,0-1.083-4.173,36.9,36.9,0,0,0,.287,4.189A34.636,34.636,0,0,0,77.757,270.983Z" transform="translate(114.816 -51.153)" fill="#455a64"/>
          <path id="Path_19667" data-name="Path 19667" d="M107.87,270.756a24.973,24.973,0,0,0,0-4.348,24.384,24.384,0,0,0,0-4.348,12.04,12.04,0,0,0,.127,8.7Z" transform="translate(38.199 -51.467)" fill="#455a64"/>
          <path id="Path_19668" data-name="Path 19668" d="M112.164,270.487c.207-.08-.414-1.991-.478-4.428s.4-4.38.175-4.459a7.167,7.167,0,0,0-.972,4.491,6.944,6.944,0,0,0,1.274,4.4Z" transform="translate(28.06 -51.74)" fill="#455a64"/>
          <path id="Path_19669" data-name="Path 19669" d="M119.908,195.088s38.223,30.435,41.01,32.824S207.1,191.584,207.1,191.584h0a33.3,33.3,0,0,1,13.41-7.963h.207a61.13,61.13,0,0,1,9.556-1.8l1.752-.191-5.59,98.106.287.159-.319.494L224.479,316h0l-2.867,153.96H181.351L198.87,300.2c.191-2.055.382-4.507.541-7.247l4.969-46.839a27.187,27.187,0,0,0,.462-5.033c-9.062,6.068-32.712,21.532-44.721,20.975C144.546,261.341,100,210.68,100,210.68Z" transform="translate(-74.493 -99.133)" fill="#ff725e"/>
          <path id="Path_19670" data-name="Path 19670" d="M79.31,181.39Z" transform="translate(111.177 -99.275)" fill="#ff725e"/>
          <path id="Path_19671" data-name="Path 19671" d="M114.53,259.034c.223,0,1.784-16.149,3.5-36.1s2.946-36.153,2.723-36.169-1.784,16.149-3.5,36.105S114.307,259.018,114.53,259.034Z" transform="translate(13.654 -96.093)" fill="#263238"/>
          <path id="Path_19672" data-name="Path 19672" d="M43.81,273.175l8.106-14.509,1.417.207.175-77.243A92.989,92.989,0,0,1,66.823,183.6c12.263,2.341,21.086,11.276,23.523,19.51l16.786,72.831a9.3,9.3,0,0,1-.462,5.622h0a17.646,17.646,0,0,1-6.737,8.345,17.28,17.28,0,0,1-16.372,1.195l-4.571-2.023V291.6l32.155,174.839L75.3,473.353,53.509,316l-.287-8.2.08-30.356Z" transform="translate(135.879 -99.133)" fill="#ff725e"/>
          <path id="Path_19673" data-name="Path 19673" d="M74.618,252.8a2.865,2.865,0,0,0,.319-.669l.812-1.975c.334-.844.749-1.911,1.147-3.185s.908-2.66,1.338-4.252a102.71,102.71,0,0,0,2.58-11.339A112.936,112.936,0,0,0,82.262,217.2a116.877,116.877,0,0,0-.446-14.238,105.415,105.415,0,0,0-1.8-11.5c-.3-1.593-.717-3.058-1.035-4.332s-.637-2.373-.924-3.185l-.653-2.023c-.159-.462-.255-.7-.287-.685a2.342,2.342,0,0,0,.127.733l.51,2.07c.239.876.51,1.975.78,3.265s.637,2.723.908,4.348a112.048,112.048,0,0,1,1.593,11.435,114.162,114.162,0,0,1-.924,28.174c-.717,4.3-1.593,8.122-2.4,11.308-.382,1.593-.844,3.026-1.21,4.284s-.717,2.325-1,3.185-.478,1.465-.653,2.023a2.277,2.277,0,0,0-.223.733Z" transform="translate(115.646 -99.364)" fill="#263238"/>
          <path id="Path_19674" data-name="Path 19674" d="M90.645,261.264a6.191,6.191,0,0,0-.685-.4l-2.054-.987L80.229,256.3,54.015,244.319l.175.541c1.593-2.9,3.3-5.893,5.017-8.967l3.185-5.59-.382.191,31.327,3.074,9.317.844,2.516.191a5.215,5.215,0,0,0,.876,0,3.754,3.754,0,0,0-.86-.175l-2.5-.319L93.4,233.043,61.978,229.73h-.255l-.127.223-3.185,5.59-4.873,8.951-.207.366.382.159,26.31,11.722,7.772,3.376,2.1.876Z" transform="translate(125.817 -70.627)" fill="#263238"/>
          <path id="Path_19675" data-name="Path 19675" d="M64.29,214a118.029,118.029,0,0,0,.94,14.127,124.364,124.364,0,0,0,1.784,14.031,120.288,120.288,0,0,0-.956-14.127A122.388,122.388,0,0,0,64.29,214Z" transform="translate(147.394 -79.949)" fill="#263238"/>
          <path id="Path_19676" data-name="Path 19676" d="M55.46,289.69A18.493,18.493,0,0,0,58.884,291l8.329,2.9,8.266,3.074a17.279,17.279,0,0,0,3.488,1.163,15.4,15.4,0,0,0-3.185-1.7c-2.054-.94-4.953-2.134-8.2-3.313s-6.259-2.086-8.441-2.676A14.539,14.539,0,0,0,55.46,289.69Z" transform="translate(149.504 -35.093)" fill="#263238"/>
          <path id="Path_19677" data-name="Path 19677" d="M51.262,299.26a9.157,9.157,0,0,0-.207,2.039,35.438,35.438,0,0,0,.159,5.59,32.729,32.729,0,0,0,6.562,17.121A23.794,23.794,0,0,0,73.7,332.849a17.313,17.313,0,0,0,5.606-.3,10.231,10.231,0,0,0,1.465-.43c.319-.111.494-.175.478-.207a25.111,25.111,0,0,1-7.485.366A24.064,24.064,0,0,1,58.428,323.5a34.019,34.019,0,0,1-6.641-16.691C51.2,302.191,51.421,299.26,51.262,299.26Z" transform="translate(154.307 -29.421)" fill="#263238"/>
          <rect id="Rectangle_2238" data-name="Rectangle 2238" width="13.633" height="4.587" transform="translate(191.936 133.637)" fill="#455a64"/>
          <path id="Path_19678" data-name="Path 19678" d="M109.187,181.24a2.579,2.579,0,0,0-.43.605c-.255.414-.669,1-1.115,1.816a49.2,49.2,0,0,0-3.185,7.151,71.4,71.4,0,0,0-3.95,25.482,144.93,144.93,0,0,0,3.058,25.673c.637,3.185,1.21,5.861,1.593,7.661.191.828.366,1.513.494,2.086a4.1,4.1,0,0,0,.223.7,16.423,16.423,0,0,0-.4-2.835c-.35-1.959-.812-4.555-1.37-7.708a165.634,165.634,0,0,1-2.8-25.578,75.268,75.268,0,0,1,3.679-25.307,57.732,57.732,0,0,1,2.994-7.183,23.507,23.507,0,0,0,1.21-2.564Z" transform="translate(47.584 -99.364)" fill="#263238"/>
          <path id="Path_19679" data-name="Path 19679" d="M108.52,263.17c0-.1-.764-.4-1.593.414a2.23,2.23,0,0,0-.685,1.863,2.172,2.172,0,1,0,4.141-1.147c-.478-1.083-1.354-1.147-1.338-1.035a2.567,2.567,0,0,1,.78,1.226,1.688,1.688,0,0,1-.191,1.37,1.417,1.417,0,0,1-1.481.494,1.386,1.386,0,0,1-1.147-1.035,1.688,1.688,0,0,1,.35-1.338C107.867,263.282,108.536,263.3,108.52,263.17Z" transform="translate(37.055 -50.889)" fill="#263238"/>
          <path id="Path_19680" data-name="Path 19680" d="M110.711,304.644a2.877,2.877,0,0,1,.637,1.593,2.118,2.118,0,0,1-.605,1.593,1.927,1.927,0,0,1-3.09-1.306,2.1,2.1,0,0,1,.733-1.593c.812-.717,1.593-.541,1.593-.685s-.812-.542-1.959.223a2.6,2.6,0,0,0-1.147,1.991,2.644,2.644,0,0,0,4.4,1.879,2.58,2.58,0,0,0,.637-2.214C111.746,304.867,110.711,304.549,110.711,304.644Z" transform="translate(34.641 -26.604)" fill="#263238"/>
          <path id="Path_19681" data-name="Path 19681" d="M119.365,235.716l3.663-17.837s-45.135-.589-44.593.207S83.213,259,83.213,259s31.741-1.21,30.562-1.1Z" transform="translate(68.86 -77.775)" fill="#263238"/>
          <path id="Path_19682" data-name="Path 19682" d="M120.7,223.92h0a4.173,4.173,0,0,0-3.95,2.676,9.11,9.11,0,0,1-2.676,4.284c-1.959,1.067-5.351,1.927-7.135,1.051s-8.935-7.31-10.177-6.593-2.325,2.325-1.067,3.759,7.852,5.7,6.593,7.135-15.162-4.858-17.312-4.3-3.392,1.863-2.134,2.723,10.7,4.428,11.244,5.686c0,0-14.334-3.759-14.811-2.867s-1.433,2.325,0,2.867,13.728,3.743,14.811,4.268a25.635,25.635,0,0,0,5.495,1.593,57.831,57.831,0,0,1,5.749,1.832,12.645,12.645,0,0,0,8.887-.239l1.449-.589a5.686,5.686,0,0,0,3.552-5.638l-.3-4.873,1.593-4.013Z" transform="translate(71.044 -74.071)" fill="#b78876"/>
          <path id="Path_19683" data-name="Path 19683" d="M214.944,198.292s-6.976-11.8-8.616-13.028-16.308-6.371-17.519-5.925-18.841,3.727-16.77,5.781,14.334-.414,14.334-.414l1.672.8s-10.607,1.879-12.821,3.185-1.29,3.743.653,3.5,11.148-2.182,11.706-1.8-10.018,2.66-11.148,3.345c-1.593.94-1.593,3.663.3,3.5,1.131-.1,11.148-2.851,11.148-2.851a85.884,85.884,0,0,0-8.584,3.886,1.465,1.465,0,0,0,1.5,2.469c1.179-.287,6.737-3.042,8.313-3.408,0,0,1.481.366,2.867,3.329s8.759,8.823,8.759,8.823Z" transform="translate(-171.87 -100.506)" fill="#b78876"/>
          <path id="Path_19684" data-name="Path 19684" d="M195.317,195.513a3.5,3.5,0,0,1-4.093,0c-1.274-.733-2.246-1.879-3.472-2.707-3.631-2.469-8.791-1.784-12.3-4.428-.494-.366-.971-.972-.717-1.593s.924-.589,1.5-.573l14.541.112" transform="translate(-156.703 -96.421)" fill="#b78876"/>
          <path id="Path_19685" data-name="Path 19685" d="M191.235,186.553a5.082,5.082,0,0,0-1.593-.175c-1.019,0-2.469-.112-4.284-.175l-6.37-.127H177.14a2.867,2.867,0,0,0-2.118.478,1.226,1.226,0,0,0-.223,1.354,2.612,2.612,0,0,0,.748.94,9.352,9.352,0,0,0,1.848,1.083,54.773,54.773,0,0,0,7.565,2.039,10.926,10.926,0,0,1,2.994,1.306,28.464,28.464,0,0,1,2.309,1.816,5.08,5.08,0,0,0,4.109,1.37c1.067-.223,1.417-.812,1.37-.812a3.886,3.886,0,0,1-1.417.494,4.969,4.969,0,0,1-3.695-1.593,27.99,27.99,0,0,0-2.277-1.927,11.338,11.338,0,0,0-3.185-1.465,64.7,64.7,0,0,1-7.438-1.991,8.137,8.137,0,0,1-1.593-.987c-.478-.366-.717-.876-.462-1.083a3,3,0,0,1,1.593-.239h8.106c1.8,0,3.185,0,4.284-.1A7.169,7.169,0,0,0,191.235,186.553Z" transform="translate(-157.159 -96.522)" fill="#aa6550"/>
          <path id="Path_19686" data-name="Path 19686" d="M185.04,183.373a7.963,7.963,0,0,0,3.185.828,18.9,18.9,0,0,0,3.631.1c1.354-.175,2.819-.4,4.364-.637l3.281-.541h-.191a46.85,46.85,0,0,0,7.645,2.262,47.149,47.149,0,0,0-7.39-3.01h-.207l-3.185.494-4.316.7a22.576,22.576,0,0,1-3.52.1A22.463,22.463,0,0,0,185.04,183.373Z" transform="translate(-184.855 -98.694)" fill="#aa6550"/>
        </g>
      </g>
    </g>
  </g>
</svg>
