<svg xmlns="http://www.w3.org/2000/svg" xmlns:xlink="http://www.w3.org/1999/xlink" width="1440" height="906" viewBox="0 0 1440 906">
  <defs>
    <clipPath id="clip-path">
      <rect id="Rectangle_10396" data-name="Rectangle 10396" width="1440" height="906" transform="translate(0 72)" fill="#fff" stroke="#707070" stroke-width="1"/>
    </clipPath>
  </defs>
  <g id="Mask_Group_760" data-name="Mask Group 760" transform="translate(0 -72)" clip-path="url(#clip-path)">
    <g id="Program_Banner_Default_L" data-name="Program Banner Default L" transform="translate(-374.097 -149.17)">
      <g id="Program_BG_Shape" data-name="Program BG Shape">
        <g id="Group_38085" data-name="Group 38085" transform="translate(-1376.903 -263.83)">
          <path id="Polygon_253" data-name="Polygon 253" d="M109.574,0a4,4,0,0,1,3.465,2l34.987,60.644a4,4,0,0,1,0,4l-34.987,60.644a4,4,0,0,1-3.465,2H39.6a4,4,0,0,1-3.465-2L1.153,66.643a4,4,0,0,1,0-4L36.14,2A4,4,0,0,1,39.6,0Z" transform="translate(1650.547 505.131) rotate(30)" fill="#d0f3ef"/>
          <path id="Polygon_257" data-name="Polygon 257" d="M109.574,0a4,4,0,0,1,3.465,2l34.987,60.644a4,4,0,0,1,0,4l-34.987,60.644a4,4,0,0,1-3.465,2H39.6a4,4,0,0,1-3.465-2L1.153,66.643a4,4,0,0,1,0-4L36.14,2A4,4,0,0,1,39.6,0Z" transform="translate(1441.547 868.131) rotate(30)" fill="#d0f3ef"/>
          <path id="Polygon_252" data-name="Polygon 252" d="M109.574,0a4,4,0,0,1,3.465,2l34.987,60.644a4,4,0,0,1,0,4l-34.987,60.644a4,4,0,0,1-3.465,2H39.6a4,4,0,0,1-3.465-2L1.153,66.643a4,4,0,0,1,0-4L36.14,2A4,4,0,0,1,39.6,0Z" transform="translate(1720.164 384.551) rotate(30)" fill="#d0f3ef"/>
          <path id="Polygon_258" data-name="Polygon 258" d="M109.574,0a4,4,0,0,1,3.465,2l34.987,60.644a4,4,0,0,1,0,4l-34.987,60.644a4,4,0,0,1-3.465,2H39.6a4,4,0,0,1-3.465-2L1.153,66.643a4,4,0,0,1,0-4L36.14,2A4,4,0,0,1,39.6,0Z" transform="translate(1511.164 747.551) rotate(30)" fill="#d0f3ef"/>
          <path id="Polygon_251" data-name="Polygon 251" d="M109.574,0a4,4,0,0,1,3.465,2l34.987,60.644a4,4,0,0,1,0,4l-34.987,60.644a4,4,0,0,1-3.465,2H39.6a4,4,0,0,1-3.465-2L1.153,66.643a4,4,0,0,1,0-4L36.14,2A4,4,0,0,1,39.6,0Z" transform="translate(1789.78 263.971) rotate(30)" fill="#d0f3ef"/>
          <path id="Polygon_267" data-name="Polygon 267" d="M109.574,0a4,4,0,0,1,3.465,2l34.987,60.644a4,4,0,0,1,0,4l-34.987,60.644a4,4,0,0,1-3.465,2H39.6a4,4,0,0,1-3.465-2L1.153,66.643a4,4,0,0,1,0-4L36.14,2A4,4,0,0,1,39.6,0Z" transform="translate(3037.78 292.971) rotate(30)" fill="#d0f3ef"/>
          <path id="Polygon_259" data-name="Polygon 259" d="M109.574,0a4,4,0,0,1,3.465,2l34.987,60.644a4,4,0,0,1,0,4l-34.987,60.644a4,4,0,0,1-3.465,2H39.6a4,4,0,0,1-3.465-2L1.153,66.643a4,4,0,0,1,0-4L36.14,2A4,4,0,0,1,39.6,0Z" transform="translate(1580.78 626.971) rotate(30)" fill="#d0f3ef"/>
          <path id="Polygon_253-2" data-name="Polygon 253" d="M109.574,0a4,4,0,0,1,3.465,2l34.987,60.644a4,4,0,0,1,0,4l-34.987,60.644a4,4,0,0,1-3.465,2H39.6a4,4,0,0,1-3.465-2L1.153,66.643a4,4,0,0,1,0-4L36.14,2A4,4,0,0,1,39.6,0Z" transform="translate(1862.1 627.271) rotate(30)" fill="#d0f3ef"/>
          <path id="Polygon_281" data-name="Polygon 281" d="M109.574,0a4,4,0,0,1,3.465,2l34.987,60.644a4,4,0,0,1,0,4l-34.987,60.644a4,4,0,0,1-3.465,2H39.6a4,4,0,0,1-3.465-2L1.153,66.643a4,4,0,0,1,0-4L36.14,2A4,4,0,0,1,39.6,0Z" transform="translate(1932.1 749.271) rotate(30)" fill="#d0f3ef"/>
          <g id="Polygon_269" data-name="Polygon 269" transform="translate(3110.1 656.271) rotate(30)" fill="none">
            <path d="M109.574,0a4,4,0,0,1,3.465,2l34.987,60.644a4,4,0,0,1,0,4l-34.987,60.644a4,4,0,0,1-3.465,2H39.6a4,4,0,0,1-3.465-2L1.153,66.643a4,4,0,0,1,0-4L36.14,2A4,4,0,0,1,39.6,0Z" stroke="none"/>
            <path d="M 39.60491943359375 4 L 4.617935180664062 64.64406585693359 L 39.60489654541016 125.2881317138672 L 109.5736999511719 125.2881317138672 L 144.5606842041016 64.64406585693359 L 109.5736999511719 4 L 39.60491943359375 4 M 39.60491943359375 0 L 109.5736999511719 0 C 111.0032196044922 0 112.3240661621094 0.7628631591796875 113.0384368896484 2.001106262207031 L 148.0254211425781 62.64517211914062 C 148.7390899658203 63.88221740722656 148.7390899658203 65.40591430664062 148.0254211425781 66.64295959472656 L 113.0384368896484 127.2870254516602 C 112.3240661621094 128.5252380371094 111.0032196044922 129.2881317138672 109.5736999511719 129.2881317138672 L 39.60489654541016 129.2881317138672 C 38.17537689208984 129.2881317138672 36.85453033447266 128.5252380371094 36.14015960693359 127.2870254516602 L 1.1531982421875 66.64295959472656 C 0.4395294189453125 65.40591430664062 0.4395294189453125 63.88219451904297 1.1531982421875 62.64517211914062 L 36.14018249511719 2.001106262207031 C 36.85453033447266 0.7628631591796875 38.17539978027344 0 39.60491943359375 0 Z" stroke="none" fill="#d0f3ef"/>
          </g>
          <path id="Polygon_260" data-name="Polygon 260" d="M109.574,0a4,4,0,0,1,3.465,2l34.987,60.644a4,4,0,0,1,0,4l-34.987,60.644a4,4,0,0,1-3.465,2H39.6a4,4,0,0,1-3.465-2L1.153,66.643a4,4,0,0,1,0-4L36.14,2A4,4,0,0,1,39.6,0Z" transform="translate(1653.1 990.271) rotate(30)" fill="#d0f3ef"/>
          <path id="Polygon_270" data-name="Polygon 270" d="M109.574,0a4,4,0,0,1,3.465,2l34.987,60.644a4,4,0,0,1,0,4l-34.987,60.644a4,4,0,0,1-3.465,2H39.6a4,4,0,0,1-3.465-2L1.153,66.643a4,4,0,0,1,0-4L36.14,2A4,4,0,0,1,39.6,0Z" transform="translate(2901.1 1019.271) rotate(30)" fill="#d0f3ef"/>
          <path id="Polygon_284" data-name="Polygon 284" d="M109.574,0a4,4,0,0,1,3.465,2l34.987,60.644a4,4,0,0,1,0,4l-34.987,60.644a4,4,0,0,1-3.465,2H39.6a4,4,0,0,1-3.465-2L1.153,66.643a4,4,0,0,1,0-4L36.14,2A4,4,0,0,1,39.6,0Z" transform="translate(3110.1 897.271) rotate(30)" fill="#d0f3ef"/>
          <g id="Polygon_252-2" data-name="Polygon 252" transform="translate(1931.716 506.691) rotate(30)" fill="none">
            <path d="M109.574,0a4,4,0,0,1,3.465,2l34.987,60.644a4,4,0,0,1,0,4l-34.987,60.644a4,4,0,0,1-3.465,2H39.6a4,4,0,0,1-3.465-2L1.153,66.643a4,4,0,0,1,0-4L36.14,2A4,4,0,0,1,39.6,0Z" stroke="none"/>
            <path d="M 39.60491943359375 4 L 4.617935180664062 64.64406585693359 L 39.60489654541016 125.2881317138672 L 109.5736999511719 125.2881317138672 L 144.5606842041016 64.64406585693359 L 109.5736999511719 4 L 39.60491943359375 4 M 39.60491943359375 0 L 109.5736999511719 0 C 111.0032196044922 0 112.3240661621094 0.7628631591796875 113.0384368896484 2.001106262207031 L 148.0254211425781 62.64517211914062 C 148.7390899658203 63.88221740722656 148.7390899658203 65.40591430664062 148.0254211425781 66.64295959472656 L 113.0384368896484 127.2870254516602 C 112.3240661621094 128.5252380371094 111.0032196044922 129.2881317138672 109.5736999511719 129.2881317138672 L 39.60489654541016 129.2881317138672 C 38.17537689208984 129.2881317138672 36.85453033447266 128.5252380371094 36.14015960693359 127.2870254516602 L 1.1531982421875 66.64295959472656 C 0.4395294189453125 65.40591430664062 0.4395294189453125 63.88219451904297 1.1531982421875 62.64517211914062 L 36.14018249511719 2.001106262207031 C 36.85453033447266 0.7628631591796875 38.17539978027344 0 39.60491943359375 0 Z" stroke="none" fill="#d1f4ef"/>
          </g>
          <path id="Polygon_271" data-name="Polygon 271" d="M109.574,0a4,4,0,0,1,3.465,2l34.987,60.644a4,4,0,0,1,0,4l-34.987,60.644a4,4,0,0,1-3.465,2H39.6a4,4,0,0,1-3.465-2L1.153,66.643a4,4,0,0,1,0-4L36.14,2A4,4,0,0,1,39.6,0Z" transform="translate(3179.716 535.691) rotate(30)" fill="#d0f3ef"/>
          <path id="Polygon_261" data-name="Polygon 261" d="M109.574,0a4,4,0,0,1,3.465,2l34.987,60.644a4,4,0,0,1,0,4l-34.987,60.644a4,4,0,0,1-3.465,2H39.6a4,4,0,0,1-3.465-2L1.153,66.643a4,4,0,0,1,0-4L36.14,2A4,4,0,0,1,39.6,0Z" transform="translate(1722.716 869.691) rotate(30)" fill="#d0f3ef"/>
          <path id="Polygon_272" data-name="Polygon 272" d="M109.574,0a4,4,0,0,1,3.465,2l34.987,60.644a4,4,0,0,1,0,4l-34.987,60.644a4,4,0,0,1-3.465,2H39.6a4,4,0,0,1-3.465-2L1.153,66.643a4,4,0,0,1,0-4L36.14,2A4,4,0,0,1,39.6,0Z" transform="translate(2970.716 898.691) rotate(30)" fill="#d0f3ef"/>
          <path id="Polygon_283" data-name="Polygon 283" d="M109.574,0a4,4,0,0,1,3.465,2l34.987,60.644a4,4,0,0,1,0,4l-34.987,60.644a4,4,0,0,1-3.465,2H39.6a4,4,0,0,1-3.465-2L1.153,66.643a4,4,0,0,1,0-4L36.14,2A4,4,0,0,1,39.6,0Z" transform="translate(3179.716 777.691) rotate(30)" fill="#d0f3ef"/>
          <path id="Polygon_273" data-name="Polygon 273" d="M109.574,0a4,4,0,0,1,3.465,2l34.987,60.644a4,4,0,0,1,0,4l-34.987,60.644a4,4,0,0,1-3.465,2H39.6a4,4,0,0,1-3.465-2L1.153,66.643a4,4,0,0,1,0-4L36.14,2A4,4,0,0,1,39.6,0Z" transform="translate(3249.333 415.111) rotate(30)" fill="#d0f3ef"/>
          <path id="Polygon_262" data-name="Polygon 262" d="M109.574,0a4,4,0,0,1,3.465,2l34.987,60.644a4,4,0,0,1,0,4l-34.987,60.644a4,4,0,0,1-3.465,2H39.6a4,4,0,0,1-3.465-2L1.153,66.643a4,4,0,0,1,0-4L36.14,2A4,4,0,0,1,39.6,0Z" transform="translate(1792.333 749.111) rotate(30)" fill="#d0f3ef"/>
          <path id="Polygon_282" data-name="Polygon 282" d="M109.574,0a4,4,0,0,1,3.465,2l34.987,60.644a4,4,0,0,1,0,4l-34.987,60.644a4,4,0,0,1-3.465,2H39.6a4,4,0,0,1-3.465-2L1.153,66.643a4,4,0,0,1,0-4L36.14,2A4,4,0,0,1,39.6,0Z" transform="translate(1861.333 870.111) rotate(30)" fill="#d0f3ef"/>
          <path id="Polygon_274" data-name="Polygon 274" d="M109.574,0a4,4,0,0,1,3.465,2l34.987,60.644a4,4,0,0,1,0,4l-34.987,60.644a4,4,0,0,1-3.465,2H39.6a4,4,0,0,1-3.465-2L1.153,66.643a4,4,0,0,1,0-4L36.14,2A4,4,0,0,1,39.6,0Z" transform="translate(3040.333 778.111) rotate(30)" fill="#d0f3ef"/>
          <path id="Polygon_253-3" data-name="Polygon 253" d="M109.574,0a4,4,0,0,1,3.465,2l34.987,60.644a4,4,0,0,1,0,4l-34.987,60.644a4,4,0,0,1-3.465,2H39.6a4,4,0,0,1-3.465-2L1.153,66.643a4,4,0,0,1,0-4L36.14,2A4,4,0,0,1,39.6,0Z" transform="translate(1792.022 504.99) rotate(30)" fill="#d0f3ef"/>
          <path id="Polygon_275" data-name="Polygon 275" d="M109.574,0a4,4,0,0,1,3.465,2l34.987,60.644a4,4,0,0,1,0,4l-34.987,60.644a4,4,0,0,1-3.465,2H39.6a4,4,0,0,1-3.465-2L1.153,66.643a4,4,0,0,1,0-4L36.14,2A4,4,0,0,1,39.6,0Z" transform="translate(3040.022 533.99) rotate(30)" fill="#d0f3ef"/>
          <path id="Polygon_254" data-name="Polygon 254" d="M109.574,0a4,4,0,0,1,3.465,2l34.987,60.644a4,4,0,0,1,0,4l-34.987,60.644a4,4,0,0,1-3.465,2H39.6a4,4,0,0,1-3.465-2L1.153,66.643a4,4,0,0,1,0-4L36.14,2A4,4,0,0,1,39.6,0Z" transform="translate(1583.022 867.99) rotate(30)" fill="#d0f3ef"/>
          <path id="Polygon_252-3" data-name="Polygon 252" d="M109.574,0a4,4,0,0,1,3.465,2l34.987,60.644a4,4,0,0,1,0,4l-34.987,60.644a4,4,0,0,1-3.465,2H39.6a4,4,0,0,1-3.465-2L1.153,66.643a4,4,0,0,1,0-4L36.14,2A4,4,0,0,1,39.6,0Z" transform="translate(1861.639 384.41) rotate(30)" fill="#d0f3ef"/>
          <g id="Polygon_277" data-name="Polygon 277" transform="translate(3109.639 413.41) rotate(30)" fill="none">
            <path d="M109.574,0a4,4,0,0,1,3.465,2l34.987,60.644a4,4,0,0,1,0,4l-34.987,60.644a4,4,0,0,1-3.465,2H39.6a4,4,0,0,1-3.465-2L1.153,66.643a4,4,0,0,1,0-4L36.14,2A4,4,0,0,1,39.6,0Z" stroke="none"/>
            <path d="M 39.60491943359375 4 L 4.617935180664062 64.64406585693359 L 39.60489654541016 125.2881317138672 L 109.5736999511719 125.2881317138672 L 144.5606842041016 64.64406585693359 L 109.5736999511719 4 L 39.60491943359375 4 M 39.60491943359375 0 L 109.5736999511719 0 C 111.0032196044922 0 112.3240661621094 0.7628631591796875 113.0384368896484 2.001106262207031 L 148.0254211425781 62.64517211914062 C 148.7390899658203 63.88221740722656 148.7390899658203 65.40591430664062 148.0254211425781 66.64295959472656 L 113.0384368896484 127.2870254516602 C 112.3240661621094 128.5252380371094 111.0032196044922 129.2881317138672 109.5736999511719 129.2881317138672 L 39.60489654541016 129.2881317138672 C 38.17537689208984 129.2881317138672 36.85453033447266 128.5252380371094 36.14015960693359 127.2870254516602 L 1.1531982421875 66.64295959472656 C 0.4395294189453125 65.40591430664062 0.4395294189453125 63.88219451904297 1.1531982421875 62.64517211914062 L 36.14018249511719 2.001106262207031 C 36.85453033447266 0.7628631591796875 38.17539978027344 0 39.60491943359375 0 Z" stroke="none" fill="#d0f3ee"/>
          </g>
          <path id="Polygon_255" data-name="Polygon 255" d="M109.574,0a4,4,0,0,1,3.465,2l34.987,60.644a4,4,0,0,1,0,4l-34.987,60.644a4,4,0,0,1-3.465,2H39.6a4,4,0,0,1-3.465-2L1.153,66.643a4,4,0,0,1,0-4L36.14,2A4,4,0,0,1,39.6,0Z" transform="translate(1652.639 747.41) rotate(30)" fill="#d0f3ef"/>
          <g id="Polygon_278" data-name="Polygon 278" transform="translate(2900.639 776.41) rotate(30)" fill="none">
            <path d="M109.574,0a4,4,0,0,1,3.465,2l34.987,60.644a4,4,0,0,1,0,4l-34.987,60.644a4,4,0,0,1-3.465,2H39.6a4,4,0,0,1-3.465-2L1.153,66.643a4,4,0,0,1,0-4L36.14,2A4,4,0,0,1,39.6,0Z" stroke="none"/>
            <path d="M 39.60491943359375 4 L 4.617935180664062 64.64406585693359 L 39.60489654541016 125.2881317138672 L 109.5736999511719 125.2881317138672 L 144.5606842041016 64.64406585693359 L 109.5736999511719 4 L 39.60491943359375 4 M 39.60491943359375 0 L 109.5736999511719 0 C 111.0032196044922 0 112.3240661621094 0.7628631591796875 113.0384368896484 2.001106262207031 L 148.0254211425781 62.64517211914062 C 148.7390899658203 63.88221740722656 148.7390899658203 65.40591430664062 148.0254211425781 66.64295959472656 L 113.0384368896484 127.2870254516602 C 112.3240661621094 128.5252380371094 111.0032196044922 129.2881317138672 109.5736999511719 129.2881317138672 L 39.60489654541016 129.2881317138672 C 38.17537689208984 129.2881317138672 36.85453033447266 128.5252380371094 36.14015960693359 127.2870254516602 L 1.1531982421875 66.64295959472656 C 0.4395294189453125 65.40591430664062 0.4395294189453125 63.88219451904297 1.1531982421875 62.64517211914062 L 36.14018249511719 2.001106262207031 C 36.85453033447266 0.7628631591796875 38.17539978027344 0 39.60491943359375 0 Z" stroke="none" fill="#d0f3ef"/>
          </g>
          <path id="Polygon_251-2" data-name="Polygon 251" d="M109.574,0a4,4,0,0,1,3.465,2l34.987,60.644a4,4,0,0,1,0,4l-34.987,60.644a4,4,0,0,1-3.465,2H39.6a4,4,0,0,1-3.465-2L1.153,66.643a4,4,0,0,1,0-4L36.14,2A4,4,0,0,1,39.6,0Z" transform="translate(1931.256 263.83) rotate(30)" fill="#d0f3ef"/>
          <path id="Polygon_279" data-name="Polygon 279" d="M109.574,0a4,4,0,0,1,3.465,2l34.987,60.644a4,4,0,0,1,0,4l-34.987,60.644a4,4,0,0,1-3.465,2H39.6a4,4,0,0,1-3.465-2L1.153,66.643a4,4,0,0,1,0-4L36.14,2A4,4,0,0,1,39.6,0Z" transform="translate(3179.256 292.83) rotate(30)" fill="#d0f3ef"/>
          <g id="Polygon_256" data-name="Polygon 256" transform="translate(1722.256 626.83) rotate(30)" fill="none">
            <path d="M109.574,0a4,4,0,0,1,3.465,2l34.987,60.644a4,4,0,0,1,0,4l-34.987,60.644a4,4,0,0,1-3.465,2H39.6a4,4,0,0,1-3.465-2L1.153,66.643a4,4,0,0,1,0-4L36.14,2A4,4,0,0,1,39.6,0Z" stroke="none"/>
            <path d="M 39.60491943359375 4 L 4.617935180664062 64.64406585693359 L 39.60489654541016 125.2881317138672 L 109.5736999511719 125.2881317138672 L 144.5606842041016 64.64406585693359 L 109.5736999511719 4 L 39.60491943359375 4 M 39.60491943359375 0 L 109.5736999511719 0 C 111.0032196044922 0 112.3240661621094 0.7628631591796875 113.0384368896484 2.001106262207031 L 148.0254211425781 62.64517211914062 C 148.7390899658203 63.88221740722656 148.7390899658203 65.40591430664062 148.0254211425781 66.64295959472656 L 113.0384368896484 127.2870254516602 C 112.3240661621094 128.5252380371094 111.0032196044922 129.2881317138672 109.5736999511719 129.2881317138672 L 39.60489654541016 129.2881317138672 C 38.17537689208984 129.2881317138672 36.85453033447266 128.5252380371094 36.14015960693359 127.2870254516602 L 1.1531982421875 66.64295959472656 C 0.4395294189453125 65.40591430664062 0.4395294189453125 63.88219451904297 1.1531982421875 62.64517211914062 L 36.14018249511719 2.001106262207031 C 36.85453033447266 0.7628631591796875 38.17539978027344 0 39.60491943359375 0 Z" stroke="none" fill="#d0f3ef"/>
          </g>
          <path id="Polygon_280" data-name="Polygon 280" d="M109.574,0a4,4,0,0,1,3.465,2l34.987,60.644a4,4,0,0,1,0,4l-34.987,60.644a4,4,0,0,1-3.465,2H39.6a4,4,0,0,1-3.465-2L1.153,66.643a4,4,0,0,1,0-4L36.14,2A4,4,0,0,1,39.6,0Z" transform="translate(2970.256 655.83) rotate(30)" fill="#d0f3ef"/>
        </g>
      </g>
    </g>
  </g>
</svg>
