<svg xmlns="http://www.w3.org/2000/svg" xmlns:xlink="http://www.w3.org/1999/xlink" width="64" height="64" viewBox="0 0 64 64">
  <defs>
    <clipPath id="clip-path">
      <rect id="Rectangle_10399" data-name="Rectangle 10399" width="64" height="64" transform="translate(8531 -23153)" fill="#babdc0" stroke="#707070" stroke-width="1"/>
    </clipPath>
  </defs>
  <g id="Mask_Group_762" data-name="Mask Group 762" transform="translate(-8531 23153)" clip-path="url(#clip-path)">
    <g id="open-book" transform="translate(8539 -23145.711)">
      <path id="Path_109825" data-name="Path 109825" d="M47.548,36.5H37.7a.93.93,0,0,0-.93.93v4.293a.93.93,0,0,0,.93.93h9.846a.93.93,0,0,0,.93-.93V37.43A.93.93,0,0,0,47.548,36.5Zm-.93,4.293H38.632V38.36h7.986Z" transform="translate(-9.427 -8.149)" fill="#babdc0"/>
      <path id="Path_109826" data-name="Path 109826" d="M46.664,19.414h-3.12V5.652a.93.93,0,0,0-.93-.93H27.266a4.187,4.187,0,0,0-3.55,1.526,4.187,4.187,0,0,0-3.55-1.526H4.817a.93.93,0,0,0-.93.93V12.96H.93a.93.93,0,0,0-.93.93v3.942a.93.93,0,0,0,.93.93H3.887V44.369a.93.93,0,0,0,.93.93H18.852a8.666,8.666,0,0,0,4.858-1.514A8.675,8.675,0,0,0,28.589,45.3H42.615a.93.93,0,0,0,.93-.93V32.876h3.12a.93.93,0,0,0,.93-.93V28a.93.93,0,0,0-.93-.93h-3.12V25.215h3.12a.93.93,0,0,0,.93-.93V20.343a.93.93,0,0,0-.93-.93ZM25.392,7.172a2.5,2.5,0,0,1,1.836-.59H41.685V38.615H27.257a4.69,4.69,0,0,0-2.612.625V8.867a2.272,2.272,0,0,1,.746-1.695ZM20.2,6.582a2.5,2.5,0,0,1,1.836.59,2.3,2.3,0,0,1,.746,1.695V39.236a4.794,4.794,0,0,0-2.611-.621H5.746V6.582H20.2ZM1.859,16.9V14.819H3.887V16.9ZM5.746,43.439V40.474h14.48a2.561,2.561,0,0,1,1.641.388A2.2,2.2,0,0,1,22.74,42.2a6.894,6.894,0,0,1-3.888,1.241H5.746Zm35.939,0h-13.1a6.873,6.873,0,0,1-3.9-1.234,2.237,2.237,0,0,1,.88-1.349,2.535,2.535,0,0,1,1.634-.382h14.48v2.965Zm4.049-14.506v2.083h-2.19V28.933Zm0-5.577h-2.19V21.273h2.19Z" fill="#babdc0"/>
      <path id="Path_109827" data-name="Path 109827" d="M11.7,20.571l8.716.8c.029,0,.057,0,.085,0a.93.93,0,0,0,.7-.321,7.41,7.41,0,0,0,1.6-3.808l.429-4.656A.93.93,0,0,0,22.4,11.58l-8.573-.789a.93.93,0,0,0-1.011.841l-.428,4.651a4.579,4.579,0,0,1-1.2,2.654.929.929,0,0,0,.518,1.633Zm2.534-4.106v-.006l.343-3.731,6.722.619-.343,3.731a5.408,5.408,0,0,1-.892,2.4l-6.548-.6a7.533,7.533,0,0,0,.718-2.406Z" transform="translate(-2.783 -1.558)" fill="#babdc0"/>
      <path id="Path_109828" data-name="Path 109828" d="M21.821,29.434H12.8a.93.93,0,0,0,0,1.859h9.017a.93.93,0,1,0,0-1.859Z" transform="translate(-3.044 -6.338)" fill="#babdc0"/>
      <path id="Path_109829" data-name="Path 109829" d="M21.821,35.9H12.8a.93.93,0,0,0,0,1.859h9.017a.93.93,0,1,0,0-1.859Z" transform="translate(-3.044 -7.995)" fill="#babdc0"/>
      <path id="Path_109830" data-name="Path 109830" d="M21.821,42.616H12.8a.93.93,0,1,0,0,1.859h9.017a.93.93,0,1,0,0-1.859Z" transform="translate(-3.044 -9.717)" fill="#babdc0"/>
      <path id="Path_109831" data-name="Path 109831" d="M37.7,17.023h9.846a.93.93,0,0,0,0-1.859H37.7a.93.93,0,1,0,0,1.859Z" transform="translate(-9.427 -2.68)" fill="#babdc0"/>
      <path id="Path_109832" data-name="Path 109832" d="M48.988,21.629H43.319a.93.93,0,1,0,0,1.859h5.668a.93.93,0,0,0,0-1.859Z" transform="translate(-10.867 -4.337)" fill="#babdc0"/>
      <path id="Path_109833" data-name="Path 109833" d="M47.548,28.345H37.7a.93.93,0,1,0,0,1.859h9.846a.93.93,0,0,0,0-1.859Z" transform="translate(-9.427 -6.059)" fill="#babdc0"/>
      <path id="Path_109834" data-name="Path 109834" d="M36.845,22.914a.929.929,0,1,0,.5-1.213.937.937,0,0,0-.5,1.213Z" transform="translate(-9.427 -4.338)" fill="#babdc0"/>
    </g>
  </g>
</svg>
