<svg id="Component_Character_Male_A" data-name="Component/Character/Male/A" xmlns="http://www.w3.org/2000/svg" xmlns:xlink="http://www.w3.org/1999/xlink" width="180" height="180" viewBox="0 0 180 180">
  <defs>
    <clipPath id="clip-path">
      <rect id="Rectangle_9927" data-name="Rectangle 9927" width="180" height="180" transform="translate(18147 -19022)" fill="#fff" stroke="#707070" stroke-width="1"/>
    </clipPath>
  </defs>
  <g id="Component_Character_Male_A-2" data-name="Component/Character/Male/A" transform="translate(-18147 19022)" clip-path="url(#clip-path)">
    <g id="character-1--inject-833" transform="translate(17991.6 -19128.984)">
      <path id="Path_39443" data-name="Path 39443" d="M200.465,195.573l25.62-2.044c.164-3,0-14.568,0-14.568s10.67-1.663,10.793-12.265-1.717-35.145-1.717-35.145h0a37.039,37.039,0,0,0-37.23,4.688l-1.581,1.213Z" transform="translate(18.38 3.411)" fill="#ffbe9d"/>
      <path id="Path_39444" data-name="Path 39444" d="M221.85,166.468a24.72,24.72,0,0,1-13.9-3.938s3.284,7.672,13.914,6.7Z" transform="translate(22.588 15.74)" fill="#eb996e"/>
      <path id="Path_39445" data-name="Path 39445" d="M199.171,143.23c-.177-.082-7.332-2.167-7.1,5.124s7.509,5.546,7.509,5.342S199.171,143.23,199.171,143.23Z" transform="translate(16.826 8.617)" fill="#ffbe9d"/>
      <path id="Path_39446" data-name="Path 39446" d="M196.781,150.376s-.136.082-.341.191a1.281,1.281,0,0,1-.954,0,3.161,3.161,0,0,1-1.54-2.725,4.2,4.2,0,0,1,.3-1.826,1.445,1.445,0,0,1,.927-1.008.641.641,0,0,1,.75.327c.109.2.068.354.109.354s.15-.123.082-.422a.79.79,0,0,0-.3-.45,1.009,1.009,0,0,0-.709-.164,1.84,1.84,0,0,0-1.295,1.172,4.347,4.347,0,0,0-.368,2.044,3.3,3.3,0,0,0,1.949,3.093,1.363,1.363,0,0,0,1.158-.232A.458.458,0,0,0,196.781,150.376Z" transform="translate(17.322 9.251)" fill="#eb996e"/>
      <path id="Path_39447" data-name="Path 39447" d="M223.039,143.114a1.526,1.526,0,0,1-1.472,1.54A1.458,1.458,0,0,1,220,143.291a1.526,1.526,0,0,1,1.472-1.54,1.458,1.458,0,0,1,1.567,1.363Z" transform="translate(26.959 8.201)" fill="#263238"/>
      <path id="Path_39448" data-name="Path 39448" d="M224.92,142.148c-.191.191-1.363-.654-2.971-.654s-2.848.818-3.025.627.109-.45.627-.831a4.238,4.238,0,0,1,2.426-.749,4.088,4.088,0,0,1,2.371.763C224.852,141.7,225.015,142.053,224.92,142.148Z" transform="translate(26.55 7.763)" fill="#263238"/>
      <path id="Path_39449" data-name="Path 39449" d="M210.989,143.189a1.513,1.513,0,0,1-1.472,1.581,1.458,1.458,0,0,1-1.567-1.363,1.526,1.526,0,0,1,1.472-1.526A1.458,1.458,0,0,1,210.989,143.189Z" transform="translate(22.588 8.248)" fill="#263238"/>
      <path id="Path_39450" data-name="Path 39450" d="M213.11,142.365c-.191.2-1.363-.654-2.984-.654s-2.835.831-3.012.627.1-.45.627-.831a4.088,4.088,0,0,1,2.412-.736,3.979,3.979,0,0,1,2.371.763C213.029,141.915,213.192,142.283,213.11,142.365Z" transform="translate(22.265 7.847)" fill="#263238"/>
      <path id="Path_39451" data-name="Path 39451" d="M216.045,154.495A10.644,10.644,0,0,1,218.7,154c.422,0,.818-.123.886-.409a2.248,2.248,0,0,0-.273-1.24l-1.24-3.189a53.6,53.6,0,0,1-2.725-8.326,57.058,57.058,0,0,1,3.448,8.095l1.186,3.2a2.426,2.426,0,0,1,.2,1.635,1.008,1.008,0,0,1-.681.613,2.9,2.9,0,0,1-.709.1,11.354,11.354,0,0,1-2.753.014Z" transform="translate(25.272 7.872)" fill="#263238"/>
      <path id="Path_39452" data-name="Path 39452" d="M212.387,151.69c.273,0,.273,1.758,1.8,3.025s3.407,1.063,3.42,1.363-.422.354-1.213.368a4.429,4.429,0,0,1-2.875-.995,3.83,3.83,0,0,1-1.363-2.535C212.073,152.113,212.264,151.676,212.387,151.69Z" transform="translate(24.106 11.808)" fill="#263238"/>
      <path id="Path_39453" data-name="Path 39453" d="M213.8,137.558c-.164.45-1.8.232-3.72.463s-3.475.763-3.734.354c-.109-.191.15-.6.777-1.036a6.16,6.16,0,0,1,2.725-.968,6.269,6.269,0,0,1,2.916.341C213.514,137,213.869,137.34,213.8,137.558Z" transform="translate(21.998 6.235)" fill="#263238"/>
      <path id="Path_39454" data-name="Path 39454" d="M224.343,138.683c-.286.368-1.363,0-2.725,0s-2.507.259-2.725-.136,0-.559.572-.913a4.006,4.006,0,0,1,4.47.136C224.316,138.111,224.52,138.492,224.343,138.683Z" transform="translate(26.527 6.486)" fill="#263238"/>
      <path id="Path_39455" data-name="Path 39455" d="M241.328,128.176a3.911,3.911,0,0,0-1.445-3.516,2.807,2.807,0,0,0-3.625.273,3.257,3.257,0,0,0-2.725-3.952c-1.744-.109-3.216,1.213-4.906,1.663a7.877,7.877,0,0,1-4.974-.572c-1.581-.627-3.053-1.513-4.647-2.1a13.627,13.627,0,0,0-17.443,8.013,6.037,6.037,0,0,0-6.418,2.426,9.948,9.948,0,0,0-1.513,6.991,22.183,22.183,0,0,0,1.213,4.783q0,.2,0,.409c.123,5.873.777,12.755,3.284,12.8,4.361,0,3.311-8.176,3.311-8.176,5.356-2.071,3.366-10.084,4.7-11.3s4.088-4.088,15.331,1.676a21.8,21.8,0,0,0,13.287,1.444h.382a9.907,9.907,0,0,0,2.875-1.226,5.683,5.683,0,0,0,2.371-2.63,3.148,3.148,0,0,0-.613-3.339,6.731,6.731,0,0,0,1.554-3.666Z" transform="translate(17.351)" fill="#ce7a3d"/>
      <path id="Path_39456" data-name="Path 39456" d="M217.633,144.63a11.85,11.85,0,0,0-.341-1.581,6.514,6.514,0,0,0-2.426-3.475,6.309,6.309,0,1,0,0,10.112,6.61,6.61,0,0,0,2.426-3.475c.286-.995.273-1.581.341-1.581s0,.136,0,.422a5.08,5.08,0,0,1-.123,1.226,6.582,6.582,0,0,1-2.385,3.8,6.814,6.814,0,0,1-6.528,1.063,6.909,6.909,0,1,1,6.528-11.979,6.609,6.609,0,0,1,2.385,3.816,5.028,5.028,0,0,1,.123,1.227Z" transform="translate(21.15 6.74)" fill="#263238"/>
      <path id="Path_39457" data-name="Path 39457" d="M230.627,144.631a5.441,5.441,0,0,0-.341-1.581,6.555,6.555,0,0,0-2.412-3.475,6.309,6.309,0,1,0,0,10.112,6.65,6.65,0,0,0,2.412-3.475c.286-.995.273-1.581.341-1.581s0,.136,0,.422a5.084,5.084,0,0,1-.123,1.226,6.582,6.582,0,0,1-2.385,3.8,6.814,6.814,0,0,1-6.514,1.063,6.909,6.909,0,0,1,0-13.028,6.814,6.814,0,0,1,6.514,1.049,6.609,6.609,0,0,1,2.385,3.816,5.028,5.028,0,0,1,.123,1.227C230.627,144.481,230.627,144.631,230.627,144.631Z" transform="translate(25.871 6.738)" fill="#263238"/>
      <path id="Path_39458" data-name="Path 39458" d="M219.012,142.7c-.082.191-1.186-.136-2.562-.068s-2.453.45-2.548.273.968-.927,2.521-.981S219.107,142.534,219.012,142.7Z" transform="translate(24.745 8.263)" fill="#263238"/>
      <path id="Path_39459" data-name="Path 39459" d="M206.7,142.5a15.944,15.944,0,0,1-4.647.613,16.108,16.108,0,0,1-4.688-.1,15.3,15.3,0,0,1,4.647-.613A16.2,16.2,0,0,1,206.7,142.5Z" transform="translate(18.75 8.394)" fill="#263238"/>
      <path id="Path_39460" data-name="Path 39460" d="M257.46,220.774l8.463,15.249,5.165-41.468a16.612,16.612,0,0,0-1.717-8.708,17.271,17.271,0,0,0-2.1-3.38,18.328,18.328,0,0,0-3.611-3.393,1.513,1.513,0,0,1,.273-2.848c1.363-.15,5.042,1.826,7.945,5.805s3.2-3.679,3.366-6.459,1.063-11.338,1.949-11.951c1.363-.886,2.535.382,2.317,3.162s-.327,11.134,1.145,11.188,2.071-14.118,2.071-14.118-.354-3.066,1.363-3.053c3.053,0,1.281,14.99,1.077,16.353-.136.981,1.458,1.1,1.554,0s.3-14.145,3.407-14.173c2.4,0-1.363,12.346.109,15.113s1.881-9.689,4.17-9.607c.845,0,1.485.164.218,7.25-.681,3.816-3.2,9.308-3.966,16.748l-.2,1.921c-.15,9.267-2.194,37.189-10.616,58.448a17.225,17.225,0,0,1-30.307,3.066C244.35,248.111,236.16,227.7,236.16,227.7Z" transform="translate(32.821 15.112)" fill="#ffbe9d"/>
      <path id="Path_39461" data-name="Path 39461" d="M275.709,182.219a7.708,7.708,0,0,0-1.213.313,4.4,4.4,0,0,0-2.358,1.949l-.286.518-.164-.572a7.194,7.194,0,0,0-1.131-2.262,8.272,8.272,0,0,0-3.911-2.889c-1.2-.422-2.017-.4-2.017-.5a3.993,3.993,0,0,1,2.126.15,7.767,7.767,0,0,1,4.238,2.916,7.046,7.046,0,0,1,1.172,2.439h-.45a4.279,4.279,0,0,1,2.725-1.99,2.058,2.058,0,0,1,1.267-.068Z" transform="translate(43.148 21.603)" fill="#eb996e"/>
      <path id="Path_39462" data-name="Path 39462" d="M241.881,182.6l24.052,45.516,4.088-40.242h21.545l-7.918,57.358A16.83,16.83,0,0,1,272.3,259.186h0c-7.822,2.63-18.22-.436-22.076-7.727L236.13,227.475Z" transform="translate(32.81 23.02)" fill="#ff725e"/>
      <path id="Path_39463" data-name="Path 39463" d="M260.068,235.069a8.489,8.489,0,0,1-1.608-2.562,21.218,21.218,0,0,1-1.363-14.336,8.939,8.939,0,0,1,1.118-2.821,26.532,26.532,0,0,0,1.826,19.719Z" transform="translate(40.174 34.9)" fill="#263238"/>
      <g id="Group_2199" data-name="Group 2199" transform="translate(293.458 249.61)" opacity="0.3">
        <path id="Path_39464" data-name="Path 39464" d="M258.725,214.88a10.18,10.18,0,0,0-4.2,6.514,24.2,24.2,0,0,0-.15,7.931,4.674,4.674,0,0,0,.6,2.18,1.676,1.676,0,0,0,1.962.736,1.745,1.745,0,0,0,.872-1.608,6.389,6.389,0,0,0-.422-1.867,15.89,15.89,0,0,1,1.976-13.409" transform="translate(-254.122 -214.88)"/>
      </g>
      <path id="Path_39465" data-name="Path 39465" d="M200.426,175.357c3.6-.681,7.086-1.99,11.311-2.167h0a45.27,45.27,0,0,0,27.255,0c1.118.15,2.726.286,4.592.518,11.87,1.363,16.421,3.911,24.952,12.265l-.94,48.037s2.862,54.673,2.725,63.5h-81.11l-.123-37.039V250.389l-26.628,9.757,2.426-14.009s11.938-46.5,13.818-52.765C180.912,185.768,189.088,177.523,200.426,175.357Z" transform="translate(6.087 19.607)" fill="#ff725e"/>
      <path id="Path_39466" data-name="Path 39466" d="M174.684,229.955l38.934-10.125,11.134,18.111L185.1,254.634A15.943,15.943,0,0,1,178.5,256h0a16.067,16.067,0,0,1-14.84-9.948l-1.2-2.944Z" transform="translate(6.087 36.525)" fill="#ff725e"/>
      <path id="Path_39467" data-name="Path 39467" d="M186.414,232.859c-.191,0-.354-7.154-.354-15.971s.164-15.958.354-15.958.368,7.141.368,15.958S186.619,232.859,186.414,232.859Z" transform="translate(14.648 29.669)" fill="#263238"/>
      <g id="Group_2200" data-name="Group 2200" transform="translate(194.889 269.505)" opacity="0.3">
        <path id="Path_39468" data-name="Path 39468" d="M181.79,249.7a13.531,13.531,0,0,0,5.192,4.838c4.865,2.63,10.9,2.562,16.121.845a46.115,46.115,0,0,0,14.186-8.395,119.116,119.116,0,0,0,15.781-15.344,1.676,1.676,0,0,0,.572-1.295c-.136-.845-1.363-.954-2.153-.831-8.067,1.281-15.426,5.192-22.785,8.749q-13.123,6.35-26.846,11.42" transform="translate(-181.79 -229.479)"/>
      </g>
      <path id="Path_39469" data-name="Path 39469" d="M256.057,214.842a1.843,1.843,0,0,1-.15.368l-.5,1.049c-.232.45-.572.981-.954,1.622a22.417,22.417,0,0,1-1.567,2.058,23.287,23.287,0,0,1-5.342,4.633,24.3,24.3,0,0,1-8.708,3.407,23.33,23.33,0,0,1-11.3-.777,26.764,26.764,0,0,1-11.025-6.9,25.5,25.5,0,0,1-6.814-12.646,19.9,19.9,0,0,1-.068-7.672,16.939,16.939,0,0,1,3.3-7.182,13.887,13.887,0,0,1,6.432-4.606,8.736,8.736,0,0,1,3.925-.409,6.337,6.337,0,0,1,3.529,1.7,5.029,5.029,0,0,1,1.554,3.543,6.555,6.555,0,0,1-1.1,3.611,9.675,9.675,0,0,1-6.01,3.775A27.171,27.171,0,0,1,189.2,181.578a20.619,20.619,0,0,1-.981-5.928,2.005,2.005,0,0,1,.068.382l.164,1.145a29.242,29.242,0,0,0,1.022,4.32,27.664,27.664,0,0,0,9.049,13.2,27.051,27.051,0,0,0,9.975,4.92,26.751,26.751,0,0,0,12.7.2,9.117,9.117,0,0,0,5.6-3.516,5.805,5.805,0,0,0,.981-3.23,4.238,4.238,0,0,0-1.363-3.053,5.615,5.615,0,0,0-3.148-1.513,8.013,8.013,0,0,0-3.611.382,13.341,13.341,0,0,0-6.091,4.374,16.354,16.354,0,0,0-3.162,6.882,19.3,19.3,0,0,0,0,7.4,24.952,24.952,0,0,0,6.541,12.333,26.506,26.506,0,0,0,10.738,6.814,23,23,0,0,0,11.038.845,24.229,24.229,0,0,0,8.585-3.257,23.971,23.971,0,0,0,5.342-4.47A26.932,26.932,0,0,0,256.057,214.842Z" transform="translate(15.431 20.499)" fill="#e0e0e0"/>
      <path id="Path_39470" data-name="Path 39470" d="M259.928,252.864a24.636,24.636,0,0,0-2.221-4.933A16.966,16.966,0,0,0,245.892,240a23.29,23.29,0,0,0-10.043.463,27.961,27.961,0,0,0-5.287,1.962,19.706,19.706,0,0,0-4.933,3.311,9.035,9.035,0,0,0-2.835,5.315,5.451,5.451,0,0,0,2.33,5.451,4.088,4.088,0,0,0,5.71-.872,15.167,15.167,0,0,0,2.725-6.309,24.924,24.924,0,0,0-.9-13.559,25.306,25.306,0,0,0-7.032-10.575,29.04,29.04,0,0,0-9.989-5.846,29.435,29.435,0,0,0-24.093,2.1c-1.54.831-2.657,1.594-3.434,2.1l-.859.586-.313.191a26.56,26.56,0,0,1,4.47-3.121A29.108,29.108,0,0,1,205.65,217.2a30.089,30.089,0,0,1,10.18,1.581,29.354,29.354,0,0,1,10.234,5.914,26.165,26.165,0,0,1,7.263,10.834,25.674,25.674,0,0,1,.927,13.954,15.9,15.9,0,0,1-2.834,6.609,4.824,4.824,0,0,1-6.623.995,5.655,5.655,0,0,1-2.235-2.725,6.814,6.814,0,0,1-.4-3.393,9.539,9.539,0,0,1,3.012-5.7,20.444,20.444,0,0,1,5.1-3.407,28.617,28.617,0,0,1,5.451-1.976,24.133,24.133,0,0,1,10.289-.4,17.225,17.225,0,0,1,11.965,8.286,18.03,18.03,0,0,1,1.635,3.707,10.088,10.088,0,0,1,.273,1.022,1.362,1.362,0,0,1,.041.354Z" transform="translate(14.967 35.57)" fill="#e0e0e0"/>
      <path id="Path_39471" data-name="Path 39471" d="M192.8,209.861a5.974,5.974,0,0,1-.681.859,16.532,16.532,0,0,1-2.126,2.058,19.962,19.962,0,0,1-3.72,2.358,21.981,21.981,0,0,1-5.124,1.744,27.146,27.146,0,0,1-9.757,0,28.737,28.737,0,0,1-2.889-.654c-.668-.2-1.036-.327-1.022-.382s1.526.232,3.979.531a30.58,30.58,0,0,0,9.539-.232,23.672,23.672,0,0,0,4.974-1.635,22.2,22.2,0,0,0,3.707-2.18C191.642,210.9,192.718,209.779,192.8,209.861Z" transform="translate(7.908 32.907)" fill="#e0e0e0"/>
      <path id="Path_39472" data-name="Path 39472" d="M186.976,247.859a24.531,24.531,0,0,0-1.5-4.238,13.328,13.328,0,0,0-18.261-5.942,25.009,25.009,0,0,0-3.707,2.535,3.312,3.312,0,0,1,.777-.954,11.978,11.978,0,0,1,2.725-2.03,13.409,13.409,0,0,1,18.969,6.173,12.263,12.263,0,0,1,.981,3.216A3.489,3.489,0,0,1,186.976,247.859Z" transform="translate(6.468 42.184)" fill="#e0e0e0"/>
      <path id="Path_39473" data-name="Path 39473" d="M244.011,236.321a4.754,4.754,0,0,1-.368-1.363,24.078,24.078,0,0,1-.5-3.72,30.38,30.38,0,0,1,.136-5.587,32.447,32.447,0,0,1,1.567-6.677,31.863,31.863,0,0,1,3.025-6.146,29.321,29.321,0,0,1,3.434-4.415,25.9,25.9,0,0,1,2.726-2.562,5.181,5.181,0,0,1,1.117-.79c.1.109-1.444,1.363-3.5,3.693a33.808,33.808,0,0,0-3.257,4.415,32.119,32.119,0,0,0-4.483,12.564,33.157,33.157,0,0,0-.286,5.451C243.738,234.427,244.147,236.321,244.011,236.321Z" transform="translate(35.327 31.167)" fill="#e0e0e0"/>
      <path id="Path_39474" data-name="Path 39474" d="M278.681,211.252a4.287,4.287,0,0,1-.75.8,9.183,9.183,0,0,1-2.616,1.513,11.72,11.72,0,0,1-9.7-.75,9.921,9.921,0,0,1-3.87-3.9,14.185,14.185,0,0,1-1.5-4.211,17.859,17.859,0,0,1-.368-2.957,2.723,2.723,0,0,1,0-1.1c.123,0,.218,1.554.8,3.952a15.945,15.945,0,0,0,1.581,3.993,9.676,9.676,0,0,0,3.652,3.611,11.706,11.706,0,0,0,9.2.886,16.612,16.612,0,0,0,3.57-1.84Z" transform="translate(41.403 29.568)" fill="#e0e0e0"/>
      <path id="Path_39475" data-name="Path 39475" d="M246.828,188.827a3.107,3.107,0,0,1-.981.627,10.519,10.519,0,0,1-3.012.968,12.266,12.266,0,0,1-4.688-.15,14.637,14.637,0,0,1-5.233-2.385,13.8,13.8,0,0,1-5.451-8.694,12.113,12.113,0,0,1-.164-3.148,3.515,3.515,0,0,1,.218-1.145,29.309,29.309,0,0,0,.436,4.184,14.159,14.159,0,0,0,5.356,8.176,14.65,14.65,0,0,0,4.974,2.317,12.577,12.577,0,0,0,4.47.286,23.168,23.168,0,0,0,4.075-1.036Z" transform="translate(29.593 20.227)" fill="#e0e0e0"/>
      <path id="Path_39476" data-name="Path 39476" d="M220.368,269.513a65.678,65.678,0,0,0-3.543-5.751,35.226,35.226,0,0,0-12.2-10.493,37.245,37.245,0,0,0-8.354-3.121,31.781,31.781,0,0,0-7.236-.831,64.062,64.062,0,0,0-6.718.613,7.526,7.526,0,0,1,1.758-.5,27.6,27.6,0,0,1,4.96-.613,30.238,30.238,0,0,1,7.386.7,35.986,35.986,0,0,1,8.531,3.134,33.632,33.632,0,0,1,12.265,10.834,30.824,30.824,0,0,1,2.48,4.32,7.331,7.331,0,0,1,.668,1.717Z" transform="translate(13.291 47.034)" fill="#e0e0e0"/>
      <path id="Path_39477" data-name="Path 39477" d="M238.858,197.92c.191,0,1.363,20.087,2.6,44.889s2.1,44.9,1.894,44.97-1.363-20.087-2.6-44.889S238.654,197.934,238.858,197.92Z" transform="translate(33.789 28.577)" fill="#263238"/>
      <path id="Path_39478" data-name="Path 39478" d="M200,224.127a16.708,16.708,0,0,0,6.677-5.969,17.715,17.715,0,0,0,1.853-3.557,18.9,18.9,0,0,0,1.077-4.865c0-1.54,1.785-2.344,2.616-1.24s.995,5.315-.954,9.866,4.838.9,7.332-.4,10.384-4.919,11.365-4.456c1.445.681.968,2.4-1.554,3.625s-9.812,5.451-9.1,6.814,13.3-5.451,13.3-5.451,2.48-1.881,3.339-.409c1.567,2.725-12.265,8.817-13.627,9.376-.927.382-.2,1.826.777,1.363s12.415-7.032,14.036-4.334c1.254,2.058-11.379,5.178-13.041,7.863s9.362-3.352,10.479-1.363c.409.763.613,1.363-6.187,3.925-3.652,1.363-9.7,2.017-16.544,5.178l-1.785.8" transform="translate(19.704 32.228)" fill="#ffbe9d"/>
      <path id="Path_39479" data-name="Path 39479" d="M181.594,254.1a3.985,3.985,0,0,1,.736-.382l2.14-.968,8.013-3.489,27.1-11.542-.164.518-3.625-5.805-7.713-12.265.4.136-23.058,7.3-6.677,2.071-1.8.518-.627.15a2.206,2.206,0,0,1,.6-.259l1.758-.627,6.609-2.249,22.949-7.59.259-.082.136.218,7.74,12.265L220,237.828l.218.341-.382.164-27.255,11.324-8.095,3.284-2.194.858A4.419,4.419,0,0,1,181.594,254.1Z" transform="translate(11.114 36.42)" fill="#263238"/>
      <path id="Path_39480" data-name="Path 39480" d="M179.52,222.255a8.681,8.681,0,0,1,9.185,2.467,30.8,30.8,0,0,0-4.415-1.921,32.129,32.129,0,0,0-4.77-.545Z" transform="translate(12.275 37.248)" fill="#263238"/>
    </g>
  </g>
</svg>
