<svg id="Component_Character_Female_O" data-name="Component/Character/Female/O" xmlns="http://www.w3.org/2000/svg" xmlns:xlink="http://www.w3.org/1999/xlink" width="180" height="180" viewBox="0 0 180 180">
  <defs>
    <clipPath id="clip-path">
      <rect id="Rectangle_9969" data-name="Rectangle 9969" width="180" height="180" transform="translate(19078 -22803)" fill="#fff" stroke="#707070" stroke-width="1"/>
    </clipPath>
  </defs>
  <g id="Component_Character_Female_O-2" data-name="Component/Character/Female/O" transform="translate(-19078 22803)" clip-path="url(#clip-path)">
    <g id="Group_25177" data-name="Group 25177" transform="translate(50 -51)">
      <g id="Group_25176" data-name="Group 25176" transform="translate(-307 -103.271)">
        <path id="Path_107392" data-name="Path 107392" d="M175.951,250.5a7.628,7.628,0,0,0-4.879,6.806c-.057,1.878,0,4.066-1.456,5.245s-3.448.594-5.107,1.212c-2.114.813-3.163,3.147-3.627,5.351s-.6,4.562-1.838,6.449-3.188,2.895-5,4.066-3.611,2.806-3.944,4.952c-.48,3.074,2.228,6.213,1.114,9.124-.716,1.87-2.732,2.83-4.245,4.139a9.7,9.7,0,0,0-.764,13.938,6.6,6.6,0,0,0,5.554,2.318c2.017-.285,3.619-1.757,5.131-3.106a82.134,82.134,0,0,1,18.427-12.377c1.724-.813,3.611-1.748,4.505-3.456a9.05,9.05,0,0,0,.74-2.814q2.8-19.208,5.6-38.415" transform="translate(19222.311 -22859.932)" fill="#263238"/>
        <path id="Path_107393" data-name="Path 107393" d="M205.816,233.372c-.756-2.822.895-5.888,3.342-7.49a14.511,14.511,0,0,1,8.408-1.895c2.919.081,6.335.813,7.994,3.342,1.033,1.569,1.212,3.578,2.139,5.221,2.61,4.635,9.864,4.717,12.694,9.222,2.692,4.277-.057,9.88.585,14.89.431,3.359,2.375,6.294,3.9,9.327s2.643,6.619,1.358,9.758c-1.382,3.35-5.27,5.522-5.692,9.124-.48,4.464,4.814,8.555,3.188,12.743-1.2,3.106-5.692,4.286-6.2,7.579-.26,1.765.813,3.424,1.26,5.139,1.2,4.359-1.626,9.148-5.692,11.165s-8.945,1.7-13.214.228a27.014,27.014,0,0,1-16.41-35.114" transform="translate(19211.459 -22854.977)" fill="#263238"/>
        <path id="Path_107394" data-name="Path 107394" d="M149.79,278.448a1.439,1.439,0,0,0-.634-.569,1.627,1.627,0,0,0-1.017-.081,1.358,1.358,0,0,0-1.008.878,1.952,1.952,0,0,0,.268,1.675,2.082,2.082,0,0,0,1.805.862,3.066,3.066,0,0,0,2.147-.968,5.693,5.693,0,0,0,1.3-2.4c.569-1.879.407-4.066.61-6.4a9.823,9.823,0,0,1,.96-3.521,5.693,5.693,0,0,1,1.163-1.561,5.1,5.1,0,0,1,1.716-1.025,21.236,21.236,0,0,1,3.993-.683,5.107,5.107,0,0,0,3.57-1.626,5.469,5.469,0,0,0,.813-4,32.074,32.074,0,0,1-.293-4.481,8.9,8.9,0,0,1,1.5-4.277,6.9,6.9,0,0,1,3.432-2.749,10.286,10.286,0,0,1,4.237-.2c1.334.1,2.74.155,3.733-.626a4.277,4.277,0,0,0,1.326-3.253,18.329,18.329,0,0,1,.358-3.619,9.758,9.758,0,0,1,3.643-5.335,8.84,8.84,0,0,1,5.058-1.708,9.44,9.44,0,0,1,3.968.764,8.19,8.19,0,0,1,2.188,1.326,5.418,5.418,0,0,1,.642.61s-.236-.2-.7-.545a9.012,9.012,0,0,0-2.2-1.244,9.645,9.645,0,0,0-3.9-.675,8.644,8.644,0,0,0-4.879,1.716,9.449,9.449,0,0,0-3.48,5.18,18.329,18.329,0,0,0-.325,3.554,7.515,7.515,0,0,1-.317,1.9,3.44,3.44,0,0,1-1.147,1.626,3.692,3.692,0,0,1-1.935.732,11.685,11.685,0,0,1-2.066,0,9.758,9.758,0,0,0-4.066.187,6.505,6.505,0,0,0-3.253,2.594,8.457,8.457,0,0,0-1.423,4.066,33.875,33.875,0,0,0,.285,4.432,9.293,9.293,0,0,1-.057,2.228,4.343,4.343,0,0,1-.87,2.057,4.212,4.212,0,0,1-1.773,1.293,9.067,9.067,0,0,1-2.065.488,20.437,20.437,0,0,0-3.92.651,4.684,4.684,0,0,0-1.626.935,5.228,5.228,0,0,0-1.082,1.447,9.628,9.628,0,0,0-.943,3.391c-.22,2.285-.073,4.505-.675,6.449a5.806,5.806,0,0,1-1.4,2.5,3.3,3.3,0,0,1-2.334,1.016,2.326,2.326,0,0,1-1.976-.984,2.114,2.114,0,0,1-.252-1.846,1.488,1.488,0,0,1,1.13-.943,1.716,1.716,0,0,1,1.09.122,1.049,1.049,0,0,1,.675.643Z" transform="translate(19221.717 -22856.621)" fill="#263238"/>
        <path id="Path_107395" data-name="Path 107395" d="M253.657,287.524a2.238,2.238,0,0,1,.1.211,1.781,1.781,0,0,1,.114.659,2.684,2.684,0,0,1-1.358,2.122,2.618,2.618,0,0,1-1.83.374,3.253,3.253,0,0,1-1.895-1.171,4.546,4.546,0,0,1-.992-2.366,5.741,5.741,0,0,1,.472-2.838c.764-1.9,2.35-3.5,3.822-5.27a11.174,11.174,0,0,0,1.846-3.025,9.6,9.6,0,0,0,.634-3.684,9.839,9.839,0,0,0-.87-3.83,10.238,10.238,0,0,0-2.44-3.253c-1.033-.968-2.2-1.854-3.253-2.944a6.929,6.929,0,0,1-2.065-4.066,11.621,11.621,0,0,1,.691-4.481,19.739,19.739,0,0,0,.968-4.2,10.084,10.084,0,0,0-2.163-7.555,8.025,8.025,0,0,0-2.993-2.2,8.132,8.132,0,0,0-3.472-.529,8.336,8.336,0,0,1-3.4-.423,4.35,4.35,0,0,1-2.179-2.285c-.813-1.87-.813-3.733-1.179-5.237a7.221,7.221,0,0,0-.74-2.033,3.985,3.985,0,0,0-1.2-1.326,3.253,3.253,0,0,0-2.366-.618,3.935,3.935,0,0,0-.813.3,1.773,1.773,0,0,1,.813-.382,3.3,3.3,0,0,1,2.44.561,4.261,4.261,0,0,1,1.285,1.366,7.319,7.319,0,0,1,.813,2.074c.39,1.537.39,3.391,1.22,5.172a4.066,4.066,0,0,0,2.041,2.106,8.035,8.035,0,0,0,3.253.374,7.9,7.9,0,0,1,6.766,2.822A10.458,10.458,0,0,1,248,249.8a19.607,19.607,0,0,1-.968,4.277,11.3,11.3,0,0,0-.675,4.326,6.506,6.506,0,0,0,1.944,3.8c1.008,1.049,2.155,1.944,3.212,2.928a10.5,10.5,0,0,1,2.537,3.415,10.141,10.141,0,0,1,.895,3.985,10,10,0,0,1-.675,3.822,11.482,11.482,0,0,1-1.927,3.115c-1.5,1.789-3.066,3.342-3.814,5.164a5.514,5.514,0,0,0-.48,2.692,4.367,4.367,0,0,0,.9,2.244,3.066,3.066,0,0,0,1.748,1.13,2.439,2.439,0,0,0,1.716-.325,2.6,2.6,0,0,0,1.35-1.976A3.253,3.253,0,0,0,253.657,287.524Z" transform="translate(19206.717 -22855.621)" fill="#263238"/>
        <path id="Path_107397" data-name="Path 107397" d="M197.624,239.724a4.066,4.066,0,0,0-4.44,3.253h0L183.971,297.4c-1.269,6.392,7.262,11.97,14.109,13.279h0c6.92,1.326,7.864-2,9.254-8.034,2.326-10.092,3.131-13.889,3.123-13.824s9.01.415,13.231-10.572c2.106-5.457,3.789-14.776,4.928-22.436,1.025-6.9-1.708-16.264-8.644-16.947Z" transform="translate(19214.795 -22857.758)" fill="#b78876"/>
        <path id="Path_107398" data-name="Path 107398" d="M233.172,267.72a1.48,1.48,0,0,1-1.716,1.163,1.415,1.415,0,0,1-1.22-1.626,1.5,1.5,0,0,1,1.716-1.171,1.423,1.423,0,0,1,1.22,1.635Z" transform="translate(19205.023 -22862.84)" fill="#263238"/>
        <path id="Path_107399" data-name="Path 107399" d="M233.823,265.783c-.22.154-1.147-.895-2.716-1.228s-2.879.211-3.009,0c-.065-.106.187-.407.764-.667a4.066,4.066,0,0,1,2.44-.22,3.912,3.912,0,0,1,2.114,1.22C233.839,265.343,233.928,265.717,233.823,265.783Z" transform="translate(19206.529 -22862.375)" fill="#263238"/>
        <path id="Path_107400" data-name="Path 107400" d="M213.982,263.621a1.488,1.488,0,0,1-1.716,1.171,1.431,1.431,0,0,1-1.22-1.626A1.5,1.5,0,0,1,212.762,262a1.423,1.423,0,0,1,1.22,1.626Z" transform="translate(19208.607 -22862.074)" fill="#263238"/>
        <path id="Path_107401" data-name="Path 107401" d="M214.813,261.492c-.22.146-1.147-.9-2.716-1.236s-2.887.211-3.009,0c-.065-.106.187-.407.764-.667a4.148,4.148,0,0,1,2.44-.22,3.96,3.96,0,0,1,2.114,1.22C214.829,261.036,214.918,261.41,214.813,261.492Z" transform="translate(19210.082 -22861.57)" fill="#263238"/>
        <path id="Path_107402" data-name="Path 107402" d="M220.07,274.186a10.4,10.4,0,0,1,2.643.081c.415.041.813.049.935-.211a2.082,2.082,0,0,0,0-1.244l-.537-3.3c-.716-4.684-1.147-8.506-.951-8.53s.919,3.749,1.626,8.441c.163,1.147.325,2.253.48,3.3a2.382,2.382,0,0,1-.13,1.626,1.033,1.033,0,0,1-.813.447,2.615,2.615,0,0,1-.7-.049,10.569,10.569,0,0,1-2.553-.561Z" transform="translate(19208.027 -22861.889)" fill="#263238"/>
        <path id="Path_107403" data-name="Path 107403" d="M213.248,298.609a29.462,29.462,0,0,1-14.328-7.319s2.122,8.831,13.71,10.189Z" transform="translate(19211.979 -22867.553)" fill="#aa6550"/>
        <path id="Path_107404" data-name="Path 107404" d="M217.142,281.312a2.887,2.887,0,0,0-2.309-1.626,2.627,2.627,0,0,0-1.976.577,1.626,1.626,0,0,0-.529,1.838,1.927,1.927,0,0,0,1.944.96,6.018,6.018,0,0,0,2.261-.764,1.969,1.969,0,0,0,.545-.374.52.52,0,0,0,.122-.577" transform="translate(19209.492 -22865.381)" fill="#aa6550"/>
        <path id="Path_107405" data-name="Path 107405" d="M214.006,277.34c.26.041-.1,1.74,1.1,3.253s3.049,1.716,3.009,1.952c0,.114-.472.244-1.244.106a4.342,4.342,0,0,1-2.529-1.537,3.782,3.782,0,0,1-.813-2.708C213.616,277.689,213.909,277.307,214.006,277.34Z" transform="translate(19209.252 -22864.945)" fill="#263238"/>
        <path id="Path_107406" data-name="Path 107406" d="M216.042,257.805c-.252.4-1.773-.138-3.651-.309s-3.48,0-3.643-.423c-.073-.2.276-.553.96-.813a6.392,6.392,0,0,1,5.554.561C215.88,257.212,216.148,257.6,216.042,257.805Z" transform="translate(19210.145 -22860.934)" fill="#263238"/>
        <path id="Path_107407" data-name="Path 107407" d="M234.408,262.295c-.35.3-1.35-.3-2.643-.594s-2.44-.276-2.618-.7c-.073-.2.171-.52.724-.756a3.936,3.936,0,0,1,4.245,1.041C234.5,261.75,234.571,262.149,234.408,262.295Z" transform="translate(19206.334 -22861.707)" fill="#263238"/>
        <path id="Path_107408" data-name="Path 107408" d="M204.661,236.517a11.255,11.255,0,0,0-8.628-3.619c-3.212.22-6.31,2.4-7.075,5.465-.5,1.992-.1,4.3-1.374,5.92s-3.456,1.789-5.2,2.716a6.92,6.92,0,0,0-3.334,7.847c.748,2.537,2.993,4.765,2.659,7.384-.317,2.44-2.789,4.066-3.8,6.327-1.114,2.5-.244,5.522,1.456,7.709a23.756,23.756,0,0,0,6.506,5.188c1.846,1.155,3.838,2.35,6.018,2.326a6.506,6.506,0,0,0,5.814-4.318,8.888,8.888,0,0,0-.886-7.359c-1.114-1.911-2.862-3.716-2.757-5.912.171-3.415,4.684-5.278,5.156-8.669.252-1.74-.659-3.424-1.358-5.058s-1.2-3.6-.236-5.082c1.252-1.919,4.131-1.87,6.123-3.049a5.2,5.2,0,0,0,2.5-4.879,5.359,5.359,0,0,0-3.35-4.391" transform="translate(19215.996 -22856.643)" fill="#263238"/>
        <path id="Path_107409" data-name="Path 107409" d="M209.889,233.418a7.937,7.937,0,0,0,7.506,9.644c1.8.057,3.887-.415,5.188.813s.919,3.7,2.057,5.221c1.626,2.163,5.156,1.22,7.538,2.521,1.83,1.008,2.651,3.139,3.619,5s2.586,3.773,4.676,3.619a23.633,23.633,0,0,0,.35-5.4,7.9,7.9,0,0,0-2.057-4.879c-.691-.707-1.569-1.228-2.187-2-1.35-1.626-1.228-4.066-1.838-6.083a8.7,8.7,0,0,0-5.554-5.692c-2.179-.716-4.627-.537-6.684-1.553-1.521-.756-2.7-2.106-4.261-2.765-3.041-1.285-6.506.358-9.27,2.131" transform="translate(19210.102 -22856.365)" fill="#263238"/>
        <path id="Path_107410" data-name="Path 107410" d="M158.132,300.5a3.343,3.343,0,0,1-.878-.276,5.172,5.172,0,0,1-2-1.691,5.806,5.806,0,0,1-1.09-3.977,7.75,7.75,0,0,1,2.44-4.879,29.625,29.625,0,0,1,2.529-1.968,5.408,5.408,0,0,0,2.025-2.6,10.571,10.571,0,0,0,0-3.619,7.587,7.587,0,0,1,.813-3.9,8.335,8.335,0,0,1,2.773-3.139,7.734,7.734,0,0,1,4.155-1.309c1.48-.073,2.968.081,4.44-.114a5.367,5.367,0,0,0,2.057-.691,4.131,4.131,0,0,0,1.472-1.626,19.444,19.444,0,0,0,1.269-4.351,9.342,9.342,0,0,1,.773-2.155,4.976,4.976,0,0,1,1.5-1.732,11.083,11.083,0,0,1,4.123-1.423,9.474,9.474,0,0,0,3.765-1.382,3.554,3.554,0,0,0,1.2-1.431,3.952,3.952,0,0,0,.317-1.805,14.068,14.068,0,0,0-.878-3.546,8.677,8.677,0,0,1-.545-3.456,3.79,3.79,0,0,1,.512-1.626,3.5,3.5,0,0,1,1.163-1.13,7.546,7.546,0,0,1,2.822-.813,21.07,21.07,0,0,0,2.537-.431,6.262,6.262,0,0,0,3.326-2.236,6.628,6.628,0,0,0,1.163-2.293c.155-.577.171-.895.2-.895a3.806,3.806,0,0,1-.114.911,6.261,6.261,0,0,1-1.114,2.383,6.408,6.408,0,0,1-3.391,2.358,20.823,20.823,0,0,1-2.562.472,7.359,7.359,0,0,0-2.708.813,3.123,3.123,0,0,0-1.5,2.5,8.514,8.514,0,0,0,.553,3.326,13.822,13.822,0,0,1,.911,3.627,4.318,4.318,0,0,1-.333,1.984,3.968,3.968,0,0,1-1.317,1.626,9.913,9.913,0,0,1-3.911,1.464,10.62,10.62,0,0,0-3.968,1.366,5.912,5.912,0,0,0-2.106,3.651,19.459,19.459,0,0,1-1.3,4.448,4.5,4.5,0,0,1-1.626,1.765,5.692,5.692,0,0,1-2.228.748c-1.545.2-3.041.041-4.481.114a7.6,7.6,0,0,0-6.6,4.212,7.156,7.156,0,0,0-.813,3.692,10.945,10.945,0,0,1,0,3.749,5.773,5.773,0,0,1-2.171,2.757c-.886.683-1.781,1.252-2.521,1.927a7.538,7.538,0,0,0-2.44,4.676,5.692,5.692,0,0,0,.984,3.863,5.213,5.213,0,0,0,1.927,1.732C157.823,300.414,158.14,300.479,158.132,300.5Z" transform="translate(19220.344 -22857.971)" fill="#455a64"/>
        <path id="Path_107411" data-name="Path 107411" d="M237.213,315.774a8.379,8.379,0,0,0,.707-.773,5.082,5.082,0,0,0,.935-2.814,8.945,8.945,0,0,0-1.082-4.578,57.014,57.014,0,0,1-2.928-5.692,11.743,11.743,0,0,1,0-7.693,11.515,11.515,0,0,1,2.147-3.781c.984-1.138,2.179-2.09,3.131-3.3a4.777,4.777,0,0,0,1.155-4.277c-.472-1.513-1.838-2.578-3.041-3.765a8.465,8.465,0,0,1-1.626-2.049,6.693,6.693,0,0,1-.74-2.57,11.962,11.962,0,0,1,.886-5.31c.659-1.708,1.529-3.253,2.253-4.879a14.792,14.792,0,0,0,1.456-4.879,10.515,10.515,0,0,0-3.5-8.587,33.007,33.007,0,0,0-3.814-2.44,5.294,5.294,0,0,1-1.626-1.569,5.587,5.587,0,0,1-.683-2.057,4.879,4.879,0,0,0-.626-1.862,3.741,3.741,0,0,0-1.382-1.26,14.32,14.32,0,0,0-3.472-1.13,12.774,12.774,0,0,1-3.253-1.09,10.483,10.483,0,0,1-2.44-1.8,11.068,11.068,0,0,1-2.643-4.066,9.831,9.831,0,0,1-.626-2.976,7.122,7.122,0,0,1,0-1.065,11.385,11.385,0,0,0,.756,3.985,10.954,10.954,0,0,0,2.651,3.92,9.9,9.9,0,0,0,2.4,1.724,12.735,12.735,0,0,0,3.155,1.049,14,14,0,0,1,3.562,1.13,3.969,3.969,0,0,1,1.513,1.358,5.448,5.448,0,0,1,.691,1.984,5.1,5.1,0,0,0,.642,1.927,4.879,4.879,0,0,0,1.5,1.456,31.9,31.9,0,0,1,3.863,2.44,10.872,10.872,0,0,1,3.659,8.945,14.913,14.913,0,0,1-1.48,5.017c-.732,1.626-1.626,3.163-2.236,4.822a11.718,11.718,0,0,0-.87,5.123,6.285,6.285,0,0,0,.7,2.44,7.978,7.978,0,0,0,1.553,1.952c.6.586,1.244,1.147,1.813,1.773a5.693,5.693,0,0,1,1.334,2.171,4.237,4.237,0,0,1-.073,2.5,6.889,6.889,0,0,1-1.171,2.131c-.984,1.252-2.2,2.2-3.147,3.3a11.1,11.1,0,0,0-2.1,3.651,11.385,11.385,0,0,0,0,7.473c.813,2.2,2.065,3.96,2.862,5.692a9.051,9.051,0,0,1,1.025,4.7,5,5,0,0,1-1.033,2.846,3.1,3.1,0,0,1-.756.748Z" transform="translate(19208.719 -22856.01)" fill="#455a64"/>
        <path id="Path_107412" data-name="Path 107412" d="M182.423,306.293l.618-5.221a1.626,1.626,0,0,1,2.074-1.407c7.636,5.985,15.451,9.018,23.778,6.628a2.163,2.163,0,0,1,1.521,2.6l-3.253,13.076-8.433,2.529-11.133-2.179-5.2-9.612Z" transform="translate(19215.066 -22869.104)" fill="#ff725e"/>
        <path id="Path_107433" data-name="Path 107433" d="M176.05,251.71c-1.545.431-2.383,2.179-2.383,3.781a18.013,18.013,0,0,0,1.041,4.668,6.35,6.35,0,0,1-.138,4.676c-1.545,2.814-5.879,2.667-7.969,5.107-2.659,3.1-.179,8.221-2.1,11.824-1.748,3.253-6.636,4.31-7.6,7.9-.618,2.285.683,4.773,0,7.05-.724,2.586-3.594,3.9-5.107,6.115a8.327,8.327,0,0,0-.464,7.766,15.141,15.141,0,0,0,4.473,5.587c.228.2.464.382.7.569l28.006-6.506,5.611-51.8Z" transform="translate(19221.008 -22860.156)" fill="#263238"/>
      </g>
      <path id="Path_107415" data-name="Path 107415" d="M591.026,164.83s-5.694-11.554-5.716-13.97l1.567-14.345s.993-.728,2.075,1.721a8.044,8.044,0,0,1,.309,5.021l1.192,3.189,1.633-2.516,1.7-9.413s1.1-6.786,2.141-6.1,1.412,2.637.949,5.573-1.048,6.621-1.048,6.621-.1,1.1.938-.806,2.03-10.152,2.428-11.267.485-4.028,2.207-3.906.784,3.862.784,3.862l-1.313,12.138s1.446-4.888,1.721-5.727.684-3.487,1.2-4.944,1.357-2.207,2.1-2.207a1.39,1.39,0,0,1,1.335,1.357l-2.207,10.373a51.046,51.046,0,0,0-1.1,5.032c.1.287,1.777-2.008,1.777-2.008l1.247-3.377s.982-4.767,2.207-4.933,1.346.795,1.346.795L608.6,143.71,605,153.641l-3.476,7.482a34.724,34.724,0,0,1-.353,4.127C600.924,165.515,591.026,164.83,591.026,164.83Z" transform="translate(18573.352 -22822.82)" fill="#aa6550"/>
      <path id="Path_107416" data-name="Path 107416" d="M591.668,142.82a20.336,20.336,0,0,1-4.138,5.407,20.338,20.338,0,0,1,4.138-5.407Z" transform="translate(18573.58 -22820.938)" fill="#724940"/>
      <path id="Path_107417" data-name="Path 107417" d="M602.613,145.84a28.165,28.165,0,0,0-4.833,2.008,29.694,29.694,0,0,0-4.05,3.311,8.983,8.983,0,0,1,3.752-3.807A8.828,8.828,0,0,1,602.613,145.84Z" transform="translate(18574.223 -22820.627)" fill="#724940"/>
      <path id="Path_107418" data-name="Path 107418" d="M608.5,151.83c-.077-.066.6-.872,1.446-2.284a20.823,20.823,0,0,0,2.913-12.4c-.133-1.655-.375-2.659-.287-2.693a7.723,7.723,0,0,1,.7,2.648,18.338,18.338,0,0,1-.331,6.621,18.132,18.132,0,0,1-2.648,6.047A8.179,8.179,0,0,1,608.5,151.83Z" transform="translate(18575.75 -22821.805)" fill="#263238"/>
      <path id="Path_107419" data-name="Path 107419" d="M614.67,152.078a31.483,31.483,0,0,0,2.207-8.828,32.676,32.676,0,0,0-.9-9.06,8.829,8.829,0,0,1,.927,2.56,20.594,20.594,0,0,1,.552,6.544,21.231,21.231,0,0,1-1.512,6.4A8.3,8.3,0,0,1,614.67,152.078Z" transform="translate(18576.389 -22821.832)" fill="#263238"/>
      <path id="Path_107420" data-name="Path 107420" d="M587.794,128.269a3.929,3.929,0,0,1,.144-1.8A10.869,10.869,0,0,1,593,119.607a4,4,0,0,1,1.644-.607,14.091,14.091,0,0,0-6.875,9.324Z" transform="translate(18573.604 -22823.404)" fill="#263238"/>
      <path id="Path_107421" data-name="Path 107421" d="M583.75,126.6a12.833,12.833,0,0,1,8.155-9.258,26.859,26.859,0,0,0-4.833,3.962A26.607,26.607,0,0,0,583.75,126.6Z" transform="translate(18573.189 -22823.576)" fill="#263238"/>
      <path id="Path_107422" data-name="Path 107422" d="M526.228,172.638c-.1,0-.088-1.181-.408-3.046a21.274,21.274,0,0,0-2.472-6.886,11.73,11.73,0,0,0-5.021-5.12,7.029,7.029,0,0,0-2.957-.463,1.732,1.732,0,0,1,.817-.221,4.988,4.988,0,0,1,2.284.309,11.234,11.234,0,0,1,5.374,5.208,18.76,18.76,0,0,1,2.372,7.118,9.027,9.027,0,0,1,.011,3.1Z" transform="translate(18566.113 -22819.484)" fill="#263238"/>
      <path id="Path_107423" data-name="Path 107423" d="M531.154,154.676l24.751,3.945,4.414,3.945s15.581,31.256,15.868,37.521c.309,6.981-3.31,18.954-3.31,18.954l3.564,27.618c.53,3.161-1.468,6.208-2.814,6.208l-43.371,1.251c-5.573-1.137-7.868-4.139-7.526-7.459l1.251-13.3-18.263-63.025c-1.1,3.718.607-10.051,8.762-13.133C517.923,155.927,525.923,153.539,531.154,154.676Z" transform="translate(18565.082 -22819.742)" fill="#ff725e"/>
      <path id="Path_107424" data-name="Path 107424" d="M553.1,160.139s7.625,5.871,14.831,12.558,26.484,20.028,26.484,20.028l-1.942-32.718,14.687-1.986s9.347,36.846,4.844,46.457-9.038,12.823-24,8.022-19.234-6.952-19.234-6.952Z" transform="translate(18570.018 -22819.365)" fill="#ff725e"/>
      <path id="Path_107425" data-name="Path 107425" d="M556.57,163.7a2.579,2.579,0,0,1,.342.43l.883,1.3c.761,1.1,1.843,2.8,3.134,4.888a77.775,77.775,0,0,1,8.309,17.226,38.147,38.147,0,0,1,1.28,19,25.663,25.663,0,0,1-1.8,5.517,14.981,14.981,0,0,1-.706,1.412c-.176.309-.276.475-.3.463s.287-.706.806-1.964a29.405,29.405,0,0,0,1.6-5.517,39.284,39.284,0,0,0-1.435-18.759,84.262,84.262,0,0,0-8.1-17.181l-2.979-4.977c-.32-.541-.574-.993-.794-1.357S556.548,163.711,556.57,163.7Z" transform="translate(18570.377 -22818.777)" fill="#263238"/>
      <path id="Path_107426" data-name="Path 107426" d="M521.006,156.89s7.724,10.1,8.122,19.355S515.3,241.032,515.3,241.032l-12.491,50.683-15.559-5.738s3.619-36.084,4.315-40.564c1.435-9.336,7.581-27.587,8.431-38.059s4.734-30.787,6.621-35.521S508.658,156.626,521.006,156.89Z" transform="translate(18563.203 -22819.482)" fill="#ff725e"/>
      <path id="Path_107427" data-name="Path 107427" d="M525.7,179.07a2.2,2.2,0,0,1,0,.541,14.743,14.743,0,0,1-.177,1.545c-.188,1.335-.486,3.31-.916,5.65-.85,4.756-2.207,11.289-3.829,18.472s-3.211,13.661-4.414,18.34c-.607,2.328-1.1,4.215-1.49,5.517-.177.6-.32,1.1-.441,1.49a2.5,2.5,0,0,1-.188.508,1.49,1.49,0,0,1,.077-.53c.088-.419.2-.916.342-1.523.32-1.4.761-3.31,1.3-5.517,1.1-4.778,2.6-11.234,4.248-18.373s3.046-13.694,3.995-18.417c.452-2.306.817-4.193,1.1-5.606.11-.607.21-1.1.287-1.534A3.235,3.235,0,0,1,525.7,179.07Z" transform="translate(18565.996 -22817.188)" fill="#263238"/>
      <g id="Group_25174" data-name="Group 25174" transform="translate(19084.484 -22641.668)" opacity="0.3">
        <path id="Path_9696" data-name="Path 9696" d="M525.741,250.247c2.461-2.545,3.638-13.223,3.98-16.795l3.719-34.1c.761-7.086,1.479-14.515-1.1-21.122a3.539,3.539,0,0,0-1.953-2.339,2.493,2.493,0,0,0-2.571,1.141c-.6.81-2.207,1.985-2.5,2.967-2.5,10.133-3.586,20.106-6.08,30.239-.662,2.682-1.523,2.579-.949,5.272.828,3.925,4.414,15.176,4.414,15.176s-1.177,10.9-1.321,13.292a6.067,6.067,0,0,0,4.37,6.265" transform="translate(-518.089 -175.852)"/>
      </g>
      <path id="Path_107428" data-name="Path 107428" d="M525.771,184.281a3.311,3.311,0,0,1-.839.607,20.025,20.025,0,0,1-2.516,1.346,9.005,9.005,0,0,1-4.182.85,10.185,10.185,0,0,1-4.855-1.909,35.033,35.033,0,0,0-4.315-2.715,6.246,6.246,0,0,0-3.928-.64,4.414,4.414,0,0,0-2.406,1.2c-.441.463-.6.817-.64.795a1.931,1.931,0,0,1,.474-.949,4.514,4.514,0,0,1,2.483-1.457,6.621,6.621,0,0,1,4.237.563,31.284,31.284,0,0,1,4.414,2.715,10,10,0,0,0,4.579,1.865,8.96,8.96,0,0,0,3.995-.7C524.447,184.987,525.727,184.2,525.771,184.281Z" transform="translate(18564.738 -22816.957)" fill="#fafafa"/>
      <path id="Path_107429" data-name="Path 107429" d="M571.339,183.094a.727.727,0,0,1-.221.408,6.316,6.316,0,0,1-.839,1.1,9.523,9.523,0,0,1-4.315,2.439,15.559,15.559,0,0,1-7.349.1,73.281,73.281,0,0,1-8.541-2.759,28.316,28.316,0,0,0-15.868-1.1,40.245,40.245,0,0,0-6.356,2.119,2.489,2.489,0,0,1,.386-.265,12.494,12.494,0,0,1,1.2-.618,24.418,24.418,0,0,1,4.668-1.633,27.277,27.277,0,0,1,7.316-.783,28.1,28.1,0,0,1,8.828,1.7,82.865,82.865,0,0,0,8.475,2.781,15.56,15.56,0,0,0,7.14,0,9.589,9.589,0,0,0,4.259-2.207C570.952,183.569,571.284,183.006,571.339,183.094Z" transform="translate(18567.404 -22816.875)" fill="#fafafa"/>
      <path id="Path_107430" data-name="Path 107430" d="M576.155,178.5a5.882,5.882,0,0,1,.121,2.317,14.246,14.246,0,0,1-5.131,9.722,5.792,5.792,0,0,1-1.975,1.214c0-.077.684-.563,1.71-1.523a16.188,16.188,0,0,0,3.31-4.3,16.366,16.366,0,0,0,1.688-5.153,21.439,21.439,0,0,1,.276-2.273Z" transform="translate(18571.68 -22817.246)" fill="#fafafa"/>
      <g id="Group_25175" data-name="Group 25175" transform="translate(19131.934 -22647.65)" opacity="0.3">
        <path id="Path_9700" data-name="Path 9700" d="M561.09,170.43c11.7,11.73,21.75,24.784,26.053,40.829l-17.17-6.047s1.777-5.815.5-10.483.287-7.967-9.38-24.277" transform="translate(-561.09 -170.43)"/>
      </g>
      <path id="Path_107431" data-name="Path 107431" d="M193.04,274.7a32.956,32.956,0,0,1,4.385,7.98,11.211,11.211,0,0,1-.427,8.867c-1.233,2.209-3.5,3.942-3.885,6.448-.645,4.264,4.473,7.424,4.836,11.72.21,2.418-1.185,4.74-2.773,6.618s-3.442,3.587-4.473,5.82-.975,5.183.911,6.795c-2.354-.661-4.8,1.838-7.117,1.064-1.975-.653-2.5-3.152-2.692-5.223a4.99,4.99,0,0,0-.879,4.425,12.341,12.341,0,0,1-2.015-14.138c1.419-2.636,3.837-4.957,3.837-7.891-.04-3.224-3.063-5.642-3.909-8.81a11.943,11.943,0,0,1,.54-6.553,26.4,26.4,0,0,0,1.556-6.448c.089-2.2-.113-3.111-2.015-4.256" transform="translate(18912.26 -22973.059)" fill="#263238"/>
      <path id="Path_107432" data-name="Path 107432" d="M188.684,327.041h-.177a2.15,2.15,0,0,1-.5-.161,3.441,3.441,0,0,1-1.531-1.322,5.288,5.288,0,0,1-.846-3.087,7.8,7.8,0,0,1,1.475-3.982c.862-1.322,2.071-2.571,3.184-4.03a8.764,8.764,0,0,0,2.192-5.207c0-2.031-1.1-3.99-2.354-5.828s-2.708-3.8-3.152-6.247a5.715,5.715,0,0,1,.516-3.571,11.7,11.7,0,0,1,2.1-2.781,24.467,24.467,0,0,0,2.192-2.418,6.392,6.392,0,0,0,1.265-2.781,4.03,4.03,0,0,0-.629-2.765,18.887,18.887,0,0,0-1.749-2.217,8.931,8.931,0,0,1-2.184-4.651,8.367,8.367,0,0,1,.467-4.216,8.649,8.649,0,0,1,1.7-2.724,8.06,8.06,0,0,1,1.548-1.306,5.1,5.1,0,0,1,.451-.266.5.5,0,0,1,.169-.073,10.6,10.6,0,0,0-2.047,1.757,8.609,8.609,0,0,0-1.612,2.692,8.23,8.23,0,0,0-.395,4.095,8.577,8.577,0,0,0,2.152,4.466,19.8,19.8,0,0,1,1.8,2.249,4.417,4.417,0,0,1,.693,3.007,6.755,6.755,0,0,1-1.322,2.966,23.1,23.1,0,0,1-2.217,2.491,11.6,11.6,0,0,0-2.031,2.684,5.247,5.247,0,0,0-.467,3.313c.411,2.313,1.822,4.24,3.079,6.094a19.7,19.7,0,0,1,1.668,2.9,7.754,7.754,0,0,1,.725,3.152,7,7,0,0,1-.742,2.99,13.951,13.951,0,0,1-1.556,2.418c-1.153,1.451-2.354,2.676-3.224,3.966a7.618,7.618,0,0,0-1.483,3.821,5.24,5.24,0,0,0,.75,2.99,3.579,3.579,0,0,0,1.427,1.338C188.442,326.977,188.692,327.009,188.684,327.041Z" transform="translate(18910.689 -22971.645)" fill="#455a64"/>
    </g>
  </g>
</svg>
