<svg id="Component_Character_Female_B" data-name="Component/Character/Female/B" xmlns="http://www.w3.org/2000/svg" xmlns:xlink="http://www.w3.org/1999/xlink" width="180" height="180" viewBox="0 0 180 180">
  <defs>
    <clipPath id="clip-path">
      <rect id="Rectangle_9940" data-name="Rectangle 9940" width="180" height="180" transform="translate(17776 -19022)" fill="#fff" stroke="#707070" stroke-width="1"/>
    </clipPath>
  </defs>
  <g id="Component_Character_Female_B-2" data-name="Component/Character/Female/B" transform="translate(-17776 19022)" clip-path="url(#clip-path)">
    <g id="character-4--inject-1208" transform="translate(17789 -19010.066)">
      <path id="Path_106474" data-name="Path 106474" d="M532.195,337.09a126.469,126.469,0,0,0,7.858-13.267c2.824-5.389,2.346-5.663,1.669-5.9-1.819-.65-5.327,9.28-5.792,6.681s5.676-11.626,3.748-12.2c-2.517-.78-6,9.691-6.353,10.552s-1.607.335-1.238-.424c.527-1.087,5.765-12.706,3.3-13.493-1.368-.431-1.86,2.127-1.86,2.127s-4.1,11.25-5.259,10.84,1.026-7.106,1.922-9.308.226-3.508-1.053-3.125c-.875.26-3.782,6.935-4.616,9.13s-3.023,8.275-4.349,4.343c0-.062-.048-.116-.075-.178-1.2-3.912-3.419-6.524-4.575-6.839A1.412,1.412,0,0,0,514,318.078a1.369,1.369,0,0,0,.3.513c.062.068.123.171.185.246a20.515,20.515,0,0,1,1.669,3.843,11.14,11.14,0,0,1,.595,3.693c0,1.457.684,5.7.629,6.743" transform="translate(-387.664 -242.478)" fill="#b77153"/>
      <path id="Path_106475" data-name="Path 106475" d="M458.358,332.766l-16.543,32.826s-9.355-27.061-14.4-37.825c-1.922-4.1-5.779-6.948-9.479-8.836v-.075l-.773-.308a39.171,39.171,0,0,0-8.316-2.879c-17.453-5-33.893-3.255-52.925,3.419,0,0-9.882,2.653-14.676,15.545-4.308,11.626-9.143,29.407-9.971,32.553-5.929,19.956,2.537,31.069,14.32,29.7,4.856-.766,8.986-4.787,10.812-6.346l6.23-5.854.137,4.534-7,28,71.63-.15L414.48,383.913l2.872-15.2,4.917,11.681a20.469,20.469,0,0,0,37.525.486l16.748-42.168Z" transform="translate(-329.33 -243.679)" fill="#ff725e"/>
      <path id="Path_106476" data-name="Path 106476" d="M382.642,401.84a7.037,7.037,0,0,1-.643.923c-.431.574-1.081,1.4-1.908,2.394-1.648,1.99-4.021,4.664-6.777,7.488s-5.382,5.252-7.352,6.928c-.978.848-1.792,1.5-2.366,1.942a5.9,5.9,0,0,1-.916.684,6.974,6.974,0,0,1,.827-.759c.547-.472,1.334-1.163,2.291-2.052,1.915-1.73,4.507-4.179,7.256-7s5.156-5.471,6.839-7.4c.855-.971,1.525-1.771,1.99-2.318A6.5,6.5,0,0,1,382.642,401.84Z" transform="translate(-339.873 -271.83)" fill="#263238"/>
      <path id="Path_106477" data-name="Path 106477" d="M454.179,398.033a1.476,1.476,0,0,1,.034-.383c.055-.287.109-.643.185-1.081l.745-3.98c.629-3.358,1.491-7.995,2.175-13.158q.26-1.935.465-3.768a20.053,20.053,0,0,0,.2-3.508,35.209,35.209,0,0,0-.882-5.9c-.369-1.669-.684-3.009-.9-3.946-.1-.472-.15-.841-.178-1.087a1.527,1.527,0,0,1,0-.39,1.488,1.488,0,0,1,.082.376c.048.246.13.609.246,1.074.226.923.6,2.25,1.005,3.919a33.19,33.19,0,0,1,.964,5.943,21.082,21.082,0,0,1-.178,3.556c-.13,1.224-.287,2.489-.458,3.782-.684,5.177-1.593,9.814-2.284,13.158-.356,1.634-.643,2.975-.855,3.96-.1.431-.185.786-.246,1.074A1.918,1.918,0,0,1,454.179,398.033Z" transform="translate(-368.797 -258.866)" fill="#263238"/>
      <path id="Path_106478" data-name="Path 106478" d="M491.68,398.054a46.371,46.371,0,0,1,1.484-7.974,23.378,23.378,0,0,1-.581,4.049A23.747,23.747,0,0,1,491.68,398.054Z" transform="translate(-380.652 -268.112)" fill="#263238"/>
      <path id="Path_106479" data-name="Path 106479" d="M494.886,398.873a31.093,31.093,0,0,1-.684-4.616,30.534,30.534,0,0,1-.362-4.657,31.1,31.1,0,0,1,.684,4.616A30.524,30.524,0,0,1,494.886,398.873Z" transform="translate(-381.335 -267.961)" fill="#263238"/>
      <path id="Path_106480" data-name="Path 106480" d="M418.028,461.34c-.1,0-.178-15.2-.178-33.93s.082-33.94.178-33.94.178,15.188.178,33.94S418.124,461.34,418.028,461.34Z" transform="translate(-357.313 -287.945)" fill="#263238"/>
      <g id="Group_25078" data-name="Group 25078" transform="translate(87.591 103.947)" opacity="0.2">
        <path id="Path_106481" data-name="Path 106481" d="M457.41,363.73c3.358,6.435,6.278,12.836,6.545,20.092.205,5.642-2.052,10.347.28,15.49-.116.089-2.106-4.343-2.989-6.422-1.812-4.281-3.419-8.1-3.419-8.1s1.245-9.663,1.368-11.311S457.41,363.73,457.41,363.73Z" transform="translate(-457.41 -363.73)"/>
      </g>
      <g id="Group_25079" data-name="Group 25079" transform="translate(3.549 102.518)" opacity="0.2">
        <path id="Path_106482" data-name="Path 106482" d="M335.45,395.766c0,3.228-2-7.427-.13-10.046,1.32-1.84,3.577-2.736,5.765-3.276s4.479-.9,6.422-2.052c2.51-1.484,4.1-4.1,5.861-6.4s4.1-12.139,7-12.351V376a195.471,195.471,0,0,1-21.624,12.125A10.074,10.074,0,0,0,335.45,395.766Z" transform="translate(-334.52 -361.64)"/>
      </g>
      <path id="Path_106483" data-name="Path 106483" d="M372.227,361.4c.1,0,.178,3.194.178,7.133s-.082,7.14-.178,7.14a143.294,143.294,0,0,1,0-14.273Z" transform="translate(-342.827 -259.046)" fill="#263238"/>
      <path id="Path_106484" data-name="Path 106484" d="M335.809,407.893a3.261,3.261,0,0,1-.082-1.272,9.027,9.027,0,0,1,.725-2.989,8.891,8.891,0,0,1,1.676-2.571,3.419,3.419,0,0,1,.971-.821,16.48,16.48,0,0,0-2.318,3.536A15.508,15.508,0,0,0,335.809,407.893Z" transform="translate(-331.343 -271.324)" fill="#263238"/>
      <path id="Path_106485" data-name="Path 106485" d="M340.17,393.779a6.431,6.431,0,0,0,1.074-.39c.684-.274,1.669-.684,2.865-1.251a99.537,99.537,0,0,0,9.116-4.787c3.46-2.052,6.476-4.069,8.59-5.615,1.06-.78,1.908-1.422,2.476-1.881a6.789,6.789,0,0,0,.862-.745,6.947,6.947,0,0,0-.957.629l-2.537,1.778c-2.154,1.491-5.177,3.481-8.631,5.512s-6.682,3.686-9.041,4.842l-2.8,1.368A6.457,6.457,0,0,0,340.17,393.779Z" transform="translate(-332.757 -264.644)" fill="#263238"/>
      <path id="Path_106486" data-name="Path 106486" d="M435.652,252.825c-1.176-1.539-3.043-2.736-3.419-4.616-.472-2.524,2.052-4.89,1.593-7.42-.3-1.73-1.894-2.948-3.522-3.618s-3.419-.992-4.91-1.887a9.923,9.923,0,0,1-3.919-4.828,16.507,16.507,0,0,1-.581-1.662,17.639,17.639,0,0,0-.827-3.549c-.062-.3-.116-.6-.171-.9l.075.684a7.19,7.19,0,0,0-.889-1.6c-1.251-1.669-3.754-2.6-5.471-1.429l.821-.547a15.791,15.791,0,0,0-12.194-9.574,14.6,14.6,0,0,0-3.091-.1c-3.686-.191-9.014.882-11.263,2.311-2.872,1.819-5.813,4.315-7.256,7.4-.773,1.662-1.3,3.584-2.736,4.691-1.956,1.477-4.7.9-7.14,1.176a11.182,11.182,0,0,0-8.89,7.352,14.656,14.656,0,0,0,1.122,11.742,3.126,3.126,0,0,1,.588,2.523,3.173,3.173,0,0,1-1.539,1.368,8.268,8.268,0,0,0-3.72,3.891,4.564,4.564,0,0,0,.957,5.061,4.158,4.158,0,0,0,4.172.595,9.075,9.075,0,0,0-.636,3.235,6.77,6.77,0,0,0,3.358,6.011,5,5,0,0,0,6.394-1.532,8.412,8.412,0,0,0,12.994,7.1c1.012-.684,2.052-1.587,3.248-1.368s1.874,1.368,2.695,2.2c2.188,2.277,5.922,2.537,8.8,1.245a14.843,14.843,0,0,0,6.524-6.64,5.088,5.088,0,0,0,9.075-1.272,8.507,8.507,0,0,0,15.23-4.828,6.989,6.989,0,0,0,4.534-11.154Zm-68.778,2.113V254.9l.068-.034Z" transform="translate(-338.377 -211.733)" fill="#8c9297"/>
      <path id="Path_106487" data-name="Path 106487" d="M420.449,278.366s8.76-1.45,10.573-12.877c.9-5.683.615-15,.137-22.609a12.07,12.07,0,0,0-13.308-11.25l-19.832,2.1a4.021,4.021,0,0,0-3.6,4.1l2.086,49.636c-1.443.308-4.719,1.019-6.326,1.484,0,0,15.333,34.269,19.087,33.873S428.026,290,428.026,290a78.4,78.4,0,0,0-7.947-1.949,94.535,94.535,0,0,1,.369-9.684Z" transform="translate(-348.566 -218.002)" fill="#b77153"/>
      <path id="Path_106488" data-name="Path 106488" d="M442.27,256.6a1.464,1.464,0,0,1-1.409,1.477,1.368,1.368,0,0,1-1.511-1.32,1.464,1.464,0,0,1,1.409-1.477,1.4,1.4,0,0,1,1.511,1.32Z" transform="translate(-364.11 -225.497)" fill="#263238"/>
      <path id="Path_106489" data-name="Path 106489" d="M444.472,254.525c-.185.191-1.293-.629-2.872-.622s-2.736.793-2.9.6c-.089-.089.1-.431.6-.8a4.1,4.1,0,0,1,2.332-.7,3.885,3.885,0,0,1,2.284.739C444.369,254.094,444.561,254.443,444.472,254.525Z" transform="translate(-363.897 -224.778)" fill="#263238"/>
      <path id="Path_106490" data-name="Path 106490" d="M420.017,257.028a1.463,1.463,0,0,1-1.416,1.477,1.368,1.368,0,0,1-1.511-1.32,1.464,1.464,0,0,1,1.416-1.477,1.4,1.4,0,0,1,1.511,1.32Z" transform="translate(-357.073 -225.633)" fill="#263238"/>
      <path id="Path_106491" data-name="Path 106491" d="M421.8,254.949c-.178.191-1.293-.629-2.865-.622s-2.735.793-2.906.6c-.082-.089.1-.431.609-.8a4.062,4.062,0,0,1,2.325-.718,3.9,3.9,0,0,1,2.284.739C421.728,254.5,421.892,254.867,421.8,254.949Z" transform="translate(-356.732 -224.908)" fill="#263238"/>
      <path id="Path_106492" data-name="Path 106492" d="M432.51,266.687a10.327,10.327,0,0,1,2.565-.458c.4-.041.78-.123.848-.4a2.051,2.051,0,0,0-.267-1.2c-.383-.971-.773-2-1.19-3.064-1.655-4.363-2.852-7.954-2.674-8.022s1.655,3.419,3.31,7.789l1.142,3.084a2.3,2.3,0,0,1,.205,1.58,1,1,0,0,1-.684.588,3.027,3.027,0,0,1-.684.1,10.427,10.427,0,0,1-2.571,0Z" transform="translate(-361.715 -224.952)" fill="#263238"/>
      <path id="Path_106493" data-name="Path 106493" d="M427.368,298.1a29.051,29.051,0,0,1-15.3-4.1s3.714,7.844,15.148,6.777Z" transform="translate(-355.486 -237.739)" fill="#995037"/>
      <path id="Path_106494" data-name="Path 106494" d="M425.679,276.131a3.1,3.1,0,0,1,1.156-.5,1.019,1.019,0,0,1,1.074.506,2.547,2.547,0,0,0,.164.4c.233.315.718.2,1.087.308a1.149,1.149,0,0,1,.609,1.511,2.312,2.312,0,0,1-1.368,1.176,4.9,4.9,0,0,1-2.448.335,2.052,2.052,0,0,1-1.511-.752,1.792,1.792,0,0,1,.116-1.956,5.217,5.217,0,0,1,1.566-1.368" transform="translate(-359.322 -231.928)" fill="#995037"/>
      <path id="Path_106495" data-name="Path 106495" d="M425.946,274.36c.253,0,.26,1.7,1.723,2.906s3.283,1.026,3.3,1.265c0,.109-.4.335-1.176.356a4.268,4.268,0,0,1-2.736-.957,3.734,3.734,0,0,1-1.368-2.441C425.639,274.8,425.83,274.346,425.946,274.36Z" transform="translate(-359.788 -231.531)" fill="#263238"/>
      <path id="Path_106496" data-name="Path 106496" d="M422.2,251.084c-.157.424-1.73.226-3.577.444s-3.351.732-3.59.342c-.109-.178.15-.581.752-1a6.285,6.285,0,0,1,5.471-.6C421.922,250.544,422.264,250.879,422.2,251.084Z" transform="translate(-356.414 -223.799)" fill="#263238"/>
      <path id="Path_106497" data-name="Path 106497" d="M443.818,249.26c-.28.362-1.368,0-2.674,0s-2.407.239-2.66-.137c-.116-.178.062-.54.54-.875a3.871,3.871,0,0,1,4.3.13C443.791,248.733,443.941,249.1,443.818,249.26Z" transform="translate(-363.825 -223.09)" fill="#263238"/>
      <path id="Path_106498" data-name="Path 106498" d="M420.944,226.878a15.5,15.5,0,0,1-18.752,11.879,14.724,14.724,0,0,1-8.678,11.558,31.363,31.363,0,0,1,3.686,18.814c-.335,2.735-1.135,5.656-3.214,7.523-3.173,2.845-8.521,2.154-11.571-.814a12.435,12.435,0,0,1-3.132-11.311,18.1,18.1,0,0,1,6.49-10.094,7.242,7.242,0,0,1-3.734-12.419,16.5,16.5,0,0,0,2.736-2.51,13.59,13.59,0,0,0,1.183-3.283c1.019-2.879,3.59-4.869,6.039-6.7,2.052-1.546,4.349-3.16,6.935-3.153,1.368,0,2.736.479,4.1.294,1.881-.253,3.351-1.682,4.9-2.736a10.682,10.682,0,0,1,7.523-2.052,6.719,6.719,0,0,1,5.615,5.02" transform="translate(-345.034 -214.919)" fill="#8c9297"/>
      <path id="Path_106499" data-name="Path 106499" d="M438.641,230.655a6.84,6.84,0,0,0,2.339,6.018,20.269,20.269,0,0,0,5.745,3.419,26.042,26.042,0,0,0-2.961-6.155,8.7,8.7,0,0,0-5.553-3.748" transform="translate(-363.749 -217.568)" fill="#8c9297"/>
      <path id="Path_106500" data-name="Path 106500" d="M365.323,254.468a1.512,1.512,0,0,1-.062-.718,2.736,2.736,0,0,1,1.026-1.764,4.541,4.541,0,0,1,3.118-.848c1.279,0,2.695.424,4.261.328a5.389,5.389,0,0,0,4.158-2.578,5.47,5.47,0,0,0,.78-2.688c.068-.978,0-2,.034-3.071a5.553,5.553,0,0,1,1-3.125,6.49,6.49,0,0,1,2.736-2.052c2.154-.978,4.609-.992,6.962-1.429a10.116,10.116,0,0,0,3.324-1.163,8.891,8.891,0,0,0,2.469-2.346c1.334-1.833,2.229-3.878,3.454-5.622a11.769,11.769,0,0,1,13.842-4.479,11.625,11.625,0,0,1,2.879,1.525,9.075,9.075,0,0,1,2.017,1.9.85.85,0,0,1-.137-.123l-.376-.376a13.042,13.042,0,0,0-1.58-1.286,11.975,11.975,0,0,0-7.064-2.113,11.749,11.749,0,0,0-9.321,5.143c-1.2,1.71-2.086,3.755-3.419,5.642a9.114,9.114,0,0,1-2.571,2.435,10.258,10.258,0,0,1-3.419,1.21c-2.407.444-4.787.458-6.894,1.368a6.244,6.244,0,0,0-2.6,1.942,5.184,5.184,0,0,0-.944,2.941c-.062,1.033,0,2.052-.048,3.071a5.834,5.834,0,0,1-.841,2.824,5.621,5.621,0,0,1-4.39,2.667,41.371,41.371,0,0,1-4.295-.376,4.39,4.39,0,0,0-3.023.759,2.736,2.736,0,0,0-1.039,1.669,2.915,2.915,0,0,0-.034.732Z" transform="translate(-340.683 -215.037)" fill="#fafafa"/>
      <path id="Path_106501" data-name="Path 106501" d="M380.769,389.453a126.387,126.387,0,0,0,15.339-1.641c6-.964,5.943-1.5,5.731-2.2-.574-1.846-10.628,1.286-8.822-.643s12.7-2.394,12.016-4.295c-.882-2.482-11.352.992-12.255,1.217s-1.231-1.08-.4-1.245c1.19-.233,13.63-2.982,12.782-5.43-.465-1.368-2.811-.219-2.811-.219s-11.475,3.419-11.838,2.277,6.312-3.419,8.61-4.035,2.948-1.922,1.874-2.736c-.732-.54-7.817,1.122-10.074,1.771s-8.439,2.524-6.086-.9c.041-.055.068-.109.1-.164,2.414-3.3,3.173-6.64,2.736-7.762a1.408,1.408,0,0,0-2.544,0,1.456,1.456,0,0,0-.232.547,1.354,1.354,0,0,1-.089.3,20.518,20.518,0,0,1-2.052,3.631,10.943,10.943,0,0,1-2.606,2.688c-1.169.855-4.1,3.987-5.027,4.541" transform="translate(-342.805 -258.443)" fill="rgba(0,0,0,0.22)"/>
      <path id="Path_106502" data-name="Path 106502" d="M380.769,389.453a126.387,126.387,0,0,0,15.339-1.641c6-.964,5.943-1.5,5.731-2.2-.574-1.846-10.628,1.286-8.822-.643s12.7-2.394,12.016-4.295c-.882-2.482-11.352.992-12.255,1.217s-1.231-1.08-.4-1.245c1.19-.233,13.63-2.982,12.782-5.43-.465-1.368-2.811-.219-2.811-.219s-11.475,3.419-11.838,2.277,6.312-3.419,8.61-4.035,2.948-1.922,1.874-2.736c-.732-.54-7.817,1.122-10.074,1.771s-8.439,2.524-6.086-.9c.041-.055.068-.109.1-.164,2.414-3.3,3.173-6.64,2.736-7.762a1.408,1.408,0,0,0-2.544,0,1.456,1.456,0,0,0-.232.547,1.354,1.354,0,0,1-.089.3,20.518,20.518,0,0,1-2.052,3.631,10.943,10.943,0,0,1-2.606,2.688c-1.169.855-4.1,3.987-5.027,4.541" transform="translate(-343.805 -259.443)" fill="#b77153"/>
      <path id="Path_106503" data-name="Path 106503" d="M373.82,379.48l10.245,15.292-16.885,17.22.574-27.93Z" transform="translate(-341.295 -264.761)" fill="#ff725e"/>
    </g>
  </g>
</svg>
