<svg id="Component_Character_Female_H" data-name="Component/Character/Female/H" xmlns="http://www.w3.org/2000/svg" xmlns:xlink="http://www.w3.org/1999/xlink" width="180" height="180" viewBox="0 0 180 180">
  <defs>
    <clipPath id="clip-path">
      <rect id="Rectangle_9949" data-name="Rectangle 9949" width="180" height="180" transform="translate(18946 -20857)" fill="#fff" stroke="#707070" stroke-width="1"/>
    </clipPath>
  </defs>
  <g id="Component_Character_Female_H-2" data-name="Component/Character/Female/H" transform="translate(-18946 20857)" clip-path="url(#clip-path)">
    <g id="yound-woman--inject-897" transform="translate(18769.941 -20963.68)">
      <path id="Path_13749" data-name="Path 13749" d="M206.38,246.328c3.913-13.025,10.765-35.958,14.071-48.28C225.209,180.206,253.4,173.5,253.4,173.5l25.24-1.189a13.548,13.548,0,0,1,3.5-.2c11.55.571,19.888,11.383,18.116,22.814l-3.771,24.4.821,47.067L241.529,261.2s4.758-15.975,4.972-20.9-4.306-15.32-4.306-15.32l-7.256,23.908Z" transform="translate(3.661 12.389)" fill="#ff725e"/>
      <path id="Path_13750" data-name="Path 13750" d="M283.6,180.43l16.641,37.195L281.95,236.7Z" transform="translate(17.979 13.973)" fill="#ff725e"/>
      <path id="Path_13751" data-name="Path 13751" d="M279.78,184.86a14.059,14.059,0,0,1,.809,1.975l.393,1.07.381,1.308a32.923,32.923,0,0,1,.821,3.212c.131.607.262,1.189.4,1.891s.2,1.356.321,2.07c.25,1.427.357,2.974.535,4.591.25,3.235.357,6.816.309,10.562-.107,7.494-.547,14.274-.654,19.15-.059,2.45-.1,4.425-.083,5.8a15.763,15.763,0,0,1-.059,2.129,12.982,12.982,0,0,1-.178-2.129c-.083-1.368-.119-3.354-.107-5.816,0-4.9.357-11.681.464-19.15,0-3.735,0-7.28-.262-10.5-.167-1.606-.25-3.152-.476-4.568-.1-.7-.19-1.392-.285-2.058s-.238-1.273-.357-1.879c-.2-1.189-.488-2.272-.726-3.212l-.333-1.32-.345-1.082a14.769,14.769,0,0,1-.571-2.046Z" transform="translate(17.568 14.812)" fill="#263238"/>
      <path id="Path_13752" data-name="Path 13752" d="M241.955,200.49a91.371,91.371,0,0,1-2.7,10.265,90.4,90.4,0,0,1-3.295,10.087,91.383,91.383,0,0,1,2.664-10.229,93.44,93.44,0,0,1,3.331-10.122Z" transform="translate(9.265 17.774)" fill="#263238"/>
      <path id="Path_13753" data-name="Path 13753" d="M291.292,175.46a10.2,10.2,0,0,1,.464,3.426,15.962,15.962,0,0,1-3,8.873,20.221,20.221,0,0,1-4.544,4.758,22.838,22.838,0,0,1-6.732,3.331,41.429,41.429,0,0,1-17.057,1.035c-6.054-.737-11.692-2.01-16.89-2.641a44.867,44.867,0,0,0-13.833.083,26.169,26.169,0,0,0-8.754,3.128c-1.9,1.118-2.819,1.963-2.867,1.9a5.171,5.171,0,0,1,.666-.607,7.234,7.234,0,0,1,.845-.666,13.458,13.458,0,0,1,1.189-.845,25.68,25.68,0,0,1,8.8-3.342,44.32,44.32,0,0,1,13.976-.226c5.246.607,10.9,1.867,16.9,2.593a41.274,41.274,0,0,0,16.819-.963,22.35,22.35,0,0,0,6.59-3.2,19.53,19.53,0,0,0,4.484-4.556,16.058,16.058,0,0,0,3.116-8.636,21.984,21.984,0,0,0-.178-3.449Z" transform="translate(5.878 13.031)" fill="#fafafa"/>
      <path id="Path_13754" data-name="Path 13754" d="M216.511,208.43c-.155-.107,1.725-2.688,3.568-6.114s3.093-6.376,3.271-6.316a23.2,23.2,0,0,1-2.724,6.613,22.957,22.957,0,0,1-4.116,5.816Z" transform="translate(5.579 16.923)" fill="#fafafa"/>
      <path id="Path_13755" data-name="Path 13755" d="M224.28,210.137A46.383,46.383,0,0,1,226.956,203a48.862,48.862,0,0,1,3.259-6.97,48.206,48.206,0,0,1-2.7,7.1A48.307,48.307,0,0,1,224.28,210.137Z" transform="translate(7.052 16.929)" fill="#fafafa"/>
      <path id="Path_13756" data-name="Path 13756" d="M232.54,209.344a37.911,37.911,0,0,1,1.975-6.459,38.37,38.37,0,0,1,2.557-6.245A35.481,35.481,0,0,1,235.1,203.1,36.006,36.006,0,0,1,232.54,209.344Z" transform="translate(8.617 17.044)" fill="#fafafa"/>
      <path id="Path_13757" data-name="Path 13757" d="M249.328,211.258v.357h-.178c0-.9.167-3.747.511-7.137a43.783,43.783,0,0,1,1.071-7.4,46.318,46.318,0,0,1-.452,7.47c-.345,3.354-.726,6.185-.952,7.054h-.178C249.245,211.342,249.293,211.258,249.328,211.258Z" transform="translate(11.764 17.128)" fill="#fafafa"/>
      <path id="Path_13758" data-name="Path 13758" d="M258.445,210.487a.977.977,0,0,1-.119.393l-.155.321v-.381c-.071-.916,0-3.568-.19-6.685-.2-3.9-.654-7.042-.464-7.065a25.218,25.218,0,0,1,1.082,7.042,34.757,34.757,0,0,1-.226,6.72H258.2C258.326,210.559,258.421,210.475,258.445,210.487Z" transform="translate(13.341 17.126)" fill="#fafafa"/>
      <path id="Path_13759" data-name="Path 13759" d="M268.874,209.143a35.874,35.874,0,0,1-1.784-6.4,35.136,35.136,0,0,1-1.189-6.554,36.208,36.208,0,0,1,1.784,6.411,36.322,36.322,0,0,1,1.19,6.542Z" transform="translate(14.938 16.959)" fill="#fafafa"/>
      <path id="Path_13760" data-name="Path 13760" d="M275.816,204.535c-.178,0-.559-2.379-1.368-5.376s-1.7-5.257-1.534-5.329A15.677,15.677,0,0,1,275.054,199,15.215,15.215,0,0,1,275.816,204.535Z" transform="translate(16.263 16.512)" fill="#fafafa"/>
      <path id="Path_13761" data-name="Path 13761" d="M280.438,199.968a50.042,50.042,0,0,0-1.189-5.281,50.561,50.561,0,0,0-2.379-4.877A12.489,12.489,0,0,1,280.438,199.968Z" transform="translate(17.016 15.75)" fill="#fafafa"/>
      <path id="Path_13762" data-name="Path 13762" d="M287.876,206.08a1.914,1.914,0,0,1-.25.464c-.19.285-.452.726-.856,1.249a31.473,31.473,0,0,1-3.628,4.175,36.457,36.457,0,0,1-33.828,9.6,33.533,33.533,0,0,1-5.281-1.641c-.607-.238-1.059-.476-1.368-.619s-.476-.238-.464-.262a14.394,14.394,0,0,1,1.915.654,40.992,40.992,0,0,0,5.293,1.439,37.373,37.373,0,0,0,33.436-9.516,39.692,39.692,0,0,0,3.735-4.02,15.674,15.674,0,0,1,1.3-1.523Z" transform="translate(10.447 18.833)" fill="#fafafa"/>
      <path id="Path_13763" data-name="Path 13763" d="M233.509,183.755c-.071,0,.274-.726,1.368-.785a2.105,2.105,0,0,1,1.677.7,2.129,2.129,0,0,1-1.76,3.378,2.105,2.105,0,0,1-1.534-.975c-.571-.928-.19-1.63-.143-1.57a2.233,2.233,0,0,0,.5,1.32,1.737,1.737,0,0,0,1.189.654,1.606,1.606,0,0,0,1.285-2.45,1.76,1.76,0,0,0-1.189-.619C234,183.339,233.581,183.839,233.509,183.755Z" transform="translate(8.695 14.454)" fill="#fafafa"/>
      <path id="Path_13764" data-name="Path 13764" d="M246.982,185.7c0,.1-.678.2-1.082,1.082a1.832,1.832,0,0,0,0,1.523,1.677,1.677,0,0,0,2.962-.274,1.891,1.891,0,0,0-.321-1.5c-.571-.785-1.3-.749-1.273-.856s.155-.107.464,0a1.88,1.88,0,0,1,1.189.642,2.177,2.177,0,0,1,.535,1.9,2.2,2.2,0,0,1-4.02.393,2.224,2.224,0,0,1,.155-1.974,1.951,1.951,0,0,1,1-.856C246.8,185.625,246.982,185.661,246.982,185.7Z" transform="translate(11.03 14.951)" fill="#fafafa"/>
      <path id="Path_13765" data-name="Path 13765" d="M262.5,186.605c-.059-.059.69-.321,1.475.4a1.974,1.974,0,0,1,.63,1.653,2.01,2.01,0,0,1-3.568.821,1.986,1.986,0,0,1-.155-1.772c.393-.987,1.189-1.07,1.189-1a2.17,2.17,0,0,0-.737,1.189,1.629,1.629,0,0,0,.2,1.308,1.487,1.487,0,0,0,2.545-.583,1.618,1.618,0,0,0-.392-1.273C263.118,186.653,262.488,186.712,262.5,186.605Z" transform="translate(13.961 15.125)" fill="#fafafa"/>
      <path id="Path_13766" data-name="Path 13766" d="M274.154,179.253c0-.059.785,0,1.5.916a2.379,2.379,0,0,1-1.308,3.747,2.248,2.248,0,0,1-2.319-.868,1.868,1.868,0,0,1-.1-2.022,1.832,1.832,0,0,1,1.047-.856.762.762,0,0,1,.488,0,1.9,1.9,0,0,0-1.189,1.047,1.4,1.4,0,0,0,.167,1.475,1.713,1.713,0,0,0,1.7.619,1.891,1.891,0,0,0,1.308-1.332,2.034,2.034,0,0,0-.214-1.582C274.785,179.562,274.107,179.348,274.154,179.253Z" transform="translate(16.033 13.747)" fill="#fafafa"/>
      <path id="Path_13767" data-name="Path 13767" d="M217.994,223.029a1.385,1.385,0,0,1,1.439,0,1.925,1.925,0,0,1-1.951,3.319,2.034,2.034,0,0,1-.88-1.4c-.107-1,.464-1.427.488-1.356a2.053,2.053,0,0,0,0,1.273,1.7,1.7,0,0,0,.749,1,1.475,1.475,0,0,0,2.058-1.392,1.606,1.606,0,0,0-.642-1.07C218.565,223.029,218.006,223.16,217.994,223.029Z" transform="translate(5.595 22.009)" fill="#fafafa"/>
      <path id="Path_13768" data-name="Path 13768" d="M227.546,223.766c0-.059.69-.333,1.5.369a2.034,2.034,0,0,1,.69,1.63,2,2,0,1,1-3.925-.642,1.534,1.534,0,0,1,1.023-1.189,1.768,1.768,0,0,0-.583,1.189,1.641,1.641,0,0,0,.357,1.285,1.534,1.534,0,0,0,2.534-.773,1.689,1.689,0,0,0-.428-1.273C228.165,223.8,227.546,223.861,227.546,223.766Z" transform="translate(7.331 22.165)" fill="#fafafa"/>
      <path id="Path_13769" data-name="Path 13769" d="M247.147,226.509s0-.178.262-.345A1.439,1.439,0,0,1,248.6,226a1.523,1.523,0,0,1,1.189,1.38,1.915,1.915,0,0,1-1.189,1.867,2.129,2.129,0,0,1-2.141-.381,2.153,2.153,0,0,1-.737-1.594c0-1.023.488-1.487.523-1.439a8.1,8.1,0,0,0-.1,1.4,1.784,1.784,0,0,0,.678,1.189,1.594,1.594,0,0,0,1.546.262,1.416,1.416,0,0,0,.8-1.273,1.07,1.07,0,0,0-.714-.987A1.76,1.76,0,0,0,247.147,226.509Z" transform="translate(11.114 22.574)" fill="#fafafa"/>
      <path id="Path_13770" data-name="Path 13770" d="M258.669,225.24a.657.657,0,0,1,.25-.44,1.392,1.392,0,0,1,1.368-.226,1.641,1.641,0,0,1,1.011,1.8,2.26,2.26,0,0,1-1.677,1.867,2.843,2.843,0,0,1-2.474-.381,1.736,1.736,0,0,1-.678-.952,1.189,1.189,0,0,1,.155-1.035,1.32,1.32,0,0,1,1.249-.63c.345.083.44.285.416.3a1.743,1.743,0,0,0-.44-.059,1.094,1.094,0,0,0-.845.619,1,1,0,0,0,.476,1.3,2.379,2.379,0,0,0,1.963.25,1.737,1.737,0,0,0,1.3-1.344,1.19,1.19,0,0,0-.607-1.32,1.261,1.261,0,0,0-1.071,0C258.812,225.1,258.717,225.264,258.669,225.24Z" transform="translate(13.14 22.32)" fill="#fafafa"/>
      <path id="Path_13771" data-name="Path 13771" d="M267.362,223.733a.571.571,0,0,1,.262-.4,1.38,1.38,0,0,1,1.32-.131,1.642,1.642,0,0,1,.773.559,1.511,1.511,0,0,1,.285,1.106,2.379,2.379,0,0,1-1.5,1.891,2.51,2.51,0,0,1-2.379-.262,1.63,1.63,0,0,1-.63-.94,1.451,1.451,0,0,1,1.261-1.713c.333,0,.464.167.44.19a2.072,2.072,0,0,1-.416,0,1.19,1.19,0,0,0-.737.69.987.987,0,0,0,.416,1.261,1.986,1.986,0,0,0,1.82.155,1.927,1.927,0,0,0,1.189-1.392,1.094,1.094,0,0,0-.654-1.189,1.19,1.19,0,0,0-1.035-.071C267.516,223.638,267.409,223.769,267.362,223.733Z" transform="translate(14.856 22.055)" fill="#fafafa"/>
      <path id="Path_13772" data-name="Path 13772" d="M277.112,219.113c0,.107-.761.119-1.3,1.035a1.951,1.951,0,0,0-.19,1.641,1.618,1.618,0,0,0,1.641.94,1.641,1.641,0,0,0,1.57-1.059,1.962,1.962,0,0,0-.321-1.63c-.619-.868-1.4-.821-1.38-.928s.167-.107.511,0a2.07,2.07,0,0,1,1.189.714,2.239,2.239,0,1,1-3.414.143,2.01,2.01,0,0,1,1.189-.809C276.933,218.994,277.112,219.089,277.112,219.113Z" transform="translate(16.656 21.287)" fill="#fafafa"/>
      <path id="Path_13773" data-name="Path 13773" d="M288.773,207.08a1.933,1.933,0,0,1,1.725-.476,2.153,2.153,0,0,1,1.665,1.189,2.2,2.2,0,0,1-.345,2.486,2.022,2.022,0,0,1-2.51.19,1.558,1.558,0,0,1-.654-.987,1.618,1.618,0,0,1,.131-1,1.558,1.558,0,0,1,1.035-.9.9.9,0,0,1,.5,0,3.539,3.539,0,0,0-.416.178,1.416,1.416,0,0,0-.714.845,1.082,1.082,0,0,0,.44,1.344,1.451,1.451,0,0,0,1.749-.155,1.689,1.689,0,0,0,.274-1.808,1.8,1.8,0,0,0-1.189-1,4.377,4.377,0,0,0-1.689.1Z" transform="translate(19.244 18.928)" fill="#fafafa"/>
      <g id="Group_933" data-name="Group 933" transform="translate(245.618 224.045)" opacity="0.3">
        <path id="Path_13774" data-name="Path 13774" d="M236.349,218.494a26.038,26.038,0,0,0,2.843,5.947c.262.428.726.9,1.189.714a1.071,1.071,0,0,0,.511-.678,26.715,26.715,0,0,0,.155-19.127,36.3,36.3,0,0,0-4.758,13.084" transform="translate(-236.29 -205.35)"/>
      </g>
      <path id="Path_13775" data-name="Path 13775" d="M277.753,460.991l.071-13.084-24.562-.3L253,466.76l1.522.119c6.78.464,34.495,1.856,39.015.535C298.568,465.916,277.753,460.991,277.753,460.991Z" transform="translate(12.494 64.595)" fill="#ff725e"/>
      <g id="Group_934" data-name="Group 934" transform="translate(265.482 524.134)" opacity="0.4">
        <path id="Path_13776" data-name="Path 13776" d="M261.863,464.777a8.469,8.469,0,0,0-3.069-5.269,8.326,8.326,0,0,0-5.721-1.855l-.083,6.863Z" transform="translate(-252.99 -457.639)"/>
      </g>
      <g id="Group_935" data-name="Group 935" transform="translate(265.446 528.37)" opacity="0.4">
        <path id="Path_13777" data-name="Path 13777" d="M287.93,461.2s7.291,2.2,6.364,3.39-28.975.844-41.334-.4v-.547l32.71.7S286.491,461.248,287.93,461.2Z" transform="translate(-252.96 -461.2)"/>
      </g>
      <path id="Path_13778" data-name="Path 13778" d="M252.68,463.24h.416l1.189.083,4.461.25c3.771.19,8.98.369,14.738.452s10.967,0,14.749,0l4.461-.131,1.189-.06a1.958,1.958,0,0,0,.428,0,1.763,1.763,0,0,0-.428,0h-20.4c-5.757,0-10.955-.226-14.726-.357l-4.472-.155H253.1Z" transform="translate(12.433 67.556)" fill="#263238"/>
      <path id="Path_13779" data-name="Path 13779" d="M280.493,464.768a9.113,9.113,0,0,1,.856-2.117,10.337,10.337,0,0,1,1.546-1.7,3.378,3.378,0,0,0-1.8,1.534A3.3,3.3,0,0,0,280.493,464.768Z" transform="translate(17.699 67.122)" fill="#263238"/>
      <path id="Path_13780" data-name="Path 13780" d="M274.43,461.325a3.114,3.114,0,0,0,.8-.928c.369-.559.607-1.059.535-1.106s-.428.381-.785.94a2.76,2.76,0,0,0-.547,1.094Z" transform="translate(16.554 66.807)" fill="#263238"/>
      <path id="Path_13781" data-name="Path 13781" d="M272.771,460.3c.059.071.452-.19.88-.559s.726-.726.678-.8-.452.19-.88.571S272.723,460.2,272.771,460.3Z" transform="translate(16.239 66.74)" fill="#263238"/>
      <path id="Path_13782" data-name="Path 13782" d="M271.74,458.143a2.819,2.819,0,0,0,1.285.178,2.759,2.759,0,0,0,1.285-.119,3.032,3.032,0,0,0-1.285-.178A2.962,2.962,0,0,0,271.74,458.143Z" transform="translate(16.044 66.563)" fill="#263238"/>
      <path id="Path_13783" data-name="Path 13783" d="M271.4,456.74a2.379,2.379,0,0,0,1.415.44A2.63,2.63,0,0,0,274.3,457a7.953,7.953,0,0,0-1.451-.119,7.611,7.611,0,0,0-1.451-.143Z" transform="translate(15.98 66.325)" fill="#263238"/>
      <path id="Path_13784" data-name="Path 13784" d="M275.16,459.546a5.2,5.2,0,0,0,1.582,0,9.946,9.946,0,0,0,1.677-.357,4.5,4.5,0,0,0,.963-.381.88.88,0,0,0,.4-.488.607.607,0,0,0-.238-.63,2.867,2.867,0,0,0-3.568.8,2.794,2.794,0,0,0-.535,1.047,1.19,1.19,0,0,0,0,.428,4.756,4.756,0,0,1,.737-1.332,2.854,2.854,0,0,1,1.356-.868,2.462,2.462,0,0,1,1.879.155c.25.19.155.488-.131.642a4.543,4.543,0,0,1-.892.369,10.8,10.8,0,0,1-1.63.4C275.755,459.5,275.16,459.5,275.16,459.546Z" transform="translate(16.692 66.445)" fill="#263238"/>
      <path id="Path_13785" data-name="Path 13785" d="M275.823,459.764a1.57,1.57,0,0,0,.2-1.094,2.772,2.772,0,0,0-.416-1.19,1.63,1.63,0,0,0-1.308-.821.642.642,0,0,0-.5.726,1.891,1.891,0,0,0,.262.714,4.651,4.651,0,0,0,.737.964c.488.488.868.678.892.642s-.309-.285-.737-.785a5.006,5.006,0,0,1-.654-.963c-.214-.333-.345-.928,0-1s.8.369,1.035.678a2.783,2.783,0,0,1,.428,1.035,4.759,4.759,0,0,1,.059,1.094Z" transform="translate(16.433 66.31)" fill="#263238"/>
      <path id="Path_13786" data-name="Path 13786" d="M253.17,457.607c0,.059.7,0,1.808.083a7.885,7.885,0,0,1,3.937,1.689,7.993,7.993,0,0,1,2.438,3.568c.357,1.059.381,1.772.44,1.76s0-.178,0-.488a6.932,6.932,0,0,0-.25-1.332,7.506,7.506,0,0,0-6.554-5.353,6.916,6.916,0,0,0-1.344,0A1.879,1.879,0,0,0,253.17,457.607Z" transform="translate(12.526 66.469)" fill="#263238"/>
      <path id="Path_13787" data-name="Path 13787" d="M255.475,449a42.825,42.825,0,0,0-.274,5.031,43.794,43.794,0,0,0,0,5.055A82.41,82.41,0,0,0,255.463,449Z" transform="translate(12.897 64.858)" fill="#263238"/>
      <path id="Path_13788" data-name="Path 13788" d="M263.07,461.664a13.444,13.444,0,0,0,3.568.4,14.347,14.347,0,0,0,3.568-.238c0-.1-1.618,0-3.568-.06S263.082,461.581,263.07,461.664Z" transform="translate(14.402 67.253)" fill="#263238"/>
      <path id="Path_13789" data-name="Path 13789" d="M259,461.6a3.983,3.983,0,0,0,.285.714c.167.369.238.7.333.7s.131-.393-.059-.821S259.083,461.553,259,461.6Z" transform="translate(13.631 67.245)" fill="#263238"/>
      <path id="Path_13790" data-name="Path 13790" d="M257.53,459.692a1.227,1.227,0,0,0,.345.571c.25.262.5.428.559.369s-.1-.309-.345-.571S257.589,459.632,257.53,459.692Z" transform="translate(13.352 66.882)" fill="#263238"/>
      <path id="Path_13791" data-name="Path 13791" d="M255.36,458.81c0,.083.333.083.7.214s.607.333.678.274-.143-.393-.583-.547S255.336,458.739,255.36,458.81Z" transform="translate(12.941 66.693)" fill="#263238"/>
      <path id="Path_13792" data-name="Path 13792" d="M253.81,458.369c0,.083.107.214.309.285s.393.1.416,0-.107-.2-.309-.285S253.834,458.3,253.81,458.369Z" transform="translate(12.647 66.623)" fill="#263238"/>
      <path id="Path_13793" data-name="Path 13793" d="M220.976,461.753l3.342-12.68-23.706-6.423-5.1,18.5,1.451.5c6.447,2.129,32.913,10.408,37.647,10.265C239.889,471.756,220.976,461.753,220.976,461.753Z" transform="translate(1.601 63.655)" fill="#ff725e"/>
      <g id="Group_936" data-name="Group 936" transform="translate(197.23 517.843)" opacity="0.4">
        <path id="Path_13794" data-name="Path 13794" d="M204.138,461.449a8.529,8.529,0,0,0-1.653-5.876,8.326,8.326,0,0,0-5.067-3.223l-1.808,6.625Z" transform="translate(-195.61 -452.35)"/>
      </g>
      <g id="Group_937" data-name="Group 937" transform="translate(197.111 524.29)" opacity="0.4">
        <path id="Path_13795" data-name="Path 13795" d="M230.123,464.122s6.506,3.949,5.305,4.877-28.262-6.423-39.919-10.705l.19-.523,31.5,8.85S228.72,463.813,230.123,464.122Z" transform="translate(-195.51 -457.77)"/>
      </g>
      <path id="Path_13796" data-name="Path 13796" d="M195.36,457.67l.393.155,1.189.381,4.258,1.356c3.568,1.13,8.6,2.6,14.155,4.116s10.622,2.783,14.274,3.64l4.365.987,1.189.25a1.864,1.864,0,0,0,.416.071l-.4-.131-1.189-.3-4.33-1.082c-3.664-.916-8.707-2.212-14.274-3.723s-10.562-2.962-14.178-4.032l-4.282-1.261-1.189-.333Z" transform="translate(1.573 66.501)" fill="#263238"/>
      <path id="Path_13797" data-name="Path 13797" d="M222.06,465.986a10.145,10.145,0,0,1,1.356-1.8A10.81,10.81,0,0,1,225.343,463a3.342,3.342,0,0,0-2.129,1.035,3.223,3.223,0,0,0-1.154,1.951Z" transform="translate(6.632 67.511)" fill="#263238"/>
      <path id="Path_13798" data-name="Path 13798" d="M217,461.191a3.174,3.174,0,0,0,.987-.714c.488-.452.856-.856.8-.916s-.5.25-1,.7S216.93,461.131,217,461.191Z" transform="translate(5.671 66.858)" fill="#263238"/>
      <path id="Path_13799" data-name="Path 13799" d="M215.611,459.791c0,.071.476-.083.987-.333s.88-.523.845-.595-.476.071-.987.333S215.563,459.719,215.611,459.791Z" transform="translate(5.409 66.724)" fill="#263238"/>
      <path id="Path_13800" data-name="Path 13800" d="M215.1,457.481a3,3,0,0,0,1.189.488,2.925,2.925,0,0,0,1.273.214,3.116,3.116,0,0,0-1.189-.5,2.818,2.818,0,0,0-1.273-.2Z" transform="translate(5.313 66.464)" fill="#263238"/>
      <path id="Path_13801" data-name="Path 13801" d="M215.11,456.06a2.45,2.45,0,0,0,1.273.773,2.534,2.534,0,0,0,1.475.2,7.43,7.43,0,0,0-1.38-.488A7.589,7.589,0,0,0,215.11,456.06Z" transform="translate(5.315 66.196)" fill="#263238"/>
      <path id="Path_13802" data-name="Path 13802" d="M218.14,459.593a4.355,4.355,0,0,0,1.523.4,8.554,8.554,0,0,0,1.713.083,4.049,4.049,0,0,0,1.035-.131.893.893,0,0,0,.512-.369.619.619,0,0,0-.071-.666,2.891,2.891,0,0,0-3.675-.119,2.6,2.6,0,0,0-.773.88,1.01,1.01,0,0,0-.155.392,4.614,4.614,0,0,1,1.047-1.106,2.867,2.867,0,0,1,1.534-.488,2.379,2.379,0,0,1,1.784.607c.19.25,0,.511-.3.595a4.177,4.177,0,0,1-.952.131,11.076,11.076,0,0,1-1.677,0C218.735,459.712,218.152,459.545,218.14,459.593Z" transform="translate(5.889 66.6)" fill="#263238"/>
      <path id="Path_13803" data-name="Path 13803" d="M218.67,460.059a1.618,1.618,0,0,0,.464-1.011,2.5,2.5,0,0,0-.119-1.189,1.535,1.535,0,0,0-1.047-1.118.619.619,0,0,0-.666.571,1.7,1.7,0,0,0,.071.749,4.934,4.934,0,0,0,.476,1.118,2.284,2.284,0,0,0,.7.857s-.226-.357-.523-.952a5.077,5.077,0,0,1-.381-1.094c-.131-.381-.119-.987.285-.963s.678.559.833.928a2.7,2.7,0,0,1,.155,1.106A5.473,5.473,0,0,1,218.67,460.059Z" transform="translate(5.728 66.325)" fill="#263238"/>
      <path id="Path_13804" data-name="Path 13804" d="M197.25,452.321c0,.059.69.131,1.725.547a7.637,7.637,0,0,1,4.865,6.637,10.41,10.41,0,0,1,0,1.808,1.1,1.1,0,0,0,.131-.476,6.622,6.622,0,0,0,.1-1.344,7.482,7.482,0,0,0-5-6.828,6.244,6.244,0,0,0-1.32-.321,1.9,1.9,0,0,0-.5-.024Z" transform="translate(1.931 65.486)" fill="#263238"/>
      <path id="Path_13805" data-name="Path 13805" d="M201.992,444.59a45.325,45.325,0,0,0-1.523,4.817,42.544,42.544,0,0,0-1.189,4.889,44.5,44.5,0,0,0,1.523-4.758,42.372,42.372,0,0,0,1.189-4.948Z" transform="translate(2.316 64.023)" fill="#263238"/>
      <path id="Path_13806" data-name="Path 13806" d="M205.82,458.741a13.5,13.5,0,0,0,3.366,1.285,14.193,14.193,0,0,0,3.568.666c0-.083-1.558-.416-3.461-.952S205.856,458.658,205.82,458.741Z" transform="translate(3.555 66.702)" fill="#263238"/>
      <path id="Path_13807" data-name="Path 13807" d="M201.925,457.67c-.083,0,0,.369.1.761s.059.737.143.761.226-.345.155-.809S202.021,457.635,201.925,457.67Z" transform="translate(2.81 66.501)" fill="#263238"/>
      <path id="Path_13808" data-name="Path 13808" d="M200.944,455.441c-.071,0,0,.333.19.642s.381.547.452.5,0-.321-.19-.642S201.016,455.4,200.944,455.441Z" transform="translate(2.626 66.078)" fill="#263238"/>
      <path id="Path_13809" data-name="Path 13809" d="M199.06,454c0,.083.309.167.63.392s.511.464.595.428,0-.416-.428-.678A1.024,1.024,0,0,0,199.06,454Z" transform="translate(2.274 65.801)" fill="#263238"/>
      <path id="Path_13810" data-name="Path 13810" d="M197.67,453.234a.536.536,0,0,0,.226.357c.167.131.357.178.416.119s-.059-.226-.238-.357S197.718,453.174,197.67,453.234Z" transform="translate(2.01 65.656)" fill="#263238"/>
      <path id="Path_13811" data-name="Path 13811" d="M295.364,208.665l6.7,18.02,5.055-40.692a14.381,14.381,0,0,0-1.487-7.553,14.715,14.715,0,0,0-1.808-2.914,15.749,15.749,0,0,0-3.128-2.938c-1.189-.654-.94-2.379.238-2.474s4.353,1.594,6.875,5.031,2.771-3.176,2.914-5.59.916-9.813,1.689-10.336c1.13-.773,2.189.321,2,2.724s-.274,9.647.987,9.694,1.8-12.216,1.8-12.216-.3-2.641,1.189-2.641c2.653,0,1.118,12.977.94,14.2-.131.856,1.249.952,1.332,0s.262-12.252,2.962-12.263c2.07,0-1.189,10.705.1,13.084s1.63-8.326,3.568-8.326c.737,0,1.285.143.19,6.28-.595,3.307-2.771,8.053-3.438,14.488l-.178,1.677c-.119,8.017-1.07,38.253-8.326,56.654a14.9,14.9,0,0,1-26.252,2.676A139.569,139.569,0,0,1,275,217.49Z" transform="translate(16.662 9.492)" fill="#b77153"/>
      <path id="Path_13812" data-name="Path 13812" d="M314.449,177.557a6.733,6.733,0,0,0-1.059.274,3.759,3.759,0,0,0-2.034,1.677l-.25.452-.143-.5a6.292,6.292,0,0,0-.987-1.951,7.03,7.03,0,0,0-3.378-2.5c-1.047-.369-1.749-.345-1.749-.44a3.449,3.449,0,0,1,1.844.131,6.756,6.756,0,0,1,3.664,2.534,6.209,6.209,0,0,1,1.023,2.117h-.4a3.771,3.771,0,0,1,2.379-1.725A1.832,1.832,0,0,1,314.449,177.557Z" transform="translate(22.318 12.85)" fill="#995037"/>
      <path id="Path_13813" data-name="Path 13813" d="M274.751,166.267a9.23,9.23,0,0,0,10.884-13.952c5.257-1.332,8.54-7.41,7.482-12.727s-5.828-9.516-11.133-10.634a11.764,11.764,0,0,0-6.161.155,7.494,7.494,0,0,0-4.591,3.937" transform="translate(15.948 4.156)" fill="#263238"/>
      <path id="Path_13814" data-name="Path 13814" d="M274.582,150.3c0,.059-.69.178-1.8.761a8,8,0,0,0-3.568,3.794,7.744,7.744,0,0,0,.595,7.41,7.137,7.137,0,0,0,1.463,1.665,7.374,7.374,0,0,0,1.963,1.189,7.815,7.815,0,0,0,4.758.44,7.684,7.684,0,0,0,4.234-2.474,7.97,7.97,0,0,0,1.844-4.1,7.755,7.755,0,0,0-2.688-6.923,7.981,7.981,0,0,0-4.817-1.891c-1.189,0-1.939.155-1.951.1a2.537,2.537,0,0,1,.488-.131,6.21,6.21,0,0,1,1.463-.155,8.065,8.065,0,0,1,7.946,9.064,7.516,7.516,0,0,1-.618,2.272,7.625,7.625,0,0,1-1.3,2.082,8.135,8.135,0,0,1-13.084-.928,8.041,8.041,0,0,1-.523-7.791,7.91,7.91,0,0,1,3.747-3.818,6.446,6.446,0,0,1,1.38-.5Z" transform="translate(15.379 8.204)" fill="#ff725e"/>
      <path id="Path_13815" data-name="Path 13815" d="M287.868,144.029a9.04,9.04,0,0,0,4.246-16.748A11.217,11.217,0,0,0,275.367,114.2a14.9,14.9,0,0,0-27.548,4.413,14.393,14.393,0,0,0-18.472,19.531,11.156,11.156,0,1,0,1.891,22.233,9.837,9.837,0,0,0,14.916,11.037,10.705,10.705,0,0,0,19.353-2.224" transform="translate(6.077)" fill="#263238"/>
      <path id="Path_13816" data-name="Path 13816" d="M271.5,184.3c.19-4.472.428-8.528.428-8.528s10-1.261,10.444-11.478-.595-33.721-.595-33.721L263.36,121.73l-16.2,14.512,1.653,47.745c.44,6.756,4.068,12.513,10.836,12.2h0A12.442,12.442,0,0,0,271.5,184.3Z" transform="translate(11.387 2.851)" fill="#b77153"/>
      <path id="Path_13817" data-name="Path 13817" d="M256.381,122.455a13.5,13.5,0,0,0,.19,15.606,7.827,7.827,0,0,0,6.185,3.449c2.45-.083,4.829-2.379,4.306-4.758a5.079,5.079,0,1,0,9.718.167,9.171,9.171,0,0,0,1.189,3.128,3.093,3.093,0,0,0,2.819,1.487c1.534-.2,2.379-1.856,2.783-3.366a13.869,13.869,0,0,0-3.937-12.727,16.724,16.724,0,0,0-12.751-4.472,21.315,21.315,0,0,0-12.537,5.472" transform="translate(12.682 2.697)" fill="#263238"/>
      <path id="Path_13818" data-name="Path 13818" d="M260.714,125.24a23.79,23.79,0,0,1,2.046,9.159,12.252,12.252,0,0,1-3.307,8.6,8.326,8.326,0,0,1-8.683,2.082,9.67,9.67,0,0,1-1.261,8.148,6.2,6.2,0,0,1-7.577,2c-2.26-1.189-3.235-3.973-3.568-6.53A20.887,20.887,0,0,1,261.1,125.383" transform="translate(9.692 3.516)" fill="#263238"/>
      <path id="Path_13819" data-name="Path 13819" d="M248.716,146.317a3.568,3.568,0,0,0-4.318.952,5.864,5.864,0,0,0,5.65,9.742" transform="translate(10.557 7.442)" fill="#b77153"/>
      <path id="Path_13820" data-name="Path 13820" d="M247.916,153.445a2.551,2.551,0,0,1-1.189-.107,3.033,3.033,0,0,1-2.058-1.915,2.189,2.189,0,0,1,.083-1.63,2.379,2.379,0,0,1,.868-.987c.63-.4,1.118-.381,1.118-.321s-.4.178-.916.607a2.022,2.022,0,0,0-.69,2.189,3.033,3.033,0,0,0,1.713,1.737C247.464,153.291,247.928,153.362,247.916,153.445Z" transform="translate(10.893 7.914)" fill="#995037"/>
      <path id="Path_13821" data-name="Path 13821" d="M255.781,161.737a8.682,8.682,0,0,0-.309-1.927,7.874,7.874,0,0,0-2.831-4.33,7.732,7.732,0,0,0-3.247-1.5,7.9,7.9,0,0,0-4.08.274,7.758,7.758,0,0,0-3.818,11.776A7.375,7.375,0,0,0,243.1,167.7a7.292,7.292,0,0,0,1.927,1.106,7.827,7.827,0,0,0,4.068.428,7.612,7.612,0,0,0,3.307-1.368,7.981,7.981,0,0,0,3-4.211c.345-1.189.321-1.927.381-1.915a3.267,3.267,0,0,1,0,.511,6.307,6.307,0,0,1-.214,1.451,7.922,7.922,0,0,1-2.974,4.449,8.089,8.089,0,0,1-3.438,1.487,8.175,8.175,0,1,1,.309-16.046,8.077,8.077,0,0,1,6.185,6.173,6.949,6.949,0,0,1,.143,1.463A2.45,2.45,0,0,1,255.781,161.737Z" transform="translate(9.951 8.853)" fill="#ff725e"/>
      <path id="Path_13822" data-name="Path 13822" d="M279.327,121.31a.726.726,0,0,1,.25.071,1.962,1.962,0,0,1,.642.4,2.986,2.986,0,0,1,.821,2.688,3.83,3.83,0,0,1-3.176,2.819,7.946,7.946,0,0,1-5.388-1.3l-1.9-1.094,2.082.69a2.248,2.248,0,0,1,1.415,1.606,2.926,2.926,0,0,1-.3,2.2,3.069,3.069,0,0,1-1.867,1.32,4.318,4.318,0,0,1-2.379,0,7.934,7.934,0,0,1-4-3.461l-1.332-1.939,1.689,1.641a3.664,3.664,0,0,1,.9,3.473,3.783,3.783,0,0,1-2.034,2.581,4.936,4.936,0,0,1-5.234-.63,6.28,6.28,0,0,1-1.986-2.95,5.948,5.948,0,0,1-.214-.928,1.4,1.4,0,0,1,0-.333,8.457,8.457,0,0,0,.393,1.189,6.328,6.328,0,0,0,2.022,2.771,4.627,4.627,0,0,0,4.853.511,3.45,3.45,0,0,0,1.8-2.379,3.236,3.236,0,0,0-.809-3.021l.369-.309a7.553,7.553,0,0,0,3.747,3.259,3.235,3.235,0,0,0,3.652-1.059,2.189,2.189,0,0,0-.856-3.128l.19-.416a7.624,7.624,0,0,0,5.091,1.308,3.568,3.568,0,0,0,2.986-2.5,2.89,2.89,0,0,0-.666-2.522,3.853,3.853,0,0,0-.761-.571Z" transform="translate(13.311 2.772)" fill="#455a64"/>
      <path id="Path_13823" data-name="Path 13823" d="M259.914,137.64s0,.071-.119.178a4.318,4.318,0,0,1-.428.452,5.947,5.947,0,0,1-5.769,1.285,6.2,6.2,0,0,1-3.652-3.152l.381-.059a5.947,5.947,0,1,1-10-5.222l.321.345a6.138,6.138,0,0,1-3.866,1.4,6.637,6.637,0,0,1-3.628-.987,5.436,5.436,0,0,1-2.165-2.557,6.411,6.411,0,0,1,1.047-6.578,3.818,3.818,0,0,1,1.189-.928,12.446,12.446,0,0,0-1,1.035,6.34,6.34,0,0,0-1.344,3.652,6.1,6.1,0,0,0,.488,2.676,5.2,5.2,0,0,0,2.058,2.379,6.3,6.3,0,0,0,3.414.88,5.59,5.59,0,0,0,3.568-1.308l.321.345a5.686,5.686,0,0,0-1.189,6.185,5.6,5.6,0,0,0,6.138,3.116,5.686,5.686,0,0,0,4.294-4.472l.107-.642.285.583a5.852,5.852,0,0,0,3.378,3.021,5.71,5.71,0,0,0,3.568,0,6.125,6.125,0,0,0,2.046-1.082C259.7,137.842,259.89,137.616,259.914,137.64Z" transform="translate(8.232 2.868)" fill="#455a64"/>
      <path id="Path_13824" data-name="Path 13824" d="M243.186,150.675a2.046,2.046,0,0,1-.8.476,5.376,5.376,0,0,1-6.042-1.308,5.686,5.686,0,0,1-1.392-4.758l.428.19a9.432,9.432,0,0,1-3.449,2.819,7.446,7.446,0,0,1-3.354.714,6.946,6.946,0,0,1-3.081-.845,5.436,5.436,0,0,1-2.926-4.353,5.2,5.2,0,0,1,.94-3.449,4.816,4.816,0,0,1,.69-.7,1.071,1.071,0,0,1,.285-.178,5.55,5.55,0,0,0-.821.987,5.245,5.245,0,0,0-.749,3.307,5.127,5.127,0,0,0,2.8,4,6.661,6.661,0,0,0,5.947.083,9.112,9.112,0,0,0,3.283-2.664l.595-.773-.167.963a5.269,5.269,0,0,0,1.189,4.353,5.139,5.139,0,0,0,3.235,1.689,8.273,8.273,0,0,0,3.39-.547Z" transform="translate(6.725 6.177)" fill="#455a64"/>
      <path id="Path_13825" data-name="Path 13825" d="M284.753,132.12a2.986,2.986,0,0,1,.214,1.7,6.281,6.281,0,0,1-1.677,3.771,6.185,6.185,0,0,1-3.7,1.844,3.057,3.057,0,0,1-1.7-.119c0-.083.654,0,1.641-.214a6.316,6.316,0,0,0,5.091-5.317C284.777,132.774,284.682,132.132,284.753,132.12Z" transform="translate(17.21 4.82)" fill="#455a64"/>
      <path id="Path_13826" data-name="Path 13826" d="M290.241,140.21a1.5,1.5,0,0,1,.238.7,4.1,4.1,0,0,1-.19,2.022,3.116,3.116,0,0,1-2.224,2.034,3.176,3.176,0,0,1-1.867-.155,2.581,2.581,0,0,1-1.463-1.415l.464-.155a3.1,3.1,0,0,1,.119.892,3.687,3.687,0,0,1-2.308,3.283,3.033,3.033,0,0,1-1.832.071,3.438,3.438,0,0,1-1.38-.761,3.366,3.366,0,0,1-1.118-1.927,1.427,1.427,0,0,1,0-.809,2.852,2.852,0,0,0,.155.773,3.4,3.4,0,0,0,1.189,1.7,2.843,2.843,0,0,0,2.819.523,3.224,3.224,0,0,0,1.975-2.855,3.115,3.115,0,0,0-.083-.761l.452-.155a2.486,2.486,0,0,0,2.783,1.32,2.807,2.807,0,0,0,2.01-1.737,4.211,4.211,0,0,0,.309-1.867,4.631,4.631,0,0,1-.048-.726Z" transform="translate(17.348 6.353)" fill="#455a64"/>
      <path id="Path_13827" data-name="Path 13827" d="M264.471,152.55a.715.715,0,0,1,0,.523,2.189,2.189,0,0,1-1.82,1.511c-.321,0-.511,0-.511-.119s.714-.2,1.332-.737S264.352,152.526,264.471,152.55Z" transform="translate(14.225 8.691)" fill="#263238"/>
      <path id="Path_13828" data-name="Path 13828" d="M275.472,144.035a1.475,1.475,0,0,1-1.427,1.5,1.415,1.415,0,0,1-1.534-1.344,1.5,1.5,0,0,1,1.427-1.5,1.415,1.415,0,0,1,1.534,1.344Z" transform="translate(16.19 6.822)" fill="#263238"/>
      <path id="Path_13829" data-name="Path 13829" d="M277.483,142.94c-.19.19-1.308-.642-2.914-.642s-2.771.809-2.95.607.107-.428.618-.809a4.1,4.1,0,0,1,2.379-.726,3.913,3.913,0,0,1,2.319.749C277.4,142.5,277.566,142.845,277.483,142.94Z" transform="translate(16.011 6.572)" fill="#263238"/>
      <path id="Path_13830" data-name="Path 13830" d="M262.472,144.035a1.5,1.5,0,0,1-1.439,1.5,1.415,1.415,0,0,1-1.523-1.344,1.475,1.475,0,0,1,1.427-1.5,1.415,1.415,0,0,1,1.534,1.344Z" transform="translate(13.727 6.822)" fill="#263238"/>
      <path id="Path_13831" data-name="Path 13831" d="M264.253,142.94c-.19.19-1.32-.642-2.914-.642s-2.771.809-2.95.607.1-.428.618-.809a4.1,4.1,0,0,1,2.379-.726,3.949,3.949,0,0,1,2.319.749C264.169,142.5,264.336,142.845,264.253,142.94Z" transform="translate(13.504 6.572)" fill="#263238"/>
      <path id="Path_13832" data-name="Path 13832" d="M268.026,154.92a10.955,10.955,0,0,1,2.6-.464c.4,0,.785-.119.856-.4a2.058,2.058,0,0,0-.274-1.189l-1.189-3.1a54.422,54.422,0,0,1-2.724-8.148,53.692,53.692,0,0,1,3.366,7.91l1.189,3.128a2.379,2.379,0,0,1,.2,1.606,1.035,1.035,0,0,1-.666.595,2.581,2.581,0,0,1-.69.1A10.29,10.29,0,0,1,268.026,154.92Z" transform="translate(15.203 6.618)" fill="#263238"/>
      <path id="Path_13833" data-name="Path 13833" d="M268.121,157.971a1.4,1.4,0,0,0-1.558-2.105,1.189,1.189,0,0,0-.845-1.273,1.76,1.76,0,0,0-1.582.274,2.462,2.462,0,0,0-.809,2.867,2.712,2.712,0,0,0,2.569,1.594,2.974,2.974,0,0,0,2.5-1.749" transform="translate(14.418 9.063)" fill="#995037"/>
      <path id="Path_13834" data-name="Path 13834" d="M264.045,153.73c.262,0,.262,1.725,1.749,2.962s3.342,1.047,3.354,1.285-.416.333-1.189.357a4.318,4.318,0,0,1-2.8-.975,3.759,3.759,0,0,1-1.356-2.474C263.676,154.158,263.866,153.73,264.045,153.73Z" transform="translate(14.533 8.914)" fill="#263238"/>
      <path id="Path_13835" data-name="Path 13835" d="M265.643,140.522c-.155.44-1.749.226-3.628.452s-3.4.737-3.652.345c-.107-.178.155-.595.773-1.011a6.34,6.34,0,0,1,5.543-.619C265.37,139.975,265.715,140.32,265.643,140.522Z" transform="translate(13.506 6.184)" fill="#263238"/>
      <path id="Path_13836" data-name="Path 13836" d="M277.218,140.348c-.285.357-1.38,0-2.712,0s-2.45.25-2.7-.131c-.119-.19.059-.547.547-.892a3.687,3.687,0,0,1,2.2-.595,3.747,3.747,0,0,1,2.165.726C277.194,139.789,277.349,140.17,277.218,140.348Z" transform="translate(16.05 6.072)" fill="#263238"/>
      <path id="Path_13837" data-name="Path 13837" d="M270.111,167.852a24.4,24.4,0,0,1-13.251-4.342s3.116,7.446,13.084,6.851Z" transform="translate(13.225 10.767)" fill="#995037"/>
      <path id="Path_13838" data-name="Path 13838" d="M211.89,490.107a3.228,3.228,0,0,1,.1-.642l.321-1.891c.309-1.689.749-4.128,1.32-7.268,1.189-6.3,2.879-15.463,5.055-26.656,4.342-22.5,10.6-53.526,17.985-87.711s14.535-65.028,19.888-87.307c2.664-11.145,4.865-20.15,6.423-26.359l1.8-7.137c.214-.8.369-1.415.488-1.856a6.189,6.189,0,0,1,.19-.63,2.406,2.406,0,0,1-.131.642c-.131.416-.238,1.071-.416,1.879l-1.689,7.137c-1.487,6.268-3.568,15.285-6.245,26.418-5.234,22.3-12.3,53.157-19.7,87.331s-13.715,65.183-18.163,87.664c-2.212,11.217-4,20.3-5.246,26.62l-1.427,7.244-.393,1.879A5.834,5.834,0,0,1,211.89,490.107Z" transform="translate(4.705 25.762)" fill="#fafafa"/>
      <path id="Path_13839" data-name="Path 13839" d="M256.968,240.78c.178,0-11.145,55.56-25.264,124.014S206.035,488.724,205.82,488.689s11.145-55.548,25.276-124.026S256.8,240.744,256.968,240.78Z" transform="translate(3.554 25.407)" fill="#fafafa"/>
      <path id="Path_13840" data-name="Path 13840" d="M253.638,240.29l-.285.607c-.2.4-.488.987-.868,1.725l-1.427,2.807-.928,1.8-.94,2.082c-.678,1.475-1.415,3.116-2.236,4.9s-1.522,3.806-2.379,5.947c-1.653,4.294-3.378,9.242-5.031,14.773a309.267,309.267,0,0,0-8.731,39.657c-2.438,15.106-4.365,31.83-6.709,49.339-4.758,35.042-10.812,66.479-15.844,89.091-2.51,11.3-4.758,20.411-6.292,26.692l-1.856,7.208c-.226.809-.393,1.427-.511,1.867a5.937,5.937,0,0,1-.19.642,2.521,2.521,0,0,1,.131-.654l.44-1.891c.4-1.677,1-4.116,1.749-7.244,1.5-6.292,3.64-15.463,6.09-26.727,4.924-22.6,10.931-54.061,15.653-89.079,2.379-17.5,4.294-34.221,6.756-49.339A305.338,305.338,0,0,1,239.1,274.8c1.689-5.543,3.449-10.491,5.127-14.773q1.32-3.2,2.45-5.947l2.272-4.889c.345-.726.678-1.415.975-2.07s.654-1.189.952-1.784l1.487-2.783.928-1.7a6.469,6.469,0,0,1,.345-.559Z" transform="translate(2.34 25.315)" fill="#fafafa"/>
      <path id="Path_13841" data-name="Path 13841" d="M268.89,240.39v10.039q0,4.817-.178,11.788c-.119,4.651-.178,9.813-.381,15.594-.309,11.562-.88,25.324-1.606,40.6s-1.7,32.056-2.807,49.66c-4.686,70.179-8.326,124.121-8.528,127.523v-.666a18.285,18.285,0,0,1,.083-1.927c.083-1.725.2-4.234.369-7.434.333-6.459.88-15.808,1.582-27.358,1.5-23.1,3.568-54.977,5.864-90.185,1.106-17.6,2.07-34.388,2.855-49.648s1.368-29.023,1.737-40.585c.226-5.781.345-11,.476-15.594s.226-8.54.285-11.776.131-5.721.167-7.446v-1.939A1.7,1.7,0,0,1,268.89,240.39Z" transform="translate(12.947 25.334)" fill="#fafafa"/>
      <path id="Path_13842" data-name="Path 13842" d="M265.64,495.037v-.654c0-.44,0-1.094.071-1.915.083-1.713.19-4.187.345-7.375.285-6.423.714-15.677,1.189-27.108,1-22.9,2.2-54.525,3.4-89.472s2.189-66.61,2.938-89.507c.369-11.431.666-20.7.88-27.132.107-3.176.19-5.662.25-7.363,0-.833.071-1.463.083-1.927a3.45,3.45,0,0,1,.059-.654v2.581c0,1.713-.083,4.187-.143,7.375-.167,6.435-.393,15.689-.678,27.132-.618,22.909-1.546,54.561-2.76,89.519s-2.474,66.61-3.568,89.472c-.559,11.443-1.035,20.709-1.427,27.108-.2,3.176-.357,5.65-.464,7.363,0,.821-.1,1.451-.131,1.915S265.64,495.037,265.64,495.037Z" transform="translate(14.889 25.625)" fill="#fafafa"/>
      <path id="Path_13843" data-name="Path 13843" d="M272.82,493.451V492.8c0-.428,0-1.082.071-1.9.071-1.7.178-4.163.309-7.327.3-6.376.737-15.57,1.273-26.918,1.118-22.743,2.688-54.145,4.579-88.818.952-17.342,1.856-33.876,2.926-48.875.321-7.506.2-14.654.107-21.339s-.285-12.918-.464-18.6c-.369-11.383-.749-20.578-1.011-26.941-.119-3.152-.226-5.614-.3-7.315a16.687,16.687,0,0,0-.059-1.9,1.775,1.775,0,0,1,0-.654,4.4,4.4,0,0,0,.071.642c.071.428.071,1.094.131,1.9.1,1.7.238,4.163.416,7.315.333,6.364.773,15.558,1.189,26.93.2,5.686.4,11.895.535,18.615s.262,13.845,0,21.41c-1.047,15.023-1.927,31.545-2.879,48.887-1.856,34.661-3.568,66.051-4.758,88.806-.619,11.336-1.118,20.53-1.475,26.906-.178,3.164-.333,5.626-.428,7.327,0,.809-.1,1.439-.131,1.891A2.234,2.234,0,0,1,272.82,493.451Z" transform="translate(16.249 25.676)" fill="#fafafa"/>
      <path id="Path_13844" data-name="Path 13844" d="M214.2,298.526c-.262.9-.547,1.963-.833,3.235a9.647,9.647,0,0,0-.143,3.307,14.82,14.82,0,0,0,.928,4.02,1.28,1.28,0,0,1-1.57,1.856c-1.035-.523-2.676-3.568-2.819-7.72s-4.032,1.047-5.483,2.9-6.209,7.351-7.137,7.351c-1.356,0-1.606-1.439-.119-3.247s5.59-7.565,4.579-8.326-8.255,8.79-8.255,8.79-1.189,2.284-2.379,1.5c-2.165-1.427,6.3-10.967,7.137-11.895.571-.618-.5-1.439-1.082-.737s-7.03,9.647-9.242,8.207c-1.7-1.094,6.887-7.91,7.2-10.5s-5.947,5.828-7.565,4.758c-.595-.416-.975-.809,3.342-5.115,2.082-2.093,10.134-8.445,10.134-8.445l16.319-57.023h21.41Z" transform="translate(0 23.638)" fill="#b77153"/>
      <path id="Path_13845" data-name="Path 13845" d="M206.38,246.328c3.913-13.025,10.765-35.958,14.071-48.28C225.209,180.206,253.4,173.5,253.4,173.5l25.24-1.189a13.548,13.548,0,0,1,3.5-.2c11.55.571,19.888,11.383,18.116,22.814l-3.771,24.4.821,47.067L241.529,261.2s4.758-15.975,4.972-20.9-4.306-15.32-4.306-15.32l-7.256,23.908Z" transform="translate(3.661 12.389)" fill="#ff725e"/>
      <path id="Path_13846" data-name="Path 13846" d="M283.6,180.43l16.641,37.195L281.95,236.7Z" transform="translate(17.979 13.973)" fill="#ff725e"/>
      <path id="Path_13847" data-name="Path 13847" d="M279.78,184.86a14.059,14.059,0,0,1,.809,1.975l.393,1.07.381,1.308a32.923,32.923,0,0,1,.821,3.212c.131.607.262,1.189.4,1.891s.2,1.356.321,2.07c.25,1.427.357,2.974.535,4.591.25,3.235.357,6.816.309,10.562-.107,7.494-.547,14.274-.654,19.15-.059,2.45-.1,4.425-.083,5.8a15.763,15.763,0,0,1-.059,2.129,12.982,12.982,0,0,1-.178-2.129c-.083-1.368-.119-3.354-.107-5.816,0-4.9.357-11.681.464-19.15,0-3.735,0-7.28-.262-10.5-.167-1.606-.25-3.152-.476-4.568-.1-.7-.19-1.392-.285-2.058s-.238-1.273-.357-1.879c-.2-1.189-.488-2.272-.726-3.212l-.333-1.32-.345-1.082a14.769,14.769,0,0,1-.571-2.046Z" transform="translate(17.568 14.812)" fill="#263238"/>
      <path id="Path_13848" data-name="Path 13848" d="M241.955,200.49a91.371,91.371,0,0,1-2.7,10.265,90.4,90.4,0,0,1-3.295,10.087,91.383,91.383,0,0,1,2.664-10.229,93.44,93.44,0,0,1,3.331-10.122Z" transform="translate(9.265 17.774)" fill="#263238"/>
      <path id="Path_13849" data-name="Path 13849" d="M291.292,175.46a10.2,10.2,0,0,1,.464,3.426,15.962,15.962,0,0,1-3,8.873,20.221,20.221,0,0,1-4.544,4.758,22.838,22.838,0,0,1-6.732,3.331,41.429,41.429,0,0,1-17.057,1.035c-6.054-.737-11.692-2.01-16.89-2.641a44.867,44.867,0,0,0-13.833.083,26.169,26.169,0,0,0-8.754,3.128c-1.9,1.118-2.819,1.963-2.867,1.9a5.171,5.171,0,0,1,.666-.607,7.234,7.234,0,0,1,.845-.666,13.458,13.458,0,0,1,1.189-.845,25.68,25.68,0,0,1,8.8-3.342,44.32,44.32,0,0,1,13.976-.226c5.246.607,10.9,1.867,16.9,2.593a41.274,41.274,0,0,0,16.819-.963,22.35,22.35,0,0,0,6.59-3.2,19.53,19.53,0,0,0,4.484-4.556,16.058,16.058,0,0,0,3.116-8.636,21.984,21.984,0,0,0-.178-3.449Z" transform="translate(5.878 13.031)" fill="#fafafa"/>
      <path id="Path_13850" data-name="Path 13850" d="M216.511,208.43c-.155-.107,1.725-2.688,3.568-6.114s3.093-6.376,3.271-6.316a23.2,23.2,0,0,1-2.724,6.613,22.957,22.957,0,0,1-4.116,5.816Z" transform="translate(5.579 16.923)" fill="#fafafa"/>
      <path id="Path_13851" data-name="Path 13851" d="M224.28,210.137A46.383,46.383,0,0,1,226.956,203a48.862,48.862,0,0,1,3.259-6.97,48.206,48.206,0,0,1-2.7,7.1A48.307,48.307,0,0,1,224.28,210.137Z" transform="translate(7.052 16.929)" fill="#fafafa"/>
      <path id="Path_13852" data-name="Path 13852" d="M232.54,209.344a37.911,37.911,0,0,1,1.975-6.459,38.37,38.37,0,0,1,2.557-6.245A35.481,35.481,0,0,1,235.1,203.1,36.006,36.006,0,0,1,232.54,209.344Z" transform="translate(8.617 17.044)" fill="#fafafa"/>
      <path id="Path_13853" data-name="Path 13853" d="M249.328,211.258v.357h-.178c0-.9.167-3.747.511-7.137a43.783,43.783,0,0,1,1.071-7.4,46.318,46.318,0,0,1-.452,7.47c-.345,3.354-.726,6.185-.952,7.054h-.178C249.245,211.342,249.293,211.258,249.328,211.258Z" transform="translate(11.764 17.128)" fill="#fafafa"/>
      <path id="Path_13854" data-name="Path 13854" d="M258.445,210.487a.977.977,0,0,1-.119.393l-.155.321v-.381c-.071-.916,0-3.568-.19-6.685-.2-3.9-.654-7.042-.464-7.065a25.218,25.218,0,0,1,1.082,7.042,34.757,34.757,0,0,1-.226,6.72H258.2C258.326,210.559,258.421,210.475,258.445,210.487Z" transform="translate(13.341 17.126)" fill="#fafafa"/>
      <path id="Path_13855" data-name="Path 13855" d="M268.874,209.143a35.874,35.874,0,0,1-1.784-6.4,35.136,35.136,0,0,1-1.189-6.554,36.208,36.208,0,0,1,1.784,6.411,36.322,36.322,0,0,1,1.19,6.542Z" transform="translate(14.938 16.959)" fill="#fafafa"/>
      <path id="Path_13856" data-name="Path 13856" d="M275.816,204.535c-.178,0-.559-2.379-1.368-5.376s-1.7-5.257-1.534-5.329A15.677,15.677,0,0,1,275.054,199,15.215,15.215,0,0,1,275.816,204.535Z" transform="translate(16.263 16.512)" fill="#fafafa"/>
      <path id="Path_13857" data-name="Path 13857" d="M280.438,199.968a50.042,50.042,0,0,0-1.189-5.281,50.561,50.561,0,0,0-2.379-4.877A12.489,12.489,0,0,1,280.438,199.968Z" transform="translate(17.016 15.75)" fill="#fafafa"/>
      <path id="Path_13858" data-name="Path 13858" d="M287.876,206.08a1.914,1.914,0,0,1-.25.464c-.19.285-.452.726-.856,1.249a31.473,31.473,0,0,1-3.628,4.175,36.457,36.457,0,0,1-33.828,9.6,33.533,33.533,0,0,1-5.281-1.641c-.607-.238-1.059-.476-1.368-.619s-.476-.238-.464-.262a14.394,14.394,0,0,1,1.915.654,40.992,40.992,0,0,0,5.293,1.439,37.373,37.373,0,0,0,33.436-9.516,39.692,39.692,0,0,0,3.735-4.02,15.674,15.674,0,0,1,1.3-1.523Z" transform="translate(10.447 18.833)" fill="#fafafa"/>
      <path id="Path_13859" data-name="Path 13859" d="M233.509,183.755c-.071,0,.274-.726,1.368-.785a2.105,2.105,0,0,1,1.677.7,2.129,2.129,0,0,1-1.76,3.378,2.105,2.105,0,0,1-1.534-.975c-.571-.928-.19-1.63-.143-1.57a2.233,2.233,0,0,0,.5,1.32,1.737,1.737,0,0,0,1.189.654,1.606,1.606,0,0,0,1.285-2.45,1.76,1.76,0,0,0-1.189-.619C234,183.339,233.581,183.839,233.509,183.755Z" transform="translate(8.695 14.454)" fill="#fafafa"/>
      <path id="Path_13860" data-name="Path 13860" d="M246.982,185.7c0,.1-.678.2-1.082,1.082a1.832,1.832,0,0,0,0,1.523,1.677,1.677,0,0,0,2.962-.274,1.891,1.891,0,0,0-.321-1.5c-.571-.785-1.3-.749-1.273-.856s.155-.107.464,0a1.88,1.88,0,0,1,1.189.642,2.177,2.177,0,0,1,.535,1.9,2.2,2.2,0,0,1-4.02.393,2.224,2.224,0,0,1,.155-1.974,1.951,1.951,0,0,1,1-.856C246.8,185.625,246.982,185.661,246.982,185.7Z" transform="translate(11.03 14.951)" fill="#fafafa"/>
      <path id="Path_13861" data-name="Path 13861" d="M262.5,186.605c-.059-.059.69-.321,1.475.4a1.974,1.974,0,0,1,.63,1.653,2.01,2.01,0,0,1-3.568.821,1.986,1.986,0,0,1-.155-1.772c.393-.987,1.189-1.07,1.189-1a2.17,2.17,0,0,0-.737,1.189,1.629,1.629,0,0,0,.2,1.308,1.487,1.487,0,0,0,2.545-.583,1.618,1.618,0,0,0-.392-1.273C263.118,186.653,262.488,186.712,262.5,186.605Z" transform="translate(13.961 15.125)" fill="#fafafa"/>
      <path id="Path_13862" data-name="Path 13862" d="M274.154,179.253c0-.059.785,0,1.5.916a2.379,2.379,0,0,1-1.308,3.747,2.248,2.248,0,0,1-2.319-.868,1.868,1.868,0,0,1-.1-2.022,1.832,1.832,0,0,1,1.047-.856.762.762,0,0,1,.488,0,1.9,1.9,0,0,0-1.189,1.047,1.4,1.4,0,0,0,.167,1.475,1.713,1.713,0,0,0,1.7.619,1.891,1.891,0,0,0,1.308-1.332,2.034,2.034,0,0,0-.214-1.582C274.785,179.562,274.107,179.348,274.154,179.253Z" transform="translate(16.033 13.747)" fill="#fafafa"/>
      <path id="Path_13863" data-name="Path 13863" d="M217.994,223.029a1.385,1.385,0,0,1,1.439,0,1.925,1.925,0,0,1-1.951,3.319,2.034,2.034,0,0,1-.88-1.4c-.107-1,.464-1.427.488-1.356a2.053,2.053,0,0,0,0,1.273,1.7,1.7,0,0,0,.749,1,1.475,1.475,0,0,0,2.058-1.392,1.606,1.606,0,0,0-.642-1.07C218.565,223.029,218.006,223.16,217.994,223.029Z" transform="translate(5.595 22.009)" fill="#fafafa"/>
      <path id="Path_13864" data-name="Path 13864" d="M227.546,223.766c0-.059.69-.333,1.5.369a2.034,2.034,0,0,1,.69,1.63,2,2,0,1,1-3.925-.642,1.534,1.534,0,0,1,1.023-1.189,1.768,1.768,0,0,0-.583,1.189,1.641,1.641,0,0,0,.357,1.285,1.534,1.534,0,0,0,2.534-.773,1.689,1.689,0,0,0-.428-1.273C228.165,223.8,227.546,223.861,227.546,223.766Z" transform="translate(7.331 22.165)" fill="#fafafa"/>
      <path id="Path_13865" data-name="Path 13865" d="M247.147,226.509s0-.178.262-.345A1.439,1.439,0,0,1,248.6,226a1.523,1.523,0,0,1,1.189,1.38,1.915,1.915,0,0,1-1.189,1.867,2.129,2.129,0,0,1-2.141-.381,2.153,2.153,0,0,1-.737-1.594c0-1.023.488-1.487.523-1.439a8.1,8.1,0,0,0-.1,1.4,1.784,1.784,0,0,0,.678,1.189,1.594,1.594,0,0,0,1.546.262,1.416,1.416,0,0,0,.8-1.273,1.07,1.07,0,0,0-.714-.987A1.76,1.76,0,0,0,247.147,226.509Z" transform="translate(11.114 22.574)" fill="#fafafa"/>
      <path id="Path_13866" data-name="Path 13866" d="M258.669,225.24a.657.657,0,0,1,.25-.44,1.392,1.392,0,0,1,1.368-.226,1.641,1.641,0,0,1,1.011,1.8,2.26,2.26,0,0,1-1.677,1.867,2.843,2.843,0,0,1-2.474-.381,1.736,1.736,0,0,1-.678-.952,1.189,1.189,0,0,1,.155-1.035,1.32,1.32,0,0,1,1.249-.63c.345.083.44.285.416.3a1.743,1.743,0,0,0-.44-.059,1.094,1.094,0,0,0-.845.619,1,1,0,0,0,.476,1.3,2.379,2.379,0,0,0,1.963.25,1.737,1.737,0,0,0,1.3-1.344,1.19,1.19,0,0,0-.607-1.32,1.261,1.261,0,0,0-1.071,0C258.812,225.1,258.717,225.264,258.669,225.24Z" transform="translate(13.14 22.32)" fill="#fafafa"/>
      <path id="Path_13867" data-name="Path 13867" d="M267.362,223.733a.571.571,0,0,1,.262-.4,1.38,1.38,0,0,1,1.32-.131,1.642,1.642,0,0,1,.773.559,1.511,1.511,0,0,1,.285,1.106,2.379,2.379,0,0,1-1.5,1.891,2.51,2.51,0,0,1-2.379-.262,1.63,1.63,0,0,1-.63-.94,1.451,1.451,0,0,1,1.261-1.713c.333,0,.464.167.44.19a2.072,2.072,0,0,1-.416,0,1.19,1.19,0,0,0-.737.69.987.987,0,0,0,.416,1.261,1.986,1.986,0,0,0,1.82.155,1.927,1.927,0,0,0,1.189-1.392,1.094,1.094,0,0,0-.654-1.189,1.19,1.19,0,0,0-1.035-.071C267.516,223.638,267.409,223.769,267.362,223.733Z" transform="translate(14.856 22.055)" fill="#fafafa"/>
      <path id="Path_13868" data-name="Path 13868" d="M277.112,219.113c0,.107-.761.119-1.3,1.035a1.951,1.951,0,0,0-.19,1.641,1.618,1.618,0,0,0,1.641.94,1.641,1.641,0,0,0,1.57-1.059,1.962,1.962,0,0,0-.321-1.63c-.619-.868-1.4-.821-1.38-.928s.167-.107.511,0a2.07,2.07,0,0,1,1.189.714,2.239,2.239,0,1,1-3.414.143,2.01,2.01,0,0,1,1.189-.809C276.933,218.994,277.112,219.089,277.112,219.113Z" transform="translate(16.656 21.287)" fill="#fafafa"/>
      <path id="Path_13869" data-name="Path 13869" d="M288.773,207.08a1.933,1.933,0,0,1,1.725-.476,2.153,2.153,0,0,1,1.665,1.189,2.2,2.2,0,0,1-.345,2.486,2.022,2.022,0,0,1-2.51.19,1.558,1.558,0,0,1-.654-.987,1.618,1.618,0,0,1,.131-1,1.558,1.558,0,0,1,1.035-.9.9.9,0,0,1,.5,0,3.539,3.539,0,0,0-.416.178,1.416,1.416,0,0,0-.714.845,1.082,1.082,0,0,0,.44,1.344,1.451,1.451,0,0,0,1.749-.155,1.689,1.689,0,0,0,.274-1.808,1.8,1.8,0,0,0-1.189-1,4.377,4.377,0,0,0-1.689.1Z" transform="translate(19.244 18.928)" fill="#fafafa"/>
      <g id="Group_938" data-name="Group 938" transform="translate(245.618 224.045)" opacity="0.3">
        <path id="Path_13870" data-name="Path 13870" d="M236.349,218.494a26.038,26.038,0,0,0,2.843,5.947c.262.428.726.9,1.189.714a1.071,1.071,0,0,0,.511-.678,26.715,26.715,0,0,0,.155-19.127,36.3,36.3,0,0,0-4.758,13.084" transform="translate(-236.29 -205.35)"/>
      </g>
      <path id="Path_13871" data-name="Path 13871" d="M277.753,460.991l.071-13.084-24.562-.3L253,466.76l1.522.119c6.78.464,34.495,1.856,39.015.535C298.568,465.916,277.753,460.991,277.753,460.991Z" transform="translate(12.494 64.595)" fill="#ff725e"/>
      <g id="Group_939" data-name="Group 939" transform="translate(265.482 524.134)" opacity="0.4">
        <path id="Path_13872" data-name="Path 13872" d="M261.863,464.777a8.469,8.469,0,0,0-3.069-5.269,8.326,8.326,0,0,0-5.721-1.855l-.083,6.863Z" transform="translate(-252.99 -457.639)"/>
      </g>
      <g id="Group_940" data-name="Group 940" transform="translate(265.446 528.37)" opacity="0.4">
        <path id="Path_13873" data-name="Path 13873" d="M287.93,461.2s7.291,2.2,6.364,3.39-28.975.844-41.334-.4v-.547l32.71.7S286.491,461.248,287.93,461.2Z" transform="translate(-252.96 -461.2)"/>
      </g>
      <path id="Path_13874" data-name="Path 13874" d="M252.68,463.24h.416l1.189.083,4.461.25c3.771.19,8.98.369,14.738.452s10.967,0,14.749,0l4.461-.131,1.189-.06a1.958,1.958,0,0,0,.428,0,1.763,1.763,0,0,0-.428,0h-20.4c-5.757,0-10.955-.226-14.726-.357l-4.472-.155H253.1Z" transform="translate(12.433 67.556)" fill="#263238"/>
      <path id="Path_13875" data-name="Path 13875" d="M280.493,464.768a9.113,9.113,0,0,1,.856-2.117,10.337,10.337,0,0,1,1.546-1.7,3.378,3.378,0,0,0-1.8,1.534A3.3,3.3,0,0,0,280.493,464.768Z" transform="translate(17.699 67.122)" fill="#263238"/>
      <path id="Path_13876" data-name="Path 13876" d="M274.43,461.325a3.114,3.114,0,0,0,.8-.928c.369-.559.607-1.059.535-1.106s-.428.381-.785.94a2.76,2.76,0,0,0-.547,1.094Z" transform="translate(16.554 66.807)" fill="#263238"/>
      <path id="Path_13877" data-name="Path 13877" d="M272.771,460.3c.059.071.452-.19.88-.559s.726-.726.678-.8-.452.19-.88.571S272.723,460.2,272.771,460.3Z" transform="translate(16.239 66.74)" fill="#263238"/>
      <path id="Path_13878" data-name="Path 13878" d="M271.74,458.143a2.819,2.819,0,0,0,1.285.178,2.759,2.759,0,0,0,1.285-.119,3.032,3.032,0,0,0-1.285-.178A2.962,2.962,0,0,0,271.74,458.143Z" transform="translate(16.044 66.563)" fill="#263238"/>
      <path id="Path_13879" data-name="Path 13879" d="M271.4,456.74a2.379,2.379,0,0,0,1.415.44A2.63,2.63,0,0,0,274.3,457a7.953,7.953,0,0,0-1.451-.119,7.611,7.611,0,0,0-1.451-.143Z" transform="translate(15.98 66.325)" fill="#263238"/>
      <path id="Path_13880" data-name="Path 13880" d="M275.16,459.546a5.2,5.2,0,0,0,1.582,0,9.946,9.946,0,0,0,1.677-.357,4.5,4.5,0,0,0,.963-.381.88.88,0,0,0,.4-.488.607.607,0,0,0-.238-.63,2.867,2.867,0,0,0-3.568.8,2.794,2.794,0,0,0-.535,1.047,1.19,1.19,0,0,0,0,.428,4.756,4.756,0,0,1,.737-1.332,2.854,2.854,0,0,1,1.356-.868,2.462,2.462,0,0,1,1.879.155c.25.19.155.488-.131.642a4.543,4.543,0,0,1-.892.369,10.8,10.8,0,0,1-1.63.4C275.755,459.5,275.16,459.5,275.16,459.546Z" transform="translate(16.692 66.445)" fill="#263238"/>
      <path id="Path_13881" data-name="Path 13881" d="M275.823,459.764a1.57,1.57,0,0,0,.2-1.094,2.772,2.772,0,0,0-.416-1.19,1.63,1.63,0,0,0-1.308-.821.642.642,0,0,0-.5.726,1.891,1.891,0,0,0,.262.714,4.651,4.651,0,0,0,.737.964c.488.488.868.678.892.642s-.309-.285-.737-.785a5.006,5.006,0,0,1-.654-.963c-.214-.333-.345-.928,0-1s.8.369,1.035.678a2.783,2.783,0,0,1,.428,1.035,4.759,4.759,0,0,1,.059,1.094Z" transform="translate(16.433 66.31)" fill="#263238"/>
      <path id="Path_13882" data-name="Path 13882" d="M253.17,457.607c0,.059.7,0,1.808.083a7.885,7.885,0,0,1,3.937,1.689,7.993,7.993,0,0,1,2.438,3.568c.357,1.059.381,1.772.44,1.76s0-.178,0-.488a6.932,6.932,0,0,0-.25-1.332,7.506,7.506,0,0,0-6.554-5.353,6.916,6.916,0,0,0-1.344,0A1.879,1.879,0,0,0,253.17,457.607Z" transform="translate(12.526 66.469)" fill="#263238"/>
      <path id="Path_13883" data-name="Path 13883" d="M255.475,449a42.825,42.825,0,0,0-.274,5.031,43.794,43.794,0,0,0,0,5.055A82.41,82.41,0,0,0,255.463,449Z" transform="translate(12.897 64.858)" fill="#263238"/>
      <path id="Path_13884" data-name="Path 13884" d="M263.07,461.664a13.444,13.444,0,0,0,3.568.4,14.347,14.347,0,0,0,3.568-.238c0-.1-1.618,0-3.568-.06S263.082,461.581,263.07,461.664Z" transform="translate(14.402 67.253)" fill="#263238"/>
      <path id="Path_13885" data-name="Path 13885" d="M259,461.6a3.983,3.983,0,0,0,.285.714c.167.369.238.7.333.7s.131-.393-.059-.821S259.083,461.553,259,461.6Z" transform="translate(13.631 67.245)" fill="#263238"/>
      <path id="Path_13886" data-name="Path 13886" d="M257.53,459.692a1.227,1.227,0,0,0,.345.571c.25.262.5.428.559.369s-.1-.309-.345-.571S257.589,459.632,257.53,459.692Z" transform="translate(13.352 66.882)" fill="#263238"/>
      <path id="Path_13887" data-name="Path 13887" d="M255.36,458.81c0,.083.333.083.7.214s.607.333.678.274-.143-.393-.583-.547S255.336,458.739,255.36,458.81Z" transform="translate(12.941 66.693)" fill="#263238"/>
      <path id="Path_13888" data-name="Path 13888" d="M253.81,458.369c0,.083.107.214.309.285s.393.1.416,0-.107-.2-.309-.285S253.834,458.3,253.81,458.369Z" transform="translate(12.647 66.623)" fill="#263238"/>
      <path id="Path_13889" data-name="Path 13889" d="M220.976,461.753l3.342-12.68-23.706-6.423-5.1,18.5,1.451.5c6.447,2.129,32.913,10.408,37.647,10.265C239.889,471.756,220.976,461.753,220.976,461.753Z" transform="translate(1.601 63.655)" fill="#ff725e"/>
      <g id="Group_941" data-name="Group 941" transform="translate(197.23 517.843)" opacity="0.4">
        <path id="Path_13890" data-name="Path 13890" d="M204.138,461.449a8.529,8.529,0,0,0-1.653-5.876,8.326,8.326,0,0,0-5.067-3.223l-1.808,6.625Z" transform="translate(-195.61 -452.35)"/>
      </g>
      <g id="Group_942" data-name="Group 942" transform="translate(197.111 524.29)" opacity="0.4">
        <path id="Path_13891" data-name="Path 13891" d="M230.123,464.122s6.506,3.949,5.305,4.877-28.262-6.423-39.919-10.705l.19-.523,31.5,8.85S228.72,463.813,230.123,464.122Z" transform="translate(-195.51 -457.77)"/>
      </g>
      <path id="Path_13892" data-name="Path 13892" d="M195.36,457.67l.393.155,1.189.381,4.258,1.356c3.568,1.13,8.6,2.6,14.155,4.116s10.622,2.783,14.274,3.64l4.365.987,1.189.25a1.864,1.864,0,0,0,.416.071l-.4-.131-1.189-.3-4.33-1.082c-3.664-.916-8.707-2.212-14.274-3.723s-10.562-2.962-14.178-4.032l-4.282-1.261-1.189-.333Z" transform="translate(1.573 66.501)" fill="#263238"/>
      <path id="Path_13893" data-name="Path 13893" d="M222.06,465.986a10.145,10.145,0,0,1,1.356-1.8A10.81,10.81,0,0,1,225.343,463a3.342,3.342,0,0,0-2.129,1.035,3.223,3.223,0,0,0-1.154,1.951Z" transform="translate(6.632 67.511)" fill="#263238"/>
      <path id="Path_13894" data-name="Path 13894" d="M217,461.191a3.174,3.174,0,0,0,.987-.714c.488-.452.856-.856.8-.916s-.5.25-1,.7S216.93,461.131,217,461.191Z" transform="translate(5.671 66.858)" fill="#263238"/>
      <path id="Path_13895" data-name="Path 13895" d="M215.611,459.791c0,.071.476-.083.987-.333s.88-.523.845-.595-.476.071-.987.333S215.563,459.719,215.611,459.791Z" transform="translate(5.409 66.724)" fill="#263238"/>
      <path id="Path_13896" data-name="Path 13896" d="M215.1,457.481a3,3,0,0,0,1.189.488,2.925,2.925,0,0,0,1.273.214,3.116,3.116,0,0,0-1.189-.5,2.818,2.818,0,0,0-1.273-.2Z" transform="translate(5.313 66.464)" fill="#263238"/>
      <path id="Path_13897" data-name="Path 13897" d="M215.11,456.06a2.45,2.45,0,0,0,1.273.773,2.534,2.534,0,0,0,1.475.2,7.43,7.43,0,0,0-1.38-.488A7.589,7.589,0,0,0,215.11,456.06Z" transform="translate(5.315 66.196)" fill="#263238"/>
      <path id="Path_13898" data-name="Path 13898" d="M218.14,459.593a4.355,4.355,0,0,0,1.523.4,8.554,8.554,0,0,0,1.713.083,4.049,4.049,0,0,0,1.035-.131.893.893,0,0,0,.512-.369.619.619,0,0,0-.071-.666,2.891,2.891,0,0,0-3.675-.119,2.6,2.6,0,0,0-.773.88,1.01,1.01,0,0,0-.155.392,4.614,4.614,0,0,1,1.047-1.106,2.867,2.867,0,0,1,1.534-.488,2.379,2.379,0,0,1,1.784.607c.19.25,0,.511-.3.595a4.177,4.177,0,0,1-.952.131,11.076,11.076,0,0,1-1.677,0C218.735,459.712,218.152,459.545,218.14,459.593Z" transform="translate(5.889 66.6)" fill="#263238"/>
      <path id="Path_13899" data-name="Path 13899" d="M218.67,460.059a1.618,1.618,0,0,0,.464-1.011,2.5,2.5,0,0,0-.119-1.189,1.535,1.535,0,0,0-1.047-1.118.619.619,0,0,0-.666.571,1.7,1.7,0,0,0,.071.749,4.934,4.934,0,0,0,.476,1.118,2.284,2.284,0,0,0,.7.857s-.226-.357-.523-.952a5.077,5.077,0,0,1-.381-1.094c-.131-.381-.119-.987.285-.963s.678.559.833.928a2.7,2.7,0,0,1,.155,1.106A5.473,5.473,0,0,1,218.67,460.059Z" transform="translate(5.728 66.325)" fill="#263238"/>
      <path id="Path_13900" data-name="Path 13900" d="M197.25,452.321c0,.059.69.131,1.725.547a7.637,7.637,0,0,1,4.865,6.637,10.41,10.41,0,0,1,0,1.808,1.1,1.1,0,0,0,.131-.476,6.622,6.622,0,0,0,.1-1.344,7.482,7.482,0,0,0-5-6.828,6.244,6.244,0,0,0-1.32-.321,1.9,1.9,0,0,0-.5-.024Z" transform="translate(1.931 65.486)" fill="#263238"/>
      <path id="Path_13901" data-name="Path 13901" d="M201.992,444.59a45.325,45.325,0,0,0-1.523,4.817,42.544,42.544,0,0,0-1.189,4.889,44.5,44.5,0,0,0,1.523-4.758,42.372,42.372,0,0,0,1.189-4.948Z" transform="translate(2.316 64.023)" fill="#263238"/>
      <path id="Path_13902" data-name="Path 13902" d="M205.82,458.741a13.5,13.5,0,0,0,3.366,1.285,14.193,14.193,0,0,0,3.568.666c0-.083-1.558-.416-3.461-.952S205.856,458.658,205.82,458.741Z" transform="translate(3.555 66.702)" fill="#263238"/>
      <path id="Path_13903" data-name="Path 13903" d="M201.925,457.67c-.083,0,0,.369.1.761s.059.737.143.761.226-.345.155-.809S202.021,457.635,201.925,457.67Z" transform="translate(2.81 66.501)" fill="#263238"/>
      <path id="Path_13904" data-name="Path 13904" d="M200.944,455.441c-.071,0,0,.333.19.642s.381.547.452.5,0-.321-.19-.642S201.016,455.4,200.944,455.441Z" transform="translate(2.626 66.078)" fill="#263238"/>
      <path id="Path_13905" data-name="Path 13905" d="M199.06,454c0,.083.309.167.63.392s.511.464.595.428,0-.416-.428-.678A1.024,1.024,0,0,0,199.06,454Z" transform="translate(2.274 65.801)" fill="#263238"/>
      <path id="Path_13906" data-name="Path 13906" d="M197.67,453.234a.536.536,0,0,0,.226.357c.167.131.357.178.416.119s-.059-.226-.238-.357S197.718,453.174,197.67,453.234Z" transform="translate(2.01 65.656)" fill="#263238"/>
      <path id="Path_13907" data-name="Path 13907" d="M274.751,166.267a9.23,9.23,0,0,0,10.884-13.952c5.257-1.332,8.54-7.41,7.482-12.727s-5.828-9.516-11.133-10.634a11.764,11.764,0,0,0-6.161.155,7.494,7.494,0,0,0-4.591,3.937" transform="translate(15.948 4.156)" fill="#263238"/>
      <path id="Path_13908" data-name="Path 13908" d="M274.582,150.3c0,.059-.69.178-1.8.761a8,8,0,0,0-3.568,3.794,7.744,7.744,0,0,0,.595,7.41,7.137,7.137,0,0,0,1.463,1.665,7.374,7.374,0,0,0,1.963,1.189,7.815,7.815,0,0,0,4.758.44,7.684,7.684,0,0,0,4.234-2.474,7.97,7.97,0,0,0,1.844-4.1,7.755,7.755,0,0,0-2.688-6.923,7.981,7.981,0,0,0-4.817-1.891c-1.189,0-1.939.155-1.951.1a2.537,2.537,0,0,1,.488-.131,6.21,6.21,0,0,1,1.463-.155,8.065,8.065,0,0,1,7.946,9.064,7.516,7.516,0,0,1-.618,2.272,7.625,7.625,0,0,1-1.3,2.082,8.135,8.135,0,0,1-13.084-.928,8.041,8.041,0,0,1-.523-7.791,7.91,7.91,0,0,1,3.747-3.818,6.446,6.446,0,0,1,1.38-.5Z" transform="translate(15.379 8.204)" fill="#ff725e"/>
      <path id="Path_13909" data-name="Path 13909" d="M287.868,144.029a9.04,9.04,0,0,0,4.246-16.748A11.217,11.217,0,0,0,275.367,114.2a14.9,14.9,0,0,0-27.548,4.413,14.393,14.393,0,0,0-18.472,19.531,11.156,11.156,0,1,0,1.891,22.233,9.837,9.837,0,0,0,14.916,11.037,10.705,10.705,0,0,0,19.353-2.224" transform="translate(6.077)" fill="#263238"/>
      <path id="Path_13910" data-name="Path 13910" d="M271.5,184.3c.19-4.472.428-8.528.428-8.528s10-1.261,10.444-11.478-.595-33.721-.595-33.721L263.36,121.73l-16.2,14.512,1.653,47.745c.44,6.756,4.068,12.513,10.836,12.2h0A12.442,12.442,0,0,0,271.5,184.3Z" transform="translate(11.387 2.851)" fill="#b77153"/>
      <path id="Path_13911" data-name="Path 13911" d="M256.381,122.455a13.5,13.5,0,0,0,.19,15.606,7.827,7.827,0,0,0,6.185,3.449c2.45-.083,4.829-2.379,4.306-4.758a5.079,5.079,0,1,0,9.718.167,9.171,9.171,0,0,0,1.189,3.128,3.093,3.093,0,0,0,2.819,1.487c1.534-.2,2.379-1.856,2.783-3.366a13.869,13.869,0,0,0-3.937-12.727,16.724,16.724,0,0,0-12.751-4.472,21.315,21.315,0,0,0-12.537,5.472" transform="translate(12.682 2.697)" fill="#263238"/>
      <path id="Path_13912" data-name="Path 13912" d="M260.714,125.24a23.79,23.79,0,0,1,2.046,9.159,12.252,12.252,0,0,1-3.307,8.6,8.326,8.326,0,0,1-8.683,2.082,9.67,9.67,0,0,1-1.261,8.148,6.2,6.2,0,0,1-7.577,2c-2.26-1.189-3.235-3.973-3.568-6.53A20.887,20.887,0,0,1,261.1,125.383" transform="translate(9.692 3.516)" fill="#263238"/>
      <path id="Path_13913" data-name="Path 13913" d="M248.716,146.317a3.568,3.568,0,0,0-4.318.952,5.864,5.864,0,0,0,5.65,9.742" transform="translate(10.557 7.442)" fill="#b77153"/>
      <path id="Path_13914" data-name="Path 13914" d="M247.916,153.445a2.551,2.551,0,0,1-1.189-.107,3.033,3.033,0,0,1-2.058-1.915,2.189,2.189,0,0,1,.083-1.63,2.379,2.379,0,0,1,.868-.987c.63-.4,1.118-.381,1.118-.321s-.4.178-.916.607a2.022,2.022,0,0,0-.69,2.189,3.033,3.033,0,0,0,1.713,1.737C247.464,153.291,247.928,153.362,247.916,153.445Z" transform="translate(10.893 7.914)" fill="#995037"/>
      <path id="Path_13915" data-name="Path 13915" d="M255.781,161.737a8.682,8.682,0,0,0-.309-1.927,7.874,7.874,0,0,0-2.831-4.33,7.732,7.732,0,0,0-3.247-1.5,7.9,7.9,0,0,0-4.08.274,7.758,7.758,0,0,0-3.818,11.776A7.375,7.375,0,0,0,243.1,167.7a7.292,7.292,0,0,0,1.927,1.106,7.827,7.827,0,0,0,4.068.428,7.612,7.612,0,0,0,3.307-1.368,7.981,7.981,0,0,0,3-4.211c.345-1.189.321-1.927.381-1.915a3.267,3.267,0,0,1,0,.511,6.307,6.307,0,0,1-.214,1.451,7.922,7.922,0,0,1-2.974,4.449,8.089,8.089,0,0,1-3.438,1.487,8.175,8.175,0,1,1,.309-16.046,8.077,8.077,0,0,1,6.185,6.173,6.949,6.949,0,0,1,.143,1.463A2.45,2.45,0,0,1,255.781,161.737Z" transform="translate(9.951 8.853)" fill="#ff725e"/>
      <path id="Path_13916" data-name="Path 13916" d="M279.327,121.31a.726.726,0,0,1,.25.071,1.962,1.962,0,0,1,.642.4,2.986,2.986,0,0,1,.821,2.688,3.83,3.83,0,0,1-3.176,2.819,7.946,7.946,0,0,1-5.388-1.3l-1.9-1.094,2.082.69a2.248,2.248,0,0,1,1.415,1.606,2.926,2.926,0,0,1-.3,2.2,3.069,3.069,0,0,1-1.867,1.32,4.318,4.318,0,0,1-2.379,0,7.934,7.934,0,0,1-4-3.461l-1.332-1.939,1.689,1.641a3.664,3.664,0,0,1,.9,3.473,3.783,3.783,0,0,1-2.034,2.581,4.936,4.936,0,0,1-5.234-.63,6.28,6.28,0,0,1-1.986-2.95,5.948,5.948,0,0,1-.214-.928,1.4,1.4,0,0,1,0-.333,8.457,8.457,0,0,0,.393,1.189,6.328,6.328,0,0,0,2.022,2.771,4.627,4.627,0,0,0,4.853.511,3.45,3.45,0,0,0,1.8-2.379,3.236,3.236,0,0,0-.809-3.021l.369-.309a7.553,7.553,0,0,0,3.747,3.259,3.235,3.235,0,0,0,3.652-1.059,2.189,2.189,0,0,0-.856-3.128l.19-.416a7.624,7.624,0,0,0,5.091,1.308,3.568,3.568,0,0,0,2.986-2.5,2.89,2.89,0,0,0-.666-2.522,3.853,3.853,0,0,0-.761-.571Z" transform="translate(13.311 2.772)" fill="#455a64"/>
      <path id="Path_13917" data-name="Path 13917" d="M259.914,137.64s0,.071-.119.178a4.318,4.318,0,0,1-.428.452,5.947,5.947,0,0,1-5.769,1.285,6.2,6.2,0,0,1-3.652-3.152l.381-.059a5.947,5.947,0,1,1-10-5.222l.321.345a6.138,6.138,0,0,1-3.866,1.4,6.637,6.637,0,0,1-3.628-.987,5.436,5.436,0,0,1-2.165-2.557,6.411,6.411,0,0,1,1.047-6.578,3.818,3.818,0,0,1,1.189-.928,12.446,12.446,0,0,0-1,1.035,6.34,6.34,0,0,0-1.344,3.652,6.1,6.1,0,0,0,.488,2.676,5.2,5.2,0,0,0,2.058,2.379,6.3,6.3,0,0,0,3.414.88,5.59,5.59,0,0,0,3.568-1.308l.321.345a5.686,5.686,0,0,0-1.189,6.185,5.6,5.6,0,0,0,6.138,3.116,5.686,5.686,0,0,0,4.294-4.472l.107-.642.285.583a5.852,5.852,0,0,0,3.378,3.021,5.71,5.71,0,0,0,3.568,0,6.125,6.125,0,0,0,2.046-1.082C259.7,137.842,259.89,137.616,259.914,137.64Z" transform="translate(8.232 2.868)" fill="#455a64"/>
      <path id="Path_13918" data-name="Path 13918" d="M243.186,150.675a2.046,2.046,0,0,1-.8.476,5.376,5.376,0,0,1-6.042-1.308,5.686,5.686,0,0,1-1.392-4.758l.428.19a9.432,9.432,0,0,1-3.449,2.819,7.446,7.446,0,0,1-3.354.714,6.946,6.946,0,0,1-3.081-.845,5.436,5.436,0,0,1-2.926-4.353,5.2,5.2,0,0,1,.94-3.449,4.816,4.816,0,0,1,.69-.7,1.071,1.071,0,0,1,.285-.178,5.55,5.55,0,0,0-.821.987,5.245,5.245,0,0,0-.749,3.307,5.127,5.127,0,0,0,2.8,4,6.661,6.661,0,0,0,5.947.083,9.112,9.112,0,0,0,3.283-2.664l.595-.773-.167.963a5.269,5.269,0,0,0,1.189,4.353,5.139,5.139,0,0,0,3.235,1.689,8.273,8.273,0,0,0,3.39-.547Z" transform="translate(6.725 6.177)" fill="#455a64"/>
      <path id="Path_13919" data-name="Path 13919" d="M284.753,132.12a2.986,2.986,0,0,1,.214,1.7,6.281,6.281,0,0,1-1.677,3.771,6.185,6.185,0,0,1-3.7,1.844,3.057,3.057,0,0,1-1.7-.119c0-.083.654,0,1.641-.214a6.316,6.316,0,0,0,5.091-5.317C284.777,132.774,284.682,132.132,284.753,132.12Z" transform="translate(17.21 4.82)" fill="#455a64"/>
      <path id="Path_13920" data-name="Path 13920" d="M290.241,140.21a1.5,1.5,0,0,1,.238.7,4.1,4.1,0,0,1-.19,2.022,3.116,3.116,0,0,1-2.224,2.034,3.176,3.176,0,0,1-1.867-.155,2.581,2.581,0,0,1-1.463-1.415l.464-.155a3.1,3.1,0,0,1,.119.892,3.687,3.687,0,0,1-2.308,3.283,3.033,3.033,0,0,1-1.832.071,3.438,3.438,0,0,1-1.38-.761,3.366,3.366,0,0,1-1.118-1.927,1.427,1.427,0,0,1,0-.809,2.852,2.852,0,0,0,.155.773,3.4,3.4,0,0,0,1.189,1.7,2.843,2.843,0,0,0,2.819.523,3.224,3.224,0,0,0,1.975-2.855,3.115,3.115,0,0,0-.083-.761l.452-.155a2.486,2.486,0,0,0,2.783,1.32,2.807,2.807,0,0,0,2.01-1.737,4.211,4.211,0,0,0,.309-1.867,4.631,4.631,0,0,1-.048-.726Z" transform="translate(17.348 6.353)" fill="#455a64"/>
      <path id="Path_13921" data-name="Path 13921" d="M264.471,152.55a.715.715,0,0,1,0,.523,2.189,2.189,0,0,1-1.82,1.511c-.321,0-.511,0-.511-.119s.714-.2,1.332-.737S264.352,152.526,264.471,152.55Z" transform="translate(14.225 8.691)" fill="#263238"/>
      <path id="Path_13922" data-name="Path 13922" d="M275.472,144.035a1.475,1.475,0,0,1-1.427,1.5,1.415,1.415,0,0,1-1.534-1.344,1.5,1.5,0,0,1,1.427-1.5,1.415,1.415,0,0,1,1.534,1.344Z" transform="translate(16.19 6.822)" fill="#263238"/>
      <path id="Path_13923" data-name="Path 13923" d="M277.483,142.94c-.19.19-1.308-.642-2.914-.642s-2.771.809-2.95.607.107-.428.618-.809a4.1,4.1,0,0,1,2.379-.726,3.913,3.913,0,0,1,2.319.749C277.4,142.5,277.566,142.845,277.483,142.94Z" transform="translate(16.011 6.572)" fill="#263238"/>
      <path id="Path_13924" data-name="Path 13924" d="M262.472,144.035a1.5,1.5,0,0,1-1.439,1.5,1.415,1.415,0,0,1-1.523-1.344,1.475,1.475,0,0,1,1.427-1.5,1.415,1.415,0,0,1,1.534,1.344Z" transform="translate(13.727 6.822)" fill="#263238"/>
      <path id="Path_13925" data-name="Path 13925" d="M264.253,142.94c-.19.19-1.32-.642-2.914-.642s-2.771.809-2.95.607.1-.428.618-.809a4.1,4.1,0,0,1,2.379-.726,3.949,3.949,0,0,1,2.319.749C264.169,142.5,264.336,142.845,264.253,142.94Z" transform="translate(13.504 6.572)" fill="#263238"/>
      <path id="Path_13926" data-name="Path 13926" d="M268.026,154.92a10.955,10.955,0,0,1,2.6-.464c.4,0,.785-.119.856-.4a2.058,2.058,0,0,0-.274-1.189l-1.189-3.1a54.422,54.422,0,0,1-2.724-8.148,53.692,53.692,0,0,1,3.366,7.91l1.189,3.128a2.379,2.379,0,0,1,.2,1.606,1.035,1.035,0,0,1-.666.595,2.581,2.581,0,0,1-.69.1A10.29,10.29,0,0,1,268.026,154.92Z" transform="translate(15.203 6.618)" fill="#263238"/>
      <path id="Path_13927" data-name="Path 13927" d="M268.121,157.971a1.4,1.4,0,0,0-1.558-2.105,1.189,1.189,0,0,0-.845-1.273,1.76,1.76,0,0,0-1.582.274,2.462,2.462,0,0,0-.809,2.867,2.712,2.712,0,0,0,2.569,1.594,2.974,2.974,0,0,0,2.5-1.749" transform="translate(14.418 9.063)" fill="#995037"/>
      <path id="Path_13928" data-name="Path 13928" d="M264.045,153.73c.262,0,.262,1.725,1.749,2.962s3.342,1.047,3.354,1.285-.416.333-1.189.357a4.318,4.318,0,0,1-2.8-.975,3.759,3.759,0,0,1-1.356-2.474C263.676,154.158,263.866,153.73,264.045,153.73Z" transform="translate(14.533 8.914)" fill="#263238"/>
      <path id="Path_13929" data-name="Path 13929" d="M265.643,140.522c-.155.44-1.749.226-3.628.452s-3.4.737-3.652.345c-.107-.178.155-.595.773-1.011a6.34,6.34,0,0,1,5.543-.619C265.37,139.975,265.715,140.32,265.643,140.522Z" transform="translate(13.506 6.184)" fill="#263238"/>
      <path id="Path_13930" data-name="Path 13930" d="M277.218,140.348c-.285.357-1.38,0-2.712,0s-2.45.25-2.7-.131c-.119-.19.059-.547.547-.892a3.687,3.687,0,0,1,2.2-.595,3.747,3.747,0,0,1,2.165.726C277.194,139.789,277.349,140.17,277.218,140.348Z" transform="translate(16.05 6.072)" fill="#263238"/>
      <path id="Path_13931" data-name="Path 13931" d="M270.111,167.852a24.4,24.4,0,0,1-13.251-4.342s3.116,7.446,13.084,6.851Z" transform="translate(13.225 10.767)" fill="#995037"/>
      <path id="Path_13932" data-name="Path 13932" d="M306.772,268.716c-2.272-5.8-8.243-25.978-8.243-25.978l-53.359-2.5s-13.286,20.982-15.2,29.011S195.2,489.1,195.2,489.1l28.476,5.674,46.068-207.467-9.873,209.572,32.687-.868C293.509,480.893,308.961,274.294,306.772,268.716Z" transform="translate(1.543 25.305)" fill="#263238"/>
      <path id="Path_13933" data-name="Path 13933" d="M211.89,490.107a3.228,3.228,0,0,1,.1-.642l.321-1.891c.309-1.689.749-4.128,1.32-7.268,1.189-6.3,2.879-15.463,5.055-26.656,4.342-22.5,10.6-53.526,17.985-87.711s14.535-65.028,19.888-87.307c2.664-11.145,4.865-20.15,6.423-26.359l1.8-7.137c.214-.8.369-1.415.488-1.856a6.189,6.189,0,0,1,.19-.63,2.406,2.406,0,0,1-.131.642c-.131.416-.238,1.071-.416,1.879l-1.689,7.137c-1.487,6.268-3.568,15.285-6.245,26.418-5.234,22.3-12.3,53.157-19.7,87.331s-13.715,65.183-18.163,87.664c-2.212,11.217-4,20.3-5.246,26.62l-1.427,7.244-.393,1.879A5.834,5.834,0,0,1,211.89,490.107Z" transform="translate(4.705 25.762)" fill="#fafafa"/>
      <path id="Path_13934" data-name="Path 13934" d="M256.968,240.78c.178,0-11.145,55.56-25.264,124.014S206.035,488.724,205.82,488.689s11.145-55.548,25.276-124.026S256.8,240.744,256.968,240.78Z" transform="translate(3.554 25.407)" fill="#fafafa"/>
      <path id="Path_13935" data-name="Path 13935" d="M253.638,240.29l-.285.607c-.2.4-.488.987-.868,1.725l-1.427,2.807-.928,1.8-.94,2.082c-.678,1.475-1.415,3.116-2.236,4.9s-1.522,3.806-2.379,5.947c-1.653,4.294-3.378,9.242-5.031,14.773a309.267,309.267,0,0,0-8.731,39.657c-2.438,15.106-4.365,31.83-6.709,49.339-4.758,35.042-10.812,66.479-15.844,89.091-2.51,11.3-4.758,20.411-6.292,26.692l-1.856,7.208c-.226.809-.393,1.427-.511,1.867a5.937,5.937,0,0,1-.19.642,2.521,2.521,0,0,1,.131-.654l.44-1.891c.4-1.677,1-4.116,1.749-7.244,1.5-6.292,3.64-15.463,6.09-26.727,4.924-22.6,10.931-54.061,15.653-89.079,2.379-17.5,4.294-34.221,6.756-49.339A305.338,305.338,0,0,1,239.1,274.8c1.689-5.543,3.449-10.491,5.127-14.773q1.32-3.2,2.45-5.947l2.272-4.889c.345-.726.678-1.415.975-2.07s.654-1.189.952-1.784l1.487-2.783.928-1.7a6.469,6.469,0,0,1,.345-.559Z" transform="translate(2.34 25.315)" fill="#fafafa"/>
      <path id="Path_13936" data-name="Path 13936" d="M268.89,240.39v10.039q0,4.817-.178,11.788c-.119,4.651-.178,9.813-.381,15.594-.309,11.562-.88,25.324-1.606,40.6s-1.7,32.056-2.807,49.66c-4.686,70.179-8.326,124.121-8.528,127.523v-.666a18.285,18.285,0,0,1,.083-1.927c.083-1.725.2-4.234.369-7.434.333-6.459.88-15.808,1.582-27.358,1.5-23.1,3.568-54.977,5.864-90.185,1.106-17.6,2.07-34.388,2.855-49.648s1.368-29.023,1.737-40.585c.226-5.781.345-11,.476-15.594s.226-8.54.285-11.776.131-5.721.167-7.446v-1.939A1.7,1.7,0,0,1,268.89,240.39Z" transform="translate(12.947 25.334)" fill="#fafafa"/>
      <path id="Path_13937" data-name="Path 13937" d="M265.64,495.037v-.654c0-.44,0-1.094.071-1.915.083-1.713.19-4.187.345-7.375.285-6.423.714-15.677,1.189-27.108,1-22.9,2.2-54.525,3.4-89.472s2.189-66.61,2.938-89.507c.369-11.431.666-20.7.88-27.132.107-3.176.19-5.662.25-7.363,0-.833.071-1.463.083-1.927a3.45,3.45,0,0,1,.059-.654v2.581c0,1.713-.083,4.187-.143,7.375-.167,6.435-.393,15.689-.678,27.132-.618,22.909-1.546,54.561-2.76,89.519s-2.474,66.61-3.568,89.472c-.559,11.443-1.035,20.709-1.427,27.108-.2,3.176-.357,5.65-.464,7.363,0,.821-.1,1.451-.131,1.915S265.64,495.037,265.64,495.037Z" transform="translate(14.889 25.625)" fill="#fafafa"/>
      <path id="Path_13938" data-name="Path 13938" d="M272.82,493.451V492.8c0-.428,0-1.082.071-1.9.071-1.7.178-4.163.309-7.327.3-6.376.737-15.57,1.273-26.918,1.118-22.743,2.688-54.145,4.579-88.818.952-17.342,1.856-33.876,2.926-48.875.321-7.506.2-14.654.107-21.339s-.285-12.918-.464-18.6c-.369-11.383-.749-20.578-1.011-26.941-.119-3.152-.226-5.614-.3-7.315a16.687,16.687,0,0,0-.059-1.9,1.775,1.775,0,0,1,0-.654,4.4,4.4,0,0,0,.071.642c.071.428.071,1.094.131,1.9.1,1.7.238,4.163.416,7.315.333,6.364.773,15.558,1.189,26.93.2,5.686.4,11.895.535,18.615s.262,13.845,0,21.41c-1.047,15.023-1.927,31.545-2.879,48.887-1.856,34.661-3.568,66.051-4.758,88.806-.619,11.336-1.118,20.53-1.475,26.906-.178,3.164-.333,5.626-.428,7.327,0,.809-.1,1.439-.131,1.891A2.234,2.234,0,0,1,272.82,493.451Z" transform="translate(16.249 25.676)" fill="#fafafa"/>
    </g>
  </g>
</svg>
