<svg id="Component_Character_Female_L" data-name="Component/Character/Female/L" xmlns="http://www.w3.org/2000/svg" xmlns:xlink="http://www.w3.org/1999/xlink" width="180" height="180" viewBox="0 0 180 180">
  <defs>
    <clipPath id="clip-path">
      <rect id="Rectangle_9961" data-name="Rectangle 9961" width="180" height="180" transform="translate(18757 -21155)" fill="#fff" stroke="#707070" stroke-width="1"/>
    </clipPath>
  </defs>
  <g id="Component_Character_Female_L-2" data-name="Component/Character/Female/L" transform="translate(-18757 21155)" clip-path="url(#clip-path)">
    <g id="Character--inject-1248" transform="translate(18765 -21141.17)">
      <path id="Path_25815" data-name="Path 25815" d="M42.752,232.573l9.679,17.81-.8-43.243a15.151,15.151,0,0,0-2.682-7.652,15.823,15.823,0,0,0-2.329-2.784,17.138,17.138,0,0,0-3.7-2.591c-1.292-.512-1.332-2.306-.131-2.619s4.8,1.008,7.931,4.219,2.426-3.729,2.209-6.263-.507-10.391.222-11.051c1.065-.974,2.334,0,2.488,2.551s1.139,10.106,2.488,9.964.046-13.021.046-13.021-.717-2.722.814-2.938c2.767-.393,3.1,13.374,3.1,14.69,0,.911,1.452.808,1.4-.171s-1.56-12.833,1.253-13.255c2.158-.325.381,11.325,2.055,13.665s.444-9,2.522-9.224c.769-.085,1.361-.04,1.139,6.531-.125,3.536-1.708,8.819-1.423,15.64l.068,1.765h0c1.634,12.759,9,79.7-16.347,77.883,0,0-19.228-2.67-29.915-37.663Z" transform="translate(93.442 -108.783)" fill="#ffbe9d"/>
      <path id="Path_25816" data-name="Path 25816" d="M45.465,217.337c0,.063-.427.114-1.059.444a3.986,3.986,0,0,0-1.873,2.061l-.2.507-.222-.5a6.365,6.365,0,0,0-1.315-1.9,7.493,7.493,0,0,0-3.906-2.1c-1.139-.233-1.879-.1-1.89-.194a3.564,3.564,0,0,1,1.947-.148,7.151,7.151,0,0,1,4.2,2.1,6.587,6.587,0,0,1,1.378,2.055h-.421a3.986,3.986,0,0,1,2.181-2.146,1.913,1.913,0,0,1,1.179-.188Z" transform="translate(112.417 -126.222)" fill="#eb996e"/>
      <path id="Path_25817" data-name="Path 25817" d="M269.64,290.77l-10.767,20.281-9.833,18.914h22.234L290.992,299.9" transform="translate(-249.039 -158.66)" fill="#ffbe9d"/>
      <path id="Path_25818" data-name="Path 25818" d="M144.23,294.722c-2.118-7.214-.729-8.353,1.549-15.515l4.9-15.373,10.716,15.828h0l22.781-18.311h0l-7.556-17.041c-14.115-31.987-37.01-29.715-37.01-29.715l-29.175-5.568s-18.664-1.708-30.746,9.258c-3.94,3.576-21.836,35.79-21.836,35.79l21.989,15.407,5.392-9.2,1.492,12.5c1.173,6.832,1.1,15.526-1.492,21.938" transform="translate(-39.3 -123.417)" fill="#ff725e"/>
      <path id="Path_25819" data-name="Path 25819" d="M85.66,238c0,.08,4.8,1.139,10.75,2.363s10.818,2.152,10.818,2.072-4.794-1.139-10.75-2.363S85.677,237.9,85.66,238Z" transform="translate(21.81 -135.931)" fill="#fafafa"/>
      <path id="Path_25820" data-name="Path 25820" d="M199.03,221.816c0,.085,4.709,1.025,10.556,2.1s10.6,1.89,10.613,1.8-4.714-1.019-10.562-2.1S199.041,221.736,199.03,221.816Z" transform="translate(-155.711 -128.964)" fill="#fafafa"/>
      <path id="Path_25821" data-name="Path 25821" d="M194.28,240.109c0,.08,7.328,1.708,16.4,3.684s16.444,3.473,16.461,3.416-7.322-1.708-16.4-3.684S194.32,240.046,194.28,240.109Z" transform="translate(-159.953 -136.843)" fill="#fafafa"/>
      <path id="Path_25822" data-name="Path 25822" d="M57.85,268.3l.307.063.9.159,3.479.569,12.794,2.1,42.236,6.775c16.512,2.613,31.447,4.942,42.276,6.57,5.409.82,9.793,1.458,12.828,1.879,1.515.2,2.693.359,3.5.444a3.866,3.866,0,0,0,1.218.068,7.017,7.017,0,0,1-1.213-.125l-3.485-.5-12.817-1.97-42.259-6.662-42.231-6.69-12.811-2-3.485-.53-.911-.131Z" transform="translate(-32.512 -148.984)" fill="#fafafa"/>
      <path id="Path_25823" data-name="Path 25823" d="M123.54,312.078c0,.08,13.563,1.919,30.308,4.1s30.331,3.883,30.342,3.8-13.557-1.913-30.308-4.1S123.574,312,123.54,312.078Z" transform="translate(-76.72 -167.835)" fill="#fafafa"/>
      <path id="Path_25824" data-name="Path 25824" d="M130.3,349.238c0,.085,12.139.074,27.1,0s27.108-.228,27.108-.313-12.133-.074-27.108,0S130.3,349.158,130.3,349.238Z" transform="translate(-80.889 -183.679)" fill="#fafafa"/>
      <path id="Path_25825" data-name="Path 25825" d="M70.3,261.137a1.975,1.975,0,0,0,.393.085l1.139.188,4.156.66c3.513.569,8.358,1.372,13.665,2.369s10.146,1.993,13.625,2.739l4.139.883,1.139.233a1.829,1.829,0,0,0,.4.063,1.993,1.993,0,0,0-.381-.12l-1.156-.29c-.968-.239-2.369-.569-4.1-.974-3.467-.8-8.273-1.828-13.614-2.847s-10.192-1.771-13.711-2.277c-1.765-.256-3.189-.45-4.179-.569l-1.139-.131a1.889,1.889,0,0,0-.376-.011Z" transform="translate(28.829 -145.898)" fill="#fafafa"/>
      <path id="Path_25826" data-name="Path 25826" d="M185.79,99.77c.7,8.438-10.607,14.428-9.6,22.831.279,2.334,1.492,4.874.256,6.878-1.48,2.408-5.085,1.9-7.715,2.944-3.24,1.281-4.9,5.181-4.407,8.626s2.722,6.422,5.346,8.717a26.192,26.192,0,0,0,14.8,6.36,13.474,13.474,0,0,0,7.459-1.139A7.175,7.175,0,0,0,196,148.969" transform="translate(-111.708 -76.409)" fill="#ce7a3d"/>
      <path id="Path_25827" data-name="Path 25827" d="M119.99,165.034c1.5-7.2,2.955-14.8,2.955-14.8s-8.945-3.507-8.3-16c.609-11.922,8.153-38.147,8.153-38.147h0a35.5,35.5,0,0,1,36.782,17.081h0l-13.17,58.269c-1.526,6.764-8.541,10.818-15.789,9.15h0C123.315,178.835,118.56,171.894,119.99,165.034Z" transform="translate(-47.024 -74.585)" fill="#ffbe9d"/>
      <path id="Path_25828" data-name="Path 25828" d="M175.517,133.442a1.589,1.589,0,0,0,1.167,1.879,1.515,1.515,0,0,0,1.9-1.059,1.589,1.589,0,0,0-1.139-1.885,1.52,1.52,0,0,0-1.925,1.065Z" transform="translate(-100.724 -90.421)" fill="#263238"/>
      <path id="Path_25829" data-name="Path 25829" d="M173.2,130.742c.148.245,1.509-.376,3.177,0s2.716,1.452,2.938,1.287c.108-.074,0-.478-.461-.979a4.333,4.333,0,0,0-2.278-1.281,4.168,4.168,0,0,0-2.579.268C173.394,130.3,173.143,130.634,173.2,130.742Z" transform="translate(-100.155 -89.286)" fill="#263238"/>
      <path id="Path_25830" data-name="Path 25830" d="M145.641,140.321a1.588,1.588,0,0,0,1.139,1.885,1.52,1.52,0,0,0,1.9-1.065,1.583,1.583,0,0,0-1.139-1.879,1.515,1.515,0,0,0-1.9,1.059Z" transform="translate(-53.805 -93.388)" fill="#263238"/>
      <path id="Path_25831" data-name="Path 25831" d="M143.21,137.584c.148.239,1.509-.381,3.177,0s2.71,1.452,2.938,1.287c.108-.068,0-.478-.461-.979a4.4,4.4,0,0,0-2.277-1.281,4.219,4.219,0,0,0-2.585.268C143.375,137.145,143.119,137.47,143.21,137.584Z" transform="translate(-53.083 -92.233)" fill="#263238"/>
      <path id="Path_25832" data-name="Path 25832" d="M167.019,146.942a11.007,11.007,0,0,0-2.608-1.065c-.416-.137-.8-.3-.814-.609a2.243,2.243,0,0,1,.569-1.2l1.947-2.978c2.733-4.253,4.806-7.783,4.629-7.891s-2.522,3.251-5.25,7.5l-1.9,3.006a2.556,2.556,0,0,0-.569,1.628,1.087,1.087,0,0,0,.569.769,2.955,2.955,0,0,0,.7.256A10.988,10.988,0,0,0,167.019,146.942Z" transform="translate(-85.763 -90.803)" fill="#263238"/>
      <path id="Path_25833" data-name="Path 25833" d="M149.473,190.924a31.47,31.47,0,0,0,17.081-.894s-5.694,7.476-17.554,3.781Z" transform="translate(-73.58 -115.278)" fill="#eb996e"/>
      <path id="Path_25834" data-name="Path 25834" d="M161.629,164.129a3.069,3.069,0,0,1,2.932-.541,2.773,2.773,0,0,1,1.68,1.418,1.771,1.771,0,0,1-.285,2.016,2.061,2.061,0,0,1-2.278.091,6.485,6.485,0,0,1-1.868-1.708,1.914,1.914,0,0,1-.37-.569.569.569,0,0,1,.137-.626" transform="translate(-80.521 -103.822)" fill="#ff725e"/>
      <path id="Path_25835" data-name="Path 25835" d="M167.413,161.188c-.273-.074-.66,1.737-2.482,2.7s-3.707.347-3.775.569c-.051.108.353.444,1.167.638a4.6,4.6,0,0,0,3.132-.4,3.985,3.985,0,0,0,1.959-2.277C167.629,161.7,167.538,161.205,167.413,161.188Z" transform="translate(-81.489 -102.857)" fill="#263238"/>
      <path id="Path_25836" data-name="Path 25836" d="M119.324,148.2a7.345,7.345,0,0,1,3.843,1.076,5.124,5.124,0,0,1,2.278,3.188,5.363,5.363,0,0,1-.786,3.872,9.07,9.07,0,0,1-2.892,2.784,6.127,6.127,0,0,1-2.676,1.059,2.938,2.938,0,0,1-2.608-.985" transform="translate(-14.041 -97.265)" fill="#ffbe9d"/>
      <path id="Path_25837" data-name="Path 25837" d="M121.17,157.744c-.159,0,.239.917,1.486.848a2.574,2.574,0,0,0,1.708-.968,5.847,5.847,0,0,0,1.1-2.01,3.445,3.445,0,0,0-.063-2.391,2.278,2.278,0,0,0-1.486-1.361c-1.213-.285-1.765.478-1.634.53a2.431,2.431,0,0,1,1.395.142,2.234,2.234,0,0,1,.82,2.784c-.444,1.27-1.2,2.408-1.97,2.562S121.25,157.652,121.17,157.744Z" transform="translate(-16.808 -98.815)" fill="#eb996e"/>
      <path id="Path_25838" data-name="Path 25838" d="M78.533,88.659a8.984,8.984,0,0,0,1.845,10.607c2.892,2.6,7.083,2.972,10.818,4.06s7.738,3.838,7.567,7.726c-.1,2.357-1.776,4.623-1.173,6.9.7,2.67,4.111,3.809,5.073,6.394,1.543,4.156-4.105,7.9-3.855,12.321.148,2.625,2.369,4.766,2.613,7.4.353,3.724-3.3,7.681-1.27,10.818,1.56,2.414,5.193,2.067,7.857,1.019s5.58-2.539,8.25-1.492c1.606.626,2.739,2.061,4.168,3.029a7.971,7.971,0,0,0,12.3-8.1c-.433-2.277-1.811-4.23-2.921-6.263s-1.993-4.407-1.327-6.622c.518-1.708,1.85-2.995,2.91-4.418s1.885-3.3,1.2-4.931c-1.2-2.875-5.779-2.625-7.442-5.255-2.278-3.615,3.006-8.216,1.651-12.27-1.537-4.589-9.679-3.769-11.228-8.358-.569-1.668,0-3.507-.154-5.261-.4-3.986-4.612-6.576-8.581-7.265s-8.114-.176-12.008-1.2c-2.129-.569-4.122-1.577-6.218-2.277a9.867,9.867,0,0,0-6.491-.279c-2.073.769-3.729,2.938-3.314,5.124" transform="translate(0.776 -69.836)" fill="#ce7a3d"/>
      <path id="Path_25839" data-name="Path 25839" d="M174.915,98.25a15.088,15.088,0,0,1-11.035,7.4,36.607,36.607,0,0,1,1.059-9.059,14.6,14.6,0,0,1,4.766-7.635,9.045,9.045,0,0,1,8.609-1.526" transform="translate(-93.813 -70.875)" fill="#ce7a3d"/>
      <path id="Path_25840" data-name="Path 25840" d="M121.976,208.968c-1.031.137-6.793,33.934,15.328,37.686,20.936,3.559,27.41-31.167,27.41-31.167S150.61,205.142,121.976,208.968Z" transform="translate(-55.535 -123.068)" fill="#ffbe9d"/>
      <path id="Path_25841" data-name="Path 25841" d="M178.681,127.366c-.131.245-1.27-.12-2.687-.279s-2.6-.08-2.67-.347,1.139-.814,2.784-.621S178.812,127.173,178.681,127.366Z" transform="translate(-99.567 -87.738)" fill="#263238"/>
      <path id="Path_25842" data-name="Path 25842" d="M148.64,131.416c-.051-.046-.046-.142,0-.3v.256a11.626,11.626,0,0,0-2.574-.945c-1.571-.342-2.9.034-3.012-.222-.046-.12.239-.387.82-.569a4.464,4.464,0,0,1,2.386-.137,3.906,3.906,0,0,1,2.619,1.634l.1.2-.085.046A.255.255,0,0,1,148.64,131.416Z" transform="translate(-52.62 -89.17)" fill="#263238"/>
      <path id="Path_25843" data-name="Path 25843" d="M113.37,130.614a25.619,25.619,0,0,0,3.86-.245,24.422,24.422,0,0,0,3.826-.541,25.657,25.657,0,0,0-3.86.245A25.56,25.56,0,0,0,113.37,130.614Z" transform="translate(-7.796 -89.353)" fill="#ffa565"/>
      <path id="Path_25844" data-name="Path 25844" d="M113.38,134.748a13.487,13.487,0,0,0,5.8-.313c0-.08-1.3.091-2.9.176S113.386,134.656,113.38,134.748Z" transform="translate(-5.926 -91.328)" fill="#ffa565"/>
      <path id="Path_25845" data-name="Path 25845" d="M120.819,103.91a1.47,1.47,0,0,0,.114.353,3.251,3.251,0,0,0,.569.9,5.517,5.517,0,0,0,3.53,1.56,10.579,10.579,0,0,0,2.7-.046c.962-.12,1.981-.3,3.052-.376a7.544,7.544,0,0,1,3.3.359,6.639,6.639,0,0,1,2.756,2.215c.78.968,1.435,2,2.2,2.921a9.247,9.247,0,0,0,1.258,1.241,6.5,6.5,0,0,0,1.469.854,15.233,15.233,0,0,0,3.006.78,16.023,16.023,0,0,1,2.591.621,5.4,5.4,0,0,1,2.955,2.277,3.712,3.712,0,0,1,.382,1.344,1.413,1.413,0,0,0,0-.37,3.057,3.057,0,0,0-.29-1.025,5.415,5.415,0,0,0-2.984-2.454,16.126,16.126,0,0,0-2.619-.666,14.709,14.709,0,0,1-2.944-.791,6.684,6.684,0,0,1-2.613-2.027c-.752-.894-1.4-1.936-2.192-2.921a6.98,6.98,0,0,0-2.887-2.277,7.812,7.812,0,0,0-3.416-.359c-2.181.194-4.088.712-5.694.49a5.483,5.483,0,0,1-3.49-1.412A4.554,4.554,0,0,1,120.819,103.91Z" transform="translate(-41.698 -78.191)" fill="#60300e"/>
      <path id="Path_25846" data-name="Path 25846" d="M105.053,180.443a3.987,3.987,0,0,1-.507-.142,2,2,0,0,1-1.013-1.053,3.08,3.08,0,0,1-.046-2.317c.273-.888.8-1.833,1.207-2.961a15.122,15.122,0,0,0,.814-8.273,11.063,11.063,0,0,0-2.084-4.492,9.548,9.548,0,0,0-1.913-1.822,11.318,11.318,0,0,0-2.4-1.247,7.516,7.516,0,0,1-2.278-1.3,2.847,2.847,0,0,1-.877-2.238c.1-1.657,1-3.177.974-4.817a4.971,4.971,0,0,0-.6-2.277,8.371,8.371,0,0,0-1.3-1.765,29.53,29.53,0,0,0-2.927-2.579,9.2,9.2,0,0,1-3.257-4.424,4.475,4.475,0,0,1,0-2.027.422.422,0,0,0-.046.131c0,.085-.063.216-.1.387a3.985,3.985,0,0,0,.051,1.537,6.212,6.212,0,0,0,1.031,2.2,13.18,13.18,0,0,0,2.2,2.351,30.588,30.588,0,0,1,2.881,2.585,8.278,8.278,0,0,1,1.253,1.708,4.748,4.748,0,0,1,.569,2.141,7.92,7.92,0,0,1-.438,2.323,10.875,10.875,0,0,0-.569,2.482,3.12,3.12,0,0,0,.962,2.465A7.71,7.71,0,0,0,99,158.38a11.312,11.312,0,0,1,2.34,1.27,9.275,9.275,0,0,1,1.856,1.765,10.818,10.818,0,0,1,2.044,4.367,15.122,15.122,0,0,1-.74,8.142c-.387,1.139-.905,2.067-1.173,2.989a4.264,4.264,0,0,0-.182,1.321,2.784,2.784,0,0,0,.279,1.093,2.044,2.044,0,0,0,1.1,1.059A1.139,1.139,0,0,0,105.053,180.443Z" transform="translate(21.583 -92.316)" fill="#60300e"/>
    </g>
  </g>
</svg>
