<svg id="Component_Character_Male_M" data-name="Component/Character/Male/M" xmlns="http://www.w3.org/2000/svg" xmlns:xlink="http://www.w3.org/1999/xlink" width="180" height="180" viewBox="0 0 180 180">
  <defs>
    <clipPath id="clip-path">
      <rect id="Rectangle_9973" data-name="Rectangle 9973" width="180" height="180" transform="translate(19165 -22613)" fill="#fff" stroke="#707070" stroke-width="1"/>
    </clipPath>
  </defs>
  <g id="Component_Character_Male_M-2" data-name="Component/Character/Male/M" transform="translate(-19165 22613)" clip-path="url(#clip-path)">
    <g id="character-2--inject-589" transform="translate(19174 -22603)">
      <g id="Group_25063" data-name="Group 25063" transform="matrix(-0.951, -0.309, 0.309, -0.951, 135.25, 133.489)">
        <g id="Group_25064" data-name="Group 25064" transform="translate(0.001 0.001)">
          <path id="Path_106087" data-name="Path 106087" d="M28.131,17.036,23.192,56.7a15.887,15.887,0,0,0,1.642,8.328,16.518,16.518,0,0,0,2.007,3.232A17.527,17.527,0,0,0,30.295,71.5a1.447,1.447,0,0,1-.261,2.724c-1.3.143-4.822-1.746-7.6-5.552s-3.063,3.519-3.219,6.178S18.2,85.694,17.353,86.281c-1.3.847-2.424-.365-2.216-3.024s.313-10.648-1.095-10.7-1.981,13.5-1.981,13.5.339,2.932-1.3,2.919c-2.919,0-1.225-14.336-1.03-15.64.13-.938-1.395-1.056-1.486,0S7.956,86.867,4.984,86.893c-2.294,0,1.3-11.808-.1-14.454s-1.8,9.267-3.988,9.188c-.808,0-1.421-.156-.209-6.934.652-3.649,3.063-8.9,3.793-16.018l.2-1.838c.143-8.863,2.1-35.567,10.153-55.9C17.119-4.721,28.131,17.036,28.131,17.036Z" transform="translate(0 -0.001)" fill="#b78876"/>
          <path id="Path_106088" data-name="Path 106088" d="M0,2.659a7.375,7.375,0,0,0,1.16-.3A4.209,4.209,0,0,0,3.415.5L3.688,0l.156.547A6.88,6.88,0,0,0,4.927,2.711,7.911,7.911,0,0,0,8.667,5.474c1.147.4,1.929.378,1.929.482a3.819,3.819,0,0,1-2.033-.143A7.428,7.428,0,0,1,4.51,3.024,6.738,6.738,0,0,1,3.389.691h.43a4.093,4.093,0,0,1-2.607,1.9A1.969,1.969,0,0,1,0,2.659Z" transform="translate(8.89 59.626)" fill="#7c5142"/>
        </g>
      </g>
      <path id="Path_14644" data-name="Path 14644" d="M567.1,184.68c-2.735,2.372-2.728,6.55-2.412,10.154s.56,7.71-1.937,10.332c-2.063,2.161-5.8,3.1-6.273,6.049a3.394,3.394,0,0,0,5.608,3.077c-.8,2.326-.25,5.232,1.766,6.642s5.4.54,6.023-1.838a2.985,2.985,0,1,0,5.858,1.067" transform="translate(-529.346 -170.058)" fill="#263238"/>
      <path id="Path_14645" data-name="Path 14645" d="M515.373,205a3.605,3.605,0,0,0,6.655-2.774c-.626-1.371-2.109-2.359-2.254-3.861-.171-1.812,1.68-3.11,3.295-3.9s3.565-1.819,3.743-3.637-1.4-3.117-2.708-4.29-2.636-2.992-1.8-4.553c.415-.8,1.278-1.259,1.838-1.977,1.232-1.568.586-4.066-.988-5.271a7.328,7.328,0,0,0-5.713-1.048,51.911,51.911,0,0,0-5.72,1.74,23.86,23.86,0,0,1-19-2.491" transform="translate(-438.463 -166.054)" fill="#263238"/>
      <path id="Path_14646" data-name="Path 14646" d="M527.027,246.563a13.231,13.231,0,0,1-15.544-10.148l-9.35-42.87a19.023,19.023,0,0,1,14.674-23l.975-.145a19.149,19.149,0,0,1,21.448,14.661c2.082,9.047,4.263,19.069,4.922,23.992,1.364,10.194-8.566,13.264-8.566,13.264l1.786,8.566a13.231,13.231,0,0,1-10.332,15.656Z" transform="translate(-461.786 -165.119)" fill="#b78876"/>
      <path id="Path_14647" data-name="Path 14647" d="M514.936,202.419a1.476,1.476,0,0,1-1.186,1.674,1.4,1.4,0,0,1-1.687-1.087,1.463,1.463,0,0,1,1.18-1.674,1.41,1.41,0,0,1,1.693,1.087Z" transform="translate(-440.324 -175.726)" fill="#263238"/>
      <path id="Path_14648" data-name="Path 14648" d="M517.236,200.2c-.152.217-1.371-.441-2.939-.2s-2.59,1.179-2.787,1.015c-.1-.072.04-.441.481-.876a4.033,4.033,0,0,1,2.2-1.048,3.881,3.881,0,0,1,2.372.4C517.1,199.786,517.308,200.1,517.236,200.2Z" transform="translate(-441.247 -174.957)" fill="#263238"/>
      <path id="Path_14649" data-name="Path 14649" d="M538.124,206.218a1.469,1.469,0,0,1-1.186,1.674,1.4,1.4,0,0,1-1.687-1.094,1.463,1.463,0,0,1,1.186-1.667,1.4,1.4,0,0,1,1.687,1.087Z" transform="translate(-478.792 -177.021)" fill="#263238"/>
      <path id="Path_14650" data-name="Path 14650" d="M540.491,204.061c-.151.211-1.371-.441-2.932-.2s-2.6,1.18-2.794,1.015c-.092-.072.039-.441.488-.876a4.033,4.033,0,0,1,2.2-1.048,3.881,3.881,0,0,1,2.372.4C540.333,203.626,540.57,203.962,540.491,204.061Z" transform="translate(-479.83 -176.274)" fill="#263238"/>
      <path id="Path_14651" data-name="Path 14651" d="M520.412,214.311a10.5,10.5,0,0,1,2.471-.83c.4-.1.758-.237.784-.521a2.068,2.068,0,0,0-.435-1.14q-.784-1.364-1.628-2.866a56.477,56.477,0,0,1-3.815-7.565c.138-.092,2.141,3.15,4.415,7.248l1.581,2.886a2.373,2.373,0,0,1,.435,1.542,1.015,1.015,0,0,1-.573.659,2.808,2.808,0,0,1-.659.191A10.5,10.5,0,0,1,520.412,214.311Z" transform="translate(-452.377 -175.757)" fill="#263238"/>
      <path id="Path_14652" data-name="Path 14652" d="M542.534,194.861c-.092.448-1.687.474-3.486.962s-3.209,1.206-3.512.863c-.132-.165.066-.606.6-1.1a6.273,6.273,0,0,1,5.331-1.39C542.2,194.367,542.567,194.683,542.534,194.861Z" transform="translate(-482.361 -173.261)" fill="#263238"/>
      <path id="Path_14653" data-name="Path 14653" d="M518.667,193.406c-.224.4-1.318.185-2.636.356s-2.359.593-2.636.257c-.138-.165,0-.547.409-.955a3.868,3.868,0,0,1,4.283-.488C518.561,192.872,518.766,193.215,518.667,193.406Z" transform="translate(-443.917 -172.604)" fill="#263238"/>
      <path id="Path_14654" data-name="Path 14654" d="M564.643,183.556l-.046.053a8.079,8.079,0,0,0-2.214,5.614v.2c0,2.965.534,5.93.527,8.863s-.573,6.056-2.425,8.362c-.758.955-2.234,1.746-3.1.89a2.5,2.5,0,0,1-.56-1.278c-1.568-6.925-4.389-12.856-5.449-20.183a6.24,6.24,0,0,1,1.825-5.4c1.371-1.318,3.077-2.741,4.9-2.181s4.494,3.426,6.016,4.613" transform="translate(-514.888 -167.906)" fill="#263238"/>
      <path id="Path_14655" data-name="Path 14655" d="M562.735,211.809c-.185-.053-7.294-1.048-6.049,5.878s7.907,4.25,7.907,4.046S562.735,211.809,562.735,211.809Z" transform="translate(-518.284 -179.285)" fill="#b78876"/>
      <path id="Path_14656" data-name="Path 14656" d="M564.108,220.787a2.167,2.167,0,0,1-.29.231,1.232,1.232,0,0,1-.9.185,3.031,3.031,0,0,1-1.858-2.431,4.06,4.06,0,0,1,0-1.786,1.423,1.423,0,0,1,.745-1.087.619.619,0,0,1,.771.2c.125.171.105.323.145.323s.125-.138,0-.415a.765.765,0,0,0-.349-.382.929.929,0,0,0-.7-.059,1.733,1.733,0,0,0-1.068,1.318,4.159,4.159,0,0,0-.073,1.977c.3,1.39,1.245,2.563,2.293,2.675a1.318,1.318,0,0,0,1.074-.382C564.128,220.952,564.134,220.794,564.108,220.787Z" transform="translate(-520.381 -180.579)" fill="#aa6550"/>
      <path id="Path_14657" data-name="Path 14657" d="M500.385,174.35c-2.122-2.537,1.977-7.215,5.272-8.8s8.039-.573,11.624.059c2.26.4,4.553,1.087,6.807.659a15.339,15.339,0,0,0,4.244-1.773,11.485,11.485,0,0,1,4.309-1.509,4.244,4.244,0,0,1,4,1.786c.784,1.318.237,3.38-1.239,3.809a3.453,3.453,0,1,1,1.838,6.194c.876-.9,2.576.125,2.636,1.377a3.649,3.649,0,0,1-1.977,2.978c-2.708,1.7-6.148,1.786-9.3,1.219s-6.168-1.74-9.3-2.385-8.4-1.871-11.235-.376c-2.082,1.094-3.229,3.954-4.553,3.565a4.3,4.3,0,0,1-2.636-2.807,12.519,12.519,0,0,1-.442-3.954" transform="translate(-457.245 -162.647)" fill="#263238"/>
      <path id="Path_14658" data-name="Path 14658" d="M563.6,213.353a1.067,1.067,0,0,1-.362-.158,2.063,2.063,0,0,1-.751-.857,3.025,3.025,0,0,1-.224-1.792,3.6,3.6,0,0,1,1.239-2.03,9.026,9.026,0,0,1,2.5-1.456,16.219,16.219,0,0,0,2.919-1.41,5.825,5.825,0,0,0,2.115-2.748,9.633,9.633,0,0,0,.613-3.743c-.066-2.636-.8-5.107-.975-7.433a9.827,9.827,0,0,1,1.107-6.016,5.581,5.581,0,0,1,3.295-2.471,3.849,3.849,0,0,1,1.127-.112,1.456,1.456,0,0,1,.389.059,5.745,5.745,0,0,0-1.483.185,5.562,5.562,0,0,0-3.11,2.471,9.48,9.48,0,0,0-1,5.858c.231,2.273.936,4.744,1.015,7.453a9.885,9.885,0,0,1-.659,3.875,6.141,6.141,0,0,1-2.26,2.893,16.64,16.64,0,0,1-2.985,1.41,9.026,9.026,0,0,0-2.445,1.371,3.46,3.46,0,0,0-1.212,1.885,2.86,2.86,0,0,0,.158,1.693,2.267,2.267,0,0,0,1,1.074Z" transform="translate(-534.01 -169.527)" fill="#455a64"/>
      <path id="Path_14659" data-name="Path 14659" d="M533.638,170.978a1.192,1.192,0,0,1,.3-.165,2.558,2.558,0,0,1,.382-.152,3.3,3.3,0,0,1,.56-.138,4.171,4.171,0,0,1,3.492,1.067h0a5.588,5.588,0,0,1,1.239,4.125,6.866,6.866,0,0,1-2.543,4.7,10.629,10.629,0,0,1-5.759,2.313,23.484,23.484,0,0,1-6.84-.415,30.917,30.917,0,0,1-10.082-3.9,30.686,30.686,0,0,0-4.165-2.155,11.07,11.07,0,0,0-3.954-.81,11.8,11.8,0,0,0-5.68,1.318,19.766,19.766,0,0,0-1.839,1.166,8.08,8.08,0,0,1,1.773-1.318,11.623,11.623,0,0,1,5.752-1.469,11.347,11.347,0,0,1,4.059.784,31.085,31.085,0,0,1,4.211,2.155,31.115,31.115,0,0,0,9.989,3.828,23.334,23.334,0,0,0,6.741.428,10.378,10.378,0,0,0,5.594-2.214,6.622,6.622,0,0,0,2.478-4.487,5.364,5.364,0,0,0-1.133-3.954h0a4.092,4.092,0,0,0-3.334-1.1A7.123,7.123,0,0,0,533.638,170.978Z" transform="translate(-455.258 -165.213)" fill="#455a64"/>
      <path id="Path_14660" data-name="Path 14660" d="M545.574,162.49a3.955,3.955,0,0,1-.244,1.555,6.537,6.537,0,0,1-2.728,3.295,8.178,8.178,0,0,1-2.761,1.147,11.716,11.716,0,0,1-3.427.178,45.631,45.631,0,0,1-7.6-1.693,15.375,15.375,0,0,0-7.6-.435,9.884,9.884,0,0,0-5.166,3.354,10.273,10.273,0,0,0-1.977,3.716c-.264.969-.3,1.535-.343,1.529a3.125,3.125,0,0,1,0-.409,8.189,8.189,0,0,1,.191-1.153,9.936,9.936,0,0,1,1.917-3.842,10.075,10.075,0,0,1,5.272-3.512,15.361,15.361,0,0,1,7.769.409,47.378,47.378,0,0,0,7.545,1.713,11.611,11.611,0,0,0,3.341-.138,8.2,8.2,0,0,0,2.689-1.067,6.589,6.589,0,0,0,2.728-3.123A9.379,9.379,0,0,0,545.574,162.49Z" transform="translate(-471.048 -162.49)" fill="#455a64"/>
      <path id="Path_14661" data-name="Path 14661" d="M523.488,228.34a7.5,7.5,0,0,1-.534,1.977,2.418,2.418,0,0,1-1.483,1.318,2.161,2.161,0,0,1-1.977-.6,3.5,3.5,0,0,1-.929-1.937c-.105-.659,0-1.483.659-1.693a1.687,1.687,0,0,1,.81,0l3.65.659" transform="translate(-454.329 -185.613)" fill="#aa6550"/>
      <path id="Path_14662" data-name="Path 14662" d="M522.557,231.014a5.139,5.139,0,0,1-1.819.343,2.583,2.583,0,0,1-1.7-.778,2.741,2.741,0,0,1-.731-2.128,2.4,2.4,0,0,1,.132-.58c.086-.178.059-.165.211-.184a2.3,2.3,0,0,1,.586.033l.613.046c.791.059,1.5.105,2.1.138a6.273,6.273,0,0,0,1.977-.04,6.7,6.7,0,0,0-1.917-.4c-.593-.086-1.318-.171-2.089-.264l-.606-.066a5.929,5.929,0,0,0-.659-.059.824.824,0,0,0-.481.171.962.962,0,0,0-.27.4,2.856,2.856,0,0,0-.171.738,3.235,3.235,0,0,0,.942,2.59,2.946,2.946,0,0,0,2.089.81,2.729,2.729,0,0,0,1.437-.4C522.425,231.2,522.576,231.04,522.557,231.014Z" transform="translate(-454.038 -185.52)" fill="#263238"/>
      <path id="Path_14663" data-name="Path 14663" d="M526.936,249.3s-6.642,2.517-13.106.659c0,0,4.876,4.092,13.772,2.524Z" transform="translate(-453.149 -192.098)" fill="#aa6550"/>
      <path id="Path_14664" data-name="Path 14664" d="M489.27,388.23a7.644,7.644,0,0,0,.909-.7c.283-.231.659-.514,1.061-.817s.89-.659,1.45-1.021,1.14-.758,1.819-1.133,1.4-.771,2.168-1.166a33.815,33.815,0,0,1,10.754-3.216c.863-.092,1.68-.2,2.451-.217s1.489-.053,2.141-.046,1.252.04,1.773.059.969.059,1.318.1a6.936,6.936,0,0,0,1.14.079,8.672,8.672,0,0,0-1.127-.211,13.167,13.167,0,0,0-1.318-.158c-.521-.04-1.114-.112-1.779-.112s-1.384-.04-2.161,0-1.608.105-2.478.184A36.045,36.045,0,0,0,501.816,381a34.921,34.921,0,0,0-5.271,2.1c-.771.409-1.516.784-2.168,1.206s-1.272.8-1.812,1.18-1.015.751-1.43,1.067-.758.619-1.028.87A6.942,6.942,0,0,0,489.27,388.23Z" transform="translate(-425.617 -236.557)" fill="#fafafa"/>
      <path id="Path_14665" data-name="Path 14665" d="M420.186,319.737l-5.4-23.412c-1.08-4.6-2.08-10.328-3.74-13.733-1.26-2.593-3.133-3.034-5.1-3.513l.2,1.7-4.613,59.107s17.39,20.3,31.419,13.356c4.389-2.181,12.395-17.5,12.395-17.5S463.972,302.506,463.195,301s-12.157-16.177-13.317-16.908Z" transform="translate(-359.774 -137.315) rotate(-9)" fill="#ff725e"/>
      <path id="Path_14666" data-name="Path 14666" d="M534.166,267.261c-10.741,2.056-22.832,8.322-28.4,24.38-2.029,5.865-16.816,49.1-16.816,49.1l25.218-.527,4.072-8.9-1.977,14.464L514.556,366.4l63.68,1.074-.448-31.075-.613-61.808s-.712-.936-11.7-6.991C558.666,263.834,534.166,267.261,534.166,267.261Z" transform="translate(-487.389 -197.737)" fill="#ff725e"/>
      <g id="Group_979" data-name="Group 979" transform="translate(29.046 110.865)" opacity="0.2">
        <path id="Path_14667" data-name="Path 14667" d="M576.81,330.74c-1.048,13.047-2.247,17.08-3.295,30.126a11.584,11.584,0,0,1-.659,3.624,3.954,3.954,0,0,1-2.636,2.405c-1.858.376-4.27,1.72-4.79-.1l1.759-12.566a24.784,24.784,0,0,1,1.74-5.3c3.908-8.678,5.351-9.185,7.907-18.187" transform="translate(-565.43 -330.74)"/>
      </g>
      <path id="Path_14668" data-name="Path 14668" d="M539.884,270.554l-.211-1.357-2.036-13.021a1.516,1.516,0,0,0-1.621-1.278l-25.073,2.1a2.88,2.88,0,0,0-2.636,3.084l.56,7.565,7.828,10.213,11.274,1.759" transform="translate(-461.788 -194.005)" fill="#ff725e"/>
      <path id="Path_14669" data-name="Path 14669" d="M489.1,315.81c-.1,0-.171,10.2-.171,22.779s.072,22.779.171,22.779.171-10.2.171-22.779S489.194,315.81,489.1,315.81Z" transform="translate(-398.412 -214.783)" fill="#263238"/>
      <path id="Path_14670" data-name="Path 14670" d="M557.071,350.437s0-.046.079-.145a2.649,2.649,0,0,0,.211-.448l.764-1.733,2.748-6.4,8.955-21.158c1.74-4.138,3.393-8.079,4.9-11.67a21.981,21.981,0,0,0,1.621-5.271,29.072,29.072,0,0,0,.435-4.81,19.4,19.4,0,0,0-1-6.886l-.2-.547-.231-.461a4.048,4.048,0,0,0-.4-.7l-.277-.409a1.152,1.152,0,0,0-.105-.132,13.548,13.548,0,0,1,1.087,2.293,19.927,19.927,0,0,1,.883,6.84,25.145,25.145,0,0,1-2.1,9.983l-4.922,11.657-8.863,21.2-2.636,6.438-.705,1.759-.178.461A.8.8,0,0,0,557.071,350.437Z" transform="translate(-530.833 -205.867)" fill="#263238"/>
      <path id="Path_14678" data-name="Path 14678" d="M510.339,268.651a1.047,1.047,0,0,0,.3.079l.876.158c.764.125,1.871.29,3.235.474,2.741.369,6.537.8,10.747,1.114a53.422,53.422,0,0,0,5.93.211,16.818,16.818,0,0,0,4.8-.824,10.67,10.67,0,0,0,2.932-1.483,7.213,7.213,0,0,0,.7-.56c.145-.145.217-.217.211-.231s-.343.264-.982.659a11.763,11.763,0,0,1-2.932,1.357,17.073,17.073,0,0,1-4.744.738,58.662,58.662,0,0,1-5.93-.237c-4.2-.31-7.993-.7-10.734-1.008l-3.249-.369a8.338,8.338,0,0,0-1.166-.079Z" transform="translate(-463.325 -198.336)" fill="#263238"/>
      <path id="Path_14679" data-name="Path 14679" d="M522.466,385.529a17.705,17.705,0,0,0,17.2,21.086l49.914-.554L588.267,389.9l-42.739-6.418" transform="translate(-520.608 -237.863)" fill="#b78876"/>
      <path id="Path_14680" data-name="Path 14680" d="M481.914,392.149a46.223,46.223,0,0,0,5.693-2.412,18.608,18.608,0,0,1,8.764-1.7l11.9.606a5.647,5.647,0,0,1-1.977,2.636c-1.245.659-8.711.87-8.711.87l.382.389a8.566,8.566,0,0,0,5.93,2.6h1.14a11.055,11.055,0,0,0,2.484-.488l2.932-1.186c.89-.4,1.825-.336,2.214.56s.092,1.924-2.333,3.143c-1.351.659-6.372,2.418-6.372,2.418a11.823,11.823,0,0,1-.3,2.122c-.217.731-2.188,1.463-2.188,1.463a26.244,26.244,0,0,1-1.753,3.137,17.912,17.912,0,0,1-3.921,1.357,16.929,16.929,0,0,1-9.377-.073l-4.533-1.357V392.393" transform="translate(-417.313 -239.409)" fill="#b78876"/>
      <path id="Path_14681" data-name="Path 14681" d="M494.97,407.177a13.489,13.489,0,0,0,6-1.581c0-.079-1.318.422-2.985.85S494.963,407.078,494.97,407.177Z" transform="translate(-414.093 -245.403)" fill="#aa6550"/>
      <path id="Path_14682" data-name="Path 14682" d="M498.62,411.763a3.044,3.044,0,0,0,1.674-.125,3.091,3.091,0,0,0,1.5-.738,9.939,9.939,0,0,0-1.581.455A10.718,10.718,0,0,0,498.62,411.763Z" transform="translate(-417.321 -247.215)" fill="#aa6550"/>
      <path id="Path_14683" data-name="Path 14683" d="M494.8,392.66a5.058,5.058,0,0,0,.916.982,14.67,14.67,0,0,0,2.6,1.977,10.228,10.228,0,0,0,3.038,1.173,4.381,4.381,0,0,0,1.318.145,17.351,17.351,0,0,1-4.23-1.575,20.223,20.223,0,0,1-2.6-1.865A7.5,7.5,0,0,0,494.8,392.66Z" transform="translate(-415.675 -240.994)" fill="#aa6550"/>
      <path id="Path_14684" data-name="Path 14684" d="M592.169,384.363l1.212,18.279H546.367a17.56,17.56,0,0,1-9.06-2.511h0a17.581,17.581,0,0,1-8.2-18.45,54.087,54.087,0,0,1,3.031-10.141l23.643,3.894-.758,2.939Z" transform="translate(-528.78 -233.79)" fill="#ff725e"/>
      <path id="Path_14685" data-name="Path 14685" d="M531.71,379.576a3.826,3.826,0,0,0,.474.105l1.377.25,5.08.843,16.711,2.636,16.73,2.563,5.074.738,1.384.185a4.261,4.261,0,0,0,.488.04,2.332,2.332,0,0,0-.481-.112l-1.371-.244-5.061-.85L555.405,383.1l-16.763-2.583-5.074-.738-1.384-.185A2.241,2.241,0,0,0,531.71,379.576Z" transform="translate(-516.357 -236.529)" fill="#263238"/>
    </g>
  </g>
</svg>
