<svg id="Component_Character_Female_G" data-name="Component/Character/Female/G" xmlns="http://www.w3.org/2000/svg" xmlns:xlink="http://www.w3.org/1999/xlink" width="180" height="180" viewBox="0 0 180 180">
  <defs>
    <clipPath id="clip-path">
      <rect id="Rectangle_9935" data-name="Rectangle 9935" width="180" height="180" transform="translate(18250 -18751)" fill="#fff" stroke="#707070" stroke-width="1"/>
    </clipPath>
  </defs>
  <g id="Component_Character_Female_G-2" data-name="Component/Character/Female/G" transform="translate(-18250 18751)" clip-path="url(#clip-path)">
    <g id="character-2--inject-833" transform="translate(17940.6 -18859.902)">
      <path id="Path_106138" data-name="Path 106138" d="M348.074,384.25c-.748,2.243-8.374,94.053-8.374,94.053l20.56,1.4,12.461-86.688Z" transform="translate(4.962 63.461)" fill="#ffbe9d"/>
      <path id="Path_106139" data-name="Path 106139" d="M396.623,131.9c2.206,5.994,3.539,9.968,5.707,14.728,1.246,2.7,2.841,5.42,2.692,8.374-.1,2.044-1.047,3.975-1,6.006.087,3.589,3.14,6.293,5.832,8.648s5.52,5.458,4.984,9c-.237,1.545-1.121,2.941-1.246,4.5a7.714,7.714,0,0,0,1.981,5.209,40.33,40.33,0,0,1,3.514,4.486l.424,2.866L385.77,185.044" transform="translate(16.298 1.368)" fill="#ffa618"/>
      <path id="Path_106140" data-name="Path 106140" d="M389.26,381.44c.573,2.28,6.106,99.921,6.106,99.921l20.5-1.545,1.346-98.376Z" transform="translate(17.157 62.77)" fill="#ffbe9d"/>
      <path id="Path_106141" data-name="Path 106141" d="M415.436,461.776l-.062-2.156-21.843.449.137,7.115h1.346c6.006.2,30.553.611,34.541-.586C433.99,465.3,415.436,461.776,415.436,461.776Z" transform="translate(18.208 82.006)" fill="#ff725e"/>
      <g id="Group_25067" data-name="Group 25067" transform="translate(411.812 543.218)" opacity="0.3">
        <path id="Path_106142" data-name="Path 106142" d="M401.577,466.558a6.953,6.953,0,0,0-2.878-4.249,7.713,7.713,0,0,0-5.109-1.383l.125,5.657Z" transform="translate(-393.59 -460.897)"/>
      </g>
      <g id="Group_25068" data-name="Group 25068" transform="translate(411.875 545.838)" opacity="0.3">
        <path id="Path_106143" data-name="Path 106143" d="M424.48,463s6.517,1.62,5.732,2.617-25.606,1.47-36.572.773v-.449l28.958-.3S423.221,463,424.48,463Z" transform="translate(-393.64 -463)"/>
      </g>
      <path id="Path_106144" data-name="Path 106144" d="M393.38,465.448h1.445l3.962.087c3.339,0,7.95.062,13.046,0s9.719-.262,13.046-.436l3.95-.224,1.072-.075H428.83l-3.95.137c-3.339.125-7.95.274-13.046.361s-9.707.1-13.046.1H393.38Z" transform="translate(18.171 83.281)" fill="#263238"/>
      <path id="Path_106145" data-name="Path 106145" d="M416.906,465.972a7.787,7.787,0,0,1,.7-1.769,7.977,7.977,0,0,1,1.321-1.433,2.829,2.829,0,0,0-1.545,1.308A2.492,2.492,0,0,0,416.906,465.972Z" transform="translate(23.952 82.782)" fill="#263238"/>
      <path id="Path_106146" data-name="Path 106146" d="M411.7,463.338a2.6,2.6,0,0,0,.66-.8c.3-.474.511-.872.449-.91s-.361.311-.673.785S411.64,463.338,411.7,463.338Z" transform="translate(22.676 82.5)" fill="#263238"/>
      <path id="Path_106147" data-name="Path 106147" d="M410.271,462.57a3.287,3.287,0,0,0,.748-.5c.361-.324.635-.611.586-.66s-.386.162-.76.486S410.221,462.52,410.271,462.57Z" transform="translate(22.325 82.445)" fill="#263238"/>
      <path id="Path_106148" data-name="Path 106148" d="M409.34,460.849a2.492,2.492,0,0,0,1.134.112,2.73,2.73,0,0,0,1.134-.125,2.493,2.493,0,0,0-1.134-.112,2.829,2.829,0,0,0-1.134.125Z" transform="translate(22.098 82.273)" fill="#263238"/>
      <path id="Path_106149" data-name="Path 106149" d="M409,459.75a2.343,2.343,0,0,0,1.246.311,2.292,2.292,0,0,0,1.308-.187,9.1,9.1,0,0,0-1.246,0A6.408,6.408,0,0,0,409,459.75Z" transform="translate(22.014 82.038)" fill="#263238"/>
      <path id="Path_106150" data-name="Path 106150" d="M412.26,461.94a4.511,4.511,0,0,0,1.4,0,9.215,9.215,0,0,0,1.483-.324,4.6,4.6,0,0,0,.835-.349.7.7,0,0,0,.336-.411.486.486,0,0,0-.212-.511,2.691,2.691,0,0,0-3.165.748,2.492,2.492,0,0,0-.436.885.685.685,0,0,0,0,.349,3.739,3.739,0,0,1,.611-1.121,2.591,2.591,0,0,1,1.184-.748,2.417,2.417,0,0,1,1.67.075c.224.15.137.4-.1.536a3.6,3.6,0,0,1-.785.324,10.4,10.4,0,0,1-1.433.386C412.783,461.891,412.26,461.9,412.26,461.94Z" transform="translate(22.816 82.128)" fill="#263238"/>
      <path id="Path_106151" data-name="Path 106151" d="M412.919,462.122a1.246,1.246,0,0,0,.137-.91,2.094,2.094,0,0,0-.4-.947,1.445,1.445,0,0,0-1.184-.635.5.5,0,0,0-.411.611,1.246,1.246,0,0,0,.249.573,4.278,4.278,0,0,0,.673.772,2.132,2.132,0,0,0,.81.511,8.925,8.925,0,0,1-.673-.636,4.36,4.36,0,0,1-.6-.76c-.2-.274-.349-.773,0-.835a1.246,1.246,0,0,1,.935.536,1.932,1.932,0,0,1,.411.835,4.644,4.644,0,0,1,.05.885Z" transform="translate(22.518 82.009)" fill="#263238"/>
      <path id="Path_106152" data-name="Path 106152" d="M393.64,460.924a14.461,14.461,0,0,1,1.607,0,7.253,7.253,0,0,1,3.526,1.246,6.567,6.567,0,0,1,2.255,2.841c.361.86.4,1.445.449,1.433a1.047,1.047,0,0,0,0-.411,4.563,4.563,0,0,0-.262-1.084,6.231,6.231,0,0,0-2.268-2.966,6.9,6.9,0,0,0-3.676-1.246,5.545,5.545,0,0,0-1.246,0A3.651,3.651,0,0,0,393.64,460.924Z" transform="translate(18.235 82.273)" fill="#263238"/>
      <path id="Path_106153" data-name="Path 106153" d="M402.12,463.832a12.806,12.806,0,0,0,3.177.237,12.322,12.322,0,0,0,3.177-.3H405.3A28.994,28.994,0,0,0,402.12,463.832Z" transform="translate(20.321 83.028)" fill="#263238"/>
      <path id="Path_106154" data-name="Path 106154" d="M398.7,463.882s.125.274.274.573.237.573.311.561.1-.312-.075-.66S398.75,463.832,398.7,463.882Z" transform="translate(19.48 83.053)" fill="#263238"/>
      <path id="Path_106155" data-name="Path 106155" d="M397.38,462.412a1.146,1.146,0,0,0,.324.461c.237.2.449.349.511.3s-.1-.262-.324-.473S397.43,462.362,397.38,462.412Z" transform="translate(19.155 82.691)" fill="#263238"/>
      <path id="Path_106156" data-name="Path 106156" d="M395.52,461.785c0,.075.3.062.623.162s.561.249.611.212-.125-.324-.523-.449S395.5,461.722,395.52,461.785Z" transform="translate(18.697 82.508)" fill="#263238"/>
      <path id="Path_106157" data-name="Path 106157" d="M394.2,461.481a.586.586,0,0,0,.287.224c.187.062.349.062.374,0s-.112-.174-.287-.237S394.225,461.418,394.2,461.481Z" transform="translate(18.373 82.451)" fill="#263238"/>
      <path id="Path_106158" data-name="Path 106158" d="M323.567,246.127a20.722,20.722,0,0,1,2.293-27.189l36-34.728,6.853,25.382c-.636.361-27.874,25.208-27.874,25.208l19.376,28.6a15.513,15.513,0,0,1,1.371,14.953l-1.246,3.875a9.532,9.532,0,0,1-13.632,5.333l-5.844-3.2a1.246,1.246,0,0,1-.4-1.919h0a1.321,1.321,0,0,1,1.121-.5l8.211.673a3.738,3.738,0,0,0,3.863-2.492h0Z" transform="translate(0 14.239)" fill="#f4d3bd"/>
      <path id="Path_106159" data-name="Path 106159" d="M337.938,226.576c-1.433-2.118-3.277-4.012-4.747-5.906" transform="translate(3.36 23.211)" fill="#ffbe9d"/>
      <path id="Path_106160" data-name="Path 106160" d="M422.113,217.673l8.062,14.591,4.984-39.65a15.987,15.987,0,0,0-1.645-8.336,17.445,17.445,0,0,0-2.006-3.227,17.883,17.883,0,0,0-3.452-3.24,1.445,1.445,0,0,1,.249-2.729c1.246-.137,4.822,1.757,7.6,5.557s3.065-3.514,3.215-6.23,1.022-10.853,1.869-11.426c1.246-.847,2.43.361,2.206,3s-.3,10.654,1.1,10.7,1.994-13.495,1.994-13.495-.336-2.928,1.246-2.916c2.928,0,1.246,14.33,1.034,15.688-.137.947,1.383,1.047,1.47,0s.3-13.532,3.277-13.557c2.28,0-1.246,11.8.1,14.454s1.794-9.258,3.987-9.183c.81,0,1.421.162.2,6.941-.648,3.639-3.053,8.884-3.738,16l-.2,1.844s-4.112,34.753-10.218,55.936c-3.651,12.685-21.656,13.931-28.971,2.928-4.984-7.476-12.785-26.99-12.785-26.99Z" transform="translate(20.216 8.351)" fill="#f4d3bd"/>
      <path id="Path_106161" data-name="Path 106161" d="M443.092,181.855c0,.062-.461.062-1.159.3a4.237,4.237,0,0,0-2.255,1.869l-.274.5-.162-.561a6.829,6.829,0,0,0-1.072-2.156,7.863,7.863,0,0,0-3.738-2.754c-1.159-.411-1.944-.386-1.931-.486a3.813,3.813,0,0,1,2.031.137,7.477,7.477,0,0,1,4.05,2.8,6.79,6.79,0,0,1,1.121,2.33h-.436a4.174,4.174,0,0,1,2.579-1.906,2.081,2.081,0,0,1,1.246-.075Z" transform="translate(27.797 12.831)" fill="#eb996e"/>
      <path id="Path_106162" data-name="Path 106162" d="M341.564,461.706l.062-2.156L363.47,460l-.137,7.115h-1.346c-6.006.2-30.566.611-34.541-.6C323,465.22,341.564,461.706,341.564,461.706Z" transform="translate(1.778 81.989)" fill="#ff725e"/>
      <g id="Group_25069" data-name="Group 25069" transform="translate(357.235 543.129)" opacity="0.3">
        <path id="Path_106163" data-name="Path 106163" d="M349.79,466.488a7.04,7.04,0,0,1,2.866-4.262,7.75,7.75,0,0,1,5.121-1.371l-.125,5.645Z" transform="translate(-349.79 -460.826)"/>
      </g>
      <g id="Group_25070" data-name="Group 25070" transform="translate(328.46 545.714)" opacity="0.3">
        <path id="Path_106164" data-name="Path 106164" d="M332.495,462.9s-6.517,1.607-5.732,2.617,25.619,1.458,36.584.773v-.461l-28.983-.312S333.766,463.025,332.495,462.9Z" transform="translate(-326.697 -462.9)"/>
      </g>
      <path id="Path_106165" data-name="Path 106165" d="M363.658,465.38H362.2l-3.95.087c-3.339,0-7.962.062-13.059,0s-9.707-.274-13.046-.436l-3.95-.224-1.072-.087h1.084l3.95.15c3.339.125,7.95.274,13.046.361s9.707.1,13.046.1h4.984Z" transform="translate(1.776 83.261)" fill="#263238"/>
      <path id="Path_106166" data-name="Path 106166" d="M333.249,465.9a8.273,8.273,0,0,0-.7-1.769,8.525,8.525,0,0,0-1.321-1.433,2.915,2.915,0,0,1,1.545,1.308A2.6,2.6,0,0,1,333.249,465.9Z" transform="translate(2.878 82.764)" fill="#263238"/>
      <path id="Path_106167" data-name="Path 106167" d="M338.271,463.268a2.6,2.6,0,0,1-.673-.785c-.312-.474-.5-.885-.436-.922s.361.324.66.8S338.334,463.23,338.271,463.268Z" transform="translate(4.335 82.483)" fill="#263238"/>
      <path id="Path_106168" data-name="Path 106168" d="M339.745,462.49a3.182,3.182,0,0,1-.76-.486c-.374-.324-.623-.623-.573-.673s.386.174.76.5S339.794,462.44,339.745,462.49Z" transform="translate(4.644 82.426)" fill="#263238"/>
      <path id="Path_106169" data-name="Path 106169" d="M340.86,460.78a3.065,3.065,0,0,1-1.146.112,2.492,2.492,0,0,1-1.134-.137,2.964,2.964,0,0,1,1.134-.112A2.742,2.742,0,0,1,340.86,460.78Z" transform="translate(4.687 82.255)" fill="#263238"/>
      <path id="Path_106170" data-name="Path 106170" d="M341.249,459.67a3.389,3.389,0,0,1-2.579.137,6.588,6.588,0,0,1,1.246,0A9.979,9.979,0,0,1,341.249,459.67Z" transform="translate(4.709 82.019)" fill="#263238"/>
      <path id="Path_106171" data-name="Path 106171" d="M338.294,461.871a4.51,4.51,0,0,1-1.4,0,9.1,9.1,0,0,1-1.483-.336,3.87,3.87,0,0,1-.847-.336.7.7,0,0,1-.336-.411.486.486,0,0,1,.224-.511,2.667,2.667,0,0,1,3.153.748,2.344,2.344,0,0,1,.436.872v.361a3.253,3.253,0,0,0-.611-1.121,2.491,2.491,0,0,0-1.171-.748,2.28,2.28,0,0,0-1.67.075c-.224.149-.149.4.1.536a4.217,4.217,0,0,0,.773.324,11.217,11.217,0,0,0,1.433.374A11.6,11.6,0,0,1,338.294,461.871Z" transform="translate(3.615 82.111)" fill="#263238"/>
      <path id="Path_106172" data-name="Path 106172" d="M337.236,462.04a1.171,1.171,0,0,1-.15-.9,2.081,2.081,0,0,1,.411-.947,1.383,1.383,0,0,1,1.171-.636.511.511,0,0,1,.424.6,1.57,1.57,0,0,1-.249.586,4.775,4.775,0,0,1-.685.773,2.132,2.132,0,0,1-.81.511s.287-.237.685-.635a4.63,4.63,0,0,0,.6-.773c.2-.274.336-.76,0-.822a1.246,1.246,0,0,0-.935.536,2.08,2.08,0,0,0-.411.835A5.078,5.078,0,0,0,337.236,462.04Z" transform="translate(4.311 81.992)" fill="#263238"/>
      <path id="Path_106173" data-name="Path 106173" d="M357.658,460.845a10.934,10.934,0,0,0-1.607,0,7.476,7.476,0,0,0-3.539,1.246,6.591,6.591,0,0,0-2.255,2.841,12.471,12.471,0,0,0-.436,1.433v-.411a5.275,5.275,0,0,1,.262-1.084,6.231,6.231,0,0,1,2.268-2.978,7.2,7.2,0,0,1,3.738-1.246,6.614,6.614,0,0,1,1.246,0,1.849,1.849,0,0,1,.324.2Z" transform="translate(7.452 82.252)" fill="#263238"/>
      <path id="Path_106174" data-name="Path 106174" d="M348.885,463.769a13.828,13.828,0,0,1-3.19.237,12.859,12.859,0,0,1-3.165-.3c0-.075,1.421,0,3.177,0A25.711,25.711,0,0,1,348.885,463.769Z" transform="translate(5.659 83.004)" fill="#263238"/>
      <path id="Path_106175" data-name="Path 106175" d="M351.178,463.812s-.125.274-.274.573-.237.573-.311.561-.112-.324.075-.66S351.115,463.762,351.178,463.812Z" transform="translate(7.627 83.036)" fill="#263238"/>
      <path id="Path_106176" data-name="Path 106176" d="M352.537,462.342a1.453,1.453,0,0,1-.324.461c-.224.212-.461.336-.511.287s.1-.249.324-.461S352.487,462.292,352.537,462.342Z" transform="translate(7.913 82.674)" fill="#263238"/>
      <path id="Path_106177" data-name="Path 106177" d="M354.478,461.714c0,.075-.311.062-.635.162s-.548.249-.611.2.137-.324.536-.436S354.5,461.651,354.478,461.714Z" transform="translate(8.289 82.492)" fill="#263238"/>
      <path id="Path_106178" data-name="Path 106178" d="M355.681,461.4c0,.062-.1.174-.287.224s-.349.062-.374,0,.1-.162.287-.224S355.656,461.337,355.681,461.4Z" transform="translate(8.731 82.433)" fill="#263238"/>
      <path id="Path_106179" data-name="Path 106179" d="M367.516,241.874,353.1,275.517,336.24,461.18l43.363,4.685L393.7,305.684l4.262,161.452,39.774-1.246-5.844-190.111A36.659,36.659,0,0,0,428.149,261l-9.557-19.551Z" transform="translate(4.111 28.324)" fill="#263238"/>
      <path id="Path_106180" data-name="Path 106180" d="M387.173,291.741a1.659,1.659,0,0,1-.4.336,2.779,2.779,0,0,1-1.445.4,4.522,4.522,0,0,1-2.305-.636,5.084,5.084,0,0,1-2.056-2.4c-.984-2.218-.76-5.047-.835-8.037s0-6.355-.062-9.844V253.674c0-2.206.062-4.025.075-5.42a11.088,11.088,0,0,1,.125-1.994,13.559,13.559,0,0,1,.137,1.994c0,1.4.075,3.215.125,5.42.075,4.573.137,10.891.174,17.881V281.4c0,3.04-.212,5.794.66,7.863a4.561,4.561,0,0,0,3.938,2.966A3.738,3.738,0,0,0,387.173,291.741Z" transform="translate(14.896 29.507)" fill="#455a64"/>
      <path id="Path_106181" data-name="Path 106181" d="M415.248,260.8a3.577,3.577,0,0,1-1.072.586,12.908,12.908,0,0,1-3.2.9,13.831,13.831,0,0,1-4.984-.2,20.547,20.547,0,0,1-5.645-2.156,17.931,17.931,0,0,1-7.476-7.9,15.884,15.884,0,0,1-1.134-3.128,4.236,4.236,0,0,1-.174-1.246,40.808,40.808,0,0,0,1.72,4.124,18.691,18.691,0,0,0,7.352,7.539,22.277,22.277,0,0,0,5.47,2.143,14.255,14.255,0,0,0,4.76.312,27.216,27.216,0,0,0,4.386-.972Z" transform="translate(17.723 29.849)" fill="#455a64"/>
      <path id="Path_106182" data-name="Path 106182" d="M373.488,248.06a3.35,3.35,0,0,1,0,1.159,15.477,15.477,0,0,1-.623,3.1,17.893,17.893,0,0,1-15.364,12.6,15.671,15.671,0,0,1-3.165,0,3.566,3.566,0,0,1-1.146-.212c0-.125,1.657.112,4.262-.262A18.429,18.429,0,0,0,372.4,252.172C373.276,249.7,373.364,248.048,373.488,248.06Z" transform="translate(8.282 29.95)" fill="#455a64"/>
      <path id="Path_106183" data-name="Path 106183" d="M384.186,245.688a.744.744,0,0,1,.461-.087,1.844,1.844,0,0,1,1.146.548,2.206,2.206,0,0,1,.648,1.807,2.168,2.168,0,0,1-3.888.773,2.143,2.143,0,0,1-.087-1.919,1.844,1.844,0,0,1,.847-.947c.274-.137.449-.125.449-.087a2.164,2.164,0,0,0-.872,1.246,1.769,1.769,0,0,0,.174,1.445,1.5,1.5,0,0,0,1.558.561,1.52,1.52,0,0,0,1.246-1.121,1.794,1.794,0,0,0-.4-1.4C384.872,245.738,384.186,245.8,384.186,245.688Z" transform="translate(15.44 29.344)" fill="#455a64"/>
      <path id="Path_106184" data-name="Path 106184" d="M379.528,413.467a7.67,7.67,0,0,1-1.657,0c-1.059,0-2.6-.162-4.5-.311-3.738-.3-9.046-.81-14.816-1.52s-10.978-1.5-14.741-2.131c-1.882-.311-3.4-.586-4.448-.8a8.956,8.956,0,0,1-1.607-.386,7.156,7.156,0,0,1,1.657.137l4.461.6c3.738.511,9,1.246,14.753,1.931s11,1.246,14.778,1.707l4.486.511A7.66,7.66,0,0,1,379.528,413.467Z" transform="translate(4.485 69.383)" fill="#455a64"/>
      <path id="Path_106185" data-name="Path 106185" d="M423.537,411.025a6.228,6.228,0,0,1-1.508.15l-4.1.174c-3.464.15-8.236.4-13.507.81s-10.031.922-13.47,1.321l-4.075.461a8.027,8.027,0,0,1-1.508.1,6.42,6.42,0,0,1,1.47-.349c.947-.187,2.343-.411,4.05-.673,3.439-.511,8.2-1.084,13.482-1.508s10.081-.586,13.545-.611h4.112a8.155,8.155,0,0,1,1.508.125Z" transform="translate(16.2 70.018)" fill="#455a64"/>
      <path id="Path_106186" data-name="Path 106186" d="M412.784,405.54a15.4,15.4,0,0,1,.262,6.23,7.477,7.477,0,0,1-.461-3.09,7.987,7.987,0,0,1,.2-3.14Z" transform="translate(22.878 68.7)" fill="#455a64"/>
      <path id="Path_106187" data-name="Path 106187" d="M412.372,395.55a7.476,7.476,0,0,1,.461,3.09,7.987,7.987,0,0,1-.2,3.128,7.477,7.477,0,0,1-.448-3.1A7.813,7.813,0,0,1,412.372,395.55Z" transform="translate(22.779 66.241)" fill="#455a64"/>
      <path id="Path_106188" data-name="Path 106188" d="M411.975,385.55a15.152,15.152,0,0,1,.249,6.23,7.714,7.714,0,0,1-.449-3.1,7.476,7.476,0,0,1,.2-3.128Z" transform="translate(22.677 63.781)" fill="#455a64"/>
      <path id="Path_106189" data-name="Path 106189" d="M411.565,375.56a7.986,7.986,0,0,1,.449,3.1,7.476,7.476,0,0,1-.2,3.128,8.05,8.05,0,0,1-.449-3.1A7.476,7.476,0,0,1,411.565,375.56Z" transform="translate(22.576 61.323)" fill="#455a64"/>
      <path id="Path_106190" data-name="Path 106190" d="M411.153,365.57a7.688,7.688,0,0,1,.449,3.09,7.475,7.475,0,0,1-.2,3.128,7.948,7.948,0,0,1-.449-3.09,8.035,8.035,0,0,1,.2-3.128Z" transform="translate(22.478 58.865)" fill="#455a64"/>
      <path id="Path_106191" data-name="Path 106191" d="M410.742,355.58a7.564,7.564,0,0,1,.461,3.09,7.987,7.987,0,0,1-.2,3.128,7.378,7.378,0,0,1-.449-3.09A7.864,7.864,0,0,1,410.742,355.58Z" transform="translate(22.378 56.407)" fill="#455a64"/>
      <path id="Path_106192" data-name="Path 106192" d="M410.345,345.59a7.889,7.889,0,0,1,.448,3.09,7.986,7.986,0,0,1-.2,3.128,7.714,7.714,0,0,1-.449-3.1,7.476,7.476,0,0,1,.2-3.115Z" transform="translate(22.276 53.948)" fill="#455a64"/>
      <path id="Path_106193" data-name="Path 106193" d="M409.934,335.59a8.049,8.049,0,0,1,.449,3.1,7.475,7.475,0,0,1-.2,3.128,7.987,7.987,0,0,1-.449-3.1,7.762,7.762,0,0,1,.2-3.128Z" transform="translate(22.176 51.488)" fill="#455a64"/>
      <path id="Path_106194" data-name="Path 106194" d="M409.523,325.6a7.776,7.776,0,0,1,.449,3.1,7.9,7.9,0,0,1-.187,3.128,7.652,7.652,0,0,1-.461-3.1,8.036,8.036,0,0,1,.2-3.128Z" transform="translate(22.077 49.03)" fill="#455a64"/>
      <path id="Path_106195" data-name="Path 106195" d="M409.112,315.61a7.65,7.65,0,0,1,.461,3.1,8.037,8.037,0,0,1-.2,3.128,7.474,7.474,0,0,1-.449-3.1,7.9,7.9,0,0,1,.187-3.128Z" transform="translate(21.977 46.572)" fill="#455a64"/>
      <path id="Path_106196" data-name="Path 106196" d="M408.715,305.62a15.152,15.152,0,0,1,.249,6.23,7.774,7.774,0,0,1-.449-3.1,7.475,7.475,0,0,1,.2-3.128Z" transform="translate(21.875 44.113)" fill="#455a64"/>
      <path id="Path_106197" data-name="Path 106197" d="M408.3,295.63a7.988,7.988,0,0,1,.448,3.1,7.389,7.389,0,0,1-.2,3.115,7.888,7.888,0,0,1-.449-3.09,7.726,7.726,0,0,1,.2-3.128Z" transform="translate(21.775 41.655)" fill="#455a64"/>
      <path id="Path_106198" data-name="Path 106198" d="M407.893,285.64a7.377,7.377,0,0,1,.449,3.09,7.863,7.863,0,0,1-.187,3.128,7.476,7.476,0,0,1-.461-3.09A7.988,7.988,0,0,1,407.893,285.64Z" transform="translate(21.675 39.197)" fill="#455a64"/>
      <path id="Path_106199" data-name="Path 106199" d="M407.482,275.65a7.475,7.475,0,0,1,.461,3.09,7.987,7.987,0,0,1-.2,3.128,7.477,7.477,0,0,1-.448-3.1,7.776,7.776,0,0,1,.187-3.115Z" transform="translate(21.575 36.739)" fill="#455a64"/>
      <path id="Path_106200" data-name="Path 106200" d="M407.055,265.65a15.151,15.151,0,0,1,.249,6.23,7.713,7.713,0,0,1-.449-3.1A7.478,7.478,0,0,1,407.055,265.65Z" transform="translate(21.467 34.278)" fill="#455a64"/>
      <path id="Path_106201" data-name="Path 106201" d="M406.817,259c.174,0,.336.436.361,1s-.1,1.009-.287,1.022-.336-.436-.361-1S406.63,259,406.817,259Z" transform="translate(21.406 32.642)" fill="#455a64"/>
      <path id="Path_106202" data-name="Path 106202" d="M342.242,404a8.013,8.013,0,0,1,0,3.128,7.564,7.564,0,0,1-.623,3.078,15.4,15.4,0,0,1,.586-6.23Z" transform="translate(5.411 68.316)" fill="#455a64"/>
      <path id="Path_106203" data-name="Path 106203" d="M343.153,394.06a7.551,7.551,0,0,1,0,3.14,7.838,7.838,0,0,1-.611,3.065,7.475,7.475,0,0,1,0-3.128A7.938,7.938,0,0,1,343.153,394.06Z" transform="translate(5.621 65.875)" fill="#455a64"/>
      <path id="Path_106204" data-name="Path 106204" d="M344.147,384.11a15.4,15.4,0,0,1-.586,6.23,7.812,7.812,0,0,1,0-3.14,7.476,7.476,0,0,1,.586-3.09Z" transform="translate(5.873 63.427)" fill="#455a64"/>
      <path id="Path_106205" data-name="Path 106205" d="M345.042,374.155a8.038,8.038,0,0,1,0,3.128,7.563,7.563,0,0,1-.623,3.078,15.4,15.4,0,0,1,.586-6.23Z" transform="translate(6.1 60.971)" fill="#455a64"/>
      <path id="Path_106206" data-name="Path 106206" d="M345.983,364.2a7.477,7.477,0,0,1,0,3.128,7.838,7.838,0,0,1-.611,3.065,7.476,7.476,0,0,1,0-3.128A7.838,7.838,0,0,1,345.983,364.2Z" transform="translate(6.317 58.527)" fill="#455a64"/>
      <path id="Path_106207" data-name="Path 106207" d="M346.916,354.24a15.4,15.4,0,0,1-.586,6.23,8.086,8.086,0,0,1,0-3.14A7.539,7.539,0,0,1,346.916,354.24Z" transform="translate(6.556 56.077)" fill="#455a64"/>
      <path id="Path_106208" data-name="Path 106208" d="M347.842,344.285a8.088,8.088,0,0,1,0,3.14,7.538,7.538,0,0,1-.623,3.065,15.4,15.4,0,0,1,.586-6.23Z" transform="translate(6.789 53.621)" fill="#455a64"/>
      <path id="Path_106209" data-name="Path 106209" d="M348.783,334.33a7.475,7.475,0,0,1,0,3.128,7.837,7.837,0,0,1-.611,3.065,7.478,7.478,0,0,1,0-3.128A7.838,7.838,0,0,1,348.783,334.33Z" transform="translate(7.006 51.178)" fill="#455a64"/>
      <path id="Path_106210" data-name="Path 106210" d="M349.716,324.37a15.4,15.4,0,0,1-.586,6.23,8.086,8.086,0,0,1,0-3.14A7.538,7.538,0,0,1,349.716,324.37Z" transform="translate(7.245 48.727)" fill="#455a64"/>
      <path id="Path_106211" data-name="Path 106211" d="M350.642,314.415a7.812,7.812,0,0,1,0,3.14,7.477,7.477,0,0,1-.623,3.065,15.4,15.4,0,0,1,.586-6.23Z" transform="translate(7.478 46.271)" fill="#455a64"/>
      <path id="Path_106212" data-name="Path 106212" d="M351.583,304.46a7.474,7.474,0,0,1,0,3.128,7.937,7.937,0,0,1-.611,3.078,7.55,7.55,0,0,1,0-3.14,7.837,7.837,0,0,1,.611-3.065Z" transform="translate(7.695 43.828)" fill="#455a64"/>
      <path id="Path_106213" data-name="Path 106213" d="M352.516,294.5a15.4,15.4,0,0,1-.586,6.23,8.01,8.01,0,0,1,0-3.128A7.564,7.564,0,0,1,352.516,294.5Z" transform="translate(7.934 41.377)" fill="#455a64"/>
      <path id="Path_106214" data-name="Path 106214" d="M353.442,284.545a7.814,7.814,0,0,1,0,3.14,7.477,7.477,0,0,1-.623,3.065,15.4,15.4,0,0,1,.586-6.23Z" transform="translate(8.167 38.922)" fill="#455a64"/>
      <path id="Path_106215" data-name="Path 106215" d="M354.383,274.59a7.474,7.474,0,0,1,0,3.128,7.937,7.937,0,0,1-.611,3.078,7.551,7.551,0,0,1,0-3.14,7.837,7.837,0,0,1,.611-3.065Z" transform="translate(8.384 36.478)" fill="#455a64"/>
      <path id="Path_106216" data-name="Path 106216" d="M355.317,264.63a15.339,15.339,0,0,1-.586,6.23,7.875,7.875,0,0,1,0-3.128,7.476,7.476,0,0,1,.586-3.1Z" transform="translate(8.622 34.027)" fill="#455a64"/>
      <path id="Path_106217" data-name="Path 106217" d="M419.257,257.525s.411-35.488.349-36.136l22.94-2.642s-7-26.516-10.853-31.475c-9.968-12.9-25.943-10.616-25.943-10.616l-23.675-.274a19.226,19.226,0,0,0-2.019-.349,24.435,24.435,0,0,0-19.3,6.23l-26.915,24.4,21.432,19.588,9.881-8.062,2.941,39.724Z" transform="translate(3.52 12.187)" fill="#ff725e"/>
      <path id="Path_106218" data-name="Path 106218" d="M432.082,199.26c.1.149-15.962,10.38-35.862,22.84s-36.136,22.429-36.21,22.292,15.962-10.38,35.862-22.84S431.995,199.111,432.082,199.26Z" transform="translate(9.96 17.942)" fill="#263238"/>
      <path id="Path_106219" data-name="Path 106219" d="M405.448,176.94c.15.112-9.968,13.707-22.616,30.466s-23,30.192-23.152,30.08,9.968-13.707,22.628-30.466S405.311,176.828,405.448,176.94Z" transform="translate(9.878 12.45)" fill="#263238"/>
      <path id="Path_106220" data-name="Path 106220" d="M350.917,199.932c.162-4.66-2.23-9.445-.548-13.794,1.246-3.227,4.71-5.171,6.106-8.336s.5-6.592,0-9.881-.673-7.115,1.657-9.52c1.919-1.969,4.984-2.4,7.015-4.262a9.968,9.968,0,0,0,2.667-6.816c.162-2.492-.125-4.984.2-7.476a15.962,15.962,0,0,1,8.548-12.037,12.162,12.162,0,0,1,14.591,2.293l-15.389,58.465a59.548,59.548,0,0,0-24.846,11.364Z" transform="translate(7.439)" fill="#ffa618"/>
      <path id="Path_106222" data-name="Path 106222" d="M390.62,186.072c-.523-6.542-8.062-2.567-7.227-9.071a274.452,274.452,0,0,0,2.118-44.21" transform="translate(15.697 1.587)" fill="#263238"/>
      <path id="Path_106223" data-name="Path 106223" d="M372.306,186.568l-2.916-44.7c7.476-10.23,17.445-12.4,29.731-8.722,0,0,5.2,21.594,4.573,31.924-.635,10.816-8.722,12.984-8.722,12.984s.287,3.638.673,8.1c2.081.336,5.433.885,7.713,1.458.872.212-17.358,24.734-17.358,24.734l-21.27-23.04A29.494,29.494,0,0,1,372.306,186.568Z" transform="translate(11.121 1.265)" fill="#f4d3bd"/>
      <path id="Path_106224" data-name="Path 106224" d="M392.128,146.318a1.03,1.03,0,0,1-.867,1.14.934.934,0,0,1-.729-.165.994.994,0,0,1-.393-.655,1.049,1.049,0,0,1,.867-1.15A.98.98,0,0,1,392.128,146.318Z" transform="translate(19.372 5.67)" fill="#263238"/>
      <path id="Path_106225" data-name="Path 106225" d="M394.716,145.667c-.162.187-1.246-.474-2.741-.324s-2.492.984-2.654.822.062-.411.5-.8a3.738,3.738,0,0,1,4.3-.4C394.6,145.268,394.791,145.579,394.716,145.667Z" transform="translate(17.159 4.461)" fill="#263238"/>
      <path id="Path_106226" data-name="Path 106226" d="M380.067,147.719a1.03,1.03,0,0,1-.866,1.141.942.942,0,0,1-.729-.172,1,1,0,0,1-.393-.658,1.03,1.03,0,0,1,.866-1.141.942.942,0,0,1,.729.172A1,1,0,0,1,380.067,147.719Z" transform="translate(16.404 5.866)" fill="#263238"/>
      <path id="Path_106227" data-name="Path 106227" d="M382.637,147.048c-.15.187-1.246-.473-2.741-.324s-2.492.984-2.654.822,0-.411.5-.8a3.738,3.738,0,0,1,2.106-.885,3.526,3.526,0,0,1,2.193.486C382.525,146.649,382.712,146.96,382.637,147.048Z" transform="translate(14.185 4.799)" fill="#263238"/>
      <path id="Path_106228" data-name="Path 106228" d="M387.222,157.346a9.867,9.867,0,0,1,2.343-.66c.374-.075.723-.187.76-.449a1.944,1.944,0,0,0-.361-1.1c-.436-.872-.91-1.782-1.4-2.741a48.876,48.876,0,0,1-3.227-7.24,49.147,49.147,0,0,1,3.813,6.953c.461.972.91,1.894,1.346,2.779a2.23,2.23,0,0,1,.336,1.458.984.984,0,0,1-.561.611,3.81,3.81,0,0,1-.635.15,9.333,9.333,0,0,1-2.417.237Z" transform="translate(16.192 4.631)" fill="#263238"/>
      <path id="Path_106229" data-name="Path 106229" d="M391.894,169.3a27.214,27.214,0,0,1-14.654-2.4s4.187,6.978,14.753,4.984Z" transform="translate(14.199 9.98)" fill="#eaae94"/>
      <path id="Path_106230" data-name="Path 106230" d="M387.489,158a2.666,2.666,0,0,0-2.492-.76,2.492,2.492,0,0,0-1.582,1.059,1.558,1.558,0,0,0,0,1.769,1.794,1.794,0,0,0,1.981.3,5.781,5.781,0,0,0,1.77-1.308,1.744,1.744,0,0,0,.374-.474.511.511,0,0,0-.062-.548" transform="translate(15.651 7.589)" fill="#eb996e"/>
      <path id="Path_106231" data-name="Path 106231" d="M383.494,156.1c.237,0,.4,1.558,1.869,2.554s3.165.66,3.19.885-.336.349-1.059.436a4.025,4.025,0,0,1-2.654-.648,3.427,3.427,0,0,1-1.47-2.156C383.245,156.511,383.382,156.1,383.494,156.1Z" transform="translate(15.695 7.323)" fill="#263238"/>
      <path id="Path_106232" data-name="Path 106232" d="M389.6,143.86c.087.224,1.1,0,2.33,0s2.255.187,2.343,0-.935-.822-2.343-.81S389.5,143.648,389.6,143.86Z" transform="translate(17.239 4.112)" fill="#263238"/>
      <path id="Path_106233" data-name="Path 106233" d="M377.777,144.5v-.037a10.551,10.551,0,0,1,2.305-.573c1.383-.137,2.492.312,2.617.1s-.174-.349-.648-.586a3.837,3.837,0,0,0-2.044-.349,3.439,3.439,0,0,0-2.417,1.146l-.1.174h0C377.64,144.5,377.727,144.524,377.777,144.5Z" transform="translate(14.261 4.107)" fill="#263238"/>
      <path id="Path_106234" data-name="Path 106234" d="M377.443,152.053c.125,0,.237-.15.262-.361s0-.4-.162-.411-.237.15-.262.361S377.331,152.04,377.443,152.053Z" transform="translate(14.208 6.137)" fill="#eb996e"/>
      <path id="Path_106235" data-name="Path 106235" d="M380.184,151.9c.112,0,.2-.2.112-.4s-.287-.274-.374-.2-.075.224,0,.361S380.034,151.916,380.184,151.9Z" transform="translate(14.844 6.136)" fill="#eb996e"/>
      <path id="Path_106236" data-name="Path 106236" d="M378.707,153.1a.237.237,0,0,0,.187-.274.249.249,0,0,0-.224-.249.262.262,0,0,0-.2.274C378.483,152.941,378.582,153.1,378.707,153.1Z" transform="translate(14.502 6.457)" fill="#eb996e"/>
      <path id="Path_106237" data-name="Path 106237" d="M394.153,151.4c.112,0,.187-.2.162-.411s-.137-.361-.262-.349-.187.2-.162.411S394.028,151.413,394.153,151.4Z" transform="translate(18.295 5.979)" fill="#eb996e"/>
      <path id="Path_106238" data-name="Path 106238" d="M391.415,151.433c.125,0,.212-.15.2-.324s-.112-.312-.224-.3a.284.284,0,0,0-.2.324C391.2,151.309,391.3,151.433,391.415,151.433Z" transform="translate(17.632 6.021)" fill="#eb996e"/>
      <path id="Path_106239" data-name="Path 106239" d="M392.739,152.32c.125,0,.224-.174.224-.386s-.1-.374-.212-.374-.212.162-.212.374S392.627,152.32,392.739,152.32Z" transform="translate(17.964 6.206)" fill="#eb996e"/>
      <path id="Path_106240" data-name="Path 106240" d="M384.675,129.157a23.787,23.787,0,0,0,6.043,13.869c3.452,3.8,7.364,7.115,12.461,8.037-1.371-4.361-1.67-7.863-2.779-11.489s-2.667-7.289-5.508-9.806A12.872,12.872,0,0,0,381.61,127.6" transform="translate(15.275 0.074)" fill="#ffa618"/>
      <path id="Path_106245" data-name="Path 106245" d="M360.123,194.806c.561-4.885,1.52-6.916,1.5-11.838,0-4.511,4.149-10.517,1.57-15.825a60.153,60.153,0,0,1,3.576-9.744c.86-1.956,4-7.888,4.8-9.881-.511-3.676-3.153-3.4-2.642-7.053.6-4.386,2.667-8.785,6.4-11.215a17.931,17.931,0,0,1,7.888-2.392,16.3,16.3,0,0,1,5.769.262,7.564,7.564,0,0,1,4.6,3.277l-.972-.922a13.819,13.819,0,0,1-3.24,11.663,20.311,20.311,0,0,1-10.629,6.23,8.173,8.173,0,0,1-.9,3.95l.1.137-.237.125a8.554,8.554,0,0,1-.9,1.246,7.476,7.476,0,0,1-1.558,1.383,6.006,6.006,0,0,0,0,5.321c1.009,1.906,3.065,3.265,3.477,5.383.474,2.38-1.346,4.66-1.246,7.078a7.688,7.688,0,0,0,1.246,3.614c4.4,5.645,3.626,11.464,1.134,18.168-.922,2.492-2.343,5.109-1.62,7.663s3.115,4,3.875,6.392c1.072,3.315-1.383,6.642-3.676,9.271a78.042,78.042,0,0,0-15.214-4.984A27.711,27.711,0,0,0,364,205.4a5.844,5.844,0,0,1-10.928,1.657C357.344,204.774,359.562,199.7,360.123,194.806Z" transform="translate(8.252 0.092)" fill="#ffa618"/>
      <g id="Group_25071" data-name="Group 25071">
        <path id="Path_106221" data-name="Path 106221" d="M351.074,172.514a3.211,3.211,0,0,0-.411.324,2.168,2.168,0,0,0-.66,1.246,2.38,2.38,0,0,0,.66,2.081,2.891,2.891,0,0,0,2.816.5,3.738,3.738,0,0,0,2.38-2.592,7.364,7.364,0,0,0-.125-4.237c-.411-1.5-1.121-2.978-1.67-4.648a10.716,10.716,0,0,1-.386-5.383,11.09,11.09,0,0,1,6.118-8.1c1.445-.685,2.891-1.121,4.124-1.707a7.8,7.8,0,0,0,2.991-2.268,8.112,8.112,0,0,0,1.769-5.109,17.893,17.893,0,0,0-.212-2.031,4.363,4.363,0,0,1,.212.5,6.557,6.557,0,0,1,.262,1.533,8.237,8.237,0,0,1-1.67,5.4,8.324,8.324,0,0,1-3.115,2.492c-1.246.623-2.716,1.084-4.112,1.757a10.579,10.579,0,0,0-5.732,7.676,10.28,10.28,0,0,0,.361,5.084c.511,1.607,1.246,3.115,1.645,4.673a7.8,7.8,0,0,1,0,4.561,4.237,4.237,0,0,1-2.754,2.866,3.24,3.24,0,0,1-3.2-.673,2.6,2.6,0,0,1-.66-2.392,2.218,2.218,0,0,1,.822-1.333A1.147,1.147,0,0,1,351.074,172.514Z" transform="translate(7.406 3.506)" fill="#ea940c"/>
        <path id="Path_106241" data-name="Path 106241" d="M401.2,145.731a3.349,3.349,0,0,1-.872.15,8.086,8.086,0,0,1-2.492-.224,10.665,10.665,0,0,1-3.3-1.508,23.791,23.791,0,0,1-3.4-2.829,31.712,31.712,0,0,1-4.772-6.4A13.893,13.893,0,0,1,385,131.9a20.253,20.253,0,0,1,1.857,2.716,39.391,39.391,0,0,0,4.835,6.23,16.634,16.634,0,0,0,6.367,4.361,23.682,23.682,0,0,0,3.14.523Z" transform="translate(16.109 1.367)" fill="#ea940c"/>
        <path id="Path_106242" data-name="Path 106242" d="M395.38,143.37a2.9,2.9,0,0,1,.386.336,9.9,9.9,0,0,1,.935,1.121,13.705,13.705,0,0,1,2.23,4.86,14.29,14.29,0,0,1,.4,3.738,24.76,24.76,0,0,1-.586,4.212,25.345,25.345,0,0,0-.648,4.536,10.056,10.056,0,0,0,1,4.685,10.516,10.516,0,0,0,3,3.738c1.246.947,2.679,1.62,3.85,2.629a4.984,4.984,0,0,1,2.006,3.813,7.475,7.475,0,0,1-1.246,3.539,17.446,17.446,0,0,0-1.421,2.629,5.618,5.618,0,0,0-.436,2.168,3.738,3.738,0,0,0,.573,1.782,1.608,1.608,0,0,1-.349-.374,3.015,3.015,0,0,1-.473-1.4,5.769,5.769,0,0,1,.336-2.305,16.936,16.936,0,0,1,1.371-2.729,7.14,7.14,0,0,0,1.109-3.315,4.511,4.511,0,0,0-1.857-3.364c-1.1-.922-2.492-1.57-3.85-2.579a11.015,11.015,0,0,1-3.2-3.962,10.692,10.692,0,0,1-1.047-4.984,25.415,25.415,0,0,1,.7-4.648,24.5,24.5,0,0,0,.635-4.112,14.164,14.164,0,0,0-.311-3.576,14.653,14.653,0,0,0-1.994-4.822C395.817,143.931,395.343,143.407,395.38,143.37Z" transform="translate(18.662 4.189)" fill="#ea940c"/>
        <path id="Path_106243" data-name="Path 106243" d="M409.714,168.513a1.533,1.533,0,0,1-.2.561,3,3,0,0,1-1.246,1.246,4.15,4.15,0,0,1-2.667.461,4.237,4.237,0,0,1-2.941-2.019,6.568,6.568,0,0,1-.885-4.262,10.952,10.952,0,0,1,1.869-4.61c.947-1.47,2.243-2.791,3.2-4.336a6.43,6.43,0,0,0,.86-5.3,6.916,6.916,0,0,0-3.464-4.137,8.91,8.91,0,0,0-2.492-.81c-.872-.187-1.745-.374-2.592-.623a14.417,14.417,0,0,1-4.473-2.118,34.665,34.665,0,0,1-3.352-2.692,21.183,21.183,0,0,1-4.062-4.673,9.328,9.328,0,0,1-.735-1.533,2.491,2.491,0,0,1-.137-.573,21.628,21.628,0,0,0,1.084,1.969,23.486,23.486,0,0,0,4.149,4.473,19.751,19.751,0,0,0,7.7,4.573c.81.224,1.67.411,2.554.586a9.746,9.746,0,0,1,2.7.86,7.477,7.477,0,0,1,3.738,4.523,7.1,7.1,0,0,1-.935,5.807c-1.047,1.632-2.33,2.916-3.252,4.336a10.454,10.454,0,0,0-1.832,4.349,6.056,6.056,0,0,0,.735,3.938,3.95,3.95,0,0,0,2.617,1.919,4.05,4.05,0,0,0,2.492-.336A3.539,3.539,0,0,0,409.714,168.513Z" transform="translate(16.453 1.664)" fill="#ea940c"/>
        <path id="Path_106244" data-name="Path 106244" d="M354.869,193.06a5.721,5.721,0,0,1-.449-.449,8.568,8.568,0,0,1-1.034-1.533,10.43,10.43,0,0,1-.972-6.641,9.707,9.707,0,0,1,1.931-4.286,25.775,25.775,0,0,1,3.9-3.738,17.333,17.333,0,0,0,3.975-4.162,7.065,7.065,0,0,0,1.059-2.766,5.682,5.682,0,0,0-.386-2.966c-.772-1.944-2.23-3.564-3.053-5.52a6.23,6.23,0,0,1-.461-3.1,6.093,6.093,0,0,1,1.184-2.754,13.845,13.845,0,0,1,4.137-3.452,21.012,21.012,0,0,0,3.738-2.654,7.115,7.115,0,0,0,2.579-5.769,8.9,8.9,0,0,0-.71-2.318s.137.174.361.536a4.884,4.884,0,0,1,.6,1.744,7.314,7.314,0,0,1-2.492,6.143,20.97,20.97,0,0,1-3.738,2.766,13.707,13.707,0,0,0-3.95,3.352,5.832,5.832,0,0,0-1.047,2.492,5.52,5.52,0,0,0,.449,2.766c.76,1.832,2.206,3.439,3.053,5.533a6.23,6.23,0,0,1,.436,3.3,8.087,8.087,0,0,1-1.171,3,17.607,17.607,0,0,1-4.124,4.286,25.038,25.038,0,0,0-3.863,3.576,9.37,9.37,0,0,0-1.907,4.037,10.492,10.492,0,0,0,.748,6.442,21.258,21.258,0,0,0,1.209,2.131Z" transform="translate(8.049 3.596)" fill="#ea940c"/>
        <path id="Path_106246" data-name="Path 106246" d="M364.36,141.208a26.165,26.165,0,0,0,4.2,2.33,15.264,15.264,0,0,0,19.663-7.177,35.979,35.979,0,0,0,1.857-4.461,4.207,4.207,0,0,1-.187,1.246,16.32,16.32,0,0,1-1.246,3.377,16.7,16.7,0,0,1-3.09,4.349,15.278,15.278,0,0,1-5.445,3.614,15.788,15.788,0,0,1-11.663-.5,14.242,14.242,0,0,1-3.078-1.844,4.174,4.174,0,0,1-1.009-.935Z" transform="translate(11.029 1.367)" fill="#ea940c"/>
        <path id="Path_106247" data-name="Path 106247" d="M365,136.366c0-.1,1.146.174,2.966.249a17.171,17.171,0,0,0,12.9-4.984c1.308-1.246,1.944-2.243,2.031-2.181a7.862,7.862,0,0,1-1.695,2.492,16.074,16.074,0,0,1-6.031,4.137,15.85,15.85,0,0,1-7.227.984A7.4,7.4,0,0,1,365,136.366Z" transform="translate(11.188 0.766)" fill="#ea940c"/>
        <path id="Path_106248" data-name="Path 106248" d="M364.363,136.942c.15-.125,1.159,1,2.779,1.794s3.1.984,3.09,1.171a4.573,4.573,0,0,1-3.389-.586C365.086,138.437,364.214,137.017,364.363,136.942Z" transform="translate(11.027 2.605)" fill="#ea940c"/>
        <path id="Path_106249" data-name="Path 106249" d="M365.724,209.63a3.117,3.117,0,0,1,.112-.785,3.738,3.738,0,0,1,1.184-1.969,6.231,6.231,0,0,0,2.343-2.492,4.611,4.611,0,0,0-.15-4.361,5.22,5.22,0,0,0-2.006-1.67,4.411,4.411,0,0,1-2.218-2.193,3.851,3.851,0,0,1-.336-1.645,4.812,4.812,0,0,1,.386-1.682,23,23,0,0,1,1.682-3.015,11.651,11.651,0,0,0-1.246-13.707,6.143,6.143,0,0,1-1.744-3.738,6.517,6.517,0,0,1,1.47-3.738c.76-1.047,1.632-1.944,2.28-2.941a5.146,5.146,0,0,0,1.047-3.153,5.333,5.333,0,0,0-1.383-2.866,10.727,10.727,0,0,1-1.832-2.816,6.542,6.542,0,0,1,.224-5.782,11.214,11.214,0,0,1,3.638-3.14,5.284,5.284,0,0,0,2.205-2.642,4.061,4.061,0,0,0,.274-2.181c-.1-.486-.274-.723-.237-.735a1.657,1.657,0,0,1,.361.71,3.875,3.875,0,0,1-.162,2.293,5.532,5.532,0,0,1-2.23,2.853,11.066,11.066,0,0,0-3.464,3.065,6.068,6.068,0,0,0-.112,5.346,10.83,10.83,0,0,0,1.744,2.6,4.9,4.9,0,0,1,.411,6.716c-.685,1.059-1.57,1.956-2.293,2.966a5.918,5.918,0,0,0-1.333,3.352,5.446,5.446,0,0,0,1.607,3.327,12.174,12.174,0,0,1,3.1,7.289,11.95,11.95,0,0,1-1.769,7.165,20.657,20.657,0,0,0-1.67,2.916,4.4,4.4,0,0,0-.374,1.483,3.439,3.439,0,0,0,.274,1.421,3.938,3.938,0,0,0,1.956,1.956,5.669,5.669,0,0,1,2.168,1.869,4,4,0,0,1,.66,2.492,7.316,7.316,0,0,1-.573,2.243,4.448,4.448,0,0,1-1.184,1.62c-.473.4-.947.673-1.321.984a3.738,3.738,0,0,0-1.246,1.807A4.99,4.99,0,0,1,365.724,209.63Z" transform="translate(10.875 3.947)" fill="#ea940c"/>
        <path id="Path_106250" data-name="Path 106250" d="M364.27,140.54a16.2,16.2,0,0,0,3.962,2.853,12.05,12.05,0,0,0,5.121,1.121,14.38,14.38,0,0,0,6.23-1.483,9.42,9.42,0,0,0,4.311-4.573c.847-1.807,1.383-3.576,2.006-4.984a12.011,12.011,0,0,1,1.844-3.165,5.323,5.323,0,0,1,.71-.71c.174-.15.274-.212.3-.2a14.054,14.054,0,0,0-2.492,4.249c-.561,1.421-1.047,3.19-1.894,5.071a9.806,9.806,0,0,1-4.548,4.9,14.242,14.242,0,0,1-6.517,1.508,12.125,12.125,0,0,1-5.321-1.246,11.214,11.214,0,0,1-2.953-2.193,3.814,3.814,0,0,1-.76-1.146Z" transform="translate(11.008 0.752)" fill="#ea940c"/>
      </g>
    </g>
  </g>
</svg>
