<svg id="Component_Character_Female_C" data-name="Component/Character/Female/C" xmlns="http://www.w3.org/2000/svg" xmlns:xlink="http://www.w3.org/1999/xlink" width="180" height="180" viewBox="0 0 180 180">
  <defs>
    <clipPath id="clip-path">
      <rect id="Rectangle_9928" data-name="Rectangle 9928" width="180" height="180" transform="translate(17573 -19022)" fill="#fff" stroke="#707070" stroke-width="1"/>
    </clipPath>
  </defs>
  <g id="Component_Character_Female_C-2" data-name="Component/Character/Female/C" transform="translate(-17573 19022)" clip-path="url(#clip-path)">
    <g id="character-3--inject-833" transform="translate(17593 -19009.621)">
      <path id="Path_39218" data-name="Path 39218" d="M510.636,224.139l8.349,15.118,5.12-41.1a16.564,16.564,0,0,0-1.7-8.647,17.971,17.971,0,0,0-2.081-3.337,18.173,18.173,0,0,0-3.58-3.364c-1.351-.743-1.081-2.7.257-2.837s5,1.824,7.877,5.755,3.188-3.634,3.351-6.39,1.054-11.254,1.932-11.849c1.351-.878,2.513.378,2.283,3.121s-.311,11.052,1.135,11.106,2.067-14,2.067-14-.351-3.04,1.351-3.04c3.04,0,1.284,14.861,1.081,16.213-.149.973,1.432,1.081,1.527,0s.3-14.037,3.391-14.051c2.364,0-1.351,12.227.108,14.97s1.864-9.592,4.134-9.525c.838,0,1.473.176.2,7.2-.675,3.783-3.161,9.214-3.932,16.591L543.3,198c-.135,9.187-2.162,36.87-10.525,57.946a17.064,17.064,0,0,1-30.034,3.04c-5.148-7.741-13.267-27.994-13.267-27.994Z" transform="translate(-407.848 -115.618)" fill="#efd7c7"/>
      <path id="Path_39219" data-name="Path 39219" d="M507.264,186.057a3.288,3.288,0,0,0-1.2.324,4.3,4.3,0,0,0-2.337,1.932l-.284.513-.162-.581A7.42,7.42,0,0,0,502.157,186a8.228,8.228,0,0,0-3.878-2.851c-1.189-.432-2.013-.405-2-.5a3.8,3.8,0,0,1,2.108.149,7.647,7.647,0,0,1,4.188,2.891,7.08,7.08,0,0,1,1.175,2.432l-.459-.068a4.418,4.418,0,0,1,2.7-1.973,2.094,2.094,0,0,1,1.27-.027Z" transform="translate(-376.145 -109.339)" fill="#eaae94"/>
      <path id="Path_39220" data-name="Path 39220" d="M536.437,134.538c3.9.892,7.525,2.959,7.89,6.958s-.135,8.214,1.54,11.862c1.891,4.053,6.4,7.134,6.553,11.646.095,2.7-1.54,5.337-1.459,8.106.122,4.512,4.742,7.931,4.985,12.457.162,3.242-2,6.363-1.473,9.579.405,2.513,2.351,4.472,3.175,6.877,1.635,4.783-1.648,10.038-5.918,12.727a19.4,19.4,0,0,1-28.264-9.025c-2.364-5.742-1.851-12.159-1.351-18.4q2.4-28.953,3.58-57.973" transform="translate(-461.292 -128.02)" fill="#263238"/>
      <path id="Path_39254" data-name="Path 39254" d="M536.475,270.053l.216-41.18L511.4,224.213s2.7-12.159,6.2-23.859c2.7-9.2,8.511-13.105,15.55-16.537v-.122l.608-.162a57.19,57.19,0,0,1,18.307-4.783l24.535.284s18.753-2.337,29.128,11.025c4.053,5.147,16.361,40.383,16.361,40.383l-29.453,14.186,2.8-19.536s-.554,14.159-2.364,18.644c-1,2.5-3.918,10.268-3.918,10.268l.378,23.427Z" transform="translate(-511.4 -110.679)" fill="#ff725e"/>
      <path id="Path_39255" data-name="Path 39255" d="M530.653,243.781a5.825,5.825,0,0,0,.581-1.351c.338-.865.784-2.135,1.351-3.715a112.146,112.146,0,0,0,3.283-12.565,89.39,89.39,0,0,0,1.621-12.889c.081-1.662.108-3.013.081-3.945a6.145,6.145,0,0,0-.095-1.446c-.122,0-.189,2.054-.473,5.4a119.614,119.614,0,0,1-1.824,12.794c-.986,4.945-2.175,9.363-3.08,12.551l-1.067,3.769A5.975,5.975,0,0,0,530.653,243.781Z" transform="translate(-452.9 -100.456)" fill="#263238"/>
      <path id="Path_39256" data-name="Path 39256" d="M540.943,247.954a6.757,6.757,0,0,0,1.189-2.7,6.377,6.377,0,0,0,.513-2.932,7.06,7.06,0,0,0-1.189,2.7A6.416,6.416,0,0,0,540.943,247.954Z" transform="translate(-471.864 -88.363)" fill="#263238"/>
      <path id="Path_39257" data-name="Path 39257" d="M543.826,248.485a8.377,8.377,0,0,0,.784-4.134,8.473,8.473,0,0,0-.662-4.161,26.168,26.168,0,0,0,0,4.148A25.878,25.878,0,0,0,543.826,248.485Z" transform="translate(-477.72 -89.111)" fill="#263238"/>
      <path id="Path_39258" data-name="Path 39258" d="M511.21,231.937c.081.162,6.931-3.08,15.307-7.269s15.078-7.7,15-7.877-6.944,3.067-15.307,7.255S511.116,231.748,511.21,231.937Z" transform="translate(-430.567 -97.327)" fill="#263238"/>
      <path id="Path_39259" data-name="Path 39259" d="M519.5,194.147c.324.405,1.608-.216,3.85-.676a19.779,19.779,0,0,1,9.457.473c3.864,1.067,8.106,3.607,13.065,6.755a74.629,74.629,0,0,0,8.376,4.81,28.834,28.834,0,0,0,10.808,2.891,30.805,30.805,0,0,0,10.984-1.594,85.965,85.965,0,0,0,8.93-3.553c2.7-1.216,5.175-2.364,7.471-3.2a40.883,40.883,0,0,1,6.553-1.81,22.318,22.318,0,0,1,9.565.095c2.243.554,3.54,1.162,3.878.757s-.446-1.729-2.7-3.256a19.2,19.2,0,0,0-11.187-2.553,36.9,36.9,0,0,0-7.755,1.2,82.963,82.963,0,0,0-8.228,2.7c-5.5,2.067-11.335,4.445-17.077,4.121s-11.119-3.4-16.213-6.242-10.417-5.485-15.4-6.12a17.955,17.955,0,0,0-11.43,1.851C519.878,192.377,519.2,193.823,519.5,194.147Z" transform="translate(-512.677 -107.188)" fill="#fafafa"/>
      <path id="Path_39260" data-name="Path 39260" d="M532.214,222.693c.324.378,1.216.216,2.7,0a34.682,34.682,0,0,1,5.9-.54,12.161,12.161,0,0,1,3.567.486l.365.135.5.2,1.04.459c.7.324,1.351.689,2.189,1.081,1.513.8,3.161,1.729,5.053,2.7a37.245,37.245,0,0,0,6.255,2.351,36.045,36.045,0,0,0,12.767,1,32.844,32.844,0,0,0,10.038-2.594c5.4-2.445,7.809-5.323,7.3-6.066s-3.742.351-8.809,1.351a44.085,44.085,0,0,1-19.482-.513,40.438,40.438,0,0,1-5.229-1.824c-1.7-.73-3.445-1.554-5.215-2.27-.892-.351-1.8-.689-2.7-.973-.459-.149-.919-.27-1.351-.392l-.689-.176-.811-.149a14.862,14.862,0,0,0-5.4.27,15.781,15.781,0,0,0-6.539,3.026C532.308,221.342,531.916,222.341,532.214,222.693Z" transform="translate(-507.26 -97.31)" fill="#fafafa"/>
      <path id="Path_39261" data-name="Path 39261" d="M574.763,240.141c.2,0,.405-7.633.459-17.064s0-17.077-.243-17.077-.405,7.633-.459,17.064S574.574,240.141,574.763,240.141Z" transform="translate(-549.809 -101.113)" fill="#263238"/>
      <path id="Path_39262" data-name="Path 39262" d="M536.475,270.053l.216-41.18L511.4,224.213s2.7-12.159,6.2-23.859c2.7-9.2,8.511-13.105,15.55-16.537v-.122l.608-.162a57.19,57.19,0,0,1,18.307-4.783l24.535.284s18.753-2.337,29.128,11.025c4.053,5.147,16.361,40.383,16.361,40.383l-29.453,14.186,2.8-19.536s-.554,14.159-2.364,18.644c-1,2.5-3.918,10.268-3.918,10.268l.378,23.427Z" transform="translate(-511.4 -110.679)" fill="#ff725e"/>
      <path id="Path_39263" data-name="Path 39263" d="M530.653,243.781a5.825,5.825,0,0,0,.581-1.351c.338-.865.784-2.135,1.351-3.715a112.146,112.146,0,0,0,3.283-12.565,89.39,89.39,0,0,0,1.621-12.889c.081-1.662.108-3.013.081-3.945a6.145,6.145,0,0,0-.095-1.446c-.122,0-.189,2.054-.473,5.4a119.614,119.614,0,0,1-1.824,12.794c-.986,4.945-2.175,9.363-3.08,12.551l-1.067,3.769A5.975,5.975,0,0,0,530.653,243.781Z" transform="translate(-452.9 -100.456)" fill="#263238"/>
      <path id="Path_39264" data-name="Path 39264" d="M540.943,247.954a6.757,6.757,0,0,0,1.189-2.7,6.377,6.377,0,0,0,.513-2.932,7.06,7.06,0,0,0-1.189,2.7A6.416,6.416,0,0,0,540.943,247.954Z" transform="translate(-471.864 -88.363)" fill="#263238"/>
      <path id="Path_39265" data-name="Path 39265" d="M543.826,248.485a8.377,8.377,0,0,0,.784-4.134,8.473,8.473,0,0,0-.662-4.161,26.168,26.168,0,0,0,0,4.148A25.878,25.878,0,0,0,543.826,248.485Z" transform="translate(-477.72 -89.111)" fill="#263238"/>
      <path id="Path_39266" data-name="Path 39266" d="M511.21,231.937c.081.162,6.931-3.08,15.307-7.269s15.078-7.7,15-7.877-6.944,3.067-15.307,7.255S511.116,231.748,511.21,231.937Z" transform="translate(-430.567 -97.327)" fill="#263238"/>
      <path id="Path_39267" data-name="Path 39267" d="M519.5,194.147c.324.405,1.608-.216,3.85-.676a19.779,19.779,0,0,1,9.457.473c3.864,1.067,8.106,3.607,13.065,6.755a74.629,74.629,0,0,0,8.376,4.81,28.834,28.834,0,0,0,10.808,2.891,30.805,30.805,0,0,0,10.984-1.594,85.965,85.965,0,0,0,8.93-3.553c2.7-1.216,5.175-2.364,7.471-3.2a40.883,40.883,0,0,1,6.553-1.81,22.318,22.318,0,0,1,9.565.095c2.243.554,3.54,1.162,3.878.757s-.446-1.729-2.7-3.256a19.2,19.2,0,0,0-11.187-2.553,36.9,36.9,0,0,0-7.755,1.2,82.963,82.963,0,0,0-8.228,2.7c-5.5,2.067-11.335,4.445-17.077,4.121s-11.119-3.4-16.213-6.242-10.417-5.485-15.4-6.12a17.955,17.955,0,0,0-11.43,1.851C519.878,192.377,519.2,193.823,519.5,194.147Z" transform="translate(-512.677 -107.188)" fill="#fafafa"/>
      <path id="Path_39268" data-name="Path 39268" d="M532.214,222.693c.324.378,1.216.216,2.7,0a34.682,34.682,0,0,1,5.9-.54,12.161,12.161,0,0,1,3.567.486l.365.135.5.2,1.04.459c.7.324,1.351.689,2.189,1.081,1.513.8,3.161,1.729,5.053,2.7a37.245,37.245,0,0,0,6.255,2.351,36.045,36.045,0,0,0,12.767,1,32.844,32.844,0,0,0,10.038-2.594c5.4-2.445,7.809-5.323,7.3-6.066s-3.742.351-8.809,1.351a44.085,44.085,0,0,1-19.482-.513,40.438,40.438,0,0,1-5.229-1.824c-1.7-.73-3.445-1.554-5.215-2.27-.892-.351-1.8-.689-2.7-.973-.459-.149-.919-.27-1.351-.392l-.689-.176-.811-.149a14.862,14.862,0,0,0-5.4.27,15.781,15.781,0,0,0-6.539,3.026C532.308,221.342,531.916,222.341,532.214,222.693Z" transform="translate(-507.26 -97.31)" fill="#fafafa"/>
      <path id="Path_39272" data-name="Path 39272" d="M574.763,240.141c.2,0,.405-7.633.459-17.064s0-17.077-.243-17.077-.405,7.633-.459,17.064S574.574,240.141,574.763,240.141Z" transform="translate(-549.809 -101.113)" fill="#263238"/>
      <path id="Path_39273" data-name="Path 39273" d="M561.9,198.918c-.162-6.755-.189-13.821-.189-13.821s8.62-1.662,10.133-13.011c1.081-8.214-.257-22.387-.973-28.777a11.563,11.563,0,0,0-2.391-5.837h0c-12.619-4.756-24.927-2.081-33.56,8.106h0l2.094,54.663c.257,6.35,5.9,11.187,12.7,10.808h0C556.6,210.78,562.048,205.335,561.9,198.918Z" transform="translate(-493.334 -125.969)" fill="#efd7c7"/>
      <path id="Path_39274" data-name="Path 39274" d="M540.612,150.744a1.445,1.445,0,0,1-1.351,1.5,1.351,1.351,0,0,1-1.54-1.27,1.446,1.446,0,0,1,1.351-1.5,1.351,1.351,0,0,1,1.54,1.27Z" transform="translate(-465.48 -120.961)" fill="#263238"/>
      <path id="Path_39275" data-name="Path 39275" d="M542,149.666c-.176.2-1.351-.581-2.851-.54s-2.7.851-2.864.662.095-.419.581-.8a4.053,4.053,0,0,1,2.283-.77,3.823,3.823,0,0,1,2.283.676C541.914,149.274,542.09,149.585,542,149.666Z" transform="translate(-464.877 -121.396)" fill="#263238"/>
      <path id="Path_39276" data-name="Path 39276" d="M552.531,151.413a1.432,1.432,0,0,1-1.351,1.5,1.351,1.351,0,0,1-1.54-1.27,1.459,1.459,0,0,1,1.351-1.5,1.351,1.351,0,0,1,1.54,1.27Z" transform="translate(-493.504 -120.726)" fill="#263238"/>
      <path id="Path_39277" data-name="Path 39277" d="M554.039,150.379c-.176.189-1.351-.594-2.851-.554s-2.7.851-2.864.676.095-.432.581-.811a4.053,4.053,0,0,1,2.283-.77,3.918,3.918,0,0,1,2.283.675C553.958,149.988,554.12,150.379,554.039,150.379Z" transform="translate(-493.188 -121.151)" fill="#263238"/>
      <path id="Path_39278" data-name="Path 39278" d="M542.008,161.854a11.5,11.5,0,0,1,2.526-.513c.405,0,.77-.149.838-.419a2.108,2.108,0,0,0-.3-1.175l-1.256-3a50.837,50.837,0,0,1-2.851-7.877,52.263,52.263,0,0,1,3.472,7.62c.419,1.067.824,2.067,1.216,3.026a2.324,2.324,0,0,1,.243,1.567,1.013,1.013,0,0,1-.635.594,2.77,2.77,0,0,1-.675.108A9.378,9.378,0,0,1,542.008,161.854Z" transform="translate(-475.199 -121.168)" fill="#263238"/>
      <path id="Path_39279" data-name="Path 39279" d="M557.973,173.078a28.763,28.763,0,0,1-15.253-3.648s3.878,7.674,15.159,6.323Z" transform="translate(-489.597 -113.95)" fill="#eaae94"/>
      <path id="Path_39280" data-name="Path 39280" d="M562.986,162.431c1.351,3.121,4.621,5.526,4.175,8.89-.3,2.162-1.689,4.188-1.351,6.363.338,2.7,3.175,4.634,3.58,7.35.486,3.351-2.7,5.945-4.053,9.065-1.892,4.54.527,9.646.581,14.564A15.632,15.632,0,0,1,552.029,223.8c-3.04.243-6.458-.676-8.106-3.283-1.351-2.148-1.04-4.877-1.824-7.269-1.148-3.567-4.539-6.174-5.256-9.849-1.351-6.755,6.755-12.24,6.255-19.05-.23-2.9-2.027-5.4-2.783-8.255a12.078,12.078,0,0,1,2.378-10.808c1.986-2.378,4.891-3.945,6.593-6.539,1.932-2.945,2-6.755,2.7-10.119a25.494,25.494,0,0,1,40.531-14.942s1.932,8.768-7.066,10.227-13.173-.23-14.186,3.378a9.552,9.552,0,0,1-2.7,8.241C564.918,159.662,561.418,158.824,562.986,162.431Z" transform="translate(-516.172 -128.366)" fill="#263238"/>
      <path id="Path_39281" data-name="Path 39281" d="M549.281,162.113a2.135,2.135,0,0,0-3.864-1.459,1.513,1.513,0,0,0-.23,1.351,1.77,1.77,0,0,0,.757.784,2.783,2.783,0,0,0,2.148.446,1.621,1.621,0,0,0,1.243-1.635" transform="translate(-484.201 -117.347)" fill="#eaae94"/>
      <path id="Path_39282" data-name="Path 39282" d="M544.572,159c-.095,0-.149.378,0,.946a3.864,3.864,0,0,0,1.351,1.851,3.756,3.756,0,0,0,2.175.743c.594,0,.932-.162.919-.257a9.28,9.28,0,0,1-2.7-1.054C545.085,160.351,544.761,159,544.572,159Z" transform="translate(-483.018 -117.612)" fill="#263238"/>
      <path id="Path_39291" data-name="Path 39291" d="M546.724,146.883c.162.365,1.473.149,3.026.162s2.864.23,3.026-.135-1.135-1.27-3.026-1.27S546.561,146.545,546.724,146.883Z" transform="translate(-489.804 -122.302)" fill="#263238"/>
      <path id="Path_39292" data-name="Path 39292" d="M535.643,147.249c.068.378,1.054.513,2.2.459s2.108-.324,2.135-.716-.973-.77-2.216-.689S535.576,146.9,535.643,147.249Z" transform="translate(-462.038 -122.073)" fill="#263238"/>
      <path id="Path_39293" data-name="Path 39293" d="M612.8,284.325c.243-2.986-12.159-4.634-13.173-4.85s-.757-1.729.176-1.486c1.351.365,15.4,3.742,15.672.811.162-1.621-2.783-1.635-2.783-1.635s-13.4-2.189-13.213-3.567,8.106-.365,10.727.162,3.918-.5,3.188-1.851c-.486-.919-8.552-2.7-11.173-3.215s-9.89-1.554-5.836-3.945,6.228-5.634,6.215-6.944a1.459,1.459,0,0,0-2.7-.581,16.94,16.94,0,0,1-3.54,3.08,11.579,11.579,0,0,1-3.5,1.662c-1.351.378-2.554.648-3.567.851-7-2.2-40.194-17.293-40.194-17.293l-.068-28.615-22.7-4.188-.459,27.858a27.372,27.372,0,0,0,18.4,26.3l42.166,14.645v-.068a136.839,136.839,0,0,0,13.835,5.7c6.62,2.013,6.755,1.419,6.917.608.27-2.175-11.511-3.972-8.755-5.053S612.592,286.622,612.8,284.325Z" transform="translate(-524.329 -98.754)" fill="#efd7c7"/>
    </g>
  </g>
</svg>
