<svg id="Component_Character_Female_F" data-name="Component/Character/Female/F" xmlns="http://www.w3.org/2000/svg" xmlns:xlink="http://www.w3.org/1999/xlink" width="180" height="180" viewBox="0 0 180 180">
  <defs>
    <clipPath id="clip-path">
      <rect id="Rectangle_9930" data-name="Rectangle 9930" width="180" height="180" transform="translate(18475 -18754)" fill="#fff" stroke="#707070" stroke-width="1"/>
    </clipPath>
  </defs>
  <g id="Component_Character_Female_F-2" data-name="Component/Character/Female/F" transform="translate(-18475 18754)" clip-path="url(#clip-path)">
    <g id="Group_25045" data-name="Group 25045" transform="translate(-192 30.717)">
      <path id="Path_105786" data-name="Path 105786" d="M4.527,80.508l3.906-50.48A14.259,14.259,0,0,0,6.3,22.667a15.765,15.765,0,0,0-2.043-2.753A15.939,15.939,0,0,0,.9,17.276,1.3,1.3,0,0,1,.9,14.8c1.145-.232,4.463,1.2,7.245,4.347s2.478-3.391,2.42-5.8,0-9.825.8-10.419c1.058-.855,2.2.145,2.217,2.536s.536,9.607,1.811,9.549.739-12.288.739-12.288S15.591.119,17.054,0c2.637-.232,2.217,12.781,2.145,14.013a.668.668,0,1,0,1.333-.072c0-.927-.782-12.2,1.884-12.448,2.058-.188-.246,10.709,1.217,13.042s.9-8.463,2.9-8.564c.739,0,1.29,0,.725,6.217-.319,3.333-2.072,8.231-2.188,14.679V28.55c.565,7.97,1.994,57.1,1.994,57.1l-.205,3.869Z" transform="matrix(-0.995, -0.105, 0.105, -0.995, 18719.492, -18526.564)" fill="#b77153"/>
      <g id="character-1--inject-780" transform="translate(18698.355 -18772.717)">
        <path id="Path_36038" data-name="Path 36038" d="M124.622,234.331l8.187,17.389,1.565-40.864a14.259,14.259,0,0,0-2.13-7.361,15.766,15.766,0,0,0-2.043-2.753,15.938,15.938,0,0,0-3.362-2.637,1.3,1.3,0,0,1,0-2.478c1.145-.232,4.463,1.2,7.245,4.347s2.478-3.391,2.42-5.8,0-9.825.8-10.419c1.058-.855,2.2.145,2.217,2.536s.536,9.607,1.811,9.549.739-12.288.739-12.288-.536-2.608.927-2.724c2.637-.232,2.217,12.781,2.145,14.013a.668.668,0,1,0,1.333-.072c0-.927-.782-12.2,1.884-12.448,2.058-.188-.246,10.709,1.217,13.042s.9-8.463,2.9-8.564c.739,0,1.29,0,.725,6.217-.319,3.333-2.072,8.231-2.188,14.679v1.681c.565,7.97,2.2,38.1-3.478,56.992a14.867,14.867,0,0,1-25.822,4.869,139.11,139.11,0,0,1-16.519-26.4Z" transform="translate(-29.192 -118.941)" fill="#b77153"/>
        <path id="Path_36039" data-name="Path 36039" d="M136.951,197.967a5.579,5.579,0,0,0-1.014.362,3.782,3.782,0,0,0-1.884,1.855l-.2.464-.188-.493a6.2,6.2,0,0,0-1.145-1.855,7.057,7.057,0,0,0-3.565-2.174c-1.072-.275-1.768-.2-1.782-.29a3.637,3.637,0,0,1,1.84,0,6.782,6.782,0,0,1,3.855,2.2,6.347,6.347,0,0,1,1.2,2.014h-.406a3.8,3.8,0,0,1,2.174-1.913C136.531,197.865,136.966,197.923,136.951,197.967Z" transform="translate(-19.322 -112.254)" fill="#995037"/>
        <path id="Path_36040" data-name="Path 36040" d="M78.633,287.87,84.1,252.078s5.42,9.955,5.579,14.853-4.956,24.185-4.956,24.185c18.925,8.434,39.632,8.332,57.63-2.232l-2.9-27.532-1.1-19.128.9-24.91a19.635,19.635,0,0,0-20-21.113,13.332,13.332,0,0,0-3.449.507l-25.011,3.347s-26.083,13.81-31.735,33.126c-2.014,6.985-6.312,49.357-6.312,49.357a35.2,35.2,0,0,1,12.311,0A38.549,38.549,0,0,1,78.633,287.87Z" transform="translate(-52.744 -112.039)" fill="#ff725e"/>
        <path id="Path_36041" data-name="Path 36041" d="M116.781,210.37,130.04,237.8l-17.447,16.592-1.2-26.953,1.493-16.751Z" transform="translate(-26.408 -105.674)" fill="#ff725e"/>
        <path id="Path_36042" data-name="Path 36042" d="M56.54,236.449s22.577-2.232,28.663-12.708c6.579-11.317,3.927-24.881,3.927-24.881s-14.36,4.724-20.62,11.593S57.134,228.2,56.54,236.536" transform="translate(-51.04 -110.843)" fill="#b77153"/>
        <path id="Path_36043" data-name="Path 36043" d="M97.822,196.344c-.58.1,5.231,28.851,26.866,24.156C124.688,220.5,115.327,193.069,97.822,196.344Z" transform="translate(-32.518 -112.095)" fill="#b77153"/>
        <path id="Path_36044" data-name="Path 36044" d="M148.1,219.1l-.971-.1a19.9,19.9,0,0,0-2.8-.13,30.213,30.213,0,0,0-9.984,2.116c-4.1,1.449-8.694,4-13.926,6.245a38.529,38.529,0,0,1-8.694,2.594,41.574,41.574,0,0,1-9.694.13c-6.593-.594-12.9-1.724-18.592-.869a37.168,37.168,0,0,0-7.839,2.13c-2.391.9-4.579,1.826-6.608,2.594a33.431,33.431,0,0,1-9.883,2.681,13.491,13.491,0,0,1-3.768-.174l.971.087a20.285,20.285,0,0,0,2.782,0,34.445,34.445,0,0,0,9.854-2.753c2.029-.8,4.217-1.739,6.608-2.637a36.228,36.228,0,0,1,7.883-2.174c5.8-.884,12.085.246,18.664.84a40.97,40.97,0,0,0,9.622-.116A37.155,37.155,0,0,0,120.3,227c5.289-2.217,9.839-4.738,13.969-6.188a29.749,29.749,0,0,1,10.057-2.029,16.317,16.317,0,0,1,3.768.319Z" transform="translate(-51.578 -101.9)" fill="#fafafa"/>
        <path id="Path_36045" data-name="Path 36045" d="M81.326,244.792h-.29l-.84.072c-.71,0-1.768.1-3.058.145a49.264,49.264,0,0,1-10.143-.507,38.114,38.114,0,0,1-5.42-1.3,15.679,15.679,0,0,1-4.1-2,12.314,12.314,0,0,1-2.3-2.029,7.576,7.576,0,0,1-.71-.869,20.286,20.286,0,0,0,3.13,2.724,16.664,16.664,0,0,0,4.072,1.913,37.356,37.356,0,0,0,5.391,1.261,55.627,55.627,0,0,0,10.042.609h4.231Z" transform="translate(-51.974 -93.132)" fill="#fafafa"/>
        <path id="Path_36046" data-name="Path 36046" d="M136.046,234.34l-.594.145a12.211,12.211,0,0,0-1.666.536,39.65,39.65,0,0,0-5.622,3.159,25.924,25.924,0,0,1-9,3.3,55.892,55.892,0,0,1-11.752.623c-4.173-.145-8.129-.406-11.737-.3a39.707,39.707,0,0,0-9.462,1.29,24.635,24.635,0,0,0-5.927,2.478,15.65,15.65,0,0,0-1.449.956l-.507.333a15.4,15.4,0,0,1,1.927-1.449,23.186,23.186,0,0,1,5.927-2.579,38.516,38.516,0,0,1,9.506-1.362c3.623-.116,7.608.13,11.766.275a56.2,56.2,0,0,0,11.68-.594,26.185,26.185,0,0,0,8.941-3.2,35.687,35.687,0,0,1,5.695-3.1A8.231,8.231,0,0,1,136.046,234.34Z" transform="translate(-41.254 -94.91)" fill="#fafafa"/>
        <path id="Path_36047" data-name="Path 36047" d="M129.709,251.245h-.551a13.389,13.389,0,0,0-1.579-.087,16.666,16.666,0,0,0-5.68,1.232c-2.319.869-4.84,2.391-7.767,3.883a26.779,26.779,0,0,1-4.782,1.927,26.1,26.1,0,0,1-2.7.493,20.069,20.069,0,0,1-2.811.073A43.632,43.632,0,0,1,93.4,256.679a74.368,74.368,0,0,0-8.419-2.116,23.85,23.85,0,0,0-5.8-.3,11.606,11.606,0,0,0-1.579.2H77.05s.739-.188,2.116-.391a23.373,23.373,0,0,1,5.8.2,73.683,73.683,0,0,1,8.448,2.072A45.067,45.067,0,0,0,103.8,258.4a24.982,24.982,0,0,0,2.768-.072,20.071,20.071,0,0,0,7.39-2.377,77.5,77.5,0,0,1,7.81-3.826,15.94,15.94,0,0,1,5.8-1.159,7.925,7.925,0,0,1,2.145.275Z" transform="translate(-41.829 -87.442)" fill="#fafafa"/>
        <path id="Path_36048" data-name="Path 36048" d="M112.294,207.273a14.237,14.237,0,0,0-1.449-.174,8.245,8.245,0,0,0-3.884.913,17.548,17.548,0,0,0-4.753,3.608,29.6,29.6,0,0,1-5.608,4.854,14.114,14.114,0,0,1-7.173,1.782,25.157,25.157,0,0,1-6.014-.84c-1.666-.435-2.985-.869-3.9-1.188l-1.043-.362a1.594,1.594,0,0,1-.362-.145,1.274,1.274,0,0,1,.377.087l1.058.319c.927.275,2.261.681,3.927,1.072a24.966,24.966,0,0,0,5.941.768,13.9,13.9,0,0,0,7.028-1.753,30.833,30.833,0,0,0,5.564-4.782,16.939,16.939,0,0,1,4.869-3.608,8.071,8.071,0,0,1,3.985-.84,4.855,4.855,0,0,1,1.435.29Z" transform="translate(-41.353 -107.199)" fill="#fafafa"/>
        <path id="Path_36049" data-name="Path 36049" d="M107.46,205.94a15.285,15.285,0,0,1,.956,1.9l.493,1.029c.145.391.319.811.493,1.261.348.913.754,1.942,1.087,3.13l.551,1.84c.159.652.333,1.333.507,2.029.362,1.449.609,2.9.927,4.507.522,3.2.927,6.738,1.2,10.462.522,7.463.667,14.215.985,19.084.145,2.434.275,4.347.406,5.8a13.564,13.564,0,0,1,.116,2.116,14.114,14.114,0,0,1-.348-2.087c-.2-1.362-.406-3.333-.609-5.8-.42-4.883-.638-11.593-1.159-19.055-.29-3.724-.681-7.245-1.159-10.419-.3-1.594-.522-3.1-.869-4.492-.159-.7-.3-1.449-.449-2.029s-.362-1.246-.522-1.826c-.3-1.188-.681-2.217-1-3.13-.145-.464-.3-.884-.435-1.29l-.435-1.043A12.114,12.114,0,0,1,107.46,205.94Z" transform="translate(-28.173 -107.664)" fill="#263238"/>
        <g id="Group_2074" data-name="Group 2074" transform="translate(84.808 117.52)" opacity="0.3">
          <path id="Path_36050" data-name="Path 36050" d="M111.27,219.22l7.651,25.243-5.666,5.376Z" transform="translate(-111.27 -219.22)"/>
        </g>
        <g id="Group_2075" data-name="Group 2075" transform="translate(36.105 132.605)" opacity="0.3">
          <path id="Path_36051" data-name="Path 36051" d="M99.99,234.267a15.346,15.346,0,0,1-22.33-4.637,12.636,12.636,0,0,0,9.187,9.9C93.875,241.339,99.99,234.267,99.99,234.267Z" transform="translate(-77.66 -229.63)"/>
        </g>
        <path id="Path_36052" data-name="Path 36052" d="M76.443,224.54a69.642,69.642,0,0,1-.942,10.143,69.325,69.325,0,0,1-1.681,10,69.382,69.382,0,0,1,.942-10.143,70.263,70.263,0,0,1,1.681-10Z" transform="translate(-43.28 -99.311)" fill="#263238"/>
        <path id="Path_36053" data-name="Path 36053" d="M86.207,177.071c-3.753,2.029-24.084,3.681-26.431.13a8.926,8.926,0,0,1,1.869-11.491,11.984,11.984,0,0,1-3.275-7.839,8.941,8.941,0,0,1,3.724-7.463,7.129,7.129,0,0,1,8.129.116c-1.652-1.188-1.072-3.826.13-5.463a10.9,10.9,0,0,1,17.389-.188,9.955,9.955,0,0,1,19.36,2.55c3.362-1.362,7.347,1.116,8.694,4.478s.725,7.245-.406,10.665" transform="translate(-50.218 -138.12)" fill="#263238"/>
        <path id="Path_36054" data-name="Path 36054" d="M71.09,183.893a10.491,10.491,0,0,1-2.333-7.318,18.621,18.621,0,0,1,2.188-7.506,32.1,32.1,0,0,1,28.17-17.316,20.736,20.736,0,0,1,13.042,4.115,12.491,12.491,0,0,1,4.565,12.419" transform="translate(-45.563 -132.002)" fill="#ff725e"/>
        <path id="Path_36055" data-name="Path 36055" d="M105.571,217.264c-.2-4.463-.3-8.506-.3-8.506s9.825-2.116,9.39-12.288-3.463-33.445-3.463-33.445L92.153,155.78,77.3,171.618l5.709,47.269c1.014,6.68,5.1,12.085,11.8,11.187h0A12.418,12.418,0,0,0,105.571,217.264Z" transform="translate(-41.717 -130.189)" fill="#b77153"/>
        <path id="Path_36056" data-name="Path 36056" d="M83.2,161.049c-2.9,4.767-.855,7.651,2.9,11.766a7.8,7.8,0,0,0,6.434,2.9c2.434-.29,4.594-2.8,3.869-5.144a5.057,5.057,0,1,0,9.665-.652,9.419,9.419,0,0,0,1.449,3.014,3.087,3.087,0,0,0,2.9,1.232c1.449-.333,3.449-.435,3.623-2.9.406-5.492-1.348-9.883-4.912-12.824a19.751,19.751,0,0,0-14.273-3.521,21.359,21.359,0,0,0-11.969,6.506" transform="translate(-39.681 -130.662)" fill="#263238"/>
        <path id="Path_36057" data-name="Path 36057" d="M91.208,158.92a23.561,23.561,0,0,1,2.811,8.926,12.172,12.172,0,0,1-2.55,8.81,8.318,8.318,0,0,1-8.448,2.811,9.694,9.694,0,0,1-.565,8.216,6.173,6.173,0,0,1-7.347,2.608c-2.348-1.029-3.55-3.666-4.072-6.173a20.823,20.823,0,0,1,20.591-25.083" transform="translate(-44.728 -128.779)" fill="#263238"/>
        <path id="Path_36058" data-name="Path 36058" d="M80.426,176.78a3.623,3.623,0,0,0-4.217,1.3,5.8,5.8,0,0,0,6.448,9.26" transform="translate(-42.872 -120.86)" fill="#b77153"/>
        <path id="Path_36059" data-name="Path 36059" d="M79.879,183.5a2.454,2.454,0,0,1-1.159,0,3.057,3.057,0,0,1-2.2-1.739,2.246,2.246,0,0,1,0-1.623,2.434,2.434,0,0,1,.782-1.058c.594-.449,1.072-.464,1.087-.42s-.391.217-.869.681a2.014,2.014,0,0,0-.493,2.246,2.985,2.985,0,0,0,1.855,1.579C79.444,183.317,79.879,183.346,79.879,183.5Z" transform="translate(-42.137 -119.919)" fill="#995037"/>
        <path id="Path_36060" data-name="Path 36060" d="M93.093,180.7a.561.561,0,0,1,0,.507,2.159,2.159,0,0,1-.594,1.087,2.116,2.116,0,0,1-1.087.58H90.89a4.262,4.262,0,0,0,1.261-.855C92.716,181.439,92.962,180.686,93.093,180.7Z" transform="translate(-35.614 -118.998)" fill="#263238"/>
        <path id="Path_36061" data-name="Path 36061" d="M102.1,173.647a1.5,1.5,0,1,1-1.637-1.2A1.449,1.449,0,0,1,102.1,173.647Z" transform="translate(-32.903 -122.712)" fill="#263238"/>
        <path id="Path_36062" data-name="Path 36062" d="M103.682,172.2c-.159.2-1.348-.536-2.9-.391s-2.681,1.043-2.9.855,0-.435.536-.855a4.13,4.13,0,0,1,2.275-.927,3.985,3.985,0,0,1,2.376.551C103.581,171.768,103.769,172.1,103.682,172.2Z" transform="translate(-32.51 -123.412)" fill="#263238"/>
        <path id="Path_36063" data-name="Path 36063" d="M91.855,174.627a1.5,1.5,0,1,1-1.637-1.2A1.449,1.449,0,0,1,91.855,174.627Z" transform="translate(-38.506 -122.272)" fill="#263238"/>
        <path id="Path_36064" data-name="Path 36064" d="M92.9,173.119c-.174.2-1.362-.522-2.9-.377s-2.681,1.029-2.9.855,0-.449.536-.855a3.985,3.985,0,0,1,2.29-.927,3.84,3.84,0,0,1,2.362.551C92.786,172.7,92.975,173.032,92.9,173.119Z" transform="translate(-37.351 -122.996)" fill="#263238"/>
        <path id="Path_36065" data-name="Path 36065" d="M96.115,184.727a10.75,10.75,0,0,1,2.536-.7c.406,0,.783-.188.826-.464a2.029,2.029,0,0,0-.377-1.188l-1.449-2.985a53.167,53.167,0,0,1-3.391-7.854,52.555,52.555,0,0,1,3.97,7.564l1.449,3.014a2.333,2.333,0,0,1,.348,1.565,1,1,0,0,1-.623.652,2.694,2.694,0,0,1-.681.159,10.144,10.144,0,0,1-2.608.232Z" transform="translate(-34.101 -123.112)" fill="#263238"/>
        <path id="Path_36066" data-name="Path 36066" d="M96.95,185.442a1.449,1.449,0,0,0-1.724-1.971,1.232,1.232,0,0,0-.956-1.188,1.753,1.753,0,0,0-1.551.406,2.449,2.449,0,0,0-.551,2.9,2.666,2.666,0,0,0,2.681,1.362,2.9,2.9,0,0,0,2.333-1.956" transform="translate(-35.154 -118.306)" fill="#995037"/>
        <path id="Path_36067" data-name="Path 36067" d="M92.436,181.67c.261,0,.42,1.7,2,2.8s3.405.739,3.434.985-.377.377-1.159.464a4.347,4.347,0,0,1-2.9-.739,3.7,3.7,0,0,1-1.565-2.348C92.161,182.148,92.32,181.67,92.436,181.67Z" transform="translate(-35.015 -118.563)" fill="#263238"/>
        <path id="Path_36068" data-name="Path 36068" d="M94.117,171c-.116.449-1.724.377-3.565.754s-3.318,1.029-3.594.667.1-.609.667-1.087a6.419,6.419,0,0,1,5.463-1.072C93.8,170.482,94.16,170.786,94.117,171Z" transform="translate(-37.421 -123.778)" fill="#263238"/>
        <path id="Path_36069" data-name="Path 36069" d="M103.237,170.122c-.246.391-1.449.1-2.7.2s-2.405.449-2.7.087,0-.551.464-.927a3.84,3.84,0,0,1,2.145-.782,3.724,3.724,0,0,1,2.2.551C103.164,169.572,103.338,169.934,103.237,170.122Z" transform="translate(-32.542 -124.389)" fill="#263238"/>
        <path id="Path_36070" data-name="Path 36070" d="M100.79,193.328a24.3,24.3,0,0,1-13.52-3.188s3.724,7.129,13.563,5.68Z" transform="translate(-37.24 -114.759)" fill="#995037"/>
        <path id="Path_36071" data-name="Path 36071" d="M73.832,166.992a3.641,3.641,0,0,1-.7-.623,6.216,6.216,0,0,1-1.2-1.956,5.463,5.463,0,0,1-.319-2.275,2.1,2.1,0,0,1,.188-.927,10.245,10.245,0,0,0,.42,3.1,15.087,15.087,0,0,0,1.608,2.681Z" transform="translate(-44.277 -127.751)" fill="#fafafa"/>
        <path id="Path_36072" data-name="Path 36072" d="M76.449,164.142a2.593,2.593,0,0,1-.652-.623,8.7,8.7,0,0,1-1.2-1.811,11.215,11.215,0,0,1-.739-2.043,2.463,2.463,0,0,1-.145-.884c.1,0,.449,1.29,1.159,2.8S76.536,164.069,76.449,164.142Z" transform="translate(-43.329 -128.842)" fill="#fafafa"/>
        <path id="Path_36073" data-name="Path 36073" d="M80.479,162.027a7.423,7.423,0,0,1-.725-.754,15.3,15.3,0,0,1-1.449-2.058,19.054,19.054,0,0,1-1.087-2.261,4.071,4.071,0,0,1-.319-.985c.1,0,.725,1.449,1.666,3.1S80.566,161.969,80.479,162.027Z" transform="translate(-41.896 -130.104)" fill="#fafafa"/>
        <path id="Path_36074" data-name="Path 36074" d="M85.331,159.821c-.116,0-.638-1.579-1.71-3.333a21.06,21.06,0,0,0-2.29-2.9,4,4,0,0,1,.84.725,13.143,13.143,0,0,1,1.7,2.072,11.839,11.839,0,0,1,1.159,2.42,4.26,4.26,0,0,1,.3,1.014Z" transform="translate(-39.908 -131.173)" fill="#fafafa"/>
        <path id="Path_36075" data-name="Path 36075" d="M88.879,157.2a24.848,24.848,0,0,0-.8-2.9A19.026,19.026,0,0,0,86.3,152a3.955,3.955,0,0,1,.71.522,5.8,5.8,0,0,1,1.348,1.666,6.014,6.014,0,0,1,.522,2.072,2.406,2.406,0,0,1,0,.942Z" transform="translate(-37.675 -131.887)" fill="#fafafa"/>
        <path id="Path_36076" data-name="Path 36076" d="M93.517,155.96c-.087,0-.391-1.014-1.072-2.159S91,151.9,91.082,151.83a4.637,4.637,0,0,1,1.623,1.826A4.753,4.753,0,0,1,93.517,155.96Z" transform="translate(-35.531 -131.963)" fill="#fafafa"/>
        <path id="Path_36077" data-name="Path 36077" d="M97.379,156.5c-.087,0-.232-.942-.681-2a7,7,0,0,0-1.188-1.71,2.623,2.623,0,0,1,1.449,1.579,4.014,4.014,0,0,1,.42,2.13Z" transform="translate(-33.539 -131.532)" fill="#fafafa"/>
        <path id="Path_36078" data-name="Path 36078" d="M99.335,155.2a1.376,1.376,0,0,1,.42.9c.043.58-.2.985-.275.956s0-.435,0-.927S99.262,155.243,99.335,155.2Z" transform="translate(-31.828 -130.45)" fill="#fafafa"/>
        <path id="Path_36079" data-name="Path 36079" d="M72.561,169.837a4.521,4.521,0,0,1-3.1-4.347,8.448,8.448,0,0,0,1.087,2.492A9.3,9.3,0,0,0,72.561,169.837Z" transform="translate(-45.238 -125.829)" fill="#fafafa"/>
        <path id="Path_36080" data-name="Path 36080" d="M71.318,172.063a2.072,2.072,0,0,1-1.579-.464,2.145,2.145,0,0,1-1.029-1.29,10.055,10.055,0,0,0,1.188,1.043C70.623,171.832,71.333,171.976,71.318,172.063Z" transform="translate(-45.574 -123.664)" fill="#fafafa"/>
        <path id="Path_36081" data-name="Path 36081" d="M100.94,168.136a7.793,7.793,0,0,0,1.174-.333,4.651,4.651,0,0,0,2.261-2.318,5,5,0,0,0-.319-4.68,7.666,7.666,0,0,0-4.709-3.492,15.621,15.621,0,0,0-6.028-.319,15.245,15.245,0,0,0-4.753,1.362,10.9,10.9,0,0,0-3.565,2.8,5.8,5.8,0,0,1,.768-.985,9.985,9.985,0,0,1,2.724-2.014A14.969,14.969,0,0,1,93.3,156.7a15.679,15.679,0,0,1,6.144.3,7.97,7.97,0,0,1,4.869,3.637,5.246,5.246,0,0,1,.275,4.912,4.753,4.753,0,0,1-2.42,2.333,2.8,2.8,0,0,1-1.232.246Z" transform="translate(-38.259 -129.851)" fill="#455a64"/>
        <path id="Path_36082" data-name="Path 36082" d="M90.655,167.983a4.478,4.478,0,0,0,1.087-1.666,3.7,3.7,0,0,0,0-2.116,3.463,3.463,0,0,0-1.594-2.014,25.724,25.724,0,0,0-4.521-1.884c-1.2-.391-1.971-.594-1.956-.638s.2,0,.551.072.855.188,1.449.362a20.853,20.853,0,0,1,4.637,1.826,3.68,3.68,0,0,1,1.681,2.2,3.9,3.9,0,0,1-.116,2.261,3.449,3.449,0,0,1-.84,1.275A1.564,1.564,0,0,1,90.655,167.983Z" transform="translate(-38.856 -128.452)" fill="#455a64"/>
        <path id="Path_36083" data-name="Path 36083" d="M68.39,147.992a3.362,3.362,0,0,1,.246-1.362,5.55,5.55,0,0,1,2.463-2.9,6.318,6.318,0,0,1,5.579-.13,8.158,8.158,0,0,1,4.347,5.362h-.261A5.972,5.972,0,0,1,82,147.876a6.3,6.3,0,0,1,7.245.159,5.651,5.651,0,0,1,1.869,5.695,5.579,5.579,0,0,1-2.449,3.333,4.057,4.057,0,0,1-1.449.594,6.972,6.972,0,0,0,1.348-.7,5.579,5.579,0,0,0,2.319-3.275,5.477,5.477,0,0,0-1.84-5.434,6.043,6.043,0,0,0-6.927-.116,5.332,5.332,0,0,0-1.174,1.014l-.188.2v-.261a7.984,7.984,0,0,0-4.2-5.188,6.057,6.057,0,0,0-5.362,0,5.376,5.376,0,0,0-2.449,2.71,6.406,6.406,0,0,0-.348,1.377Z" transform="translate(-45.718 -135.921)" fill="#455a64"/>
        <path id="Path_36084" data-name="Path 36084" d="M89.05,143.93a1.45,1.45,0,0,1,.435.261,6.637,6.637,0,0,1,1,.971,6.825,6.825,0,0,1,.159,8.535,6.494,6.494,0,0,1-.956,1,1.333,1.333,0,0,1-.435.275,14.638,14.638,0,0,0,1.217-1.449,7.159,7.159,0,0,0,1.29-4.159,7.245,7.245,0,0,0-1.449-4.115,15.463,15.463,0,0,0-1.261-1.319Z" transform="translate(-36.44 -135.511)" fill="#455a64"/>
        <path id="Path_36085" data-name="Path 36085" d="M63.694,149.34a6.39,6.39,0,0,0-.275,3.855,5.419,5.419,0,0,0,2.376,3.347,5.8,5.8,0,0,0,4.941.594l.623-.217-.464.478-.2.2a3.478,3.478,0,0,0,.319,4.681,5.2,5.2,0,0,0,3.941,1.449A8.158,8.158,0,0,0,77.779,163c.638-.275.971-.478.985-.449a5.8,5.8,0,0,1-.927.565,7.955,7.955,0,0,1-2.9.811,5.3,5.3,0,0,1-4.144-1.449,3.753,3.753,0,0,1-.362-5.086l.232-.232.145.261a6.043,6.043,0,0,1-5.188-.652,5.492,5.492,0,0,1-2.405-3.579,5.912,5.912,0,0,1,0-2.9A3.623,3.623,0,0,1,63.694,149.34Z" transform="translate(-48.123 -133.081)" fill="#455a64"/>
        <path id="Path_36086" data-name="Path 36086" d="M101.95,233.294a5.159,5.159,0,0,1-.754.855,12.737,12.737,0,0,1-2.521,1.8,15.273,15.273,0,0,1-18.838-3.1A13.3,13.3,0,0,1,78,230.323c-.348-.638-.478-1.014-.435-1.043a20.379,20.379,0,0,0,2.637,3.188,15.592,15.592,0,0,0,18.287,3C100.7,234.337,101.849,233.222,101.95,233.294Z" transform="translate(-41.603 -97.183)" fill="#263238"/>
        <rect id="Rectangle_3325" data-name="Rectangle 3325" width="1.13" height="12.245" transform="matrix(0.996, -0.086, 0.086, 0.996, 35.387, 64.189)" fill="#ff725e"/>
      </g>
    </g>
  </g>
</svg>
