<svg id="Component_Character_Female_I" data-name="Component/Character/Female/I" xmlns="http://www.w3.org/2000/svg" xmlns:xlink="http://www.w3.org/1999/xlink" width="180" height="180" viewBox="0 0 180 180">
  <defs>
    <clipPath id="clip-path">
      <rect id="Rectangle_9950" data-name="Rectangle 9950" width="180" height="180" transform="translate(18960 -20754)" fill="#fff" stroke="#707070" stroke-width="1"/>
    </clipPath>
  </defs>
  <g id="Component_Character_Female_I-2" data-name="Component/Character/Female/I" transform="translate(-18960 20754)" clip-path="url(#clip-path)">
    <g id="Character--inject-504" transform="translate(18933.51 -20915.738)">
      <path id="Path_42255" data-name="Path 42255" d="M151.135,298.8l31.439,30.659,16.839-37.216,11.676,2.2c-14.441,63.21-18.113,63.558-26,64.32h0a24.59,24.59,0,0,1-19.6-6.842L148.2,335.189Z" transform="translate(-33.663 -39.429)" fill="#c17e69"/>
      <path id="Path_42266" data-name="Path 42266" d="M133.826,401.437l-15.511-29.626,4.933-31.706-2.491-49.612a22.784,22.784,0,0,0-20.7-6.432H75c-3.264,1.136-16.175,3.462-19.459,5.309-10.427,5.864-12.48,19.589-8.977,31.029l12.117,47.176-1.642,34.436Z" transform="translate(-1.068 -35.019)" fill="#ff725e"/>
      <path id="Path_42267" data-name="Path 42267" d="M154.6,293.66l26.52,29.879L152.15,341.4Z" transform="translate(-34.91 -38.186)" fill="#ff725e"/>
      <g id="Group_2277" data-name="Group 2277" transform="translate(57.135 345.283)" opacity="0.4">
        <path id="Path_42268" data-name="Path 42268" d="M64.479,426.343c-1.006,5.063,2.456,10.174,6.965,12.678s9.839,2.942,14.991,3.175a184.278,184.278,0,0,0,45.158-3.024c-7.355-2.313-15.155-2.737-22.866-2.894s-15.477-.1-23.058-1.5-15.094-4.393-20.526-9.859" transform="translate(-64.304 -424.92)"/>
      </g>
      <path id="Path_42269" data-name="Path 42269" d="M75.836,400.778a22.5,22.5,0,0,1-19.671-16.79c-1.368-5.2-15.675-49.051-11.057-68.777.041-.2.089-.39.137-.588,3.147-12.514,21.087-12.049,23.55.623l11.768,61.066L135.9,388.886s10.954-3.648,18.388-2.461,25.235,10.427,27.378,14.352-18.808,1.348-18.808,1.348S81.884,401.421,75.836,400.778Z" transform="translate(-0.818 -41.92)" fill="#c17e69"/>
      <path id="Path_42270" data-name="Path 42270" d="M55.764,291.61c-.4.267-13.41,4.222-14.047,19.254-.684,15.942,1.909,40.58,1.909,40.58l33.4-2.3L65.739,296.851Z" transform="translate(0 -37.539)" fill="#ff725e"/>
      <path id="Path_42271" data-name="Path 42271" d="M152.134,394.037a3.511,3.511,0,0,1-.034-.554V391.9a55.847,55.847,0,0,1,.438-5.823c.294-2.449.794-5.344,1.416-8.539s1.368-6.692,1.964-10.393a67.315,67.315,0,0,0,.951-10.537,39.957,39.957,0,0,0-.842-8.553,29.538,29.538,0,0,0-1.765-5.528,14.963,14.963,0,0,0-.684-1.437,4.018,4.018,0,0,1-.219-.506,2.888,2.888,0,0,1,.287.472c.164.328.452.78.725,1.416A27.237,27.237,0,0,1,156.26,348a38.377,38.377,0,0,1,.944,8.607,65.251,65.251,0,0,1-.924,10.564c-.609,3.715-1.368,7.218-2,10.407s-1.163,6.069-1.485,8.5-.493,4.42-.554,5.8c-.048.684-.048,1.218-.068,1.581a2.935,2.935,0,0,1-.041.582Z" transform="translate(-34.894 -53.003)" fill="#263238"/>
      <path id="Path_42272" data-name="Path 42272" d="M44.56,363.122h.164l.5-.055,1.923-.164,7.061-.547L77.518,360.7l.431-.034-.164.212-3.421-22.839c-.411-2.894-.746-5.248-.985-6.91-.109-.794-.192-1.416-.253-1.875a3.835,3.835,0,0,0-.055-.493.472.472,0,0,1,0-.171.554.554,0,0,1,.041.164,2.987,2.987,0,0,0,.1.486c.075.458.185,1.081.315,1.868.267,1.663.643,4.009,1.1,6.9.9,5.857,2.148,13.9,3.517,22.818v.192h-.629l-23.318,1.553L47.119,363l-1.923.1h-.5C44.615,363.136,44.56,363.129,44.56,363.122Z" transform="translate(-0.934 -49.217)" fill="#263238"/>
      <path id="Path_42273" data-name="Path 42273" d="M122.734,363.39a1.672,1.672,0,0,1,.089.328,8.723,8.723,0,0,1,.171.965,14.7,14.7,0,0,1,0,3.613,16.065,16.065,0,0,1-1.485,5.145,15.237,15.237,0,0,1-9.777,8.265,16.229,16.229,0,0,1-5.323.6,14.7,14.7,0,0,1-3.558-.623,9.147,9.147,0,0,1-.924-.328c-.205-.082-.315-.13-.308-.144a20.422,20.422,0,0,0,4.789.835,16.5,16.5,0,0,0,5.214-.684,15.922,15.922,0,0,0,5.658-3.01,15.737,15.737,0,0,0,3.914-5.077,16.7,16.7,0,0,0,1.533-5.036A20.526,20.526,0,0,0,122.734,363.39Z" transform="translate(-18.953 -60.206)" fill="#263238"/>
      <path id="Path_42274" data-name="Path 42274" d="M47.565,351.652a.684.684,0,0,1-.034-.205,2.571,2.571,0,0,0-.055-.6c0-.547-.1-1.314-.164-2.292-.13-1.991-.287-4.872-.424-8.443-.274-7.129-.424-17,0-27.881.109-2.737.157-5.392.513-7.951a19.158,19.158,0,0,1,2.217-7.075,14.368,14.368,0,0,1,4.714-4.789,20.431,20.431,0,0,1,5.351-2.367,39.509,39.509,0,0,1,8.361-1.286c1-.062,1.772-.1,2.3-.116h.8a.684.684,0,0,1-.205.034l-.6.048-2.251.157a42.127,42.127,0,0,0-8.3,1.368,20.48,20.48,0,0,0-5.262,2.381,14.081,14.081,0,0,0-4.584,4.694,18.822,18.822,0,0,0-2.176,6.952c-.349,2.532-.4,5.193-.506,7.909-.39,10.879-.281,20.738-.075,27.868.109,3.565.226,6.452.315,8.443.041.978.075,1.745.1,2.3v.6A.93.93,0,0,1,47.565,351.652Z" transform="translate(-1.586 -36.604)" fill="#fafafa"/>
      <path id="Path_42275" data-name="Path 42275" d="M78.118,292.81a.576.576,0,0,1-.185.034l-.541.062-2.053.233a41.057,41.057,0,0,0-7.526,1.519,18,18,0,0,0-4.728,2.278,12.206,12.206,0,0,0-3.914,4.475,16.947,16.947,0,0,0-1.581,6.425,70.476,70.476,0,0,0,0,7.2c.369,9.894,1.368,18.816,2.231,25.24.445,3.216.855,5.809,1.143,7.595.144.876.253,1.567.335,2.053l.082.534a.8.8,0,0,1,0,.192.841.841,0,0,1-.048-.185c-.034-.137-.068-.315-.116-.527-.1-.5-.233-1.184-.4-2.053-.335-1.786-.787-4.372-1.266-7.588a235.9,235.9,0,0,1-2.333-25.261,67.435,67.435,0,0,1,0-7.246,17.1,17.1,0,0,1,1.635-6.548,12.576,12.576,0,0,1,4.044-4.577,18.358,18.358,0,0,1,4.789-2.272,38.452,38.452,0,0,1,7.567-1.409c.9-.089,1.608-.144,2.053-.164h.547Z" transform="translate(-4.9 -37.918)" fill="#fafafa"/>
      <path id="Path_42276" data-name="Path 42276" d="M77.434,352.935a3.291,3.291,0,0,1-.1-.6c-.055-.424-.123-1-.212-1.717-.164-1.526-.4-3.674-.684-6.315-.554-5.364-1.314-12.719-2.155-20.848a54.111,54.111,0,0,1-.39-11.549,19.842,19.842,0,0,1,1.17-4.926,15.251,15.251,0,0,1,2.183-3.832,11.632,11.632,0,0,1,5.022-3.845,6.542,6.542,0,0,1,.958-.3,4.108,4.108,0,0,1,.718-.151,4.792,4.792,0,0,1,.6-.075,16.675,16.675,0,0,0-2.217.684,11.741,11.741,0,0,0-4.872,3.873,14.738,14.738,0,0,0-2.1,3.791,19.376,19.376,0,0,0-1.136,4.8,55.461,55.461,0,0,0,.417,11.474c.8,8.128,1.526,15.49,2.053,20.855.246,2.648.438,4.789.582,6.329.062.725.1,1.293.137,1.724a3.072,3.072,0,0,1,.027.623Z" transform="translate(-10.142 -39.803)" fill="#fafafa"/>
      <path id="Path_42277" data-name="Path 42277" d="M102.134,363.467a3.953,3.953,0,0,1-.123-.609q-.109-.684-.287-1.765c-.239-1.567-.575-3.777-.985-6.493-.807-5.515-1.9-13.075-3.12-21.436s-2.278-15.956-3-21.457a11.31,11.31,0,0,1,.116-3.763,5.85,5.85,0,0,1,1.3-2.525,4.105,4.105,0,0,1,1.444-1.06,2.359,2.359,0,0,1,.6-.178,4.481,4.481,0,0,0-1.943,1.334,5.706,5.706,0,0,0-1.2,2.477,10.947,10.947,0,0,0-.062,3.681c.794,5.515,1.888,13.082,3.1,21.443s2.237,15.928,3.011,21.45c.363,2.737.684,4.933.869,6.507.1.746.164,1.334.219,1.772A3.817,3.817,0,0,1,102.134,363.467Z" transform="translate(-16.71 -41.508)" fill="#fafafa"/>
      <path id="Path_42278" data-name="Path 42278" d="M113.9,406.312a17.474,17.474,0,0,1-.171-2.272c-.082-1.4-.226-3.332-.493-5.474s-.6-4.03-.862-5.412a19.461,19.461,0,0,1-.39-2.244,11.379,11.379,0,0,1,.643,2.189,51.255,51.255,0,0,1,.972,5.426,49.559,49.559,0,0,1,.383,5.474A11.467,11.467,0,0,1,113.9,406.312Z" transform="translate(-22.225 -68.897)" fill="#fafafa"/>
      <path id="Path_42279" data-name="Path 42279" d="M96.3,454.387a42.593,42.593,0,0,1-.883-7.827,21.355,21.355,0,0,1,.623,3.893,21.572,21.572,0,0,1,.26,3.934Z" transform="translate(-16.995 -86.471)" fill="#fafafa"/>
      <path id="Path_42280" data-name="Path 42280" d="M74.087,438.77a56.553,56.553,0,0,1,.041,6.295,53.37,53.37,0,0,1-.322,6.288,52.827,52.827,0,0,1-.041-6.295,53.368,53.368,0,0,1,.322-6.288Z" transform="translate(-10.134 -84.011)" fill="#fafafa"/>
      <path id="Path_42281" data-name="Path 42281" d="M102.51,388.49a10.372,10.372,0,0,1,.383,2.148,45.112,45.112,0,0,1,.014,10.523,10.948,10.948,0,0,1-.369,2.148,15.772,15.772,0,0,1,.116-2.176c.1-1.368.192-3.188.192-5.234s-.109-3.893-.205-5.234a16.1,16.1,0,0,1-.13-2.176Z" transform="translate(-19.234 -68.133)" fill="#fafafa"/>
      <path id="Path_42282" data-name="Path 42282" d="M112.021,453.523a10.633,10.633,0,0,1-.308-6.993c.109,0-.164,1.581-.068,3.51S112.13,453.5,112.021,453.523Z" transform="translate(-21.999 -86.461)" fill="#fafafa"/>
      <path id="Path_42283" data-name="Path 42283" d="M128.9,409.018a5.874,5.874,0,0,1-.151-.972c-.075-.684-.178-1.587-.3-2.655-.26-2.244-.65-5.33-1.184-8.73s-1.122-6.459-1.567-8.669c-.212-1.054-.39-1.929-.527-2.621a5.631,5.631,0,0,1-.157-.972,4.618,4.618,0,0,1,.294.937c.171.609.39,1.5.643,2.6.513,2.2,1.136,5.262,1.676,8.669s.883,6.507,1.074,8.758c.1,1.129.164,2.053.192,2.668A4.962,4.962,0,0,1,128.9,409.018Z" transform="translate(-26.34 -66.841)" fill="#fafafa"/>
      <path id="Path_42284" data-name="Path 42284" d="M131.059,330.64a3.8,3.8,0,0,1,.144.609c.089.431.2,1.013.349,1.745.294,1.519.684,3.729,1.163,6.452.944,5.474,2.135,13,3.236,21.382s1.888,15.99,2.388,21.5c.246,2.737.424,4.988.534,6.527.048.753.089,1.368.116,1.779a3.89,3.89,0,0,1,0,.623,4.1,4.1,0,0,1-.089-.616c-.041-.438-.1-1.026-.185-1.772-.157-1.574-.376-3.791-.684-6.521-.561-5.474-1.368-13.1-2.491-21.477s-2.251-15.922-3.127-21.388c-.438-2.7-.8-4.906-1.054-6.466-.116-.739-.205-1.327-.274-1.758A3.721,3.721,0,0,1,131.059,330.64Z" transform="translate(-28.249 -49.864)" fill="#fafafa"/>
      <path id="Path_42285" data-name="Path 42285" d="M145.915,373.441a.6.6,0,0,1,0-.171,2.292,2.292,0,0,0-.041-.493c0-.458-.055-1.088-.1-1.888s-.089-1.82-.185-2.983-.151-2.491-.308-3.955-.287-3.058-.513-4.789-.465-3.537-.746-5.474c-.616-3.832-1.409-8.026-2.449-12.384s-2.244-8.457-3.421-12.152c-.623-1.834-1.2-3.592-1.806-5.2s-1.17-3.127-1.717-4.488-1.061-2.586-1.512-3.661-.855-2-1.2-2.737-.575-1.307-.766-1.731l-.192-.452a.923.923,0,0,1-.055-.164.492.492,0,0,1,.089.144l.226.438.828,1.7c.363.739.794,1.649,1.252,2.737s1.026,2.278,1.567,3.647,1.17,2.853,1.758,4.475,1.211,3.366,1.847,5.207c1.2,3.695,2.415,7.8,3.469,12.165s1.827,8.573,2.422,12.418c.274,1.929.547,3.756.718,5.474s.349,3.325.465,4.789.192,2.792.26,3.962.1,2.169.116,2.99,0,1.43.034,1.9v.493a.493.493,0,0,1-.048.185Z" transform="translate(-28.203 -43.573)" fill="#fafafa"/>
      <path id="Path_42286" data-name="Path 42286" d="M129,291.65a1.464,1.464,0,0,1,.4.062,6.791,6.791,0,0,1,1.095.37,9.325,9.325,0,0,1,3.353,2.566,19.542,19.542,0,0,1,3.079,5.474l2.819,7.123c1.957,5.043,3.729,9.579,5.036,12.959.609,1.635,1.115,2.969,1.485,3.948.157.438.287.794.383,1.081a1.868,1.868,0,0,1,.116.383,1.609,1.609,0,0,1-.185-.363c-.116-.274-.267-.623-.445-1.054l-1.6-3.9L139.4,307.373c-.985-2.525-1.929-4.926-2.792-7.123a19.932,19.932,0,0,0-2.963-5.426,9.641,9.641,0,0,0-3.216-2.6A13.558,13.558,0,0,0,129,291.65Z" transform="translate(-27.6 -37.551)" fill="#fafafa"/>
      <path id="Path_42287" data-name="Path 42287" d="M111.159,314.49a2.738,2.738,0,0,1,.062.527q.041.568.1,1.5c.089,1.368.212,3.216.369,5.522.335,4.653.91,11.077,1.834,18.145s2.018,13.424,2.894,18.008c.438,2.265.8,4.105,1.061,5.433q.171.91.287,1.478a2.593,2.593,0,0,1,.075.52,2.736,2.736,0,0,1-.144-.506c-.1-.369-.212-.855-.356-1.464-.308-1.273-.684-3.12-1.177-5.405-.944-4.577-2.053-10.947-3-18.015s-1.457-13.513-1.731-18.179c-.137-2.333-.219-4.222-.253-5.528v-1.505A3.14,3.14,0,0,1,111.159,314.49Z" transform="translate(-21.964 -44.764)" fill="#fafafa"/>
      <path id="Path_42288" data-name="Path 42288" d="M167.316,323.944a2.906,2.906,0,0,1-.342-.486l-.917-1.423-3.325-5.268-4.878-7.841c-1.847-2.942-3.818-6.226-5.987-9.579a41.788,41.788,0,0,0-3.5-4.659,25.1,25.1,0,0,0-3.982-3.66,26.588,26.588,0,0,0-14.279-5.132c-.732-.048-1.3-.055-1.69-.048a3.594,3.594,0,0,1-.588,0,3.665,3.665,0,0,1,.588-.048,15.911,15.911,0,0,1,1.7,0,24.978,24.978,0,0,1,6.158.958,26.56,26.56,0,0,1,8.313,3.962,24.842,24.842,0,0,1,4.051,3.695,40.9,40.9,0,0,1,3.531,4.7c2.189,3.373,4.105,6.657,5.966,9.613l4.789,7.875c1.368,2.231,2.436,4.044,3.216,5.33L167,323.4a4.782,4.782,0,0,1,.315.547Z" transform="translate(-27.23 -35.697)" fill="#fafafa"/>
      <path id="Path_42289" data-name="Path 42289" d="M159.2,330.491a3.3,3.3,0,0,1-.281-.472l-.746-1.368-2.668-5.118-8.71-16.914a90.793,90.793,0,0,0-5.043-9.148,20.177,20.177,0,0,0-5.925-5.994,13.369,13.369,0,0,0-5.3-2.053c-1.368-.178-2.1-.089-2.1-.137a8.213,8.213,0,0,1,2.121,0,13.062,13.062,0,0,1,5.419,1.95,20.081,20.081,0,0,1,6.062,6.028,83.837,83.837,0,0,1,5.09,9.168l8.621,16.962c1.067,2.155,1.943,3.907,2.573,5.159.281.588.513,1.061.684,1.409a2.806,2.806,0,0,1,.205.527Z" transform="translate(-27.416 -36.784)" fill="#fafafa"/>
      <g id="Group_2278" data-name="Group 2278" transform="translate(82.011 309.8)" opacity="0.4">
        <path id="Path_42290" data-name="Path 42290" d="M101.331,384.418a1.273,1.273,0,0,0-.486,1.779,3.291,3.291,0,0,0,1.628,1.252,15.713,15.713,0,0,0,14.847-.876c4.311-2.86,6.712-8.573,5.166-13.513a15.8,15.8,0,0,1-20.684,11.3" transform="translate(-100.662 -373.06)"/>
      </g>
      <g id="Group_2279" data-name="Group 2279" transform="translate(110.398 275.357)" opacity="0.4">
        <path id="Path_42291" data-name="Path 42291" d="M150.36,335.72l-8.21-13c6.657,3.749,11.228,10.263,15.573,16.53a6.724,6.724,0,0,1,1.471,3.325,4.386,4.386,0,0,1-1.936,3.531,12.918,12.918,0,0,1-3.8,1.717c-.335-1.916-.684-3.838-.992-5.754" transform="translate(-142.15 -322.72)"/>
      </g>
      <path id="Path_42292" data-name="Path 42292" d="M152.75,232.384c-1.115-.9-2.7-1.019-3.845-1.882-2.354-1.772-1.676-5.378-2.183-8.286-.554-3.161-2.7-5.761-4.406-8.477s-3.681-6.657-2.422-9.579L116.87,246.376h36.112s1.095-6.644,1.286-8.58S154.269,233.595,152.75,232.384Z" transform="translate(-23.769 -9.923)" fill="#263238"/>
      <path id="Path_42293" data-name="Path 42293" d="M99.38,180.54c1.115-3.421,4.789-5.316,8.368-5.741s5.289,1.019,8.778.233c4.789-1.074,7.581-2.737,10.749-2.183,2.86.465,6.493,1.368,9.073,4.352,1.9,2.189,1.964,7.321,1.177,10.113-.725,2.545-2.7,4.625-3.229,7.218-.493,2.4.328,4.851.862,7.246,1.594,7.184.356,15.237-4.406,20.848s-13.342,8.094-19.917,4.789" transform="translate(-18.246 0)" fill="#263238"/>
      <path id="Path_42294" data-name="Path 42294" d="M114.871,285.436l-1.2-41.217s10.434-1.546,12.836-15.053c1.191-6.733,1.047-17.789.636-26.869-.369-8.156-9-16.421-17.105-15.737L83.63,191.1v4.379l-.26,60.169,31.515,29.8Z" transform="translate(-13.19 -4.353)" fill="#c17e69"/>
      <path id="Path_42295" data-name="Path 42295" d="M141.086,220.87a1.745,1.745,0,0,1-1.711,1.724,1.663,1.663,0,0,1-1.765-1.6,1.731,1.731,0,0,1,1.7-1.724,1.669,1.669,0,0,1,1.772,1.6Z" transform="translate(-31.687 -14.693)" fill="#263238"/>
      <path id="Path_42296" data-name="Path 42296" d="M140.5,217.018c-.219.226-1.519-.773-3.421-.8s-3.264.883-3.462.65c-.1-.1.13-.506.732-.937a4.79,4.79,0,0,1,2.778-.8,4.6,4.6,0,0,1,2.7.924C140.428,216.5,140.613,216.922,140.5,217.018Z" transform="translate(-29.052 -13.386)" fill="#263238"/>
      <path id="Path_42297" data-name="Path 42297" d="M115.146,220.41a1.745,1.745,0,0,1-1.711,1.724,1.663,1.663,0,0,1-1.765-1.6,1.738,1.738,0,0,1,1.711-1.724,1.663,1.663,0,0,1,1.765,1.6Z" transform="translate(-24.18 -14.547)" fill="#263238"/>
      <path id="Path_42298" data-name="Path 42298" d="M113.583,217.055c-.219.219-1.526-.78-3.421-.807s-3.264.883-3.462.65c-.1-.1.13-.506.739-.931a4.789,4.789,0,0,1,2.778-.807,4.625,4.625,0,0,1,2.7.924C113.5,216.541,113.686,216.952,113.583,217.055Z" transform="translate(-20.551 -13.396)" fill="#263238"/>
      <path id="Path_42299" data-name="Path 42299" d="M126.058,231.2a12.3,12.3,0,0,1,3.058-.493c.479-.041.931-.13,1.019-.458a2.484,2.484,0,0,0-.294-1.423l-1.368-3.667c-1.868-5.22-3.216-9.51-3-9.579s1.9,4.105,3.77,9.326l1.293,3.688a2.737,2.737,0,0,1,.212,1.882,1.2,1.2,0,0,1-.8.684,3.044,3.044,0,0,1-.814.1A12.211,12.211,0,0,1,126.058,231.2Z" transform="translate(-26.478 -13.528)" fill="#263238"/>
      <path id="Path_42300" data-name="Path 42300" d="M119.307,268.463a34.586,34.586,0,0,1-18.1-5.173s4.249,9.4,17.858,8.375Z" transform="translate(-18.824 -28.595)" fill="#7c3b29"/>
      <path id="Path_42301" data-name="Path 42301" d="M122.483,244.389a3.366,3.366,0,0,0-3-1.307,3.079,3.079,0,0,0-2.148,1.1,1.957,1.957,0,0,0-.192,2.231,2.272,2.272,0,0,0,2.449.684A7.177,7.177,0,0,0,122,245.73a2.19,2.19,0,0,0,.547-.547.616.616,0,0,0,0-.684" transform="translate(-23.771 -22.209)" fill="#7c3b29"/>
      <path id="Path_42302" data-name="Path 42302" d="M118.093,240.16c.308,0,.274,2.053,1.991,3.5s3.879,1.286,3.893,1.574c0,.13-.493.39-1.368.4a5.1,5.1,0,0,1-3.318-1.2,4.413,4.413,0,0,1-1.533-2.928C117.717,240.646,117.956,240.146,118.093,240.16Z" transform="translate(-24.048 -21.291)" fill="#263238"/>
      <path id="Path_42303" data-name="Path 42303" d="M113.716,206.532c-.2.506-2.053.233-4.269.458s-3.989.794-4.269.328c-.13-.219.192-.684.917-1.177a7.485,7.485,0,0,1,6.5-.6C113.394,205.882,113.8,206.293,113.716,206.532Z" transform="translate(-20.068 -10.208)" fill="#263238"/>
      <path id="Path_42304" data-name="Path 42304" d="M139.887,209.079c-.342.417-1.622-.041-3.175-.1s-2.874.239-3.168-.212c-.123-.219.089-.643.684-1.033a4.6,4.6,0,0,1,5.1.246C139.86,208.394,140,208.839,139.887,209.079Z" transform="translate(-29.024 -10.845)" fill="#263238"/>
      <path id="Path_42305" data-name="Path 42305" d="M94.085,176.943a18.911,18.911,0,0,1-6.671,26.4c-1.512.869-3.223,1.594-4.146,3.072-1.17,1.882-.684,4.283-.452,6.486a22.661,22.661,0,0,1-5.2,16.647c-2.593-5.043-5.207-10.167-6.343-15.737C70.7,211,70.5,208.1,69.481,205.42c-.6-1.6-1.5-3.079-2.053-4.707a14.813,14.813,0,0,1,.4-9.182,21.7,21.7,0,0,1,27.368-13.6" transform="translate(-7.983 -1.289)" fill="#263238"/>
      <path id="Path_42306" data-name="Path 42306" d="M63.22,190.77c-6.11,8.943-3.134,14.765-5.474,19.343-1.717,3.325-5.706,4.653-8.539,7.088-3.859,3.318-5.426,8.7-5.282,13.787s1.786,9.989,3.421,14.813l32.842.164c2.545-8.012-3.811-16.688-1.772-24.844.684-2.778,2.354-5.344,2.449-8.21a22.441,22.441,0,0,0-1-5.617,25.357,25.357,0,0,1,1.526-15.778" transform="translate(-0.731 -5.694)" fill="#263238"/>
      <path id="Path_42307" data-name="Path 42307" d="M140.52,182.885c-.041,0-.226-.424-.753-1.108a7.594,7.594,0,0,0-2.846-2.169,11.529,11.529,0,0,0-5.241-.958,23.317,23.317,0,0,0-6.418,1.478c-2.224.787-4.331,1.622-6.336,2.107a16.633,16.633,0,0,1-5.474.486,9.634,9.634,0,0,1-3.551-1.006,6.374,6.374,0,0,1-.848-.534,1.711,1.711,0,0,1-.274-.219c0-.041.411.253,1.191.623a10,10,0,0,0,3.5.876,16.605,16.605,0,0,0,5.344-.554c1.971-.493,4.064-1.368,6.295-2.121a22.722,22.722,0,0,1,6.527-1.471A11.631,11.631,0,0,1,137,179.369a7.526,7.526,0,0,1,2.853,2.326,5.473,5.473,0,0,1,.506.869,1.232,1.232,0,0,1,.157.322Z" transform="translate(-21.214 -1.757)" fill="#455a64"/>
      <path id="Path_42308" data-name="Path 42308" d="M148.22,218.62a2.62,2.62,0,0,1,.315.212,2.443,2.443,0,0,1,.342.3,3.2,3.2,0,0,1,.417.465,7.526,7.526,0,0,1,1.457,3.674,17.7,17.7,0,0,1,.2,2.737c0,.992-.055,2.053-.034,3.127a14.184,14.184,0,0,0,.4,3.38,6.219,6.219,0,0,0,1.745,3.093,17.68,17.68,0,0,0,3.1,1.964,6.288,6.288,0,0,1,2.5,2.443,8.32,8.32,0,0,1,.6,5.8,18.766,18.766,0,0,1-1.368,3.729c-.192.424-.356.746-.465.965a2.054,2.054,0,0,1-.185.328,1.224,1.224,0,0,1,.116-.356l.4-1a20.984,20.984,0,0,0,1.211-3.722,9.34,9.34,0,0,0,.192-2.668,7,7,0,0,0-.835-2.922,5.959,5.959,0,0,0-2.395-2.292,17.934,17.934,0,0,1-3.161-2,6.486,6.486,0,0,1-1.847-3.271,14.314,14.314,0,0,1-.383-3.462c0-1.108.055-2.162.068-3.134a19.447,19.447,0,0,0-.151-2.7,7.841,7.841,0,0,0-1.314-3.626A12.026,12.026,0,0,0,148.22,218.62Z" transform="translate(-33.669 -14.489)" fill="#455a64"/>
      <path id="Path_42309" data-name="Path 42309" d="M65.539,241.724a1.076,1.076,0,0,1-.1-.171l-.239-.513a20.729,20.729,0,0,1-.78-2.053,19.157,19.157,0,0,1-.794-3.38,15.511,15.511,0,0,1,.041-4.6,12.535,12.535,0,0,1,2.087-5.159,22.244,22.244,0,0,1,4.721-4.3,15.286,15.286,0,0,0,2.463-2.34,7.951,7.951,0,0,0,1.505-3.147,17.521,17.521,0,0,0-.349-7.41,30.688,30.688,0,0,1-1.04-7.526,9.579,9.579,0,0,1,.794-3.551A9.1,9.1,0,0,1,75.9,194.74a17.571,17.571,0,0,1,5.474-3.332c1.847-.766,3.606-1.368,5.145-2.053a16.551,16.551,0,0,0,3.886-2.333,10.264,10.264,0,0,0,2.258-2.559,7.294,7.294,0,0,0,.855-1.984c.13-.479.164-.739.185-.739a3.921,3.921,0,0,1-.109.759,7,7,0,0,1-.807,2.053A10.154,10.154,0,0,1,90.54,187.2a16.27,16.27,0,0,1-3.914,2.408c-1.546.718-3.3,1.368-5.132,2.114a17.344,17.344,0,0,0-5.344,3.291,8.717,8.717,0,0,0-1.95,2.737,9.079,9.079,0,0,0-.759,3.421,29.855,29.855,0,0,0,1.04,7.417,17.431,17.431,0,0,1,.342,7.567,8.211,8.211,0,0,1-1.581,3.284,15.373,15.373,0,0,1-2.532,2.388,21.965,21.965,0,0,0-4.68,4.215,12.316,12.316,0,0,0-2.053,5.029,17.194,17.194,0,0,0,.629,7.889c.274.9.541,1.594.684,2.053l.205.527a.685.685,0,0,1,.041.185Z" transform="translate(-6.909 -2.842)" fill="#455a64"/>
      <path id="Path_42310" data-name="Path 42310" d="M88.765,181.583a.76.76,0,0,1-.219,0l-.684-.062c-.575-.048-1.416-.13-2.5-.178a27.738,27.738,0,0,0-9.086,1,18.036,18.036,0,0,0-5.59,2.819,14.327,14.327,0,0,0-4.557,5.535,18.217,18.217,0,0,0-1.245,7.841,42.411,42.411,0,0,1-.294,8.689,12.193,12.193,0,0,1-1.546,4.167,9.914,9.914,0,0,1-3.045,3.058c-2.361,1.567-4.94,2.511-6.9,4.153a10.585,10.585,0,0,0-3.5,6.158,14.827,14.827,0,0,0,.137,6.261A21.169,21.169,0,0,0,51.6,235.9a35.578,35.578,0,0,0,2.053,3.421c.616.9,1.115,1.581,1.451,2.053l.383.527.123.185s-.055-.055-.151-.164l-.417-.506c-.356-.452-.876-1.115-1.505-2.012a32.627,32.627,0,0,1-2.1-3.373,21.073,21.073,0,0,1-1.929-4.906,14.888,14.888,0,0,1-.185-6.377,10.838,10.838,0,0,1,3.572-6.336c2.053-1.7,4.612-2.655,6.917-4.194a9.682,9.682,0,0,0,2.935-2.956,11.926,11.926,0,0,0,1.492-4.044,43.028,43.028,0,0,0,.3-8.621,18.646,18.646,0,0,1,1.293-7.978,14.669,14.669,0,0,1,4.659-5.645,18.2,18.2,0,0,1,5.727-2.826,26.834,26.834,0,0,1,9.175-.889c1.088.062,1.929.171,2.5.239l.643.1a.862.862,0,0,1,.233-.014Z" transform="translate(-2.355 -2.665)" fill="#455a64"/>
      <path id="Path_42311" data-name="Path 42311" d="M81.78,244.1a8.4,8.4,0,0,0,2.148-1.56,8.943,8.943,0,0,0,1.731-2.573,11.85,11.85,0,0,0,.978-3.989,15.737,15.737,0,0,0-.493-4.967,49.515,49.515,0,0,0-1.779-5.474,43.363,43.363,0,0,1-1.9-6.158,15.169,15.169,0,0,1,0-6.9,10.742,10.742,0,0,1,1.471-3.216,15.458,15.458,0,0,1,2.251-2.579,63.481,63.481,0,0,1,5.049-3.982,23.065,23.065,0,0,0,4.228-3.893A16.886,16.886,0,0,0,98,194.51a17.591,17.591,0,0,0,1.321-7.109,9.232,9.232,0,0,0-.062-1.136,7.108,7.108,0,0,0-.089-.835,3.907,3.907,0,0,0-.062-.513.685.685,0,0,1,0-.178,12.268,12.268,0,0,1,.369,2.662,17.379,17.379,0,0,1-1.225,7.2A17.187,17.187,0,0,1,95.717,199a23.565,23.565,0,0,1-4.263,3.968,62.1,62.1,0,0,0-5.008,3.975,14.909,14.909,0,0,0-2.2,2.518,10.365,10.365,0,0,0-1.416,3.113,14.841,14.841,0,0,0,0,6.739,43.446,43.446,0,0,0,1.834,6.083,48.581,48.581,0,0,1,1.758,5.549A16.223,16.223,0,0,1,86.884,236a12.07,12.07,0,0,1-1.054,4.051,9.093,9.093,0,0,1-1.813,2.593,6.883,6.883,0,0,1-1.615,1.184l-.472.212Z" transform="translate(-12.688 -3.79)" fill="#455a64"/>
      <path id="Path_42312" data-name="Path 42312" d="M109.15,188.485c3.476,2.429,7.321,4.974,11.549,4.673,2.511-.178,4.831-1.368,7.218-2.142s5.166-1.163,7.307.164c1.368-.116,2.053-2,1.423-3.243a5.441,5.441,0,0,0-3.3-2.374c-7.608-2.593-15.189.342-23.742.9" transform="translate(-21.331 -3.717)" fill="#263238"/>
      <path id="Path_42313" data-name="Path 42313" d="M140.789,191.018a3.791,3.791,0,0,0,.287-1.368,3.667,3.667,0,0,0-1.786-3.1,5.262,5.262,0,0,0-2.449-.732,7.765,7.765,0,0,0-2.928.486c-2.053.684-3.921,2.121-6.233,3.1a15.519,15.519,0,0,1-3.5,1.026,16.072,16.072,0,0,1-3.421.246,16.483,16.483,0,0,1-5.61-1.115,14.834,14.834,0,0,1-3.421-1.834,9.925,9.925,0,0,1-.814-.684c-.185-.151-.274-.239-.267-.253a19.3,19.3,0,0,0,4.564,2.511,16.77,16.77,0,0,0,5.528,1.019,16.373,16.373,0,0,0,3.318-.26,15.182,15.182,0,0,0,3.421-1.013c2.258-.951,4.187-2.4,6.267-3.086a7.9,7.9,0,0,1,3.052-.465,5.391,5.391,0,0,1,2.573.814,3.866,3.866,0,0,1,1.464,1.669,3.551,3.551,0,0,1,.322,1.649,2.737,2.737,0,0,1-.233,1.033A.972.972,0,0,1,140.789,191.018Z" transform="translate(-21.805 -4.026)" fill="#455a64"/>
      <path id="Path_42315" data-name="Path 42315" d="M276.83,409.719c-1.574,2.449-4.276,3.51-6.042,2.381s-1.923-4.037-.349-6.486,4.276-3.51,6.042-2.374S278.4,407.277,276.83,409.719Z" transform="translate(-71.923 -72.647)" fill="#e0e0e0"/>
      <g id="Group_25105" data-name="Group 25105" transform="translate(174.771 203.347)">
        <path id="Path_106824" data-name="Path 106824" d="M6.857,48.225S.026,34.367,0,31.468L1.88,14.26s1.191-.874,2.488,2.065a9.649,9.649,0,0,1,.371,6.023l1.429,3.825,1.959-3.018,2.039-11.291s1.324-8.141,2.568-7.32,1.694,3.164,1.138,6.684-1.258,7.942-1.258,7.942S12.5,20.495,13.74,18.2,16.176,6.027,16.652,4.69,17.234-.141,19.3,0s.94,4.633.94,4.633L18.664,19.2s1.734-5.864,2.065-6.87.821-4.183,1.443-5.93S23.8,3.75,24.687,3.75a1.668,1.668,0,0,1,1.6,1.628L23.641,17.821a61.215,61.215,0,0,0-1.324,6.036c.119.344,2.131-2.409,2.131-2.409l1.5-4.05s1.178-5.718,2.647-5.917,1.615.953,1.615.953L27.943,22.89,23.614,34.8l-4.17,8.974a41.648,41.648,0,0,1-.424,4.95C18.73,49.046,6.857,48.225,6.857,48.225Z" transform="matrix(0.998, 0.07, -0.07, 0.998, -13.106, 2.378)" fill="#c17e69"/>
        <path id="Path_106825" data-name="Path 106825" d="M4.964,0A24.393,24.393,0,0,1,0,6.486,24.4,24.4,0,0,1,4.964,0Z" transform="matrix(0.998, 0.07, -0.07, 0.998, -11.856, 26.605)" fill="#724940"/>
        <path id="Path_106826" data-name="Path 106826" d="M13.237,0A41.968,41.968,0,0,0,6.035,3,44.246,44.246,0,0,0,0,7.929,13.385,13.385,0,0,1,5.591,2.256,13.155,13.155,0,0,1,13.237,0Z" transform="matrix(0.998, 0.07, -0.07, 0.998, -6.84, 32.619)" fill="#724940"/>
        <path id="Path_106827" data-name="Path 106827" d="M.007,20.848c-.093-.079.715-1.046,1.734-2.74A24.977,24.977,0,0,0,5.236,3.23C5.077,1.244,4.786.04,4.892,0a9.263,9.263,0,0,1,.834,3.177,22,22,0,0,1-.4,7.942,21.749,21.749,0,0,1-3.177,7.254A9.81,9.81,0,0,1,.007,20.848Z" transform="matrix(0.998, 0.07, -0.07, 0.998, 16.599, 17.488)" fill="#263238"/>
        <path id="Path_106828" data-name="Path 106828" d="M0,21.457A37.767,37.767,0,0,0,2.647,10.867,39.2,39.2,0,0,0,1.562,0,10.59,10.59,0,0,1,2.674,3.071a24.705,24.705,0,0,1,.662,7.849A25.467,25.467,0,0,1,1.522,18.6,9.953,9.953,0,0,1,0,21.457Z" transform="matrix(0.998, 0.07, -0.07, 0.998, 24.778, 17.713)" fill="#263238"/>
        <path id="Path_106829" data-name="Path 106829" d="M.054,11.119A4.714,4.714,0,0,1,.227,8.961,13.038,13.038,0,0,1,6.3.728,4.8,4.8,0,0,1,8.275,0,16.9,16.9,0,0,0,.028,11.185Z" transform="matrix(0.998, 0.07, -0.07, 0.998, -9.366, -4.829)" fill="#263238"/>
        <path id="Path_106830" data-name="Path 106830" d="M0,11.106A15.394,15.394,0,0,1,9.782,0a32.22,32.22,0,0,0-5.8,4.752A31.919,31.919,0,0,0,0,11.106Z" transform="matrix(0.998, 0.07, -0.07, 0.998, -14.495, -7.391)" fill="#263238"/>
      </g>
    </g>
  </g>
</svg>
