<svg id="Component_Character_Male_O" data-name="Component/Character/Male/O" xmlns="http://www.w3.org/2000/svg" xmlns:xlink="http://www.w3.org/1999/xlink" width="180" height="180" viewBox="0 0 180 180">
  <defs>
    <clipPath id="clip-path">
      <rect id="Rectangle_9976" data-name="Rectangle 9976" width="180" height="180" transform="translate(18000 -23660)" fill="#fff" stroke="#707070" stroke-width="1"/>
    </clipPath>
  </defs>
  <g id="Component_Character_Male_O-2" data-name="Component/Character/Male/O" transform="translate(-18000 23660)" clip-path="url(#clip-path)">
    <g id="character-2--inject-589" transform="translate(18006 -23649.787)">
      <g id="Group_25155" data-name="Group 25155" transform="translate(26.598 -1.244)">
        <path id="Path_106115" data-name="Path 106115" d="M489.679,201.753c-2.486-.308-4.458-2.132-6.716-3.193a11.654,11.654,0,0,0-10.741.536c-3.2,1.916-5.485,4.219-5.7,7.982l4.185,4.561" transform="translate(-446.645 -196.773)" fill="#263238"/>
        <path id="Path_106116" data-name="Path 106116" d="M456.052,224.442l6.728,40.377c1.14,6.842,4.219,16.728,14.995,14.424h0c9.2-2.7,10.1-12.03,9.031-18.438-.513-3.045-.935-5.576-.958-5.9,0,0,10.114-2.68,9.122-12.976-.468-4.972-2.281-15.154-3.968-24.333a19.271,19.271,0,0,0-20.9-15.588l-.992.1C458.469,203.848,454.011,213.849,456.052,224.442Z" transform="translate(-439.518 -196.155)" fill="#f4d3bd"/>
        <path id="Path_106117" data-name="Path 106117" d="M477.179,248.556a24.06,24.06,0,0,1-13.809-2.406s3.945,7.07,14.105,5.074Z" transform="translate(-430.85 -189.949)" fill="#eaae94"/>
        <path id="Path_106118" data-name="Path 106118" d="M466.847,221.186c-.205.182-1.6-.342-3.5-.114s-3.238,1.06-3.421.912.091-.376.673-.753a6.58,6.58,0,0,1,2.748-.935,5.884,5.884,0,0,1,2.805.3C466.721,220.833,466.949,221.106,466.847,221.186Z" transform="translate(-416.253 -193.584)" fill="#263238"/>
        <path id="Path_106119" data-name="Path 106119" d="M480.539,222.713c-.205.182-1.6-.331-3.489-.1s-3.227,1.049-3.421.912.091-.376.673-.753a6.933,6.933,0,0,1,2.737-.924,6.157,6.157,0,0,1,2.794.285C480.425,222.371,480.642,222.633,480.539,222.713Z" transform="translate(-445.567 -193.367)" fill="#263238"/>
        <path id="Path_106120" data-name="Path 106120" d="M475.527,224.932a1.138,1.138,0,1,1-1.277-.9A1.14,1.14,0,0,1,475.527,224.932Z" transform="translate(-443.202 -194.053)" fill="#263238"/>
        <path id="Path_106121" data-name="Path 106121" d="M462.577,223.512a1.139,1.139,0,1,1-1.277-.9A1.14,1.14,0,0,1,462.577,223.512Z" transform="translate(-415.486 -194.253)" fill="#263238"/>
        <path id="Path_106122" data-name="Path 106122" d="M466.764,233.346a10.033,10.033,0,0,1,2.52-.73c.4-.091.775-.205.81-.49a2.019,2.019,0,0,0-.4-1.14c-.479-.935-.981-1.916-1.517-2.942a56.063,56.063,0,0,1-3.523-7.754c.171-.091,2.03,3.25,4.139,7.446l1.391,2.942a2.281,2.281,0,0,1,.376,1.562,1.038,1.038,0,0,1-.6.661,2.917,2.917,0,0,1-.673.171,10.33,10.33,0,0,1-2.52.274Z" transform="translate(-425.418 -193.578)" fill="#263238"/>
        <path id="Path_106123" data-name="Path 106123" d="M481.62,216.661c-.1.41-1.505.365-3.124.741s-2.885.981-3.147.65.08-.559.57-.992a5.268,5.268,0,0,1,2.281-1.14,5.063,5.063,0,0,1,2.509,0C481.324,216.193,481.654,216.467,481.62,216.661Z" transform="translate(-448.553 -194.212)" fill="#263238"/>
        <path id="Path_106124" data-name="Path 106124" d="M466.95,216.87c-.125.342-1.517.239-3.124.479s-2.919.684-3.147.388.114-.456.639-.8a6.077,6.077,0,0,1,4.766-.661C466.687,216.459,467,216.71,466.95,216.87Z" transform="translate(-417.177 -194.171)" fill="#263238"/>
        <path id="Path_106125" data-name="Path 106125" d="M493.457,228.286c-.182-.057-7.286-1.357-6.328,5.7s7.8,4.561,7.788,4.39S493.457,228.286,493.457,228.286Z" transform="translate(-475.281 -192.474)" fill="#f4d3bd"/>
        <path id="Path_106126" data-name="Path 106126" d="M492.808,235.661a1.959,1.959,0,0,1-.3.228,1.243,1.243,0,0,1-.912.148,3.056,3.056,0,0,1-1.768-2.52,3.934,3.934,0,0,1,.1-1.8,1.4,1.4,0,0,1,.787-1.06.627.627,0,0,1,.764.239c.125.182.091.331.137.331s.137-.137,0-.422a.809.809,0,0,0-.331-.4.924.924,0,0,0-.707-.08,1.722,1.722,0,0,0-1.14,1.254,4.218,4.218,0,0,0-.16,2.018,3.2,3.2,0,0,0,2.2,2.782,1.323,1.323,0,0,0,1.14-.342C492.82,235.843,492.842,235.661,492.808,235.661Z" transform="translate(-475.682 -192.174)" fill="#eaae94"/>
        <path id="Path_106127" data-name="Path 106127" d="M495.907,215.454a14.915,14.915,0,0,1-13.512-1.585c-2.725-1.859-4.972-4.709-8.21-5.337a8.381,8.381,0,0,0-6.294,1.539,16.194,16.194,0,0,0-4.379,4.96c2.531,5.017,1.813,10.992,1.026,16.557a2.794,2.794,0,0,1-.65,1.71,2.281,2.281,0,0,1-2.862-.319,8.756,8.756,0,0,1-2.395-4.39,29.112,29.112,0,0,1-1.14-11.4,19.783,19.783,0,0,1,4.367-10.5,18.723,18.723,0,0,1,12.543-6.317,22.977,22.977,0,0,1,13.786,3.352,13.547,13.547,0,0,1,4.835,4.561" transform="translate(-442.417 -196.381)" fill="#263238"/>
        <path id="Path_106128" data-name="Path 106128" d="M501.955,225.663c-.661-2.828-.969-6.4-1.631-9.225a17.218,17.218,0,0,1-12.7-3.159c-1.87-1.448-3.489-3.421-5.758-4.059-2.93-.844-5.964.7-8.62,2.189l.1-.125a12.942,12.942,0,0,0-3.421,3.535,40.208,40.208,0,0,1,1.288,17.1,2.93,2.93,0,0,1-1.334,2.11c-1.448.878-2.531-.114-3.626-.787-.8-.5-1.938-.821-2.623-.171a39.913,39.913,0,0,1-4.629-11.4,2.873,2.873,0,0,1-5.063,2.531,6.055,6.055,0,0,0,1.391-2.873,3.717,3.717,0,0,1-5.3-.422l2.224-2.281-3.17.171a16.933,16.933,0,0,0,6.021-5.211,26.155,26.155,0,0,1,5.6-5.7c2.281-1.46,5.291-2.053,7.617-.707-.16-3.706,2.5-7.138,5.861-8.7a24.037,24.037,0,0,1,12.748-1.266c2.805.593,5.7,2.281,9.362,4.915a34.138,34.138,0,0,1,4.858,4.2c2.212,2.338,6.625,6.169,10.855,5.029l-.376,4.356c-2.281,2.178-6.99.262-6.99.262s2.714,2.7,5.257,2.634l-.684,3.74s-3.843.673-5.53-2.281Z" transform="translate(-449.08 -196.863)" fill="#263238"/>
        <path id="Path_106129" data-name="Path 106129" d="M451.535,214.052s.331-.547,1.026-1.471a13.021,13.021,0,0,1,3.535-3.261,13.409,13.409,0,0,1,3.1-1.14,6.693,6.693,0,0,1,3.706-.091c2.577.775,4.458,3.421,7.218,5.051a15.885,15.885,0,0,0,8.575,2.543,19.557,19.557,0,0,0,2.03-.091,1.858,1.858,0,0,1,.844,0,8.789,8.789,0,0,1,.81.4,7.73,7.73,0,0,1,2.167,2.429,6.123,6.123,0,0,0,4.219,2.5,7.014,7.014,0,0,0,1.346,0,1.617,1.617,0,0,0,.456-.08c0-.057-.65,0-1.767-.171a6.055,6.055,0,0,1-3.934-2.52,7.822,7.822,0,0,0-2.281-2.6,7.655,7.655,0,0,0-.867-.433,2.383,2.383,0,0,0-1.049-.091,18.68,18.68,0,0,1-1.973.068,15.679,15.679,0,0,1-8.29-2.509,29.543,29.543,0,0,1-3.615-2.794,10.821,10.821,0,0,0-3.752-2.281,7.16,7.16,0,0,0-3.968.125,13.68,13.68,0,0,0-3.181,1.3,12.281,12.281,0,0,0-3.512,3.489,8.148,8.148,0,0,0-.684,1.14C451.569,213.893,451.512,214.041,451.535,214.052Z" transform="translate(-430.44 -195.401)" fill="#455a64"/>
        <path id="Path_106130" data-name="Path 106130" d="M486.06,219.481a1.4,1.4,0,0,0,.194.582,5.282,5.282,0,0,0,.889,1.46,2.725,2.725,0,0,0,2.44.992,1.916,1.916,0,0,0,1.38-.981,2.851,2.851,0,0,0,.308-1.767l-.524.137a2.28,2.28,0,0,0,1.984,1.334,2.782,2.782,0,0,0,2.075-.775,4.333,4.333,0,0,0,1.14-1.7,11.4,11.4,0,0,0,.468-3.273,16.167,16.167,0,0,1,.376-2.931,5.416,5.416,0,0,0-.764,2.908,11.9,11.9,0,0,1-.57,3.113,3.8,3.8,0,0,1-.981,1.471,2.281,2.281,0,0,1-1.676.627,1.745,1.745,0,0,1-1.505-.981l-.946-2.36.422,2.5a1.836,1.836,0,0,1-1.231,2.212,2.4,2.4,0,0,1-2.1-.764,6.914,6.914,0,0,1-.992-1.311C486.208,219.641,486.083,219.47,486.06,219.481Z" transform="translate(-476.037 -194.661)" fill="#455a64"/>
        <path id="Path_106131" data-name="Path 106131" d="M484.62,226.3a3.022,3.022,0,0,0,1.973.513,6.762,6.762,0,0,0,4.481-1.961,12.762,12.762,0,0,0,2.68-4.082,6.237,6.237,0,0,0,.661-1.893A8.415,8.415,0,0,0,493.4,220.6a15.737,15.737,0,0,1-2.714,3.854,7.07,7.07,0,0,1-4.116,1.961A15.032,15.032,0,0,1,484.62,226.3Z" transform="translate(-472.02 -193.775)" fill="#455a64"/>
        <path id="Path_106132" data-name="Path 106132" d="M484.68,227.25a3.717,3.717,0,0,0,1.733.125,9.43,9.43,0,0,0,3.979-1.346,9.271,9.271,0,0,0,3.01-2.942,3.422,3.422,0,0,0,.673-1.608,11.575,11.575,0,0,0-1,1.38,11.245,11.245,0,0,1-2.965,2.691,11.084,11.084,0,0,1-3.752,1.425A10.464,10.464,0,0,0,484.68,227.25Z" transform="translate(-471.75 -193.411)" fill="#455a64"/>
        <path id="Path_106133" data-name="Path 106133" d="M487.11,203.622a11.266,11.266,0,0,0,1.756-.24,11.746,11.746,0,0,1,4.162.251,11.894,11.894,0,0,1,3.808,1.722c.878.616,1.368,1.14,1.437,1.038a4.049,4.049,0,0,0-1.2-1.357,10.092,10.092,0,0,0-3.911-1.95,9.772,9.772,0,0,0-4.356-.091A3.968,3.968,0,0,0,487.11,203.622Z" transform="translate(-478.717 -196.032)" fill="#455a64"/>
        <path id="Path_106134" data-name="Path 106134" d="M487.982,198.17a8.883,8.883,0,0,0,1.459,9.339,21.781,21.781,0,0,1-1.517-4.561A21.078,21.078,0,0,1,487.982,198.17Z" transform="translate(-470.057 -196.68)" fill="#455a64"/>
        <path id="Path_106135" data-name="Path 106135" d="M492.712,210.332a4.811,4.811,0,0,1-1.471.844,8.119,8.119,0,0,1-4.561-.536c-.935-.308-1.95-.718-3.056-1.14a19.53,19.53,0,0,1-3.341-1.574c-2.28-1.3-4.561-3.159-7.378-4.424a12.885,12.885,0,0,0-4.379-1.14,8.073,8.073,0,0,0-4.139.855c-2.406,1.254-4.105,2.988-5.929,3.706a5.9,5.9,0,0,1-4.481.205,4.812,4.812,0,0,1-1.357-.992,2.2,2.2,0,0,0,.239.388,3.306,3.306,0,0,0,1.026.81,6.02,6.02,0,0,0,4.721,0c1.95-.73,3.706-2.463,6.009-3.615a7.617,7.617,0,0,1,3.877-.775,12.783,12.783,0,0,1,4.185,1.14c2.748,1.22,5.029,3.056,7.355,4.356a19.16,19.16,0,0,0,3.421,1.574c1.14.388,2.121.787,3.079,1.072a7.981,7.981,0,0,0,4.732.365,3.09,3.09,0,0,0,1.14-.7,1.723,1.723,0,0,0,.308-.422Z" transform="translate(-433.829 -196.095)" fill="#455a64"/>
        <path id="Path_106136" data-name="Path 106136" d="M466.31,206.743a34.912,34.912,0,0,1,2.7-2.737,16.112,16.112,0,0,1,8.347-3.637,27.968,27.968,0,0,1,5.1.057,28.657,28.657,0,0,0,4.242.091,9.3,9.3,0,0,0,2.805-.616,2.838,2.838,0,0,0,.924-.5,14.094,14.094,0,0,1-3.752.718,33.474,33.474,0,0,1-4.185-.205,25.088,25.088,0,0,0-5.2-.1,15.553,15.553,0,0,0-8.541,3.9,13.948,13.948,0,0,0-1.9,2.132,3.422,3.422,0,0,0-.536.9Z" transform="translate(-447.153 -196.507)" fill="#455a64"/>
        <path id="Path_106137" data-name="Path 106137" d="M473.182,236.69c0-.194-1.391-.353-2.577-1.46a7.863,7.863,0,0,1-1.289-1.642c-.3-.468-.513-.764-.581-.718s0,.365.228.9a5.007,5.007,0,0,0,1.254,1.87,4.253,4.253,0,0,0,2.018,1.049C472.852,236.8,473.171,236.759,473.182,236.69Z" transform="translate(-432.645 -191.813)" fill="#263238"/>
      </g>
      <g id="Group_25063" data-name="Group 25063" transform="matrix(-0.891, -0.454, 0.454, -0.891, 128.76, 143.002)">
        <g id="Group_25064" data-name="Group 25064" transform="translate(0.001 0.001)">
          <path id="Path_106087" data-name="Path 106087" d="M28.131,17.036,23.192,56.7a15.887,15.887,0,0,0,1.642,8.328,16.518,16.518,0,0,0,2.007,3.232A17.527,17.527,0,0,0,30.295,71.5a1.447,1.447,0,0,1-.261,2.724c-1.3.143-4.822-1.746-7.6-5.552s-3.063,3.519-3.219,6.178S18.2,85.694,17.353,86.281c-1.3.847-2.424-.365-2.216-3.024s.313-10.648-1.095-10.7-1.981,13.5-1.981,13.5.339,2.932-1.3,2.919c-2.919,0-1.225-14.336-1.03-15.64.13-.938-1.395-1.056-1.486,0S7.956,86.867,4.984,86.893c-2.294,0,1.3-11.808-.1-14.454s-1.8,9.267-3.988,9.188c-.808,0-1.421-.156-.209-6.934.652-3.649,3.063-8.9,3.793-16.018l.2-1.838c.143-8.863,2.1-35.567,10.153-55.9C17.119-4.721,28.131,17.036,28.131,17.036Z" transform="translate(0 -0.001)" fill="#f4d3bd"/>
          <path id="Path_106088" data-name="Path 106088" d="M0,2.659a7.375,7.375,0,0,0,1.16-.3A4.209,4.209,0,0,0,3.415.5L3.688,0l.156.547A6.88,6.88,0,0,0,4.927,2.711,7.911,7.911,0,0,0,8.667,5.474c1.147.4,1.929.378,1.929.482a3.819,3.819,0,0,1-2.033-.143A7.428,7.428,0,0,1,4.51,3.024,6.738,6.738,0,0,1,3.389.691h.43a4.093,4.093,0,0,1-2.607,1.9A1.969,1.969,0,0,1,0,2.659Z" transform="translate(8.89 59.626)" fill="#eaae94"/>
        </g>
      </g>
      <path id="Path_14664" data-name="Path 14664" d="M489.27,388.23a7.644,7.644,0,0,0,.909-.7c.283-.231.659-.514,1.061-.817s.89-.659,1.45-1.021,1.14-.758,1.819-1.133,1.4-.771,2.168-1.166a33.815,33.815,0,0,1,10.754-3.216c.863-.092,1.68-.2,2.451-.217s1.489-.053,2.141-.046,1.252.04,1.773.059.969.059,1.318.1a6.936,6.936,0,0,0,1.14.079,8.672,8.672,0,0,0-1.127-.211,13.167,13.167,0,0,0-1.318-.158c-.521-.04-1.114-.112-1.779-.112s-1.384-.04-2.161,0-1.608.105-2.478.184A36.045,36.045,0,0,0,501.816,381a34.921,34.921,0,0,0-5.271,2.1c-.771.409-1.516.784-2.168,1.206s-1.272.8-1.812,1.18-1.015.751-1.43,1.067-.758.619-1.028.87A6.942,6.942,0,0,0,489.27,388.23Z" transform="translate(-425.617 -236.557)" fill="#fafafa"/>
      <path id="Path_14665" data-name="Path 14665" d="M420.186,319.737l-5.4-23.412c-2.069-8.8-4.52-17.264-8.639-18.266v2.721l1.766,66.888s11.011,12.52,25.04,5.575c4.389-2.181,12.395-17.5,12.395-17.5S463.972,302.506,463.195,301s-12.157-16.177-13.317-16.908Z" transform="translate(-317.807 -201.907)" fill="#ff725e"/>
      <path id="Path_14666" data-name="Path 14666" d="M534.166,267.261c-10.741,2.056-22.832,8.322-28.4,24.38-2.029,5.865-16.816,49.1-16.816,49.1l25.218-.527,4.072-8.9-1.977,14.464L514.556,366.4l63.68,1.074-.448-31.075-.613-61.808s-.712-.936-11.7-6.991C558.666,263.834,534.166,267.261,534.166,267.261Z" transform="translate(-487.389 -197.737)" fill="#ff725e"/>
      <g id="Group_979" data-name="Group 979" transform="translate(29.046 110.865)" opacity="0.2">
        <path id="Path_14667" data-name="Path 14667" d="M576.81,330.74c-1.048,13.047-2.247,17.08-3.295,30.126a11.584,11.584,0,0,1-.659,3.624,3.954,3.954,0,0,1-2.636,2.405c-1.858.376-4.27,1.72-4.79-.1l1.759-12.566a24.784,24.784,0,0,1,1.74-5.3c3.908-8.678,5.351-9.185,7.907-18.187" transform="translate(-565.43 -330.74)"/>
      </g>
      <path id="Path_14668" data-name="Path 14668" d="M539.884,270.554l-.211-1.357-2.036-13.021a1.516,1.516,0,0,0-1.621-1.278l-25.073,2.1a2.88,2.88,0,0,0-2.636,3.084l.56,7.565,7.828,10.213,11.274,1.759" transform="translate(-461.788 -194.005)" fill="#ff725e"/>
      <path id="Path_14669" data-name="Path 14669" d="M489.1,315.81c-.1,0-.171,10.2-.171,22.779s.072,22.779.171,22.779.171-10.2.171-22.779S489.194,315.81,489.1,315.81Z" transform="translate(-398.412 -214.783)" fill="#263238"/>
      <path id="Path_14670" data-name="Path 14670" d="M557.071,350.437s0-.046.079-.145a2.649,2.649,0,0,0,.211-.448l.764-1.733,2.748-6.4,8.955-21.158c1.74-4.138,3.393-8.079,4.9-11.67a21.981,21.981,0,0,0,1.621-5.271,29.072,29.072,0,0,0,.435-4.81,19.4,19.4,0,0,0-1-6.886l-.2-.547-.231-.461a4.048,4.048,0,0,0-.4-.7l-.277-.409a1.152,1.152,0,0,0-.105-.132,13.548,13.548,0,0,1,1.087,2.293,19.927,19.927,0,0,1,.883,6.84,25.145,25.145,0,0,1-2.1,9.983l-4.922,11.657-8.863,21.2-2.636,6.438-.705,1.759-.178.461A.8.8,0,0,0,557.071,350.437Z" transform="translate(-530.833 -205.867)" fill="#263238"/>
      <path id="Path_14678" data-name="Path 14678" d="M510.339,268.651a1.047,1.047,0,0,0,.3.079l.876.158c.764.125,1.871.29,3.235.474,2.741.369,6.537.8,10.747,1.114a53.422,53.422,0,0,0,5.93.211,16.818,16.818,0,0,0,4.8-.824,10.67,10.67,0,0,0,2.932-1.483,7.213,7.213,0,0,0,.7-.56c.145-.145.217-.217.211-.231s-.343.264-.982.659a11.763,11.763,0,0,1-2.932,1.357,17.073,17.073,0,0,1-4.744.738,58.662,58.662,0,0,1-5.93-.237c-4.2-.31-7.993-.7-10.734-1.008l-3.249-.369a8.338,8.338,0,0,0-1.166-.079Z" transform="translate(-463.325 -198.336)" fill="#263238"/>
      <path id="Path_14679" data-name="Path 14679" d="M522.466,385.529a17.705,17.705,0,0,0,17.2,21.086l49.914-.554L588.267,389.9l-42.739-6.418" transform="translate(-520.608 -237.863)" fill="#f4d3bd"/>
      <path id="Path_14680" data-name="Path 14680" d="M481.914,392.149a46.223,46.223,0,0,0,5.693-2.412,18.608,18.608,0,0,1,8.764-1.7l11.9.606a5.647,5.647,0,0,1-1.977,2.636c-1.245.659-8.711.87-8.711.87l.382.389a8.566,8.566,0,0,0,5.93,2.6h1.14a11.055,11.055,0,0,0,2.484-.488l2.932-1.186c.89-.4,1.825-.336,2.214.56s.092,1.924-2.333,3.143c-1.351.659-6.372,2.418-6.372,2.418a11.823,11.823,0,0,1-.3,2.122c-.217.731-2.188,1.463-2.188,1.463a26.244,26.244,0,0,1-1.753,3.137,17.912,17.912,0,0,1-3.921,1.357,16.929,16.929,0,0,1-9.377-.073l-4.533-1.357V392.393" transform="translate(-417.313 -239.409)" fill="#f4d3bd"/>
      <path id="Path_14681" data-name="Path 14681" d="M494.97,407.177a13.489,13.489,0,0,0,6-1.581c0-.079-1.318.422-2.985.85S494.963,407.078,494.97,407.177Z" transform="translate(-414.093 -245.403)" fill="#eaae94"/>
      <path id="Path_14682" data-name="Path 14682" d="M498.62,411.763a3.044,3.044,0,0,0,1.674-.125,3.091,3.091,0,0,0,1.5-.738,9.939,9.939,0,0,0-1.581.455A10.718,10.718,0,0,0,498.62,411.763Z" transform="translate(-417.321 -247.215)" fill="#eaae94"/>
      <path id="Path_14683" data-name="Path 14683" d="M494.8,392.66a5.058,5.058,0,0,0,.916.982,14.67,14.67,0,0,0,2.6,1.977,10.228,10.228,0,0,0,3.038,1.173,4.381,4.381,0,0,0,1.318.145,17.351,17.351,0,0,1-4.23-1.575,20.223,20.223,0,0,1-2.6-1.865A7.5,7.5,0,0,0,494.8,392.66Z" transform="translate(-415.675 -240.994)" fill="#eaae94"/>
      <path id="Path_14684" data-name="Path 14684" d="M592.169,384.363l1.212,18.279H546.367a17.56,17.56,0,0,1-9.06-2.511h0a17.581,17.581,0,0,1-8.2-18.45,54.087,54.087,0,0,1,3.031-10.141l23.643,3.894-.758,2.939Z" transform="translate(-528.78 -233.79)" fill="#ff725e"/>
      <path id="Path_14685" data-name="Path 14685" d="M531.71,379.576a3.826,3.826,0,0,0,.474.105l1.377.25,5.08.843,16.711,2.636,16.73,2.563,5.074.738,1.384.185a4.261,4.261,0,0,0,.488.04,2.332,2.332,0,0,0-.481-.112l-1.371-.244-5.061-.85L555.405,383.1l-16.763-2.583-5.074-.738-1.384-.185A2.241,2.241,0,0,0,531.71,379.576Z" transform="translate(-516.357 -236.529)" fill="#263238"/>
    </g>
  </g>
</svg>
