<svg id="Component_Character_Female_E" data-name="Component/Character/Female/E" xmlns="http://www.w3.org/2000/svg" xmlns:xlink="http://www.w3.org/1999/xlink" width="180" height="180" viewBox="0 0 180 180">
  <defs>
    <clipPath id="clip-path">
      <rect id="Rectangle_9948" data-name="Rectangle 9948" width="180" height="180" transform="translate(17573 -19022)" fill="#fff" stroke="#707070" stroke-width="1"/>
    </clipPath>
  </defs>
  <g id="Component_Character_Female_E-2" data-name="Component/Character/Female/E" transform="translate(-17573 19022)" clip-path="url(#clip-path)">
    <g id="character-3--inject-833" transform="translate(17593 -19009.621)">
      <path id="Path_106831" data-name="Path 106831" d="M510.636,224.139l8.349,15.118,5.12-41.1a16.564,16.564,0,0,0-1.7-8.647,17.971,17.971,0,0,0-2.081-3.337,18.173,18.173,0,0,0-3.58-3.364c-1.351-.743-1.081-2.7.257-2.837s5,1.824,7.877,5.755,3.188-3.634,3.351-6.39,1.054-11.254,1.932-11.849c1.351-.878,2.513.378,2.283,3.121s-.311,11.052,1.135,11.106,2.067-14,2.067-14-.351-3.04,1.351-3.04c3.04,0,1.284,14.861,1.081,16.213-.149.973,1.432,1.081,1.527,0s.3-14.037,3.391-14.051c2.364,0-1.351,12.227.108,14.97s1.864-9.592,4.134-9.525c.838,0,1.473.176.2,7.2-.675,3.783-3.161,9.214-3.932,16.591L543.3,198c-.135,9.187-2.162,36.87-10.525,57.946a17.064,17.064,0,0,1-30.034,3.04c-5.148-7.741-13.267-27.994-13.267-27.994Z" transform="translate(-407.848 -115.618)" fill="#ffbe9d"/>
      <path id="Path_106832" data-name="Path 106832" d="M507.264,186.057a3.288,3.288,0,0,0-1.2.324,4.3,4.3,0,0,0-2.337,1.932l-.284.513-.162-.581A7.42,7.42,0,0,0,502.157,186a8.228,8.228,0,0,0-3.878-2.851c-1.189-.432-2.013-.405-2-.5a3.8,3.8,0,0,1,2.108.149,7.647,7.647,0,0,1,4.188,2.891,7.08,7.08,0,0,1,1.175,2.432l-.459-.068a4.418,4.418,0,0,1,2.7-1.973,2.094,2.094,0,0,1,1.27-.027Z" transform="translate(-376.145 -109.339)" fill="#eb996e"/>
      <path id="Path_106834" data-name="Path 106834" d="M536.475,270.053l.216-41.18L511.4,224.213s2.7-12.159,6.2-23.859c2.7-9.2,8.511-13.105,15.55-16.537v-.122l.608-.162a57.19,57.19,0,0,1,18.307-4.783l24.535.284s18.753-2.337,29.128,11.025c4.053,5.147,16.361,40.383,16.361,40.383l-29.453,14.186,2.8-19.536s-.554,14.159-2.364,18.644c-1,2.5-3.918,10.268-3.918,10.268l.378,23.427Z" transform="translate(-511.4 -110.679)" fill="#ff725e"/>
      <path id="Path_106835" data-name="Path 106835" d="M530.653,243.781a5.825,5.825,0,0,0,.581-1.351c.338-.865.784-2.135,1.351-3.715a112.146,112.146,0,0,0,3.283-12.565,89.39,89.39,0,0,0,1.621-12.889c.081-1.662.108-3.013.081-3.945a6.145,6.145,0,0,0-.095-1.446c-.122,0-.189,2.054-.473,5.4a119.614,119.614,0,0,1-1.824,12.794c-.986,4.945-2.175,9.363-3.08,12.551l-1.067,3.769A5.975,5.975,0,0,0,530.653,243.781Z" transform="translate(-452.9 -100.456)" fill="#263238"/>
      <path id="Path_106836" data-name="Path 106836" d="M540.943,247.954a6.757,6.757,0,0,0,1.189-2.7,6.377,6.377,0,0,0,.513-2.932,7.06,7.06,0,0,0-1.189,2.7A6.416,6.416,0,0,0,540.943,247.954Z" transform="translate(-471.864 -88.363)" fill="#263238"/>
      <path id="Path_106837" data-name="Path 106837" d="M543.826,248.485a8.377,8.377,0,0,0,.784-4.134,8.473,8.473,0,0,0-.662-4.161,26.168,26.168,0,0,0,0,4.148A25.878,25.878,0,0,0,543.826,248.485Z" transform="translate(-477.72 -89.111)" fill="#263238"/>
      <path id="Path_106838" data-name="Path 106838" d="M511.21,231.937c.081.162,6.931-3.08,15.307-7.269s15.078-7.7,15-7.877-6.944,3.067-15.307,7.255S511.116,231.748,511.21,231.937Z" transform="translate(-430.567 -97.327)" fill="#263238"/>
      <path id="Path_106839" data-name="Path 106839" d="M519.5,194.147c.324.405,1.608-.216,3.85-.676a19.779,19.779,0,0,1,9.457.473c3.864,1.067,8.106,3.607,13.065,6.755a74.629,74.629,0,0,0,8.376,4.81,28.834,28.834,0,0,0,10.808,2.891,30.805,30.805,0,0,0,10.984-1.594,85.965,85.965,0,0,0,8.93-3.553c2.7-1.216,5.175-2.364,7.471-3.2a40.883,40.883,0,0,1,6.553-1.81,22.318,22.318,0,0,1,9.565.095c2.243.554,3.54,1.162,3.878.757s-.446-1.729-2.7-3.256a19.2,19.2,0,0,0-11.187-2.553,36.9,36.9,0,0,0-7.755,1.2,82.963,82.963,0,0,0-8.228,2.7c-5.5,2.067-11.335,4.445-17.077,4.121s-11.119-3.4-16.213-6.242-10.417-5.485-15.4-6.12a17.955,17.955,0,0,0-11.43,1.851C519.878,192.377,519.2,193.823,519.5,194.147Z" transform="translate(-512.677 -107.188)" fill="#fafafa"/>
      <path id="Path_106840" data-name="Path 106840" d="M532.214,222.693c.324.378,1.216.216,2.7,0a34.682,34.682,0,0,1,5.9-.54,12.161,12.161,0,0,1,3.567.486l.365.135.5.2,1.04.459c.7.324,1.351.689,2.189,1.081,1.513.8,3.161,1.729,5.053,2.7a37.245,37.245,0,0,0,6.255,2.351,36.045,36.045,0,0,0,12.767,1,32.844,32.844,0,0,0,10.038-2.594c5.4-2.445,7.809-5.323,7.3-6.066s-3.742.351-8.809,1.351a44.085,44.085,0,0,1-19.482-.513,40.438,40.438,0,0,1-5.229-1.824c-1.7-.73-3.445-1.554-5.215-2.27-.892-.351-1.8-.689-2.7-.973-.459-.149-.919-.27-1.351-.392l-.689-.176-.811-.149a14.862,14.862,0,0,0-5.4.27,15.781,15.781,0,0,0-6.539,3.026C532.308,221.342,531.916,222.341,532.214,222.693Z" transform="translate(-507.26 -97.31)" fill="#fafafa"/>
      <path id="Path_106841" data-name="Path 106841" d="M574.763,240.141c.2,0,.405-7.633.459-17.064s0-17.077-.243-17.077-.405,7.633-.459,17.064S574.574,240.141,574.763,240.141Z" transform="translate(-549.809 -101.113)" fill="#263238"/>
      <path id="Path_106842" data-name="Path 106842" d="M536.475,270.053l.216-41.18L511.4,224.213s2.7-12.159,6.2-23.859c2.7-9.2,8.511-13.105,15.55-16.537v-.122l.608-.162a57.19,57.19,0,0,1,18.307-4.783l24.535.284s18.753-2.337,29.128,11.025c4.053,5.147,16.361,40.383,16.361,40.383l-29.453,14.186,2.8-19.536s-.554,14.159-2.364,18.644c-1,2.5-3.918,10.268-3.918,10.268l.378,23.427Z" transform="translate(-511.4 -110.679)" fill="#ff725e"/>
      <path id="Path_106843" data-name="Path 106843" d="M530.653,243.781a5.825,5.825,0,0,0,.581-1.351c.338-.865.784-2.135,1.351-3.715a112.146,112.146,0,0,0,3.283-12.565,89.39,89.39,0,0,0,1.621-12.889c.081-1.662.108-3.013.081-3.945a6.145,6.145,0,0,0-.095-1.446c-.122,0-.189,2.054-.473,5.4a119.614,119.614,0,0,1-1.824,12.794c-.986,4.945-2.175,9.363-3.08,12.551l-1.067,3.769A5.975,5.975,0,0,0,530.653,243.781Z" transform="translate(-452.9 -100.456)" fill="#263238"/>
      <path id="Path_106844" data-name="Path 106844" d="M540.943,247.954a6.757,6.757,0,0,0,1.189-2.7,6.377,6.377,0,0,0,.513-2.932,7.06,7.06,0,0,0-1.189,2.7A6.416,6.416,0,0,0,540.943,247.954Z" transform="translate(-471.864 -88.363)" fill="#263238"/>
      <path id="Path_106845" data-name="Path 106845" d="M543.826,248.485a8.377,8.377,0,0,0,.784-4.134,8.473,8.473,0,0,0-.662-4.161,26.168,26.168,0,0,0,0,4.148A25.878,25.878,0,0,0,543.826,248.485Z" transform="translate(-477.72 -89.111)" fill="#263238"/>
      <path id="Path_106846" data-name="Path 106846" d="M511.21,231.937c.081.162,6.931-3.08,15.307-7.269s15.078-7.7,15-7.877-6.944,3.067-15.307,7.255S511.116,231.748,511.21,231.937Z" transform="translate(-430.567 -97.327)" fill="#263238"/>
      <path id="Path_106847" data-name="Path 106847" d="M519.5,194.147c.324.405,1.608-.216,3.85-.676a19.779,19.779,0,0,1,9.457.473c3.864,1.067,8.106,3.607,13.065,6.755a74.629,74.629,0,0,0,8.376,4.81,28.834,28.834,0,0,0,10.808,2.891,30.805,30.805,0,0,0,10.984-1.594,85.965,85.965,0,0,0,8.93-3.553c2.7-1.216,5.175-2.364,7.471-3.2a40.883,40.883,0,0,1,6.553-1.81,22.318,22.318,0,0,1,9.565.095c2.243.554,3.54,1.162,3.878.757s-.446-1.729-2.7-3.256a19.2,19.2,0,0,0-11.187-2.553,36.9,36.9,0,0,0-7.755,1.2,82.963,82.963,0,0,0-8.228,2.7c-5.5,2.067-11.335,4.445-17.077,4.121s-11.119-3.4-16.213-6.242-10.417-5.485-15.4-6.12a17.955,17.955,0,0,0-11.43,1.851C519.878,192.377,519.2,193.823,519.5,194.147Z" transform="translate(-512.677 -107.188)" fill="#fafafa"/>
      <path id="Path_106848" data-name="Path 106848" d="M532.214,222.693c.324.378,1.216.216,2.7,0a34.682,34.682,0,0,1,5.9-.54,12.161,12.161,0,0,1,3.567.486l.365.135.5.2,1.04.459c.7.324,1.351.689,2.189,1.081,1.513.8,3.161,1.729,5.053,2.7a37.245,37.245,0,0,0,6.255,2.351,36.045,36.045,0,0,0,12.767,1,32.844,32.844,0,0,0,10.038-2.594c5.4-2.445,7.809-5.323,7.3-6.066s-3.742.351-8.809,1.351a44.085,44.085,0,0,1-19.482-.513,40.438,40.438,0,0,1-5.229-1.824c-1.7-.73-3.445-1.554-5.215-2.27-.892-.351-1.8-.689-2.7-.973-.459-.149-.919-.27-1.351-.392l-.689-.176-.811-.149a14.862,14.862,0,0,0-5.4.27,15.781,15.781,0,0,0-6.539,3.026C532.308,221.342,531.916,222.341,532.214,222.693Z" transform="translate(-507.26 -97.31)" fill="#fafafa"/>
      <path id="Path_106849" data-name="Path 106849" d="M574.763,240.141c.2,0,.405-7.633.459-17.064s0-17.077-.243-17.077-.405,7.633-.459,17.064S574.574,240.141,574.763,240.141Z" transform="translate(-549.809 -101.113)" fill="#263238"/>
      <path id="Path_106862" data-name="Path 106862" d="M612.8,284.325c.243-2.986-12.159-4.634-13.173-4.85s-.757-1.729.176-1.486c1.351.365,15.4,3.742,15.672.811.162-1.621-2.783-1.635-2.783-1.635s-13.4-2.189-13.213-3.567,8.106-.365,10.727.162,3.918-.5,3.188-1.851c-.486-.919-8.552-2.7-11.173-3.215s-9.89-1.554-5.836-3.945,6.228-5.634,6.215-6.944a1.459,1.459,0,0,0-2.7-.581,16.94,16.94,0,0,1-3.54,3.08,11.579,11.579,0,0,1-3.5,1.662c-1.351.378-2.554.648-3.567.851-7-2.2-40.194-17.293-40.194-17.293l-.068-28.615-22.7-4.188-.459,27.858a27.372,27.372,0,0,0,18.4,26.3l42.166,14.645v-.068a136.839,136.839,0,0,0,13.835,5.7c6.62,2.013,6.755,1.419,6.917.608.27-2.175-11.511-3.972-8.755-5.053S612.592,286.622,612.8,284.325Z" transform="translate(-524.329 -98.754)" fill="#ffbe9d"/>
    </g>
    <g id="Group_25106" data-name="Group 25106" transform="translate(-1091 2018.427)">
      <path id="Path_106799" data-name="Path 106799" d="M152.8,119.932c5.214-5.3,13.43-8.436,20.239-5.453,4.583,2,7.685,6.3,11.7,9.27,2.93,2.164,6.543,3.837,8.081,7.137,1.35,2.909.7,6.3.37,9.489s-.094,6.877,2.377,8.92c1.3,1.074,3,1.5,4.468,2.341,2.94,1.684,4.692,4.963,5.323,8.3a35.5,35.5,0,0,1-.052,10.135l-14.03,2.675-2.3-3.874-.8,6.089-17.9,1.616Z" transform="translate(18575.822 -21144.912)" fill="#263238"/>
      <path id="Path_106800" data-name="Path 106800" d="M147.32,135.619l-.031,3.9-1.1,58.517c-.1,6.778,6.392,12.554,13.654,12.6h0c7.336.052,10.328-5.459,10.537-12.309.224-7.19.584-14.754.584-14.754s9.306-1.283,11.559-13.316c1.121-5.985,1.09-15.849.8-23.915a12.768,12.768,0,0,0-13.743-12.288Z" transform="translate(18578.986 -21154.816)" fill="#ffbe9d"/>
      <path id="Path_106801" data-name="Path 106801" d="M206.727,169.238a1.564,1.564,0,0,1-1.533,1.522,1.486,1.486,0,0,1-1.564-1.439,1.564,1.564,0,0,1,1.564-1.522,1.475,1.475,0,0,1,1.533,1.439Z" transform="translate(18551.494 -21170.986)" fill="#263238"/>
      <path id="Path_106802" data-name="Path 106802" d="M207.429,165.8c-.2.193-1.345-.709-3.013-.751s-2.914.761-3.092.553c-.083-.094.12-.454.667-.829a4.265,4.265,0,0,1,2.476-.688,4.124,4.124,0,0,1,2.393.845C207.366,165.344,207.528,165.714,207.429,165.8Z" transform="translate(18552.605 -21169.209)" fill="#263238"/>
      <path id="Path_106803" data-name="Path 106803" d="M174.877,168.872a1.564,1.564,0,0,1-1.533,1.522,1.486,1.486,0,0,1-1.564-1.444,1.564,1.564,0,0,1,1.533-1.522,1.486,1.486,0,0,1,1.564,1.444Z" transform="translate(18566.738 -21170.809)" fill="#263238"/>
      <path id="Path_106804" data-name="Path 106804" d="M175.969,165.533c-.2.193-1.35-.709-3.013-.751s-2.914.761-3.092.553c-.083-.094.12-.454.662-.829a4.3,4.3,0,0,1,2.482-.688,4.124,4.124,0,0,1,2.393.845C175.9,165.074,176.068,165.444,175.969,165.533Z" transform="translate(18567.662 -21169.08)" fill="#263238"/>
      <path id="Path_106805" data-name="Path 106805" d="M192.175,178.374a11.232,11.232,0,0,1,2.721-.412c.428-.036.834-.109.912-.4a2.163,2.163,0,0,0-.25-1.272l-1.168-3.274c-1.621-4.666-2.784-8.5-2.607-8.561s1.658,3.649,3.279,8.342c.386,1.147.761,2.247,1.116,3.295a2.477,2.477,0,0,1,.172,1.679,1.043,1.043,0,0,1-.714.6,2.981,2.981,0,0,1-.73.083A11.2,11.2,0,0,1,192.175,178.374Z" transform="translate(18557.172 -21169.387)" fill="#263238"/>
      <path id="Path_106806" data-name="Path 106806" d="M178.963,224.7A30.76,30.76,0,0,1,162.9,219.93s3.7,8.41,15.823,7.612Z" transform="translate(18570.986 -21195.939)" fill="#eb996e"/>
      <path id="Path_106807" data-name="Path 106807" d="M186.411,197.718a3.008,3.008,0,0,0-2.664-1.189,2.727,2.727,0,0,0-1.919.965,1.726,1.726,0,0,0-.188,1.981,2.012,2.012,0,0,0,2.169.615,6.3,6.3,0,0,0,2.169-1.215,1.867,1.867,0,0,0,.49-.48.568.568,0,0,0,0-.62" transform="translate(18562.127 -21184.732)" fill="#eb996e"/>
      <path id="Path_106808" data-name="Path 106808" d="M182.8,193.1c.271,0,.224,1.8,1.741,3.128s3.446,1.178,3.451,1.434c.026.115-.438.339-1.251.339a4.5,4.5,0,0,1-2.888-1.095,3.926,3.926,0,0,1-1.34-2.607C182.46,193.533,182.674,193.089,182.8,193.1Z" transform="translate(18561.605 -21183.096)" fill="#263238"/>
      <path id="Path_106809" data-name="Path 106809" d="M175.6,156.56c-.177.448-1.835.188-3.8.37s-3.561.673-3.811.255c-.109-.2.177-.615.829-1.043a6.314,6.314,0,0,1,2.841-.907,6.413,6.413,0,0,1,2.956.428C175.325,155.981,175.674,156.346,175.6,156.56Z" transform="translate(18568.563 -21164.959)" fill="#263238"/>
      <path id="Path_106810" data-name="Path 106810" d="M206.832,159.227c-.365.37-1.752-.063-3.436-.125s-3.128.167-3.431-.24c-.136-.193.1-.568.73-.907a5.531,5.531,0,0,1,2.81-.547,5.417,5.417,0,0,1,2.716.824C206.811,158.654,206.994,159.05,206.832,159.227Z" transform="translate(18553.264 -21166.006)" fill="#263238"/>
      <path id="Path_106811" data-name="Path 106811" d="M132.154,122.6c2.19,2.94,3.227,5.214,4.541,10.427.641,2.56-1.439,4.364-3.5,5.928a1.668,1.668,0,0,1-2.638-.965h0s.719,8.008-2.174,11.6a6.913,6.913,0,0,0-1.095,5.662,9.609,9.609,0,0,0,2.607,4.9,12.093,12.093,0,0,1,1.976,13.618,34.545,34.545,0,0,0-1.84,3.29,4.9,4.9,0,0,0-.386,2.122,1.679,1.679,0,0,1-1.429,1.788,132.256,132.256,0,0,1-30.046.907,1.658,1.658,0,0,1-1.47-1.246c-.782-3.321.521-6.939,2.205-9.994,1.872-3.41,4.254-6.684,4.9-10.526.6-3.613-.381-7.508,1.043-10.87,1.783-4.129,6.626-6.079,9.051-9.869,2.289-3.571,2.085-8.258,4.171-11.991a11.426,11.426,0,0,1,14.077-4.8" transform="translate(18602.787 -21148.941)" fill="#263238"/>
      <path id="Path_106812" data-name="Path 106812" d="M165.574,127.558c3.8,1.955,5.558,6.606,9.249,8.759,3.363,1.96,7.56,1.439,11.413.86-.146-.85-.287-1.7-.433-2.56a6.95,6.95,0,0,0,1.429,2.085,2.341,2.341,0,0,0,2.341.553c1.288-.521,1.46-2.294,1.131-3.65a12.564,12.564,0,0,0-3.363-5.693,17.033,17.033,0,0,0-22.231-1.773" transform="translate(18569.93 -21149.461)" fill="#263238"/>
      <path id="Path_106813" data-name="Path 106813" d="M124.267,141.015a7.732,7.732,0,0,0-1.767-8.456,8.7,8.7,0,0,0-8.561-1.851,6.6,6.6,0,0,0-3.342,2.284,6.1,6.1,0,0,0,.339,7.064,8.922,8.922,0,0,0,6.611,3.212,16.947,16.947,0,0,0,7.362-1.522" transform="translate(18596.488 -21153.029)" fill="#263238"/>
      <path id="Path_106814" data-name="Path 106814" d="M129.76,151c.042-.047.73.521,1.992,1.236a14.526,14.526,0,0,0,2.32,1.011,16.016,16.016,0,0,0,3.013.673,16.22,16.22,0,0,0,3.092.031,14.3,14.3,0,0,0,2.482-.459c1.392-.391,2.195-.808,2.221-.751a2.481,2.481,0,0,1-.521.318,5.014,5.014,0,0,1-.678.308,8.991,8.991,0,0,1-.933.339,13.091,13.091,0,0,1-2.518.521,15.182,15.182,0,0,1-3.128,0,15.4,15.4,0,0,1-3.076-.709,13.035,13.035,0,0,1-2.33-1.095,8.868,8.868,0,0,1-.829-.521,6.059,6.059,0,0,1-.589-.454,2.638,2.638,0,0,1-.516-.448Z" transform="translate(18586.85 -21162.943)" fill="#455a64"/>
      <path id="Path_106815" data-name="Path 106815" d="M145.7,160.081a2.815,2.815,0,0,1-.662.2c-.428.109-1.043.25-1.835.386a16.772,16.772,0,0,1-6.194.036,9.671,9.671,0,0,1-5.349-3.05,6.612,6.612,0,0,1-1.011-1.6,2.215,2.215,0,0,1-.219-.652,10.75,10.75,0,0,0,1.4,2.085,9.906,9.906,0,0,0,5.25,2.914,18.1,18.1,0,0,0,6.089.052c.782-.109,1.413-.214,1.851-.287A2.971,2.971,0,0,1,145.7,160.081Z" transform="translate(18586.529 -21165.057)" fill="#455a64"/>
      <path id="Path_106816" data-name="Path 106816" d="M117.67,202.346s-.031,0-.078-.083a2.23,2.23,0,0,1-.2-.266,3.519,3.519,0,0,1-.485-1.215,5.537,5.537,0,0,1,1.329-4.489,11.366,11.366,0,0,1,2.529-2.132c.991-.652,2.085-1.256,3.2-1.992a9.812,9.812,0,0,0,2.914-2.841,5.255,5.255,0,0,0,.725-2,6.288,6.288,0,0,0-.12-2.2,27.37,27.37,0,0,0-1.528-4.171,11.428,11.428,0,0,1-1.043-4.067,10.865,10.865,0,0,1,2.085-6.7,10.171,10.171,0,0,1,3.566-3.128l.678-.323.521-.182a2.575,2.575,0,0,1,.433-.13,2.371,2.371,0,0,1-.412.188l-.521.209-.657.349a10.354,10.354,0,0,0-3.441,3.159,10.75,10.75,0,0,0-1.966,6.559,11.47,11.47,0,0,0,1.017,3.968,26.511,26.511,0,0,1,1.564,4.218,6.512,6.512,0,0,1,.12,2.31,5.365,5.365,0,0,1-.772,2.117,9.958,9.958,0,0,1-3.013,2.92c-1.116.746-2.231,1.335-3.217,1.971a11.408,11.408,0,0,0-2.5,2.085,5.49,5.49,0,0,0-1.376,4.322A4.171,4.171,0,0,0,117.67,202.346Z" transform="translate(18593.033 -21170.332)" fill="#455a64"/>
      <path id="Path_106817" data-name="Path 106817" d="M145.385,203.925a1.84,1.84,0,0,1-.349-.193,2.872,2.872,0,0,1-.777-.85,4.061,4.061,0,0,1-.547-1.741,6.543,6.543,0,0,1,.266-2.4c.49-1.778,1.971-3.389,3.086-5.417a6.778,6.778,0,0,0,.907-3.446,9.228,9.228,0,0,0-.97-3.728c-1.147-2.43-2.914-4.364-4.134-6.387a13.1,13.1,0,0,1-1.423-3.04,7.341,7.341,0,0,1-.3-2.914,5.735,5.735,0,0,1,1.757-3.78,4.2,4.2,0,0,1,.97-.62,1.834,1.834,0,0,1,.381-.136,6.209,6.209,0,0,0-1.267.85,5.735,5.735,0,0,0-1.621,3.7,7.174,7.174,0,0,0,.328,2.815,12.939,12.939,0,0,0,1.444,2.972c.615.985,1.35,1.976,2.085,3.013a21.245,21.245,0,0,1,2.085,3.389,9.489,9.489,0,0,1,.991,3.863,6.976,6.976,0,0,1-.959,3.582c-1.157,2.085-2.638,3.65-3.128,5.344a6.554,6.554,0,0,0-.3,2.325,4,4,0,0,0,.474,1.694,3.5,3.5,0,0,0,1,1.105Z" transform="translate(18581.418 -21171.691)" fill="#455a64"/>
      <path id="Path_106818" data-name="Path 106818" d="M179.481,134.935a.486.486,0,0,1-.229-.094,4.645,4.645,0,0,1-.6-.386,7.191,7.191,0,0,1-1.736-1.934,21.422,21.422,0,0,1-1.674-3.472c-.282-.667-.579-1.361-.944-2.044a12.7,12.7,0,0,0-1.335-2,13.634,13.634,0,0,0-6.986-4.5,18.63,18.63,0,0,0-3.477-.521,4.765,4.765,0,0,1,.954-.052,12.81,12.81,0,0,1,2.581.334,13.112,13.112,0,0,1,3.577,1.449,13.3,13.3,0,0,1,3.6,3.071,12.588,12.588,0,0,1,1.361,2.049,22.424,22.424,0,0,1,.938,2.085,23.238,23.238,0,0,0,1.6,3.462,7.789,7.789,0,0,0,1.627,1.96C179.194,134.752,179.491,134.909,179.481,134.935Z" transform="translate(18571.18 -21148.074)" fill="#455a64"/>
      <path id="Path_106819" data-name="Path 106819" d="M188.112,134.322a1.521,1.521,0,0,1-.328-.037,4.946,4.946,0,0,1-.907-.235,7.961,7.961,0,0,1-2.883-1.872,17.336,17.336,0,0,1-2.987-4.134,30.979,30.979,0,0,0-3.29-5.214,10.307,10.307,0,0,0-5.125-3.2,20.157,20.157,0,0,0-4.995-.662c-1.439-.031-2.607.026-3.415.057l-.933.036a1.476,1.476,0,0,1-.328,0,1.043,1.043,0,0,1,.323-.057c.214,0,.521-.063.928-.094.808-.068,1.976-.167,3.431-.162a19.443,19.443,0,0,1,5.068.61,10.474,10.474,0,0,1,5.287,3.274,30.867,30.867,0,0,1,3.3,5.3,17.918,17.918,0,0,0,2.894,4.114,8.2,8.2,0,0,0,2.768,1.919C187.669,134.228,188.117,134.285,188.112,134.322Z" transform="translate(18570.979 -21147.51)" fill="#455a64"/>
      <path id="Path_106820" data-name="Path 106820" d="M229.456,197.262c-.031,0,.156-.428.354-1.22a11.354,11.354,0,0,0,.37-3.4,11.527,11.527,0,0,0-1.283-4.885,11.324,11.324,0,0,0-1.731-2.445c-.7-.782-1.5-1.517-2.31-2.294a21.5,21.5,0,0,1-2.242-2.4,15.12,15.12,0,0,1-1.611-2.607,14.6,14.6,0,0,1-.975-2.607,15.081,15.081,0,0,1-.454-2.372,14.077,14.077,0,0,1,.037-3.488,8.254,8.254,0,0,1,.167-.928,1.565,1.565,0,0,1,.083-.323c.036,0-.057.454-.13,1.267A15.639,15.639,0,0,0,219.8,173a15.986,15.986,0,0,0,.485,2.325,14.858,14.858,0,0,0,.985,2.539,15.063,15.063,0,0,0,1.6,2.549,21.285,21.285,0,0,0,2.216,2.367c.808.772,1.611,1.517,2.32,2.31a11.685,11.685,0,0,1,1.757,2.518,11.538,11.538,0,0,1,1.251,5.01,10.882,10.882,0,0,1-.469,3.457,6.975,6.975,0,0,1-.328.892A1.042,1.042,0,0,1,229.456,197.262Z" transform="translate(18543.904 -21171.223)" fill="#455a64"/>
      <path id="Path_106821" data-name="Path 106821" d="M111.6,142.634a1.872,1.872,0,0,1,.078-.594,5.839,5.839,0,0,1,.594-1.517,6.46,6.46,0,0,1,9.384-2.247,5.907,5.907,0,0,1,1.22,1.084,1.647,1.647,0,0,1,.334.521,10.573,10.573,0,0,0-1.674-1.392,6.423,6.423,0,0,0-9.077,2.169,10.907,10.907,0,0,0-.86,1.976Z" transform="translate(18595.543 -21156.301)" fill="#455a64"/>
      <path id="Path_106822" data-name="Path 106822" d="M122.839,147.667a4.974,4.974,0,0,1,.167-1.371,6.064,6.064,0,0,1,1.429-3.029,3.2,3.2,0,0,1,3.206-.813,1.9,1.9,0,0,1,.855.584c.151.2.2.323.182.334a2.675,2.675,0,0,0-1.105-.7,3.128,3.128,0,0,0-2.914.819,6.564,6.564,0,0,0-1.434,2.862,7.544,7.544,0,0,1-.386,1.319Z" transform="translate(18590.164 -21158.789)" fill="#455a64"/>
      <path id="Path_106823" data-name="Path 106823" d="M135.314,135.6a26.325,26.325,0,0,0-1.564,3.29c-.641,1.908-.719,3.571-.819,3.561a7.423,7.423,0,0,1,.521-3.65,7.946,7.946,0,0,1,1.861-3.2Z" transform="translate(18585.363 -21155.576)" fill="#ff725e"/>
    </g>
  </g>
</svg>
