<svg id="Component_Character_Female_A" data-name="Component/Character/Female/A" xmlns="http://www.w3.org/2000/svg" xmlns:xlink="http://www.w3.org/1999/xlink" width="180" height="180" viewBox="0 0 180 180">
  <defs>
    <clipPath id="clip-path">
      <rect id="Rectangle_9926" data-name="Rectangle 9926" width="180" height="180" transform="translate(17957 -19022)" fill="#fff" stroke="#707070" stroke-width="1"/>
    </clipPath>
  </defs>
  <g id="Component_Character_Female_A-2" data-name="Component/Character/Female/A" transform="translate(-17957 19022)" clip-path="url(#clip-path)">
    <g id="character-2--inject-22" transform="translate(17492.207 -19099.467)">
      <path id="Path_9643" data-name="Path 9643" d="M591.026,164.83s-5.694-11.554-5.716-13.97l1.567-14.345s.993-.728,2.075,1.721a8.044,8.044,0,0,1,.309,5.021l1.192,3.189,1.633-2.516,1.7-9.413s1.1-6.786,2.141-6.1,1.412,2.637.949,5.573-1.048,6.621-1.048,6.621-.1,1.1.938-.806,2.03-10.152,2.428-11.267.485-4.028,2.207-3.906.784,3.862.784,3.862l-1.313,12.138s1.446-4.888,1.721-5.727.684-3.487,1.2-4.944,1.357-2.207,2.1-2.207a1.39,1.39,0,0,1,1.335,1.357l-2.207,10.373a51.046,51.046,0,0,0-1.1,5.032c.1.287,1.777-2.008,1.777-2.008l1.247-3.377s.982-4.767,2.207-4.933,1.346.795,1.346.795L608.6,143.71,605,153.641l-3.476,7.482a34.724,34.724,0,0,1-.353,4.127C600.924,165.515,591.026,164.83,591.026,164.83Z" transform="translate(11.144 3.646)" fill="#aa6550"/>
      <path id="Path_9644" data-name="Path 9644" d="M591.668,142.82a20.336,20.336,0,0,1-4.138,5.407,20.338,20.338,0,0,1,4.138-5.407Z" transform="translate(11.374 5.528)" fill="#724940"/>
      <path id="Path_9645" data-name="Path 9645" d="M602.613,145.84a28.165,28.165,0,0,0-4.833,2.008,29.694,29.694,0,0,0-4.05,3.311,8.983,8.983,0,0,1,3.752-3.807A8.828,8.828,0,0,1,602.613,145.84Z" transform="translate(12.015 5.841)" fill="#724940"/>
      <path id="Path_9646" data-name="Path 9646" d="M608.5,151.83c-.077-.066.6-.872,1.446-2.284a20.823,20.823,0,0,0,2.913-12.4c-.133-1.655-.375-2.659-.287-2.693a7.723,7.723,0,0,1,.7,2.648,18.338,18.338,0,0,1-.331,6.621,18.132,18.132,0,0,1-2.648,6.047A8.179,8.179,0,0,1,608.5,151.83Z" transform="translate(13.543 4.662)" fill="#263238"/>
      <path id="Path_9647" data-name="Path 9647" d="M614.67,152.078a31.483,31.483,0,0,0,2.207-8.828,32.676,32.676,0,0,0-.9-9.06,8.829,8.829,0,0,1,.927,2.56,20.594,20.594,0,0,1,.552,6.544,21.231,21.231,0,0,1-1.512,6.4A8.3,8.3,0,0,1,614.67,152.078Z" transform="translate(14.182 4.635)" fill="#263238"/>
      <path id="Path_9648" data-name="Path 9648" d="M587.794,128.269a3.929,3.929,0,0,1,.144-1.8A10.869,10.869,0,0,1,593,119.607a4,4,0,0,1,1.644-.607,14.091,14.091,0,0,0-6.875,9.324Z" transform="translate(11.396 3.063)" fill="#263238"/>
      <path id="Path_9649" data-name="Path 9649" d="M583.75,126.6a12.833,12.833,0,0,1,8.155-9.258,26.859,26.859,0,0,0-4.833,3.962A26.607,26.607,0,0,0,583.75,126.6Z" transform="translate(10.982 2.891)" fill="#263238"/>
      <path id="Path_9650" data-name="Path 9650" d="M526.228,172.638c-.1,0-.088-1.181-.408-3.046a21.274,21.274,0,0,0-2.472-6.886,11.73,11.73,0,0,0-5.021-5.12,7.029,7.029,0,0,0-2.957-.463,1.732,1.732,0,0,1,.817-.221,4.988,4.988,0,0,1,2.284.309,11.234,11.234,0,0,1,5.374,5.208,18.76,18.76,0,0,1,2.372,7.118,9.027,9.027,0,0,1,.011,3.1Z" transform="translate(3.906 6.983)" fill="#263238"/>
      <path id="Path_9665" data-name="Path 9665" d="M530.84,100.907c-.463-3.024-3.189-5.352-6.169-6.08a15.8,15.8,0,0,0-9,.916A21.452,21.452,0,0,0,507,101.127a13.11,13.11,0,0,0-3.664,9.336c.177,3.222,1.777,6.444.883,9.534-.684,2.35-2.67,4.072-4.657,5.517s-4.16,2.748-5.517,4.789-1.567,5.087.243,6.731c1.622,1.457,4.513,1.622,5.186,3.7.419,1.28-.287,2.615-.684,3.906a10.207,10.207,0,0,0,1.313,8.21,17.414,17.414,0,0,0,6.29,5.683c4.359,2.461,9.788,3.608,14.345,1.644a13.794,13.794,0,0,0,5.672-4.657,21.992,21.992,0,0,0,3.763-11.62,65.865,65.865,0,0,0-.794-12.315" transform="translate(1.589 0.532)" fill="#263238"/>
      <path id="Path_9666" data-name="Path 9666" d="M530.537,149.195a12.668,12.668,0,0,1-16.045-12.5c.088-3.675,1.744-7.415.607-10.914-.784-2.395-2.792-4.27-3.476-6.7-1-3.63,1.192-7.294,3.31-10.428a24.588,24.588,0,0,1,4.591-5.517,8.276,8.276,0,0,1,6.72-1.986" transform="translate(3.492 1.206)" fill="#263238"/>
      <path id="Path_9667" data-name="Path 9667" d="M560.639,101.39c-.21,2.77,1.622,5.242,3.465,7.327s3.906,4.248,4.3,7c.706,4.877-4.072,9.4-3.09,14.235.53,2.582,2.648,4.668,3.024,7.283s-.982,5-2.659,6.919-3.73,3.531-5.22,5.617c0,0-3.09,5.065-12.613,1.821" transform="translate(7.267 1.241)" fill="#263238"/>
      <path id="Path_9668" data-name="Path 9668" d="M520.9,106.868c-.077-2.516,2.207-4.414,4.591-5.385s4.944-1.269,7.029-2.67c1.843-1.247,3.09-3.178,4.657-4.767a15.449,15.449,0,0,1,26.042,7.106c.894,3.575.287,7.813-2.538,10.2-3.31,2.759-8.133,2.141-12.337,1.291s-8.949-1.71-12.447.75c-2.119,1.49-3.31,3.906-4.624,6.146s-2.913,4.524-5.352,5.363-5.771-.607-5.86-3.189" transform="translate(4.391)" fill="#263238"/>
      <path id="Path_9669" data-name="Path 9669" d="M530.152,106.238a4.193,4.193,0,0,0-3.752,4.271h0l2.5,56.83c.11,6.72,9.931,10.483,17.1,10.318h0c7.261-.166,7.493-3.73,7.581-10.108.154-10.671.143-14.676.143-14.61s9.17-1.545,11.035-13.518c.927-5.948.607-15.7.088-23.681-.463-7.173-5.242-15.968-12.392-15.2Z" transform="translate(5.047 1.148)" fill="#aa6550"/>
      <path id="Path_9670" data-name="Path 9670" d="M556.978,121.471a1.545,1.545,0,0,1-1.479,1.545,1.468,1.468,0,0,1-1.589-1.379,1.545,1.545,0,0,1,1.479-1.556,1.479,1.479,0,0,1,1.589,1.39Z" transform="translate(8.998 2.071)" fill="#263238"/>
      <path id="Path_9671" data-name="Path 9671" d="M559.921,118.36c-.188.2-1.346-.651-3-.651s-2.858.839-3.035.64.1-.452.629-.839a4.116,4.116,0,0,1,2.428-.75,4.028,4.028,0,0,1,2.395.761C559.844,117.908,560.02,118.272,559.921,118.36Z" transform="translate(7.886 2.831)" fill="#263238"/>
      <path id="Path_9672" data-name="Path 9672" d="M542.388,121.84a1.534,1.534,0,0,1-1.479,1.556,1.479,1.479,0,0,1-1.589-1.379,1.545,1.545,0,0,1,1.479-1.556,1.479,1.479,0,0,1,1.589,1.379Z" transform="translate(7.488 2.11)" fill="#263238"/>
      <path id="Path_9673" data-name="Path 9673" d="M545.222,119.381c-.2.2-1.357-.662-3.012-.651s-2.858.839-3.035.629.1-.452.629-.828a4.194,4.194,0,0,1,2.428-.761,3.928,3.928,0,0,1,2.394.772C545.134,118.929,545.31,119.282,545.222,119.381Z" transform="translate(6.364 2.936)" fill="#263238"/>
      <path id="Path_9674" data-name="Path 9674" d="M550.175,131.6a10.925,10.925,0,0,1,2.682-.486c.419,0,.817-.132.894-.419a2.1,2.1,0,0,0-.287-1.247q-.6-1.545-1.258-3.211c-1.744-4.568-3-8.32-2.814-8.387s1.744,3.575,3.487,8.144l1.2,3.222a2.506,2.506,0,0,1,.221,1.655,1.1,1.1,0,0,1-.7.618,2.537,2.537,0,0,1-.717.1A10.175,10.175,0,0,1,550.175,131.6Z" transform="translate(7.425 2.944)" fill="#263238"/>
      <path id="Path_9675" data-name="Path 9675" d="M552.674,148.4a30.49,30.49,0,0,1-16.034-4.248s4.061,8.221,16.034,7.073Z" transform="translate(6.107 5.666)" fill="#724940"/>
      <path id="Path_9676" data-name="Path 9676" d="M546.016,116.72c-.155.452-1.81.243-3.741.486s-3.509.772-3.763.364c-.121-.188.154-.618.784-1.1a6.224,6.224,0,0,1,2.792-.982,6.389,6.389,0,0,1,2.935.331C545.729,116.158,546.094,116.511,546.016,116.72Z" transform="translate(6.298 2.695)" fill="#263238"/>
      <path id="Path_9677" data-name="Path 9677" d="M559.317,114.738c-.287.386-1.424,0-2.792,0s-2.527.254-2.792-.132c-.121-.188.066-.563.563-.927a4.061,4.061,0,0,1,4.513.132C559.284,114.175,559.449,114.561,559.317,114.738Z" transform="translate(7.872 2.448)" fill="#263238"/>
      <path id="Path_9678" data-name="Path 9678" d="M522.23,145.84a10.638,10.638,0,0,0,12.646-11.752c-.375-2.935-1.964-5.926-.938-8.707,1.346-3.675,6.5-4.811,7.868-8.475.794-2.141.077-4.635.982-6.72s2.913-3.1,4.922-3.829,4.171-1.225,5.86-2.538,2.748-3.8,1.655-5.639a113.362,113.362,0,0,0-26.142,6.356c-1.953.728-4.006,1.6-5.153,3.31s-1.17,4.2-1.1,6.411q.762,16.111,1.512,32.222" transform="translate(4.616 0.909)" fill="#263238"/>
      <path id="Path_9679" data-name="Path 9679" d="M516.52,107.209a.86.86,0,0,0-.2.486,1.876,1.876,0,0,0,.463,1.446,2.991,2.991,0,0,0,2.141,1.1,6.9,6.9,0,0,0,3.035-.916,8.419,8.419,0,0,1,3.487-1.026,18.527,18.527,0,0,1,4.226.386,29.992,29.992,0,0,0,4.778.618,6.9,6.9,0,0,0,4.9-1.788,14.18,14.18,0,0,0,2.814-4.414,23.065,23.065,0,0,1,2.284-4.1,6.7,6.7,0,0,1,6.908-2.516,7.04,7.04,0,0,1,4.171,3.079,13.779,13.779,0,0,1,.872,1.777,1.313,1.313,0,0,0-.088-.519,6.758,6.758,0,0,0-.585-1.379,6.853,6.853,0,0,0-8.1-3.31,7.151,7.151,0,0,0-3.62,2.516,21.873,21.873,0,0,0-2.384,4.193,13.553,13.553,0,0,1-2.7,4.215,6.268,6.268,0,0,1-4.414,1.644,30.468,30.468,0,0,1-4.679-.574,18.605,18.605,0,0,0-4.414-.342,8.828,8.828,0,0,0-3.653,1.1,6.9,6.9,0,0,1-2.825.949,2.8,2.8,0,0,1-1.975-.894,1.776,1.776,0,0,1-.519-1.269C516.464,107.385,516.553,107.22,516.52,107.209Z" transform="translate(4.003 0.664)" fill="#455a64"/>
      <path id="Path_9680" data-name="Path 9680" d="M515.28,107.872c.155.132,1.986-2.913,5.672-4.988a23.394,23.394,0,0,1,7.162-2.384,5.606,5.606,0,0,0-2.273,0,14.93,14.93,0,0,0-9.391,5.385A5.74,5.74,0,0,0,515.28,107.872Z" transform="translate(3.897 1.137)" fill="#ff725e"/>
      <path id="Path_9681" data-name="Path 9681" d="M527.45,100.647a.677.677,0,0,0,.166.353,3.572,3.572,0,0,0,.772.817,5.286,5.286,0,0,0,3.962.883,10.053,10.053,0,0,0,5.175-3.09c1.622-1.578,3.123-3.608,5.319-4.855a9.468,9.468,0,0,1,6.875-.883,9.071,9.071,0,0,1,4.822,3.112,9.932,9.932,0,0,1,1.832,3.476c.254.9.309,1.435.364,1.435s0-.132,0-.386a5.972,5.972,0,0,0-.155-1.1,9.479,9.479,0,0,0-6.7-7.073,9.931,9.931,0,0,0-7.316.894c-2.35,1.346-3.851,3.432-5.418,4.988a9.733,9.733,0,0,1-4.855,3.057,5.065,5.065,0,0,1-3.741-.651,7.236,7.236,0,0,1-1.1-.971Z" transform="translate(5.156 0.373)" fill="#455a64"/>
      <path id="Path_9682" data-name="Path 9682" d="M529.6,149.969a1.568,1.568,0,0,1-.53.143,9.048,9.048,0,0,1-1.578.166,12.216,12.216,0,0,1-5.661-1.28,13.076,13.076,0,0,1-6.025-6.091,15.1,15.1,0,0,1-1.026-10.428,30.9,30.9,0,0,0,1.1-5.242,8.308,8.308,0,0,0-1.192-4.646,16.818,16.818,0,0,1-1.843-4.248,9.931,9.931,0,0,1-.121-4.05,10.637,10.637,0,0,1,2.472-5.242,8.062,8.062,0,0,1,1.1-1.1c.287-.221.452-.32.464-.3a19.558,19.558,0,0,0-1.4,1.567,11.035,11.035,0,0,0-2.207,5.142,9.557,9.557,0,0,0,.188,3.84,17.026,17.026,0,0,0,1.865,4.072,11.663,11.663,0,0,1,1,2.328,8.253,8.253,0,0,1,.3,2.659,30.249,30.249,0,0,1-1.1,5.374,14.588,14.588,0,0,0,.916,9.931,12.8,12.8,0,0,0,11.068,7.46A16.817,16.817,0,0,0,529.6,149.969Z" transform="translate(3.616 1.888)" fill="#455a64"/>
      <path id="Path_9683" data-name="Path 9683" d="M508.74,98.133a4.005,4.005,0,0,1,2.041-1.1,8.022,8.022,0,0,1,9.479,4.337,4.028,4.028,0,0,1,.53,2.207c-.11,0-.3-.828-.982-2.008a8.287,8.287,0,0,0-8.905-4.083A21.118,21.118,0,0,1,508.74,98.133Z" transform="translate(3.22 0.757)" fill="#455a64"/>
      <path id="Path_9684" data-name="Path 9684" d="M518.3,105.433v-.783a4.005,4.005,0,0,0-.53-2.1,5.815,5.815,0,0,0-2.483-2.328,5.175,5.175,0,0,0-4.414-.11,8.055,8.055,0,0,0-3.917,3.741,12.038,12.038,0,0,0-1.214,6.2,41.2,41.2,0,0,0,1.1,7.1,29.794,29.794,0,0,1,.916,7.791,23.44,23.44,0,0,1-2.019,7.6,63.88,63.88,0,0,0-2.6,6.72,14.731,14.731,0,0,0-.541,6.356,18.761,18.761,0,0,0,1.655,5.352,42.188,42.188,0,0,0,4.414,6.941l1.346,1.81a2.781,2.781,0,0,1,.441.651,3.206,3.206,0,0,1-.552-.563c-.342-.386-.839-.96-1.457-1.721a38.786,38.786,0,0,1-4.624-6.9,19.144,19.144,0,0,1-1.788-5.517,15.162,15.162,0,0,1,.5-6.621,64.719,64.719,0,0,1,2.582-6.809,23.175,23.175,0,0,0,1.964-7.371c.221-5.253-1.909-10.108-1.986-14.831a12.558,12.558,0,0,1,1.357-6.5,8.519,8.519,0,0,1,4.392-3.9,5.517,5.517,0,0,1,4.734.221,5.881,5.881,0,0,1,2.549,2.549,3.973,3.973,0,0,1,.43,2.207,2.506,2.506,0,0,1-.254.806Z" transform="translate(2.509 1.016)" fill="#455a64"/>
      <path id="Path_9685" data-name="Path 9685" d="M551.32,135.184a8.288,8.288,0,0,1-1.026,2.019,2.693,2.693,0,0,1-1.909,1.1,2.417,2.417,0,0,1-2.031-1.1,3.73,3.73,0,0,1-.563-2.306c0-.728.364-1.6,1.1-1.677a1.744,1.744,0,0,1,.883.188l3.807,1.545" transform="translate(7.053 4.535)" fill="#724940"/>
      <path id="Path_9686" data-name="Path 9686" d="M549.842,138.321a5.517,5.517,0,0,1-2.03-.254,2.9,2.9,0,0,1-1.534-1.39,3.1,3.1,0,0,1-.055-2.494,2.4,2.4,0,0,1,.342-.563c.143-.166.121-.154.287-.132a4.073,4.073,0,0,1,.607.243l.618.254c.817.331,1.556.618,2.207.85a7.436,7.436,0,0,0,2.064.629,6.514,6.514,0,0,0-1.876-1.1l-2.119-.982-.618-.276c-.221-.088-.4-.188-.7-.287a.894.894,0,0,0-.563,0,1.1,1.1,0,0,0-.419.331,3.24,3.24,0,0,0-.43.728,3.564,3.564,0,0,0,.11,3.046,3.31,3.31,0,0,0,1.942,1.556,3.034,3.034,0,0,0,1.644.066C549.677,138.541,549.854,138.354,549.842,138.321Z" transform="translate(7.007 4.488)" fill="#263238"/>
      <path id="Path_9689" data-name="Path 9689" d="M531.154,154.676l24.751,3.945,4.414,3.945s15.581,31.256,15.868,37.521c.309,6.981-3.31,18.954-3.31,18.954l3.564,27.618c.53,3.161-1.468,6.208-2.814,6.208l-43.371,1.251c-5.573-1.137-7.868-4.139-7.526-7.459l1.251-13.3-18.263-63.025c-1.1,3.718.607-10.051,8.762-13.133C517.923,155.927,525.923,153.539,531.154,154.676Z" transform="translate(2.876 6.724)" fill="#ff725e"/>
      <path id="Path_9690" data-name="Path 9690" d="M553.1,160.139s7.625,5.871,14.831,12.558,26.484,20.028,26.484,20.028l-1.942-32.718,14.687-1.986s9.347,36.846,4.844,46.457-9.038,12.823-24,8.022-19.234-6.952-19.234-6.952Z" transform="translate(7.811 7.101)" fill="#ff725e"/>
      <path id="Path_9691" data-name="Path 9691" d="M556.57,163.7a2.579,2.579,0,0,1,.342.43l.883,1.3c.761,1.1,1.843,2.8,3.134,4.888a77.775,77.775,0,0,1,8.309,17.226,38.147,38.147,0,0,1,1.28,19,25.663,25.663,0,0,1-1.8,5.517,14.981,14.981,0,0,1-.706,1.412c-.176.309-.276.475-.3.463s.287-.706.806-1.964a29.405,29.405,0,0,0,1.6-5.517,39.284,39.284,0,0,0-1.435-18.759,84.262,84.262,0,0,0-8.1-17.181l-2.979-4.977c-.32-.541-.574-.993-.794-1.357S556.548,163.711,556.57,163.7Z" transform="translate(8.169 7.689)" fill="#263238"/>
      <path id="Path_9693" data-name="Path 9693" d="M521.006,156.89s7.724,10.1,8.122,19.355S515.3,241.032,515.3,241.032l-12.491,50.683-15.559-5.738s3.619-36.084,4.315-40.564c1.435-9.336,7.581-27.587,8.431-38.059s4.734-30.787,6.621-35.521S508.658,156.626,521.006,156.89Z" transform="translate(0.996 6.984)" fill="#ff725e"/>
      <path id="Path_9694" data-name="Path 9694" d="M525.7,179.07a2.2,2.2,0,0,1,0,.541,14.743,14.743,0,0,1-.177,1.545c-.188,1.335-.486,3.31-.916,5.65-.85,4.756-2.207,11.289-3.829,18.472s-3.211,13.661-4.414,18.34c-.607,2.328-1.1,4.215-1.49,5.517-.177.6-.32,1.1-.441,1.49a2.5,2.5,0,0,1-.188.508,1.49,1.49,0,0,1,.077-.53c.088-.419.2-.916.342-1.523.32-1.4.761-3.31,1.3-5.517,1.1-4.778,2.6-11.234,4.248-18.373s3.046-13.694,3.995-18.417c.452-2.306.817-4.193,1.1-5.606.11-.607.21-1.1.287-1.534A3.235,3.235,0,0,1,525.7,179.07Z" transform="translate(3.79 9.28)" fill="#263238"/>
      <path id="Path_9695" data-name="Path 9695" d="M501.885,278.815,500.2,293.8,486.535,306.27a4.414,4.414,0,0,1-.53-3.432c.629-1.556-3.112,2.03-3.112,2.03v8.574s-2.339.938-3.123-1.1-1.247-9.358-1.247-9.358l1.1-.772a4,4,0,0,1-1.1-3.432,12.215,12.215,0,0,1-.784-6.235,18.816,18.816,0,0,1,1.413-5.462l11.178-12.48Z" transform="translate(0 19.166)" fill="#aa6550"/>
      <g id="Group_662" data-name="Group 662" transform="translate(522.277 184.799)" opacity="0.3">
        <path id="Path_9696" data-name="Path 9696" d="M525.741,250.247c2.461-2.545,3.638-13.223,3.98-16.795l3.719-34.1c.761-7.086,1.479-14.515-1.1-21.122a3.539,3.539,0,0,0-1.953-2.339,2.493,2.493,0,0,0-2.571,1.141c-.6.81-2.207,1.985-2.5,2.967-2.5,10.133-3.586,20.106-6.08,30.239-.662,2.682-1.523,2.579-.949,5.272.828,3.925,4.414,15.176,4.414,15.176s-1.177,10.9-1.321,13.292a6.067,6.067,0,0,0,4.37,6.265" transform="translate(-518.089 -175.852)"/>
      </g>
      <path id="Path_9697" data-name="Path 9697" d="M525.771,184.281a3.311,3.311,0,0,1-.839.607,20.025,20.025,0,0,1-2.516,1.346,9.005,9.005,0,0,1-4.182.85,10.185,10.185,0,0,1-4.855-1.909,35.033,35.033,0,0,0-4.315-2.715,6.246,6.246,0,0,0-3.928-.64,4.414,4.414,0,0,0-2.406,1.2c-.441.463-.6.817-.64.795a1.931,1.931,0,0,1,.474-.949,4.514,4.514,0,0,1,2.483-1.457,6.621,6.621,0,0,1,4.237.563,31.284,31.284,0,0,1,4.414,2.715,10,10,0,0,0,4.579,1.865,8.96,8.96,0,0,0,3.995-.7C524.447,184.987,525.727,184.2,525.771,184.281Z" transform="translate(2.531 9.509)" fill="#fafafa"/>
      <path id="Path_9698" data-name="Path 9698" d="M571.339,183.094a.727.727,0,0,1-.221.408,6.316,6.316,0,0,1-.839,1.1,9.523,9.523,0,0,1-4.315,2.439,15.559,15.559,0,0,1-7.349.1,73.281,73.281,0,0,1-8.541-2.759,28.316,28.316,0,0,0-15.868-1.1,40.245,40.245,0,0,0-6.356,2.119,2.489,2.489,0,0,1,.386-.265,12.494,12.494,0,0,1,1.2-.618,24.418,24.418,0,0,1,4.668-1.633,27.277,27.277,0,0,1,7.316-.783,28.1,28.1,0,0,1,8.828,1.7,82.865,82.865,0,0,0,8.475,2.781,15.56,15.56,0,0,0,7.14,0,9.589,9.589,0,0,0,4.259-2.207C570.952,183.569,571.284,183.006,571.339,183.094Z" transform="translate(5.197 9.592)" fill="#fafafa"/>
      <path id="Path_9699" data-name="Path 9699" d="M576.155,178.5a5.882,5.882,0,0,1,.121,2.317,14.246,14.246,0,0,1-5.131,9.722,5.792,5.792,0,0,1-1.975,1.214c0-.077.684-.563,1.71-1.523a16.188,16.188,0,0,0,3.31-4.3,16.366,16.366,0,0,0,1.688-5.153,21.439,21.439,0,0,1,.276-2.273Z" transform="translate(9.474 9.221)" fill="#fafafa"/>
      <g id="Group_663" data-name="Group 663" transform="translate(569.727 178.816)" opacity="0.3">
        <path id="Path_9700" data-name="Path 9700" d="M561.09,170.43c11.7,11.73,21.75,24.784,26.053,40.829l-17.17-6.047s1.777-5.815.5-10.483.287-7.967-9.38-24.277" transform="translate(-561.09 -170.43)"/>
      </g>
      <path id="Path_9701" data-name="Path 9701" d="M494.239,291.44a23.287,23.287,0,0,1-4.039,5.021,22.886,22.886,0,0,1-4.9,4.16c-.11-.121,2.042-2.03,4.491-4.568S494.106,291.341,494.239,291.44Z" transform="translate(0.793 20.909)" fill="#724940"/>
      <path id="Path_9702" data-name="Path 9702" d="M485.359,293.913a21.173,21.173,0,0,1-3.255,3.752,21.463,21.463,0,0,1-3.664,3.31,42.667,42.667,0,0,1,6.919-7.1Z" transform="translate(0.084 21.162)" fill="#724940"/>
      <path id="Path_9703" data-name="Path 9703" d="M483.476,290.82a35.792,35.792,0,0,1-2.582,3.068,33.232,33.232,0,0,1-2.494,3.145,9.17,9.17,0,0,1,2.052-3.509,9.06,9.06,0,0,1,3.024-2.7Z" transform="translate(0.08 20.845)" fill="#724940"/>
      <path id="Path_9704" data-name="Path 9704" d="M482,287.62a13.717,13.717,0,0,1-2.03,2.472,14.76,14.76,0,0,1-2.152,2.362A10.69,10.69,0,0,1,482,287.62Z" transform="translate(0.02 20.514)" fill="#724940"/>
    </g>
  </g>
</svg>
