<svg id="Component_Character_Male_N" data-name="Component/Character/Male/N" xmlns="http://www.w3.org/2000/svg" xmlns:xlink="http://www.w3.org/1999/xlink" width="180" height="180" viewBox="0 0 180 180">
  <defs>
    <clipPath id="clip-path">
      <rect id="Rectangle_9974" data-name="Rectangle 9974" width="180" height="180" transform="translate(19263 -22823)" fill="#fff" stroke="#707070" stroke-width="1"/>
    </clipPath>
  </defs>
  <g id="Component_Character_Male_N-2" data-name="Component/Character/Male/N" transform="translate(-19263 22823)" clip-path="url(#clip-path)">
    <g id="Group_25192" data-name="Group 25192" transform="translate(19260.002 -22810)">
      <g id="Group_25190" data-name="Group 25190" transform="matrix(-0.951, -0.309, 0.309, -0.951, 150.236, 146.969)">
        <g id="Group_25064" data-name="Group 25064" transform="translate(0 0)">
          <path id="Path_106087" data-name="Path 106087" d="M29.761,18.024,24.535,59.983a16.809,16.809,0,0,0,1.738,8.811,17.476,17.476,0,0,0,2.123,3.42,18.544,18.544,0,0,0,3.654,3.433,1.531,1.531,0,0,1-.276,2.882c-1.379.152-5.1-1.848-8.039-5.874s-3.24,3.723-3.406,6.536-1.075,11.472-1.972,12.093c-1.379.9-2.565-.386-2.344-3.2s.331-11.265-1.158-11.321-2.1,14.285-2.1,14.285.359,3.1-1.379,3.089c-3.089,0-1.3-15.168-1.089-16.547.138-.993-1.475-1.117-1.572,0s-.3,14.313-3.447,14.34c-2.427,0,1.379-12.493-.11-15.292s-1.9,9.8-4.219,9.721c-.855,0-1.5-.165-.221-7.336.689-3.861,3.24-9.418,4.012-16.946l.207-1.944C5.093,50.758,7.161,22.5,15.683.994,18.11-4.994,29.761,18.024,29.761,18.024Z" transform="translate(0 0)" fill="#b78876"/>
          <path id="Path_106088" data-name="Path 106088" d="M0,2.813A7.8,7.8,0,0,0,1.227,2.5,4.453,4.453,0,0,0,3.613.524L3.9,0l.165.579A7.279,7.279,0,0,0,5.212,2.868,8.37,8.37,0,0,0,9.169,5.791c1.213.427,2.041.4,2.041.51A4.041,4.041,0,0,1,9.059,6.15,7.859,7.859,0,0,1,4.771,3.2,7.129,7.129,0,0,1,3.585.731H4.04A4.33,4.33,0,0,1,1.282,2.744,2.083,2.083,0,0,1,0,2.813Z" transform="translate(9.405 63.084)" fill="#7c5142"/>
        </g>
      </g>
      <g id="Group_25191" data-name="Group 25191" transform="translate(42.191 -4.999)">
        <path id="Path_107551" data-name="Path 107551" d="M502.393,234.884a2.338,2.338,0,0,1-3.179,2.91c-1.578-.713-1.87-2.84-1.636-4.558s.725-3.565,0-5.12a11.527,11.527,0,0,0-2.782-2.805,7.5,7.5,0,0,1-2.338-6.265,6.312,6.312,0,0,1,4.114-5.131c2.244-.725,5.073-.152,6.7-1.87,1.169-1.239,1.169-3.2,2.045-4.675,1.379-2.268,4.477-2.758,7.118-2.513s5.365.982,7.913.222c2.127-.619,3.834-2.2,5.844-3.214a11.63,11.63,0,0,1,15.815,15.3c-.737,1.566-2.162,6.055-7.095,6.207" transform="translate(-492.417 -200.593)" fill="#263238"/>
        <path id="Path_107552" data-name="Path 107552" d="M497.471,214.618l.175,3.507,2.338,52.949c.269,6.148,5.774,10.812,12.355,10.52h0c6.651-.351,11.887-5.657,11.688-11.875-.175-6.522-.245-13.395-.245-13.395s8.357-1.648,9.76-12.67c.7-5.482.152-14.412-.538-21.694a11.583,11.583,0,0,0-13.1-10.4Z" transform="translate(-489.084 -198.758)" fill="#b78876"/>
        <path id="Path_107553" data-name="Path 107553" d="M503.125,226.388a1.414,1.414,0,0,1-1.309,1.461,1.367,1.367,0,0,1-1.5-1.227,1.426,1.426,0,0,1,1.321-1.461,1.344,1.344,0,0,1,1.484,1.227Z" transform="translate(-462.73 -196.445)" fill="#263238"/>
        <path id="Path_107554" data-name="Path 107554" d="M505.3,224.651c-.164.2-1.251-.561-2.77-.514s-2.595.842-2.77.666.094-.421.561-.783a3.869,3.869,0,0,1,2.209-.76,3.705,3.705,0,0,1,2.209.643C505.215,224.242,505.379,224.569,505.3,224.651Z" transform="translate(-463.142 -196.766)" fill="#263238"/>
        <path id="Path_107555" data-name="Path 107555" d="M515.675,226.858a1.414,1.414,0,0,1-1.309,1.461,1.344,1.344,0,0,1-1.5-1.227,1.414,1.414,0,0,1,1.309-1.461,1.356,1.356,0,0,1,1.5,1.227Z" transform="translate(-489.948 -196.366)" fill="#263238"/>
        <path id="Path_107556" data-name="Path 107556" d="M518,225.291c-.175.187-1.262-.573-2.77-.514s-2.607.842-2.77.655.082-.409.549-.783a3.893,3.893,0,0,1,2.209-.748,3.752,3.752,0,0,1,2.221.631C517.911,224.882,518.086,225.186,518,225.291Z" transform="translate(-490.706 -196.658)" fill="#263238"/>
        <path id="Path_107557" data-name="Path 107557" d="M505.286,236.362a10.588,10.588,0,0,1,2.443-.514c.386,0,.748-.14.807-.409a1.986,1.986,0,0,0-.292-1.169L507,231.359a50.387,50.387,0,0,1-2.794-7.609,50.1,50.1,0,0,1,3.4,7.364c.421,1.029.818,2,1.169,2.934a2.338,2.338,0,0,1,.245,1.508.959.959,0,0,1-.619.584,2.443,2.443,0,0,1-.655.105A8.929,8.929,0,0,1,505.286,236.362Z" transform="translate(-472.155 -196.681)" fill="#263238"/>
        <path id="Path_107558" data-name="Path 107558" d="M520.879,250.337a27.959,27.959,0,0,1-14.809-3.507s3.8,7.422,14.739,6.055Z" transform="translate(-486.146 -192.785)" fill="#a36957"/>
        <path id="Path_107559" data-name="Path 107559" d="M507.24,235.56c.245,0,.3,1.613,1.742,2.735s3.179.888,3.2,1.169-.386.327-1.169.374A4.055,4.055,0,0,1,508.35,239a3.506,3.506,0,0,1-1.356-2.338C506.959,235.957,507.123,235.548,507.24,235.56Z" transform="translate(-478.527 -194.689)" fill="#263238"/>
        <path id="Path_107560" data-name="Path 107560" d="M519.132,220.152c-.129.409-1.648.257-3.413.526s-3.191.807-3.436.444c-.117-.175.129-.573.69-.982a5.973,5.973,0,0,1,5.225-.748C518.863,219.65,519.191,219.965,519.132,220.152Z" transform="translate(-491.634 -197.468)" fill="#263238"/>
        <path id="Path_107561" data-name="Path 107561" d="M505.44,220.934c-.257.351-1.309,0-2.56.058s-2.338.292-2.56-.058c-.117-.164,0-.514.491-.853a3.705,3.705,0,0,1,4.138,0C505.393,220.42,505.557,220.771,505.44,220.934Z" transform="translate(-463.975 -197.408)" fill="#263238"/>
        <path id="Path_107562" data-name="Path 107562" d="M535.625,217.329s-5.505,3.109-13.126-.117c-5-2.116-10.73-2.945-11.922-1.894s-1.169,6.066-5.844,7.831c0,0,.923,9.514-2.9,9.409S498,213.3,498,213.3l10.52-.888,10.029-2.548,9.643.748,7.434,1.566Z" transform="translate(-491.459 -199.028)" fill="#263238"/>
        <path id="Path_107563" data-name="Path 107563" d="M527.613,210.525c0-.14.83-.514,1.893-.164s1.566,1.169,1.438,1.251-.725-.421-1.613-.7S527.648,210.688,527.613,210.525Z" transform="translate(-521.411 -198.968)" fill="#263238"/>
        <path id="Path_107564" data-name="Path 107564" d="M527.249,207.64c.175,0,.152,1.169.386,2.408s.818,2.221.69,2.338-.994-.76-1.251-2.2a3.671,3.671,0,0,1,.175-2.548Z" transform="translate(-517.985 -199.403)" fill="#263238"/>
        <path id="Path_107565" data-name="Path 107565" d="M532.915,225.969c-.164-.07-6.873-2.116-6.733,4.757s7.013,5.307,7.013,5.108S532.915,225.969,532.915,225.969Z" transform="translate(-521.967 -196.366)" fill="#b78876"/>
        <path id="Path_107566" data-name="Path 107566" d="M531.116,232.957a3.272,3.272,0,0,1-.316.187,1.169,1.169,0,0,1-.9,0,2.981,2.981,0,0,1-1.414-2.63,3.879,3.879,0,0,1,.292-1.718,1.344,1.344,0,0,1,.888-.935.608.608,0,0,1,.713.3c.093.2,0,.339.082.339s.152-.117.094-.4a.806.806,0,0,0-.281-.421.911.911,0,0,0-.666-.164,1.7,1.7,0,0,0-1.227,1.087,3.984,3.984,0,0,0-.374,1.929,3.121,3.121,0,0,0,1.8,2.934,1.274,1.274,0,0,0,1.087-.21C531.116,233.12,531.116,232.968,531.116,232.957Z" transform="translate(-522.016 -196.048)" fill="#a36957"/>
        <path id="Path_107567" data-name="Path 107567" d="M516.179,207.318a1.882,1.882,0,0,1,.69-.339,3.249,3.249,0,0,1,2.162.2,2.8,2.8,0,0,1,1.239,1.017,2.77,2.77,0,0,1,.409,1.87,3.436,3.436,0,0,1-.97,1.975,4.675,4.675,0,0,1-2.162,1.169,6.476,6.476,0,0,1-5.353-1.169,7.751,7.751,0,0,1-2.116-2.338,4.453,4.453,0,0,1-.561-3.3,4.254,4.254,0,0,1,2.338-2.63,7.446,7.446,0,0,1,3.577-.725,8.883,8.883,0,0,1,6.616,3.448,6.838,6.838,0,0,1,1.414,3.623,7.317,7.317,0,0,1-.678,3.717,7.854,7.854,0,0,1-2.244,2.864,9.5,9.5,0,0,1-3.086,1.6,13.453,13.453,0,0,1-6.359.327c-1.94-.561-3.577-1.356-5.178-1.858a21.034,21.034,0,0,0-4.36-.994,14.494,14.494,0,0,0-3.378,0c-1.847.269-2.805.713-2.829.643a3.737,3.737,0,0,1,.7-.292,10.66,10.66,0,0,1,2.092-.561,13.827,13.827,0,0,1,3.436-.129,20.538,20.538,0,0,1,4.453.935c1.613.479,3.319,1.274,5.166,1.777a13.021,13.021,0,0,0,6.1-.362,8,8,0,0,0,5-4.208,6.546,6.546,0,0,0-.69-6.791,8.451,8.451,0,0,0-6.207-3.249,7.072,7.072,0,0,0-3.319.666,3.787,3.787,0,0,0-2.081,2.338,3.986,3.986,0,0,0,.5,2.934,7.327,7.327,0,0,0,1.964,2.174c1.531,1.169,1.835,1.964,3.413,1.578a12.6,12.6,0,0,0,3.588-1.438,3.144,3.144,0,0,0,.912-1.788,2.536,2.536,0,0,0-.327-1.683,2.653,2.653,0,0,0-1.11-.97,3.249,3.249,0,0,0-2.046-.281C516.424,207.189,516.2,207.341,516.179,207.318Z" transform="translate(-476.221 -200.178)" fill="#455a64"/>
      </g>
      <g id="character-2--inject-377" transform="translate(-0.001 58.711)">
        <path id="Path_9105" data-name="Path 9105" d="M490.171,446.692l1.724,21.72s21.456,6.9,21.583,10.918l-41.98.55L470.26,446.65Z" transform="translate(-384.638 -138.059)" fill="#ff725e"/>
        <path id="Path_9106" data-name="Path 9106" d="M502.247,465.13A1.724,1.724,0,0,0,501,467.056a1.661,1.661,0,0,0,1.894,1.248,1.809,1.809,0,0,0,1.354-2.042,1.7,1.7,0,0,0-2.116-1.058" transform="translate(-407.928 -136.988)" fill="#ebebeb"/>
        <path id="Path_9107" data-name="Path 9107" d="M470.189,478.244l.085-3.364,39.759.243s2.275,1.354,2.211,2.666Z" transform="translate(-383.329 -136.423)" fill="#ebebeb"/>
        <path id="Path_9108" data-name="Path 9108" d="M493.939,467.011c0,.2-1.058.264-2.116.9s-1.6,1.471-1.777,1.386.148-1.27,1.407-2.01A2.533,2.533,0,0,1,493.939,467.011Z" transform="translate(-385.983 -136.89)" fill="#263238"/>
        <path id="Path_9109" data-name="Path 9109" d="M488.778,468.9c0,.2-.857.518-1.576,1.365s-.952,1.756-1.164,1.746-.3-1.185.624-2.222S488.778,468.694,488.778,468.9Z" transform="translate(-376.485 -136.775)" fill="#263238"/>
        <path id="Path_9110" data-name="Path 9110" d="M482.27,474.132c-.19,0-.444-.994.116-2.116s1.534-1.523,1.608-1.344-.529.751-.973,1.672S482.471,474.121,482.27,474.132Z" transform="translate(-367.627 -136.669)" fill="#263238"/>
        <path id="Path_9111" data-name="Path 9111" d="M494.586,462.394c-.1.18-1.058-.127-2.19-.085s-2.116.381-2.179.2.794-.889,2.116-.92S494.692,462.235,494.586,462.394Z" transform="translate(-386.862 -137.193)" fill="#263238"/>
        <path id="Path_9112" data-name="Path 9112" d="M496.287,458.413a3.883,3.883,0,0,1-2.116-.074,9.216,9.216,0,0,1-2.19-.741,9.655,9.655,0,0,1-1.185-.677,2.876,2.876,0,0,1-.624-.518.9.9,0,0,1,0-1.058,1.121,1.121,0,0,1,.91-.444,2.731,2.731,0,0,1,.783.138,7.893,7.893,0,0,1,1.3.487,7.108,7.108,0,0,1,1.894,1.333c.952.931,1.259,1.7,1.185,1.746s-.55-.592-1.513-1.375a8.823,8.823,0,0,0-1.851-1.111,7.929,7.929,0,0,0-1.2-.4c-.434-.138-.815-.148-.942,0s0,.106,0,.243a2.517,2.517,0,0,0,.455.37,10.17,10.17,0,0,0,1.058.667,11.3,11.3,0,0,0,2.01.846,15.239,15.239,0,0,1,2.021.571Z" transform="translate(-388.331 -137.581)" fill="#263238"/>
        <path id="Path_9113" data-name="Path 9113" d="M488.026,458.855a3.354,3.354,0,0,1-.487-2.052,6.815,6.815,0,0,1,.349-2.3,7.838,7.838,0,0,1,.582-1.259,1.724,1.724,0,0,1,1.375-1.058.963.963,0,0,1,.857.614,2.931,2.931,0,0,1,.19.772,4.506,4.506,0,0,1,0,1.418,4.867,4.867,0,0,1-.963,2.116c-.857,1.058-1.714,1.28-1.735,1.217a8.83,8.83,0,0,0,1.322-1.513,4.813,4.813,0,0,0,.73-1.957,4.679,4.679,0,0,0,0-1.217c0-.444-.212-.815-.381-.772a1.576,1.576,0,0,0-.762.667,7.819,7.819,0,0,0-.55,1.121,7.925,7.925,0,0,0-.476,2.116C487.942,458.051,488.143,458.824,488.026,458.855Z" transform="translate(-380.377 -137.738)" fill="#263238"/>
        <path id="Path_9114" data-name="Path 9114" d="M575.729,443.27l-4.846,25.391-9.628,18.959a2.645,2.645,0,0,0,1.322,3.629h0a2.624,2.624,0,0,0,2.423-.18c4.645-2.867,21.689-13.489,21.942-15.372.286-2.116,6.9-26.449,6.9-26.449Z" transform="translate(-560.97 -138.255)" fill="#ff725e"/>
        <path id="Path_9115" data-name="Path 9115" d="M567.14,489.546l24.735-17.256-.233,1.058a3.967,3.967,0,0,1-1.471,2.328c-2.01,1.545-7.649,5.671-20.535,13.7a2.645,2.645,0,0,1-2.5.159Z" transform="translate(-565.532 -136.573)" fill="#ebebeb"/>
        <path id="Path_9116" data-name="Path 9116" d="M569.394,465.268a1.587,1.587,0,0,0-.868,1.947,1.534,1.534,0,0,0,1.926.878,1.693,1.693,0,0,0,.91-2.116,1.608,1.608,0,0,0-2.116-.688" transform="translate(-546.499 -136.988)" fill="#ebebeb"/>
        <path id="Path_9117" data-name="Path 9117" d="M587.349,479.557a8.072,8.072,0,0,0-1.788-2.444,8.464,8.464,0,0,0-2.793-1.185c0-.064.36-.19.963-.148a4.168,4.168,0,0,1,2.179.889,4.084,4.084,0,0,1,1.365,1.915C587.455,479.187,587.413,479.547,587.349,479.557Z" transform="translate(-577.595 -136.371)" fill="#263238"/>
        <path id="Path_9118" data-name="Path 9118" d="M589.576,482.322c-.138.085-.772-.91-2-1.566a22.56,22.56,0,0,0-2.391-.857,2.962,2.962,0,0,1,2.666.36C589.248,481.01,589.724,482.28,589.576,482.322Z" transform="translate(-582.35 -136.141)" fill="#263238"/>
        <path id="Path_9119" data-name="Path 9119" d="M585.255,476.166a26.9,26.9,0,0,0-2.931-2.624,26.442,26.442,0,0,0-3.555-1.682,7.226,7.226,0,0,1,6.485,4.306Z" transform="translate(-571.216 -136.598)" fill="#263238"/>
        <path id="Path_9120" data-name="Path 9120" d="M583.3,468.867c-.1.138-1.365-.741-3.174-1.206s-3.333-.328-3.354-.5a6.612,6.612,0,0,1,6.528,1.7Z" transform="translate(-567.142 -136.885)" fill="#263238"/>
        <path id="Path_9121" data-name="Path 9121" d="M582.035,461.869a12.7,12.7,0,0,0-3.259-1.344,13.461,13.461,0,0,0-3.534.116,1.943,1.943,0,0,1,.973-.529,5.745,5.745,0,0,1,5.1.92C581.855,461.457,582.088,461.816,582.035,461.869Z" transform="translate(-564.272 -137.293)" fill="#263238"/>
        <path id="Path_9122" data-name="Path 9122" d="M577.278,459.432a3.963,3.963,0,0,1,.169-.963,6.57,6.57,0,0,1,1.291-2.338A3.047,3.047,0,0,1,580.3,455a1.058,1.058,0,0,1,1.121.476,1.725,1.725,0,0,1,.159,1.227,3.745,3.745,0,0,1-3.936,2.7,4.348,4.348,0,0,1-3.692-3.121,1.544,1.544,0,0,1,.148-1.259,1.058,1.058,0,0,1,1.185-.307,3.735,3.735,0,0,1,1.471,1.217,7.627,7.627,0,0,1,1.3,2.338,2.327,2.327,0,0,1,.2.952,12.219,12.219,0,0,0-1.809-3.026,3.385,3.385,0,0,0-1.312-1.058.571.571,0,0,0-.645.169,1.058,1.058,0,0,0-.074.825,3.872,3.872,0,0,0,3.174,2.656,3.238,3.238,0,0,0,3.364-2.232,1.248,1.248,0,0,0-.063-.868.593.593,0,0,0-.614-.275,2.73,2.73,0,0,0-1.344.942,9.6,9.6,0,0,0-1.661,3.079Z" transform="translate(-562.424 -137.596)" fill="#263238"/>
        <path id="Path_9123" data-name="Path 9123" d="M587,258.4c.264,0,3.481,212.812,3.481,212.812l-25.719-.889-8.9-104.634-2.116-76.809-17.531,71.085-21.826,111.5-25.677-6.443L521.4,257.046l30.766-5.946Z" transform="translate(-481.156 -149.397)" fill="#263238"/>
        <path id="Path_9149" data-name="Path 9149" d="M540.717,238.832c-14.653,9.524-30.977-13.6-30.977-13.6V200.495s1.523,54.8,1.523,55.322,2.465,1.375,2.253,5.364l-2.116,4.729-65.595.878-1.777-53.259-5.988-41.261,19.605-7.893h26.787l22.029,7.893,26.617,39.443,16.686-30.741,18.585,6.166S555.37,229.308,540.717,238.832Z" transform="translate(-405.424 -154.97)" fill="#ff725e"/>
        <path id="Path_9155" data-name="Path 9155" d="M493.269,214.68c.148,0,.243-8.646.212-19.326s-.18-19.326-.339-19.314-.243,8.646-.212,19.326S493.111,214.68,493.269,214.68Z" transform="translate(-388.625 -132.05)" fill="#263238"/>
        <path id="Path_9156" data-name="Path 9156" d="M574.851,170.56s-8.263,7.088-8.813,11.109c-.413,3.1-8.548,32.247-12.209,45.3a18.959,18.959,0,0,0,.7,12.3l10.58,26.132,17.086-10.114-8.548-24.5,7.078-20.8Z" transform="translate(-541.017 -154.066)" fill="#ff725e"/>
        <path id="Path_9157" data-name="Path 9157" d="M546.829,265.3a1.332,1.332,0,0,0,.317-.159l.91-.5,3.46-1.978,12.548-7.289.159-.1-.063-.159c-2.391-6.909-5.29-15.309-8.464-24.534v.18c.995-2.687,2.042-5.491,3.11-8.358,2.507-6.739,4.888-13.172,7.067-19.044h0c2.169-4.539,4.042-8.929,4.56-13.14a18.557,18.557,0,0,0-.169-5.914,17.8,17.8,0,0,0-1.714-4.75,19.775,19.775,0,0,0-4.422-5.565,17.726,17.726,0,0,0-1.481-1.185,3.294,3.294,0,0,0-.55-.349,3.267,3.267,0,0,0,.5.423c.339.264.825.667,1.428,1.227a20.418,20.418,0,0,1,4.232,5.6,17,17,0,0,1,1.629,4.676,18.135,18.135,0,0,1,.116,5.787c-.539,4.116-2.412,8.464-4.6,12.981h0l-7.11,19.044c-1.058,2.867-2.116,5.671-3.11,8.369v.18c3.237,9.2,6.179,17.594,8.6,24.492l.1-.254-12.41,7.406-3.407,2.116-.878.55C546.924,265.213,546.819,265.287,546.829,265.3Z" transform="translate(-522.76 -153.956)" fill="#263238"/>
        <path id="Path_9162" data-name="Path 9162" d="M541.03,282.183a8.145,8.145,0,0,0,2.391-1.121,21.539,21.539,0,0,0,4.909-4.084,21.772,21.772,0,0,0,3.513-5.29,8.74,8.74,0,0,0,.857-2.507,27.751,27.751,0,0,1-11.638,13.045Z" transform="translate(-498.732 -148.348)" fill="#455a64"/>
        <path id="Path_9163" data-name="Path 9163" d="M514.314,289.305a.823.823,0,0,0,.3-.085,3.576,3.576,0,0,0,.73-.476,6.052,6.052,0,0,0,1.693-2.687,43.022,43.022,0,0,0,1.153-4.528c.381-1.714.772-3.6,1.164-5.586.783-3.967,1.375-7.586,1.756-10.209.19-1.312.328-2.38.4-3.11a4.981,4.981,0,0,0,.074-1.153,4.233,4.233,0,0,0-.286,1.058l-.571,3.089c-.487,2.6-1.132,6.2-1.915,10.167-.391,1.978-.772,3.851-1.121,5.586a36.3,36.3,0,0,1-1.058,4.507,6.5,6.5,0,0,1-1.46,2.656A9.038,9.038,0,0,1,514.314,289.305Z" transform="translate(-439.357 -148.795)" fill="#455a64"/>
        <path id="Path_9164" data-name="Path 9164" d="M519.693,265.359a.915.915,0,0,0-.466,0,1.8,1.8,0,0,0-.973.857,1.82,1.82,0,0,0,.106,1.936,2.116,2.116,0,0,0,2.222.846,2.232,2.232,0,0,0,1.555-1.8,2.116,2.116,0,0,0-.666-1.82c-.878-.751-1.672-.529-1.629-.487a3.354,3.354,0,0,1,1.354.762,1.682,1.682,0,0,1,.434,1.46,1.735,1.735,0,0,1-1.2,1.344,1.671,1.671,0,0,1-1.672-.6,1.47,1.47,0,0,1-.159-1.471C519,265.528,519.735,265.433,519.693,265.359Z" transform="translate(-443.846 -148.601)" fill="#455a64"/>
        <path id="Path_9165" data-name="Path 9165" d="M492.408,261.31a6.189,6.189,0,0,0-.275,2.433,13.087,13.087,0,0,0,5.47,10.167,6.116,6.116,0,0,0,2.19,1.058c0-.085-.793-.5-1.957-1.418a14.357,14.357,0,0,1-5.29-9.882C492.387,262.252,492.5,261.321,492.408,261.31Z" transform="translate(-394.069 -148.805)" fill="#455a64"/>
        <path id="Path_107585" data-name="Path 107585" d="M539.884,270.554l-.211-1.357-2.036-13.021a1.516,1.516,0,0,0-1.621-1.278l-25.073,2.1a2.88,2.88,0,0,0-2.636,3.084l.56,7.565,7.828,10.213,11.274,1.759" transform="translate(-457.416 -255.717)" fill="#ff725e"/>
        <path id="Path_107586" data-name="Path 107586" d="M510.339,268.651a1.047,1.047,0,0,0,.3.079l.876.158c.764.125,1.871.29,3.235.474,2.741.369,6.537.8,10.747,1.114a53.422,53.422,0,0,0,5.93.211,16.818,16.818,0,0,0,4.8-.824,10.67,10.67,0,0,0,2.932-1.483,7.213,7.213,0,0,0,.7-.56c.145-.145.217-.217.211-.231s-.343.264-.982.659a11.763,11.763,0,0,1-2.932,1.357,17.073,17.073,0,0,1-4.744.738,58.662,58.662,0,0,1-5.93-.237c-4.2-.31-7.993-.7-10.734-1.008l-3.249-.369a8.338,8.338,0,0,0-1.166-.079Z" transform="translate(-458.953 -260.047)" fill="#263238"/>
      </g>
      <path id="Path_107584" data-name="Path 107584" d="M554.567,281.937a21.572,21.572,0,0,0,6.813-7.025.3.3,0,0,1,0-.233.423.423,0,0,1,.264-.159,33.851,33.851,0,0,0,1.989-3.491c-2.116-1.375-4.9-3.47-1.883-3.893,3.714-.529,6.348-2.338,6.75-3.322a1.174,1.174,0,0,0-1.83-1.248,13.988,13.988,0,0,1-3.576,1.238,9.16,9.16,0,0,1-3.036.19c-.624-.074-2.835-1.587-5.205-2.7a1.809,1.809,0,0,0-1.058-.148l-.9-.063a2.772,2.772,0,0,1-2.3-1.5l-3.438-6.6-10.368,6.136L545,270.5a137.12,137.12,0,0,0,9.564,11.437Z" transform="translate(-510.09 -90.577)" fill="#b78876"/>
    </g>
  </g>
</svg>
