<svg id="Component_Character_Male_H" data-name="Component/Character/Male/H" xmlns="http://www.w3.org/2000/svg" xmlns:xlink="http://www.w3.org/1999/xlink" width="180" height="180" viewBox="0 0 180 180">
  <defs>
    <clipPath id="clip-path">
      <rect id="Rectangle_9954" data-name="Rectangle 9954" width="180" height="180" transform="translate(19776 -21134)" fill="#fff" stroke="#707070" stroke-width="1"/>
    </clipPath>
    <clipPath id="clip-path-2">
      <rect id="Rectangle_9934" data-name="Rectangle 9934" width="180" height="180" transform="translate(18147 -19022.227)" fill="#fff" stroke="#707070" stroke-width="1"/>
    </clipPath>
  </defs>
  <g id="Component_Character_Male_H-2" data-name="Component/Character/Male/H" transform="translate(-19776 21134)" clip-path="url(#clip-path)">
    <g id="Mask_Group_669" data-name="Mask Group 669" transform="translate(1629 -2111.773)" clip-path="url(#clip-path-2)">
      <g id="character-1--inject-833" transform="translate(18160.129 -19012.119)">
        <g id="Group_25061" data-name="Group 25061" transform="translate(39.794 2.733) rotate(-3)">
          <path id="Path_106029" data-name="Path 106029" d="M5.6,35.049c.157-2.069-1.686-4.913-3.373-6.555A6.746,6.746,0,0,1,.352,21.332c.686-2.552,2.3-2.361,2.946-3.868a11.422,11.422,0,0,0,.371-3.575,7.465,7.465,0,0,1,8.9-6.341,10.332,10.332,0,0,1,19.113-1.99,7.949,7.949,0,0,1,11.524,6.454,5.8,5.8,0,0,1,7.533,1.124,7.139,7.139,0,0,1,.54,7.87,9.309,9.309,0,0,1-6.746,4.5,13.671,13.671,0,0,1-8.106-1.473A25.858,25.858,0,0,1,29.775,19" fill="#ad510d"/>
          <path id="Path_106030" data-name="Path 106030" d="M12.975,73.251h0A12.952,12.952,0,0,0,25.983,61.007c.281-5.723.528-11.243.528-11.243S37.125,49,38.1,38.611,39.227,4.218,39.227,4.218h0A36.821,36.821,0,0,0,2.238,5.826l-1.012.641L0,60.209A12.952,12.952,0,0,0,12.975,73.251Z" transform="translate(6.624 13.594)" fill="#ffbe9d"/>
          <path id="Path_106031" data-name="Path 106031" d="M2.008.08a1.507,1.507,0,1,1-1.934.956A1.529,1.529,0,0,1,2.008.08Z" transform="translate(23.64 33.72)" fill="#263238"/>
          <path id="Path_106032" data-name="Path 106032" d="M5.336,1.652C5.156,1.82,4.212.966,2.728.876S.187,1.46.041,1.269.153.865.625.55A3.564,3.564,0,0,1,2.8.01,3.519,3.519,0,0,1,4.853.853C5.246,1.236,5.392,1.573,5.336,1.652Z" transform="translate(23.258 32.688)" fill="#263238"/>
          <path id="Path_106033" data-name="Path 106033" d="M2.008.08a1.507,1.507,0,1,1-1.934.956A1.529,1.529,0,0,1,2.008.08Z" transform="translate(39.495 33.72)" fill="#263238"/>
          <path id="Path_106034" data-name="Path 106034" d="M5.336,1.641c-.169.18-1.124-.675-2.608-.765S.187,1.461.041,1.27s.112-.4.6-.72A3.508,3.508,0,0,1,2.8.011,3.587,3.587,0,0,1,4.864.854C5.291,1.236,5.426,1.573,5.336,1.641Z" transform="translate(39.27 32.72)" fill="#263238"/>
          <path id="Path_106035" data-name="Path 106035" d="M0,12.571a6.982,6.982,0,0,1,2.372-.3c.382,0,.686-.067.731-.27a1.957,1.957,0,0,0-.18-1.124c-.292-.978-.6-1.968-.911-3C.776,3.6-.045.092.169,0S1.574,3.375,2.811,7.625c.292,1.034.562,2.035.843,3.013a2.383,2.383,0,0,1,.079,1.574,1.012,1.012,0,0,1-.708.551,2.665,2.665,0,0,1-.652,0A7.027,7.027,0,0,1,0,12.571Z" transform="translate(33.699 33.021)" fill="#263238"/>
          <path id="Path_106036" data-name="Path 106036" d="M13.357,4.958A24.61,24.61,0,0,1,0,0S2.62,7.747,13.166,7.657Z" transform="translate(19.736 58.266)" fill="#eb996e"/>
          <path id="Path_106037" data-name="Path 106037" d="M7.138,1.615A1.574,1.574,0,0,0,5.654.007C3.7-.083.482.625.033,5.977c-.585,7.645,6.881,5.88,6.914,5.622S7.1,4.594,7.138,1.615Z" transform="translate(0.397 33.713)" fill="#ffbe9d"/>
          <path id="Path_106038" data-name="Path 106038" d="M3.233,6.117a2.011,2.011,0,0,1-.382.169,1.3,1.3,0,0,1-1,0A3.294,3.294,0,0,1,.534,3.205a4.351,4.351,0,0,1,.517-1.878A1.574,1.574,0,0,1,2.176.383.675.675,0,0,1,2.94.81c.09.214,0,.371.067.382s.18-.112.135-.439a.81.81,0,0,0-.27-.495A1.023,1.023,0,0,0,2.153,0a1.889,1.889,0,0,0-1.5,1.124,4.318,4.318,0,0,0-.63,2.091A3.474,3.474,0,0,0,1.737,6.668a1.484,1.484,0,0,0,1.248-.112C3.2,6.308,3.255,6.139,3.233,6.117Z" transform="translate(2.518 36.194)" fill="#eb996e"/>
          <path id="Path_106039" data-name="Path 106039" d="M.073,2.077c.382.495,1.709.27,3.44.191S6.583,2.2,6.887,1.661,5.582-.172,3.356.019-.354,1.571.073,2.077Z" transform="translate(21.639 28.181)" fill="#ad510d"/>
          <path id="Path_106040" data-name="Path 106040" d="M.023,1.642c.2.663,1.473.866,2.878.854s2.665-.259,2.856-.933S4.633-.022,2.868,0-.19.99.023,1.642Z" transform="translate(38.533 28.11)" fill="#ad510d"/>
          <path id="Path_106041" data-name="Path 106041" d="M40.791,9.41s-6.307,3.058-14.5-1.034c-5.385-2.687-11.648-4-13.031-2.923s-1.675,6.633-7,8.252c0,0,.36,10.568-3.856,10.2S.811,7.162.811,7.162L11.132,2.125,22.375,0l10.6,1.5,8.207,2.249Z" transform="translate(6.49 11.662)" fill="#ad510d"/>
          <path id="Path_106042" data-name="Path 106042" d="M22.553,0a1.607,1.607,0,0,1,.135.495,6.352,6.352,0,0,1,.09,1.45,7.656,7.656,0,0,1-2.136,4.868,7.578,7.578,0,0,1-7.51,1.9A6.611,6.611,0,0,1,9.287,5.925a3.957,3.957,0,0,1-.573-2.541A3.249,3.249,0,0,1,10.1,1.068a2.845,2.845,0,0,1,2.7-.18,3.463,3.463,0,0,1,1.844,1.855A4.947,4.947,0,0,1,13.9,7.42a5.858,5.858,0,0,1-7.375,1.6A12.548,12.548,0,0,0,3.744,7.96,3.373,3.373,0,0,0,1.6,8.185,10.675,10.675,0,0,0,0,9.242a4.313,4.313,0,0,1,.326-.394,2.933,2.933,0,0,1,.461-.416,3.462,3.462,0,0,1,.72-.461,3.676,3.676,0,0,1,2.249-.337,12.367,12.367,0,0,1,2.89,1.012,8.533,8.533,0,0,0,1.619.528,4.924,4.924,0,0,0,1.81,0,5.239,5.239,0,0,0,3.373-2.035A4.4,4.4,0,0,0,14.1,3a2.665,2.665,0,0,0-3.7-1.417A2.732,2.732,0,0,0,9.275,3.5a3.441,3.441,0,0,0,.495,2.17A6.1,6.1,0,0,0,13.278,8.23a7.173,7.173,0,0,0,7.061-1.675,7.589,7.589,0,0,0,2.192-4.587A16.017,16.017,0,0,0,22.553,0Z" transform="translate(19.386 8.323)" fill="#903f04"/>
          <path id="Path_106043" data-name="Path 106043" d="M5.506,2.766c0,.067-.337.225-.956.247A5.048,5.048,0,0,1,.391.922C.053.4-.048.034.02,0A13.206,13.206,0,0,0,2.482,1.956,13.031,13.031,0,0,0,5.506,2.766Z" transform="translate(30.353 47.955)" fill="#263238"/>
          <path id="Path_106044" data-name="Path 106044" d="M3.644,2c.056,0,.371.495,0,1.27a1.866,1.866,0,0,1-1.124.911A1.956,1.956,0,0,1,.777,3.72,2.114,2.114,0,0,1,0,2,2.249,2.249,0,0,1,.519.651c.54-.63,1.124-.7,1.124-.63A4.959,4.959,0,0,0,.879.9a1.743,1.743,0,0,0,.27,2.249,1.5,1.5,0,0,0,1.237.371,1.563,1.563,0,0,0,.922-.607C3.667,2.449,3.554,2,3.644,2Z" transform="translate(2.735 43.807)" fill="#263238"/>
          <path id="Path_106045" data-name="Path 106045" d="M7.836,0a3.879,3.879,0,0,1,.54,2.069A6.892,6.892,0,0,1,2.125,9.276,3.8,3.8,0,0,1,0,9.028c0-.1.821,0,2.069-.169A6.948,6.948,0,0,0,7.96,2.114C7.994.832,7.735.056,7.836,0Z" transform="translate(35.96 12.078)" fill="#903f04"/>
        </g>
        <path id="Path_106936" data-name="Path 106936" d="M226.326,296.646l3.358-4.846,14.095,9.935,13.906-9.346,4.229,4.095-12.746,13.432-11.923.49-10.92-13.76" transform="translate(-180.165 -219.746)" fill="#ff725e"/>
        <path id="Path_106008" data-name="Path 106008" d="M257.43,220.689l8.451,15.228,5.157-41.41a16.588,16.588,0,0,0-1.715-8.7,17.247,17.247,0,0,0-2.1-3.375,18.3,18.3,0,0,0-3.606-3.388,1.51,1.51,0,0,1,.272-2.844c1.361-.15,5.035,1.823,7.933,5.8s3.2-3.674,3.361-6.45,1.061-11.322,1.946-11.934c1.361-.885,2.531.381,2.313,3.157s-.327,11.118,1.143,11.172,2.068-14.1,2.068-14.1-.354-3.062,1.361-3.048c3.048,0,1.279,14.969,1.075,16.33-.136.98,1.456,1.1,1.551,0s.3-14.125,3.4-14.152c2.4,0-1.361,12.329.109,15.091s1.878-9.675,4.164-9.594c.844,0,1.483.163.218,7.24-.68,3.81-3.2,9.294-3.96,16.724l-.2,1.919c-.15,9.254-2.191,37.137-10.6,58.365a17.2,17.2,0,0,1-30.264,3.062c-5.171-7.8-13.35-28.182-13.35-28.182Z" transform="translate(-135.868 -101.821)" fill="#ffbe9d"/>
        <path id="Path_106009" data-name="Path 106009" d="M275.693,182.214a7.7,7.7,0,0,0-1.211.313,4.395,4.395,0,0,0-2.354,1.946l-.286.517-.163-.572a7.186,7.186,0,0,0-1.129-2.259,8.26,8.26,0,0,0-3.906-2.885c-1.2-.422-2.014-.395-2.014-.5a3.988,3.988,0,0,1,2.123.15,7.756,7.756,0,0,1,4.232,2.912,7.036,7.036,0,0,1,1.17,2.436h-.449a4.273,4.273,0,0,1,2.722-1.987,2.055,2.055,0,0,1,1.266-.068Z" transform="translate(-125.596 -95.366)" fill="#eb996e"/>
        <path id="Path_106010" data-name="Path 106010" d="M241.873,182.6l24.018,45.451,4.082-40.185h21.514l-7.906,57.277a16.806,16.806,0,0,1-11.336,13.935h0c-7.811,2.626-18.194-.435-22.045-7.716l-14.071-23.95Z" transform="translate(-135.879 -93.955)" fill="#ff725e"/>
        <path id="Path_106011" data-name="Path 106011" d="M260.063,235.041a8.477,8.477,0,0,1-1.606-2.558,21.188,21.188,0,0,1-1.361-14.316,8.928,8.928,0,0,1,1.116-2.817,26.494,26.494,0,0,0,1.823,19.691Z" transform="translate(-128.554 -82.139)" fill="#263238"/>
        <g id="Group_25059" data-name="Group 25059" transform="translate(124.735 132.572)" opacity="0.3">
          <path id="Path_106012" data-name="Path 106012" d="M258.719,214.88a10.165,10.165,0,0,0-4.191,6.5,24.169,24.169,0,0,0-.15,7.92,4.667,4.667,0,0,0,.6,2.177,1.674,1.674,0,0,0,1.96.735,1.742,1.742,0,0,0,.871-1.606,6.38,6.38,0,0,0-.422-1.864,15.868,15.868,0,0,1,1.973-13.39" transform="translate(-254.122 -214.88)"/>
        </g>
        <path id="Path_106013" data-name="Path 106013" d="M200.372,175.354c3.593-.68,7.076-1.987,11.295-2.164h0c.488.154,8.034,6.211,15.119,6.211s12.851-6.1,13.22-6.211c1.116.15,1.6.286,3.464.517,11.853,1.361,16.4,3.906,24.916,12.247l-.939,47.969s2.858,54.6,2.722,63.414h-81l-.122-36.987V250.28l-26.59,9.743,2.422-13.989s11.921-46.431,13.8-52.691C180.885,185.75,189.05,177.517,200.372,175.354Z" transform="translate(-162.46 -97.351)" fill="#ff725e"/>
        <g id="Group_25116" data-name="Group 25116" transform="translate(46.052 76.848)">
          <path id="Path_106937" data-name="Path 106937" d="M240.911,304.2a.882.882,0,0,1-.222.063,2.358,2.358,0,0,0-.634.171,3.719,3.719,0,0,0-1.761,1.489,18.9,18.9,0,0,0-1.628,3.168c-.279.634-.558,1.267-.912,1.945a7.272,7.272,0,0,1-1.362,1.9l-.114.108-.114-.12-.672-.7c-2.344-2.458-4.34-4.8-5.7-6.532-.7-.868-3.593-5.484-3.935-5.984a4.832,4.832,0,0,1-.545-.8,4.873,4.873,0,0,1,.634.716l4.011,5.921c1.432,1.692,3.453,4,5.784,6.449l.672.7h-.228a6.754,6.754,0,0,0,1.305-1.818c.348-.634.634-1.3.919-1.9a18.044,18.044,0,0,1,1.717-3.168,3.725,3.725,0,0,1,1.9-1.476,2.122,2.122,0,0,1,.634-.114C240.829,304.158,240.911,304.158,240.911,304.2Z" transform="translate(-223.311 -298.795)" fill="#263238"/>
          <path id="Path_106938" data-name="Path 106938" d="M267.916,298.982c-.164.273-2.943,4.87-3.162,5.1-.4.475-.982,1.147-1.742,1.939a47.083,47.083,0,0,1-6.519,5.6c-.513.361-1.026.71-1.52,1.033l-.228.146v-.279a14.888,14.888,0,0,0-.963-3.89,9.972,9.972,0,0,0-1.565-2.8,3.883,3.883,0,0,0-1.679-1.267c-.469-.158-.754-.177-.748-.209s.07,0,.2,0a2.257,2.257,0,0,1,.583.1,3.878,3.878,0,0,1,1.806,1.235,9.851,9.851,0,0,1,1.673,2.838,15.029,15.029,0,0,1,1.02,3.985l-.253-.127c.488-.329.995-.672,1.508-1.033a52.614,52.614,0,0,0,6.538-5.493c.786-.767,1.818-1.856,1.818-1.856S267.682,299.19,267.916,298.982Z" transform="translate(-232.164 -298.982)" fill="#263238"/>
          <path id="Path_106939" data-name="Path 106939" d="M254.277,403.392V402.4c0-.665,0-1.622-.038-2.845,0-2.49-.07-6.063-.127-10.472-.127-8.838-.412-21.046-1.026-34.522s-1.463-25.658-2.141-34.471c-.355-4.4-.634-7.957-.836-10.441-.1-1.216-.171-2.167-.228-2.832,0-.317-.038-.558-.044-.741a1.1,1.1,0,0,1,0-.253,1.237,1.237,0,0,0,.038.247c.038.165.044.431.082.741.07.665.165,1.616.285,2.832.247,2.458.57,6.019.944,10.428.741,8.806,1.616,21,2.236,34.477s.862,25.69.931,34.534c.038,4.435.038,8,0,10.472v3.586a1.346,1.346,0,0,1-.076.253Z" transform="translate(-232.177 -299.901)" fill="#263238"/>
          <g id="Group_25116-2" data-name="Group 25116" transform="translate(17.321 5.381)" opacity="0.2">
            <path id="Path_30070" data-name="Path 30070" d="M249.31,304.989c1.438.817,1.97,2.636,1.977,4.283s-.386,3.294-.247,4.942a2.807,2.807,0,0,0,1.1,2.236c1,.634,2.274.038,3.3-.526a27.887,27.887,0,0,0,6.24-4.207,9.009,9.009,0,0,0,2.534-6.747c-3.041,3.263-6.107,5.233-9.433,7.805a13.773,13.773,0,0,0-1.673-4.935c-.862-1.5-2.084-3.041-3.8-2.851" transform="translate(-249.31 -304.97)"/>
          </g>
          <path id="Path_106940" data-name="Path 106940" d="M232.16,309.264a17.675,17.675,0,0,0,4.232,6c.855.678,2.11,1.191,3,.557a3.043,3.043,0,0,0,.893-2.388c.152-2.23.811-4.8.963-7.032-1.768,2-2.737,5.512-4.6,7.926-1.9-1.2-3-3.244-4.365-5.024" transform="translate(-225.704 -300.114)" opacity="0.2"/>
          <g id="Group_25117" data-name="Group 25117" transform="translate(10.793 13.889)" opacity="0.2">
            <path id="Path_30074" data-name="Path 30074" d="M243.634,318.4q-3.5,27.933-4.568,56.094c-.108,2.933-.184,5.955.862,8.7,1.216,3.168,3.8,5.639,6.335,7.957,1.071.988,2.534,2.053,3.839,1.438a3.579,3.579,0,0,0,1.235-1.153,18.065,18.065,0,0,0,3.656-6.766c1.837-7.894-5.613-15.705-3.934-23.637" transform="translate(-239.007 -318.4)"/>
          </g>
          <path id="Path_106941" data-name="Path 106941" d="M244.382,308.086l5.594-.146,1.5,3.009-1.793,5.03H245.11l-2.42-4.5Z" transform="translate(-229.562 -300.678)" fill="#455a64"/>
          <path id="Path_106942" data-name="Path 106942" d="M245,320.63l-2.617,64.026,7.6,8.268,7.026-9.985-7.444-62.309Z" transform="translate(-229.448 -305.328)" fill="#455a64"/>
          <path id="Path_106943" data-name="Path 106943" d="M251.535,309.649a3.8,3.8,0,0,1-.71.969,15.641,15.641,0,0,1-2.1,1.989,15.894,15.894,0,0,1-2.414,1.584,3.592,3.592,0,0,1-1.109.469c-.044-.089,1.578-.925,3.32-2.312S251.459,309.579,251.535,309.649Z" transform="translate(-230.482 -301.303)" fill="#263238"/>
          <path id="Path_106944" data-name="Path 106944" d="M251.512,330.5a24.778,24.778,0,0,1-2.731,2.94,24.219,24.219,0,0,1-2.971,2.705,24.543,24.543,0,0,1,2.737-2.94A23.925,23.925,0,0,1,251.512,330.5Z" transform="translate(-230.705 -308.945)" fill="#263238"/>
          <path id="Path_106945" data-name="Path 106945" d="M251.748,337.78a61.926,61.926,0,0,1-6.348,6.285,30.4,30.4,0,0,1,3.06-3.263,30.065,30.065,0,0,1,3.288-3.022Z" transform="translate(-230.556 -311.613)" fill="#ebebeb"/>
          <path id="Path_106946" data-name="Path 106946" d="M252.3,344.5a40.739,40.739,0,0,1-3.561,3.763,41.427,41.427,0,0,1-3.8,3.535,40.3,40.3,0,0,1,3.56-3.77,39.728,39.728,0,0,1,3.8-3.529Z" transform="translate(-230.388 -314.076)" fill="#263238"/>
          <path id="Path_106947" data-name="Path 106947" d="M252.725,351.58a50.137,50.137,0,0,1-3.884,4.093,49.422,49.422,0,0,1-4.112,3.852,47.535,47.535,0,0,1,3.877-4.086,48.369,48.369,0,0,1,4.118-3.858Z" transform="translate(-230.31 -316.671)" fill="#ebebeb"/>
          <path id="Path_106948" data-name="Path 106948" d="M253.109,358.71a57.5,57.5,0,0,1-4.194,4.4,54.9,54.9,0,0,1-4.435,4.169,56.848,56.848,0,0,1,4.194-4.435,54.058,54.058,0,0,1,4.435-4.131Z" transform="translate(-230.218 -319.282)" fill="#263238"/>
          <path id="Path_106949" data-name="Path 106949" d="M253.525,365.679c.07.063-2,2.224-4.612,4.828a66.242,66.242,0,0,1-4.853,4.593,136.391,136.391,0,0,1,9.465-9.421Z" transform="translate(-230.065 -321.836)" fill="#ebebeb"/>
          <path id="Path_106950" data-name="Path 106950" d="M253.879,372.8c.063.063-2.16,2.376-4.961,5.17s-5.125,4.992-5.189,4.929,2.154-2.376,4.954-5.163S253.809,372.736,253.879,372.8Z" transform="translate(-229.943 -324.445)" fill="#263238"/>
          <path id="Path_106951" data-name="Path 106951" d="M254.363,379.8c.063.063-2.312,2.534-5.3,5.505s-5.467,5.334-5.531,5.271,2.306-2.534,5.3-5.505S254.293,379.736,254.363,379.8Z" transform="translate(-229.869 -327.01)" fill="#ebebeb"/>
          <path id="Path_106952" data-name="Path 106952" d="M254.528,387.119c.063.063-2.458,2.68-5.632,5.835s-5.8,5.67-5.867,5.607,2.458-2.68,5.632-5.835S254.465,387.043,254.528,387.119Z" transform="translate(-229.687 -329.693)" fill="#263238"/>
          <path id="Path_106953" data-name="Path 106953" d="M255.135,394c.063.063-2.6,2.819-5.943,6.152s-6.12,5.987-6.183,5.924,2.6-2.819,5.949-6.158S255.072,393.949,255.135,394Z" transform="translate(-229.679 -332.215)" fill="#ebebeb"/>
          <path id="Path_106954" data-name="Path 106954" d="M255.856,400.359c.063.07-2.914,3.136-6.646,6.855s-6.817,6.69-6.88,6.627,2.908-3.136,6.646-6.861S255.792,400.3,255.856,400.359Z" transform="translate(-229.43 -334.544)" fill="#263238"/>
          <path id="Path_106955" data-name="Path 106955" d="M246.139,419.106c-.063-.063,2.452-2.7,5.626-5.886s5.791-5.7,5.86-5.651-2.458,2.7-5.626,5.886S246.2,419.17,246.139,419.106Z" transform="translate(-230.826 -337.188)" fill="#ebebeb"/>
          <path id="Path_106956" data-name="Path 106956" d="M250.729,424.876A61.875,61.875,0,0,1,255.164,420a64.182,64.182,0,0,1,4.65-4.644,65.4,65.4,0,0,1-4.435,4.872,64.166,64.166,0,0,1-4.65,4.644Z" transform="translate(-232.508 -340.042)" fill="#263238"/>
          <path id="Path_106957" data-name="Path 106957" d="M250.985,323.73a19.641,19.641,0,0,1-2.42,2.629,19.316,19.316,0,0,1-2.655,2.4,19.923,19.923,0,0,1,2.42-2.636A19.418,19.418,0,0,1,250.985,323.73Z" transform="translate(-230.742 -306.464)" fill="#ebebeb"/>
        </g>
        <g id="Group_25118" data-name="Group 25118" transform="translate(2.995 124.187)" opacity="0.3">
          <path id="Path_106958" data-name="Path 106958" d="M174.666,229.941l38.878-10.111,11.118,18.085-39.6,16.67a15.921,15.921,0,0,1-6.586,1.361h0a16.044,16.044,0,0,1-14.819-9.934l-1.2-2.939Z" transform="translate(-162.46 -203.71)" opacity="0.6"/>
          <path id="Path_106959" data-name="Path 106959" d="M200,224.1a16.684,16.684,0,0,0,6.668-5.96,17.689,17.689,0,0,0,1.851-3.552,18.873,18.873,0,0,0,1.075-4.858c0-1.538,1.783-2.341,2.613-1.238s.993,5.307-.953,9.852,4.831.9,7.321-.395,10.369-4.913,11.349-4.45c1.442.68.966,2.4-1.551,3.62s-9.8,5.443-9.09,6.8,13.282-5.443,13.282-5.443,2.477-1.878,3.334-.408c1.565,2.722-12.247,8.8-13.608,9.362-.925.381-.2,1.824.776,1.361s12.4-7.022,14.016-4.327c1.252,2.055-11.363,5.171-13.023,7.852s9.349-3.348,10.465-1.361c.408.762.612,1.361-6.178,3.919-3.647,1.361-9.689,2.014-16.52,5.171l-1.783.8" transform="translate(-148.913 -207.984)" opacity="0.6"/>
        </g>
        <path id="Path_106014" data-name="Path 106014" d="M174.666,229.941l38.878-10.111,11.118,18.085-39.6,16.67a15.921,15.921,0,0,1-6.586,1.361h0a16.044,16.044,0,0,1-14.819-9.934l-1.2-2.939Z" transform="translate(-162.46 -80.522)" fill="#ff725e"/>
        <path id="Path_106015" data-name="Path 106015" d="M186.414,232.814c-.191,0-.354-7.144-.354-15.949s.163-15.935.354-15.935.367,7.131.367,15.935S186.618,232.814,186.414,232.814Z" transform="translate(-153.945 -87.342)" fill="#263238"/>
        <path id="Path_106025" data-name="Path 106025" d="M238.858,197.92c.191,0,1.361,20.058,2.6,44.825s2.1,44.839,1.892,44.907-1.361-20.058-2.6-44.825S238.654,197.934,238.858,197.92Z" transform="translate(-134.905 -88.428)" fill="#263238"/>
        <path id="Path_106026" data-name="Path 106026" d="M200,224.1a16.684,16.684,0,0,0,6.668-5.96,17.689,17.689,0,0,0,1.851-3.552,18.873,18.873,0,0,0,1.075-4.858c0-1.538,1.783-2.341,2.613-1.238s.993,5.307-.953,9.852,4.831.9,7.321-.395,10.369-4.913,11.349-4.45c1.442.68.966,2.4-1.551,3.62s-9.8,5.443-9.09,6.8,13.282-5.443,13.282-5.443,2.477-1.878,3.334-.408c1.565,2.722-12.247,8.8-13.608,9.362-.925.381-.2,1.824.776,1.361s12.4-7.022,14.016-4.327c1.252,2.055-11.363,5.171-13.023,7.852s9.349-3.348,10.465-1.361c.408.762.612,1.361-6.178,3.919-3.647,1.361-9.689,2.014-16.52,5.171l-1.783.8" transform="translate(-148.915 -84.796)" fill="#ffbe9d"/>
        <path id="Path_106027" data-name="Path 106027" d="M181.586,254.05a3.978,3.978,0,0,1,.735-.381l2.137-.966,8-3.484,27.067-11.526-.163.517-3.62-5.8-7.7-12.247.395.136L185.41,227.6l-6.668,2.068-1.8.517-.626.15a2.2,2.2,0,0,1,.6-.259l1.755-.626,6.6-2.245,22.916-7.58.259-.082.136.218,7.729,12.247,3.62,5.8.218.34-.381.163-27.216,11.308-8.083,3.28-2.191.857A4.418,4.418,0,0,1,181.586,254.05Z" transform="translate(-157.459 -80.627)" fill="#263238"/>
        <path id="Path_106028" data-name="Path 106028" d="M179.52,222.255a8.668,8.668,0,0,1,9.172,2.463,30.755,30.755,0,0,0-4.409-1.919,32.083,32.083,0,0,0-4.763-.544Z" transform="translate(-156.305 -79.804)" fill="#263238"/>
      </g>
      <path id="Path_106960" data-name="Path 106960" d="M250.856,320.579a63.884,63.884,0,0,1-4.226-.07,7.723,7.723,0,0,1,4.226.07Z" transform="translate(17975.172 -19240.459)" fill="#263238"/>
    </g>
  </g>
</svg>
