<svg id="Component_Character_Female_K" data-name="Component/Character/Female/K" xmlns="http://www.w3.org/2000/svg" xmlns:xlink="http://www.w3.org/1999/xlink" width="180" height="180" viewBox="0 0 180 180">
  <defs>
    <clipPath id="clip-path">
      <rect id="Rectangle_9960" data-name="Rectangle 9960" width="180" height="180" transform="translate(18862 -20959)" fill="#fff" stroke="#707070" stroke-width="1"/>
    </clipPath>
  </defs>
  <g id="Component_Character_Female_K-2" data-name="Component/Character/Female/K" transform="translate(-18862 20959)" clip-path="url(#clip-path)">
    <g id="Group_25160" data-name="Group 25160" transform="translate(-1 -8)">
      <g id="Group_25159" data-name="Group 25159" transform="translate(18924.311 -20943.895)">
        <path id="Path_107275" data-name="Path 107275" d="M396.007,137.277l-.68,56.954c.139,7.024,3.806,12.6,10.832,12.6h0a13.418,13.418,0,0,0,13.3-13.088l-.411-18.031s9.073-1.506,10.932-13.361c.935-5.891.644-15.547.146-23.442-.449-7.106-5.1-16.045-14.576-16.009C415.571,122.952,396.99,121.487,396.007,137.277Z" transform="translate(-374.524 -100.236)" fill="#a36957"/>
        <g id="Group_25157" data-name="Group 25157">
          <path id="Path_107249" data-name="Path 107249" d="M261.615,79.72a3.52,3.52,0,0,0,1.36-6.06,2.452,2.452,0,1,0-2.55-4.19,2.86,2.86,0,0,0-4.57-2.47,3.39,3.39,0,0,0-5.41,2.33,2.83,2.83,0,0,0-5.23,1.37c-1.15-.26-2.52-.47-3.38.34s-.79,2-.69,3.12a18,18,0,0,0,.61,3.88,9,9,0,0,0,3.53,4.81,5.28,5.28,0,0,0,6.27.65" transform="translate(-229.285 -64.805)" fill="#263238"/>
          <path id="Path_107250" data-name="Path 107250" d="M256.735,84.17a3.12,3.12,0,1,0-4.28-4.53c-.32.34-.62.8-1.09.86s-.84-.28-1.23-.51a3.093,3.093,0,0,0-4.61,3.23c-1.61-.58-3.77-.26-4.47,1.3a3.12,3.12,0,0,0,1.68,3.79,6.74,6.74,0,0,0,4.46.29,17.67,17.67,0,0,0,9.31-5.25" transform="translate(-222.735 -64.805)" fill="#ff725e"/>
          <path id="Path_107251" data-name="Path 107251" d="M261.21,118.19a5,5,0,0,0,3-5.88,6,6,0,0,0,.74-8.63,4.19,4.19,0,0,0-2.92-7.2,5.66,5.66,0,0,0-6.66-7.21,5.18,5.18,0,0,0-8.33-4.6,7.47,7.47,0,0,0-11.17.28,7,7,0,0,0-9.41,3.52c-2.23-1.84-5.86-.91-7.64,1.35s-2.05,5.4-1.65,8.26a4.76,4.76,0,0,0-.2,8.29,8.19,8.19,0,0,0,2.12,11.19,9.44,9.44,0,0,0,5.2,9.1" transform="translate(-205.09 -64.805)" fill="#263238"/>
          <path id="Path_107252" data-name="Path 107252" d="M220.215,103.8l-.18-3.52,21-4.68c6.5-.9,13.76,5.42,14.38,12,.68,7.26,1.23,16.15.53,21.6-1.39,11-9.71,12.62-9.71,12.62l-.89,16.62-24.12,1Z" transform="translate(-200.305 -64.805)" fill="#a36957"/>
          <path id="Path_107253" data-name="Path 107253" d="M227.6,114.85a1.41,1.41,0,0,1-1.31,1.46,1.34,1.34,0,0,1-1.48-1.22,1.39,1.39,0,0,1,1.3-1.45,1.34,1.34,0,0,1,1.49,1.21Z" transform="translate(-176.41 -64.805)" fill="#263238"/>
          <path id="Path_107254" data-name="Path 107254" d="M228.551,112.27c-.17.18-1.25-.57-2.76-.52s-2.58.84-2.75.66.08-.41.55-.78a3.9,3.9,0,0,1,2.2-.75,3.69,3.69,0,0,1,2.2.64C228.451,111.86,228.611,112.18,228.551,112.27Z" transform="translate(-175.551 -64.805)" fill="#263238"/>
          <path id="Path_107255" data-name="Path 107255" d="M241.66,115.66a1.4,1.4,0,0,1-1.31,1.45,1.33,1.33,0,0,1-1.48-1.21,1.4,1.4,0,0,1,1.3-1.46,1.35,1.35,0,0,1,1.49,1.22Z" transform="translate(-204.53 -64.805)" fill="#263238"/>
          <path id="Path_107256" data-name="Path 107256" d="M243.36,113c-.16.19-1.25-.57-2.75-.52s-2.59.84-2.76.66.08-.41.55-.78a3.92,3.92,0,0,1,2.2-.75,3.75,3.75,0,0,1,2.21.64C243.28,112.6,243.45,112.92,243.36,113Z" transform="translate(-205.18 -64.805)" fill="#263238"/>
          <path id="Path_107257" data-name="Path 107257" d="M229.321,124a9.54,9.54,0,0,1,2.43-.52c.38,0,.75-.14.8-.4a2,2,0,0,0-.29-1.14l-1.23-2.89c-1.71-4.12-3-7.51-2.79-7.58s1.69,3.22,3.4,7.34l1.18,2.91a2.2,2.2,0,0,1,.24,1.5,1,1,0,0,1-.61.59,2.94,2.94,0,0,1-.65.11,10.09,10.09,0,0,1-2.48.08Z" transform="translate(-185.321 -64.805)" fill="#263238"/>
          <path id="Path_107258" data-name="Path 107258" d="M245.11,141.81A28.9,28.9,0,0,1,230,138.35s3.58,8.045,14.84,6.695Z" transform="translate(-199.11 -64.805)" fill="#7c3b29"/>
          <path id="Path_107259" data-name="Path 107259" d="M236.8,127.66a2.68,2.68,0,0,0-2.46-.93,2.45,2.45,0,0,0-1.68,1,1.59,1.59,0,0,0-.07,1.8,1.83,1.83,0,0,0,2,.43,5.5,5.5,0,0,0,1.89-1.21,1.63,1.63,0,0,0,.42-.45.51.51,0,0,0,0-.56" transform="translate(-193.332 -64.805)" fill="#7c3b29"/>
          <path id="Path_107260" data-name="Path 107260" d="M231.7,125.19c.24,0,.3,1.61,1.73,2.73s3.17.88,3.19,1.11-.38.33-1.11.37a4.07,4.07,0,0,1-2.66-.83,3.57,3.57,0,0,1-1.35-2.3C231.42,125.59,231.59,125.18,231.7,125.19Z" transform="translate(-192.1 -64.805)" fill="#263238"/>
          <path id="Path_107261" data-name="Path 107261" d="M244.459,108.74c-.14.42-1.65.27-3.41.54s-3.17.79-3.42.43c-.11-.17.13-.56.69-1a5.77,5.77,0,0,1,2.52-1,5.71,5.71,0,0,1,2.68.23C244.179,108.23,244.519,108.55,244.459,108.74Z" transform="translate(-206.069 -64.805)" fill="#263238"/>
          <path id="Path_107262" data-name="Path 107262" d="M228.33,107.1c-.26.35-1.31,0-2.56.05s-2.29.3-2.55-.05c-.11-.17.05-.52.5-.85a3.67,3.67,0,0,1,4.11,0C228.28,106.58,228.44,106.93,228.33,107.1Z" transform="translate(-175.55 -64.805)" fill="#263238"/>
          <path id="Path_107263" data-name="Path 107263" d="M221.086,96a5.41,5.41,0,0,0,1.42,2.25,1.86,1.86,0,0,0,2.46,0,2.43,2.43,0,0,0,3.74-.49,3.3,3.3,0,0,0,4,.15l3.29.52c1.19.18,2.66.25,3.33-.76.15-.23.26-.52.5-.65a1.59,1.59,0,0,1,.84,0,2.78,2.78,0,0,0,2.36-1.3,8,8,0,0,0,1.06-2.6c.39-1.39.66-3.17-.51-4a3.65,3.65,0,0,0-1.6-.52,8.15,8.15,0,0,0-3.44,0,6,6,0,0,0-3.23,2.65,1.52,1.52,0,0,0-1.05-1.82,3,3,0,0,0-2.27.34,6.11,6.11,0,0,0-2.4,2.23,4.93,4.93,0,0,0-4.23,3,3.57,3.57,0,0,0-2.82-.34,1.25,1.25,0,0,0-.81.58.58.58,0,0,0,.34.82" transform="translate(-189.506 -64.805)" fill="#263238"/>
          <path id="Path_107264" data-name="Path 107264" d="M214.647,96a3.61,3.61,0,0,0,5.76,3.86,3.32,3.32,0,0,0,3.85,1.92,5.2,5.2,0,0,0,2.95,4.41,4,4,0,0,0,.1,3,2.48,2.48,0,0,0,1.32,1.38,2.8,2.8,0,0,0,2.23-.29,4,4,0,0,0,2.16-2.36,2.34,2.34,0,0,0-1.2-2.76,8.58,8.58,0,0,0,2-3.25,2.77,2.77,0,0,0,0-2.13,1.22,1.22,0,0,0-1.82-.49,3.21,3.21,0,0,0-3.69-4.47,2.67,2.67,0,0,0-4.53-1.7" transform="translate(-172.507 -64.805)" fill="#263238"/>
          <path id="Path_107265" data-name="Path 107265" d="M264.192,96a5.63,5.63,0,0,1-3.14,7.77,2.74,2.74,0,0,1-.22,5.31,5.13,5.13,0,0,1-.93,6.51,3,3,0,0,1,1.71,2.73,2.08,2.08,0,0,1-2.31,1.94,3.88,3.88,0,0,1-2.5,3.9,3.157,3.157,0,0,1-2.43,4.93,1.7,1.7,0,0,1,0,2.47,3.3,3.3,0,0,1-4.7-.36,5.46,5.46,0,0,1-.85-5,1.68,1.68,0,0,1-2.09-1.09,3.63,3.63,0,0,1,.25-2.58,15.261,15.261,0,0,0,.95-2.48,1.25,1.25,0,0,0,0-.79c-.18-.37-.61-.52-1-.72a4,4,0,0,1-1.56-4.1,33.91,33.91,0,0,1,1.37-4.44,1.51,1.51,0,0,0,0-1c-.14-.35-.52-.54-.85-.76a3.4,3.4,0,0,1,.62-5.94,2,2,0,0,1-.51-2.66,9.67,9.67,0,0,1,2.07-2.17c1.38-1.31,2.41-3.06,4.12-3.87a4.68,4.68,0,0,1,5.24,1,6.77,6.77,0,0,1,3.76-1.12,2.74,2.74,0,0,1,2.65,2.52" transform="translate(-233.192 -64.805)" fill="#263238"/>
          <path id="Path_107266" data-name="Path 107266" d="M246.227,97.53a1.32,1.32,0,0,0-.35.4,2.8,2.8,0,0,0-.43,1.45,2.83,2.83,0,0,0,.92,2.18,3.08,3.08,0,0,0,3,.63l-.29-.25a2.2,2.2,0,1,0,4.35.64h-.51a2.24,2.24,0,0,0,2.87,1.5,2,2,0,0,0,1-.91,2.22,2.22,0,0,0-.16-2.47l-.3.38a5.49,5.49,0,0,0,4.4.1,5.27,5.27,0,0,0,3.24-4.49,2.15,2.15,0,0,0-.06-.81,6.79,6.79,0,0,1-.86,2.84,5,5,0,0,1-2.47,2.07,5.16,5.16,0,0,1-4-.15l-1-.5.72.88a1.74,1.74,0,0,1,.13,1.98,1.48,1.48,0,0,1-1.82.67,1.68,1.68,0,0,1-1.18-1.17l-.37-1.53-.14,1.56a1.78,1.78,0,0,1-2.09,1.52,1.82,1.82,0,0,1-1.31-2l.08-.39-.37.14a2.72,2.72,0,0,1-2.63-.49,2.59,2.59,0,0,1-.9-1.91,3.57,3.57,0,0,1,.53-1.87Z" transform="translate(-233.427 -64.805)" fill="#455a64"/>
          <path id="Path_107267" data-name="Path 107267" d="M242.2,89.07a1.36,1.36,0,0,1,.16.62.81.81,0,0,1-.32.61.82.82,0,0,1-.87,0l-.46-.28.24.48a2.16,2.16,0,0,1-.38,2.36,2.07,2.07,0,0,1-2.83,0l-.28-.27-.12.36a3.79,3.79,0,0,1-6.14,1.48l-.18-.17-.17.16a6.46,6.46,0,0,1-3.09,1.58,7.06,7.06,0,0,1-2.75.11,11.36,11.36,0,0,1-2.38-.77,3.262,3.262,0,0,0,.54.4,5.82,5.82,0,0,0,1.78.67,7.07,7.07,0,0,0,2.91,0,6.87,6.87,0,0,0,3.29-1.68h-.35a4.26,4.26,0,0,0,7.05-1.59l-.4.09a2.42,2.42,0,0,0,3.83-2.87l-.21.21a1.08,1.08,0,0,0,1.17-.13,1,1,0,0,0,.33-.8A.626.626,0,0,0,242.2,89.07Z" transform="translate(-189.198 -64.805)" fill="#455a64"/>
          <path id="Path_107268" data-name="Path 107268" d="M239.335,83.7a1.935,1.935,0,0,1,.62-.15,2,2,0,0,1,1.54.51,2.56,2.56,0,0,1,.64,2.27,6.24,6.24,0,0,1-1.41,2.75l.39.34h0c.24-.27.86-.09,1,.27a1.69,1.69,0,0,1,.05,1.33,6.16,6.16,0,0,1-1.24,2.23,13.56,13.56,0,0,1-1.84,1.57,1.456,1.456,0,0,0,.64-.22,5.94,5.94,0,0,0,1.47-1.1,6.06,6.06,0,0,0,1.43-2.34,2.19,2.19,0,0,0-.07-1.73,1.27,1.27,0,0,0-.8-.61,1,1,0,0,0-1,.24h0l.4.33a6.31,6.31,0,0,0,1.48-3,2.93,2.93,0,0,0-.88-2.61,2.1,2.1,0,0,0-1.81-.43C239.475,83.47,239.315,83.68,239.335,83.7Z" transform="translate(-205.855 -64.805)" fill="#455a64"/>
          <path id="Path_107269" data-name="Path 107269" d="M245.1,88.72a7.29,7.29,0,0,1,1.88-.58,4,4,0,0,1,4,2.28l.2.43.24-.41a2.28,2.28,0,0,1,4.21,1v.3l.29-.08a3.14,3.14,0,0,1,2.57.44,3,3,0,0,1,1.2,1.73,4.56,4.56,0,0,1,0,2,1.386,1.386,0,0,0,.25-.5,3.29,3.29,0,0,0-1.2-3.53,3.47,3.47,0,0,0-2.94-.58l.31.22a2.76,2.76,0,0,0-5.13-1.19h.44a4.35,4.35,0,0,0-2.14-2.08,4.12,4.12,0,0,0-2.33-.29,3.89,3.89,0,0,0-1.43.53C245.218,88.56,245.078,88.7,245.1,88.72Z" transform="translate(-229.158 -64.805)" fill="#455a64"/>
          <path id="Path_107270" data-name="Path 107270" d="M247.629,106.55a1.41,1.41,0,0,0-.17.32,3.46,3.46,0,0,0-.27,1,1.9,1.9,0,0,0,.51,1.58,1.15,1.15,0,0,0,1.07.3,1,1,0,0,0,.84-1v-.81l-.41.72a2.454,2.454,0,1,0,4.33,2.31h-.46a3.07,3.07,0,0,0,1.31,1.53,3,3,0,0,0,3.13,0,3.2,3.2,0,0,0,1.5-2.48l-.31.21a5.05,5.05,0,0,0,3.35-.14,5.43,5.43,0,0,0,2.15-1.47,4.49,4.49,0,0,0,.88-1.44,1.641,1.641,0,0,0,.13-.59,7,7,0,0,1-1.21,1.83,5.34,5.34,0,0,1-2.08,1.3,4.72,4.72,0,0,1-3.07.06l-.29-.09V110a2.72,2.72,0,0,1-1.3,2.07,2.5,2.5,0,0,1-2.6,0,2.62,2.62,0,0,1-1.11-1.25l-.2-.52-.26.49a2.06,2.06,0,0,1-2.87.71,2.11,2.11,0,0,1-.65-2.58l-.38-.1a.66.66,0,0,1-.53.59.78.78,0,0,1-.76-.18,1.65,1.65,0,0,1-.5-1.33C247.479,107,247.689,106.56,247.629,106.55Z" transform="translate(-236.379 -64.805)" fill="#455a64"/>
          <path id="Path_107271" data-name="Path 107271" d="M245.938,71.43a3,3,0,0,1,.95-.87,1.92,1.92,0,0,1,1.42-.13,2,2,0,0,1,1.27,1.28l.29,1,.1-1a2.76,2.76,0,0,1,1.9-2.27,2.69,2.69,0,0,1,3.07,1.28l.12.22.23-.11a2.36,2.36,0,0,1,1-.26,2.66,2.66,0,0,1,2.7,1.77,2.81,2.81,0,0,1-.75,2.85l-.59.51.76-.13a2.16,2.16,0,0,1,2,.89,2,2,0,0,1,.24,1.76,2.87,2.87,0,0,1-1,1.32.83.83,0,0,0,.42-.2,2.34,2.34,0,0,0,.6-3.07,2.51,2.51,0,0,0-2.41-1.13l.18.38a3.23,3.23,0,0,0,1-3.32,3.18,3.18,0,0,0-4.39-1.84l.35.12a3.1,3.1,0,0,0-5.84,1.15h.39a2.24,2.24,0,0,0-1.57-1.48,2.1,2.1,0,0,0-1.61.24,2,2,0,0,0-.72.73.73.73,0,0,0-.11.31Z" transform="translate(-230.938 -64.805)" fill="#455a64"/>
          <path id="Path_107272" data-name="Path 107272" d="M257.373,76.09a2.81,2.81,0,0,1,1.54-.56,2,2,0,0,1,1.63.76,2.12,2.12,0,0,1,.21,2.26l-.79,1.48,1.13-1.24a1.918,1.918,0,0,1,2.99,2.39l.44.25a2.26,2.26,0,0,1,2.64-1.2,2.23,2.23,0,0,1,1.32,2.77l.4-.11a.86.86,0,0,1-.08-1.1,1.1,1.1,0,0,1,1.11-.38,2.33,2.33,0,0,1,1.64,1.73l.38-.16a1,1,0,0,1,.19-1.12,1.26,1.26,0,0,1,1-.47,2.5,2.5,0,0,1,1.73.79c.76.82,1,1.43,1.11,1.39s-.05-.16-.19-.43a5.51,5.51,0,0,0-.75-1.12,2.63,2.63,0,0,0-1.91-1,1.61,1.61,0,0,0-1.27.56,1.43,1.43,0,0,0-.27,1.56l.39-.17a4,4,0,0,0-.64-1.25A2.2,2.2,0,0,0,270,80.9a1.58,1.58,0,0,0-1.59.57,1.33,1.33,0,0,0,.16,1.78l.26.22.14-.33a2.646,2.646,0,1,0-4.9-2l.44.25a2.389,2.389,0,1,0-3.72-3l.33.24a2.48,2.48,0,0,0-.31-2.67,2.24,2.24,0,0,0-1.9-.78,2.3,2.3,0,0,0-1.23.45A2.4,2.4,0,0,0,257.373,76.09Z" transform="translate(-257.373 -64.805)" fill="#263238"/>
          <path id="Path_107273" data-name="Path 107273" d="M218.83,125a1.427,1.427,0,0,1-.42-.09,1.46,1.46,0,0,1-.83-.8,1.86,1.86,0,0,1,.08-1.75,5.8,5.8,0,0,1,1.72-1.75l-.27-.34a3.11,3.11,0,0,1-3.28.28,2.83,2.83,0,0,1-1.4-3.31,3.189,3.189,0,0,1,.6-1.19,1.63,1.63,0,0,1,1-.65c.29,0,.53.35.53.7a.85.85,0,0,1-.55.79,2.73,2.73,0,0,1-2.15-.15,3.8,3.8,0,0,1-1.52-1.25,3.85,3.85,0,0,1-.65-2.79c.1-.7.3-1,.26-1.07a2,2,0,0,0-.46,1,4,4,0,0,0,.54,3,4.23,4.23,0,0,0,1.65,1.43,3.1,3.1,0,0,0,2.53.19,1.59,1.59,0,0,0,.6-.46,1.22,1.22,0,0,0,.25-.77,1.41,1.41,0,0,0-.25-.78,1,1,0,0,0-.79-.42,1.33,1.33,0,0,0-.78.3,3.169,3.169,0,0,0-.57.53,3.68,3.68,0,0,0-.55,3.69,3.12,3.12,0,0,0,1.53,1.59,3.56,3.56,0,0,0,3.78-.39l-.27-.34a6.16,6.16,0,0,0-1.77,1.93,2.11,2.11,0,0,0,0,2,1.51,1.51,0,0,0,1,.81.69.69,0,0,0,.44.06Z" transform="translate(-154.83 -64.805)" fill="#263238"/>
          <path id="Path_107274" data-name="Path 107274" d="M240.141,77.34a1.829,1.829,0,0,0,.32.21,5.839,5.839,0,0,0,1,.45,2.74,2.74,0,0,0,1.79,0,2.18,2.18,0,0,0,.94-.68,1.53,1.53,0,0,0,.3-1.3l-.26.24a1.85,1.85,0,1,0,1.19-3.48l-.07.48a2.07,2.07,0,0,0,2-1.87,2.27,2.27,0,0,0-1.7-2.34,2.56,2.56,0,0,0-1.29-.08l.17.48a2.46,2.46,0,1,0-3.19-3.53h.33a2.81,2.81,0,0,0-2.84-.73,2.5,2.5,0,0,0-1.6,1.58,2.55,2.55,0,0,0-.11,1.43,1,1,0,0,0,.19.47,3.07,3.07,0,0,1,.15-1.81,2.24,2.24,0,0,1,1.47-1.33,2.44,2.44,0,0,1,2.42.67l.19.21.15-.23a2.13,2.13,0,0,1,3-.37,2.06,2.06,0,0,1-.38,3.2l-1.45.78,1.56-.31a2.12,2.12,0,0,1,1,.06,1.77,1.77,0,0,1,1.35,1.79,1.59,1.59,0,0,1-1.46,1.44l-2.11-.08,2,.56a1.46,1.46,0,0,1,.91,1.91,1.49,1.49,0,0,1-1.77.78l-.36-.13.1.37a1.44,1.44,0,0,1-1,1.58,2.54,2.54,0,0,1-1.61,0C240.641,77.54,240.161,77.29,240.141,77.34Z" transform="translate(-208.421 -64.805)" fill="#263238"/>
        </g>
      </g>
      <g id="Group_25158" data-name="Group 25158" transform="translate(18857.443 -20928.832)">
        <path id="Path_106931" data-name="Path 106931" d="M509.166,220.011l7.77,14.068,4.765-38.245a15.414,15.414,0,0,0-1.584-8.046,16.727,16.727,0,0,0-1.936-3.105,16.908,16.908,0,0,0-3.332-3.13c-1.257-.692-1.006-2.515.239-2.64s4.652,1.7,7.33,5.356,2.967-3.382,3.118-5.947.981-10.473,1.8-11.026c1.257-.817,2.339.352,2.125,2.9s-.289,10.284,1.056,10.334,1.924-13.025,1.924-13.025-.327-2.829,1.257-2.829c2.829,0,1.194,13.83,1.006,15.087-.138.905,1.333,1.006,1.421,0s.277-13.063,3.156-13.075c2.2,0-1.257,11.378.1,13.93s1.735-8.926,3.847-8.863c.779,0,1.37.163.189,6.7-.629,3.52-2.942,8.574-3.659,15.439l-.189,1.785c-.126,8.549-2.012,34.31-9.794,53.923a15.879,15.879,0,0,1-27.948,2.829c-4.79-7.2-12.346-26.05-12.346-26.05Z" transform="translate(-369.379 -105.303)" fill="#a36957"/>
        <path id="Path_106932" data-name="Path 106932" d="M83.136,72.732c.268-2.617-10.588-4.248-11.489-4.454s-.645-1.534.17-1.3c1.156.329,13.473,3.505,13.752.937.158-1.424-2.434-1.473-2.434-1.473S71.4,64.322,71.574,63.117s7.107-.219,9.42.292,3.456-.389,2.836-1.582c-.426-.815-7.473-2.532-9.736-2.982s-8.629-1.558-5.063-3.554,5.562-4.868,5.562-6.012a1.278,1.278,0,0,0-2.361-.536A14.765,14.765,0,0,1,69.079,51.4a10.223,10.223,0,0,1-3.03,1.387c-1.217.316-2.288.548-3.2.718-5.4-1.8-24.535-10.26-35.683-20.155C24.511,30.987,21.651,0,21.651,0h0L0,3.761,2.653,29.246c.426,27.287,57.371,40.662,57.371,40.662v-.061A123.879,123.879,0,0,0,72.1,75.069c5.793,1.85,5.963,1.339,6.085.633.268-1.911-10.065-3.651-7.619-4.576S82.88,74.74,83.136,72.732Z" transform="translate(50.086 97.355) rotate(41)" fill="#a36957"/>
        <path id="Path_106863" data-name="Path 106863" d="M394.77,340.184c.353,2.2,13.741,147.7,13.741,147.7l19.473.219-6.84-159.6Z" transform="translate(-303.499 -68.668)" fill="#a36957"/>
        <path id="Path_106864" data-name="Path 106864" d="M404.145,461.216l.11-2.057-20.69-1.339-.45,6.743,1.217.158c5.671.669,28.881,3.067,32.751,2.252C421.427,466.059,404.145,461.216,404.145,461.216Z" transform="translate(-279.113 -40.598)" fill="#ff725e"/>
        <g id="Group_25107" data-name="Group 25107" transform="translate(104.013 418.33)" opacity="0.3">
          <path id="Path_13942" data-name="Path 13942" d="M412.918,464.706a6.657,6.657,0,0,0-2.373-4.26,7.3,7.3,0,0,0-4.734-1.716l-.341,5.355Z" transform="translate(-405.47 -458.73)"/>
        </g>
        <g id="Group_25108" data-name="Group 25108" transform="translate(103.977 423.259)" opacity="0.3">
          <path id="Path_13943" data-name="Path 13943" d="M412.526,462.78s6.085,2.069,5.209,2.957-24.341-.706-34.686-2.252l.061-.426,27.469,2.069S411.321,462.756,412.526,462.78Z" transform="translate(-383.049 -462.78)"/>
        </g>
        <path id="Path_106865" data-name="Path 106865" d="M383.09,463h.353l1.01.122,3.749.4c3.152.329,7.521.706,12.353,1.047s9.213.536,12.39.645l3.749.11h.012l-3.761-.183c-3.164-.158-7.546-.389-12.378-.718s-9.189-.694-12.353-.974l-3.749-.329-1.01-.085Z" transform="translate(-279.381 -39.473)" fill="#263238"/>
        <path id="Path_106866" data-name="Path 106866" d="M387.224,465.506a7.143,7.143,0,0,1,.8-1.619,7.621,7.621,0,0,1,1.363-1.217,2.7,2.7,0,0,0-1.57,1.12,2.361,2.361,0,0,0-.6,1.716Z" transform="translate(-255.718 -39.545)" fill="#263238"/>
        <path id="Path_106867" data-name="Path 106867" d="M392.915,462.532a3.9,3.9,0,0,0,.694-.694c.329-.426.548-.791.5-.828s-.377.268-.706.694S392.854,462.5,392.915,462.532Z" transform="translate(-267.36 -39.906)" fill="#263238"/>
        <path id="Path_106868" data-name="Path 106868" d="M394.111,461.667a2.926,2.926,0,0,0,.755-.4c.377-.28.645-.535.6-.584s-.377.134-.755.4S394.062,461.619,394.111,461.667Z" transform="translate(-270.175 -39.978)" fill="#263238"/>
        <path id="Path_106869" data-name="Path 106869" d="M394.24,460.011a2.653,2.653,0,0,0,1.059.195,2.335,2.335,0,0,0,1.083,0,2.653,2.653,0,0,0-1.059-.195,2.338,2.338,0,0,0-1.083,0Z" transform="translate(-271.253 -40.136)" fill="#263238"/>
        <path id="Path_106870" data-name="Path 106870" d="M394.23,458.88a2.361,2.361,0,0,0,1.217.4,2.215,2.215,0,0,0,1.217-.073,9.054,9.054,0,0,0-1.217-.158A7.3,7.3,0,0,0,394.23,458.88Z" transform="translate(-271.523 -40.368)" fill="#263238"/>
        <path id="Path_106871" data-name="Path 106871" d="M389.983,461.2a4.1,4.1,0,0,0,1.327.085,7.3,7.3,0,0,0,1.424-.195,3.384,3.384,0,0,0,.828-.256.669.669,0,0,0,.353-.353.463.463,0,0,0-.17-.511,2.531,2.531,0,0,0-3.043.463,2.167,2.167,0,0,0-.487.791.839.839,0,0,0,0,.329,3.553,3.553,0,0,1,.682-1.01,2.434,2.434,0,0,1,1.217-.609,2.2,2.2,0,0,1,1.57.207c.207.158.11.389-.134.5a5.128,5.128,0,0,1-.767.243,12.437,12.437,0,0,1-1.387.243C390.494,461.2,389.983,461.159,389.983,461.2Z" transform="translate(-263.625 -40.2)" fill="#263238"/>
        <path id="Path_106872" data-name="Path 106872" d="M394.431,461.441a1.145,1.145,0,0,0,.207-.84,1.972,1.972,0,0,0-.3-.925,1.351,1.351,0,0,0-1.071-.706.487.487,0,0,0-.438.548,1.217,1.217,0,0,0,.195.56,3.788,3.788,0,0,0,.572.791,1.85,1.85,0,0,0,.73.548,8.129,8.129,0,0,1-.6-.657,3.648,3.648,0,0,1-.5-.779c-.17-.268-.268-.742.073-.779s.645.329.84.584a2.068,2.068,0,0,1,.317.828A4.682,4.682,0,0,1,394.431,461.441Z" transform="translate(-267.792 -40.348)" fill="#263238"/>
        <path id="Path_106873" data-name="Path 106873" d="M405.479,458.7a10,10,0,0,1,1.521.158,6.974,6.974,0,0,1,3.237,1.5,6.194,6.194,0,0,1,1.911,2.872c.256.84.256,1.388.3,1.388a1.388,1.388,0,0,0,0-.39,5.449,5.449,0,0,0-.158-1.047,5.988,5.988,0,0,0-1.911-2.994,6.657,6.657,0,0,0-3.383-1.5,6.551,6.551,0,0,0-1.132,0A1.683,1.683,0,0,0,405.479,458.7Z" transform="translate(-301.015 -40.415)" fill="#263238"/>
        <path id="Path_106874" data-name="Path 106874" d="M398.3,462.252a17.9,17.9,0,0,0,6.012.463c0-.061-1.351-.085-3.006-.207S398.312,462.191,398.3,462.252Z" transform="translate(-284.124 -39.638)" fill="#263238"/>
        <path id="Path_106875" data-name="Path 106875" d="M406.133,462c-.061,0,.085.28.207.572s.183.56.256.56.122-.292,0-.633A.813.813,0,0,0,406.133,462Z" transform="translate(-295.998 -39.69)" fill="#263238"/>
        <path id="Path_106876" data-name="Path 106876" d="M407.108,460.491a1.084,1.084,0,0,0,.268.463c.207.207.4.365.462.316s-.073-.243-.28-.462S407.157,460.455,407.108,460.491Z" transform="translate(-298.385 -40.019)" fill="#263238"/>
        <path id="Path_106877" data-name="Path 106877" d="M408.52,459.725c0,.061.28.085.584.195s.5.292.56.243-.1-.316-.475-.45S408.508,459.664,408.52,459.725Z" transform="translate(-301.927 -40.202)" fill="#263238"/>
        <path id="Path_106878" data-name="Path 106878" d="M410.227,459.32c0,.061.073.158.243.231s.329.1.353,0-.085-.17-.243-.243S410.252,459.259,410.227,459.32Z" transform="translate(-305.155 -40.285)" fill="#263238"/>
        <path id="Path_106879" data-name="Path 106879" d="M437.224,340.87c-.1,2.227-13.814,140.12-13.814,140.12l19.059,4.223,23.2-139.195Z" transform="translate(-376.039 -65.983)" fill="#a36957"/>
        <path id="Path_106880" data-name="Path 106880" d="M452.677,462.163l.426-2-20.252-4.527-1.5,6.6,1.217.353c5.5,1.546,28.053,7.473,32.009,7.3C469.01,469.648,452.677,462.163,452.677,462.163Z" transform="translate(-385.382 -41.071)" fill="#ff725e"/>
        <g id="Group_25109" data-name="Group 25109" transform="translate(46.057 415.689)" opacity="0.3">
          <path id="Path_13960" data-name="Path 13960" d="M460.5,463.57a6.681,6.681,0,0,0-1.692-4.576,7.412,7.412,0,0,0-4.418-2.434l-1.156,5.245Z" transform="translate(-453.239 -456.56)"/>
        </g>
        <g id="Group_25110" data-name="Group 25110" transform="translate(45.972 420.788)" opacity="0.3">
          <path id="Path_13961" data-name="Path 13961" d="M460.555,465.01s5.647,2.97,4.686,3.712-23.964-4.442-33.932-7.558l.134-.414,26.775,6.28S459.363,464.791,460.555,465.01Z" transform="translate(-431.31 -460.75)"/>
        </g>
        <path id="Path_106881" data-name="Path 106881" d="M431.33,460.68a1.326,1.326,0,0,0,.341.11l.974.292,3.651.974c3.067.791,7.3,1.85,12.049,2.921s9.018,1.959,12.171,2.556l3.651.682,1.01.17h.353l-.353-.1-1-.207-3.651-.755c-3.116-.645-7.4-1.558-12.171-2.617s-8.982-2.106-12.061-2.872l-3.651-.9-.986-.231a2.562,2.562,0,0,0-.328-.024Z" transform="translate(-385.541 -39.977)" fill="#263238"/>
        <path id="Path_106882" data-name="Path 106882" d="M435.09,466.585a7.423,7.423,0,0,1,1.035-1.473,8.674,8.674,0,0,1,1.546-1.022,2.811,2.811,0,0,0-1.728.864,2.349,2.349,0,0,0-.852,1.631Z" transform="translate(-362.258 -39.237)" fill="#263238"/>
        <path id="Path_106883" data-name="Path 106883" d="M440.431,462.966a3.936,3.936,0,0,0,.791-.572c.389-.365.669-.694.621-.742s-.4.207-.791.572S440.382,462.929,440.431,462.966Z" transform="translate(-372.93 -39.767)" fill="#263238"/>
        <path id="Path_106884" data-name="Path 106884" d="M441.56,461.909c0,.061.389-.073.8-.28s.718-.426.682-.487-.4.073-.8.28S441.524,461.849,441.56,461.909Z" transform="translate(-375.507 -39.88)" fill="#263238"/>
        <path id="Path_106885" data-name="Path 106885" d="M441.58,460.121a2.418,2.418,0,0,0,1.022.365,2.277,2.277,0,0,0,1.083.134,2.739,2.739,0,0,0-1.035-.353A2.557,2.557,0,0,0,441.58,460.121Z" transform="translate(-376.172 -40.1)" fill="#263238"/>
        <path id="Path_106886" data-name="Path 106886" d="M441.47,459a2.045,2.045,0,0,0,1.1.584,2.227,2.227,0,0,0,1.217.122,9.087,9.087,0,0,0-1.217-.341A8.271,8.271,0,0,0,441.47,459Z" transform="translate(-376.135 -40.342)" fill="#263238"/>
        <path id="Path_106887" data-name="Path 106887" d="M437.412,461.732a3.982,3.982,0,0,0,1.3.28,7.811,7.811,0,0,0,1.436,0,3.65,3.65,0,0,0,.852-.122.657.657,0,0,0,.4-.3.463.463,0,0,0-.085-.523,2.532,2.532,0,0,0-3.079,0,2.082,2.082,0,0,0-.6.706.718.718,0,0,0-.109.316,3.284,3.284,0,0,1,.815-.888,2.361,2.361,0,0,1,1.217-.426,2.215,2.215,0,0,1,1.521.45c.182.183,0,.389-.207.463a4.29,4.29,0,0,1-.791.134,11.269,11.269,0,0,1-1.412,0C437.911,461.805,437.425,461.7,437.412,461.732Z" transform="translate(-368.864 -40.007)" fill="#263238"/>
        <path id="Path_106888" data-name="Path 106888" d="M441.465,462.1a1.144,1.144,0,0,0,.341-.8,2.021,2.021,0,0,0-.158-.961,1.375,1.375,0,0,0-.937-.864.487.487,0,0,0-.523.475,1.314,1.314,0,0,0,.1.584,3.813,3.813,0,0,0,.45.864c.329.463.609.682.633.657s-.207-.268-.487-.73a4.683,4.683,0,0,1-.377-.852c-.122-.292-.146-.779.195-.755s.6.414.742.694a1.886,1.886,0,0,1,.183.876,3.286,3.286,0,0,1-.158.815Z" transform="translate(-372.601 -40.24)" fill="#263238"/>
        <path id="Path_106889" data-name="Path 106889" d="M453.153,456.543a9.108,9.108,0,0,1,1.473.389,6.973,6.973,0,0,1,2.982,1.972,6.243,6.243,0,0,1,1.436,3.128c.134.876,0,1.424.085,1.436a1.3,1.3,0,0,0,.085-.377,4.415,4.415,0,0,0,0-1.071,5.805,5.805,0,0,0-1.424-3.25,6.681,6.681,0,0,0-3.1-2,6.3,6.3,0,0,0-1.12-.231A1.217,1.217,0,0,0,453.153,456.543Z" transform="translate(-405.819 -40.879)" fill="#263238"/>
        <path id="Path_106890" data-name="Path 106890" d="M446,461.291a13.593,13.593,0,0,0,2.884.937,12.167,12.167,0,0,0,2.994.438c0-.061-1.327-.28-2.945-.669S446.024,461.23,446,461.291Z" transform="translate(-389.744 -39.846)" fill="#263238"/>
        <path id="Path_106891" data-name="Path 106891" d="M453.767,460.551c-.061,0,0,.28.122.6s.085.572.158.584.17-.268.085-.633S453.852,460.514,453.767,460.551Z" transform="translate(-401.454 -40.006)" fill="#263238"/>
        <path id="Path_106892" data-name="Path 106892" d="M454.491,458.861a.875.875,0,0,0,.195.5c.195.243.341.414.4.377s0-.256-.195-.5S454.577,458.824,454.491,458.861Z" transform="translate(-403.311 -40.373)" fill="#263238"/>
        <path id="Path_106893" data-name="Path 106893" d="M455.7,457.819c0,.073.268.134.548.292s.45.365.511.329,0-.329-.389-.523S455.7,457.758,455.7,457.819Z" transform="translate(-406.458 -40.609)" fill="#263238"/>
        <path id="Path_106896" data-name="Path 106896" d="M379.37,175.22l.438.195c2.434,1.1,14.154,7.229,20.2,26.082l6.779,21.092-21.591-.462" transform="translate(-263.564 -101.938)" fill="#ff725e"/>
        <path id="Path_106897" data-name="Path 106897" d="M477.2,207.908a40.165,40.165,0,0,1,1.108,9.347,22.26,22.26,0,0,1-6.28,13.509l-.085.1-6.706,36.013-55.06-7.631,5.927-11.72-3.578-28.674-4.71,6.28L387.72,210.111,393.4,198.72c2.337-4.868,5.623-10.661,9.091-14.349a32.277,32.277,0,0,1,18.633-9.505c5.063-.791,11.524-1.018,11.524-1.018s10.346,12.1,18.4,8.6,6.432-7.584,6.432-7.584l3.607.836L477.2,207.957" transform="translate(-345.241 -102.253)" fill="#ff725e"/>
        <path id="Path_106898" data-name="Path 106898" d="M388.047,229.648a5.282,5.282,0,0,0,1.059-.937,23.936,23.936,0,0,0,2.434-2.945,27.566,27.566,0,0,0,3.651-24.207,23.345,23.345,0,0,0-1.436-3.542,4.869,4.869,0,0,0-.73-1.217c-.11,0,.84,1.813,1.692,4.868a28.99,28.99,0,0,1-3.651,23.793A34.326,34.326,0,0,1,388.047,229.648Z" transform="translate(-263.843 -97.254)" fill="#263238"/>
        <path id="Path_106899" data-name="Path 106899" d="M411.34,225a3.093,3.093,0,0,0,.986.3,16.508,16.508,0,0,0,2.811.329,19.363,19.363,0,0,0,16.223-7.935,16.683,16.683,0,0,0,1.473-2.434,3.214,3.214,0,0,0,.365-.974c-.11-.061-.767,1.217-2.227,3.079a20.617,20.617,0,0,1-15.822,7.74C412.8,225.171,411.352,224.891,411.34,225Z" transform="translate(-328.881 -93.458)" fill="#263238"/>
        <path id="Path_106900" data-name="Path 106900" d="M431.293,176.213c0,.073.657.11,1.789.462a11.087,11.087,0,0,1,4.223,2.58,13.85,13.85,0,0,1,3.712,6.292,18.62,18.62,0,0,1,0,8.97,36.816,36.816,0,0,1-3.274,8.519c-1.217,2.507-2.568,4.722-3.651,6.609a47,47,0,0,0-2.3,4.552,7.719,7.719,0,0,0-.669,1.753,13.549,13.549,0,0,0,.913-1.631c.56-1.059,1.4-2.58,2.434-4.43s2.434-4.028,3.761-6.56a36.416,36.416,0,0,0,3.371-8.665,18.938,18.938,0,0,0,0-9.31,14.1,14.1,0,0,0-3.992-6.475,10.527,10.527,0,0,0-4.491-2.434,7.158,7.158,0,0,0-1.375-.219C431.451,176.189,431.293,176.189,431.293,176.213Z" transform="translate(-361.942 -101.726)" fill="#263238"/>
        <path id="Path_106901" data-name="Path 106901" d="M378.69,434.134s8.325,16.2,30.074,8.337c0,0,21.286,11.562,41.648-1.387,0,0,26.362,3.529,40.7-3.408L472.671,278.594l-5.331-32.861-51.116-5.964S402.97,249.8,394.4,297.5c-6.816,37.9-11.112,94.079-11.112,94.079Z" transform="translate(-347.055 -87.927)" fill="#ff725e"/>
        <path id="Path_106902" data-name="Path 106902" d="M398.33,236.11a1.644,1.644,0,0,0,.134.535,9.11,9.11,0,0,0,.6,1.5,15.567,15.567,0,0,0,3.554,4.734,26.581,26.581,0,0,0,7.448,4.637,53.15,53.15,0,0,0,10.26,3.1,71.454,71.454,0,0,0,19.388,1.375c2.495-.17,4.491-.462,5.866-.682l1.57-.292a1.947,1.947,0,0,0,.548-.158,15.959,15.959,0,0,0-2.154.207c-1.375.134-3.371.365-5.854.475A77.127,77.127,0,0,1,420.456,250a56.885,56.885,0,0,1-10.175-3.018,27.407,27.407,0,0,1-7.375-4.442,16.456,16.456,0,0,1-3.651-4.5,11.879,11.879,0,0,1-.694-1.424,1.886,1.886,0,0,0-.231-.5Z" transform="translate(-327.543 -88.722)" fill="#263238"/>
        <path id="Path_106903" data-name="Path 106903" d="M390.6,249.75a.693.693,0,0,0-.158.243c-.122.207-.256.45-.414.755a11.466,11.466,0,0,0-.9,3.164,18.256,18.256,0,0,0,3.03,11.538,40.409,40.409,0,0,0,5.319,6.426,93.209,93.209,0,0,1,6.462,6.974,31.57,31.57,0,0,1,4.953,9.14c1.217,3.42,2.142,7.083,3.091,10.844a76.605,76.605,0,0,0,3.359,10.844,36.511,36.511,0,0,0,5.477,9.067,37.836,37.836,0,0,0,6.962,6.584,39.7,39.7,0,0,0,7.3,4.126,34.321,34.321,0,0,0,11.72,2.714h1.886l1.388-.085.852-.061a1.122,1.122,0,0,0,.292,0h-2.531c-.535,0-1.217-.073-1.874-.11a35.405,35.405,0,0,1-11.562-2.86,41.077,41.077,0,0,1-7.12-4.138,38.165,38.165,0,0,1-6.828-6.536,36.3,36.3,0,0,1-5.343-8.933,79.3,79.3,0,0,1-3.335-10.759,107.362,107.362,0,0,0-3.116-10.953,32.288,32.288,0,0,0-5.075-9.3,94.336,94.336,0,0,0-6.548-6.974,39.346,39.346,0,0,1-5.306-6.3,18.085,18.085,0,0,1-3.164-11.27,12.925,12.925,0,0,1,1.181-4.138Z" transform="translate(-319.796 -85.761)" fill="#fafafa"/>
        <path id="Path_106904" data-name="Path 106904" d="M418.11,387.439a11.162,11.162,0,0,1,2.154-1.935,11.745,11.745,0,0,1,7.607-1.546,21.981,21.981,0,0,1,5.282,1.424c1.838.718,3.749,1.655,5.793,2.58a29.782,29.782,0,0,0,6.706,2.276,15.02,15.02,0,0,0,3.785.243,12.621,12.621,0,0,0,3.8-.9,17.137,17.137,0,0,0,6.085-4.625,46.8,46.8,0,0,0,4.162-5.708c1.217-1.9,2.288-3.724,3.469-5.306A28.759,28.759,0,0,1,470.6,369.8a14.082,14.082,0,0,1,6.828-3.809,20.232,20.232,0,0,1,2.909-.231,3.118,3.118,0,0,0-.755-.11,5.606,5.606,0,0,0-.937,0,7.233,7.233,0,0,0-1.217.122,13.948,13.948,0,0,0-7.083,3.724,29.326,29.326,0,0,0-3.736,4.15c-1.217,1.594-2.325,3.432-3.542,5.306a45.336,45.336,0,0,1-4.126,5.611,16.624,16.624,0,0,1-5.854,4.454,12.072,12.072,0,0,1-3.651.864,15,15,0,0,1-3.651-.231,29.9,29.9,0,0,1-6.584-2.2c-2.033-.9-3.968-1.826-5.842-2.531a21.223,21.223,0,0,0-5.416-1.375,11.721,11.721,0,0,0-7.789,1.777,7.913,7.913,0,0,0-1.631,1.448,2.994,2.994,0,0,0-.414.669Z" transform="translate(-384.26 -60.607)" fill="#fafafa"/>
        <path id="Path_106905" data-name="Path 106905" d="M433.34,327.265a6.509,6.509,0,0,0,1.217.852,13.709,13.709,0,0,0,1.546.876,20.787,20.787,0,0,0,2.118.986,21.639,21.639,0,0,0,2.665.974,31.852,31.852,0,0,0,3.152.84,37.25,37.25,0,0,0,7.424.706,36.342,36.342,0,0,0,7.412-.949,30.543,30.543,0,0,0,3.116-.937,23.845,23.845,0,0,0,2.641-1.059c.8-.329,1.473-.742,2.081-1.059a13.488,13.488,0,0,0,1.509-.925,6.428,6.428,0,0,0,1.217-.888c-.061-.11-1.826,1.12-4.978,2.434a27.724,27.724,0,0,1-2.617.974c-.949.341-2,.584-3.091.864a38.181,38.181,0,0,1-7.3.888,39.189,39.189,0,0,1-7.3-.645c-1.1-.256-2.154-.45-3.116-.767a26.018,26.018,0,0,1-2.653-.888C435.166,328.288,433.34,327.156,433.34,327.265Z" transform="translate(-391.896 -69.064)" fill="#fafafa"/>
        <path id="Path_106906" data-name="Path 106906" d="M442.18,279.843a6.669,6.669,0,0,0,2.154,2.118,12.317,12.317,0,0,0,6.949,2.191,12.17,12.17,0,0,0,6.937-2.2,6.669,6.669,0,0,0,2.154-2.118c-.073-.073-.852.791-2.434,1.74a12.536,12.536,0,0,1-13.388,0C443.032,280.622,442.253,279.758,442.18,279.843Z" transform="translate(-393.592 -79.233)" fill="#fafafa"/>
        <path id="Path_106907" data-name="Path 106907" d="M389.786,239.77s-.1.195-.243.572l-.657,1.68c-.56,1.509-1.387,3.651-2.434,6.487s-2.337,6.28-3.834,10.272-3.335,8.592-3.858,14.021a19.132,19.132,0,0,0,1.071,8.41,54.771,54.771,0,0,0,4.235,8.154,23.123,23.123,0,0,1,3.457,8.982,25.655,25.655,0,0,1-1.12,10.15c-.937,3.42-2.215,6.84-3.116,10.491a27.749,27.749,0,0,0-.852,5.623,19.408,19.408,0,0,0,.073,2.909,8.611,8.611,0,0,0,.256,1.448,7.3,7.3,0,0,0,.353,1.436,18.622,18.622,0,0,0,2.6,5.319,39.354,39.354,0,0,0,3.773,4.649c2.69,2.97,5.672,5.757,7.923,9.152a19.179,19.179,0,0,1,2.531,5.428,20.081,20.081,0,0,1,.535,5.9c-.158,3.968-.986,7.862-.888,11.793a22.662,22.662,0,0,0,11.051,18.67c3.128,1.85,6.572,2.653,9.651,3.943a12.816,12.816,0,0,1,7.229,5.988c1.387,2.8,1.753,5.878,2.434,8.751a32.593,32.593,0,0,0,2.884,7.972,34.71,34.71,0,0,0,18.937,16.394,35.2,35.2,0,0,0,3.858,1.12c1.144.195,2.106.377,2.9.463l1.8.134h.609l-.609-.085-1.789-.195c-.779-.11-1.74-.316-2.872-.523a38.94,38.94,0,0,1-3.809-1.217,34.393,34.393,0,0,1-9.469-5.331,33.992,33.992,0,0,1-9.152-11.039,32.249,32.249,0,0,1-2.811-7.874c-.621-2.836-.961-5.951-2.434-8.872a11.222,11.222,0,0,0-3.091-3.809,18.088,18.088,0,0,0-4.394-2.434c-3.128-1.327-6.548-2.13-9.578-3.931A22.09,22.09,0,0,1,400.2,372.587c-.1-3.834.73-7.716.9-11.757a20.69,20.69,0,0,0-.56-6.085,19.473,19.473,0,0,0-2.617-5.623,81.375,81.375,0,0,0-7.984-9.225,37.734,37.734,0,0,1-3.712-4.576,17.639,17.639,0,0,1-2.531-5.148,6.89,6.89,0,0,1-.341-1.375,13.45,13.45,0,0,1-.243-1.4,19.727,19.727,0,0,1-.085-2.811,27.066,27.066,0,0,1,.84-5.428c.876-3.651,2.142-7.022,3.079-10.467a25.959,25.959,0,0,0,1.12-10.382,23.8,23.8,0,0,0-3.566-9.177,56.439,56.439,0,0,1-4.235-8.057,18.693,18.693,0,0,1-1.071-8.2c.475-5.343,2.325-9.919,3.749-13.935l3.724-10.369c1.01-2.824,1.8-5.014,2.337-6.536l.6-1.7A4.979,4.979,0,0,0,389.786,239.77Z" transform="translate(-316.869 -87.927)" fill="#263238"/>
        <g id="Group_25111" data-name="Group 25111" transform="translate(49.494 205.004)" opacity="0.2">
          <path id="Path_13990" data-name="Path 13990" d="M472.784,426.515c-6.085,1.728-12.171,3.469-18.511,3.274s-12.828-2.641-16.443-7.777c-3.761-5.331-4.028-12.9-8.9-17.246-3.432-3.055-8.3-3.712-12.682-5.087a37.327,37.327,0,0,1-25.327-30.8c-1.217-11.623,2.994-23.952-1.339-34.808-2.325-5.793-6.925-10.613-8.312-16.7-2.239-9.919,4.613-19.376,11.063-27.238,1.655-2.02,8.386-6.682,8.386-6.682s2.227,7.375,2.033,10.54c-.523,8.592-7.059,16.954-5.258,25.364,2.02,9.444,13.388,15.481,16.418,24.658,3.2,9.8-2.775,21.724,5.866,32.921,4.333,5.623,16.7,7.3,21.226,12.73,2.957,3.542,3.469,10.807,4.868,15.189,4.454,13.534,11.939,18.134,25.8,21.445" transform="translate(-380.84 -283.45)"/>
        </g>
        <path id="Path_106908" data-name="Path 106908" d="M391.11,204.92a2.641,2.641,0,0,0,.17.682c.085.243.17.511.256.815l.462,1.071a18.255,18.255,0,0,0,4.454,5.951,19.473,19.473,0,0,0,9.907,4.747,18.049,18.049,0,0,0,6.548-.17,34.471,34.471,0,0,0,6.657-2.215c4.394-1.935,8.4-4.1,12.378-5.112a19.132,19.132,0,0,1,5.732-.694,12.61,12.61,0,0,1,4.868,1.156,10.771,10.771,0,0,1,5.246,4.868,14.669,14.669,0,0,1,.828,2.568,6.354,6.354,0,0,0-.6-2.665,10.832,10.832,0,0,0-5.355-5.185,13.107,13.107,0,0,0-5.014-1.217,19.692,19.692,0,0,0-5.9.645c-4.077,1.01-8.142,3.189-12.475,5.1a34.4,34.4,0,0,1-6.536,2.191,18.049,18.049,0,0,1-6.341.207,19.242,19.242,0,0,1-9.736-4.515,18.693,18.693,0,0,1-4.527-5.708c-.195-.39-.365-.73-.511-1.047l-.316-.791a2.726,2.726,0,0,0-.195-.682Z" transform="translate(-319.677 -95.492)" fill="#fafafa"/>
        <path id="Path_106909" data-name="Path 106909" d="M396.188,236.023a18.438,18.438,0,0,1,1.862-1.047,9.65,9.65,0,0,1,2.373-.718,12.67,12.67,0,0,1,3.286-.061,20.69,20.69,0,0,1,8.093,2.763c2.848,1.582,5.781,3.724,9.274,5.331a18.256,18.256,0,0,0,10.6,1.436,31.217,31.217,0,0,0,8.349-2.641c2.276-1.035,4.029-2.02,5.233-2.714.609-.341,1.071-.621,1.375-.815a1.9,1.9,0,0,0,.462-.329,16.165,16.165,0,0,0-1.959.925c-1.217.621-3.018,1.546-5.294,2.519a32.447,32.447,0,0,1-8.252,2.434,17.867,17.867,0,0,1-10.26-1.448c-3.408-1.558-6.353-3.651-9.25-5.258a20.568,20.568,0,0,0-8.337-2.7,12.549,12.549,0,0,0-3.383.17,9.31,9.31,0,0,0-2.434.84,7.423,7.423,0,0,0-1.351.876C396.261,235.877,396.115,236.011,396.188,236.023Z" transform="translate(-324.318 -89.255)" fill="#fafafa"/>
        <path id="Path_106910" data-name="Path 106910" d="M433.355,182.77a4.443,4.443,0,0,0-.085,1.217,15.825,15.825,0,0,0,.426,3.371,17.757,17.757,0,0,0,15.98,13.777,15.288,15.288,0,0,0,3.4-.085,4.089,4.089,0,0,0,1.217-.268,37.258,37.258,0,0,1-4.564-.1A18.122,18.122,0,0,1,434.134,187.3a40.271,40.271,0,0,1-.779-4.527Z" transform="translate(-376.649 -100.3)" fill="#fafafa"/>
        <path id="Path_106911" data-name="Path 106911" d="M387.338,188.63a2.329,2.329,0,0,0,.207.45,10.649,10.649,0,0,0,.742,1.217,16.553,16.553,0,0,0,3.651,3.773,19.12,19.12,0,0,0,7,3.335,19.738,19.738,0,0,0,4.576.511,17.259,17.259,0,0,0,4.868-.791,53,53,0,0,0,8.519-4.1,23.782,23.782,0,0,1,7.108-2.641,11.733,11.733,0,0,1,5.075.17c1.217.329,1.753.682,1.777.633s-.122-.122-.4-.28a6.5,6.5,0,0,0-1.3-.584,11.087,11.087,0,0,0-5.209-.377,22.589,22.589,0,0,0-7.3,2.568,58.032,58.032,0,0,1-8.519,4.016,17.513,17.513,0,0,1-9.14.3,19.29,19.29,0,0,1-6.864-3.128A22.551,22.551,0,0,1,387.338,188.63Z" transform="translate(-297.333 -99.028)" fill="#fafafa"/>
        <path id="Path_106912" data-name="Path 106912" d="M428.176,241.56a4.465,4.465,0,0,0,1.107-.414,30.582,30.582,0,0,0,2.848-1.509,33.308,33.308,0,0,0,3.931-2.726c.706-.572,1.412-1.217,2.142-1.874a1.947,1.947,0,0,0,.645-1.582,1.643,1.643,0,0,0-1.217-1.217,3.444,3.444,0,0,0-1.643-.1,9.6,9.6,0,0,0-1.5.316,10.785,10.785,0,0,0-2.6,1.217,10.649,10.649,0,0,0-3.25,3.578,8.639,8.639,0,0,0-1.035,3.079,2.775,2.775,0,0,0,0,1.217,12.874,12.874,0,0,1,1.448-4.041,10.71,10.71,0,0,1,3.152-3.335,10.53,10.53,0,0,1,2.434-1.217,5.343,5.343,0,0,1,2.787-.219c.438.134.779.4.815.755a1.314,1.314,0,0,1-.462,1.059c-.657.657-1.387,1.278-2.057,1.85a43.718,43.718,0,0,1-3.8,2.8C429.636,240.733,428.127,241.463,428.176,241.56Z" transform="translate(-354.249 -89.596)" fill="#263238"/>
        <path id="Path_106913" data-name="Path 106913" d="M439.177,243.433a4.03,4.03,0,0,0,.341-1.132,26.692,26.692,0,0,0,.548-3.177,34.011,34.011,0,0,0,.195-4.8,25.706,25.706,0,0,0-.183-2.824,5.511,5.511,0,0,0-.365-1.533,2.434,2.434,0,0,0-1.217-1.217,1.68,1.68,0,0,0-1.777.122,2.434,2.434,0,0,0-.815,1.46,13.857,13.857,0,0,0-.158,2.884,15.456,15.456,0,0,0,.986,4.722,14.154,14.154,0,0,0,1.485,2.872,3.529,3.529,0,0,0,.755.925,30.07,30.07,0,0,1-1.813-3.955,16.27,16.27,0,0,1-.828-4.588,13.875,13.875,0,0,1,.183-2.726,1.886,1.886,0,0,1,.584-1.1,1.059,1.059,0,0,1,1.12,0,2.629,2.629,0,0,1,1.217,2.288c.109.961.182,1.886.231,2.775a41.816,41.816,0,0,1-.073,4.722C439.408,241.766,439.067,243.409,439.177,243.433Z" transform="translate(-365.639 -90.361)" fill="#263238"/>
        <g id="Group_25112" data-name="Group 25112" transform="translate(84.431 120.808)" opacity="0.2">
          <path id="Path_13997" data-name="Path 13997" d="M430.788,214.27a34.831,34.831,0,0,1-.6,10.187,11.684,11.684,0,0,1-6,7.874,8.629,8.629,0,0,1-12.061-6.4,19.156,19.156,0,0,0,18.925-8.86" transform="translate(-412.13 -214.27)"/>
        </g>
      </g>
    </g>
  </g>
</svg>
