<svg id="Component_Character_Male_B" data-name="Component/Character/Male/B" xmlns="http://www.w3.org/2000/svg" xmlns:xlink="http://www.w3.org/1999/xlink" width="180" height="180" viewBox="0 0 180 180">
  <defs>
    <clipPath id="clip-path">
      <rect id="Rectangle_9975" data-name="Rectangle 9975" width="180" height="180" transform="translate(18150 -19022)" fill="#fff" stroke="#707070" stroke-width="1"/>
    </clipPath>
  </defs>
  <g id="Component_Character_Male_B-2" data-name="Component/Character/Male/B" transform="translate(-18150 19022)" clip-path="url(#clip-path)">
    <g id="Group_25208" data-name="Group 25208" transform="translate(18198.545 -19007.988)">
      <path id="Path_107375" data-name="Path 107375" d="M268.258,80.278l4.234,49.094,24.591-1.961c.15-2.872,0-13.975,0-13.975s10.228-1.6,10.353-11.827c.062-5-.649-15.236-1.4-24.491a18.921,18.921,0,0,0-19.982-17.372h0a18.921,18.921,0,0,0-17.8,20.532Z" transform="translate(-261.018 -52.573)" fill="#aa6550"/>
      <path id="Path_107376" data-name="Path 107376" d="M289.828,103.357A23.729,23.729,0,0,1,276.49,99.61s3.147,7.368,13.363,6.444Z" transform="translate(-253.801 -42.643)" fill="#724940"/>
      <path id="Path_107377" data-name="Path 107377" d="M275.442,79.652a1.486,1.486,0,0,1-1.411,1.486,1.424,1.424,0,0,1-1.511-1.324,1.461,1.461,0,0,1,1.411-1.474,1.4,1.4,0,0,1,1.511,1.311Z" transform="translate(-234.432 -47.938)" fill="#263238"/>
      <path id="Path_107378" data-name="Path 107378" d="M276.881,78.087c-.175.2-1.249-.624-2.86-.624s-2.723.8-2.9.6.1-.425.612-.787a3.959,3.959,0,0,1,4.583,0C276.806,77.663,277.006,78,276.881,78.087Z" transform="translate(-234.097 -48.384)" fill="#263238"/>
      <path id="Path_107379" data-name="Path 107379" d="M287.52,79.665a1.474,1.474,0,0,1-1.411,1.474,1.4,1.4,0,0,1-1.5-1.324,1.449,1.449,0,0,1,1.4-1.474,1.4,1.4,0,0,1,1.511,1.324Z" transform="translate(-261.609 -47.938)" fill="#263238"/>
      <path id="Path_107380" data-name="Path 107380" d="M289.262,78.306c-.187.187-1.249-.637-2.86-.624s-2.723.787-2.9.6.1-.437.6-.8a4.071,4.071,0,0,1,2.323-.712,3.747,3.747,0,0,1,2.273.737C289.187,77.894,289.35,78.306,289.262,78.306Z" transform="translate(-261.927 -48.328)" fill="#263238"/>
      <path id="Path_107381" data-name="Path 107381" d="M276.617,89.971a10.865,10.865,0,0,1,2.5-.462c.4,0,.787-.112.849-.387a2.035,2.035,0,0,0-.262-1.249c-.387-.974-.774-2-1.249-3.06a52.581,52.581,0,0,1-2.66-7.993,51.851,51.851,0,0,1,3.31,7.756c.387,1.074.774,2.1,1.136,3.072a2.3,2.3,0,0,1,.2,1.574.962.962,0,0,1-.662.587,2.324,2.324,0,0,1-.674.1A9.991,9.991,0,0,1,276.617,89.971Z" transform="translate(-243.575 -48.315)" fill="#263238"/>
      <path id="Path_107382" data-name="Path 107382" d="M278.849,88.22c.262,0,.262,1.7,1.723,2.91s3.272,1.024,3.285,1.249-.4.325-1.174.35a4.234,4.234,0,0,1-2.748-.962,3.634,3.634,0,0,1-1.324-2.423C278.55,88.632,278.737,88.22,278.849,88.22Z" transform="translate(-250.441 -45.478)" fill="#263238"/>
      <path id="Path_107383" data-name="Path 107383" d="M290.356,73.314c-.15.437-1.723.225-3.572.45s-3.335.724-3.572.35.15-.587.749-1a6.032,6.032,0,0,1,2.648-.937,6.244,6.244,0,0,1,2.8.325C290.082,72.777,290.431,73.114,290.356,73.314Z" transform="translate(-262.622 -49.48)" fill="#263238"/>
      <path id="Path_107384" data-name="Path 107384" d="M276.936,74.459c-.275.362-1.361,0-2.66,0s-2.41.237-2.66-.137.062-.537.537-.874a3.884,3.884,0,0,1,4.3.125C276.9,73.922,277.061,74.284,276.936,74.459Z" transform="translate(-234.727 -49.301)" fill="#263238"/>
      <path id="Path_107385" data-name="Path 107385" d="M263.034,68.6a3.872,3.872,0,0,1,3.21-4.071A4.721,4.721,0,0,1,273,58.585,6.132,6.132,0,0,1,283.8,56.4a6.494,6.494,0,0,1,10.978,1.736,7.131,7.131,0,0,1,10.541,1.5,9.592,9.592,0,0,1,3.5-.562,4.246,4.246,0,0,1,3.684,2.335,2.785,2.785,0,0,1-1.049,3.3A3.4,3.4,0,1,1,312.99,71.3a1.948,1.948,0,0,1,1.062,1.786,3.647,3.647,0,0,1-2.4,2.648,13.138,13.138,0,0,1-9.329-.15c-3.022-1.012-5.82-2.6-8.817-3.747s-8.005-3.06-11.015-2a5.518,5.518,0,0,0-1.249.637,8.105,8.105,0,0,0-2.972,5.2,1.087,1.087,0,0,0,0,.2c-.4,2.922-.337,5.882-.762,8.742a13.238,13.238,0,0,1-3.584,7.881c-.887.824-2.5,1.4-3.185.425a2.336,2.336,0,0,1-.362-1.336c-.4-5.083-1.5-9.754-2.086-14.724a14.725,14.725,0,0,0-2.772-3.372A7.93,7.93,0,0,1,263.034,68.6Z" transform="translate(-263.025 -53.996)" fill="#263238"/>
      <path id="Path_107386" data-name="Path 107386" d="M295.447,62.785a2.385,2.385,0,0,0,.137-1.361,5.2,5.2,0,0,0-1.636-3.36A5.333,5.333,0,0,0,288.579,57a4.146,4.146,0,0,0-2.5,2.26,2.872,2.872,0,0,0-.075,1.886,2.223,2.223,0,0,0,1.324,1.474,2.123,2.123,0,0,0,1.986-.225,1.973,1.973,0,0,0,.724-1.811,2.5,2.5,0,0,0-.824-1.624,3.871,3.871,0,0,0-1.5-.824,6.244,6.244,0,0,0-5.445.887,3.746,3.746,0,0,0-1.324,1.748,3.035,3.035,0,0,0-.087,1.649c.237.9.749,1.174.749,1.149a3.447,3.447,0,0,1-.5-1.249,2.872,2.872,0,0,1,.175-1.474,3.522,3.522,0,0,1,1.249-1.5,5.9,5.9,0,0,1,5-.7A2.5,2.5,0,0,1,289.4,60.6a1.336,1.336,0,0,1-.487,1.249,1.449,1.449,0,0,1-1.361.137,1.923,1.923,0,0,1-.9-2.5,3.622,3.622,0,0,1,2.136-1.936,5,5,0,0,1,4.871.837,5.283,5.283,0,0,1,1.7,3.06C295.472,62.3,295.36,62.785,295.447,62.785Z" transform="translate(-264.94 -53.325)" fill="#455a64"/>
      <path id="Path_107387" data-name="Path 107387" d="M301.311,56.384a2.66,2.66,0,0,0-.924-.175,10.316,10.316,0,0,0-2.573.075,5.97,5.97,0,0,0-3.447,1.748,3.834,3.834,0,0,0-.537,4.633,3.007,3.007,0,0,0,.549.637l.337-.55a2.685,2.685,0,0,0-2.435.325,3,3,0,0,0-1.311,1.836,4.421,4.421,0,0,0,.8,3.547,6.718,6.718,0,0,0,1.748,1.636c.475.312.749.437.774.4s-.212-.225-.624-.587a8.233,8.233,0,0,1-1.536-1.7,4.071,4.071,0,0,1-.587-3.147,2.41,2.41,0,0,1,1.074-1.461,2.1,2.1,0,0,1,1.861-.25l1.673.674L294.8,62.779a2.5,2.5,0,0,1-.437-.5,3.06,3.06,0,0,1-.412-2.061,3.41,3.41,0,0,1,.862-1.811,5.758,5.758,0,0,1,3.085-1.7C299.912,56.334,301.311,56.522,301.311,56.384Z" transform="translate(-283.23 -53.457)" fill="#455a64"/>
      <path id="Path_107388" data-name="Path 107388" d="M299.972,65c-.075,0-.262.35-.262.974a3.484,3.484,0,0,0,3.06,3.409c.624,0,1-.075.987-.162a6.244,6.244,0,0,1-2.673-1.4A6.145,6.145,0,0,1,299.972,65Z" transform="translate(-296.703 -51.257)" fill="#455a64"/>
      <path id="Path_107389" data-name="Path 107389" d="M283.336,61.064a2.822,2.822,0,0,0-.962-.787,6.682,6.682,0,0,0-7.893,1.049,3.9,3.9,0,0,0-1.249,2.822,2.373,2.373,0,0,0,2.448,2.236,1.8,1.8,0,0,0,1.461-1.112,2.5,2.5,0,0,0,.112-1.711,3.272,3.272,0,0,0-2.211-2.173,4.171,4.171,0,0,0-2.76,0,5.957,5.957,0,0,0-2.023,1.249,10.1,10.1,0,0,0-2.023,2.7,3.959,3.959,0,0,0-.487,1.124,6.666,6.666,0,0,0,.712-1,11.054,11.054,0,0,1,2.1-2.5,4.5,4.5,0,0,1,4.284-1.062,2.735,2.735,0,0,1,1.8,1.748c.237.824-.15,1.948-1.024,2.011a1.748,1.748,0,0,1-1.711-1.624,3.322,3.322,0,0,1,1.012-2.36,6.244,6.244,0,0,1,4.209-1.836,6.831,6.831,0,0,1,3.135.6,10.508,10.508,0,0,0,1.074.624Z" transform="translate(-236.369 -52.641)" fill="#455a64"/>
      <path id="Path_107390" data-name="Path 107390" d="M303.292,79.944c-.175-.075-7.031-2.073-6.806,4.921s7.194,5.32,7.206,5.12S303.292,79.944,303.292,79.944Z" transform="translate(-292.605 -47.618)" fill="#aa6550"/>
      <path id="Path_107391" data-name="Path 107391" d="M301.46,86.965a2.822,2.822,0,0,1-.325.187,1.249,1.249,0,0,1-.912,0,3.022,3.022,0,0,1-1.474-2.66,4.221,4.221,0,0,1,.275-1.761,1.436,1.436,0,0,1,.887-.962.612.612,0,0,1,.737.312c.1.187.062.325.1.337s.137-.112.075-.4a.812.812,0,0,0-.287-.437.937.937,0,0,0-.674-.15,1.723,1.723,0,0,0-1.249,1.124,4.172,4.172,0,0,0-.35,1.961,3.147,3.147,0,0,0,1.873,2.96,1.324,1.324,0,0,0,1.1-.212C301.448,87.14,301.486,86.977,301.46,86.965Z" transform="translate(-292.597 -47.17)" fill="#724940"/>
    </g>
    <g id="character-1--inject-833" transform="translate(17991.6 -19128.984)">
      <path id="Path_107604" data-name="Path 107604" d="M257.46,220.774l8.463,15.249,5.165-41.468a16.612,16.612,0,0,0-1.717-8.708,17.271,17.271,0,0,0-2.1-3.38,18.328,18.328,0,0,0-3.611-3.393,1.513,1.513,0,0,1,.273-2.848c1.363-.15,5.042,1.826,7.945,5.805s3.2-3.679,3.366-6.459,1.063-11.338,1.949-11.951c1.363-.886,2.535.382,2.317,3.162s-.327,11.134,1.145,11.188,2.071-14.118,2.071-14.118-.354-3.066,1.363-3.053c3.053,0,1.281,14.99,1.077,16.353-.136.981,1.458,1.1,1.554,0s.3-14.145,3.407-14.173c2.4,0-1.363,12.346.109,15.113s1.881-9.689,4.17-9.607c.845,0,1.485.164.218,7.25-.681,3.816-3.2,9.308-3.966,16.748l-.2,1.921c-.15,9.267-2.194,37.189-10.616,58.448a17.225,17.225,0,0,1-30.307,3.066C244.35,248.111,236.16,227.7,236.16,227.7Z" transform="translate(32.821 15.112)" fill="#aa6550"/>
      <path id="Path_107605" data-name="Path 107605" d="M275.709,182.219a7.708,7.708,0,0,0-1.213.313,4.4,4.4,0,0,0-2.358,1.949l-.286.518-.164-.572a7.194,7.194,0,0,0-1.131-2.262,8.272,8.272,0,0,0-3.911-2.889c-1.2-.422-2.017-.4-2.017-.5a3.993,3.993,0,0,1,2.126.15,7.767,7.767,0,0,1,4.238,2.916,7.046,7.046,0,0,1,1.172,2.439h-.45a4.279,4.279,0,0,1,2.725-1.99,2.058,2.058,0,0,1,1.267-.068Z" transform="translate(43.148 21.603)" fill="#724940"/>
      <path id="Path_107606" data-name="Path 107606" d="M241.881,182.6l24.052,45.516,4.088-40.242h21.545l-7.918,57.358A16.83,16.83,0,0,1,272.3,259.186h0c-7.822,2.63-18.22-.436-22.076-7.727L236.13,227.475Z" transform="translate(32.81 23.02)" fill="#ff725e"/>
      <path id="Path_107607" data-name="Path 107607" d="M260.068,235.069a8.489,8.489,0,0,1-1.608-2.562,21.218,21.218,0,0,1-1.363-14.336,8.939,8.939,0,0,1,1.118-2.821,26.532,26.532,0,0,0,1.826,19.719Z" transform="translate(40.174 34.9)" fill="#263238"/>
      <g id="Group_25193" data-name="Group 25193" transform="translate(293.458 249.61)" opacity="0.3">
        <path id="Path_107608" data-name="Path 107608" d="M258.725,214.88a10.18,10.18,0,0,0-4.2,6.514,24.2,24.2,0,0,0-.15,7.931,4.674,4.674,0,0,0,.6,2.18,1.676,1.676,0,0,0,1.962.736,1.745,1.745,0,0,0,.872-1.608,6.389,6.389,0,0,0-.422-1.867,15.89,15.89,0,0,1,1.976-13.409" transform="translate(-254.122 -214.88)"/>
      </g>
      <path id="Path_107609" data-name="Path 107609" d="M200.426,175.357c3.6-.681,7.086-1.99,11.311-2.167h0a45.27,45.27,0,0,0,27.255,0c1.118.15,2.726.286,4.592.518,11.87,1.363,16.421,3.911,24.952,12.265l-.94,48.037s2.862,54.673,2.725,63.5h-81.11l-.123-37.039V250.389l-26.628,9.757,2.426-14.009s11.938-46.5,13.818-52.765C180.912,185.768,189.088,177.523,200.426,175.357Z" transform="translate(6.087 19.607)" fill="#ff725e"/>
      <path id="Path_107610" data-name="Path 107610" d="M174.684,229.955l38.934-10.125,11.134,18.111L185.1,254.634A15.943,15.943,0,0,1,178.5,256h0a16.067,16.067,0,0,1-14.84-9.948l-1.2-2.944Z" transform="translate(6.087 36.525)" fill="#ff725e"/>
      <path id="Path_107611" data-name="Path 107611" d="M186.414,232.859c-.191,0-.354-7.154-.354-15.971s.164-15.958.354-15.958.368,7.141.368,15.958S186.619,232.859,186.414,232.859Z" transform="translate(14.648 29.669)" fill="#263238"/>
      <g id="Group_25194" data-name="Group 25194" transform="translate(194.889 269.505)" opacity="0.3">
        <path id="Path_107612" data-name="Path 107612" d="M181.79,249.7a13.531,13.531,0,0,0,5.192,4.838c4.865,2.63,10.9,2.562,16.121.845a46.115,46.115,0,0,0,14.186-8.395,119.116,119.116,0,0,0,15.781-15.344,1.676,1.676,0,0,0,.572-1.295c-.136-.845-1.363-.954-2.153-.831-8.067,1.281-15.426,5.192-22.785,8.749q-13.123,6.35-26.846,11.42" transform="translate(-181.79 -229.479)"/>
      </g>
      <path id="Path_107613" data-name="Path 107613" d="M256.057,214.842a1.843,1.843,0,0,1-.15.368l-.5,1.049c-.232.45-.572.981-.954,1.622a22.417,22.417,0,0,1-1.567,2.058,23.287,23.287,0,0,1-5.342,4.633,24.3,24.3,0,0,1-8.708,3.407,23.33,23.33,0,0,1-11.3-.777,26.764,26.764,0,0,1-11.025-6.9,25.5,25.5,0,0,1-6.814-12.646,19.9,19.9,0,0,1-.068-7.672,16.939,16.939,0,0,1,3.3-7.182,13.887,13.887,0,0,1,6.432-4.606,8.736,8.736,0,0,1,3.925-.409,6.337,6.337,0,0,1,3.529,1.7,5.029,5.029,0,0,1,1.554,3.543,6.555,6.555,0,0,1-1.1,3.611,9.675,9.675,0,0,1-6.01,3.775A27.171,27.171,0,0,1,189.2,181.578a20.619,20.619,0,0,1-.981-5.928,2.005,2.005,0,0,1,.068.382l.164,1.145a29.242,29.242,0,0,0,1.022,4.32,27.664,27.664,0,0,0,9.049,13.2,27.051,27.051,0,0,0,9.975,4.92,26.751,26.751,0,0,0,12.7.2,9.117,9.117,0,0,0,5.6-3.516,5.805,5.805,0,0,0,.981-3.23,4.238,4.238,0,0,0-1.363-3.053,5.615,5.615,0,0,0-3.148-1.513,8.013,8.013,0,0,0-3.611.382,13.341,13.341,0,0,0-6.091,4.374,16.354,16.354,0,0,0-3.162,6.882,19.3,19.3,0,0,0,0,7.4,24.952,24.952,0,0,0,6.541,12.333,26.506,26.506,0,0,0,10.738,6.814,23,23,0,0,0,11.038.845,24.229,24.229,0,0,0,8.585-3.257,23.971,23.971,0,0,0,5.342-4.47A26.932,26.932,0,0,0,256.057,214.842Z" transform="translate(15.431 20.499)" fill="#e0e0e0"/>
      <path id="Path_107614" data-name="Path 107614" d="M259.928,252.864a24.636,24.636,0,0,0-2.221-4.933A16.966,16.966,0,0,0,245.892,240a23.29,23.29,0,0,0-10.043.463,27.961,27.961,0,0,0-5.287,1.962,19.706,19.706,0,0,0-4.933,3.311,9.035,9.035,0,0,0-2.835,5.315,5.451,5.451,0,0,0,2.33,5.451,4.088,4.088,0,0,0,5.71-.872,15.167,15.167,0,0,0,2.725-6.309,24.924,24.924,0,0,0-.9-13.559,25.306,25.306,0,0,0-7.032-10.575,29.04,29.04,0,0,0-9.989-5.846,29.435,29.435,0,0,0-24.093,2.1c-1.54.831-2.657,1.594-3.434,2.1l-.859.586-.313.191a26.56,26.56,0,0,1,4.47-3.121A29.108,29.108,0,0,1,205.65,217.2a30.089,30.089,0,0,1,10.18,1.581,29.354,29.354,0,0,1,10.234,5.914,26.165,26.165,0,0,1,7.263,10.834,25.674,25.674,0,0,1,.927,13.954,15.9,15.9,0,0,1-2.834,6.609,4.824,4.824,0,0,1-6.623.995,5.655,5.655,0,0,1-2.235-2.725,6.814,6.814,0,0,1-.4-3.393,9.539,9.539,0,0,1,3.012-5.7,20.444,20.444,0,0,1,5.1-3.407,28.617,28.617,0,0,1,5.451-1.976,24.133,24.133,0,0,1,10.289-.4,17.225,17.225,0,0,1,11.965,8.286,18.03,18.03,0,0,1,1.635,3.707,10.088,10.088,0,0,1,.273,1.022,1.362,1.362,0,0,1,.041.354Z" transform="translate(14.967 35.57)" fill="#e0e0e0"/>
      <path id="Path_107615" data-name="Path 107615" d="M192.8,209.861a5.974,5.974,0,0,1-.681.859,16.532,16.532,0,0,1-2.126,2.058,19.962,19.962,0,0,1-3.72,2.358,21.981,21.981,0,0,1-5.124,1.744,27.146,27.146,0,0,1-9.757,0,28.737,28.737,0,0,1-2.889-.654c-.668-.2-1.036-.327-1.022-.382s1.526.232,3.979.531a30.58,30.58,0,0,0,9.539-.232,23.672,23.672,0,0,0,4.974-1.635,22.2,22.2,0,0,0,3.707-2.18C191.642,210.9,192.718,209.779,192.8,209.861Z" transform="translate(7.908 32.907)" fill="#e0e0e0"/>
      <path id="Path_107616" data-name="Path 107616" d="M186.976,247.859a24.531,24.531,0,0,0-1.5-4.238,13.328,13.328,0,0,0-18.261-5.942,25.009,25.009,0,0,0-3.707,2.535,3.312,3.312,0,0,1,.777-.954,11.978,11.978,0,0,1,2.725-2.03,13.409,13.409,0,0,1,18.969,6.173,12.263,12.263,0,0,1,.981,3.216A3.489,3.489,0,0,1,186.976,247.859Z" transform="translate(6.468 42.184)" fill="#e0e0e0"/>
      <path id="Path_107617" data-name="Path 107617" d="M244.011,236.321a4.754,4.754,0,0,1-.368-1.363,24.078,24.078,0,0,1-.5-3.72,30.38,30.38,0,0,1,.136-5.587,32.447,32.447,0,0,1,1.567-6.677,31.863,31.863,0,0,1,3.025-6.146,29.321,29.321,0,0,1,3.434-4.415,25.9,25.9,0,0,1,2.726-2.562,5.181,5.181,0,0,1,1.117-.79c.1.109-1.444,1.363-3.5,3.693a33.808,33.808,0,0,0-3.257,4.415,32.119,32.119,0,0,0-4.483,12.564,33.157,33.157,0,0,0-.286,5.451C243.738,234.427,244.147,236.321,244.011,236.321Z" transform="translate(35.327 31.167)" fill="#e0e0e0"/>
      <path id="Path_107618" data-name="Path 107618" d="M278.681,211.252a4.287,4.287,0,0,1-.75.8,9.183,9.183,0,0,1-2.616,1.513,11.72,11.72,0,0,1-9.7-.75,9.921,9.921,0,0,1-3.87-3.9,14.185,14.185,0,0,1-1.5-4.211,17.859,17.859,0,0,1-.368-2.957,2.723,2.723,0,0,1,0-1.1c.123,0,.218,1.554.8,3.952a15.945,15.945,0,0,0,1.581,3.993,9.676,9.676,0,0,0,3.652,3.611,11.706,11.706,0,0,0,9.2.886,16.612,16.612,0,0,0,3.57-1.84Z" transform="translate(41.403 29.568)" fill="#e0e0e0"/>
      <path id="Path_107619" data-name="Path 107619" d="M246.828,188.827a3.107,3.107,0,0,1-.981.627,10.519,10.519,0,0,1-3.012.968,12.266,12.266,0,0,1-4.688-.15,14.637,14.637,0,0,1-5.233-2.385,13.8,13.8,0,0,1-5.451-8.694,12.113,12.113,0,0,1-.164-3.148,3.515,3.515,0,0,1,.218-1.145,29.309,29.309,0,0,0,.436,4.184,14.159,14.159,0,0,0,5.356,8.176,14.65,14.65,0,0,0,4.974,2.317,12.577,12.577,0,0,0,4.47.286,23.168,23.168,0,0,0,4.075-1.036Z" transform="translate(29.593 20.227)" fill="#e0e0e0"/>
      <path id="Path_107620" data-name="Path 107620" d="M220.368,269.513a65.678,65.678,0,0,0-3.543-5.751,35.226,35.226,0,0,0-12.2-10.493,37.245,37.245,0,0,0-8.354-3.121,31.781,31.781,0,0,0-7.236-.831,64.062,64.062,0,0,0-6.718.613,7.526,7.526,0,0,1,1.758-.5,27.6,27.6,0,0,1,4.96-.613,30.238,30.238,0,0,1,7.386.7,35.986,35.986,0,0,1,8.531,3.134,33.632,33.632,0,0,1,12.265,10.834,30.824,30.824,0,0,1,2.48,4.32,7.331,7.331,0,0,1,.668,1.717Z" transform="translate(13.291 47.034)" fill="#e0e0e0"/>
      <path id="Path_107621" data-name="Path 107621" d="M238.858,197.92c.191,0,1.363,20.087,2.6,44.889s2.1,44.9,1.894,44.97-1.363-20.087-2.6-44.889S238.654,197.934,238.858,197.92Z" transform="translate(33.789 28.577)" fill="#263238"/>
      <path id="Path_107622" data-name="Path 107622" d="M200,224.127a16.708,16.708,0,0,0,6.677-5.969,17.715,17.715,0,0,0,1.853-3.557,18.9,18.9,0,0,0,1.077-4.865c0-1.54,1.785-2.344,2.616-1.24s.995,5.315-.954,9.866,4.838.9,7.332-.4,10.384-4.919,11.365-4.456c1.445.681.968,2.4-1.554,3.625s-9.812,5.451-9.1,6.814,13.3-5.451,13.3-5.451,2.48-1.881,3.339-.409c1.567,2.725-12.265,8.817-13.627,9.376-.927.382-.2,1.826.777,1.363s12.415-7.032,14.036-4.334c1.254,2.058-11.379,5.178-13.041,7.863s9.362-3.352,10.479-1.363c.409.763.613,1.363-6.187,3.925-3.652,1.363-9.7,2.017-16.544,5.178l-1.785.8" transform="translate(19.704 32.228)" fill="#aa6550"/>
      <path id="Path_107623" data-name="Path 107623" d="M181.594,254.1a3.985,3.985,0,0,1,.736-.382l2.14-.968,8.013-3.489,27.1-11.542-.164.518-3.625-5.805-7.713-12.265.4.136-23.058,7.3-6.677,2.071-1.8.518-.627.15a2.206,2.206,0,0,1,.6-.259l1.758-.627,6.609-2.249,22.949-7.59.259-.082.136.218,7.74,12.265L220,237.828l.218.341-.382.164-27.255,11.324-8.095,3.284-2.194.858A4.419,4.419,0,0,1,181.594,254.1Z" transform="translate(11.114 36.42)" fill="#263238"/>
      <path id="Path_107624" data-name="Path 107624" d="M179.52,222.255a8.681,8.681,0,0,1,9.185,2.467,30.8,30.8,0,0,0-4.415-1.921,32.129,32.129,0,0,0-4.77-.545Z" transform="translate(12.275 37.248)" fill="#263238"/>
    </g>
  </g>
</svg>
