<svg id="Component_Character_Male_I" data-name="Component/Character/Male/I" xmlns="http://www.w3.org/2000/svg" xmlns:xlink="http://www.w3.org/1999/xlink" width="180" height="180" viewBox="0 0 180 180">
  <defs>
    <clipPath id="clip-path">
      <rect id="Rectangle_9965" data-name="Rectangle 9965" width="180" height="180" transform="translate(19160 -22175)" fill="#fff" stroke="#707070" stroke-width="1"/>
    </clipPath>
  </defs>
  <g id="Component_Character_Male_I-2" data-name="Component/Character/Male/I" transform="translate(-19160 22175)" clip-path="url(#clip-path)">
    <g id="character-2--inject-228" transform="translate(19185 -22160.787)">
      <path id="Path_34806" data-name="Path 34806" d="M548.075,365.537c-1.765-2.771-3.053-14.259-5.47-13.606-3.053.812,1.253,13.006,1.553,14.118s-1.306,1.535-1.535.529c-.3-1.465-3.741-15.776-6.741-14.682-1.659.6-.582,3.635-.582,3.635s4.853,13.923,3.423,14.4-4.235-7.676-5.153-10.588-2.365-3.529-3.388-2.241,1.553,9.618,2.382,12.353,3.3,10.359-.971,7.535-8.594-3.529-9.865-2.823a1.581,1.581,0,0,0,.776,2.894,18.884,18.884,0,0,1,4.747,2.012,17.648,17.648,0,0,1,3.265,2.541,15.881,15.881,0,0,1,3.247,4.165,9.936,9.936,0,0,0,6.547,4.853h0l1.271,5.294,14.594-5.418-2.418-9.9a97.614,97.614,0,0,1-2.453-17.647c-.706-7.482-1.765-7.447-2.523-7.165C546.91,356.378,549.893,368.255,548.075,365.537Z" transform="translate(-441.747 -310.513)" fill="#f4d3bd"/>
      <path id="Path_34807" data-name="Path 34807" d="M535.251,365.075a16.958,16.958,0,0,0-1.906,1.076,8.172,8.172,0,0,0-3.018,4.182,7.147,7.147,0,0,0-.318,1.553v.265l-.229-.106a12.6,12.6,0,0,0-4.024-1.076c-1.041-.106-1.676,0-1.676-.124a4.78,4.78,0,0,1,1.765-.106,11.594,11.594,0,0,1,4.147.971l-.247.159a8.092,8.092,0,0,1,.318-1.659,7.974,7.974,0,0,1,1.412-2.629,7.644,7.644,0,0,1,1.765-1.641,7.559,7.559,0,0,1,1.465-.741C535.039,365.092,535.251,365.039,535.251,365.075Z" transform="translate(-426.258 -300.398)" fill="#eaae94"/>
      <path id="Path_34808" data-name="Path 34808" d="M530.757,371.353a10.36,10.36,0,0,1-3.353,2.012,10.13,10.13,0,0,1-3.794.953c0-.106,1.765-.459,3.653-1.288S530.686,371.264,530.757,371.353Z" transform="translate(-420.935 -295.593)" fill="#eaae94"/>
      <path id="Path_34809" data-name="Path 34809" d="M625.748,446.726a15.883,15.883,0,0,1-8.718-3.688L593.489,423.15l.212,22.941,4.659.335-1.306,17.047H524.19v-.388a25.942,25.942,0,0,1-8.223-15.882c-1.765-11.347-2.435-29.841-4.006-42.917-1.129-9.212.9-21.176,9.088-25.482l6.229-2.488h0L547.2,368.48l25.57,1.165,17.082,4.8c4.729,1.765,8.823,7.465,11.735,11.647l14.223,19.817c-.159-3.247-6.035-22.764-6.423-23.629l17.417-7.182s17.947,39.9,15.529,57.141C640.395,446.568,625.748,446.726,625.748,446.726Z" transform="translate(-511.673 -297.785)" fill="#ff725e"/>
      <path id="Path_34836" data-name="Path 34836" d="M539.557,434.99c.106,0,.194-11.629.194-25.976s0-25.994-.194-25.994-.176,11.647-.176,25.994S539.451,434.99,539.557,434.99Z" transform="translate(-457.758 -286.667)" fill="#263238"/>
      <path id="Path_34837" data-name="Path 34837" d="M570.35,377.54a27.493,27.493,0,0,1,3.529,0,15.9,15.9,0,0,1,13.27,8.771,31.752,31.752,0,0,1,1.288,3.229,4.9,4.9,0,0,0-.176-.935,13.545,13.545,0,0,0-.882-2.4,15.707,15.707,0,0,0-5.488-6.371,15.883,15.883,0,0,0-7.994-2.559,12.877,12.877,0,0,0-2.559.141,4.112,4.112,0,0,0-.988.124Z" transform="translate(-561.098 -291.069)" fill="#263238"/>
      <path id="Path_34838" data-name="Path 34838" d="M525.307,388.26a9.843,9.843,0,0,0,.088,1.094v2.982c0,2.506-.547,5.965-.724,9.829a19.06,19.06,0,0,0,1.765,9.671,9.861,9.861,0,0,0,1.765,2.435,5.458,5.458,0,0,0,.829.706,13.872,13.872,0,0,1-2.365-3.265,19.606,19.606,0,0,1-1.765-9.529c.176-3.829.67-7.306.617-9.847a23.726,23.726,0,0,0-.194-3,3.234,3.234,0,0,0-.141-.794C525.148,388.366,525.324,388.26,525.307,388.26Z" transform="translate(-420.973 -282.66)" fill="#263238"/>
      <path id="Path_34839" data-name="Path 34839" d="M523.135,415.7l-1.341,14.823h7.059l6.212-.106a44.536,44.536,0,0,0,7.059.194.791.791,0,0,0,.318,0,6.388,6.388,0,0,0,1.094-.265h0c.635-.229,1.288-.635,1.182-1.341-.3-2.118-1.571-2.294-1.571-2.294h-.635v-.194h2.541c.018,0,2.471-.3,2.294-1.606-.318-2.135-1.571-2.294-1.571-2.294l-2.047-.141h2.276a.793.793,0,0,0,.318,0s2.488-.3,2.294-1.606c-.3-2.135-1.571-2.312-1.571-2.312l-1.765-.106h2.1c.018,0,2.471-.3,2.276-1.606-.3-2.135-1.571-2.294-1.571-2.294s-3.9-.282-6.582-.406c0,0-3.053-2.735-4.253-2.612-1.765.194-12.194,4.041-12.194,4.041Z" transform="translate(-436.642 -264.867)" fill="#f4d3bd"/>
      <path id="Path_34840" data-name="Path 34840" d="M525.43,419.908a15.211,15.211,0,0,0,3.529.318,13.024,13.024,0,0,0,3.441-.106,14.632,14.632,0,0,0-3.53-.335,13.451,13.451,0,0,0-3.441.124Z" transform="translate(-425.79 -258.597)" fill="#eaae94"/>
      <g id="Group_25156" data-name="Group 25156" transform="translate(24.892 -0.721)">
        <path id="Path_107214" data-name="Path 107214" d="M622.526,288.864c8.925-9.639.383-21.765-3.782-24.991s-9.692-5.289-14.651-3.478c-3.226-3.848-9.071-4.483-13.923-3.187a13.606,13.606,0,0,0-9.626,10.578c-.6,3.438.145,7.167-1.428,10.274-1.124,2.221-3.24,3.716-5.117,5.289s-3.676,3.676-3.808,6.149,2.393,5.078,4.681,4.139a23.6,23.6,0,0,0-3.861,6.73,7.934,7.934,0,0,0,1.045,7.392c1.679,2,5.064,2.539,6.889.688a8.74,8.74,0,0,0-.317,5.5,4.641,4.641,0,0,0,4.073,3.332,3.2,3.2,0,0,0,3.2-3.65" transform="translate(-570.187 -256.598)" fill="#ffa618"/>
        <path id="Path_107215" data-name="Path 107215" d="M574.914,280.815l-2.235,45.209a13.474,13.474,0,0,0,13.5,14.135h0a13.461,13.461,0,0,0,13.447-12.828c.172-3.4.317-6.239.357-6.61,0,0,11.556-.516,12.958-11.9.674-5.488,1.137-16.9,1.441-27.226a21.289,21.289,0,0,0-18.961-21.778l-1.1-.132C582.372,259.143,575.2,268.9,574.914,280.815Z" transform="translate(-561.409 -255.61)" fill="#f4d3bd"/>
        <path id="Path_107216" data-name="Path 107216" d="M597.93,307.165a26.656,26.656,0,0,1-14.36-5.845s2.645,8.555,14.055,8.793Z" transform="translate(-559.368 -242.185)" fill="#eaae94"/>
        <path id="Path_107217" data-name="Path 107217" d="M578.706,282.074a1.626,1.626,0,0,1-1.745,1.455,1.56,1.56,0,0,1-1.521-1.64,1.64,1.64,0,0,1,1.745-1.468,1.56,1.56,0,0,1,1.521,1.653Z" transform="translate(-531.394 -248.922)" fill="#263238"/>
        <path id="Path_107218" data-name="Path 107218" d="M581.412,280.83c-.225.185-1.322-.859-3.107-1.045s-3.12.542-3.279.3.159-.463.767-.807a4.5,4.5,0,0,1,2.645-.516,4.35,4.35,0,0,1,2.433,1.1C581.346,280.406,581.491,280.737,581.412,280.83Z" transform="translate(-531.518 -249.463)" fill="#263238"/>
        <path id="Path_107219" data-name="Path 107219" d="M591.676,280.954a1.64,1.64,0,0,1-1.745,1.468,1.587,1.587,0,0,1-1.521-1.653,1.639,1.639,0,0,1,1.745-1.468,1.573,1.573,0,0,1,1.521,1.653Z" transform="translate(-561.514 -249.283)" fill="#263238"/>
        <path id="Path_107220" data-name="Path 107220" d="M594.444,279.637c-.225.185-1.322-.859-3.107-1.045s-3.12.542-3.292.3.172-.463.767-.807a4.469,4.469,0,0,1,2.645-.5,4.178,4.178,0,0,1,2.433,1.1A1.632,1.632,0,0,1,594.444,279.637Z" transform="translate(-561.74 -249.844)" fill="#263238"/>
        <path id="Path_107221" data-name="Path 107221" d="M580.865,293.021a12.732,12.732,0,0,1,2.9-.2c.45,0,.886,0,.992-.331a2.354,2.354,0,0,0-.159-1.322c-.291-1.137-.608-2.314-.939-3.544a59.781,59.781,0,0,1-1.983-9.256,60.616,60.616,0,0,1,2.724,9.031c.3,1.243.595,2.42.886,3.557a2.645,2.645,0,0,1,0,1.772,1.124,1.124,0,0,1-.807.569,2.568,2.568,0,0,1-.767,0A10.684,10.684,0,0,1,580.865,293.021Z" transform="translate(-543.294 -249.582)" fill="#263238"/>
        <path id="Path_107222" data-name="Path 107222" d="M584.863,289.94c.291,0,.079,1.9,1.56,3.438s3.517,1.534,3.5,1.8-.5.317-1.322.251a4.72,4.72,0,0,1-2.935-1.4,4.179,4.179,0,0,1-1.19-2.869C584.48,290.363,584.731,289.914,584.863,289.94Z" transform="translate(-552.569 -245.853)" fill="#263238"/>
        <path id="Path_107223" data-name="Path 107223" d="M595.061,274.419c-.225.463-1.944,0-3.967.066s-3.795.4-3.967-.066c-.106-.212.238-.635.952-1.018a6.742,6.742,0,0,1,3.068-.7,6.611,6.611,0,0,1,3.054.7C594.823,273.771,595.153,274.194,595.061,274.419Z" transform="translate(-561.193 -251.409)" fill="#263238"/>
        <path id="Path_107224" data-name="Path 107224" d="M580.961,276.971c-.344.357-1.507-.185-2.949-.357s-2.645,0-2.935-.476c-.106-.225.132-.6.714-.912a4.06,4.06,0,0,1,2.473-.383,4.165,4.165,0,0,1,2.274,1.058C581,276.39,581.08,276.786,580.961,276.971Z" transform="translate(-531.187 -250.735)" fill="#263238"/>
        <path id="Path_107225" data-name="Path 107225" d="M610.711,282.276c-.185-.106-7.55-3.173-8.158,4.615s7.339,6.81,7.378,6.611S610.711,282.276,610.711,282.276Z" transform="translate(-597.206 -248.543)" fill="#f4d3bd"/>
        <path id="Path_107226" data-name="Path 107226" d="M608.032,289.718a1.9,1.9,0,0,1-.383.172,1.322,1.322,0,0,1-1.018,0,3.4,3.4,0,0,1-1.322-3.134,4.445,4.445,0,0,1,.542-1.917,1.547,1.547,0,0,1,1.1-.965.7.7,0,0,1,.78.436c.079.225,0,.384.066.4s.172-.119.132-.45a.846.846,0,0,0-.264-.516,1.045,1.045,0,0,0-.74-.251,1.891,1.891,0,0,0-1.507,1.1,4.642,4.642,0,0,0-.648,2.142,3.544,3.544,0,0,0,1.719,3.517,1.481,1.481,0,0,0,1.256-.106C608.005,289.917,608.058,289.745,608.032,289.718Z" transform="translate(-597.462 -247.932)" fill="#eaae94"/>
        <path id="Path_107228" data-name="Path 107228" d="M586.362,259c-6.505-.066-10.314,7.59-12.006,13.871s-2.168,12.892,1.19,18.512a7.933,7.933,0,0,0,3.544,2.261,3.306,3.306,0,0,0,3.187-1.838,9.256,9.256,0,0,0-.608-10.486,38.344,38.344,0,0,0,6.439-11.292,14.809,14.809,0,0,0,7.391,5.21,4.218,4.218,0,0,0,2.816.093,1.772,1.772,0,0,0,.992-2.354,13.342,13.342,0,0,0,6.743,4.443,7.431,7.431,0,0,0,7.444-2.248,5.21,5.21,0,0,0-.754-7.273S608.946,259.238,586.362,259Z" transform="translate(-562.159 -255.824)" fill="#ffa618"/>
      </g>
      <path id="Path_34841" data-name="Path 34841" d="M523.79,417.5a53.426,53.426,0,0,0,9.882.353,27.9,27.9,0,0,0-4.923-.406,28.241,28.241,0,0,0-4.959.053Z" transform="translate(-424.168 -260.406)" fill="#eaae94"/>
      <g id="Group_1989" data-name="Group 1989" transform="translate(99.975 152.651)" opacity="0.78">
        <path id="Path_34842" data-name="Path 34842" d="M523.59,415.059a53.425,53.425,0,0,0,9.882.353,27.892,27.892,0,0,0-4.924-.406A28.239,28.239,0,0,0,523.59,415.059Z" transform="translate(-523.59 -414.922)" fill="#eaae94"/>
      </g>
      <path id="Path_34843" data-name="Path 34843" d="M536.449,412.788a7.053,7.053,0,0,1-1.571.124l-3.794.124-3.794.141a6.551,6.551,0,0,1-1.571,0,6.262,6.262,0,0,1,1.553-.247c.971-.088,2.312-.176,3.794-.229s2.841,0,3.812,0a5.893,5.893,0,0,1,1.571.088Z" transform="translate(-430.351 -263.989)" fill="#eaae94"/>
      <path id="Path_34844" data-name="Path 34844" d="M594.037,431.314h-.953l-2.735-.159-10.059-.618c-8.506-.512-20.241-1.253-33.194-1.906l-6.953-.318h-.159v-.176c-.106-2.824-.371-5.577-.565-8.206s-.441-5.171-.653-7.571c-.423-4.8-.794-9.088-1.112-12.67s-.582-6.424-.741-8.418A18.57,18.57,0,0,0,536.72,389v-.776a1.158,1.158,0,0,1,0,.194V389c0,.547.141,1.288.247,2.259.194,1.994.494,4.871.847,8.418s.741,7.853,1.2,12.653c.212,2.4.441,4.941.671,7.571s.476,5.382.6,8.241l-.176-.176,6.953.3c12.97.653,24.706,1.447,33.194,2.029l10.041.724,2.735.229h.706Z" transform="translate(-507.35 -282.69)" fill="#263238"/>
    </g>
  </g>
</svg>
