<svg id="Component_Character_Male_G" data-name="Component/Character/Male/G" xmlns="http://www.w3.org/2000/svg" xmlns:xlink="http://www.w3.org/1999/xlink" width="180" height="180" viewBox="0 0 180 180">
  <defs>
    <clipPath id="clip-path">
      <rect id="Rectangle_9957" data-name="Rectangle 9957" width="180" height="180" transform="translate(19410 -20908)" fill="#fff" stroke="#707070" stroke-width="1"/>
    </clipPath>
  </defs>
  <g id="Group_25153" data-name="Group 25153" transform="translate(58.729 21.898)">
    <path id="Path_106089" data-name="Path 106089" d="M129.776,273.025l-2.029,41.089a12.235,12.235,0,0,0,12.235,12.858h0a12.235,12.235,0,0,0,12.224-11.622c.148-3.1.275-5.674.317-5.991,0,0,10.5-.475,11.77-10.787.613-4.987,1.057-15.352,1.321-24.745a19.367,19.367,0,0,0-17.254-19.821l-.993-.106C136.549,253.341,130.03,262.216,129.776,273.025Z" transform="translate(-122.352 -252.422)" fill="#ffbe9d"/>
    <path id="Path_106090" data-name="Path 106090" d="M153.158,306.513a24.174,24.174,0,0,1-13.048-5.283s2.367,7.787,12.774,7.988Z" transform="translate(-122.966 -249.744)" fill="#eb996e"/>
    <path id="Path_106091" data-name="Path 106091" d="M133.819,278.931a1.49,1.49,0,0,1-1.585,1.331,1.416,1.416,0,0,1-1.374-1.5,1.469,1.469,0,0,1,1.585-1.331,1.426,1.426,0,0,1,1.374,1.5Z" transform="translate(-94.854 -251.091)" fill="#263238"/>
    <path id="Path_106092" data-name="Path 106092" d="M136.2,277.411c-.211.169-1.236-.782-2.821-.951s-2.842.5-2.99.285.148-.423.7-.74a4.226,4.226,0,0,1,2.419-.465,3.919,3.919,0,0,1,2.219,1C136.169,276.968,136.3,277.337,136.2,277.411Z" transform="translate(-95.729 -251.198)" fill="#263238"/>
    <path id="Path_106093" data-name="Path 106093" d="M148.579,277.661a1.49,1.49,0,0,1-1.6,1.331,1.426,1.426,0,0,1-1.374-1.5,1.479,1.479,0,0,1,1.585-1.331,1.426,1.426,0,0,1,1.384,1.5Z" transform="translate(-125.198 -251.162)" fill="#263238"/>
    <path id="Path_106094" data-name="Path 106094" d="M151,276.1c-.211.169-1.236-.782-2.821-.951s-2.842.5-2.99.285.148-.423.7-.74a4.226,4.226,0,0,1,2.42-.465,3.92,3.92,0,0,1,2.219,1C150.969,275.615,151.1,275.985,151,276.1Z" transform="translate(-126.164 -251.272)" fill="#263238"/>
    <path id="Path_106095" data-name="Path 106095" d="M137.068,288.412a11.21,11.21,0,0,1,2.631-.18c.412,0,.8,0,.9-.3a2.113,2.113,0,0,0-.137-1.236c-.275-1.057-.56-2.113-.856-3.222-1.183-4.575-1.986-8.326-1.807-8.368s1.3,3.624,2.472,8.209c.285,1.12.549,2.2.814,3.233a2.377,2.377,0,0,1,0,1.606,1.057,1.057,0,0,1-.729.528,3.17,3.17,0,0,1-.708,0A9.8,9.8,0,0,1,137.068,288.412Z" transform="translate(-107.817 -251.221)" fill="#263238"/>
    <path id="Path_106096" data-name="Path 106096" d="M141.519,288.26c.264,0,.074,1.733,1.416,3.117s3.17,1.405,3.17,1.638-.444.3-1.215.232a4.321,4.321,0,0,1-2.673-1.278,3.8,3.8,0,0,1-1.057-2.6C141.171,288.64,141.4,288.228,141.519,288.26Z" transform="translate(-117.022 -250.478)" fill="#263238"/>
    <path id="Path_106097" data-name="Path 106097" d="M151.452,270.2c-.2.412-1.764,0-3.645.053s-3.455.359-3.656-.053c-.1-.2.211-.581.866-.93a6.339,6.339,0,0,1,5.568,0C151.24,269.623,151.547,270,151.452,270.2Z" transform="translate(-125.527 -251.588)" fill="#8c9297"/>
    <path id="Path_106098" data-name="Path 106098" d="M135.77,273.006c-.317.328-1.363-.169-2.684-.328s-2.451,0-2.663-.433c-.1-.19.116-.539.645-.824a3.761,3.761,0,0,1,2.25-.349,3.687,3.687,0,0,1,2.06.961C135.8,272.456,135.918,272.847,135.77,273.006Z" transform="translate(-95.383 -251.452)" fill="#8c9297"/>
    <path id="Path_106099" data-name="Path 106099" d="M169.084,279.383c-.169-.1-6.868-2.884-7.4,4.226s6.677,6.181,6.7,5.97S169.084,279.383,169.084,279.383Z" transform="translate(-161.66 -251.014)" fill="#ffbe9d"/>
    <path id="Path_106100" data-name="Path 106100" d="M167.222,286.586a1.592,1.592,0,0,1-.349.158,1.236,1.236,0,0,1-.919-.053,3.064,3.064,0,0,1-1.2-2.853,4.353,4.353,0,0,1,.486-1.743,1.437,1.437,0,0,1,1-.866.634.634,0,0,1,.708.391.5.5,0,0,1,0,.359c0,.011.169-.106.127-.4a.718.718,0,0,0-.243-.465.887.887,0,0,0-.666-.232,1.722,1.722,0,0,0-1.374.993,4.121,4.121,0,0,0-.581,1.944,3.17,3.17,0,0,0,1.553,3.17,1.31,1.31,0,0,0,1.152-.106C167.2,286.755,167.254,286.607,167.222,286.586Z" transform="translate(-162.472 -250.895)" fill="#eb996e"/>
    <path id="Path_106101" data-name="Path 106101" d="M132.675,280.192a3.74,3.74,0,0,1,3.17,2.113c.349,1.057.328,2.219.676,3.275s1.278,2.113,2.388,1.955a2.208,2.208,0,0,0,1.648-1.458,5.843,5.843,0,0,0,.264-2.272c0-3.339-.38-6.688-.148-10.027a17.031,17.031,0,0,1,3.17-9.372,9.308,9.308,0,0,1,8.769-3.73c2.177.412,4.068,1.786,6.213,2.324a8.643,8.643,0,0,0,7.4-1.6,16.387,16.387,0,0,1,1.447-.814,4.1,4.1,0,0,0-.5-2.272c-3.888-4.48-11.559-6.456-17.433-5.642a20.73,20.73,0,0,0-14.728,9.329c-3.043,5.082-3.17,12.615-2.377,18.183" transform="translate(-129.151 -252.5)" fill="#8c9297"/>
  </g>
  <g id="Mask_Group_690" data-name="Mask Group 690" transform="translate(-19410 20908)" clip-path="url(#clip-path)">
    <g id="Group_25146" data-name="Group 25146">
      <path id="Path_107066" data-name="Path 107066" d="M19425.094-20686.539s-1.539-.609-3.7,11.121,0,28.086,0,28.086h17.178l5.285-30.793Z" transform="translate(0 -71.555)" fill="#ffbe9d"/>
      <g id="Group_25127" data-name="Group 25127" transform="translate(19501.939 -20853.428)">
        <path id="Path_107067" data-name="Path 107067" d="M21.1,59.286l8.328,15.072,7.158-35.842c.221-2.971-2.376-11.061-3.709-13.726A18.021,18.021,0,0,0,30.8,21.457a18.473,18.473,0,0,0-3.565-3.347,1.493,1.493,0,0,1,.257-2.819c1.287-.142,4.981,1.815,7.852,5.741s3.166-3.63,3.321-6.436S39.721,3.385,40.6,2.793c1.287-.875,2.51.373,2.278,3.1S42.566,16.9,44.007,16.952s2.059-13.94,2.059-13.94S45.719-.013,47.354,0c3.025,0,1.287,14.8,1.068,16.205-.142.978,1.429,1.081,1.519,0s.309-13.978,3.385-14c2.355,0-1.287,12.189.1,14.931s1.853-9.563,4.119-9.486c.837,0,1.467.167.206,7.169a116.187,116.187,0,0,1-3.861,16.527l-2.579,7.49s-1.875,30.314-8.182,52.195c-3.771,13.1-22.37,14.39-29.926,3.025C8.058,86.328,0,66.172,0,66.172Z" transform="translate(-0.001 19.035) rotate(-19)" fill="#ffbe9d"/>
        <path id="Path_107068" data-name="Path 107068" d="M10.941,3.479c0,.064-.476.064-1.2.309a4.376,4.376,0,0,0-2.33,1.931l-.283.515-.167-.579A7.055,7.055,0,0,0,5.857,3.427,8.122,8.122,0,0,0,2,.583C.8.158-.013.184,0,.081A3.939,3.939,0,0,1,2.1.222a7.723,7.723,0,0,1,4.183,2.9A7.015,7.015,0,0,1,7.44,5.525h-.45A4.312,4.312,0,0,1,9.654,3.556a2.15,2.15,0,0,1,1.287-.077Z" transform="translate(45.127 28.283) rotate(-19)" fill="#eb996e"/>
      </g>
      <g id="Character--inject-941" transform="translate(19422.602 -20882.289)">
        <path id="Path_107083" data-name="Path 107083" d="M275.821,343.122l-26.539-29.616c-7.391-7.264-11.337-9.434-21.622-10.652-1.681-.2-3.02-.324-3.978-.444a39.284,39.284,0,0,1-23.684,0h0c-3.661.152-6.693,1.269-9.8,1.9-9.808,1.9-16.863,9.022-18.824,15.614h0L149.25,363.138l18.684,15.7L185,351.75l1.04,28.835-1.06,21.571,65.506.19-2.976-50.584,17.631,14.351Z" transform="translate(-148.724 -238.535)" fill="#ff725e"/>
        <path id="Path_107084" data-name="Path 107084" d="M205.885,351.57a4.073,4.073,0,0,1,.082.964c0,.634.044,1.51.063,2.62,0,2.208.044,5.266,0,8.641s-.057,6.433-.108,8.641c0,1.11-.057,2-.082,2.62a3.876,3.876,0,0,1-.1.958,3.807,3.807,0,0,1-.089-.958c0-.634-.044-1.516-.063-2.62-.032-2.214-.044-5.266,0-8.647s.057-6.427.108-8.641c0-1.1.057-2,.089-2.62A3.577,3.577,0,0,1,205.885,351.57Z" transform="translate(-169.31 -256.506)" fill="#263238"/>
        <path id="Path_107085" data-name="Path 107085" d="M304.323,388.147a9.769,9.769,0,0,1-.19-1.485c-.1-1.04-.216-2.411-.368-4.06-.286-3.432-.634-8.178-1.015-13.418s-.685-9.961-.888-13.393c-.082-1.656-.159-3.033-.209-4.073a9.008,9.008,0,0,1,0-1.5,9.168,9.168,0,0,1,.2,1.485c.1,1.04.216,2.411.362,4.06.285,3.432.634,8.178,1.021,13.418s.679,9.986.882,13.425c.089,1.656.159,3.033.216,4.073a9.372,9.372,0,0,1-.006,1.466Z" transform="translate(-204.424 -256.012)" fill="#263238"/>
        <g id="Group_25128" data-name="Group 25128" transform="translate(20.79 84.774)" opacity="0.3">
          <path id="Path_107086" data-name="Path 107086" d="M270.011,335.515c0,.089-19.877.165-44.411.165s-44.411-.076-44.411-.165,19.877-.165,44.411-.165S270.011,335.42,270.011,335.515Z" transform="translate(-181.19 -335.35)" fill="#ebebeb"/>
        </g>
        <g id="Group_25129" data-name="Group 25129" transform="translate(8.279 111.09)" opacity="0.3">
          <path id="Path_107087" data-name="Path 107087" d="M269.661,376.995c0,.1-24.223.165-54.092.165s-54.1-.07-54.1-.165,24.217-.165,54.1-.165S269.661,376.938,269.661,376.995Z" transform="translate(-161.47 -376.83)" fill="#ebebeb"/>
        </g>
        <g id="Group_25130" data-name="Group 25130" transform="translate(37.597 141.099)" opacity="0.3">
          <path id="Path_107088" data-name="Path 107088" d="M270.515,424.295c0,.1-14.066.165-31.417.165s-31.417-.07-31.417-.165,14.066-.165,31.417-.165S270.515,424.206,270.515,424.295Z" transform="translate(-207.68 -424.13)" fill="#ebebeb"/>
        </g>
        <g id="Group_25131" data-name="Group 25131" transform="translate(44.461 65.011)" opacity="0.3">
          <path id="Path_107089" data-name="Path 107089" d="M218.665,402.931c-.089,0-.165-22.1-.165-49.359s.076-49.372.165-49.372.152,22.078.152,49.359S218.76,402.931,218.665,402.931Z" transform="translate(-218.5 -304.2)" fill="#ebebeb"/>
        </g>
        <g id="Group_25132" data-name="Group 25132" transform="translate(81.944 64.745)" opacity="0.3">
          <path id="Path_107090" data-name="Path 107090" d="M278.227,402.784v-1.009c0-.673,0-1.643-.032-2.88,0-2.538-.051-6.148-.082-10.608-.082-8.977-.2-21.343-.317-35s-.209-26.05-.216-35.008V307.669c0-1.269,0-2.208.032-2.88v-.755a1.346,1.346,0,0,1,0-.254v1.009c0,.673,0,1.643.032,2.88,0,2.538.051,6.141.082,10.608.082,8.971.2,21.343.317,35.008s.209,26.012.216,35v14.25a1.345,1.345,0,0,1-.032.254Z" transform="translate(-277.58 -303.78)" fill="#ebebeb"/>
        </g>
        <g id="Group_25133" data-name="Group 25133" transform="translate(109.282 85.846)" opacity="0.3">
          <path id="Path_107091" data-name="Path 107091" d="M320.835,372.746c-.089,0-.165-7.994-.165-17.853s.076-17.853.165-17.853.165,7.988.165,17.853S320.93,372.746,320.835,372.746Z" transform="translate(-320.67 -337.04)" fill="#ebebeb"/>
        </g>
        <g id="Group_25134" data-name="Group 25134" transform="translate(14.744 95.185)" opacity="0.3">
          <path id="Path_107092" data-name="Path 107092" d="M171.825,385.442c-.1,0-.165-7.537-.165-16.838s.07-16.844.165-16.844.165,7.537.165,16.844S171.914,385.442,171.825,385.442Z" transform="translate(-171.66 -351.76)" fill="#ebebeb"/>
        </g>
        <path id="Path_107093" data-name="Path 107093" d="M225.38,299.4,229,291.8l11.845,8.349,11.686-7.854,4.111,6.674-11.712,7.613H237.1l-11.718-6.3" transform="translate(-176.554 -234.656)" fill="#ff725e"/>
        <path id="Path_107094" data-name="Path 107094" d="M240.936,304.2a.882.882,0,0,1-.222.063,2.361,2.361,0,0,0-.634.171,3.724,3.724,0,0,0-1.764,1.491,18.925,18.925,0,0,0-1.631,3.172c-.279.634-.558,1.269-.914,1.948a7.283,7.283,0,0,1-1.364,1.9l-.114.108-.114-.121-.673-.7c-2.347-2.462-4.346-4.8-5.71-6.541-.7-.869-1.269-1.58-1.611-2.081a4.84,4.84,0,0,1-.546-.8,4.879,4.879,0,0,1,.634.717l1.688,2.018c1.434,1.694,3.458,4.01,5.792,6.459l.673.7H234.2a6.764,6.764,0,0,0,1.307-1.821c.349-.634.634-1.3.92-1.9a18.067,18.067,0,0,1,1.719-3.172,3.731,3.731,0,0,1,1.9-1.478,2.126,2.126,0,0,1,.634-.114C240.854,304.165,240.936,304.165,240.936,304.2Z" transform="translate(-176.649 -238.685)" fill="#263238"/>
        <path id="Path_107095" data-name="Path 107095" d="M265.353,303.33a4.44,4.44,0,0,1-.577.761c-.4.476-.983,1.148-1.745,1.941a47.148,47.148,0,0,1-6.528,5.608c-.514.362-1.028.711-1.523,1.034l-.228.146v-.279a14.909,14.909,0,0,0-.964-3.9,9.986,9.986,0,0,0-1.567-2.8,3.889,3.889,0,0,0-1.681-1.269c-.469-.159-.755-.178-.749-.209s.07,0,.2,0a2.259,2.259,0,0,1,.584.1,3.883,3.883,0,0,1,1.808,1.237,9.865,9.865,0,0,1,1.675,2.842,15.05,15.05,0,0,1,1.021,3.991l-.254-.127c.489-.33,1-.672,1.51-1.034a52.692,52.692,0,0,0,6.547-5.5c.787-.768,1.4-1.415,1.821-1.859A5.593,5.593,0,0,1,265.353,303.33Z" transform="translate(-185.477 -238.871)" fill="#263238"/>
        <path id="Path_107096" data-name="Path 107096" d="M254.283,403.53v-1c0-.666,0-1.624-.038-2.849,0-2.493-.07-6.072-.127-10.487-.127-8.85-.412-21.076-1.028-34.571s-1.466-25.695-2.144-34.52c-.355-4.4-.634-7.969-.837-10.456-.1-1.218-.171-2.17-.228-2.836,0-.317-.038-.558-.044-.742a1.1,1.1,0,0,1,0-.254,1.241,1.241,0,0,0,.038.247c.038.165.044.431.082.742.07.666.165,1.618.285,2.836.247,2.462.571,6.027.945,10.443.742,8.819,1.618,21.025,2.24,34.526s.863,25.727.933,34.583c.038,4.441.038,8.013,0,10.487v3.591a1.347,1.347,0,0,1-.076.254Z" transform="translate(-185.491 -239.781)" fill="#263238"/>
        <g id="Group_25135" data-name="Group 25135" transform="translate(64.008 65.5)" opacity="0.2">
          <path id="Path_107097" data-name="Path 107097" d="M249.31,304.989c1.44.818,1.973,2.639,1.979,4.289s-.387,3.3-.247,4.949a2.811,2.811,0,0,0,1.1,2.24c1,.634,2.278.038,3.305-.527a27.925,27.925,0,0,0,6.249-4.213,9.022,9.022,0,0,0,2.538-6.757c-3.045,3.267-6.116,5.24-9.447,7.816a13.793,13.793,0,0,0-1.675-4.942c-.863-1.5-2.087-3.045-3.807-2.855" transform="translate(-249.31 -304.97)"/>
        </g>
        <g id="Group_25136" data-name="Group 25136" transform="translate(53.128 66.407)" opacity="0.2">
          <path id="Path_107098" data-name="Path 107098" d="M232.16,309.268a17.7,17.7,0,0,0,4.238,6.008c.856.679,2.113,1.193,3.007.558a3.047,3.047,0,0,0,.895-2.392c.152-2.233.812-4.8.964-7.042-1.77,2-2.741,5.52-4.606,7.937-1.9-1.2-3-3.248-4.371-5.031" transform="translate(-232.16 -306.4)"/>
        </g>
        <g id="Group_25137" data-name="Group 25137" transform="translate(98.249 106.18)" opacity="0.2">
          <path id="Path_107099" data-name="Path 107099" d="M315.791,385.528l8.838-16.438c-2.614.26-4.371,2.728-5.71,4.987s-2.982,4.765-5.577,5.215a7.837,7.837,0,0,1-5.177-1.434,17.122,17.122,0,0,0-4.885-2.443Z" transform="translate(-303.28 -369.09)"/>
        </g>
        <g id="Group_25138" data-name="Group 25138" transform="translate(8.964 118.177)" opacity="0.2">
          <path id="Path_107100" data-name="Path 107100" d="M186.709,388s-6.154,6.478-10.3,7.429a15.093,15.093,0,0,1-12.13-2.538,2.271,2.271,0,0,0-.92-.488.692.692,0,0,0-.806.495,1,1,0,0,0,.431.78q6.344,5.907,13.222,11.242Z" transform="translate(-162.55 -388)"/>
        </g>
        <g id="Group_25139" data-name="Group 25139" transform="translate(57.472 74.02)" opacity="0.2">
          <path id="Path_107101" data-name="Path 107101" d="M243.64,318.4q-3.5,27.972-4.574,56.173c-.108,2.937-.184,5.964.863,8.711,1.218,3.172,3.807,5.647,6.344,7.969,1.072.99,2.538,2.056,3.845,1.44a3.585,3.585,0,0,0,1.237-1.155,18.09,18.09,0,0,0,3.661-6.776c1.84-7.905-5.621-15.728-3.94-23.671" transform="translate(-239.007 -318.4)"/>
        </g>
        <path id="Path_107102" data-name="Path 107102" d="M244.384,308.086l5.6-.146,1.5,3.014-1.8,5.037h-4.574l-2.424-4.511Z" transform="translate(-182.882 -240.556)" fill="#455a64"/>
        <path id="Path_107103" data-name="Path 107103" d="M245,320.63l-2.62,64.116,7.613,8.279,7.036-10-7.455-62.4Z" transform="translate(-182.768 -245.195)" fill="#455a64"/>
        <path id="Path_107104" data-name="Path 107104" d="M250.862,320.579a64.036,64.036,0,0,1-4.232-.07,7.734,7.734,0,0,1,4.232.07Z" transform="translate(-184.322 -245.056)" fill="#263238"/>
        <path id="Path_107105" data-name="Path 107105" d="M251.544,309.649a3.806,3.806,0,0,1-.711.971,15.664,15.664,0,0,1-2.106,1.992,15.92,15.92,0,0,1-2.417,1.586,3.6,3.6,0,0,1-1.11.47c-.044-.089,1.58-.926,3.324-2.316S251.468,309.579,251.544,309.649Z" transform="translate(-183.799 -241.18)" fill="#263238"/>
        <path id="Path_107106" data-name="Path 107106" d="M251.52,330.5a24.814,24.814,0,0,1-2.734,2.944,24.253,24.253,0,0,1-2.976,2.709,24.575,24.575,0,0,1,2.741-2.944A23.958,23.958,0,0,1,251.52,330.5Z" transform="translate(-184.022 -248.803)" fill="#263238"/>
        <path id="Path_107107" data-name="Path 107107" d="M251.757,337.78a62.019,62.019,0,0,1-6.357,6.294,30.452,30.452,0,0,1,3.064-3.267,30.112,30.112,0,0,1,3.293-3.026Z" transform="translate(-183.872 -251.465)" fill="#ebebeb"/>
        <path id="Path_107108" data-name="Path 107108" d="M252.312,344.5a40.794,40.794,0,0,1-3.566,3.769,41.48,41.48,0,0,1-3.807,3.54,40.356,40.356,0,0,1,3.566-3.775,39.78,39.78,0,0,1,3.807-3.534Z" transform="translate(-183.704 -253.921)" fill="#263238"/>
        <path id="Path_107109" data-name="Path 107109" d="M252.737,351.58a50.213,50.213,0,0,1-3.889,4.1,49.493,49.493,0,0,1-4.117,3.857,47.587,47.587,0,0,1,3.883-4.092,48.435,48.435,0,0,1,4.124-3.864Z" transform="translate(-183.627 -256.509)" fill="#ebebeb"/>
        <path id="Path_107110" data-name="Path 107110" d="M253.121,358.71a57.593,57.593,0,0,1-4.2,4.4,54.976,54.976,0,0,1-4.441,4.175,56.931,56.931,0,0,1,4.2-4.441,54.139,54.139,0,0,1,4.441-4.137Z" transform="translate(-183.536 -259.116)" fill="#263238"/>
        <path id="Path_107111" data-name="Path 107111" d="M253.539,365.679c.07.063-2,2.227-4.619,4.834a66.341,66.341,0,0,1-4.86,4.6,136.6,136.6,0,0,1,9.479-9.434Z" transform="translate(-183.382 -261.663)" fill="#ebebeb"/>
        <path id="Path_107112" data-name="Path 107112" d="M253.893,372.8c.063.063-2.163,2.379-4.968,5.177s-5.133,5-5.2,4.936,2.157-2.379,4.961-5.171S253.823,372.736,253.893,372.8Z" transform="translate(-183.261 -264.266)" fill="#263238"/>
        <path id="Path_107113" data-name="Path 107113" d="M254.378,379.8c.063.063-2.316,2.538-5.31,5.513s-5.475,5.342-5.539,5.279,2.309-2.538,5.31-5.513S254.308,379.736,254.378,379.8Z" transform="translate(-183.188 -266.825)" fill="#ebebeb"/>
        <path id="Path_107114" data-name="Path 107114" d="M254.544,387.119c.063.063-2.462,2.684-5.64,5.843s-5.805,5.678-5.875,5.615,2.462-2.684,5.64-5.843S254.481,387.043,254.544,387.119Z" transform="translate(-183.005 -269.5)" fill="#263238"/>
        <path id="Path_107115" data-name="Path 107115" d="M255.153,394c.063.063-2.6,2.823-5.951,6.16s-6.129,6-6.192,5.932,2.6-2.823,5.957-6.167S255.089,393.949,255.153,394Z" transform="translate(-182.998 -272.016)" fill="#ebebeb"/>
        <path id="Path_107116" data-name="Path 107116" d="M255.875,400.359c.063.07-2.918,3.14-6.655,6.865s-6.827,6.7-6.89,6.636,2.912-3.14,6.655-6.871S255.811,400.3,255.875,400.359Z" transform="translate(-182.749 -274.341)" fill="#263238"/>
        <path id="Path_107117" data-name="Path 107117" d="M246.139,419.123c-.063-.063,2.455-2.7,5.634-5.894s5.8-5.71,5.869-5.659-2.462,2.7-5.634,5.894S246.2,419.186,246.139,419.123Z" transform="translate(-184.142 -276.977)" fill="#ebebeb"/>
        <path id="Path_107118" data-name="Path 107118" d="M250.729,424.889a61.959,61.959,0,0,1,4.441-4.879,64.262,64.262,0,0,1,4.657-4.65,65.5,65.5,0,0,1-4.441,4.879,64.262,64.262,0,0,1-4.657,4.65Z" transform="translate(-185.82 -279.825)" fill="#263238"/>
        <path id="Path_107119" data-name="Path 107119" d="M250.992,323.73a19.67,19.67,0,0,1-2.424,2.633,19.343,19.343,0,0,1-2.658,2.4,19.951,19.951,0,0,1,2.424-2.639A19.446,19.446,0,0,1,250.992,323.73Z" transform="translate(-184.059 -246.328)" fill="#ebebeb"/>
        <path id="Path_107120" data-name="Path 107120" d="M149.5,394.264c-.926-.082-1.269-1.339-.977-2.221s1-1.592,1.269-2.481c.171-.5.247-1.1.685-1.408a1.377,1.377,0,0,1,1.586.07c2.582,2.208,4.485,4.359,7.3,6.75,2.715,2.3,5.64,5.247,8.508,7.359,1.611,1.193,3.585,2.424,3.807,4.441a3.217,3.217,0,0,1-2.842,3.407c-1.637.114-3.052-1.047-4.276-2.138q-7.664-6.839-15.334-13.672" transform="translate(-148.42 -269.8)" fill="#ff725e"/>
        <path id="Path_107121" data-name="Path 107121" d="M172.811,404.9a5.751,5.751,0,0,1-.787-.565c-.495-.381-1.224-.9-2.138-1.548a31.122,31.122,0,0,1-3.077-2.436l-3.547-3.223c-2.538-2.3-4.771-4.4-6.4-5.926l-1.9-1.827a4.765,4.765,0,0,1-.634-.7,5.488,5.488,0,0,1,.755.634l1.986,1.745c1.662,1.485,3.94,3.553,6.452,5.85,1.269,1.155,2.436,2.246,3.521,3.248a34.1,34.1,0,0,0,3.02,2.474c.895.672,1.605,1.231,2.081,1.637A4.821,4.821,0,0,1,172.811,404.9Z" transform="translate(-150.581 -270.072)" fill="#263238"/>
        <path id="Path_107122" data-name="Path 107122" d="M170.02,407.931a4.947,4.947,0,0,1-.825-.469c-.514-.317-1.269-.8-2.151-1.409-1.8-1.218-4.244-2.975-6.833-5.076s-4.841-4.073-6.421-5.564c-.793-.742-1.427-1.358-1.846-1.8a4.8,4.8,0,0,1-.634-.7,6.294,6.294,0,0,1,.73.634l1.9,1.713c1.624,1.447,3.889,3.407,6.471,5.482s5,3.851,6.763,5.114l2.087,1.491A5.637,5.637,0,0,1,170.02,407.931Z" transform="translate(-149.477 -271.622)" fill="#263238"/>
        <g id="Group_25140" data-name="Group 25140" transform="translate(4.967 123.716)" opacity="0.3">
          <path id="Path_107123" data-name="Path 107123" d="M160.532,396.73a14.263,14.263,0,0,1-2.024,2.252,14.067,14.067,0,0,1-2.259,2.024,28.042,28.042,0,0,1,4.282-4.276Z" transform="translate(-156.25 -396.73)" fill="#ebebeb"/>
        </g>
        <g id="Group_25141" data-name="Group 25141" transform="translate(14.586 132.623)" opacity="0.3">
          <path id="Path_107124" data-name="Path 107124" d="M176.016,410.77a15.618,15.618,0,0,1-2.189,2.335,16.032,16.032,0,0,1-2.417,2.1,15.227,15.227,0,0,1,2.189-2.335,15.684,15.684,0,0,1,2.417-2.1Z" transform="translate(-171.41 -410.77)" fill="#ebebeb"/>
        </g>
        <g id="Group_25142" data-name="Group 25142" transform="translate(52.443 60.729)" opacity="0.5">
          <path id="Path_107125" data-name="Path 107125" d="M235.68,297.45a27.573,27.573,0,0,1-2.163,3.654,27.021,27.021,0,0,1-2.436,3.477,28.55,28.55,0,0,1,2.163-3.654A26.294,26.294,0,0,1,235.68,297.45Z" transform="translate(-231.08 -297.45)" fill="#ebebeb"/>
        </g>
        <g id="Group_25143" data-name="Group 25143" transform="translate(72.358 60.456)" opacity="0.5">
          <path id="Path_107126" data-name="Path 107126" d="M265.978,304.659a27.854,27.854,0,0,1-1.9-3.75,26.594,26.594,0,0,1-1.605-3.889,52.85,52.85,0,0,1,3.515,7.613Z" transform="translate(-262.47 -297.02)" fill="#ebebeb"/>
        </g>
        <path id="Path_107127" data-name="Path 107127" d="M329.392,386.108a2.017,2.017,0,0,1-2.106,1.2c-.926-.1-1.77-.634-2.7-.7-.527-.057-1.129,0-1.523-.362a1.681,1.681,0,0,1-.286-1.554c.59-3.508,2.493-6.649,4.536-9.561s4.282-5.71,5.71-8.99c.8-1.84,1.561-4.035,3.458-4.695a3.217,3.217,0,0,1,3.965,2.03c.476,1.573-.343,3.21-1.136,4.644l-9.916,17.993" transform="translate(-212.129 -260.064)" fill="#ff725e"/>
        <path id="Path_107128" data-name="Path 107128" d="M337.379,366.68a5.471,5.471,0,0,1-.3.895c-.209.565-.533,1.377-.939,2.373-.818,1.992-2,4.727-3.407,7.7s-2.772,5.627-3.807,7.524c-.508.945-.933,1.707-1.237,2.227a5.2,5.2,0,0,1-.5.793,5.71,5.71,0,0,1,.387-.85l1.148-2.284c.971-1.9,2.3-4.581,3.7-7.55s2.627-5.71,3.5-7.658c.419-.939.768-1.719,1.034-2.328A5.242,5.242,0,0,1,337.379,366.68Z" transform="translate(-213.772 -262.029)" fill="#263238"/>
        <path id="Path_107129" data-name="Path 107129" d="M334.749,361.14a5.422,5.422,0,0,1-.482.857l-1.377,2.271c-1.161,1.9-2.728,4.581-4.365,7.613s-3.02,5.773-4,7.785l-1.155,2.392a6.05,6.05,0,0,1-.457.863,5.181,5.181,0,0,1,.336-.914c.241-.584.6-1.415,1.066-2.436.926-2.043,2.284-4.834,3.921-7.848s3.248-5.666,4.441-7.556c.634-.945,1.11-1.7,1.466-2.214A4.907,4.907,0,0,1,334.749,361.14Z" transform="translate(-212.207 -260.004)" fill="#263238"/>
        <g id="Group_25144" data-name="Group 25144" transform="translate(112.936 118.615)" opacity="0.5">
          <path id="Path_107130" data-name="Path 107130" d="M332.965,391.615a10.785,10.785,0,0,1-3.439-1.072,11.025,11.025,0,0,1-3.1-1.846c.051-.082,1.427.749,3.229,1.548S332.99,391.526,332.965,391.615Z" transform="translate(-326.43 -388.691)" fill="#ebebeb"/>
        </g>
        <g id="Group_25145" data-name="Group 25145" transform="translate(120.619 104.448)" opacity="0.5">
          <path id="Path_107131" data-name="Path 107131" d="M345.176,370.344a28.658,28.658,0,0,1-3.363-1.9,29.39,29.39,0,0,1-3.274-2.081,19.124,19.124,0,0,1,3.445,1.8,18.846,18.846,0,0,1,3.191,2.182Z" transform="translate(-338.54 -366.36)" fill="#ebebeb"/>
        </g>
      </g>
    </g>
  </g>
</svg>
