<svg id="Component_Character_Male_J" data-name="Component/Character/Male/J" xmlns="http://www.w3.org/2000/svg" xmlns:xlink="http://www.w3.org/1999/xlink" width="180" height="180" viewBox="0 0 180 180">
  <defs>
    <clipPath id="clip-path">
      <rect id="Rectangle_9966" data-name="Rectangle 9966" width="180" height="180" transform="translate(19357 -22370)" fill="#fff" stroke="#707070" stroke-width="1"/>
    </clipPath>
  </defs>
  <g id="Component_Character_Male_J-2" data-name="Component/Character/Male/J" transform="translate(-19357 22370)" clip-path="url(#clip-path)">
    <g id="Group_25171" data-name="Group 25171" transform="translate(29 182)">
      <g id="Group_25170" data-name="Group 25170" transform="translate(19490.504 -22407.117) rotate(-171)">
        <g id="Group_25064" data-name="Group 25064" transform="translate(0.001 0)">
          <path id="Path_106087" data-name="Path 106087" d="M25.556,15.476,21.068,51.5A14.433,14.433,0,0,0,22.56,59.07a15.005,15.005,0,0,0,1.823,2.936,15.922,15.922,0,0,0,3.138,2.948,1.314,1.314,0,0,1-.237,2.474c-1.184.13-4.381-1.587-6.9-5.044S17.6,65.582,17.457,68s-.924,9.851-1.693,10.383c-1.184.77-2.2-.332-2.013-2.747s.284-9.673-.995-9.72-1.8,12.266-1.8,12.266.308,2.664-1.184,2.652c-2.652,0-1.113-13.024-.935-14.208.118-.852-1.267-.959-1.35,0s-.261,12.29-2.96,12.313c-2.084,0,1.184-10.727-.095-13.13S2.8,74.225.81,74.154c-.734,0-1.291-.142-.189-6.3C1.213,64.54,3.4,59.768,4.066,53.3l.178-1.669C4.374,43.583,6.15,19.324,13.467.854,15.551-4.288,25.556,15.476,25.556,15.476Z" transform="translate(0 0)" fill="#b78876"/>
          <path id="Path_106088" data-name="Path 106088" d="M0,2.415a6.7,6.7,0,0,0,1.054-.272A3.824,3.824,0,0,0,3.1.45L3.351,0l.142.5a6.25,6.25,0,0,0,.983,1.965,7.187,7.187,0,0,0,3.4,2.51c1.042.367,1.752.343,1.752.438a3.47,3.47,0,0,1-1.847-.13A6.748,6.748,0,0,1,4.1,2.747,6.121,6.121,0,0,1,3.078.627h.391A3.718,3.718,0,0,1,1.1,2.356,1.788,1.788,0,0,1,0,2.415Z" transform="translate(8.076 54.167)" fill="#aa6550"/>
        </g>
      </g>
      <g id="character-3--inject-38" transform="translate(19323.215 -22528)">
        <path id="Path_4399" data-name="Path 4399" d="M455.786,133.867a19.817,19.817,0,0,1,21.376,18.566c.551,9.209,1.062,19.171.995,24.2-.134,10.755-10.9,12.449-10.9,12.449s1.546,18.714,1.344,21.739l-28.5,1.344-2.581-57.581a19.83,19.83,0,0,1,18.27-20.663Z" transform="translate(-375.633 -133.256)" fill="#b78876"/>
        <path id="Path_4400" data-name="Path 4400" d="M463.206,175.823a24.965,24.965,0,0,1-14.036-4.033s3.321,7.744,14.062,6.722Z" transform="translate(-371.612 -120.173)" fill="#aa6550"/>
        <path id="Path_4401" data-name="Path 4401" d="M440.077,152.087c-.175-.081-7.394-2.191-7.166,5.176s7.582,5.606,7.6,5.378S440.077,152.087,440.077,152.087Z" transform="translate(-377.214 -127.076)" fill="#b78876"/>
        <path id="Path_4402" data-name="Path 4402" d="M437.7,159.3a3.035,3.035,0,0,1-.35.2,1.237,1.237,0,0,1-.954,0,3.186,3.186,0,0,1-1.56-2.8,4.342,4.342,0,0,1,.3-1.855,1.506,1.506,0,0,1,.941-1.008.645.645,0,0,1,.766.323c.108.2.067.35.108.363s.148-.134.081-.43a.793.793,0,0,0-.309-.457.968.968,0,0,0-.713-.161,1.788,1.788,0,0,0-1.344,1.183,4.489,4.489,0,0,0-.377,2.07,3.334,3.334,0,0,0,1.976,3.119,1.344,1.344,0,0,0,1.17-.229C437.683,159.56,437.724,159.318,437.7,159.3Z" transform="translate(-376.742 -126.482)" fill="#aa6550"/>
        <path id="Path_4403" data-name="Path 4403" d="M465.725,153.1a1.546,1.546,0,0,1-1.492,1.56,1.465,1.465,0,0,1-1.573-1.344,1.519,1.519,0,0,1,1.479-1.56A1.479,1.479,0,0,1,465.725,153.1Z" transform="translate(-368.967 -127.076)" fill="#263238"/>
        <path id="Path_4404" data-name="Path 4404" d="M466.477,150.923c-.188.2-1.344-.659-3.011-.659s-2.877.834-3.052.632.108-.444.632-.834a4.235,4.235,0,0,1,2.447-.753,4.033,4.033,0,0,1,2.393.78C466.4,150.48,466.6,150.843,466.477,150.923Z" transform="translate(-367.758 -127.915)" fill="#263238"/>
        <path id="Path_4405" data-name="Path 4405" d="M453.629,153.1a1.56,1.56,0,0,1-1.492,1.56,1.479,1.479,0,0,1-1.586-1.344,1.546,1.546,0,0,1,1.479-1.56,1.492,1.492,0,0,1,1.6,1.344Z" transform="translate(-373.137 -127.076)" fill="#263238"/>
        <path id="Path_4406" data-name="Path 4406" d="M454.363,151.153c-.188.2-1.344-.659-3.011-.659s-2.864.834-3.038.632.094-.444.632-.834a4.222,4.222,0,0,1,2.433-.753,4.033,4.033,0,0,1,2.407.78C454.283,150.71,454.457,151.073,454.363,151.153Z" transform="translate(-371.926 -127.836)" fill="#263238"/>
        <path id="Path_4407" data-name="Path 4407" d="M457.463,163.4a11.226,11.226,0,0,1,2.689-.484c.43,0,.82-.121.9-.417a2.245,2.245,0,0,0-.282-1.25c-.4-1.022-.82-2.1-1.25-3.213a54.791,54.791,0,0,1-2.81-8.429,55.391,55.391,0,0,1,3.482,8.174c.417,1.129.807,2.218,1.2,3.24a2.474,2.474,0,0,1,.215,1.667,1.062,1.062,0,0,1-.7.618,2.889,2.889,0,0,1-.713.094A10.472,10.472,0,0,1,457.463,163.4Z" transform="translate(-369.016 -127.811)" fill="#263238"/>
        <path id="Path_4408" data-name="Path 4408" d="M453.711,160.72c.269,0,.269,1.788,1.815,3.065s3.442,1.076,3.455,1.344-.417.35-1.237.363a4.477,4.477,0,0,1-2.891-1.008,3.939,3.939,0,0,1-1.344-2.554C453.389,161.164,453.59,160.72,453.711,160.72Z" transform="translate(-370.131 -123.985)" fill="#263238"/>
        <path id="Path_4409" data-name="Path 4409" d="M455.055,146.24c-.161.444-1.815.229-3.751.471s-3.522.766-3.778.35c-.108-.188.161-.6.793-1.049a6.561,6.561,0,0,1,5.741-.632C454.772,145.675,455.122,146.025,455.055,146.24Z" transform="translate(-372.187 -129.402)" fill="#263238"/>
        <path id="Path_4410" data-name="Path 4410" d="M465.894,147.432c-.282.376-1.425,0-2.8,0s-2.528.242-2.8-.148c-.121-.188,0-.565.565-.928a3.885,3.885,0,0,1,2.286-.6,3.792,3.792,0,0,1,2.232.753C465.867,146.786,466.028,147.176,465.894,147.432Z" transform="translate(-367.793 -129.142)" fill="#263238"/>
        <path id="Path_4411" data-name="Path 4411" d="M437.8,158.179a11.44,11.44,0,0,0,0,3.388,3.9,3.9,0,0,0,1.882,2.689c1.855.928,4.181-.5,5-2.393a12.341,12.341,0,0,0,.417-6.117,29.576,29.576,0,0,1,.121-8.429,12.1,12.1,0,0,1,4.033-7.219,7.636,7.636,0,0,1,7.932-1.143,43.7,43.7,0,0,1,4.195,3.092,6.507,6.507,0,0,0,4.45,1.116,4.2,4.2,0,0,0,3.415-2.837,4.544,4.544,0,0,0-1.748-4.517,10.3,10.3,0,0,0-4.705-1.9A25.342,25.342,0,0,0,448.826,135a18.324,18.324,0,0,0-10.15,9.411c-2.138,5.042-.686,9.034-.995,14.641" transform="translate(-375.637 -133.396)" fill="#263238"/>
        <path id="Path_4412" data-name="Path 4412" d="M554.415,188.784l-17.625-4.248-11.629,31.54-32.131-28.743h0c-3.428-2.5-9.317-2.81-13.794-3.374h-.35c-1.734-.2-2.581-.457-3.63-.578-7.744,5.821-21,6.2-28.609.188,0,0-5.768,1.344-9.209,1.963-10.849,2.084-18.66,9.975-20.838,17.276l13.592,31.324,2.595,29.752-7.515,26.646a4.611,4.611,0,0,0,3.858,5.835l67.287,1.022,1.1-.538a12.53,12.53,0,0,0,1.8-8.523c-2.9-12.745-.874-50.765-1.492-62.434,13.2,12.826,27.762,23.46,38.4,16.872C545.085,237.237,554.415,188.784,554.415,188.784Z" transform="translate(-382.83 -116.181)" fill="#ff725e"/>
        <path id="Path_4413" data-name="Path 4413" d="M439.33,182.94Z" transform="translate(-375.001 -116.333)" fill="#ff725e"/>
        <path id="Path_4414" data-name="Path 4414" d="M437.34,187.7l1.56-10.769,14.667,5.391,4.141,7.287,2.568-8,8.04-2.769,3.442,7.152-5.9,8.349-11.064,2.245Z" transform="translate(-375.687 -118.402)" fill="#ff725e"/>
        <path id="Path_4415" data-name="Path 4415" d="M457.963,189.883a3.127,3.127,0,0,1-.551-.444,16.033,16.033,0,0,1-1.344-1.452,21.6,21.6,0,0,1-3.536-6.09h.538l-3.388,8.523c-.592,1.465-1.17,2.877-1.707,4.221l-.175.444-.35-.336c-2.958-2.864-5.512-5.378-7.314-7.166l-2.1-2.138a4.365,4.365,0,0,1-.7-.833,4.585,4.585,0,0,1,.86.672l2.218,2c1.882,1.721,4.49,4.168,7.488,7l-.524.108,1.68-4.221c1.264-3.092,2.447-5.983,3.469-8.51l.282-.7.255.713a24.2,24.2,0,0,0,3.267,6.09C457.331,189.077,458.017,189.83,457.963,189.883Z" transform="translate(-375.687 -117.011)" fill="#263238"/>
        <path id="Path_4416" data-name="Path 4416" d="M466.339,184.782a10.889,10.889,0,0,1-1.721,2.366,23.917,23.917,0,0,1-5.606,4.947l-.323.188-.134-.363c-.484-1.344-1.035-2.689-1.627-4.181-.887-2.191-1.707-4.275-2.353-6.13h.578c-.484,2.433-1.089,4.423-1.452,5.821a12.59,12.59,0,0,1-.632,2.2,8.47,8.47,0,0,1,.3-2.285c.269-1.425.78-3.442,1.2-5.848l.188-1.062.39,1.022c.672,1.828,1.519,3.885,2.406,6.09.592,1.465,1.129,2.89,1.6,4.208l-.457-.161a26.473,26.473,0,0,0,5.633-4.652,24.187,24.187,0,0,1,2.016-2.164Z" transform="translate(-370.269 -117.194)" fill="#263238"/>
        <path id="Path_4417" data-name="Path 4417" d="M457.97,297.374s0-.39.081-1.116.2-1.855.336-3.213.3-3.092.444-5.068c.067-.995.134-2.057.215-3.173s.094-2.312.148-3.563c.229-4.988.215-10.943.094-17.558s-.538-13.861-1.049-21.51c-1.1-15.232-2.608-28.972-3.737-38.907-.565-4.921-1.022-8.927-1.344-11.777-.148-1.344-.255-2.406-.35-3.2a6.437,6.437,0,0,1-.067-1.129,6.631,6.631,0,0,1,.2,1.116c.121.78.269,1.842.471,3.186.39,2.769.941,6.722,1.56,11.75,1.25,9.922,2.823,23.675,3.926,38.907.524,7.623.86,14.9.995,21.51s0,12.584-.229,17.585c-.067,1.25-.134,2.433-.188,3.563s-.2,2.178-.282,3.173c-.175,1.99-.323,3.7-.551,5.082s-.35,2.406-.457,3.186a6.46,6.46,0,0,1-.215,1.156Z" transform="translate(-370.384 -114.879)" fill="#263238"/>
        <path id="Path_4418" data-name="Path 4418" d="M497.177,220.035a30.53,30.53,0,0,1-.336-6.4,30.452,30.452,0,0,1,.336-6.386,30.452,30.452,0,0,1,.336,6.386A30.526,30.526,0,0,1,497.177,220.035Z" transform="translate(-355.209 -107.96)" fill="#263238"/>
        <path id="Path_4419" data-name="Path 4419" d="M501.612,220.832c0,.6-.9-1.1-2.877-6.588a29.392,29.392,0,0,1-1.775-6.964A57.436,57.436,0,0,1,499.366,214a62.179,62.179,0,0,1,2.245,6.83Z" transform="translate(-355.153 -107.95)" fill="#263238"/>
        <path id="Path_4420" data-name="Path 4420" d="M474.2,436.712l-1.022,24.428s24.482,9.249,24.737,13.78l-47.431-.282V436.51Z" transform="translate(-371.161 -29.003)" fill="#ff725e"/>
        <path id="Path_4421" data-name="Path 4421" d="M456.812,453.254a1.949,1.949,0,0,0-1.344,2.2,1.869,1.869,0,0,0,2.178,1.344,2.044,2.044,0,0,0,1.425-2.339,1.949,1.949,0,0,0-2.42-1.17" transform="translate(-369.454 -23.255)" fill="#e0e0e0"/>
        <g id="Group_371" data-name="Group 371" transform="translate(79.319 441.789)" opacity="0.6">
          <path id="Path_4422" data-name="Path 4422" d="M450.48,465.855l.148-3.845,45.427,1.707s2.1.928,1.855,2.42Z" transform="translate(-450.48 -462.01)" fill="#fff"/>
        </g>
        <path id="Path_4423" data-name="Path 4423" d="M469.04,454.717c0,.229-1.17.323-2.312,1.062s-1.748,1.707-1.963,1.613.134-1.425,1.546-2.3S469.134,454.5,469.04,454.717Z" transform="translate(-366.261 -22.809)" fill="#263238"/>
        <path id="Path_4424" data-name="Path 4424" d="M472.43,456.232c0,.229-.941.618-1.734,1.586s-1.035,2.017-1.264,2-.363-1.344.645-2.514S472.43,456.017,472.43,456.232Z" transform="translate(-364.69 -22.241)" fill="#263238"/>
        <path id="Path_4425" data-name="Path 4425" d="M473.77,461.67c-.215,0-.524-1.116.081-2.38s1.68-1.761,1.788-1.56-.578.86-1.062,1.909S474,461.657,473.77,461.67Z" transform="translate(-363.234 -21.71)" fill="#263238"/>
        <path id="Path_4426" data-name="Path 4426" d="M468.913,450.708c-.108.2-1.17-.121-2.474,0s-2.326.5-2.447.3.86-1.022,2.406-1.1S469.021,450.52,468.913,450.708Z" transform="translate(-366.511 -24.394)" fill="#263238"/>
        <path id="Path_4427" data-name="Path 4427" d="M469.569,447.812a4.5,4.5,0,0,1-2.366,0,10.863,10.863,0,0,1-2.487-.78,12.2,12.2,0,0,1-1.344-.726,3.185,3.185,0,0,1-.713-.565,1.022,1.022,0,0,1-.108-1.237,1.344,1.344,0,0,1,1.022-.524,2.865,2.865,0,0,1,.887.134,7.971,7.971,0,0,1,1.479.511,8.174,8.174,0,0,1,2.178,1.452c1.1,1.022,1.465,1.9,1.344,1.936s-.632-.645-1.748-1.506a9.6,9.6,0,0,0-2.111-1.2,8.44,8.44,0,0,0-1.344-.43c-.511-.134-.928-.148-1.062.081s0,.121,0,.269a2.221,2.221,0,0,0,.524.4,10,10,0,0,0,1.25.726,13.753,13.753,0,0,0,2.285.9A15.146,15.146,0,0,1,469.569,447.812Z" transform="translate(-367.059 -26.431)" fill="#263238"/>
        <path id="Path_4428" data-name="Path 4428" d="M467.67,449.009a3.872,3.872,0,0,1-.618-2.3,7.851,7.851,0,0,1,.336-2.608,7.731,7.731,0,0,1,.618-1.438,1.936,1.936,0,0,1,1.519-1.183,1.129,1.129,0,0,1,.995.659,3.508,3.508,0,0,1,.229.874,4.905,4.905,0,0,1,0,1.6,5.457,5.457,0,0,1-1.035,2.447c-.928,1.223-1.9,1.506-1.922,1.425a10.514,10.514,0,0,0,1.452-1.734,5.606,5.606,0,0,0,.766-2.232,4.72,4.72,0,0,0,0-1.344c-.067-.511-.255-.914-.444-.86a1.725,1.725,0,0,0-.833.766,7.86,7.86,0,0,0-.592,1.344,8.338,8.338,0,0,0-.484,2.366C467.549,448.094,467.791,448.968,467.67,449.009Z" transform="translate(-365.456 -27.292)" fill="#263238"/>
        <path id="Path_4429" data-name="Path 4429" d="M412.694,431.32l-7.7,30.572-13.068,22.425a3.24,3.24,0,0,0,1.344,4.531h0a3.24,3.24,0,0,0,2.958,0c5.862-3.159,27.386-14.909,27.829-17.181.511-2.689,10.271-31.714,10.271-31.714Z" transform="translate(-391.481 -30.791)" fill="#ff725e"/>
        <g id="Group_372" data-name="Group 372" transform="translate(1.801 438.764)" opacity="0.6">
          <path id="Path_4430" data-name="Path 4430" d="M392.82,479.052l31.352-19.292-.35,1.344a4.839,4.839,0,0,1-1.949,2.689c-2.568,1.734-9.72,6.372-26,15.245a3.267,3.267,0,0,1-3.052,0Z" transform="translate(-392.82 -459.76)" fill="#fff"/>
        </g>
        <g id="Group_373" data-name="Group 373" transform="translate(28.368 427.159)" opacity="0.6">
          <path id="Path_4431" data-name="Path 4431" d="M413.843,451.211a1.936,1.936,0,0,0-1.2,2.312,1.882,1.882,0,0,0,2.286,1.21,2.044,2.044,0,0,0,1.25-2.46,1.936,1.936,0,0,0-2.514-.995" transform="translate(-412.581 -451.128)" fill="#fff"/>
        </g>
        <path id="Path_4432" data-name="Path 4432" d="M402.084,466.912a10.081,10.081,0,0,0-2.017-3.106,9.612,9.612,0,0,0-3.307-1.627c0-.094.444-.215,1.183-.121a5.189,5.189,0,0,1,4.114,3.657C402.245,466.441,402.164,466.912,402.084,466.912Z" transform="translate(-389.663 -20.216)" fill="#263238"/>
        <path id="Path_4433" data-name="Path 4433" d="M399.6,469.11c-.175.094-.887-1.17-2.326-2.057a25.337,25.337,0,0,0-2.864-1.2,3.6,3.6,0,0,1,3.227.618C399.236,467.443,399.774,469.07,399.6,469.11Z" transform="translate(-390.472 -18.946)" fill="#263238"/>
        <path id="Path_4434" data-name="Path 4434" d="M406.739,464.074a34.056,34.056,0,0,0-3.388-3.415,34.647,34.647,0,0,0-4.222-2.3A8.846,8.846,0,0,1,406.739,464.074Z" transform="translate(-388.846 -21.478)" fill="#263238"/>
        <path id="Path_4435" data-name="Path 4435" d="M409.111,456.563c-.134.161-1.627-1.008-3.778-1.694s-4.033-.632-4.033-.833a6.238,6.238,0,0,1,4.262.175A6.318,6.318,0,0,1,409.111,456.563Z" transform="translate(-388.099 -23.069)" fill="#263238"/>
        <path id="Path_4436" data-name="Path 4436" d="M411.1,449.911a16.132,16.132,0,0,0-3.885-1.869,15.476,15.476,0,0,0-4.315-.094c0-.081.4-.377,1.223-.578a6.923,6.923,0,0,1,3.253,0,7,7,0,0,1,2.891,1.465A3.578,3.578,0,0,1,411.1,449.911Z" transform="translate(-387.548 -25.33)" fill="#263238"/>
        <path id="Path_4437" data-name="Path 4437" d="M407.446,448.094a2.594,2.594,0,0,1,.269-1.156,8.067,8.067,0,0,1,1.748-2.689,3.576,3.576,0,0,1,1.99-1.344,1.344,1.344,0,0,1,1.344.672,2.084,2.084,0,0,1,.094,1.506,4.544,4.544,0,0,1-4.974,3,5.3,5.3,0,0,1-4.275-4.033,1.828,1.828,0,0,1,.323-1.506,1.344,1.344,0,0,1,1.465-.3,4.49,4.49,0,0,1,1.707,1.6,9.06,9.06,0,0,1,1.425,2.931,2.824,2.824,0,0,1,.175,1.183,14.708,14.708,0,0,0-1.99-3.818,4.141,4.141,0,0,0-1.533-1.344.672.672,0,0,0-.793.161,1.2,1.2,0,0,0-.148.995,4.706,4.706,0,0,0,3.738,3.469,3.952,3.952,0,0,0,4.275-2.487,1.532,1.532,0,0,0,0-1.049.713.713,0,0,0-.739-.39,3.32,3.32,0,0,0-1.694,1.049A12.1,12.1,0,0,0,407.446,448.094Z" transform="translate(-387.308 -27.063)" fill="#263238"/>
        <path id="Path_4438" data-name="Path 4438" d="M448.527,184.58l3.334,1.734-.632,5.606-5.189-1.089Z" transform="translate(-372.69 -115.768)" fill="#e0e0e0"/>
        <path id="Path_4440" data-name="Path 4440" d="M453.57,186.175l2.514-2.2,2.312,5.862-3.307,1.586Z" transform="translate(-370.097 -115.978)" fill="#e0e0e0"/>
        <path id="Path_4441" data-name="Path 4441" d="M451.229,191.15l-1.56,66.292,11.2,11.078L466.3,253.8l-10.755-63Z" transform="translate(-371.44 -113.626)" fill="#e0e0e0"/>
        <path id="Path_4442" data-name="Path 4442" d="M451.571,184.482c.766-.094,1.815-.3,2.689-.471a1.828,1.828,0,0,1,2,.914l1.412,2.608a1.883,1.883,0,0,1,.188,1.237l-.565,2.917a1.842,1.842,0,0,1-1.533,1.465l-3.2.645a1.855,1.855,0,0,1-2.017-.981l-1.506-3.146a1.923,1.923,0,0,1,0-1.586l1.116-2.514a1.842,1.842,0,0,1,1.412-1.089Z" transform="translate(-371.715 -115.979)" fill="#e0e0e0"/>
        <path id="Path_4443" data-name="Path 4443" d="M455.948,184.87a6.516,6.516,0,0,1-.847,1.062c-.551.632-1.344,1.492-2.191,2.433s-1.667,1.775-2.245,2.366a6.936,6.936,0,0,1-.995.941,6.5,6.5,0,0,1,.847-1.062c.551-.632,1.344-1.492,2.2-2.433s1.654-1.775,2.245-2.38A7.766,7.766,0,0,1,455.948,184.87Z" transform="translate(-371.44 -115.668)" fill="#263238"/>
        <path id="Path_4444" data-name="Path 4444" d="M452.65,187.867a7.679,7.679,0,0,1-1.546-1.344,7.232,7.232,0,0,1-1.344-1.492,7.918,7.918,0,0,1,1.546,1.344,9.12,9.12,0,0,1,1.344,1.492Z" transform="translate(-371.409 -115.613)" fill="#263238"/>
        <path id="Path_4445" data-name="Path 4445" d="M454.79,192.2a35.4,35.4,0,0,1,.793-3.832,3.778,3.778,0,0,0-.793-2.487,2.124,2.124,0,0,1-.39-1.089,6.226,6.226,0,0,0,.551.995c.175.3.43.645.645,1.076a2.554,2.554,0,0,1,.255,1.546c-.215,1.089-.511,2-.686,2.689a5.289,5.289,0,0,1-.377,1.1Z" transform="translate(-369.811 -115.695)" fill="#263238"/>
        <path id="Path_4446" data-name="Path 4446" d="M503.134,268.241l-4.705,243.336a2.984,2.984,0,0,1-3.011,2.931l-28.353-.255a3,3,0,0,1-2.958-3.052l4.369-209.35L431.6,509.749a5.378,5.378,0,0,1-5.445,4.41l-23.782-.82a5.378,5.378,0,0,1-5.1-6.171L434.569,267.3Z" transform="translate(-389.506 -87.279)" fill="#263238"/>
        <path id="Path_4447" data-name="Path 4447" d="M409.62,497.821a3.682,3.682,0,0,1,.067-.578l.255-1.667c.242-1.506.592-3.67,1.049-6.426.928-5.606,2.272-13.673,3.939-23.621,3.321-19.964,7.905-47.5,12.974-77.908s9.491-58.011,12.637-77.975c1.546-9.962,2.81-18.028,3.684-23.648.43-2.769.78-4.92,1.008-6.426l.282-1.667c.067-.376.121-.565.121-.565a4.493,4.493,0,0,1,0,.565,16.847,16.847,0,0,1-.215,1.68c-.2,1.506-.511,3.67-.887,6.453-.793,5.633-2.043,13.7-3.482,23.675-3.025,19.991-7.408,47.578-12.436,77.975s-9.72,57.957-13.175,77.881c-1.748,9.935-3.159,17.975-4.141,23.581-.511,2.756-.9,4.907-1.17,6.4-.134.713-.242,1.264-.323,1.667A2.406,2.406,0,0,1,409.62,497.821Z" transform="translate(-385.234 -83.821)" fill="#455a64"/>
        <path id="Path_4448" data-name="Path 4448" d="M463.684,498.667c-.188,0,.134-49.528.713-110.6s1.2-110.6,1.344-110.6-.134,49.514-.713,110.617S463.859,498.667,463.684,498.667Z" transform="translate(-366.632 -83.78)" fill="#455a64"/>
        <path id="Path_4449" data-name="Path 4449" d="M481.964,442.713c0,.188-7.73.336-17.262.336s-17.262-.148-17.262-.336,7.73-.323,17.262-.323S481.964,442.538,481.964,442.713Z" transform="translate(-372.208 -26.978)" fill="#455a64"/>
        <path id="Path_4450" data-name="Path 4450" d="M433.056,441.7a4.958,4.958,0,0,1-1.344.134l-3.778.135-12.449.3c-4.867.108-9.276.148-12.463.121-1.6,0-2.891,0-3.778-.094a4.879,4.879,0,0,1-1.344-.121,5.845,5.845,0,0,1,1.344-.134l3.778-.121,12.463-.309c4.867-.094,9.276-.134,12.463-.108,1.6,0,2.891,0,3.778.081a6.318,6.318,0,0,1,1.331.121Z" transform="translate(-389.27 -27.287)" fill="#455a64"/>
        <path id="Path_4451" data-name="Path 4451" d="M455.5,270.18a25.3,25.3,0,0,1-.094,4.208c-.148,2.595-.39,6.184-.713,10.123-.175,1.976-.282,3.858-.524,5.593a10.754,10.754,0,0,1-1.506,4.4,6.238,6.238,0,0,1-2.3,2.138,2.124,2.124,0,0,1-1.1.323,7,7,0,0,0,2.984-2.689,10.863,10.863,0,0,0,1.344-4.221c.2-1.681.282-3.576.457-5.552.323-3.953.645-7.515.914-10.11A26.447,26.447,0,0,1,455.5,270.18Z" transform="translate(-371.581 -86.287)" fill="#455a64"/>
        <g id="Group_375" data-name="Group 375" transform="translate(47.026 135.396)" opacity="0.3">
          <path id="Path_4452" data-name="Path 4452" d="M426.769,259.413a12.7,12.7,0,0,0,11.051,3.173c2.783-.565,5.378-2.084,8.268-1.9,3.106.2,5.673,2.38,8.51,3.657,5.284,2.406,11.454,1.64,17.074.134,2.581-.686,5.27-1.613,6.937-3.711a12.423,12.423,0,0,0,2.138-5.754,59.3,59.3,0,0,0,.834-11.441,10.93,10.93,0,0,0-1.842-6.8,7.784,7.784,0,0,0-5.122-2.581,19.8,19.8,0,0,0-5.835.323,96.434,96.434,0,0,0-42.322,18.149" transform="translate(-426.46 -234.107)"/>
        </g>
        <path id="Path_4453" data-name="Path 4453" d="M462.84,259.651s-35.627,15.918-39.243,16.765c-12.019,2.689-25.759-8.712-21.941-21.645,1.412-4.813,20.569-58.051,20.569-58.051l18.23,25.181-7.717,25.786,20.166-1.344Z" transform="translate(-388.2 -111.587)" fill="#ff725e"/>
        <path id="Path_4454" data-name="Path 4454" d="M443.273,240.087a6.883,6.883,0,0,1-1.412.2l-3.9.323c-3.307.255-7.945.578-13.229.914h-.444l.134-.43,1.183-4.033c1.8-6.023,3.469-11.454,4.705-15.393l1.492-4.638a10.285,10.285,0,0,1,.632-1.681,10.062,10.062,0,0,1-.4,1.748c-.336,1.223-.766,2.81-1.344,4.705-1.129,3.953-2.689,9.411-4.531,15.434-.4,1.344-.807,2.689-1.2,4.033l-.309-.4c5.27-.309,9.922-.551,13.242-.7l3.9-.148A7.353,7.353,0,0,1,443.273,240.087Z" transform="translate(-380.181 -105.171)" fill="#263238"/>
        <path id="Path_4455" data-name="Path 4455" d="M453.01,245.081c.067.161-7.744,3.522-17.477,7.529s-17.625,7.112-17.692,6.951,7.744-3.536,17.477-7.529S453.01,244.973,453.01,245.081Z" transform="translate(-382.403 -94.932)" fill="#263238"/>
        <path id="Path_4456" data-name="Path 4456" d="M441.549,236.913l-2.81-13.673a1.761,1.761,0,0,1,1.734-2.111l35.385.175a1.761,1.761,0,0,1,1.734,1.963l-3.657,31.3a2.46,2.46,0,0,1-2.447,2.165l-23.07-.188a2.46,2.46,0,0,1-2.353-1.842Z" transform="translate(-375.217 -103.18)" fill="#455a64"/>
        <path id="Path_4457" data-name="Path 4457" d="M438.5,227.52h0a3.724,3.724,0,0,1,3.482,2.366,7.972,7.972,0,0,0,2.366,3.791c1.734.941,4.732,1.707,6.319.928s7.892-6.453,8.994-5.821,2.057,2.044.954,3.307-6.951,5.055-5.848,6.319,13.444-4.289,15.326-3.8,3,1.654,1.9,2.42-9.478,3.912-9.949,5.028c0,0,12.637-3.321,13.108-2.527s1.264,2.043,0,2.527-12.167,3.307-13.108,3.791a23.243,23.243,0,0,1-4.88,1.344c-.336,0-2.81.833-5.082,1.613a11.159,11.159,0,0,1-7.865-.2l-1.277-.524a5.028,5.028,0,0,1-3.119-4.947l.269-4.3-1.344-3.563Z" transform="translate(-375.287 -100.979)" fill="#b78876"/>
        <path id="Path_4458" data-name="Path 4458" d="M454.989,225.394a1.344,1.344,0,1,1-1.344-1.344A1.344,1.344,0,0,1,454.989,225.394Z" transform="translate(-370.534 -102.174)" fill="#fafafa"/>
      </g>
    </g>
  </g>
</svg>
