<svg id="Component_Character_Male_E" data-name="Component/Character/Male/E" xmlns="http://www.w3.org/2000/svg" xmlns:xlink="http://www.w3.org/1999/xlink" width="180" height="180" viewBox="0 0 180 180">
  <defs>
    <clipPath id="clip-path">
      <rect id="Rectangle_9952" data-name="Rectangle 9952" width="180" height="180" fill="#fff" stroke="#707070" stroke-width="1"/>
    </clipPath>
  </defs>
  <g id="Component_Character_Male_E-2" data-name="Component/Character/Male/E" clip-path="url(#clip-path)">
    <g id="Couple--inject-897" transform="translate(9.748 27.011)">
      <path id="Path_13939" data-name="Path 13939" d="M29.431,0h0L50.247,13.849A290.356,290.356,0,0,1,13.226,66.291L0,54.9Z" transform="matrix(0.602, -0.799, 0.799, 0.602, 98.241, 134.611)" fill="#eb996e"/>
      <path id="Path_13975" data-name="Path 13975" d="M457.3,457.235a.324.324,0,0,0,.222.271c.222.1.308.135.345.086s-.061-.172-.209-.271S457.341,457.174,457.3,457.235Z" transform="translate(-319.18 -27.981)" fill="#263238"/>
      <path id="Path_14015" data-name="Path 14015" d="M562.187,197.227l-11.793,14.846,7.706-39.712a14.244,14.244,0,0,1,3.693-6.61,15.21,15.21,0,0,1,2.6-2.191,15.512,15.512,0,0,1,3.841-1.748c1.231-.258,1.6-1.908.542-2.388s-4.579.148-7.989,2.6-1.625-3.828-1.022-6.155,2.142-9.491,1.576-10.217c-.825-1.071-2.154-.357-2.708,1.945s-2.684,9.122-3.89,8.777,2.056-12,2.056-12,1.1-2.388-.283-2.831c-2.462-.812-5.01,11.818-5.219,13.024-.148.837-1.477.5-1.231-.382s3.508-11.571.985-12.408c-1.933-.652-2.179,10.365-4.1,12.224s1.046-8.346-.825-8.9c-.7-.2-1.231-.246-2.105,5.835-.455,3.274.135,8.4-1.231,14.637l-.345,1.625c-2.351,7.558-10.71,36.191-9.516,55.678a14.7,14.7,0,0,0,23.783,10.513,137.427,137.427,0,0,0,21.85-21.666Z" transform="translate(-532.81 -100.91)" fill="#eb996e"/>
      <path id="Path_14016" data-name="Path 14016" d="M550,159.539a5.428,5.428,0,0,1,.9.579,3.693,3.693,0,0,1,1.4,2.2l.1.492.283-.419a6.154,6.154,0,0,1,1.514-1.539,6.98,6.98,0,0,1,3.939-1.293c1.083,0,1.748.209,1.773.123a3.4,3.4,0,0,0-1.773-.455,6.746,6.746,0,0,0-4.21,1.231,6.216,6.216,0,0,0-1.6,1.674l.382.074a3.693,3.693,0,0,0-1.662-2.327C550.431,159.539,550.062,159.5,550,159.539Z" transform="translate(-535.321 -96.815)" fill="#d1734a"/>
      <path id="Path_14017" data-name="Path 14017" d="M484.32,132.771l4.345,50.409,25.236-2.019c.16-2.954,0-14.353,0-14.353s10.5-1.637,10.636-12.138c.062-5.1-.665-15.634-1.44-25.137A19.425,19.425,0,0,0,502.6,111.7h0a19.425,19.425,0,0,0-18.281,21.075Z" transform="translate(-419.01 -107.802)" fill="#eb996e"/>
      <path id="Path_14018" data-name="Path 14018" d="M506.512,157.07a24.435,24.435,0,0,1-13.652-3.89s3.238,7.558,13.713,6.61Z" transform="translate(-411.646 -98.211)" fill="#d1734a"/>
      <path id="Path_14019" data-name="Path 14019" d="M491.451,132.1A1.5,1.5,0,0,1,490,133.619a1.416,1.416,0,0,1-1.539-1.354,1.5,1.5,0,0,1,1.44-1.514,1.44,1.44,0,0,1,1.551,1.354Z" transform="translate(-391.107 -103.394)" fill="#263238"/>
      <path id="Path_14020" data-name="Path 14020" d="M493.218,130.776c-.185.2-1.317-.64-2.93-.64s-2.807.812-2.979.616.111-.443.616-.812a4.136,4.136,0,0,1,2.388-.739,4.025,4.025,0,0,1,2.339.763C493.144,130.333,493.316,130.69,493.218,130.776Z" transform="translate(-391.421 -103.751)" fill="#263238"/>
      <path id="Path_14021" data-name="Path 14021" d="M504.591,132.415a1.5,1.5,0,0,1-1.453,1.514,1.428,1.428,0,0,1-1.539-1.354,1.5,1.5,0,0,1,1.44-1.514,1.44,1.44,0,0,1,1.551,1.354Z" transform="translate(-420.423 -103.322)" fill="#263238"/>
      <path id="Path_14022" data-name="Path 14022" d="M506.112,131.026c-.185.2-1.317-.652-2.93-.64s-2.794.812-2.979.616.111-.443.628-.825a4.062,4.062,0,0,1,2.376-.726,3.9,3.9,0,0,1,2.339.751C506.039,130.583,506.211,130.94,506.112,131.026Z" transform="translate(-420.183 -103.693)" fill="#263238"/>
      <path id="Path_14023" data-name="Path 14023" d="M492.848,142.973a11.449,11.449,0,0,1,2.622-.468c.418,0,.8-.123.874-.406a2.116,2.116,0,0,0-.271-1.231c-.394-1-.8-2.031-1.231-3.127a55.005,55.005,0,0,1-2.745-8.211,53.3,53.3,0,0,1,3.4,7.965c.406,1.108.788,2.154,1.17,3.164a2.462,2.462,0,0,1,.209,1.613,1.059,1.059,0,0,1-.677.6,3.189,3.189,0,0,1-.7.1,10.859,10.859,0,0,1-2.647,0Z" transform="translate(-401.059 -103.675)" fill="#263238"/>
      <path id="Path_14024" data-name="Path 14024" d="M495.365,141.36c.271,0,.271,1.736,1.773,2.979s3.361,1.046,3.373,1.293-.418.345-1.231.357a4.37,4.37,0,0,1-2.819-.972,3.829,3.829,0,0,1-1.366-2.462C495.057,141.779,495.254,141.348,495.365,141.36Z" transform="translate(-408.328 -100.942)" fill="#263238"/>
      <path id="Path_14025" data-name="Path 14025" d="M507.233,125.817c-.16.443-1.773.234-3.693.455s-3.434.751-3.693.357c-.111-.185.16-.6.776-1.034a6.155,6.155,0,0,1,2.721-.948,6.3,6.3,0,0,1,2.868.332C506.949,125.263,507.306,125.608,507.233,125.817Z" transform="translate(-420.885 -104.812)" fill="#263238"/>
      <path id="Path_14026" data-name="Path 14026" d="M493.225,127c-.283.369-1.391,0-2.733,0s-2.462.246-2.733-.135c-.111-.185.062-.554.566-.9a3.767,3.767,0,0,1,2.216-.6,3.877,3.877,0,0,1,2.179.739C493.189,126.444,493.349,126.813,493.225,127Z" transform="translate(-392.02 -104.639)" fill="#263238"/>
      <path id="Path_14027" data-name="Path 14027" d="M521.361,120.653h0A8.26,8.26,0,0,0,518.3,126v.209c-.406,3-.332,6.044-.776,9.036a13.541,13.541,0,0,1-3.693,8.1c-.911.849-2.462,1.428-3.274.431a2.584,2.584,0,0,1-.369-1.366c-.566-7.238-2.536-13.652-2.524-21.21A6.389,6.389,0,0,1,510.307,116c1.588-1.133,3.521-2.314,5.281-1.477s4.038,4.124,5.4,5.527" transform="translate(-444.652 -107.206)" fill="#263238"/>
      <path id="Path_14028" data-name="Path 14028" d="M520.705,132.732c-.172-.074-7.214-2.13-6.98,5.047s7.386,5.466,7.386,5.256S520.705,132.732,520.705,132.732Z" transform="translate(-451.862 -103.011)" fill="#eb996e"/>
      <path id="Path_14029" data-name="Path 14029" d="M518.807,139.957a1.817,1.817,0,0,1-.332.2,1.231,1.231,0,0,1-.923,0,3.09,3.09,0,0,1-1.527-2.733,4.036,4.036,0,0,1,.3-1.8,1.44,1.44,0,0,1,.911-1,.652.652,0,0,1,.751.32c.1.2,0,.345.1.357s.148-.123.074-.419a.751.751,0,0,0-.3-.443.923.923,0,0,0-.689-.16,1.76,1.76,0,0,0-1.231,1.157,4.431,4.431,0,0,0-.369,2.007A3.274,3.274,0,0,0,517.5,140.5a1.317,1.317,0,0,0,1.133-.234C518.807,140.093,518.831,139.97,518.807,139.957Z" transform="translate(-451.835 -102.58)" fill="#d1734a"/>
      <path id="Path_14030" data-name="Path 14030" d="M479.324,117c-1.773-2.868,3.078-6.992,6.623-8.112s8.211.616,11.731,1.785c2.228.739,4.444,1.76,6.783,1.674a15.918,15.918,0,0,0,4.555-1.169,11.657,11.657,0,0,1,4.592-.9,4.3,4.3,0,0,1,3.779,2.388,2.721,2.721,0,0,1-1.81,3.693,3.521,3.521,0,1,1,.936,6.537c1.022-.776,2.585.5,2.462,1.773a3.693,3.693,0,0,1-2.462,2.721,13.418,13.418,0,0,1-9.589-.148c-3.1-1.046-5.97-2.671-9.048-3.791s-8.211-3.127-11.3-2.043c-2.265.812-3.853,3.545-5.133,2.942a4.432,4.432,0,0,1-2.277-3.238,12.682,12.682,0,0,1,.148-4.087" transform="translate(-408.721 -108.526)" fill="#263238"/>
      <path id="Path_14031" data-name="Path 14031" d="M517.956,115.766a14.355,14.355,0,0,1-1.145,1.366,9.848,9.848,0,0,1-3.988,2.573,9.122,9.122,0,0,1-6.844-.283c-2.462-1.1-4.53-3.274-6.931-5.343a14.908,14.908,0,0,0-8.075-3.878,8.272,8.272,0,0,0-6.869,2.376,6.29,6.29,0,0,0-1.625,4.641,4.808,4.808,0,0,0,.357,1.366c.135.271.209.419.234.406a11.253,11.253,0,0,1-.271-1.748,6.229,6.229,0,0,1,1.723-4.284,7.854,7.854,0,0,1,6.438-2.068,14.477,14.477,0,0,1,7.669,3.767c2.364,2.019,4.518,4.259,7.128,5.4a9.774,9.774,0,0,0,11.313-2.708,6.488,6.488,0,0,0,.751-1.12C517.919,115.926,517.981,115.778,517.956,115.766Z" transform="translate(-410.238 -108.154)" fill="#455a64"/>
      <path id="Path_14032" data-name="Path 14032" d="M513.456,135.928a1.89,1.89,0,0,0,.579-.776,4.776,4.776,0,0,0,.357-2.6c-.16-2.314-2.2-4.8-2.462-7.989a7.226,7.226,0,0,1,.788-4.3,5.54,5.54,0,0,1,2.671-2.3,4.727,4.727,0,0,1,2.462-.32c.579.086.886.222.911.16a1.834,1.834,0,0,0-.862-.431,4.444,4.444,0,0,0-2.622.123,5.736,5.736,0,0,0-3.053,2.462,7.57,7.57,0,0,0-.948,4.69,13.218,13.218,0,0,0,1.391,4.53,13.972,13.972,0,0,1,1.293,3.459,5.724,5.724,0,0,1-.5,3.287Z" transform="translate(-446.435 -106.515)" fill="#455a64"/>
      <path id="Path_14033" data-name="Path 14033" d="M494.408,462.409l.074-13.541-25.42-.308-.32,19.856,1.576.123c7,.468,35.7,1.92,40.377.554C515.938,467.567,494.408,462.409,494.408,462.409Z" transform="translate(-386.899 -29.979)" fill="#ff725e"/>
      <g id="Group_949" data-name="Group 949" transform="translate(81.879 430.915)" opacity="0.4">
        <path id="Path_14034" data-name="Path 14034" d="M505.183,465.979a8.8,8.8,0,0,0-3.176-5.466,8.617,8.617,0,0,0-5.921-1.92L496,465.708Z" transform="translate(-496 -458.579)"/>
      </g>
      <g id="Group_950" data-name="Group 950" transform="translate(81.842 435.31)" opacity="0.4">
        <path id="Path_14035" data-name="Path 14035" d="M504.865,462.15s7.509,2.277,6.586,3.508-29.987.862-42.765-.419v-.566l33.853.714S503.388,462.187,504.865,462.15Z" transform="translate(-468.686 -462.15)"/>
      </g>
      <path id="Path_14036" data-name="Path 14036" d="M468.78,464.18a1.737,1.737,0,0,0,.431.061l1.231.086,4.616.259c3.9.185,9.294.382,15.252.455s11.362,0,15.264,0l4.629-.135h1.231a2.46,2.46,0,0,0,.431,0H490.3c-5.958,0-11.35-.234-15.252-.369l-4.616-.16H469.2Z" transform="translate(-387.295 -26.371)" fill="#263238"/>
      <path id="Path_14037" data-name="Path 14037" d="M474.02,465.839a10.893,10.893,0,0,1,.9-2.191,11.191,11.191,0,0,1,1.563-1.748,3.5,3.5,0,0,0-1.859,1.588A3.459,3.459,0,0,0,474.02,465.839Z" transform="translate(-358.338 -26.897)" fill="#263238"/>
      <path id="Path_14038" data-name="Path 14038" d="M480.9,462.336a3.432,3.432,0,0,0,.812-.973c.382-.579.628-1.083.554-1.133s-.431.382-.812.96S480.8,462.286,480.9,462.336Z" transform="translate(-372.603 -27.284)" fill="#263238"/>
      <path id="Path_14039" data-name="Path 14039" d="M482.381,461.265a2.324,2.324,0,0,0,.9-.591c.443-.394.763-.751.7-.812s-.456.2-.9.579S482.32,461.265,482.381,461.265Z" transform="translate(-376.153 -27.37)" fill="#263238"/>
      <path id="Path_14040" data-name="Path 14040" d="M482.56,459.094a5.762,5.762,0,0,0,2.647.061,5.761,5.761,0,0,0-2.647-.062Z" transform="translate(-377.6 -27.575)" fill="#263238"/>
      <path id="Path_14041" data-name="Path 14041" d="M482.62,457.69a2.647,2.647,0,0,0,1.477.443,2.462,2.462,0,0,0,1.526-.185,9.788,9.788,0,0,0-1.5-.123,8.391,8.391,0,0,0-1.5-.135Z" transform="translate(-378.09 -27.87)" fill="#263238"/>
      <path id="Path_14042" data-name="Path 14042" d="M477.395,460.559a4.564,4.564,0,0,0,1.637,0,9.178,9.178,0,0,0,1.748-.357,4.726,4.726,0,0,0,1-.406.825.825,0,0,0,.406-.492.64.64,0,0,0-.234-.665,3,3,0,0,0-3.693.837,2.756,2.756,0,0,0-.542,1.083c-.074.271-.074.431,0,.443a4.05,4.05,0,0,1,.763-1.391,2.905,2.905,0,0,1,1.4-.886,2.548,2.548,0,0,1,1.945.16c.258.2.148.492-.135.665a5.04,5.04,0,0,1-.923.382,13.92,13.92,0,0,1-1.773.455C478.022,460.522,477.395,460.51,477.395,460.559Z" transform="translate(-368.236 -27.723)" fill="#263238"/>
      <path id="Path_14043" data-name="Path 14043" d="M482.925,460.813a1.723,1.723,0,0,0,.2-1.133,2.671,2.671,0,0,0-.431-1.231,1.625,1.625,0,0,0-1.354-.849.64.64,0,0,0-.5.751,1.661,1.661,0,0,0,.271.726,4.565,4.565,0,0,0,.751,1,2.561,2.561,0,0,0,.923.677,9.7,9.7,0,0,1-.763-.825,5.461,5.461,0,0,1-.665-.985c-.222-.345-.369-.973,0-1.034s.825.369,1.071.7a2.462,2.462,0,0,1,.443,1.071A6.85,6.85,0,0,1,482.925,460.813Z" transform="translate(-373.398 -27.891)" fill="#263238"/>
      <path id="Path_14044" data-name="Path 14044" d="M496.015,458.573a9.86,9.86,0,0,1,1.883.086,7.928,7.928,0,0,1,6.586,5.392c.382,1.1.406,1.822.468,1.822a1.857,1.857,0,0,0,0-.517,7.246,7.246,0,0,0-.258-1.366,7.725,7.725,0,0,0-6.771-5.552,6.28,6.28,0,0,0-1.4,0A1.23,1.23,0,0,0,496.015,458.573Z" transform="translate(-413.927 -27.706)" fill="#263238"/>
      <path id="Path_14045" data-name="Path 14045" d="M501.3,450a44.944,44.944,0,0,0-.283,5.219,43.734,43.734,0,0,0,0,5.232,44.944,44.944,0,0,0,.283-5.219,43.569,43.569,0,0,0,0-5.232Z" transform="translate(-416.39 -29.646)" fill="#263238"/>
      <path id="Path_14046" data-name="Path 14046" d="M487.38,462.613a14.933,14.933,0,0,0,3.693.419,13.774,13.774,0,0,0,3.693-.259c0-.086-1.662,0-3.693,0S487.392,462.527,487.38,462.613Z" transform="translate(-393.092 -26.737)" fill="#263238"/>
      <path id="Path_14047" data-name="Path 14047" d="M496.853,462.552c-.062.062.135.357.3.739s.259.726.345.714.135-.394,0-.837S496.915,462.49,496.853,462.552Z" transform="translate(-407.551 -26.749)" fill="#263238"/>
      <path id="Path_14048" data-name="Path 14048" d="M498.172,460.632c-.062.062.1.332.357.6s.517.443.579.382-.1-.332-.357-.6S498.234,460.582,498.172,460.632Z" transform="translate(-410.717 -27.192)" fill="#263238"/>
      <path id="Path_14049" data-name="Path 14049" d="M499.932,459.768c0,.086.357.086.726.222s.64.332.7.283-.135-.406-.6-.579S499.908,459.682,499.932,459.768Z" transform="translate(-415.148 -27.425)" fill="#263238"/>
      <path id="Path_14050" data-name="Path 14050" d="M502.025,459.321c0,.074.111.209.32.3s.406.086.443,0-.111-.209-.32-.3S502.062,459.247,502.025,459.321Z" transform="translate(-419.149 -27.507)" fill="#263238"/>
      <path id="Path_14051" data-name="Path 14051" d="M556.926,464.484l2.043-13.406-25.112-3.988-3.188,19.585,1.539.345c6.869,1.477,35.022,7.066,39.872,6.389C577.509,472.683,556.926,464.484,556.926,464.484Z" transform="translate(-524.607 -30.318)" fill="#ff725e"/>
      <g id="Group_951" data-name="Group 951" transform="translate(6.148 428.971)" opacity="0.4">
        <path id="Path_14052" data-name="Path 14052" d="M566.678,465.617a8.851,8.851,0,0,0-2.351-5.86A8.543,8.543,0,0,0,558.75,457l-1.12,7.017Z" transform="translate(-557.63 -457)"/>
      </g>
      <g id="Group_952" data-name="Group 952" transform="translate(6.062 435.815)" opacity="0.4">
        <path id="Path_14053" data-name="Path 14053" d="M566.876,465.293s7.127,3.336,6.007,4.419-29.79-3.484-42.26-6.6l.123-.554,33.4,5.613S565.4,465.121,566.876,465.293Z" transform="translate(-530.623 -462.56)"/>
      </g>
      <path id="Path_14054" data-name="Path 14054" d="M530.67,462.49a1.922,1.922,0,0,0,.419.123l1.231.271,4.53.923c3.828.751,9.134,1.723,15.018,2.659s11.239,1.686,15.1,2.167l4.6.529,1.231.135a1.709,1.709,0,0,0,.443,0l-.406-.025-1.231-.185-4.579-.64c-3.865-.529-9.208-1.3-15.092-2.24s-11.19-1.883-15.031-2.585l-4.542-.825-1.231-.209Z" transform="translate(-524.867 -26.761)" fill="#263238"/>
      <path id="Path_14055" data-name="Path 14055" d="M535.39,468.093a10.625,10.625,0,0,1,1.231-2.043,10.067,10.067,0,0,1,1.834-1.49,3.361,3.361,0,0,0-2.068,1.293A3.5,3.5,0,0,0,535.39,468.093Z" transform="translate(-495.882 -26.283)" fill="#263238"/>
      <path id="Path_14056" data-name="Path 14056" d="M542.061,463.775a3.325,3.325,0,0,0,.948-.837c.455-.517.776-.985.714-1.046s-.492.32-.948.837S542,463.713,542.061,463.775Z" transform="translate(-509.361 -26.901)" fill="#263238"/>
      <path id="Path_14057" data-name="Path 14057" d="M543.481,462.5c0,.074.48-.123.972-.443s.862-.64.812-.714-.48.135-.972.455S543.383,462.438,543.481,462.5Z" transform="translate(-512.639 -27.03)" fill="#263238"/>
      <path id="Path_14058" data-name="Path 14058" d="M543.57,460.2a2.954,2.954,0,0,0,1.231.382,3.236,3.236,0,0,0,1.342.074,2.954,2.954,0,0,0-1.231-.382,3.015,3.015,0,0,0-1.342-.074Z" transform="translate(-513.639 -27.3)" fill="#263238"/>
      <path id="Path_14059" data-name="Path 14059" d="M543.42,458.78a2.584,2.584,0,0,0,1.391.652,2.463,2.463,0,0,0,1.539,0,9.163,9.163,0,0,0-1.465-.332,7.745,7.745,0,0,0-1.465-.32Z" transform="translate(-513.661 -27.618)" fill="#263238"/>
      <path id="Path_14060" data-name="Path 14060" d="M538.4,462.083a4.468,4.468,0,0,0,1.613.246,9.2,9.2,0,0,0,1.773-.1,5.116,5.116,0,0,0,1.046-.246.887.887,0,0,0,.48-.443.64.64,0,0,0-.136-.689,3.028,3.028,0,0,0-3.8.283,2.906,2.906,0,0,0-.689,1c-.111.271-.135.419-.111.431a4.43,4.43,0,0,1,.948-1.231,2.83,2.83,0,0,1,1.526-.677,2.462,2.462,0,0,1,1.9.431c.222.234.074.517-.234.64a4.33,4.33,0,0,1-.972.246,11.965,11.965,0,0,1-1.724.172C539.017,462.132,538.4,462.033,538.4,462.083Z" transform="translate(-504.494 -27.265)" fill="#263238"/>
      <path id="Path_14061" data-name="Path 14061" d="M543.532,462.5a1.564,1.564,0,0,0,.369-1.1,2.7,2.7,0,0,0-.246-1.231,1.625,1.625,0,0,0-1.231-1.034.652.652,0,0,0-.615.665,1.836,1.836,0,0,0,.16.763,4.754,4.754,0,0,0,.6,1.1c.431.579.8.825.825.8s-.283-.345-.64-.923a5.106,5.106,0,0,1-.517-1.071c-.172-.382-.222-1.009.185-1.022s.763.492.96.849a2.549,2.549,0,0,1,.283,1.12A5.251,5.251,0,0,1,543.532,462.5Z" transform="translate(-509.231 -27.535)" fill="#263238"/>
      <path id="Path_14062" data-name="Path 14062" d="M557.592,457.009a6.737,6.737,0,0,1,1.847.357,7.965,7.965,0,0,1,5.736,6.29c.209,1.145.135,1.871.2,1.871a1.854,1.854,0,0,0,.074-.5,7.207,7.207,0,0,0,0-1.4,7.879,7.879,0,0,0-1.957-4.148,7.792,7.792,0,0,0-3.952-2.314,6.337,6.337,0,0,0-1.379-.185A1.451,1.451,0,0,0,557.592,457.009Z" transform="translate(-550.238 -28.039)" fill="#263238"/>
      <path id="Path_14063" data-name="Path 14063" d="M562.263,448.83a43.508,43.508,0,0,0-1.046,5.121,42.054,42.054,0,0,0-.726,5.17A48.687,48.687,0,0,0,561.524,454,43.758,43.758,0,0,0,562.263,448.83Z" transform="translate(-550.587 -29.917)" fill="#263238"/>
      <path id="Path_14064" data-name="Path 14064" d="M548.82,462.442a14.773,14.773,0,0,0,3.607.948,15.078,15.078,0,0,0,3.693.3c0-.086-1.65-.258-3.693-.6S548.845,462.356,548.82,462.442Z" transform="translate(-530.079 -26.775)" fill="#263238"/>
      <path id="Path_14065" data-name="Path 14065" d="M558.335,461.8c-.074,0,.074.369.185.776s.148.751.234.751.185-.369,0-.837S558.4,461.752,558.335,461.8Z" transform="translate(-544.505 -26.922)" fill="#263238"/>
      <path id="Path_14066" data-name="Path 14066" d="M559.365,459.681c-.074,0,0,.345.271.64s.443.517.517.468,0-.332-.271-.64S559.5,459.632,559.365,459.681Z" transform="translate(-547.087 -27.412)" fill="#263238"/>
      <path id="Path_14067" data-name="Path 14067" d="M560.9,458.5c0,.1.332.148.689.332s.579.431.652.382-.074-.431-.517-.652S560.9,458.421,560.9,458.5Z" transform="translate(-551.079 -27.702)" fill="#263238"/>
      <path id="Path_14068" data-name="Path 14068" d="M562.864,457.849a.531.531,0,0,0,.271.332c.185.111.394.148.431.074s-.074-.222-.271-.345S562.9,457.775,562.864,457.849Z" transform="translate(-554.821 -27.844)" fill="#263238"/>
      <path id="Path_14069" data-name="Path 14069" d="M511.751,261.413,470.5,501.494l32.535,3.952L549.222,291.3l-3.841,211.067h31.144L588.848,259.32Z" transform="translate(-466.396 -73.693)" fill="#263238"/>
      <path id="Path_14070" data-name="Path 14070" d="M481.5,209.629l-1.6,37.065-5.946,42.3H554.4s.172-9.983-.566-23.844c-1.022-19.487-2.133-45.119-2.133-45.119l2.133,6.237c3.731-3.8,8.924-9.168,19.462-30.62L557.961,178.3a44.833,44.833,0,0,0-14.317-10.857c-2.819-1.329-3.9-1.4-10.242-2.265-2.979-.406-5.244-.6-6.721-.788a43.184,43.184,0,0,1-26.06,0h0a25.625,25.625,0,0,0-2.967.234l-6.377,1.49a37.644,37.644,0,0,0-19.253,11.264L455,195.916l18.317,20.373Z" transform="translate(-431.766 -95.622)" fill="#455a64"/>
      <path id="Path_14071" data-name="Path 14071" d="M475.3,223.476a38.83,38.83,0,0,1-.5-5.589c-.234-3.459-.554-8.223-.985-13.479s-.9-10.02-1.231-13.467a40.152,40.152,0,0,1-.406-5.6,31.286,31.286,0,0,1,1.046,5.527c.492,3.422,1.071,8.186,1.5,13.467s.652,10.057.714,13.541a30.408,30.408,0,0,1-.135,5.6Z" transform="translate(-355.112 -90.783)" fill="#263238"/>
      <path id="Path_14072" data-name="Path 14072" d="M530.29,189.06a14.9,14.9,0,0,1,.209,3.853c0,2.388-.148,5.663-.419,9.282s-.628,6.894-.96,9.245a16.006,16.006,0,0,1-.776,3.779,17.448,17.448,0,0,1,.135-3.853c.209-2.721.443-5.81.7-9.232s.48-6.524.677-9.245a18.213,18.213,0,0,1,.431-3.828Z" transform="translate(-479.235 -89.923)" fill="#263238"/>
      <path id="Path_14073" data-name="Path 14073" d="M484.39,211.254a36.148,36.148,0,0,1,.812-5.343,20.606,20.606,0,0,1,2.462-5.8,21.815,21.815,0,0,1,5.564-6.155,21.568,21.568,0,0,1,9.171-4.05,21.937,21.937,0,0,1,11.411.96,20.718,20.718,0,0,1,5.49,2.967,20.323,20.323,0,0,1,4.579,4.6,21.592,21.592,0,0,1,0,25.654,24.692,24.692,0,0,1-2.117,2.524,26.064,26.064,0,0,1-2.462,2.093,20.325,20.325,0,0,1-5.49,2.954,21.851,21.851,0,0,1-26.146-9.232,20.656,20.656,0,0,1-2.462-5.81,35.9,35.9,0,0,1-.812-5.342,1.59,1.59,0,0,0,0,.357c0,.283,0,.628,0,1.059a10.251,10.251,0,0,0,.135,1.7,17.616,17.616,0,0,0,.418,2.29,20.8,20.8,0,0,0,2.462,5.933,22.128,22.128,0,0,0,26.651,9.614,20.927,20.927,0,0,0,5.65-3.016,24.691,24.691,0,0,0,2.536-2.154,23.392,23.392,0,0,0,2.191-2.585,22.158,22.158,0,0,0,0-26.393,27.59,27.59,0,0,0-2.191-2.585,23.127,23.127,0,0,0-2.536-2.142,21.284,21.284,0,0,0-5.65-3.028,22.19,22.19,0,0,0-26.651,9.6,20.927,20.927,0,0,0-2.462,5.921,17.771,17.771,0,0,0-.419,2.3,10.14,10.14,0,0,0-.135,1.7V210.9A1.518,1.518,0,0,0,484.39,211.254Z" transform="translate(-423.426 -89.935)" fill="#263238"/>
      <path id="Path_14074" data-name="Path 14074" d="M489.641,210.058a30.262,30.262,0,0,1,.616-3.779,15.633,15.633,0,0,1,5.7-8.469,15.387,15.387,0,0,1,14.55-2.154,14.647,14.647,0,0,1,3.878,2.093,14.293,14.293,0,0,1,3.238,3.262,15.343,15.343,0,0,1-7.115,23.463,15.5,15.5,0,0,1-8.063.689,15.326,15.326,0,0,1-6.487-2.856,15.5,15.5,0,0,1-5.7-8.457,29.8,29.8,0,0,1-.616-3.791,7.857,7.857,0,0,0,0,1.009,6.645,6.645,0,0,0,.1,1.231,12.073,12.073,0,0,0,.283,1.637A15.622,15.622,0,0,0,495.7,222.7a15.806,15.806,0,0,0,15.018,2.351,15.313,15.313,0,0,0,4.05-2.154,14.923,14.923,0,0,0,3.373-3.385,15.873,15.873,0,1,0-28.165-13.246,12.063,12.063,0,0,0-.283,1.637,6.481,6.481,0,0,0-.1,1.231,7.6,7.6,0,0,0,.049.923Z" transform="translate(-422.3 -88.739)" fill="#fafafa"/>
      <path id="Path_14075" data-name="Path 14075" d="M494.338,208.964a17.439,17.439,0,0,1,.431-2.339,9.651,9.651,0,0,1,3.558-5.219,9.454,9.454,0,0,1,8.974-1.3,9.451,9.451,0,0,1,0,17.739,9.528,9.528,0,0,1-4.924.431,9.33,9.33,0,0,1-4-1.736,9.651,9.651,0,0,1-3.558-5.219c-.394-1.477-.357-2.351-.431-2.351a2.462,2.462,0,0,0,0,.628,7.385,7.385,0,0,0,.209,1.785,9.848,9.848,0,0,0,7.718,7.386,9.959,9.959,0,0,0,5.256-.406,10.012,10.012,0,0,0,0-18.847,9.959,9.959,0,0,0-5.256-.406,9.848,9.848,0,0,0-7.718,7.386,7.385,7.385,0,0,0-.209,1.785A2.351,2.351,0,0,0,494.338,208.964Z" transform="translate(-421.101 -87.645)" fill="#263238"/>
    </g>
  </g>
</svg>
