<svg id="Component_Character_Female_M" data-name="Component/Character/Female/M" xmlns="http://www.w3.org/2000/svg" xmlns:xlink="http://www.w3.org/1999/xlink" width="180" height="180" viewBox="0 0 180 180">
  <defs>
    <clipPath id="clip-path">
      <rect id="Rectangle_9963" data-name="Rectangle 9963" width="180" height="180" transform="translate(18673 -21570)" fill="#fff" stroke="#707070" stroke-width="1"/>
    </clipPath>
  </defs>
  <g id="Component_Character_Female_M-2" data-name="Component/Character/Female/M" transform="translate(-18673 21570)" clip-path="url(#clip-path)">
    <g id="Group_25167" data-name="Group 25167" transform="translate(5)">
      <path id="Path_107342" data-name="Path 107342" d="M364.677,246.126a20.722,20.722,0,0,0-2.293-27.189l-36-34.727-6.853,25.382c.636.361,27.874,25.207,27.874,25.207l-19.376,28.6a15.513,15.513,0,0,0-1.371,14.953l1.246,3.875a9.532,9.532,0,0,0,13.632,5.333l5.844-3.2a1.246,1.246,0,0,0,.4-1.919h0a1.321,1.321,0,0,0-1.121-.5l-8.211.673a3.738,3.738,0,0,1-3.863-2.492h0Z" transform="translate(18468.6 -21664.662)" fill="#ffbe9d"/>
      <g id="Character--inject-559" transform="translate(18495.76 -21622.309)">
        <path id="Path_47956" data-name="Path 47956" d="M241.48,204.05c-12.13,11.21-20.82,35.28-23.19,51.32s-3.59,33-12.4,46.6c-2.44,3.77-5.55,7.63-5.26,12.1.4,6.27,7.33,10.11,13.59,10.64s12.62-1,18.79.13c11.35,2.11,20.22,13,31.76,12.86,8.6-.07,16.1-6.55,19.94-14.25s4.71-16.48,5.53-25c2.47-25.79,4.3-44.36,6.77-70.15" fill="#ff725e"/>
        <path id="Path_47957" data-name="Path 47957" d="M214.16,299a7.36,7.36,0,0,1-3.6-5.51c.15,0,.58,1.39,1.58,2.9S214.26,298.87,214.16,299Z" fill="#fafafa"/>
        <path id="Path_47958" data-name="Path 47958" d="M263.42,326.83a2.848,2.848,0,0,1-.67,0l-1.91-.11c-1.66-.12-4-.31-7-.62-5.91-.61-14.05-1.71-22.94-3.49a83.316,83.316,0,0,1-12.4-3.17,27,27,0,0,1-9-5.28,17.91,17.91,0,0,1-4.24-5.63,14.437,14.437,0,0,1-.69-1.79,2.68,2.68,0,0,1-.15-.65,19.28,19.28,0,0,0,1,2.35,18.32,18.32,0,0,0,4.29,5.45,27.26,27.26,0,0,0,8.93,5.1A86.433,86.433,0,0,0,231,322.1c8.87,1.77,17,2.93,22.88,3.63l7,.79,1.9.2a2.8,2.8,0,0,1,.64.11Z" fill="#fafafa"/>
        <path id="Path_47959" data-name="Path 47959" d="M258.61,313.64a8.07,8.07,0,0,1-2.94-1.68,14.474,14.474,0,0,1-2-1.83l-.07-.09v-.07c.16-.38.29-.6.34-.58s0,.26-.05.67v-.16l2.12,1.65a17.4,17.4,0,0,1,2.6,2.09Z" fill="#fafafa"/>
        <path id="Path_47960" data-name="Path 47960" d="M229.59,227.19c0,.14-.81.08-1.45-.6s-.69-1.46-.55-1.47.39.57.92,1.11S229.62,227.05,229.59,227.19Z" fill="#fafafa"/>
        <path id="Path_47961" data-name="Path 47961" d="M225.7,239.57c0,.14-1.09.16-2-.7s-1.06-1.94-.92-1.94.45.84,1.27,1.56S225.72,239.42,225.7,239.57Z" fill="#fafafa"/>
        <path id="Path_47962" data-name="Path 47962" d="M222.51,253.48c0,.07-.28.14-.74.08a3.24,3.24,0,0,1-1.6-.75,3.2,3.2,0,0,1-1-1.45c-.14-.44-.11-.73,0-.74a7.79,7.79,0,0,0,1.39,1.79C221.53,253.2,222.52,253.33,222.51,253.48Z" fill="#fafafa"/>
        <path id="Path_47963" data-name="Path 47963" d="M219.8,267.18c-.08.12-.82-.19-1.66-.7s-1.46-1-1.39-1.15.82.19,1.66.7S219.87,267.06,219.8,267.18Z" fill="#fafafa"/>
        <path id="Path_47964" data-name="Path 47964" d="M217.28,282.86c-.08.12-.95-.33-1.7-1.26s-1-1.88-.87-1.92.58.74,1.28,1.59S217.36,282.74,217.28,282.86Z" fill="#fafafa"/>
        <path id="Path_47965" data-name="Path 47965" d="M199.68,424,194,449.64l-10.34,19a2.68,2.68,0,0,0,1.24,3.73h0a2.64,2.64,0,0,0,2.46-.11c4.82-2.78,22.47-13.1,22.78-15,.36-2.2,7.79-26.67,7.79-26.67Z" fill="#ff725e"/>
        <g id="Group_2554" data-name="Group 2554" opacity="0.6">
          <path id="Path_47966" data-name="Path 47966" d="M184.9,472.38l25.66-16.83-.26,1.08a4.08,4.08,0,0,1-1.56,2.33c-2.09,1.5-8,5.54-21.3,13.33a2.66,2.66,0,0,1-2.54.09Z" fill="#fff"/>
        </g>
        <g id="Group_2555" data-name="Group 2555" opacity="0.6">
          <path id="Path_47967" data-name="Path 47967" d="M207.34,446a1.63,1.63,0,0,0-.94,2,1.57,1.57,0,0,0,1.94.95,1.72,1.72,0,0,0,1-2.08,1.63,1.63,0,0,0-2.12-.77" fill="#fff"/>
        </g>
        <path id="Path_47968" data-name="Path 47968" d="M193.47,462.66a5.84,5.84,0,0,0-4.55-3.82c0-.07.36-.19,1-.12a4.15,4.15,0,0,1,2.19,1,4.22,4.22,0,0,1,1.33,2C193.59,462.27,193.54,462.66,193.47,462.66Z" fill="#263238"/>
        <path id="Path_47969" data-name="Path 47969" d="M190.81,465.63c-.14.08-.76-.95-2-1.65a21.814,21.814,0,0,0-2.41-.93,3,3,0,0,1,2.7.43C190.51,464.29,191,465.6,190.81,465.63Z" fill="#263238"/>
        <path id="Path_47970" data-name="Path 47970" d="M197.93,459.11a27,27,0,0,0-2.9-2.76,26.862,26.862,0,0,0-3.57-1.81,7.37,7.37,0,0,1,6.47,4.57Z" fill="#263238"/>
        <path id="Path_47971" data-name="Path 47971" d="M200.31,451.45c-.11.14-1.37-.8-3.19-1.31s-3.38-.44-3.4-.61a6.69,6.69,0,0,1,6.59,1.92Z" fill="#263238"/>
        <path id="Path_47972" data-name="Path 47972" d="M202.17,444a13.52,13.52,0,0,0-3.29-1.46,13,13,0,0,0-3.59,0c0-.06.33-.32,1-.51a5.88,5.88,0,0,1,5.16,1.08C202,443.54,202.22,443.91,202.17,444Z" fill="#263238"/>
        <path id="Path_47973" data-name="Path 47973" d="M199.28,441.09a2.09,2.09,0,0,1,.2-1,6.931,6.931,0,0,1,1.39-2.34,3,3,0,0,1,1.62-1.11,1.1,1.1,0,0,1,1.13.53,1.76,1.76,0,0,1,.12,1.25,3.82,3.82,0,0,1-4.08,2.63,4.41,4.41,0,0,1-3.66-3.28,1.56,1.56,0,0,1,.23-1.26,1.07,1.07,0,0,1,1.21-.28,3.78,3.78,0,0,1,1.47,1.29,7.68,7.68,0,0,1,1.26,2.41,2.27,2.27,0,0,1,.17,1,11.781,11.781,0,0,0-1.75-3.14,3.6,3.6,0,0,0-1.3-1.09.56.56,0,0,0-.66.15,1.05,1.05,0,0,0-.11.84,3.94,3.94,0,0,0,3.21,2.8,3.29,3.29,0,0,0,3.49-2.18,1.27,1.27,0,0,0,0-.87.58.58,0,0,0-.62-.3,2.81,2.81,0,0,0-1.4.91,10,10,0,0,0-1.92,3.04Z" fill="#263238"/>
        <path id="Path_47974" data-name="Path 47974" d="M279.7,433.43,278.92,454s20.63,7.7,20.85,11.51l-39.9-.08-.1-32.07Z" fill="#ff725e"/>
        <g id="Group_2556" data-name="Group 2556" opacity="0.6">
          <path id="Path_47975" data-name="Path 47975" d="M266.58,452.23a1.63,1.63,0,0,0-1.13,1.86,1.56,1.56,0,0,0,1.83,1.13,1.71,1.71,0,0,0,1.19-2,1.63,1.63,0,0,0-2-1" fill="#fff"/>
        </g>
        <g id="Group_2557" data-name="Group 2557" opacity="0.6">
          <path id="Path_47976" data-name="Path 47976" d="M259.87,465.41l.11-3.23,38.22,1.28s1.77.78,1.57,2Z" fill="#fff"/>
        </g>
        <path id="Path_47977" data-name="Path 47977" d="M279.56,453.78c0,.2-1,.28-1.94.91s-1.47,1.44-1.65,1.36.11-1.2,1.29-1.94S279.61,453.6,279.56,453.78Z" fill="#263238"/>
        <path id="Path_47978" data-name="Path 47978" d="M283.75,455.52c0,.19-.8.52-1.47,1.34s-.85,1.7-1,1.69-.31-1.11.53-2.12S283.74,455.34,283.75,455.52Z" fill="#263238"/>
        <path id="Path_47979" data-name="Path 47979" d="M286.11,460.54c-.17,0-.44-.94.06-2s1.41-1.49,1.5-1.33-.49.73-.89,1.61S286.31,460.52,286.11,460.54Z" fill="#263238"/>
        <path id="Path_47980" data-name="Path 47980" d="M279.22,449.08c-.08.18-1-.09-2.08,0s-2,.42-2.06.25.73-.86,2-.93S279.32,448.93,279.22,449.08Z" fill="#263238"/>
        <g id="Group_2558" data-name="Group 2558" opacity="0.3">
          <path id="Path_47981" data-name="Path 47981" d="M279.54,437.5l-.14,3.66-19.61-.21-.02-3.3Z"/>
        </g>
        <path id="Path_47982" data-name="Path 47982" d="M279.3,444.93a3.73,3.73,0,0,1-2,0,8.568,8.568,0,0,1-2.09-.64,9.787,9.787,0,0,1-1.14-.61,2.411,2.411,0,0,1-.6-.47.85.85,0,0,1-.09-1,1,1,0,0,1,.85-.44,2.721,2.721,0,0,1,.75.1,7.22,7.22,0,0,1,1.24.43,7.069,7.069,0,0,1,1.84,1.21c.93.86,1.24,1.59,1.18,1.63s-.54-.55-1.48-1.26a8.179,8.179,0,0,0-1.78-1,7.729,7.729,0,0,0-1.15-.35c-.42-.11-.78-.12-.89.07s-.05.1,0,.22a2,2,0,0,0,.45.35,9.363,9.363,0,0,0,1.05.6,11,11,0,0,0,1.93.75,12.751,12.751,0,0,1,1.93.41Z" fill="#263238"/>
        <path id="Path_47983" data-name="Path 47983" d="M279.05,445.21a3.16,3.16,0,0,1-.53-1.93,6.609,6.609,0,0,1,.28-2.19,6.94,6.94,0,0,1,.51-1.21,1.66,1.66,0,0,1,1.28-1,1,1,0,0,1,.83.56,2.922,2.922,0,0,1,.21.73,4.69,4.69,0,0,1,0,1.35,4.64,4.64,0,0,1-.86,2.06c-.78,1-1.6,1.26-1.61,1.2a7.754,7.754,0,0,0,1.21-1.47,4.54,4.54,0,0,0,.64-1.87,4.139,4.139,0,0,0,0-1.16c-.06-.42-.22-.76-.38-.72a1.431,1.431,0,0,0-.7.65,6.449,6.449,0,0,0-.49,1.08,6.941,6.941,0,0,0-.4,2A18.292,18.292,0,0,1,279.05,445.21Z" fill="#263238"/>
        <path id="Path_47984" data-name="Path 47984" d="M240.76,207.78s-12.62,19.93-14.44,27.56-36,191.78-36,191.78l36.9,11.1,32.22-150.66L250,437.11a1,1,0,0,0,1,1.08l37.09-1.14a1,1,0,0,0,1-.95c.91-14.53,12.19-196,10.12-201.27-2.16-5.52-7.82-24.68-7.82-24.68Z" fill="#263238"/>
        <path id="Path_47985" data-name="Path 47985" d="M213.54,146.06c-2,1.47-2.09,4.37-1.66,6.8s1.21,5,.36,7.27a18.39,18.39,0,0,1-2.57,3.92c-.89,1.29-1.57,2.93-1,4.41,1,2.75,5.31,3,6.4,5.71.62,1.55-.09,3.3-.94,4.73s-1.9,2.86-2,4.53A4.49,4.49,0,0,0,217,188c1.8-.27,3.21-1.62,4.74-2.6s3.68-1.58,5.07-.4c1.63,1.39,1,4,1,6.11a6.56,6.56,0,0,0,3.29,5.76,4.72,4.72,0,0,0,6.11-1.6c.56-1,.8-2.39,1.87-2.82,1.34-.55,2.64.86,4.05,1.21a3.7,3.7,0,0,0,3.95-2.1,7.5,7.5,0,0,0,.41-4.73c-1.14-6.27-5.79-11.21-8.88-16.78a35.61,35.61,0,0,1-4.37-14.61c-.24-3.16,0-6.34-.33-9.49a16.76,16.76,0,0,0-3-8.87c-1.93-2.5-5.19-4.16-8.28-3.49" fill="#ad510d"/>
        <path id="Path_47986" data-name="Path 47986" d="M254.43,72.15c-9.63-.27-18.87,7.28-20.52,16.77-.86,4.93.06,10.28-2.21,14.73-3,5.89-10.88,8.61-12.65,15-1.48,5.33,2,11.11.53,16.44-1.09,3.85-4.54,6.57-6.22,10.2a11.58,11.58,0,0,0,.77,11.08,10.55,10.55,0,0,0,10,4.57c2.43-.35,4.63-1.59,7-2.35,5-1.66,10.52-1.05,15.78-.32s10.66,1.58,15.82.37,10.12-5,10.89-10.3c.5-3.41-.78-6.79-1.83-10.07C264.87,116.59,268,93,263.16,70.74" fill="#ad510d"/>
        <path id="Path_47987" data-name="Path 47987" d="M280.07,82.72c.85,5.72,2.4,11.38,4.86,14.92,2,2.85,5.86,4.49,6.45,7.91.49,2.89-1.23,5.76-.95,8.67.44,4.59,5.5,7.39,6.93,11.77,1.2,3.65-.45,7.78-3.23,10.42s-6.5,4.05-10.21,5.05c-5.29,1.42-11.7,1.86-15.5-2.1-2.6-2.7-3.19-6.72-3.51-10.46-.89-10-.85-20.07-.82-30.11" fill="#ad510d"/>
        <path id="Path_47988" data-name="Path 47988" d="M245.49,92.35A17.23,17.23,0,0,1,261,73.06c9.18-.87,17.34,6,18.71,15.08,1.21,8,2.25,16.06,2.21,19-.11,8.84-5.28,12.28-7.38,13.31a10.89,10.89,0,0,1-2.33.58h0a.06.06,0,0,0,0,.07l2,10.14c.89,6.65-2.82,12.58-9.46,13.55s-11.86-4.14-12.88-10.79Z" fill="#ffbe9d"/>
        <path id="Path_47989" data-name="Path 47989" d="M277.91,92c-.14.21-1.31-.42-2.8-.19s-2.49,1.13-2.67,1,0-.42.46-.84a3.8,3.8,0,0,1,2.1-1,3.67,3.67,0,0,1,2.27.38C277.78,91.61,278,91.91,277.91,92Z" fill="#263238"/>
        <path id="Path_47990" data-name="Path 47990" d="M264.43,94.64c-.14.21-1.31-.42-2.81-.2s-2.48,1.13-2.67,1,0-.42.47-.84a3.86,3.86,0,0,1,2.1-1,3.66,3.66,0,0,1,2.27.39C264.3,94.24,264.51,94.55,264.43,94.64Z" fill="#263238"/>
        <path id="Path_47991" data-name="Path 47991" d="M270,103.26a10,10,0,0,1,2.36-.79c.38-.09.73-.22.76-.49a2,2,0,0,0-.42-1.1l-1.56-2.74c-2.17-3.91-3.8-7.15-3.64-7.24s2,3,4.22,6.93l1.51,2.77a2.28,2.28,0,0,1,.41,1.47,1,1,0,0,1-.54.65,2.73,2.73,0,0,1-.64.18A9.531,9.531,0,0,1,270,103.26Z" fill="#263238"/>
        <path id="Path_47992" data-name="Path 47992" d="M272.12,121s-5.7,1.32-13.56-2c0,0,3.39,7.3,14.09,4.7Z" fill="#eb996e"/>
        <path id="Path_47993" data-name="Path 47993" d="M269.92,107a2.72,2.72,0,0,0-2.56-.65,2.5,2.5,0,0,0-1.57,1.16,1.57,1.57,0,0,0,.14,1.8,1.83,1.83,0,0,0,2,.21,5.78,5.78,0,0,0,1.74-1.42,1.59,1.59,0,0,0,.36-.5.49.49,0,0,0-.03-.6" fill="#eb996e"/>
        <g id="Group_25166" data-name="Group 25166" transform="translate(-18470.76 21592.309)">
          <path id="Path_107340" data-name="Path 107340" d="M51.454,232.573l-9.68,17.81.8-43.243a15.151,15.151,0,0,1,2.682-7.652,15.824,15.824,0,0,1,2.329-2.784,17.139,17.139,0,0,1,3.7-2.591c1.293-.512,1.332-2.306.131-2.619s-4.8,1.008-7.932,4.219-2.426-3.729-2.209-6.263.507-10.391-.222-11.051c-1.065-.974-2.334,0-2.488,2.551s-1.139,10.106-2.488,9.964-.046-13.021-.046-13.021.717-2.722-.814-2.938c-2.767-.393-3.1,13.374-3.1,14.69,0,.911-1.452.808-1.4-.171s1.56-12.833-1.253-13.255c-2.158-.325-.381,11.325-2.055,13.665s-.444-9-2.522-9.224c-.769-.085-1.361-.04-1.139,6.531.125,3.536,1.708,8.819,1.423,15.64l-.068,1.765h0c-1.634,12.759-9,79.7,16.347,77.883,0,0,19.228-2.67,29.916-37.663Z" transform="translate(18637.441 -21660.953)" fill="#ffbe9d"/>
          <path id="Path_107341" data-name="Path 107341" d="M35,217.337c0,.063.427.114,1.059.444a3.986,3.986,0,0,1,1.873,2.061l.2.507.222-.5a6.365,6.365,0,0,1,1.315-1.9,7.493,7.493,0,0,1,3.906-2.1c1.139-.233,1.879-.1,1.89-.194a3.564,3.564,0,0,0-1.947-.148,7.152,7.152,0,0,0-4.2,2.1,6.587,6.587,0,0,0-1.378,2.055h.421a3.986,3.986,0,0,0-2.181-2.146A1.913,1.913,0,0,0,35,217.337Z" transform="translate(18632.205 -21678.393)" fill="#eb996e"/>
        </g>
        <path id="Path_47994" data-name="Path 47994" d="M265.78,104.94c.24,0,.48,1.57,2,2.52s3.25.52,3.3.75-.34.37-1.07.5a4.13,4.13,0,0,1-2.74-.53A3.59,3.59,0,0,1,265.7,106C265.54,105.38,265.66,105,265.78,104.94Z" fill="#263238"/>
        <path id="Path_47995" data-name="Path 47995" d="M263.66,90.37c-.09.43-1.61.45-3.33.92s-3.08,1.15-3.36.82c-.13-.16.06-.58.57-1a6,6,0,0,1,5.1-1.33C263.33,89.89,263.7,90.17,263.66,90.37Z" fill="#ad510d"/>
        <path id="Path_47996" data-name="Path 47996" d="M276.65,87.88c-.21.38-1.3.18-2.54.34s-2.25.56-2.55.24c-.13-.15,0-.52.4-.91a3.57,3.57,0,0,1,2-.85,3.49,3.49,0,0,1,2.12.39C276.55,87.37,276.74,87.7,276.65,87.88Z" fill="#ad510d"/>
        <path id="Path_47997" data-name="Path 47997" d="M273.72,93.86a1.39,1.39,0,0,0,1.12,1.59,1.34,1.34,0,0,0,1.61-1,1.41,1.41,0,0,0-1.13-1.59,1.34,1.34,0,0,0-1.6,1Z" fill="#263238"/>
        <path id="Path_47998" data-name="Path 47998" d="M260.32,96.5a1.39,1.39,0,0,0,1.13,1.58,1.33,1.33,0,0,0,1.6-1,1.39,1.39,0,0,0-1.12-1.59,1.34,1.34,0,0,0-1.61,1.01Z" fill="#263238"/>
        <path id="Path_47999" data-name="Path 47999" d="M246.46,134.31l27.16-5.57,5.91-.2-.42,18s-14.94,4.64-15.49,4.93-10.33,0-10.33,0Z" fill="#ffbe9d"/>
        <path id="Path_48000" data-name="Path 48000" d="M257.17,77.29a14.44,14.44,0,0,0-2.41,14.32c1.26,3.19,3.71,6.13,3.5,9.55-.26,4.24-4.59,7.56-4.35,11.81.26,4.78,6.38,7.8,6.39,12.58s-2.95,6.72-8.64,7.76c-3.65.66-5.67-3.85-7.48-7.09s-2.4-7-2.77-10.68a110,110,0,0,1-.29-18.42c.35-5,1.08-10,3.65-14.29a18.52,18.52,0,0,1,12.17-8.47" fill="#ad510d"/>
        <path id="Path_48001" data-name="Path 48001" d="M281.42,86.16c-1.83,2.79-7.63,1.07-11.14-.85A8.33,8.33,0,0,1,258.9,83c-2,2.55-6.08,1.71-7.56-1.17s-.65-6.84,1.39-9.36a13.08,13.08,0,0,1,8-4.34,18.48,18.48,0,0,1,18.78,7.74c1.92,2.91,3.08,6.84,1.94,10.33" fill="#ad510d"/>
        <path id="Path_48003" data-name="Path 48003" d="M320.373,158.945s-9.394-13.965-19.8-21.646-19.523-9.865-21.83-9.079c0,0,2.42,16-12.23,18.31s-20-12.22-20-12.22-15,4.27-20.56,13.49-12.39,19.54-12.39,19.54l20.14,19.8,5.63-6.18,4.07,13.52-2.59,13.3,50.68,2.37,1.877-42.81,7.2,8.062Z" fill="#ff725e"/>
        <path id="Path_48004" data-name="Path 48004" d="M233.66,161.78c.15,0,2.42,7.08,5.06,15.91s4.66,16,4.51,16.07-2.42-7.07-5.06-15.91S233.51,161.83,233.66,161.78Z" fill="#263238"/>
        <path id="Path_48012" data-name="Path 48012" d="M259.48,123.15c1.91,2.59,1.2,6.25-.06,9.2s-3,5.85-3,9.06c0,3,1.54,5.8,2.73,8.59s2,6.09.57,8.76c-1.56,2.9-5.35,4.25-6.43,7.36-1.28,3.7,2,8.1.06,11.52-1.3,2.35-4.7,3-7.07,1.68a8.66,8.66,0,0,1-4.05-6.62,23.429,23.429,0,0,1,.79-8c.84-3.79,1.69-8.12-.58-11.27-1.34-1.85-3.64-3-4.38-5.2-.88-2.56.83-5.28,2.75-7.19s4.24-3.67,5-6.26a11.28,11.28,0,0,0-.31-6.11,19.691,19.691,0,0,1-1-6.1c.14-2.06,1.29-4.22,3.26-4.84,2.78-.88,5.42,1.51,7.36,3.68" fill="#ad510d"/>
        <path id="Path_48013" data-name="Path 48013" d="M233.65,219.7c0,.73,32.42,0,32.42,0l1.26-7.91-25.85-7.76S234,213.15,233.65,219.7Z" fill="#ff725e"/>
        <path id="Path_48014" data-name="Path 48014" d="M267.33,211.81l24.35-5.6s6.62,11.32,5.33,22l-30.94-8.54Z" fill="#ff725e"/>
        <path id="Path_48015" data-name="Path 48015" d="M270.43,218.24a13.49,13.49,0,0,1,7,12.3c-.08,1.58-.45,3.15-.42,4.73a5.22,5.22,0,0,0,1.81,4.2c1.32,1,3.51,1.3,3.67,2.92a2.79,2.79,0,0,1-.75,1.91c-1.41,1.81-3.75,3.21-6,2.58-2.46-.69-3.64-3.45-4.3-5.93-2-7.63-2.23-15.61-2.43-23.5" fill="#ff725e"/>
        <g id="Group_2559" data-name="Group 2559" opacity="0.3">
          <path id="Path_48016" data-name="Path 48016" d="M271,218.58a12.49,12.49,0,0,1,6.39,12c-.08,1.58-.45,3.15-.42,4.73a5.22,5.22,0,0,0,1.81,4.2c1.32,1,3.51,1.3,3.67,2.92a2.79,2.79,0,0,1-.75,1.91c-1.41,1.81-3.75,3.21-6,2.58-2.46-.69-3.64-3.45-4.3-5.93-2-7.63-1.27-13.12-1.47-21"/>
        </g>
        <path id="Path_48017" data-name="Path 48017" d="M264,218.07a47,47,0,0,0-2,33.69,6.3,6.3,0,0,0,2.05,3.42c1.79,1.27,4.25.54,6.3-.22,2.63-1,5.55-2.24,6.54-4.87a7,7,0,0,0-.05-4.51c-.88-2.92-2.85-5.46-3.51-8.43-.59-2.69-.07-5.48-.21-8.22a17.12,17.12,0,0,0-6.45-12.44" fill="#ff725e"/>
        <g id="Group_2560" data-name="Group 2560" opacity="0.3">
          <path id="Path_48018" data-name="Path 48018" d="M263.33,219a4,4,0,0,0,2,2.74,3.45,3.45,0,0,0,3.37-.11,3,3,0,0,0,1.37-3,5.1,5.1,0,0,1-3.48,1.37,5,5,0,0,1-3.47-1.4"/>
        </g>
        <path id="Path_48019" data-name="Path 48019" d="M271.36,214.85c-.77-2.17-3.55-4.27-5.83-3.95h.05a3.93,3.93,0,0,0-3.34,1.92,5.63,5.63,0,0,0,6.59,7.72A4.64,4.64,0,0,0,271.36,214.85Z" fill="#ff725e"/>
        <path id="Path_48020" data-name="Path 48020" d="M262.72,218.7a4.83,4.83,0,0,1,1.08.65,6.72,6.72,0,0,0,3.1,1.2,4.15,4.15,0,0,0,2.21-.37,3.39,3.39,0,0,0,1.62-1.9,5.78,5.78,0,0,0-1-5.61,5.06,5.06,0,0,0-5.39-1.53,4.58,4.58,0,0,0-3,3.52,4.51,4.51,0,0,0,.72,3.17,10.941,10.941,0,0,0,.81.95.511.511,0,0,1-.29-.16,3.77,3.77,0,0,1-.68-.67,4.56,4.56,0,0,1-.93-3.34,5,5,0,0,1,3.23-3.92,5.48,5.48,0,0,1,5.94,1.64,6.19,6.19,0,0,1,1.07,6.13,3.76,3.76,0,0,1-1.87,2.11,4.51,4.51,0,0,1-2.43.34,6.29,6.29,0,0,1-3.18-1.4,6,6,0,0,1-1.01-.81Z" fill="#263238"/>
        <path id="Path_48021" data-name="Path 48021" d="M266.7,210.8c.05.07-.44.42-1,1.15a6.79,6.79,0,0,0-1.44,3.29,6.67,6.67,0,0,0,.55,3.55c.38.86.77,1.33.71,1.38s-.54-.34-1-1.21a6.12,6.12,0,0,1-.74-3.78,6.23,6.23,0,0,1,1.69-3.47C266.09,211,266.67,210.75,266.7,210.8Z" fill="#263238"/>
        <path id="Path_48022" data-name="Path 48022" d="M276.63,243.79a3.735,3.735,0,0,1-.28.65,10.821,10.821,0,0,1-1.05,1.6,16.4,16.4,0,0,1-4.74,4.17,16.72,16.72,0,0,1-6,2.1,12.37,12.37,0,0,1-1.92.12c-.45,0-.7,0-.7-.07s1-.11,2.55-.42A18.53,18.53,0,0,0,275,245.81C276,244.6,276.55,243.75,276.63,243.79Z" fill="#263238"/>
        <path id="Path_48023" data-name="Path 48023" d="M268.5,255.64c-.05.13-1.11-.34-1.75-1.54a2.59,2.59,0,0,1-.34-2.31c.15,0,.21,1,.79,2.06S268.58,255.51,268.5,255.64Z" fill="#263238"/>
        <path id="Path_48024" data-name="Path 48024" d="M273.23,252.73c0,.13-1.08-.15-1.75-1.2s-.53-2.12-.39-2.09.23.91.82,1.8S273.29,252.59,273.23,252.73Z" fill="#263238"/>
        <path id="Path_48025" data-name="Path 48025" d="M276,251.65a16.056,16.056,0,0,0-.59-2.25c-.51-1.17-1.08-2.1-.94-2.19a4.18,4.18,0,0,1,1.42,2,3.9,3.9,0,0,1,.34,1.74C276.18,251.4,276.05,251.67,276,251.65Z" fill="#263238"/>
        <path id="Path_48026" data-name="Path 48026" d="M269.86,243.81a3.442,3.442,0,0,1-.45-.79,21.737,21.737,0,0,1-1-2.26,35.49,35.49,0,0,1-2.14-16c.11-1,.23-1.87.35-2.44a2.6,2.6,0,0,1,.23-.87c.08,0-.1,1.28-.21,3.34a43.491,43.491,0,0,0,.3,8,42.791,42.791,0,0,0,1.82,7.81C269.43,242.59,269.94,243.77,269.86,243.81Z" fill="#263238"/>
        <g id="Group_2561" data-name="Group 2561" opacity="0.3">
          <path id="Path_48027" data-name="Path 48027" d="M266.65,222.29a26.76,26.76,0,0,0,0,17.58c.1.29.23.62.52.72a.7.7,0,0,0,.84-.53,2.11,2.11,0,0,0-.07-1.11c-1.23-5.15-2.15-11.31-1.22-16.53"/>
        </g>
        <path id="Path_48028" data-name="Path 48028" d="M246.66,213a7.43,7.43,0,0,1,2.1-.24,31.931,31.931,0,0,1,5.07.25,30.191,30.191,0,0,1,5,1.07,7.2,7.2,0,0,1,2,.77c0,.15-3.11-.82-7-1.32S246.67,213.14,246.66,213Z" fill="#263238"/>
        <path id="Path_48029" data-name="Path 48029" d="M281.58,213.19c0,.15-2.34.38-5.17.95s-5.09,1.26-5.14,1.12a16.05,16.05,0,0,1,5-1.63A16.661,16.661,0,0,1,281.58,213.19Z" fill="#263238"/>
        <path id="Path_48030" data-name="Path 48030" d="M291.57,220.25a24.721,24.721,0,0,1-2.94-1,62.905,62.905,0,0,0-7.17-2.08,62,62,0,0,0-7.38-1.17,26.42,26.42,0,0,1-3.09-.32,14.141,14.141,0,0,1,3.12,0,45,45,0,0,1,7.46,1,44.25,44.25,0,0,1,7.19,2.25,14.521,14.521,0,0,1,2.81,1.32Z" fill="#263238"/>
        <g id="Group_2562" data-name="Group 2562" opacity="0.3">
          <path id="Path_48031" data-name="Path 48031" d="M282.49,208.44c.54,8.44,5.29,14.81,12.45,19.32l2.07.5c.16-.32-.11-1.19-.23-1.53a86.162,86.162,0,0,0-5.43-12.28c-1-1.77-1.41-6.12-2.88-7.5l-6,1.49"/>
        </g>
        <path id="Path_48032" data-name="Path 48032" d="M264,256.88c.14,0-.92,7.43-2.37,16.56s-2.73,16.5-2.87,16.48.91-7.44,2.36-16.57S263.89,256.85,264,256.88Z" fill="#455a64"/>
        <path id="Path_48033" data-name="Path 48033" d="M249.22,212.36c-.05,0-.27-.23-.45-.74a3.88,3.88,0,0,1-.11-2.08,4,4,0,0,1,1-1.86c.38-.39.69-.53.72-.48a5.94,5.94,0,0,0-1.11,5.16Z" fill="#fafafa"/>
        <path id="Path_48034" data-name="Path 48034" d="M251.67,219.77a1.883,1.883,0,0,1-.72-.71,3.42,3.42,0,0,1,.86-4.49c.51-.38.91-.45.93-.39s-.29.26-.69.67a3.59,3.59,0,0,0-.77,4C251.5,219.42,251.73,219.71,251.67,219.77Z" fill="#fafafa"/>
        <path id="Path_48035" data-name="Path 48035" d="M259.57,219.66c0,.05-.34-.06-.69-.45a3,3,0,0,1-.68-1.86,2.92,2.92,0,0,1,.6-1.89c.33-.4.63-.53.67-.48s-.15.28-.36.68a3.47,3.47,0,0,0,.07,3.33C259.41,219.38,259.62,219.59,259.57,219.66Z" fill="#fafafa"/>
        <path id="Path_48036" data-name="Path 48036" d="M239.88,219.93a6.34,6.34,0,0,1-.42-2.32A15.45,15.45,0,0,1,242.93,207a6.851,6.851,0,0,1,1.7-1.62c.06.07-.57.7-1.41,1.85a18.05,18.05,0,0,0-2.52,4.92,17.72,17.72,0,0,0-.87,5.45A16.1,16.1,0,0,1,239.88,219.93Z" fill="#fafafa"/>
        <path id="Path_48037" data-name="Path 48037" d="M256.07,214.68a1.535,1.535,0,0,1-.58-.67,3.4,3.4,0,0,1,.92-4c.45-.34.81-.4.83-.35s-.24.25-.58.62a3.89,3.89,0,0,0-.88,1.69,3.94,3.94,0,0,0,.05,1.9C256,214.35,256.14,214.63,256.07,214.68Z" fill="#fafafa"/>
        <path id="Path_48038" data-name="Path 48038" d="M278.56,213c-.14,0,0-.87-.15-1.87s-.49-1.76-.36-1.84.73.64.88,1.77A2.365,2.365,0,0,1,278.56,213Z" fill="#fafafa"/>
        <path id="Path_48039" data-name="Path 48039" d="M280.42,216.34c-.06.13-.76-.21-1-1.05s.09-1.53.22-1.47,0,.64.28,1.31S280.51,216.22,280.42,216.34Z" fill="#fafafa"/>
        <path id="Path_48040" data-name="Path 48040" d="M283.87,224.64c-.18,0,.45-1.6.31-3.53a16.835,16.835,0,0,0-.88-3.42,5.32,5.32,0,0,1,1.4,3.38A5.38,5.38,0,0,1,283.87,224.64Z" fill="#fafafa"/>
        <path id="Path_48041" data-name="Path 48041" d="M266.68,233.24a2.485,2.485,0,0,1-.86.61,5.35,5.35,0,0,1-2.49.46,5.48,5.48,0,0,1-2.44-.7c-.56-.34-.83-.65-.79-.7a7.93,7.93,0,0,0,6.58.33Z" fill="#fafafa"/>
        <path id="Path_48042" data-name="Path 48042" d="M272.51,228.12a9.25,9.25,0,0,0-3.1-.3,9.71,9.71,0,0,0-2.88,1.14,1.98,1.98,0,0,1,.62-.75,4.73,4.73,0,0,1,4.55-.64C272.26,227.8,272.54,228.06,272.51,228.12Z" fill="#fafafa"/>
        <path id="Path_48043" data-name="Path 48043" d="M268.44,241.51a2.573,2.573,0,0,1-.59,1.17,6.76,6.76,0,0,1-2.47,2,6.64,6.64,0,0,1-3.1.68,2.59,2.59,0,0,1-1.29-.27,8.91,8.91,0,0,0,7.45-3.59Z" fill="#fafafa"/>
        <path id="Path_48044" data-name="Path 48044" d="M273.66,238.45c0,.16-1.35-.06-2.89.37a24.994,24.994,0,0,0-2.69,1.16,5,5,0,0,1,5.58-1.53Z" fill="#fafafa"/>
        <path id="Path_48045" data-name="Path 48045" d="M234.16,219.89A4.39,4.39,0,0,1,233,215c.15,0,0,1.18.34,2.52S234.28,219.79,234.16,219.89Z" fill="#fafafa"/>
        <path id="Path_107339" data-name="Path 107339" d="M233.66,161.78c.15,0,2.42,7.08,5.06,15.91s4.66,16,4.51,16.07-2.42-7.07-5.06-15.91S233.51,161.83,233.66,161.78Z" transform="translate(124.867 -64.945) rotate(19)" fill="#263238"/>
      </g>
    </g>
  </g>
</svg>
