<svg id="Component_Character_Male_D" data-name="Component/Character/Male/D" xmlns="http://www.w3.org/2000/svg" xmlns:xlink="http://www.w3.org/1999/xlink" width="180" height="180" viewBox="0 0 180 180">
  <defs>
    <clipPath id="clip-path">
      <rect id="Rectangle_9972" data-name="Rectangle 9972" width="180" height="180" transform="translate(18147 -19022)" fill="#fff" stroke="#707070" stroke-width="1"/>
    </clipPath>
  </defs>
  <g id="Component_Character_Male_D-2" data-name="Component/Character/Male/D" transform="translate(-18147 19022)" clip-path="url(#clip-path)">
    <g id="Group_25186" data-name="Group 25186" transform="translate(159 -229.717)">
      <path id="Path_107509" data-name="Path 107509" d="M91.8,204.08c-3,2.354-3.2,6.756-3.051,10.569s.192,8.15-2.589,10.782c-2.276,2.169-6.259,2.973-6.913,6.052A3.556,3.556,0,0,0,84.99,235c-.967,2.411-.526,5.5,1.529,7.112s5.647.846,6.4-1.629a3.144,3.144,0,1,0,6.116,1.422" transform="translate(17950.422 -18968.014)" fill="#8c9297"/>
      <path id="Path_107510" data-name="Path 107510" d="M149.134,228.707a3.791,3.791,0,1,0,7.112-2.575c-.59-1.479-2.134-2.6-2.169-4.182-.092-1.92,1.927-3.193,3.7-3.94s3.848-1.742,4.125-3.641-1.309-3.357-2.631-4.658-2.6-3.279-1.664-4.886c.477-.818,1.422-1.259,2.034-1.977,1.38-1.593.825-4.267-.768-5.626a7.774,7.774,0,0,0-5.96-1.422,51.293,51.293,0,0,0-6.116,1.536,25.17,25.17,0,0,1-19.914-3.556" transform="translate(17936.639 -18965.039)" fill="#8c9297"/>
      <path id="Path_107511" data-name="Path 107511" d="M99.666,215.1l7.318,42.416a13.648,13.648,0,0,0,15.853,11.137h0a13.655,13.655,0,0,0,11.194-14.651c-.334-3.762-.619-6.877-.619-6.877s10.625-2.731,9.708-13.513c-.448-5.22-2.233-15.9-3.969-25.539a20.184,20.184,0,0,0-21.834-16.507l-1.038.1A20.049,20.049,0,0,0,99.666,215.1Z" transform="translate(17944.594 -18964.373)" fill="#f4d3bd"/>
      <path id="Path_107512" data-name="Path 107512" d="M150.887,224.1a1.536,1.536,0,0,1-1.33,1.7,1.472,1.472,0,0,1-1.721-1.23,1.536,1.536,0,0,1,1.33-1.7,1.472,1.472,0,0,1,1.721,1.23Z" transform="translate(17929.168 -18973.434)" fill="#263238"/>
      <path id="Path_107513" data-name="Path 107513" d="M150.313,221.992c-.171.213-1.422-.533-3.08-.37s-2.8,1.117-2.994.932c-.092-.085.064-.462.555-.9a4.225,4.225,0,0,1,2.375-.989,4.1,4.1,0,0,1,2.475.541C150.193,221.544,150.4,221.892,150.313,221.992Z" transform="translate(17931.635 -18972.799)" fill="#263238"/>
      <path id="Path_107514" data-name="Path 107514" d="M128.085,226.768a1.55,1.55,0,0,1-1.337,1.693,1.479,1.479,0,0,1-1.721-1.23,1.55,1.55,0,0,1,1.33-1.7,1.486,1.486,0,0,1,1.728,1.238Z" transform="translate(17935.754 -18974.203)" fill="#263238"/>
      <path id="Path_107515" data-name="Path 107515" d="M127.443,224.654c-.171.22-1.422-.526-3.08-.363s-2.788,1.117-2.994.932c-.092-.085.064-.462.555-.9a4.267,4.267,0,0,1,2.375-.989,4.047,4.047,0,0,1,2.475.54C127.323,224.213,127.5,224.562,127.443,224.654Z" transform="translate(17938.236 -18973.568)" fill="#263238"/>
      <path id="Path_107516" data-name="Path 107516" d="M139.21,236.09a10.862,10.862,0,0,1,2.639-.754c.42-.085.818-.206.861-.5a2.233,2.233,0,0,0-.405-1.223l-1.572-3.1c-2.183-4.424-3.8-8.072-3.627-8.158s2.091,3.428,4.267,7.823l1.515,3.129a2.44,2.44,0,0,1,.377,1.636,1.06,1.06,0,0,1-.633.711,3.186,3.186,0,0,1-.711.171,11.215,11.215,0,0,1-2.71.27Z" transform="translate(17933.691 -18973.291)" fill="#263238"/>
      <path id="Path_107517" data-name="Path 107517" d="M126.588,215.6c-.121.469-1.792.413-3.712.839s-3.449,1.109-3.741.711c-.135-.178.092-.633.711-1.131a6.4,6.4,0,0,1,2.7-1.252,6.316,6.316,0,0,1,2.98.064C126.247,215.069,126.638,215.389,126.588,215.6Z" transform="translate(17938.887 -18971.059)" fill="#8c9297"/>
      <path id="Path_107518" data-name="Path 107518" d="M148.95,215.279c-.256.405-1.422.128-2.845.242s-2.511.5-2.845.135c-.135-.178,0-.576.484-.981a3.919,3.919,0,0,1,2.226-.839,3.876,3.876,0,0,1,2.311.54C148.857,214.717,149.056,215.087,148.95,215.279Z" transform="translate(17931.924 -18970.828)" fill="#8c9297"/>
      <path id="Path_107519" data-name="Path 107519" d="M108.905,204.089l-.057.057a8.535,8.535,0,0,0-2.617,5.789v.22c-.121,3.122.256,6.244.107,9.359s-.91,6.344-2.98,8.684c-.846.96-2.439,1.721-3.307.775a2.639,2.639,0,0,1-.526-1.373c-1.294-7.368-3.969-13.762-4.708-21.535a6.55,6.55,0,0,1,2.2-5.59c1.508-1.33,3.378-2.731,5.27-2.048s4.559,3.833,6.1,5.128" transform="translate(17945.908 -18966.33)" fill="#8c9297"/>
      <path id="Path_107520" data-name="Path 107520" d="M102.837,231c-.192-.057-7.624-1.465-6.671,5.882s8.136,4.879,8.122,4.666S102.837,231,102.837,231Z" transform="translate(17945.535 -18975.748)" fill="#f4d3bd"/>
      <path id="Path_107521" data-name="Path 107521" d="M102.516,240.1a1.948,1.948,0,0,1-.32.228,1.259,1.259,0,0,1-.953.149,3.206,3.206,0,0,1-1.835-2.653,4.267,4.267,0,0,1,.121-1.885,1.508,1.508,0,0,1,.839-1.109.661.661,0,0,1,.8.256c.128.192.1.349.142.356s.142-.142.043-.441a.832.832,0,0,0-.348-.427.982.982,0,0,0-.711-.092,1.828,1.828,0,0,0-1.195,1.316,4.473,4.473,0,0,0-.178,2.134c.242,1.472,1.181,2.759,2.283,2.93a1.358,1.358,0,0,0,1.145-.348A.759.759,0,0,0,102.516,240.1Z" transform="translate(17944.73 -18976.785)" fill="#eaae94"/>
      <path id="Path_107522" data-name="Path 107522" d="M104.9,195.921c-2.134-2.774,2.461-7.5,5.988-9s8.5-.2,12.24.647c2.354.54,4.737,1.373,7.112,1.038a16.357,16.357,0,0,0,4.559-1.643,11.969,11.969,0,0,1,4.623-1.422,4.466,4.466,0,0,1,4.125,2.084c.754,1.422.078,3.556-1.5,3.947a3.641,3.641,0,1,1,1.622,6.614c.974-.9,2.71.263,2.71,1.579a3.859,3.859,0,0,1-2.255,3.044c-2.944,1.65-6.572,1.565-9.857.8s-6.4-2.134-9.672-2.987-8.755-2.39-11.813-.96c-2.247,1.045-3.6,4.011-4.978,3.556a4.516,4.516,0,0,1-2.653-3.087,13.058,13.058,0,0,1-.27-4.21" transform="translate(17943.145 -18962.658)" fill="#8c9297"/>
      <path id="Path_107523" data-name="Path 107523" d="M105.71,231.149a64.3,64.3,0,0,0,1.337,11.621,21.728,21.728,0,0,0,5.27,10.277c3.556,3.648,8.222,7.112,13.271,7.973,5.512.91,12.254-.242,16.742-3.556,2.134-1.572,3.677-4.978,3.016-7.553a5.6,5.6,0,0,0,3.2-4.694c.114-1.991-1.1-4.481-2.674-4.744,1.181-.2,1.522-2.077,1.074-3.136s-2.006-1.38-3.186-1.152a8.222,8.222,0,0,0-3.179,1.636,11.216,11.216,0,0,1-3.08,1.835c-3.812,1.237-7.674-2.134-11.678-1.97-3.62.142-6.842,3.151-10.433,2.646a7.233,7.233,0,0,1-4.836-3.364c-1.109-1.7-.626-7.98-1.06-9.957" transform="translate(17942.752 -18974.637)" fill="#8c9297"/>
      <g id="Group_25185" data-name="Group 25185" transform="translate(18071.813 -18727.297)" opacity="0.6">
        <path id="Path_107524" data-name="Path 107524" d="M144.244,256.338a6.8,6.8,0,0,1-.882-.27,4.722,4.722,0,0,0-4.111.747c-.455.327-.711.59-.711.555a1.767,1.767,0,0,1,.576-.711,4.267,4.267,0,0,1,4.345-.782C143.988,256.053,144.265,256.3,144.244,256.338Z" transform="translate(-138.54 -255.593)" fill="#455a64"/>
      </g>
      <path id="Path_107525" data-name="Path 107525" d="M135.535,245.15c.27-.043.448,1.757,2.134,2.845s3.556.747,3.6,1c.036.107-.391.391-1.2.491a4.488,4.488,0,0,1-2.994-.711,3.9,3.9,0,0,1-1.65-2.432C135.258,245.612,135.414,245.15,135.535,245.15Z" transform="translate(17934.191 -18979.875)" fill="#fff"/>
      <path id="Path_107526" data-name="Path 107526" d="M128.09,263.5a1.907,1.907,0,0,1,.462.171c.306.114.754.27,1.344.434a23.977,23.977,0,0,0,5.121.8,22.59,22.59,0,0,0,3.556-.071,19.911,19.911,0,0,0,4.018-.782,16.358,16.358,0,0,0,4.1-1.87,12.432,12.432,0,0,0,3.556-3.229,7.389,7.389,0,0,0,1.422-5.334v-.149l.128-.057a5.768,5.768,0,0,0,2.226-1.828,6.493,6.493,0,0,0,.711-1.195,4.318,4.318,0,0,0,.313-1.287,5.071,5.071,0,0,0-1.707-4.3l-.107-.085.085-.107a2.987,2.987,0,0,0,.441-2.923,2.845,2.845,0,0,0-1.636-1.607,3.129,3.129,0,0,0-1.486-.206c-.348.043-.519.107-.526.085a1.8,1.8,0,0,1,.519-.156,3.1,3.1,0,0,1,3.328,1.8,3.243,3.243,0,0,1-.427,3.179v-.192a5.37,5.37,0,0,1,1.863,4.545,4.686,4.686,0,0,1-.334,1.422,7.389,7.389,0,0,1-.747,1.266,6.031,6.031,0,0,1-2.361,1.956l.107-.213a7.645,7.645,0,0,1-1.422,5.633,12.76,12.76,0,0,1-3.663,3.321,16.01,16.01,0,0,1-4.189,1.885,19.617,19.617,0,0,1-4.089.768,22.923,22.923,0,0,1-3.62,0,22.423,22.423,0,0,1-5.142-.932,11.583,11.583,0,0,1-1.33-.5,2.635,2.635,0,0,1-.512-.235Z" transform="translate(17936.289 -18978.32)" fill="#455a64"/>
      <path id="Path_107527" data-name="Path 107527" d="M82.225,234.069a1.124,1.124,0,0,1-.377-.185,2.134,2.134,0,0,1-.711-.939,3.193,3.193,0,0,1-.149-1.892,3.819,3.819,0,0,1,1.422-2.084,9.5,9.5,0,0,1,2.7-1.422,17.518,17.518,0,0,0,3.144-1.337,6.145,6.145,0,0,0,2.368-2.788,10.192,10.192,0,0,0,.839-3.912c.057-2.781-.583-5.419-.654-7.873a10.36,10.36,0,0,1,1.472-6.28,5.917,5.917,0,0,1,3.556-2.439,4.026,4.026,0,0,1,1.195-.057,2.92,2.92,0,0,1,.412.078,6.351,6.351,0,0,0-1.572.121,5.882,5.882,0,0,0-3.407,2.447,9.991,9.991,0,0,0-1.344,6.116c.128,2.4.711,5.042.711,7.9a10.554,10.554,0,0,1-.9,4.054,6.465,6.465,0,0,1-2.525,2.93,16.815,16.815,0,0,1-3.236,1.337,9.352,9.352,0,0,0-2.639,1.323,3.6,3.6,0,0,0-1.373,1.92,3.037,3.037,0,0,0,.078,1.792,2.368,2.368,0,0,0,.989,1.188Z" transform="translate(17949.916 -18967.658)" fill="#455a64"/>
      <path id="Path_107528" data-name="Path 107528" d="M142.672,193.682a1.62,1.62,0,0,1,.32-.149,2.383,2.383,0,0,1,.42-.142,3.558,3.558,0,0,1,.59-.121,4.4,4.4,0,0,1,3.627,1.3h0a5.9,5.9,0,0,1,1.1,4.409,7.233,7.233,0,0,1-2.916,4.815,11.173,11.173,0,0,1-6.187,2.134,24.808,24.808,0,0,1-7.176-.768,32.545,32.545,0,0,1-10.426-4.616,32.763,32.763,0,0,0-4.267-2.482,11.664,11.664,0,0,0-4.125-1.053,12.318,12.318,0,0,0-6.052,1.124c-1.33.626-1.963,1.166-1.991,1.124A8.734,8.734,0,0,1,107.517,198a12.269,12.269,0,0,1,6.131-1.252,11.877,11.877,0,0,1,4.267,1.031,33.09,33.09,0,0,1,4.331,2.482,32.78,32.78,0,0,0,10.327,4.538,24.707,24.707,0,0,0,7.069.8,10.974,10.974,0,0,0,6.01-2.048,7.013,7.013,0,0,0,2.845-4.594,5.69,5.69,0,0,0-.989-4.267h0a4.331,4.331,0,0,0-3.449-1.33,9.246,9.246,0,0,0-1.387.327Z" transform="translate(17942.787 -18964.885)" fill="#455a64"/>
      <path id="Path_107529" data-name="Path 107529" d="M138.545,185.05a4.161,4.161,0,0,1-.334,1.629A6.934,6.934,0,0,1,135.167,190a8.719,8.719,0,0,1-2.966,1.067,12.524,12.524,0,0,1-3.613,0,48.658,48.658,0,0,1-7.923-2.176,16.2,16.2,0,0,0-7.987-.846,10.554,10.554,0,0,0-5.611,3.272,10.96,10.96,0,0,0-2.269,3.812c-.327,1.01-.391,1.6-.434,1.593a1.75,1.75,0,0,1,0-.427,8.143,8.143,0,0,1,.263-1.209,10.5,10.5,0,0,1,2.212-3.947,10.668,10.668,0,0,1,5.732-3.428,16.3,16.3,0,0,1,8.165.825,50.161,50.161,0,0,0,7.859,2.191,12.183,12.183,0,0,0,3.52,0,8.534,8.534,0,0,0,2.888-.989,6.941,6.941,0,0,0,3.037-3.151A10.133,10.133,0,0,0,138.545,185.05Z" transform="translate(17943.145 -18962.52)" fill="#455a64"/>
    </g>
    <g id="character-1--inject-833" transform="translate(17991.6 -19128.984)">
      <path id="Path_107530" data-name="Path 107530" d="M257.46,220.774l8.463,15.249,5.165-41.468a16.612,16.612,0,0,0-1.717-8.708,17.271,17.271,0,0,0-2.1-3.38,18.328,18.328,0,0,0-3.611-3.393,1.513,1.513,0,0,1,.273-2.848c1.363-.15,5.042,1.826,7.945,5.805s3.2-3.679,3.366-6.459,1.063-11.338,1.949-11.951c1.363-.886,2.535.382,2.317,3.162s-.327,11.134,1.145,11.188,2.071-14.118,2.071-14.118-.354-3.066,1.363-3.053c3.053,0,1.281,14.99,1.077,16.353-.136.981,1.458,1.1,1.554,0s.3-14.145,3.407-14.173c2.4,0-1.363,12.346.109,15.113s1.881-9.689,4.17-9.607c.845,0,1.485.164.218,7.25-.681,3.816-3.2,9.308-3.966,16.748l-.2,1.921c-.15,9.267-2.194,37.189-10.616,58.448a17.225,17.225,0,0,1-30.307,3.066C244.35,248.111,236.16,227.7,236.16,227.7Z" transform="translate(32.821 15.112)" fill="#f4d3bd"/>
      <path id="Path_107531" data-name="Path 107531" d="M275.709,182.219a7.708,7.708,0,0,0-1.213.313,4.4,4.4,0,0,0-2.358,1.949l-.286.518-.164-.572a7.194,7.194,0,0,0-1.131-2.262,8.272,8.272,0,0,0-3.911-2.889c-1.2-.422-2.017-.4-2.017-.5a3.993,3.993,0,0,1,2.126.15,7.767,7.767,0,0,1,4.238,2.916,7.046,7.046,0,0,1,1.172,2.439h-.45a4.279,4.279,0,0,1,2.725-1.99,2.058,2.058,0,0,1,1.267-.068Z" transform="translate(43.148 21.603)" fill="#eaae94"/>
      <path id="Path_107532" data-name="Path 107532" d="M241.881,182.6l24.052,45.516,4.088-40.242h21.545l-7.918,57.358A16.83,16.83,0,0,1,272.3,259.186h0c-7.822,2.63-18.22-.436-22.076-7.727L236.13,227.475Z" transform="translate(32.81 23.02)" fill="#ff725e"/>
      <path id="Path_107533" data-name="Path 107533" d="M260.068,235.069a8.489,8.489,0,0,1-1.608-2.562,21.218,21.218,0,0,1-1.363-14.336,8.939,8.939,0,0,1,1.118-2.821,26.532,26.532,0,0,0,1.826,19.719Z" transform="translate(40.174 34.9)" fill="#263238"/>
      <g id="Group_25187" data-name="Group 25187" transform="translate(293.458 249.61)" opacity="0.3">
        <path id="Path_107534" data-name="Path 107534" d="M258.725,214.88a10.18,10.18,0,0,0-4.2,6.514,24.2,24.2,0,0,0-.15,7.931,4.674,4.674,0,0,0,.6,2.18,1.676,1.676,0,0,0,1.962.736,1.745,1.745,0,0,0,.872-1.608,6.389,6.389,0,0,0-.422-1.867,15.89,15.89,0,0,1,1.976-13.409" transform="translate(-254.122 -214.88)"/>
      </g>
      <path id="Path_107535" data-name="Path 107535" d="M200.426,175.357c3.6-.681,7.086-1.99,11.311-2.167h0a45.27,45.27,0,0,0,27.255,0c1.118.15,2.726.286,4.592.518,11.87,1.363,16.421,3.911,24.952,12.265l-.94,48.037s2.862,54.673,2.725,63.5h-81.11l-.123-37.039V250.389l-26.628,9.757,2.426-14.009s11.938-46.5,13.818-52.765C180.912,185.768,189.088,177.523,200.426,175.357Z" transform="translate(6.087 19.607)" fill="#ff725e"/>
      <path id="Path_107536" data-name="Path 107536" d="M174.684,229.955l38.934-10.125,11.134,18.111L185.1,254.634A15.943,15.943,0,0,1,178.5,256h0a16.067,16.067,0,0,1-14.84-9.948l-1.2-2.944Z" transform="translate(6.087 36.525)" fill="#ff725e"/>
      <path id="Path_107537" data-name="Path 107537" d="M186.414,232.859c-.191,0-.354-7.154-.354-15.971s.164-15.958.354-15.958.368,7.141.368,15.958S186.619,232.859,186.414,232.859Z" transform="translate(14.648 29.669)" fill="#263238"/>
      <g id="Group_25188" data-name="Group 25188" transform="translate(194.889 269.505)" opacity="0.3">
        <path id="Path_107538" data-name="Path 107538" d="M181.79,249.7a13.531,13.531,0,0,0,5.192,4.838c4.865,2.63,10.9,2.562,16.121.845a46.115,46.115,0,0,0,14.186-8.395,119.116,119.116,0,0,0,15.781-15.344,1.676,1.676,0,0,0,.572-1.295c-.136-.845-1.363-.954-2.153-.831-8.067,1.281-15.426,5.192-22.785,8.749q-13.123,6.35-26.846,11.42" transform="translate(-181.79 -229.479)"/>
      </g>
      <path id="Path_107539" data-name="Path 107539" d="M256.057,214.842a1.843,1.843,0,0,1-.15.368l-.5,1.049c-.232.45-.572.981-.954,1.622a22.417,22.417,0,0,1-1.567,2.058,23.287,23.287,0,0,1-5.342,4.633,24.3,24.3,0,0,1-8.708,3.407,23.33,23.33,0,0,1-11.3-.777,26.764,26.764,0,0,1-11.025-6.9,25.5,25.5,0,0,1-6.814-12.646,19.9,19.9,0,0,1-.068-7.672,16.939,16.939,0,0,1,3.3-7.182,13.887,13.887,0,0,1,6.432-4.606,8.736,8.736,0,0,1,3.925-.409,6.337,6.337,0,0,1,3.529,1.7,5.029,5.029,0,0,1,1.554,3.543,6.555,6.555,0,0,1-1.1,3.611,9.675,9.675,0,0,1-6.01,3.775A27.171,27.171,0,0,1,189.2,181.578a20.619,20.619,0,0,1-.981-5.928,2.005,2.005,0,0,1,.068.382l.164,1.145a29.242,29.242,0,0,0,1.022,4.32,27.664,27.664,0,0,0,9.049,13.2,27.051,27.051,0,0,0,9.975,4.92,26.751,26.751,0,0,0,12.7.2,9.117,9.117,0,0,0,5.6-3.516,5.805,5.805,0,0,0,.981-3.23,4.238,4.238,0,0,0-1.363-3.053,5.615,5.615,0,0,0-3.148-1.513,8.013,8.013,0,0,0-3.611.382,13.341,13.341,0,0,0-6.091,4.374,16.354,16.354,0,0,0-3.162,6.882,19.3,19.3,0,0,0,0,7.4,24.952,24.952,0,0,0,6.541,12.333,26.506,26.506,0,0,0,10.738,6.814,23,23,0,0,0,11.038.845,24.229,24.229,0,0,0,8.585-3.257,23.971,23.971,0,0,0,5.342-4.47A26.932,26.932,0,0,0,256.057,214.842Z" transform="translate(15.431 20.499)" fill="#e0e0e0"/>
      <path id="Path_107540" data-name="Path 107540" d="M259.928,252.864a24.636,24.636,0,0,0-2.221-4.933A16.966,16.966,0,0,0,245.892,240a23.29,23.29,0,0,0-10.043.463,27.961,27.961,0,0,0-5.287,1.962,19.706,19.706,0,0,0-4.933,3.311,9.035,9.035,0,0,0-2.835,5.315,5.451,5.451,0,0,0,2.33,5.451,4.088,4.088,0,0,0,5.71-.872,15.167,15.167,0,0,0,2.725-6.309,24.924,24.924,0,0,0-.9-13.559,25.306,25.306,0,0,0-7.032-10.575,29.04,29.04,0,0,0-9.989-5.846,29.435,29.435,0,0,0-24.093,2.1c-1.54.831-2.657,1.594-3.434,2.1l-.859.586-.313.191a26.56,26.56,0,0,1,4.47-3.121A29.108,29.108,0,0,1,205.65,217.2a30.089,30.089,0,0,1,10.18,1.581,29.354,29.354,0,0,1,10.234,5.914,26.165,26.165,0,0,1,7.263,10.834,25.674,25.674,0,0,1,.927,13.954,15.9,15.9,0,0,1-2.834,6.609,4.824,4.824,0,0,1-6.623.995,5.655,5.655,0,0,1-2.235-2.725,6.814,6.814,0,0,1-.4-3.393,9.539,9.539,0,0,1,3.012-5.7,20.444,20.444,0,0,1,5.1-3.407,28.617,28.617,0,0,1,5.451-1.976,24.133,24.133,0,0,1,10.289-.4,17.225,17.225,0,0,1,11.965,8.286,18.03,18.03,0,0,1,1.635,3.707,10.088,10.088,0,0,1,.273,1.022,1.362,1.362,0,0,1,.041.354Z" transform="translate(14.967 35.57)" fill="#e0e0e0"/>
      <path id="Path_107541" data-name="Path 107541" d="M192.8,209.861a5.974,5.974,0,0,1-.681.859,16.532,16.532,0,0,1-2.126,2.058,19.962,19.962,0,0,1-3.72,2.358,21.981,21.981,0,0,1-5.124,1.744,27.146,27.146,0,0,1-9.757,0,28.737,28.737,0,0,1-2.889-.654c-.668-.2-1.036-.327-1.022-.382s1.526.232,3.979.531a30.58,30.58,0,0,0,9.539-.232,23.672,23.672,0,0,0,4.974-1.635,22.2,22.2,0,0,0,3.707-2.18C191.642,210.9,192.718,209.779,192.8,209.861Z" transform="translate(7.908 32.907)" fill="#e0e0e0"/>
      <path id="Path_107542" data-name="Path 107542" d="M186.976,247.859a24.531,24.531,0,0,0-1.5-4.238,13.328,13.328,0,0,0-18.261-5.942,25.009,25.009,0,0,0-3.707,2.535,3.312,3.312,0,0,1,.777-.954,11.978,11.978,0,0,1,2.725-2.03,13.409,13.409,0,0,1,18.969,6.173,12.263,12.263,0,0,1,.981,3.216A3.489,3.489,0,0,1,186.976,247.859Z" transform="translate(6.468 42.184)" fill="#e0e0e0"/>
      <path id="Path_107543" data-name="Path 107543" d="M244.011,236.321a4.754,4.754,0,0,1-.368-1.363,24.078,24.078,0,0,1-.5-3.72,30.38,30.38,0,0,1,.136-5.587,32.447,32.447,0,0,1,1.567-6.677,31.863,31.863,0,0,1,3.025-6.146,29.321,29.321,0,0,1,3.434-4.415,25.9,25.9,0,0,1,2.726-2.562,5.181,5.181,0,0,1,1.117-.79c.1.109-1.444,1.363-3.5,3.693a33.808,33.808,0,0,0-3.257,4.415,32.119,32.119,0,0,0-4.483,12.564,33.157,33.157,0,0,0-.286,5.451C243.738,234.427,244.147,236.321,244.011,236.321Z" transform="translate(35.327 31.167)" fill="#e0e0e0"/>
      <path id="Path_107544" data-name="Path 107544" d="M278.681,211.252a4.287,4.287,0,0,1-.75.8,9.183,9.183,0,0,1-2.616,1.513,11.72,11.72,0,0,1-9.7-.75,9.921,9.921,0,0,1-3.87-3.9,14.185,14.185,0,0,1-1.5-4.211,17.859,17.859,0,0,1-.368-2.957,2.723,2.723,0,0,1,0-1.1c.123,0,.218,1.554.8,3.952a15.945,15.945,0,0,0,1.581,3.993,9.676,9.676,0,0,0,3.652,3.611,11.706,11.706,0,0,0,9.2.886,16.612,16.612,0,0,0,3.57-1.84Z" transform="translate(41.403 29.568)" fill="#e0e0e0"/>
      <path id="Path_107545" data-name="Path 107545" d="M246.828,188.827a3.107,3.107,0,0,1-.981.627,10.519,10.519,0,0,1-3.012.968,12.266,12.266,0,0,1-4.688-.15,14.637,14.637,0,0,1-5.233-2.385,13.8,13.8,0,0,1-5.451-8.694,12.113,12.113,0,0,1-.164-3.148,3.515,3.515,0,0,1,.218-1.145,29.309,29.309,0,0,0,.436,4.184,14.159,14.159,0,0,0,5.356,8.176,14.65,14.65,0,0,0,4.974,2.317,12.577,12.577,0,0,0,4.47.286,23.168,23.168,0,0,0,4.075-1.036Z" transform="translate(29.593 20.227)" fill="#e0e0e0"/>
      <path id="Path_107546" data-name="Path 107546" d="M220.368,269.513a65.678,65.678,0,0,0-3.543-5.751,35.226,35.226,0,0,0-12.2-10.493,37.245,37.245,0,0,0-8.354-3.121,31.781,31.781,0,0,0-7.236-.831,64.062,64.062,0,0,0-6.718.613,7.526,7.526,0,0,1,1.758-.5,27.6,27.6,0,0,1,4.96-.613,30.238,30.238,0,0,1,7.386.7,35.986,35.986,0,0,1,8.531,3.134,33.632,33.632,0,0,1,12.265,10.834,30.824,30.824,0,0,1,2.48,4.32,7.331,7.331,0,0,1,.668,1.717Z" transform="translate(13.291 47.034)" fill="#e0e0e0"/>
      <path id="Path_107547" data-name="Path 107547" d="M238.858,197.92c.191,0,1.363,20.087,2.6,44.889s2.1,44.9,1.894,44.97-1.363-20.087-2.6-44.889S238.654,197.934,238.858,197.92Z" transform="translate(33.789 28.577)" fill="#263238"/>
      <path id="Path_107548" data-name="Path 107548" d="M200,224.127a16.708,16.708,0,0,0,6.677-5.969,17.715,17.715,0,0,0,1.853-3.557,18.9,18.9,0,0,0,1.077-4.865c0-1.54,1.785-2.344,2.616-1.24s.995,5.315-.954,9.866,4.838.9,7.332-.4,10.384-4.919,11.365-4.456c1.445.681.968,2.4-1.554,3.625s-9.812,5.451-9.1,6.814,13.3-5.451,13.3-5.451,2.48-1.881,3.339-.409c1.567,2.725-12.265,8.817-13.627,9.376-.927.382-.2,1.826.777,1.363s12.415-7.032,14.036-4.334c1.254,2.058-11.379,5.178-13.041,7.863s9.362-3.352,10.479-1.363c.409.763.613,1.363-6.187,3.925-3.652,1.363-9.7,2.017-16.544,5.178l-1.785.8" transform="translate(19.704 32.228)" fill="#f4d3bd"/>
      <path id="Path_107549" data-name="Path 107549" d="M181.594,254.1a3.985,3.985,0,0,1,.736-.382l2.14-.968,8.013-3.489,27.1-11.542-.164.518-3.625-5.805-7.713-12.265.4.136-23.058,7.3-6.677,2.071-1.8.518-.627.15a2.206,2.206,0,0,1,.6-.259l1.758-.627,6.609-2.249,22.949-7.59.259-.082.136.218,7.74,12.265L220,237.828l.218.341-.382.164-27.255,11.324-8.095,3.284-2.194.858A4.419,4.419,0,0,1,181.594,254.1Z" transform="translate(11.114 36.42)" fill="#263238"/>
      <path id="Path_107550" data-name="Path 107550" d="M179.52,222.255a8.681,8.681,0,0,1,9.185,2.467,30.8,30.8,0,0,0-4.415-1.921,32.129,32.129,0,0,0-4.77-.545Z" transform="translate(12.275 37.248)" fill="#263238"/>
    </g>
  </g>
</svg>
