<svg id="Component_Character_Female_N" data-name="Component/Character/Female/N" xmlns="http://www.w3.org/2000/svg" xmlns:xlink="http://www.w3.org/1999/xlink" width="180" height="180" viewBox="0 0 180 180">
  <defs>
    <clipPath id="clip-path">
      <rect id="Rectangle_9967" data-name="Rectangle 9967" width="180" height="180" transform="translate(18678 -22387)" fill="#fff" stroke="#707070" stroke-width="1"/>
    </clipPath>
  </defs>
  <g id="Component_Character_Female_N-2" data-name="Component/Character/Female/N" transform="translate(-18678 22387)" clip-path="url(#clip-path)">
    <g id="old-woman--inject-897" transform="translate(18149.488 -22494.641)">
      <path id="Path_14192" data-name="Path 14192" d="M589.773,134.35c-9.692,2.165-9.766,15.719-7.773,23.087.947,3.505,2.706,7.158,1.464,10.566-.886,2.46-3.149,4.157-3.8,6.642-.787,3.013,1.021,6.015,2.46,8.77s-3.223,20.578-5.2,22.976c5.805.467,19.4-.676,25.178-1.4s9.532-15.3,13.862-19.2" transform="translate(8.603 2.193)" fill="#e0e0e0"/>
      <path id="Path_14193" data-name="Path 14193" d="M637.477,465.83l-1.55-13.087,24.5-3.063,2.46,19.126-1.5.3c-6.716,1.23-34.23,5.719-38.917,4.92C617.244,473.111,637.477,465.83,637.477,465.83Z" transform="translate(18.88 74.713)" fill="#ff725e"/>
      <g id="Group_958" data-name="Group 958" transform="translate(672.864 536.385)" opacity="0.4">
        <path id="Path_14194" data-name="Path 14194" d="M647.93,467.511a8.61,8.61,0,0,1,2.46-5.621,8.339,8.339,0,0,1,5.5-2.46l.861,6.851Z" transform="translate(-647.93 -459.43)"/>
      </g>
      <g id="Group_959" data-name="Group 959" transform="translate(640.432 542.978)" opacity="0.4">
        <path id="Path_14195" data-name="Path 14195" d="M627.648,466.278s-7.035,3.013-5.978,4.1,29.028-2.46,41.229-5.043l-.1-.541-32.595,4.366S629.075,466.155,627.648,466.278Z" transform="translate(-621.562 -464.79)"/>
      </g>
      <path id="Path_14196" data-name="Path 14196" d="M663.185,464.74a1.833,1.833,0,0,1-.418.1l-1.23.221-4.428.75c-3.69.615-8.917,1.378-14.661,2.1s-10.959,1.23-14.76,1.6l-4.477.381-1.23.074h-.43l.418-.074,1.23-.135,4.465-.467c3.776-.394,8.979-.959,14.76-1.685s10.922-1.464,14.674-2.017l4.44-.652,1.23-.172A1.893,1.893,0,0,1,663.185,464.74Z" transform="translate(18.867 78.176)" fill="#263238"/>
      <path id="Path_14197" data-name="Path 14197" d="M629.159,469.312a6.568,6.568,0,0,0-2.829-3.542,3.973,3.973,0,0,1,2.829,3.542Z" transform="translate(19.966 78.413)" fill="#263238"/>
      <path id="Path_14198" data-name="Path 14198" d="M634.432,465.28a3.232,3.232,0,0,1-.9-.836c-.43-.517-.726-.984-.652-1.033s.455.32.886.836S634.493,465.231,634.432,465.28Z" transform="translate(21.47 77.87)" fill="#263238"/>
      <path id="Path_14199" data-name="Path 14199" d="M635.958,464.1a2.3,2.3,0,0,1-.935-.467c-.467-.32-.812-.652-.763-.713s.467.135.935.467S636.007,464.029,635.958,464.1Z" transform="translate(21.789 77.756)" fill="#263238"/>
      <path id="Path_14200" data-name="Path 14200" d="M636.89,461.883a2.915,2.915,0,0,1-1.23.32,2.767,2.767,0,0,1-1.23,0,3.112,3.112,0,0,1,1.23-.32,2.83,2.83,0,0,1,1.23,0Z" transform="translate(21.829 77.504)" fill="#263238"/>
      <path id="Path_14201" data-name="Path 14201" d="M637.146,460.5a2.46,2.46,0,0,1-1.378.59,2.361,2.361,0,0,1-1.488,0,7.58,7.58,0,0,1,1.427-.283A9.16,9.16,0,0,1,637.146,460.5Z" transform="translate(21.795 77.201)" fill="#263238"/>
      <path id="Path_14202" data-name="Path 14202" d="M634.136,463.622a4.711,4.711,0,0,1-1.574.184,9.139,9.139,0,0,1-1.722-.16,4.919,4.919,0,0,1-1.009-.27.886.886,0,0,1-.455-.443.652.652,0,0,1,.16-.664,2.915,2.915,0,0,1,3.69.406,2.852,2.852,0,0,1,.652.984c.1.258.111.418.086.418a4.426,4.426,0,0,0-.886-1.23,2.78,2.78,0,0,0-1.451-.7,2.46,2.46,0,0,0-1.857.357c-.221.221-.1.5.209.627a4.562,4.562,0,0,0,.935.271,10.3,10.3,0,0,0,1.673.221C633.533,463.647,634.136,463.573,634.136,463.622Z" transform="translate(20.659 77.498)" fill="#263238"/>
      <path id="Path_14203" data-name="Path 14203" d="M632.981,463.989a1.476,1.476,0,0,1-.32-1.07,2.794,2.794,0,0,1,.283-1.23,1.574,1.574,0,0,1,1.23-.959.627.627,0,0,1,.578.664,1.921,1.921,0,0,1-.185.738,4.606,4.606,0,0,1-.627,1.046,2.3,2.3,0,0,1-.824.75,8.828,8.828,0,0,0,.652-.873,5.734,5.734,0,0,0,.541-1.033c.172-.357.246-.972-.148-1s-.763.455-.959.8a2.571,2.571,0,0,0-.32,1.082,5.546,5.546,0,0,0,.1,1.082Z" transform="translate(21.421 77.254)" fill="#263238"/>
      <path id="Path_14204" data-name="Path 14204" d="M655.785,459.349a16.316,16.316,0,0,0-1.808.3,7.712,7.712,0,0,0-5.769,5.916c-.246,1.095-.2,1.808-.246,1.808s0-.172-.062-.492a6.522,6.522,0,0,1,.1-1.353,7.5,7.5,0,0,1,5.941-6.088,7.074,7.074,0,0,1,1.353-.135A1.971,1.971,0,0,1,655.785,459.349Z" transform="translate(24.926 76.925)" fill="#263238"/>
      <path id="Path_14205" data-name="Path 14205" d="M651.21,451.31a45.426,45.426,0,0,1,.836,5.006,47.363,47.363,0,0,1,.554,5.043,40.589,40.589,0,0,1-.849-5.006A41.7,41.7,0,0,1,651.21,451.31Z" transform="translate(25.688 75.088)" fill="#263238"/>
      <path id="Path_14206" data-name="Path 14206" d="M646.516,464.353a20.292,20.292,0,0,1-7.146.959c0-.086,1.611-.185,3.579-.455S646.5,464.267,646.516,464.353Z" transform="translate(22.965 78.084)" fill="#263238"/>
      <path id="Path_14207" data-name="Path 14207" d="M649.2,463.851s-.1.357-.209.75-.172.726-.258.726-.172-.369,0-.812S649.085,463.8,649.2,463.851Z" transform="translate(25.095 77.971)" fill="#263238"/>
      <path id="Path_14208" data-name="Path 14208" d="M650.482,461.841a1.67,1.67,0,0,1-.283.615c-.221.3-.455.48-.517.431s.062-.332.283-.615S650.409,461.792,650.482,461.841Z" transform="translate(25.333 77.508)" fill="#263238"/>
      <path id="Path_14209" data-name="Path 14209" d="M652.582,460.759c0,.086-.332.123-.676.3s-.578.394-.652.344.086-.406.517-.615S652.594,460.673,652.582,460.759Z" transform="translate(25.694 77.238)" fill="#263238"/>
      <path id="Path_14210" data-name="Path 14210" d="M653.912,460.173c0,.074-.086.209-.283.32s-.381.123-.418,0,.086-.209.283-.32S653.875,460.1,653.912,460.173Z" transform="translate(26.147 77.11)" fill="#263238"/>
      <path id="Path_14211" data-name="Path 14211" d="M587.79,462.8l-.074-13.185,24.7-.3.357,19.286-1.525.123c-6.814.455-34.649,1.857-39.224.541C566.881,467.77,587.79,462.8,587.79,462.8Z" transform="translate(7.29 74.63)" fill="#ff725e"/>
      <g id="Group_960" data-name="Group 960" transform="translate(611.057 535.964)" opacity="0.4">
        <path id="Path_14212" data-name="Path 14212" d="M597.68,466.261a8.61,8.61,0,0,1,3.087-5.3,8.29,8.29,0,0,1,5.744-1.857l.1,6.9Z" transform="translate(-597.68 -459.088)"/>
      </g>
      <g id="Group_961" data-name="Group 961" transform="translate(578.385 540.223)" opacity="0.4">
        <path id="Path_14213" data-name="Path 14213" d="M577.6,462.55s-7.38,2.214-6.4,3.407,29.114.836,41.586-.394v-.541l-32.877.689S579.042,462.6,577.6,462.55Z" transform="translate(-571.117 -462.55)"/>
      </g>
      <path id="Path_14214" data-name="Path 14214" d="M613.066,464.53a2.461,2.461,0,0,1-.43,0l-1.23.086-4.477.258c-3.788.184-9.028.369-14.76.443s-11.07,0-14.821,0l-4.489-.123-1.23-.061h-.418a1.6,1.6,0,0,1,.418,0h20.479c5.732,0,11.07-.234,14.76-.357l4.489-.16h1.23Z" transform="translate(7.29 78.128)" fill="#263238"/>
      <path id="Path_14215" data-name="Path 14215" d="M578.651,466.147a9.9,9.9,0,0,0-.861-2.14,10.267,10.267,0,0,0-1.55-1.7,3.96,3.96,0,0,1,2.46,3.837Z" transform="translate(8.447 77.617)" fill="#263238"/>
      <path id="Path_14216" data-name="Path 14216" d="M584.341,462.732a3.051,3.051,0,0,1-.787-.947c-.357-.566-.615-1.046-.541-1.095s.418.369.787.935a2.707,2.707,0,0,1,.541,1.107Z" transform="translate(10.001 77.244)" fill="#263238"/>
      <path id="Path_14217" data-name="Path 14217" d="M585.991,461.727a3.818,3.818,0,0,1-.873-.578c-.431-.381-.738-.726-.676-.787s.443.185.873.566S586.053,461.653,585.991,461.727Z" transform="translate(10.331 77.167)" fill="#263238"/>
      <path id="Path_14218" data-name="Path 14218" d="M587.182,459.587a2.879,2.879,0,0,1-1.292.172,2.779,2.779,0,0,1-1.23-.111,2.953,2.953,0,0,1,1.23-.185A2.991,2.991,0,0,1,587.182,459.587Z" transform="translate(10.383 76.958)" fill="#263238"/>
      <path id="Path_14219" data-name="Path 14219" d="M587.545,458.22a2.534,2.534,0,0,1-1.427.43,2.607,2.607,0,0,1-1.488-.172,7.75,7.75,0,0,1,1.464-.123A7.855,7.855,0,0,1,587.545,458.22Z" transform="translate(10.376 76.677)" fill="#263238"/>
      <path id="Path_14220" data-name="Path 14220" d="M584.252,461.007a4.255,4.255,0,0,1-1.587,0,9.55,9.55,0,0,1-1.685-.344,4.478,4.478,0,0,1-.972-.394.886.886,0,0,1-.406-.48.64.64,0,0,1,.234-.64,2.915,2.915,0,0,1,3.616.8,3,3,0,0,1,.529,1.058,1.131,1.131,0,0,1,0,.43,4.713,4.713,0,0,0-.75-1.353,2.9,2.9,0,0,0-1.365-.861,2.46,2.46,0,0,0-1.882.148c-.258.2-.148.492.135.652a3.839,3.839,0,0,0,.9.369,10.519,10.519,0,0,0,1.636.406C583.649,460.97,584.252,460.957,584.252,461.007Z" transform="translate(9.217 76.818)" fill="#263238"/>
      <path id="Path_14221" data-name="Path 14221" d="M583.092,461.247a1.538,1.538,0,0,1-.2-1.095,2.644,2.644,0,0,1,.418-1.168,1.587,1.587,0,0,1,1.316-.824.615.615,0,0,1,.492.726,1.759,1.759,0,0,1-.258.713,5.006,5.006,0,0,1-.738.972,2.459,2.459,0,0,1-.9.652s.307-.3.738-.8a4.646,4.646,0,0,0,.652-.959c.221-.332.357-.947,0-1.009s-.8.369-1.033.689a2.658,2.658,0,0,0-.443,1.033A5.643,5.643,0,0,0,583.092,461.247Z" transform="translate(9.971 76.663)" fill="#263238"/>
      <path id="Path_14222" data-name="Path 14222" d="M606.387,459.03s-.713,0-1.82.086a8.044,8.044,0,0,0-3.96,1.7,7.944,7.944,0,0,0-2.46,3.542c-.357,1.07-.381,1.771-.443,1.771a2.033,2.033,0,0,1,0-.5,6.8,6.8,0,0,1,.258-1.328,7.491,7.491,0,0,1,6.58-5.387,5.815,5.815,0,0,1,1.353,0A1.7,1.7,0,0,1,606.387,459.03Z" transform="translate(13.379 76.826)" fill="#263238"/>
      <path id="Path_14223" data-name="Path 14223" d="M602.583,450.72a42.031,42.031,0,0,1,.283,5.068,40.975,40.975,0,0,1,0,5.068,40.678,40.678,0,0,1-.271-5.068,42.626,42.626,0,0,1-.012-5.067Z" transform="translate(14.489 74.952)" fill="#263238"/>
      <path id="Path_14224" data-name="Path 14224" d="M596.478,463.006a14.585,14.585,0,0,1-3.6.406,13.9,13.9,0,0,1-3.6-.246c0-.086,1.611,0,3.6-.061S596.465,462.919,596.478,463.006Z" transform="translate(11.443 77.771)" fill="#263238"/>
      <path id="Path_14225" data-name="Path 14225" d="M599.189,462.941c.062.061-.123.344-.283.726s-.246.7-.332.689-.135-.381.061-.812S599.115,462.892,599.189,462.941Z" transform="translate(13.566 77.761)" fill="#263238"/>
      <path id="Path_14226" data-name="Path 14226" d="M600.693,461.085c.062.061-.1.32-.344.578s-.5.431-.566.369.1-.32.344-.578S600.631,460.986,600.693,461.085Z" transform="translate(13.858 77.33)" fill="#263238"/>
      <path id="Path_14227" data-name="Path 14227" d="M602.893,460.234c0,.086-.344.086-.7.221s-.615.32-.689.271.135-.406.59-.554S602.917,460.16,602.893,460.234Z" transform="translate(14.253 77.111)" fill="#263238"/>
      <path id="Path_14228" data-name="Path 14228" d="M604.279,459.8c0,.086-.111.209-.32.3s-.394.086-.418,0,.111-.2.307-.283S604.242,459.726,604.279,459.8Z" transform="translate(14.725 77.028)" fill="#263238"/>
      <path id="Path_14229" data-name="Path 14229" d="M572.387,217.606l-6.728,18.105L560.567,194.8a14.28,14.28,0,0,1,1.5-7.577,15.041,15.041,0,0,1,1.82-2.94,16.065,16.065,0,0,1,3.137-2.952,1.316,1.316,0,0,0-.234-2.46c-1.23-.123-4.379,1.6-6.912,5.055s-2.78-3.2-2.927-5.609-.922-9.84-1.7-10.406c-1.144-.775-2.2.332-2,2.743s.271,9.692-1,9.741-1.808-12.3-1.808-12.3.307-2.669-1.168-2.669c-2.669,0-1.119,13.038-.947,14.28.123.861-1.23.959-1.341,0s-.271-12.3-2.977-12.3c-2.079,0,1.23,10.738-.1,13.148s-1.636-8.425-3.616-8.352c-.738,0-1.23.148-.185,6.31.59,3.321,2.78,8.093,3.444,14.563l.185,1.673c.123,8.069,1.07,38.461,8.4,56.96a14.981,14.981,0,0,0,26.358,2.669,140.025,140.025,0,0,0,14.317-27.908Z" transform="translate(0 9.341)" fill="#ffbe9d"/>
      <path id="Path_14230" data-name="Path 14230" d="M561.2,190.565l3.136,36.272,17.429-37.773,10.295,33.062a139.522,139.522,0,0,1-14.317,27.9c-6.642,10.012-22.939,10.578-27.367-.59-7.38-18.45-7.269-50.958-7.38-59.039l-.185-1.673Z" transform="translate(0.758 14.697)" fill="#ff725e"/>
      <path id="Path_14231" data-name="Path 14231" d="M546,185.726c0,.061.418.061,1.058.283a3.776,3.776,0,0,1,2.054,1.685l.246.455.148-.5a6.288,6.288,0,0,1,.984-1.968,7.146,7.146,0,0,1,3.407-2.46c1.045-.381,1.759-.357,1.747-.443a3.382,3.382,0,0,0-1.845.123,6.888,6.888,0,0,0-3.69,2.546,6.382,6.382,0,0,0-1.021,2.128h.394a3.8,3.8,0,0,0-2.337-1.734,1.931,1.931,0,0,0-1.144-.111Z" transform="translate(1.492 13.313)" fill="#eb996e"/>
      <path id="Path_14232" data-name="Path 14232" d="M650.766,305.443c.271.91.554,1.968.836,3.247a9.731,9.731,0,0,1,.135,3.321,14.538,14.538,0,0,1-.923,4.047c-.578,1.144.541,2.4,1.574,1.87s2.694-3.69,2.829-7.761,4.059,1.058,5.523,2.915,6.236,7.38,7.171,7.38c1.353,0,1.611-1.451.111-3.272s-5.621-7.6-4.6-8.315,8.3,8.844,8.3,8.844,1.23,2.288,2.46,1.488c2.177-1.427-6.334-11.07-7.171-11.906-.578-.627.5-1.451,1.095-.75s7.048,9.7,9.274,8.253c1.71-1.095-6.925-7.946-7.22-10.553s6.015,5.855,7.6,4.735c.59-.418.972-.812-3.358-5.154-2.1-2.1-10.184-8.475-10.184-8.475L647.814,238.04H626.24Z" transform="translate(19.946 26.04)" fill="#ffbe9d"/>
      <path id="Path_14233" data-name="Path 14233" d="M676.091,305.713c-3.936-13.087-19.212-86.91-22.533-99.284-4.821-17.921-33.123-24.686-33.123-24.686l-25.375-1.23a13.676,13.676,0,0,0-3.518-.2c-11.611.578-19.987,11.439-18.216,22.927l-.984,6.064a115.325,115.325,0,0,0,2.288,47.969l1.857,7.048,53.639-2.46s4.551-5.535,4.293-10.479-2.731-17.908-2.731-17.908L659.6,311.014Z" transform="translate(7.203 12.756)" fill="#ff725e"/>
      <path id="Path_14234" data-name="Path 14234" d="M623.824,185.148a13.8,13.8,0,0,1,1.784,3.358,17.847,17.847,0,0,1,1.009,10.246,13.837,13.837,0,0,1-10.295,10.664,10.972,10.972,0,0,1-4.526.086,10.319,10.319,0,0,1-4.28-1.98,10.738,10.738,0,0,1-4.28-8.671c0-.369.086-.738.123-1.107l.258-1.058.627.123a8.363,8.363,0,0,1-1.833,4.514,10.541,10.541,0,0,1-3.69,2.878,9.926,9.926,0,0,1-4.453.922,9.5,9.5,0,0,1-4.182-1.168,12.078,12.078,0,0,1-5.24-5.892,12.474,12.474,0,0,1-.849-6.8,15.671,15.671,0,0,1,4.563-8.61,12.217,12.217,0,0,1,2.854-2.2,31.419,31.419,0,0,0-2.681,2.374,15.99,15.99,0,0,0-4.3,8.548,11.993,11.993,0,0,0,.9,6.531,11.586,11.586,0,0,0,5.031,5.584,8.99,8.99,0,0,0,3.936,1.07,9.25,9.25,0,0,0,4.17-.873,9.926,9.926,0,0,0,3.493-2.706,7.773,7.773,0,0,0,1.685-4.17l.627.123c-.074.32-.16.64-.246.972l-.111,1.033a10.111,10.111,0,0,0,4.022,8.13,9.581,9.581,0,0,0,4.022,1.882,10.233,10.233,0,0,0,4.28-.061,13.111,13.111,0,0,0,6.8-4.022,13.309,13.309,0,0,0,3.173-6.15,17.91,17.91,0,0,0-.8-10.061C624.538,186.3,623.751,185.185,623.824,185.148Z" transform="translate(10.197 12.796)" fill="#263238"/>
      <path id="Path_14235" data-name="Path 14235" d="M568.751,275.182c2.288-5.83,8.278-26.112,8.278-26.112l53.639-2.46s13.358,21.094,15.276,29.163S678.711,505.9,678.711,505.9l-34.267,1.07L610.853,331.085,615.859,503.6l-36.617-.873C578.3,487.477,566.561,280.791,568.751,275.182Z" transform="translate(6.662 28.011)" fill="#263238"/>
      <path id="Path_14236" data-name="Path 14236" d="M614.369,262.9c.135,0,.185,1.943,1.095,4.92a22.8,22.8,0,0,0,16.752,15.645c3,.7,4.92.615,4.92.738a4.749,4.749,0,0,1-1.353.1,20.219,20.219,0,0,1-3.69-.394,22.14,22.14,0,0,1-17.1-15.99,18.7,18.7,0,0,1-.64-3.69,5.313,5.313,0,0,1,.012-1.328Z" transform="translate(17.204 31.757)" fill="#455a64"/>
      <path id="Path_14237" data-name="Path 14237" d="M568.84,284.231c0-.111,1.23-.553,3.087-1.66a22.729,22.729,0,0,0,3.063-2.189,25.168,25.168,0,0,0,3.161-3.346,24.783,24.783,0,0,0,2.46-3.911,22.464,22.464,0,0,0,1.353-3.518c.578-2.066.689-3.419.8-3.407s0,.344,0,.959a14.832,14.832,0,0,1-.394,2.558,19.164,19.164,0,0,1-1.23,3.69,21.98,21.98,0,0,1-2.46,4.059,22.247,22.247,0,0,1-3.3,3.395,17.912,17.912,0,0,1-3.21,2.14,13.814,13.814,0,0,1-2.374,1.033A2.718,2.718,0,0,1,568.84,284.231Z" transform="translate(6.745 32.516)" fill="#455a64"/>
      <path id="Path_14238" data-name="Path 14238" d="M607,266a2.369,2.369,0,0,0,.123.6c.123.406.16,1.021.283,1.783.258,1.6.615,3.911,1.07,6.876.922,5.953,2.251,14.588,4,25.239,3.432,21.316,8.462,50.7,14.612,83.048,3.1,16.174,6.15,31.561,9.114,45.509s5.719,26.518,8.192,37.01l1.747,7.5,1.624,6.666c1.021,4.17,1.882,7.761,2.644,10.676s1.316,5.166,1.71,6.74c.185.75.32,1.328.43,1.747a3.64,3.64,0,0,1,.123.615s-.074-.2-.185-.59-.283-1-.492-1.747c-.43-1.562-1.046-3.813-1.82-6.7s-1.71-6.494-2.755-10.652c-.517-2.079-1.082-4.3-1.673-6.654s-1.168-4.92-1.8-7.491c-2.534-10.492-5.326-23.038-8.327-37s-6.064-29.347-9.163-45.509c-6.15-32.361-11.07-61.77-14.44-83.1-1.685-10.664-2.94-19.311-3.788-25.288-.406-2.964-.726-5.277-.947-6.876-.1-.775-.172-1.365-.234-1.8A5.7,5.7,0,0,1,607,266Z" transform="translate(15.521 32.47)" fill="#455a64"/>
      <path id="Path_14239" data-name="Path 14239" d="M591.6,496.2v-.566c0-.369-.061-.959-.1-1.673-.086-1.488-.209-3.69-.369-6.4-.3-5.6-.726-13.628-1.23-23.542-.283-4.92-.6-10.418-.935-16.26s-.726-12.078-1.365-18.622c-1.23-13.1-2.62-27.5-3.813-42.643s-2.066-29.606-2.46-42.766-.443-25.03-.16-34.981c.086-4.981.369-9.483.529-13.431s.455-7.38.689-10.123.455-4.92.59-6.384c.074-.7.123-1.23.172-1.66s.074-.566.074-.566a5.13,5.13,0,0,1,0,.578q0,.59-.111,1.66c-.1,1.488-.258,3.69-.467,6.4s-.344,6.15-.578,10.123-.369,8.438-.43,13.419c-.221,9.938-.184,21.8.3,34.944s1.353,27.588,2.546,42.729,2.546,29.52,3.764,42.656c.615,6.556.947,12.8,1.3,18.646s.59,11.291.861,16.26c.443,9.926.812,17.958,1.07,23.554.1,2.755.185,4.92.234,6.408v1.66A1.039,1.039,0,0,1,591.6,496.2Z" transform="translate(9.54 34.906)" fill="#455a64"/>
      <path id="Path_14240" data-name="Path 14240" d="M584.583,156.3c-6.236-15.412,2.841-24.686,8.7-27.982,3.493-1.968,7.614-2.349,11.586-2.46a41.683,41.683,0,0,1,11.66,1.23A20.688,20.688,0,0,1,626.537,133c4.662,5.252,5.621,12.952,5.055,20.049a56.984,56.984,0,0,1-7.38,23.812,5.9,5.9,0,0,1-2.079,2.4,2.116,2.116,0,0,1-2.8-.541" transform="translate(9.882 0.234)" fill="#e0e0e0"/>
      <path id="Path_14241" data-name="Path 14241" d="M605.376,207.262c6.728.541,12.73-5.289,13.653-15.891l4.674-53.9-.332,3.69a4.256,4.256,0,0,0-3.69-4.44l-20.91-2.46a12.939,12.939,0,0,0-14.255,12c-.64,8.2-1.119,18.241-.271,24.378,1.71,12.3,10.922,13.985,10.922,13.985l-.9,8.93a12.3,12.3,0,0,0,11.07,13.653Z" transform="translate(10.183 2.157)" fill="#ffbe9d"/>
      <path id="Path_14242" data-name="Path 14242" d="M595.04,161.547a10.554,10.554,0,0,0-2.694-.529c-.43,0-.836-.135-.9-.43a2.2,2.2,0,0,1,.307-1.291c.418-1.046.849-2.14,1.316-3.3a58.122,58.122,0,0,0,2.964-8.61,60.117,60.117,0,0,0-3.69,8.364q-.664,1.734-1.23,3.321a2.6,2.6,0,0,0-.258,1.7,1.045,1.045,0,0,0,.689.64,2.82,2.82,0,0,0,.726.111,11.427,11.427,0,0,0,2.767.025Z" transform="translate(11.798 5.192)" fill="#263238"/>
      <path id="Path_14243" data-name="Path 14243" d="M593.055,176.033a30.319,30.319,0,0,0,16.236-4.243s-4.477,8.475-16.531,7.208Z" transform="translate(12.246 10.804)" fill="#eb996e"/>
      <path id="Path_14244" data-name="Path 14244" d="M594.792,162.441a3.014,3.014,0,0,1,2.718-1.107,2.706,2.706,0,0,1,1.87,1.045,1.808,1.808,0,0,1,.1,2.029,1.98,1.98,0,0,1-2.189.541,6.053,6.053,0,0,1-2.115-1.316,1.833,1.833,0,0,1-.467-.5.6.6,0,0,1,0-.627" transform="translate(12.673 8.394)" fill="#eb996e"/>
      <path id="Path_14245" data-name="Path 14245" d="M599.215,159.89c-.271,0-.3,1.82-1.87,3.124s-3.493,1.07-3.505,1.328.418.369,1.23.394A4.489,4.489,0,0,0,598,163.728a4.072,4.072,0,0,0,1.464-2.62C599.535,160.333,599.35,159.878,599.215,159.89Z" transform="translate(12.494 8.067)" fill="#263238"/>
      <path id="Path_14246" data-name="Path 14246" d="M598.772,146.492c.148.467,1.82.271,3.764.529s3.518.812,3.788.394c.123-.2-.148-.627-.775-1.082a6.458,6.458,0,0,0-5.756-.7C599.055,145.914,598.7,146.283,598.772,146.492Z" transform="translate(13.626 4.701)" fill="#e0e0e0"/>
      <path id="Path_14247" data-name="Path 14247" d="M586.607,144.635c.283.394,1.439,0,2.817,0s2.546.283,2.817-.123c.123-.2,0-.578-.554-.947a3.985,3.985,0,0,0-4.551.1C586.644,144.056,586.484,144.45,586.607,144.635Z" transform="translate(10.822 4.16)" fill="#e0e0e0"/>
      <path id="Path_14248" data-name="Path 14248" d="M592.978,127.823c11.82-6.568,24.28-1.722,33.542,8.093,2.042,2.165,3.875,4.711,6.568,5.928,2.9,1.328,6.814,1.156,8.511,3.911,1.98,3.223-.861,7.687.554,11.205,1.3,3.235,5.609,4.207,7.159,7.38,1.23,2.46.369,5.4-.283,8.081s-.935,5.9,1.009,7.8l-25.35,9.446a6.359,6.359,0,0,1-3.542.344c-3.555-.763-3.69-4.145-3.358-6.937.3-2.079.787-4.293,0-6.15-.972-2.275-3.555-3.518-4.428-5.83-1.537-4.084,3.05-8.253,2.6-12.62a9.483,9.483,0,0,0-4.772-7.048c-2.46-1.132-6.15-1.66-7.835-2.46-5.56-2.644-10.775-6.457-13.2-12.669a6.777,6.777,0,0,1,2.866-8.339Z" transform="translate(11.536)" fill="#e0e0e0"/>
      <path id="Path_14249" data-name="Path 14249" d="M599.731,153.144c.123-.148,1.119.566,2.534.48a10.835,10.835,0,0,0,2.46-.664,1.51,1.51,0,0,1-.541.664,3.419,3.419,0,0,1-1.931.64,3.468,3.468,0,0,1-1.968-.492C599.867,153.489,599.682,153.206,599.731,153.144Z" transform="translate(13.847 6.473)" fill="#eb996e"/>
      <path id="Path_14250" data-name="Path 14250" d="M586.252,152.646a4.626,4.626,0,0,0,5.264-.984c.1.123,0,.394-.418.836a3.53,3.53,0,0,1-1.968,1.132,3.444,3.444,0,0,1-2.251-.332C586.412,153.015,586.19,152.707,586.252,152.646Z" transform="translate(10.747 6.173)" fill="#eb996e"/>
      <path id="Path_14251" data-name="Path 14251" d="M597.89,159.179c0-.16.529-.431,1.23-.111s.787.947.615,1.009-.467-.234-.9-.43S597.939,159.363,597.89,159.179Z" transform="translate(13.426 7.844)" fill="#eb996e"/>
      <path id="Path_14252" data-name="Path 14252" d="M593.069,163.234c.16.1.2.32.246.529a.947.947,0,0,1,0,.59c-.086.148-.517,0-.6-.467S592.934,163.124,593.069,163.234Z" transform="translate(12.232 8.831)" fill="#eb996e"/>
      <path id="Path_14253" data-name="Path 14253" d="M597.138,167.621c-.172,0,.16-1.353,1.464-2.288s2.669-.824,2.632-.652a17.3,17.3,0,0,0-2.263,1.23C597.851,166.8,597.31,167.707,597.138,167.621Z" transform="translate(13.243 9.142)" fill="#eb996e"/>
      <path id="Path_14254" data-name="Path 14254" d="M601.4,162.2c-.1,0,0-.566-.455-1.23a2.349,2.349,0,0,0-1-.922,10.218,10.218,0,0,1-1.747-.824,2.915,2.915,0,0,1-.972-3.382c.369-.9.935-1.23.972-1.119s-.332.467-.541,1.23a2.62,2.62,0,0,0,.923,2.743c.467.344,1.095.492,1.636.812a2.461,2.461,0,0,1,1.119,1.23C601.7,161.636,601.458,162.239,601.4,162.2Z" transform="translate(13.228 6.874)" fill="#eb996e"/>
      <path id="Path_14255" data-name="Path 14255" d="M587.8,150.722a1.513,1.513,0,0,0,1.328,1.636,1.451,1.451,0,0,0,1.636-1.23,1.5,1.5,0,0,0-1.328-1.636,1.464,1.464,0,0,0-1.636,1.23Z" transform="translate(11.104 5.673)" fill="#263238"/>
      <path id="Path_14256" data-name="Path 14256" d="M586.414,149.536c.172.209,1.365-.566,2.964-.455s2.73,1,2.915.812-.074-.455-.554-.873a4.083,4.083,0,0,0-2.312-.9,3.973,3.973,0,0,0-2.386.615C586.524,149.093,586.328,149.45,586.414,149.536Z" transform="translate(10.782 5.359)" fill="#263238"/>
      <path id="Path_14257" data-name="Path 14257" d="M600.431,151.533a1.513,1.513,0,0,0,1.328,1.636,1.451,1.451,0,0,0,1.636-1.23,1.5,1.5,0,0,0-1.328-1.636,1.451,1.451,0,0,0-1.636,1.23Z" transform="translate(14.009 5.859)" fill="#263238"/>
      <path id="Path_14258" data-name="Path 14258" d="M599.254,150.366c.172.209,1.365-.578,2.964-.467s2.731,1.009,2.915.812,0-.455-.553-.861a4.034,4.034,0,0,0-4.7-.283C599.364,149.923,599.167,150.243,599.254,150.366Z" transform="translate(13.735 5.55)" fill="#263238"/>
      <path id="Path_14259" data-name="Path 14259" d="M612.6,175.207c-.246,4.637,2.054,5.805,1.328,8.106-.492,1.562-1.587,2.866-2.017,4.44-.763,2.817.75,5.658,1.906,8.315s1.845,6.088-.123,8.216a50.847,50.847,0,0,0,15.571.3l1.033-4.108c.135,2.116,2.337,3.579,4.416,3.616a12.792,12.792,0,0,0,5.879-1.919,12.3,12.3,0,0,1,5.9-1.833c.172-.959.357-1.906.529-2.854a8.61,8.61,0,0,0,6.888,1.23,26.453,26.453,0,0,0,6.716-2.718,16.384,16.384,0,0,1-6.617-12.214c-.111-1.98.123-4.059-.627-5.892-1.156-2.78-4.17-4.1-6.58-5.842s-4.465-5.129-2.767-7.626" transform="translate(16.602 9.109)" fill="#e0e0e0"/>
      <path id="Path_14260" data-name="Path 14260" d="M647.72,180.39a3.283,3.283,0,0,1-.652-.627,6.913,6.913,0,0,1-1.23-2.276,14.865,14.865,0,0,1-.652-4.047c-.074-1.611.074-3.419-.1-5.387a8.352,8.352,0,0,0-2.325-5.744c-1.673-1.574-4.354-1.968-6.42-3.874a7.379,7.379,0,0,1-1.943-3.69,28.74,28.74,0,0,1-.529-4.256,17.809,17.809,0,0,0-.713-4.243,8.289,8.289,0,0,0-2.386-3.579c-2.226-2.029-5.068-3.038-7.663-4.317a19.289,19.289,0,0,1-3.69-2.251,34.715,34.715,0,0,1-3.026-2.767,29.429,29.429,0,0,0-5.621-4.92,17.932,17.932,0,0,0-6.027-2.189,21.869,21.869,0,0,0-9.311.443c-2.152.59-3.26,1.23-3.284,1.107a3.69,3.69,0,0,1,.787-.43,18.015,18.015,0,0,1,2.46-.91,21.168,21.168,0,0,1,9.458-.652,17.982,17.982,0,0,1,6.224,2.177,29.9,29.9,0,0,1,5.769,4.92,37.257,37.257,0,0,0,2.989,2.706,19.026,19.026,0,0,0,3.555,2.165c2.534,1.23,5.461,2.275,7.81,4.4a8.857,8.857,0,0,1,2.558,3.862,18.446,18.446,0,0,1,.738,4.391,29.373,29.373,0,0,0,.492,4.157,6.765,6.765,0,0,0,1.759,3.419c1.845,1.759,4.551,2.2,6.371,3.9a6.949,6.949,0,0,1,1.857,2.952,12.307,12.307,0,0,1,.566,3.149c.148,2.017,0,3.838,0,5.412a14.844,14.844,0,0,0,.541,3.985,8.329,8.329,0,0,0,1.636,3.013Z" transform="translate(12.106 0.162)" fill="#fafafa"/>
      <path id="Path_14261" data-name="Path 14261" d="M643.3,168.165a5.081,5.081,0,0,0-1.107-2.46,8.142,8.142,0,0,0-2.46-1.943c-1.095-.6-2.46-1.095-3.862-1.956a8.609,8.609,0,0,1-3.346-4.108,27.393,27.393,0,0,1-1.513-5.855,19.115,19.115,0,0,0-1.968-6.15,7.577,7.577,0,0,0-2.263-2.46,15.509,15.509,0,0,0-3.161-1.587c-1.119-.443-2.263-.849-3.358-1.39a14.565,14.565,0,0,1-2.989-1.956,58.483,58.483,0,0,1-4.686-4.748,20.073,20.073,0,0,0-4.5-3.813,15.817,15.817,0,0,0-4.8-1.82,34.523,34.523,0,0,0-7.491-.578h-2.054a2.459,2.459,0,0,1-.726,0,4.831,4.831,0,0,1,.713-.1c.467,0,1.23-.111,2.054-.16a32.15,32.15,0,0,1,7.6.394,16.334,16.334,0,0,1,4.92,1.8,20.665,20.665,0,0,1,4.662,3.874,63.971,63.971,0,0,0,4.649,4.674,14.094,14.094,0,0,0,2.878,1.87c1.045.5,2.177.91,3.321,1.365a15.25,15.25,0,0,1,3.284,1.66,8.228,8.228,0,0,1,2.46,2.657,19.531,19.531,0,0,1,2,6.408,27.761,27.761,0,0,0,1.427,5.756,8.117,8.117,0,0,0,3.05,3.9c1.316.849,2.681,1.378,3.788,2.017a8.2,8.2,0,0,1,2.546,2.1,4.539,4.539,0,0,1,.873,1.894,2.468,2.468,0,0,1,0,.541C643.314,168.1,643.314,168.165,643.3,168.165Z" transform="translate(12.306 0.506)" fill="#fff"/>
      <path id="Path_14262" data-name="Path 14262" d="M644.143,209.087a4.646,4.646,0,0,1-1.119.086,6.629,6.629,0,0,1-3.087-.886,6.778,6.778,0,0,1-3.112-3.985,7.122,7.122,0,0,1-.221-3.21,14.762,14.762,0,0,1,1.132-3.407,14.759,14.759,0,0,0,1.23-3.628,4.526,4.526,0,0,0-1.156-3.69,21.358,21.358,0,0,0-3.481-2.792,10.1,10.1,0,0,1-3.21-3.69A10.258,10.258,0,0,1,630,178.867a19.2,19.2,0,0,1,1.23-5.178,10.256,10.256,0,0,0,.5-2.558,4.243,4.243,0,0,0-.64-2.46,7.712,7.712,0,0,0-4.526-2.694,15.9,15.9,0,0,1-5.314-2.03,5.3,5.3,0,0,1-1.771-2.288A7.38,7.38,0,0,1,619,158.9c0-1.833.3-3.567.221-5.252a7.011,7.011,0,0,0-1.685-4.44c-2.054-2.46-5.1-3.592-7.847-4.465-1.39-.443-2.743-.861-4.022-1.378a24.6,24.6,0,0,1-3.505-1.783,24.268,24.268,0,0,1-8.155-8.438,16.29,16.29,0,0,1-1.759-3.948,1.5,1.5,0,0,1,.135.258l.332.75a26.87,26.87,0,0,0,1.513,2.817,24.6,24.6,0,0,0,8.167,8.229,25.652,25.652,0,0,0,3.444,1.71c1.23.492,2.6.9,4,1.328a30.474,30.474,0,0,1,4.268,1.624,11.782,11.782,0,0,1,3.875,2.964,7.638,7.638,0,0,1,1.845,4.8c.086,1.771-.234,3.518-.209,5.264a5.289,5.289,0,0,0,2,4.539,15.129,15.129,0,0,0,5.1,1.931,8.278,8.278,0,0,1,4.92,2.964,4.846,4.846,0,0,1,.726,2.8,10.863,10.863,0,0,1-.529,2.718,17.85,17.85,0,0,0-1.23,5.018,9.582,9.582,0,0,0,4.059,8.216,21.756,21.756,0,0,1,3.542,2.891,5.055,5.055,0,0,1,1.23,4.108,14.329,14.329,0,0,1-1.23,3.751,15.625,15.625,0,0,0-1.144,3.284,6.8,6.8,0,0,0,.172,3.05,6.5,6.5,0,0,0,2.89,3.862,6.937,6.937,0,0,0,2.964.984C643.749,209.1,644.131,209.05,644.143,209.087Z" transform="translate(12.129 1.009)" fill="#fafafa"/>
      <path id="Path_14263" data-name="Path 14263" d="M597.728,212.365a.7.7,0,0,1,.455-.135,1.882,1.882,0,0,1,1.23.467,2.092,2.092,0,1,1-3.186.713,1.931,1.931,0,0,1,.886-.935c.283-.135.467-.111.467-.074a2.076,2.076,0,0,0-.922,1.23,1.771,1.771,0,0,0,.135,1.464,1.513,1.513,0,0,0,1.6.554,1.476,1.476,0,0,0,1.23-1.23,1.808,1.808,0,0,0-.492-1.39,2.632,2.632,0,0,0-1.4-.664Z" transform="translate(12.997 20.104)" fill="#263238"/>
      <path id="Path_14264" data-name="Path 14264" d="M595.654,231.409c0-.061.554,0,1.23.443a1.8,1.8,0,0,1,.75,1.378,1.512,1.512,0,0,1-.271.959,1.23,1.23,0,0,1-1.009.529,1.71,1.71,0,0,1-1.525-1.23,2.115,2.115,0,0,1,.234-1.537c.43-.738.873-1.009.935-.959a12.28,12.28,0,0,1-.529,1.156,1.8,1.8,0,0,0-.074,1.23,1.23,1.23,0,0,0,.972.763.758.758,0,0,0,.677-.836,1.414,1.414,0,0,0-.455-1.033C596.1,231.692,595.6,231.508,595.654,231.409Z" transform="translate(12.71 24.418)" fill="#263238"/>
      <path id="Path_14265" data-name="Path 14265" d="M623.184,231.84a13.89,13.89,0,0,1-1.23-2.755c-.664-1.734-1.513-4.157-2.386-6.863s-1.587-5.166-2.066-6.962a14.133,14.133,0,0,1-.652-2.94,14.23,14.23,0,0,1,1.082,2.817c.652,1.98,1.415,4.317,2.251,6.888s1.574,4.92,2.2,6.912a14.921,14.921,0,0,1,.8,2.9Z" transform="translate(17.786 20.125)" fill="#263238"/>
      <path id="Path_14266" data-name="Path 14266" d="M575.341,252.743a2.251,2.251,0,0,1-.234-.554c-.16-.43-.332-.959-.554-1.6s-.529-1.55-.787-2.558-.627-2.152-.885-3.432a78.9,78.9,0,0,1-1.587-9.114,84.762,84.762,0,0,1-.48-11.3,81.272,81.272,0,0,1,1.23-11.267c.344-1.71.64-3.333,1.058-4.834s.787-2.878,1.23-4.133.824-2.362,1.23-3.346.713-1.808,1.021-2.46l.713-1.537a2.327,2.327,0,0,1,.283-.517,2.08,2.08,0,0,1-.16.566c-.172.431-.369.947-.6,1.574s-.6,1.513-.922,2.46-.75,2.091-1.082,3.358-.775,2.632-1.119,4.133-.664,3.1-1,4.8a86.8,86.8,0,0,0-1.119,11.181,88.394,88.394,0,0,0,.43,11.23,84.2,84.2,0,0,0,1.439,9.077c.234,1.23.554,2.46.787,3.444s.467,1.87.677,2.583l.443,1.624A3.254,3.254,0,0,1,575.341,252.743Z" transform="translate(7.193 16.392)" fill="#263238"/>
      <path id="Path_14267" data-name="Path 14267" d="M558.742,231.9a4.206,4.206,0,0,1-.677-1.857,11.921,11.921,0,0,1,0-4.785,12.139,12.139,0,0,1,1.82-4.416c.7-1.009,1.23-1.513,1.341-1.464a16.15,16.15,0,0,0-2.46,12.521Z" transform="translate(4.211 21.748)" fill="#263238"/>
      <path id="Path_14268" data-name="Path 14268" d="M658.359,280.22a110.873,110.873,0,0,1-16.469,3.924,57.158,57.158,0,0,1,8.167-2.263A54.929,54.929,0,0,1,658.359,280.22Z" transform="translate(23.545 35.741)" fill="#fafafa"/>
      <path id="Path_14269" data-name="Path 14269" d="M658.589,277.59a64.8,64.8,0,0,1-8.721,2.46A64.086,64.086,0,0,1,641,281.784a63.808,63.808,0,0,1,8.721-2.386,65.362,65.362,0,0,1,8.868-1.808Z" transform="translate(23.34 35.136)" fill="#fafafa"/>
      <path id="Path_14270" data-name="Path 14270" d="M628.844,221.488c0,.172-12.915.209-28.843.086s-28.831-.369-28.831-.553,12.915-.209,28.843-.086S628.844,221.3,628.844,221.488Z" transform="translate(7.281 22.089)" fill="#fafafa"/>
      <path id="Path_14271" data-name="Path 14271" d="M630.868,223.014c0,.172-13.3.553-29.692.849s-29.716.369-29.716.2,13.284-.553,29.7-.849S630.868,222.879,630.868,223.014Z" transform="translate(7.347 22.567)" fill="#fafafa"/>
      <path id="Path_14272" data-name="Path 14272" d="M597.693,260.1a4.047,4.047,0,0,1-.64-.271,7.243,7.243,0,0,1-1.6-1.23,12.485,12.485,0,0,1-3.026-6.63,34.307,34.307,0,0,1-.529-5.043c-.111-1.808-.148-3.69-.16-5.793a102.294,102.294,0,0,1,.863-13.277,105.777,105.777,0,0,1,5.766-23.352c1.107-2.89,2.1-5.178,2.841-6.74.357-.713.64-1.3.873-1.783a3.009,3.009,0,0,1,.344-.6,2.694,2.694,0,0,1-.234.664l-.763,1.82c-.664,1.587-1.587,3.9-2.632,6.8a113.772,113.772,0,0,0-5.572,23.37,110.783,110.783,0,0,0-.9,13.173c0,2.029,0,3.961.1,5.769a37.323,37.323,0,0,0,.443,4.92,12.656,12.656,0,0,0,2.767,6.544,11.231,11.231,0,0,0,2.054,1.661Z" transform="translate(12.011 16.229)" fill="#263238"/>
    </g>
  </g>
</svg>
